<?xml version="1.0" encoding="UTF-8" standalone="no"?>
<svg
   xmlns:dc="http://purl.org/dc/elements/1.1/"
   xmlns:cc="http://creativecommons.org/ns#"
   xmlns:rdf="http://www.w3.org/1999/02/22-rdf-syntax-ns#"
   xmlns:svg="http://www.w3.org/2000/svg"
   xmlns="http://www.w3.org/2000/svg"
   xmlns:sodipodi="http://sodipodi.sourceforge.net/DTD/sodipodi-0.dtd"
   xmlns:inkscape="http://www.inkscape.org/namespaces/inkscape"
   width="448"
   height="512"
   viewBox="0 0 448 512"
   version="1.1"
   id="svg8"
   inkscape:version="1.0 (1.0+r73+1)"
   sodipodi:docname="academia.svg">
  <title
     id="title833">Academia</title>
  <defs
     id="defs2" />
  <sodipodi:namedview
     id="base"
     pagecolor="#ffffff"
     bordercolor="#666666"
     borderopacity="1.0"
     inkscape:pageopacity="0.0"
     inkscape:pageshadow="2"
     inkscape:zoom="0.75"
     inkscape:cx="121.53129"
     inkscape:cy="256"
     inkscape:document-units="px"
     inkscape:current-layer="layer6"
     inkscape:document-rotation="0"
     showgrid="true"
     units="px"
     showguides="true"
     inkscape:guide-bbox="true"
     inkscape:window-width="1315"
     inkscape:window-height="713"
     inkscape:window-x="51"
     inkscape:window-y="27"
     inkscape:window-maximized="1">
    <inkscape:grid
       type="xygrid"
       id="grid10"
       empspacing="4" />
    <sodipodi:guide
       position="448,64"
       orientation="0,1"
       id="guide9"
       inkscape:label="baseline"
       inkscape:locked="true"
       inkscape:color="rgb(0,0,255)" />
  </sodipodi:namedview>
  <metadata
     id="metadata5">
    <rdf:RDF>
      <cc:Work
         rdf:about="">
        <dc:format>image/svg+xml</dc:format>
        <dc:type
           rdf:resource="http://purl.org/dc/dcmitype/StillImage" />
        <dc:title>Academia</dc:title>
        <cc:license
           rdf:resource="http://scripts.sil.org/OFL" />
        <dc:subject>
          <rdf:Bag>
            <rdf:li>Academia</rdf:li>
          </rdf:Bag>
        </dc:subject>
      </cc:Work>
      <cc:License
         rdf:about="http://scripts.sil.org/OFL">
        <cc:permits
           rdf:resource="http://scripts.sil.org/pub/OFL/Reproduction" />
        <cc:permits
           rdf:resource="http://scripts.sil.org/pub/OFL/Distribution" />
        <cc:permits
           rdf:resource="http://scripts.sil.org/pub/OFL/Embedding" />
        <cc:permits
           rdf:resource="http://scripts.sil.org/pub/OFL/DerivativeWorks" />
        <cc:requires
           rdf:resource="http://scripts.sil.org/pub/OFL/Notice" />
        <cc:requires
           rdf:resource="http://scripts.sil.org/pub/OFL/Attribution" />
        <cc:requires
           rdf:resource="http://scripts.sil.org/pub/OFL/ShareAlike" />
        <cc:requires
           rdf:resource="http://scripts.sil.org/pub/OFL/DerivativeRenaming" />
        <cc:requires
           rdf:resource="http://scripts.sil.org/pub/OFL/BundlingWhenSelling" />
      </cc:License>
    </rdf:RDF>
  </metadata>
  <g
     inkscape:groupmode="layer"
     id="layer6"
     inkscape:label="icon">
    <path
       id="path2"
       d="m 244.37672,427.34892 c 0,6.85088 -0.0434,13.70309 -0.0434,20.59736 60.02632,0.0888 120.05267,0 180.07713,0.0454 0,-6.85224 -0.0438,-13.70312 -0.0438,-20.55359 -12.06644,-2.43171 -26.96382,-5.83525 -31.60485,-18.96208 C 346.66088,293.77258 299.89339,179.2894 254.41048,64.36557 c -33.23972,-0.574514 -66.47946,-0.353915 -99.71919,-0.131943 6.18782,13.880334 11.36,28.199521 17.76975,41.991263 -38.94164,101.17732 -78.50253,202.17745 -118.020033,303.13465 -4.464358,12.8629 -19.095914,15.73716 -30.807997,18.16705 0,6.76369 -0.04346,13.57115 -0.04346,20.37823 38.278575,0.17726 76.55669,0.0438 114.83526,0.0884 -0.0434,-6.93902 -0.0434,-13.83511 -0.0867,-20.73078 -12.02307,-1.85545 -25.81435,-1.63484 -35.58287,-9.94522 -7.69069,-7.42534 -4.28717,-19.00735 -1.10559,-27.71497 7.64732,-19.75723 14.89733,-39.69289 23.25109,-59.1861 46.36839,0.26544 92.68975,-0.0435 139.05815,0.13195 6.36638,15.82391 12.73088,31.69164 19.0959,47.5608 4.24377,10.69508 8.08982,22.67478 4.64108,34.16673 -8.93007,14.81057 -28.28949,13.92695 -43.31878,15.07404 z M 138.73505,293.64014 c 17.76974,-47.20819 36.59849,-94.06111 54.01387,-141.40129 18.78674,47.16345 37.70409,94.28169 56.53422,141.40129 a 11615.148,11615.148 0 0 1 -110.54809,0 z"
       style="stroke-width:0.264583" />
  </g>
</svg>
