<?xml version="1.0" encoding="utf-8"?>
<!-- Generator: Adobe Illustrator 16.0.0, SVG Export Plug-In . SVG Version: 6.00 Build 0)  -->
<!DOCTYPE svg PUBLIC "-//W3C//DTD SVG 1.1//EN" "http://www.w3.org/Graphics/SVG/1.1/DTD/svg11.dtd" [
	<!ENTITY st0 "fill-rule:evenodd;clip-rule:evenodd;fill:#444444;">
	<!ENTITY st1 "fill:#FFFFFF;">
	<!ENTITY st2 "fill:#444444;">
]>
<svg version="1.1" id="Layer_1" xmlns="http://www.w3.org/2000/svg" xmlns:xlink="http://www.w3.org/1999/xlink" x="0px" y="0px"
	 width="28px" height="28px" viewBox="0 0 28 28" style="enable-background:new 0 0 28 28;" xml:space="preserve">
<g>
	<path style="&st2;" d="M16.082,22.678C13.76,25.256,11.545,26,9.28,26C5.762,26,2,23.996,2,19.435c0-3.946,2.701-6.674,6.934-7.221
		c1.19-0.153,3.918-0.035,7.148-0.147V9.843c-0.207-3.331-2.076-3.94-3.33-4.223C11.68,5.38,8.693,5.249,6.857,7.034L6.851,9.389
		H3.019V4.66C5.814,2.69,9.172,2,12.304,2c4.918,0,8.232,2.562,8.232,8.083v12.148l1.637,0.002v3.156h-6.091V22.678z M16.082,15.438
		c0,0-2.902,0-5.021,0s-4.538,1.327-4.359,3.817c0.099,1.389,0.914,2.399,2.139,2.572c0.533,0.075,2.021,0.267,3.53-0.241
		c1.72-0.578,2.537-1.429,3.711-2.729V15.438z"/>
</g>
</svg>
