<?xml version="1.0" encoding="UTF-8" standalone="no"?>
<svg
   xmlns:dc="http://purl.org/dc/elements/1.1/"
   xmlns:cc="http://creativecommons.org/ns#"
   xmlns:rdf="http://www.w3.org/1999/02/22-rdf-syntax-ns#"
   xmlns:svg="http://www.w3.org/2000/svg"
   xmlns="http://www.w3.org/2000/svg"
   xmlns:sodipodi="http://sodipodi.sourceforge.net/DTD/sodipodi-0.dtd"
   xmlns:inkscape="http://www.inkscape.org/namespaces/inkscape"
   sodipodi:docname="academia-square.svg"
   inkscape:version="1.0 (1.0+r73+1)"
   id="svg8"
   version="1.1"
   viewBox="0 0 448 512"
   height="512"
   width="448">
  <title
     id="title835">Academia</title>
  <defs
     id="defs2" />
  <sodipodi:namedview
     inkscape:window-maximized="1"
     inkscape:window-y="27"
     inkscape:window-x="51"
     inkscape:window-height="713"
     inkscape:window-width="1315"
     inkscape:guide-bbox="true"
     showguides="true"
     units="px"
     showgrid="true"
     inkscape:document-rotation="0"
     inkscape:current-layer="layer6"
     inkscape:document-units="px"
     inkscape:cy="256"
     inkscape:cx="224"
     inkscape:zoom="0.75"
     inkscape:pageshadow="2"
     inkscape:pageopacity="0.0"
     borderopacity="1.0"
     bordercolor="#666666"
     pagecolor="#ffffff"
     id="base">
    <inkscape:grid
       empspacing="4"
       id="grid10"
       type="xygrid" />
    <sodipodi:guide
       inkscape:color="rgb(0,0,255)"
       inkscape:locked="true"
       inkscape:label=""
       id="guide832"
       orientation="0,1"
       position="448,416" />
    <sodipodi:guide
       inkscape:color="rgb(0,0,255)"
       inkscape:locked="true"
       inkscape:label=""
       id="guide834"
       orientation="0,1"
       position="448,96" />
    <sodipodi:guide
       inkscape:color="rgb(0,0,255)"
       inkscape:locked="true"
       inkscape:label="baseline"
       id="guide836"
       orientation="0,1"
       position="448,64" />
  </sodipodi:namedview>
  <metadata
     id="metadata5">
    <rdf:RDF>
      <cc:Work
         rdf:about="">
        <dc:format>image/svg+xml</dc:format>
        <dc:type
           rdf:resource="http://purl.org/dc/dcmitype/StillImage" />
        <dc:title>Academia</dc:title>
        <cc:license
           rdf:resource="http://scripts.sil.org/OFL" />
        <dc:subject>
          <rdf:Bag>
            <rdf:li>Academia</rdf:li>
          </rdf:Bag>
        </dc:subject>
      </cc:Work>
      <cc:License
         rdf:about="http://scripts.sil.org/OFL">
        <cc:permits
           rdf:resource="http://scripts.sil.org/pub/OFL/Reproduction" />
        <cc:permits
           rdf:resource="http://scripts.sil.org/pub/OFL/Distribution" />
        <cc:permits
           rdf:resource="http://scripts.sil.org/pub/OFL/Embedding" />
        <cc:permits
           rdf:resource="http://scripts.sil.org/pub/OFL/DerivativeWorks" />
        <cc:requires
           rdf:resource="http://scripts.sil.org/pub/OFL/Notice" />
        <cc:requires
           rdf:resource="http://scripts.sil.org/pub/OFL/Attribution" />
        <cc:requires
           rdf:resource="http://scripts.sil.org/pub/OFL/ShareAlike" />
        <cc:requires
           rdf:resource="http://scripts.sil.org/pub/OFL/DerivativeRenaming" />
        <cc:requires
           rdf:resource="http://scripts.sil.org/pub/OFL/BundlingWhenSelling" />
      </cc:License>
    </rdf:RDF>
  </metadata>
  <g
     inkscape:label="icon"
     id="layer6"
     inkscape:groupmode="layer">
    <path
       id="path2"
       d="M 48 32 C 21.5 32 0 53.5 0 80 L 0 432 C 0 458.5 21.5 480 48 480 L 400 480 C 426.5 480 448 458.5 448 432 L 448 80 C 448 53.5 426.5 32 400 32 L 48 32 z M 207.79297 96 C 221.64286 95.990765 235.49191 96.065306 249.3418 96.304688 C 287.24422 192.07456 326.21734 287.4763 364.63477 383.0625 C 368.5023 394.00152 380.91729 396.8388 390.97266 398.86523 C 390.97266 404.57395 391.00781 410.28199 391.00781 415.99219 C 340.98742 415.95439 290.96725 416.02908 240.94531 415.95508 C 240.94531 410.20985 240.98047 404.50009 240.98047 398.79102 C 253.50488 397.83511 269.63835 398.57261 277.08008 386.23047 C 279.95403 376.65384 276.74937 366.67038 273.21289 357.75781 C 267.90871 344.53351 262.60415 331.30964 257.29883 318.12305 C 218.6585 317.97689 180.0583 318.23487 141.41797 318.01367 C 134.45651 334.25801 128.41379 350.87158 122.04102 367.33594 C 119.38971 374.59229 116.55398 384.24386 122.96289 390.43164 C 131.10332 397.35696 142.59601 397.17255 152.61523 398.71875 C 152.65123 404.46515 152.6513 410.21162 152.6875 415.99414 C 120.78869 415.95694 88.891007 416.06764 56.992188 415.91992 C 56.992187 410.24735 57.027344 404.57586 57.027344 398.93945 C 66.787415 396.91454 78.980872 394.51791 82.701172 383.79883 C 115.63242 299.66783 148.59941 215.50194 181.05078 131.1875 C 175.70932 119.69438 171.3987 107.76225 166.24219 96.195312 C 180.09207 96.102824 193.94308 96.009235 207.79297 96 z M 197.95703 169.5332 C 183.44421 208.98335 167.75343 248.02703 152.94531 287.36719 A 9679.2904 9679.2904 0 0 0 245.06836 287.36719 C 229.37659 248.10086 213.61265 208.83608 197.95703 169.5332 z " />
  </g>
</svg>
