<?xml version="1.0" encoding="utf-8"?>
<!-- Generator: Adobe Illustrator 16.0.0, SVG Export Plug-In . SVG Version: 6.00 Build 0)  -->
<!DOCTYPE svg PUBLIC "-//W3C//DTD SVG 1.1//EN" "http://www.w3.org/Graphics/SVG/1.1/DTD/svg11.dtd" [
	<!ENTITY st0 "fill-rule:evenodd;clip-rule:evenodd;fill:#444444;">
	<!ENTITY st1 "fill:#FFFFFF;">
	<!ENTITY st2 "fill:#444444;">
]>
<svg version="1.1" id="Layer_1" xmlns="http://www.w3.org/2000/svg" xmlns:xlink="http://www.w3.org/1999/xlink" x="0px" y="0px"
	 width="28px" height="28px" viewBox="0 0 28 28" style="enable-background:new 0 0 28 28;" xml:space="preserve">
<g>
	<g>
		<path style="&st2;" d="M8.41,17.504c0.066,0.926,0.609,1.6,1.426,1.715c0.355,0.05,1.348,0.178,2.354-0.161
			c1.146-0.385,1.691-0.952,2.475-1.818v-2.28c0,0-1.936,0-3.348,0S8.291,15.844,8.41,17.504z M22.68,3.32
			C21.799,2.439,20.74,2,19.5,2h-15C3.26,2,2.201,2.439,1.32,3.32C0.439,4.199,0,5.26,0,6.5v15c0,1.24,0.439,2.301,1.32,3.182
			C2.201,25.559,3.262,26,4.5,26h15c1.24,0,2.299-0.441,3.18-1.32C23.561,23.799,24,22.74,24,21.5v-15
			C24,5.26,23.561,4.199,22.68,3.32z M18.725,21.593h-4.061v-1.808C13.115,21.504,11.639,22,10.129,22
			c-2.346,0-4.854-1.336-4.854-4.377c0-2.631,1.801-4.449,4.623-4.813c0.793-0.103,2.611-0.023,4.766-0.099v-1.482
			c-0.139-2.221-1.385-2.627-2.221-2.815c-0.715-0.16-2.705-0.247-3.93,0.943L8.51,10.926H5.955V7.773C7.818,6.46,10.057,6,12.145,6
			c3.279,0,5.488,1.708,5.488,5.389v8.099l1.092,0.002V21.593z"/>
	</g>
</g>
</svg>
