<?xml version="1.0" encoding="UTF-8" standalone="no"?>
<svg
   xmlns:dc="http://purl.org/dc/elements/1.1/"
   xmlns:cc="http://creativecommons.org/ns#"
   xmlns:rdf="http://www.w3.org/1999/02/22-rdf-syntax-ns#"
   xmlns:svg="http://www.w3.org/2000/svg"
   xmlns="http://www.w3.org/2000/svg"
   xmlns:sodipodi="http://sodipodi.sourceforge.net/DTD/sodipodi-0.dtd"
   xmlns:inkscape="http://www.inkscape.org/namespaces/inkscape"
   sodipodi:docname="acm-square.svg"
   inkscape:version="1.0 (1.0+r73+1)"
   id="svg8"
   version="1.1"
   viewBox="0 0 448 512"
   height="512"
   width="448">
  <title
     id="title835">ACM</title>
  <defs
     id="defs2" />
  <sodipodi:namedview
     inkscape:window-maximized="1"
     inkscape:window-y="27"
     inkscape:window-x="51"
     inkscape:window-height="713"
     inkscape:window-width="1315"
     inkscape:guide-bbox="true"
     showguides="true"
     units="px"
     showgrid="true"
     inkscape:document-rotation="0"
     inkscape:current-layer="layer6"
     inkscape:document-units="px"
     inkscape:cy="256"
     inkscape:cx="224"
     inkscape:zoom="0.75"
     inkscape:pageshadow="2"
     inkscape:pageopacity="0.0"
     borderopacity="1.0"
     bordercolor="#666666"
     pagecolor="#ffffff"
     id="base">
    <inkscape:grid
       empspacing="4"
       id="grid10"
       type="xygrid" />
    <sodipodi:guide
       inkscape:color="rgb(0,0,255)"
       inkscape:locked="true"
       inkscape:label=""
       id="guide832"
       orientation="0,1"
       position="448,416" />
    <sodipodi:guide
       inkscape:color="rgb(0,0,255)"
       inkscape:locked="true"
       inkscape:label=""
       id="guide834"
       orientation="0,1"
       position="448,96" />
    <sodipodi:guide
       inkscape:color="rgb(0,0,255)"
       inkscape:locked="true"
       inkscape:label="baseline"
       id="guide836"
       orientation="0,1"
       position="448,64" />
  </sodipodi:namedview>
  <metadata
     id="metadata5">
    <rdf:RDF>
      <cc:Work
         rdf:about="">
        <dc:format>image/svg+xml</dc:format>
        <dc:type
           rdf:resource="http://purl.org/dc/dcmitype/StillImage" />
        <dc:title>ACM</dc:title>
        <cc:license
           rdf:resource="http://scripts.sil.org/OFL" />
        <dc:subject>
          <rdf:Bag>
            <rdf:li>ACM</rdf:li>
          </rdf:Bag>
        </dc:subject>
      </cc:Work>
      <cc:License
         rdf:about="http://scripts.sil.org/OFL">
        <cc:permits
           rdf:resource="http://scripts.sil.org/pub/OFL/Reproduction" />
        <cc:permits
           rdf:resource="http://scripts.sil.org/pub/OFL/Distribution" />
        <cc:permits
           rdf:resource="http://scripts.sil.org/pub/OFL/Embedding" />
        <cc:permits
           rdf:resource="http://scripts.sil.org/pub/OFL/DerivativeWorks" />
        <cc:requires
           rdf:resource="http://scripts.sil.org/pub/OFL/Notice" />
        <cc:requires
           rdf:resource="http://scripts.sil.org/pub/OFL/Attribution" />
        <cc:requires
           rdf:resource="http://scripts.sil.org/pub/OFL/ShareAlike" />
        <cc:requires
           rdf:resource="http://scripts.sil.org/pub/OFL/DerivativeRenaming" />
        <cc:requires
           rdf:resource="http://scripts.sil.org/pub/OFL/BundlingWhenSelling" />
      </cc:License>
    </rdf:RDF>
  </metadata>
  <g
     inkscape:label="icon"
     id="layer6"
     inkscape:groupmode="layer">
    <path
       id="path2"
       d="M 48 32 C 21.5 32 0 53.5 0 80 L 0 432 C 0 458.5 21.5 480 48 480 L 400 480 C 426.5 480 448 458.5 448 432 L 448 80 C 448 53.5 426.5 32 400 32 L 48 32 z M 224 96 L 384 256 L 224 416 L 64 256 L 224 96 z M 224.01367 157.51953 C 169.85627 157.51953 125.93945 201.43843 125.93945 255.625 C 125.93945 309.78204 169.85627 353.66992 224.01367 353.66992 C 278.20025 353.66992 322.06055 309.78241 322.06055 255.625 C 322.06055 201.43843 278.20025 157.51953 224.01367 157.51953 z M 224 167.33984 C 272.6522 167.33984 312.0918 206.77981 312.0918 255.43164 C 312.0918 304.08239 272.65184 343.52344 224 343.52344 C 175.34818 343.52344 135.91016 304.08239 135.91016 255.43164 C 135.91016 206.77945 175.34818 167.33984 224 167.33984 z M 164.88867 233.50195 C 161.86482 233.50195 158.93148 233.77059 155.99805 234.31055 C 153.0646 234.8494 150.96763 235.27092 149.65039 235.68945 L 149.65039 245.95703 L 150.72852 245.95703 C 152.76472 245.08895 154.79841 244.3101 156.86523 243.80078 C 158.96121 243.20359 160.75708 242.90234 162.34375 242.90234 C 165.81568 242.90234 168.39276 243.35131 170.12891 244.25 C 171.83407 245.11808 172.73242 246.76507 172.73242 249.07031 L 172.73242 249.33789 C 168.86966 249.54754 165.30853 249.96816 161.95508 250.38672 C 158.6618 250.83588 155.78716 251.64375 153.39258 252.78125 C 151.05778 253.91876 149.26074 255.47647 147.97266 257.42188 C 146.71522 259.33777 146.08594 261.88344 146.08594 265.08594 C 146.08594 268.9487 147.34471 272.06226 149.83008 274.60742 C 152.28482 277.09278 155.39781 278.4082 159.14062 278.4082 C 161.17646 278.4082 162.73188 278.25892 163.83984 277.92969 C 165.00797 277.6898 166.1152 277.24146 167.3125 276.61328 C 168.54077 275.98401 169.46829 275.4446 170.15625 274.81641 A 129.5972 129.5972 0 0 1 172.61133 272.81055 L 172.61133 277.27148 L 185.9043 277.27148 L 185.90625 277.26953 L 185.90625 248.32031 C 185.90625 243.35066 184.22831 239.60902 180.8457 237.1543 C 177.49373 234.7597 172.19383 233.50195 164.88867 233.50195 z M 261.58594 233.58789 C 259.16183 233.58789 257.00781 234.12589 255.12109 235.14453 C 253.20519 236.19415 251.13854 237.65976 248.98242 239.48633 L 248.98242 234.78711 L 235.7207 234.78711 L 235.7207 277.26758 L 248.98438 277.26758 L 248.98438 247.12109 C 249.94178 246.46264 250.9577 245.86467 252.00586 245.32617 C 253.05369 244.84649 254.10297 244.60742 255.21094 244.60742 C 256.61895 244.60742 257.72592 244.78632 258.56445 245.23438 C 259.34173 245.65291 259.91153 246.28307 260.33008 247.21094 C 260.71944 248.10928 260.89758 249.30802 261.01758 250.74414 C 261.10688 252.21086 261.13672 253.94831 261.13672 256.01367 L 261.13672 277.26953 L 274.39844 277.26953 L 274.39844 247.12305 C 275.5666 246.34432 276.64479 245.68546 277.63281 245.23633 C 278.64999 244.78821 279.6376 244.60742 280.65625 244.60742 C 282.06318 244.60742 283.20122 244.78823 283.97852 245.23633 C 284.75725 245.65485 285.38626 246.28505 285.74609 247.21289 C 286.13546 248.11123 286.37414 249.31 286.46484 250.74609 C 286.55391 252.21281 286.58398 253.94829 286.58398 256.01367 L 286.58398 277.26758 L 299.81836 277.26758 L 299.81836 249.63477 C 299.81836 246.58137 299.54921 244.15627 298.91992 242.26953 C 298.35193 240.38282 297.48267 238.76607 296.25586 237.38867 C 295.2077 236.16184 293.86219 235.20372 292.30469 234.54492 C 290.71656 233.94738 288.95066 233.58789 286.97461 233.58789 C 284.66791 233.58789 282.39521 234.21585 280.11914 235.50391 C 277.9032 236.79052 275.47874 238.617 272.93359 240.98242 C 271.88538 238.49706 270.41866 236.67017 268.38281 235.44336 C 266.46693 234.21545 264.16063 233.58789 261.58594 233.58789 z M 214.61523 233.58984 C 211.50205 233.58984 208.50817 234.00887 205.66406 234.87695 C 202.75978 235.71441 200.2736 237.03352 198.14844 238.79883 C 195.90297 240.62574 194.19822 242.96057 192.91016 245.80469 C 191.59292 248.70969 190.99414 252.09216 190.99414 256.19336 C 190.99414 259.93471 191.56248 263.25754 192.75977 266.04297 C 193.95706 268.79776 195.60362 271.10303 197.75977 272.98828 C 199.91555 274.81485 202.43141 276.16329 205.30469 277.06055 C 208.21005 277.92971 211.47206 278.4082 214.97461 278.4082 C 216.82925 278.4082 218.29609 278.28735 219.43359 278.07812 C 220.54156 277.86884 221.79919 277.69 223.05664 277.27148 C 224.13508 277.00202 225.09207 276.64133 226.08008 276.25195 C 227.09764 275.80243 227.96562 275.41467 228.71484 275.08398 L 228.71484 263.76758 L 227.00977 263.76758 C 226.6204 264.21527 226.05114 264.72516 225.42188 265.26367 C 224.79369 265.86229 224.01576 266.37166 223.08789 266.91016 C 222.21982 267.41948 221.14089 267.89774 219.91406 268.28711 C 218.62599 268.61637 217.12912 268.82617 215.45312 268.82617 C 212.1303 268.82617 209.52487 267.77826 207.54883 265.71289 C 205.57278 263.61689 204.55469 260.41487 204.55469 256.19336 C 204.55469 252.21066 205.54258 249.0379 207.36914 246.70312 C 209.22378 244.30852 211.85958 243.14062 215.24219 243.14062 C 216.73808 243.14063 218.0863 243.35022 219.34375 243.70898 C 220.48125 244.12896 221.61963 244.48729 222.57812 245.08594 C 223.50598 245.56607 224.28243 246.10487 225.0918 246.76367 C 225.83956 247.30217 226.52911 247.87105 227.00781 248.37891 L 228.71484 248.37891 L 228.71484 237.03125 C 226.34942 235.83395 224.01385 234.96489 221.64844 234.45703 C 219.34463 233.88899 216.95112 233.58984 214.61523 233.58984 z M 172.61328 257.33203 L 172.61328 266.16406 C 171.6548 267.09194 170.57776 267.8709 169.32031 268.34961 C 168.15364 268.94817 166.95428 269.12695 165.87695 269.12695 C 163.75178 269.12695 162.16537 268.79804 161.11719 268.04883 C 160.06938 267.30108 159.5 265.92332 159.5 263.94727 C 159.5 262.62968 159.86072 261.55338 160.51953 260.71484 C 161.11817 259.8763 162.01546 259.27804 163.18359 258.88867 C 164.50083 258.37935 165.87674 258.11052 167.22461 257.96094 C 168.57247 257.78193 170.36781 257.57068 172.61328 257.33203 z " />
  </g>
</svg>
