<?xml version="1.0" encoding="UTF-8" standalone="no"?>
<svg
   xmlns:dc="http://purl.org/dc/elements/1.1/"
   xmlns:cc="http://creativecommons.org/ns#"
   xmlns:rdf="http://www.w3.org/1999/02/22-rdf-syntax-ns#"
   xmlns:svg="http://www.w3.org/2000/svg"
   xmlns="http://www.w3.org/2000/svg"
   xmlns:sodipodi="http://sodipodi.sourceforge.net/DTD/sodipodi-0.dtd"
   xmlns:inkscape="http://www.inkscape.org/namespaces/inkscape"
   width="512"
   height="512"
   viewBox="0 0 512 512"
   version="1.1"
   id="svg8"
   inkscape:version="1.0 (1.0+r73+1)"
   sodipodi:docname="acm.svg">
  <title
     id="title833">ACM</title>
  <defs
     id="defs2" />
  <sodipodi:namedview
     id="base"
     pagecolor="#ffffff"
     bordercolor="#666666"
     borderopacity="1.0"
     inkscape:pageopacity="0.0"
     inkscape:pageshadow="2"
     inkscape:zoom="0.75"
     inkscape:cx="256"
     inkscape:cy="256"
     inkscape:document-units="px"
     inkscape:current-layer="layer6"
     inkscape:document-rotation="0"
     showgrid="true"
     units="px"
     showguides="true"
     inkscape:guide-bbox="true"
     inkscape:window-width="1315"
     inkscape:window-height="713"
     inkscape:window-x="51"
     inkscape:window-y="27"
     inkscape:window-maximized="1">
    <inkscape:grid
       type="xygrid"
       id="grid10"
       empspacing="4" />
    <sodipodi:guide
       inkscape:color="rgb(0,0,255)"
       inkscape:locked="true"
       inkscape:label="baseline"
       id="guide23"
       orientation="0,1"
       position="512,64" />
  </sodipodi:namedview>
  <metadata
     id="metadata5">
    <rdf:RDF>
      <cc:Work
         rdf:about="">
        <dc:format>image/svg+xml</dc:format>
        <dc:type
           rdf:resource="http://purl.org/dc/dcmitype/StillImage" />
        <dc:title>ACM</dc:title>
        <cc:license
           rdf:resource="http://scripts.sil.org/OFL" />
        <dc:subject>
          <rdf:Bag>
            <rdf:li>ACM</rdf:li>
          </rdf:Bag>
        </dc:subject>
      </cc:Work>
      <cc:License
         rdf:about="http://scripts.sil.org/OFL">
        <cc:permits
           rdf:resource="http://scripts.sil.org/pub/OFL/Reproduction" />
        <cc:permits
           rdf:resource="http://scripts.sil.org/pub/OFL/Distribution" />
        <cc:permits
           rdf:resource="http://scripts.sil.org/pub/OFL/Embedding" />
        <cc:permits
           rdf:resource="http://scripts.sil.org/pub/OFL/DerivativeWorks" />
        <cc:requires
           rdf:resource="http://scripts.sil.org/pub/OFL/Notice" />
        <cc:requires
           rdf:resource="http://scripts.sil.org/pub/OFL/Attribution" />
        <cc:requires
           rdf:resource="http://scripts.sil.org/pub/OFL/ShareAlike" />
        <cc:requires
           rdf:resource="http://scripts.sil.org/pub/OFL/DerivativeRenaming" />
        <cc:requires
           rdf:resource="http://scripts.sil.org/pub/OFL/BundlingWhenSelling" />
      </cc:License>
    </rdf:RDF>
  </metadata>
  <g
     inkscape:groupmode="layer"
     id="layer6"
     inkscape:label="icon">
    <path
       style="stroke-width:0.07717"
       d="M 255.99998,7.9999914 7.999999,256.00001 l 247.999981,248 248.00002,-248 z m 0.0227,399.3897286 c -83.94398,0 -152.01587,-68.02669 -152.01587,-151.9701 0,-83.98919 68.07189,-152.06335 152.01587,-152.06335 83.9892,0 151.97235,68.07416 151.97235,152.06335 0,83.94399 -67.98315,151.9701 -151.97235,151.9701 z M 161.7332,260.47618 c -1.81059,0.60353 -3.20132,1.53143 -4.12922,2.83118 -1.02115,1.29974 -1.5789,2.96963 -1.5789,5.01191 0,3.06287 0.88269,5.19783 2.5068,6.35685 1.62468,1.16128 4.08401,1.6699 7.37801,1.6699 1.66987,0 3.52794,-0.27704 5.33627,-1.2048 1.94904,-0.74199 3.61893,-1.94904 5.10459,-3.38725 v -13.68964 c -3.48048,0.3699 -6.26418,0.69617 -8.35337,0.97364 -2.08919,0.23184 -4.22246,0.64877 -6.26418,1.43821 z M 255.99993,118.5768 c -75.41033,0 -136.5405,61.13186 -136.5405,136.54275 0,75.40867 61.13017,136.54057 136.5405,136.54057 75.41036,0 136.54279,-61.1319 136.54279,-136.54057 0,-75.41034 -61.13188,-136.54275 -136.54279,-136.54275 z m -59.04887,170.39253 h -20.60258 v -6.91292 a 200.87566,200.87566 0 0 0 -3.80484,3.10806 c -1.06634,0.97369 -2.50454,1.81058 -4.40837,2.78594 -1.85581,0.97368 -3.57316,1.6699 -5.38376,2.04173 -1.71734,0.5103 -4.12922,0.742 -7.28475,0.742 -5.80137,0 -10.62679,-2.04174 -14.43164,-5.89405 -3.85232,-3.945 -5.80138,-8.771 -5.80138,-14.75828 0,-4.96387 0.97539,-8.90942 2.92443,-11.87905 1.99652,-3.01538 4.78022,-5.42895 8.39915,-7.19207 3.7116,-1.76314 8.16745,-3.01538 13.27203,-3.7116 5.19784,-0.64876 10.71778,-1.29973 16.70506,-1.6247 v -0.41552 c 0,-3.57312 -1.39298,-6.12569 -4.03598,-7.47121 -2.69102,-1.39298 -6.68348,-2.08752 -12.06497,-2.08752 -2.45934,0 -5.24304,0.46507 -8.49182,1.39072 -3.20358,0.78944 -6.35686,1.99653 -9.51297,3.34205 h -1.66988 V 224.5173 c 2.04172,-0.64873 5.2905,-1.29974 9.83733,-2.13497 4.54683,-0.83693 9.09536,-1.25454 13.78233,-1.25454 11.323,0 19.53623,1.94904 24.73179,5.66067 5.24304,3.80482 7.84309,9.60564 7.84309,17.30859 v 44.87153 z m 66.35681,-44.7806 h -2.64525 c -0.74199,-0.78718 -1.81059,-1.66985 -2.96962,-2.50453 -1.25453,-1.02114 -2.45934,-1.85582 -3.89752,-2.60003 -1.48566,-0.9279 -3.24878,-1.48398 -5.01191,-2.13496 -1.94905,-0.55607 -4.03824,-0.88271 -6.35686,-0.88271 -5.24304,0 -9.32874,1.81058 -12.20343,5.52221 -2.83118,3.6189 -4.36261,8.53758 -4.36261,14.71078 0,6.54335 1.57664,11.50722 4.63951,14.75601 3.06286,3.20134 7.1011,4.82541 12.25146,4.82541 2.59779,0 4.91867,-0.32428 6.91518,-0.83463 1.90158,-0.60353 3.57316,-1.34552 4.91867,-2.13496 1.43819,-0.83468 2.64525,-1.62471 3.61892,-2.55258 0.97538,-0.83467 1.85581,-1.6247 2.45934,-2.31861 h 2.64525 v 17.53969 c -1.16129,0.51256 -2.5068,1.11382 -4.08401,1.81058 -1.53143,0.60353 -3.01539,1.16128 -4.68697,1.57893 -1.94905,0.64872 -3.89752,0.92787 -5.61487,1.25225 -1.76313,0.32428 -4.03823,0.51029 -6.91293,0.51029 -5.42895,0 -10.48607,-0.74199 -14.98939,-2.08918 -4.45358,-1.39075 -8.35168,-3.48048 -11.69314,-6.31165 -3.34203,-2.92215 -5.89404,-6.49532 -7.74984,-10.76524 -1.8558,-4.31742 -2.73623,-9.46721 -2.73623,-15.26631 0,-6.35685 0.9279,-11.60046 2.96963,-16.10321 1.9965,-4.40839 4.63949,-8.02675 8.11997,-10.85846 3.29399,-2.73623 7.14631,-4.78023 11.64794,-6.07829 4.40837,-1.34552 9.04788,-1.9965 13.87331,-1.9965 3.62062,0 7.33278,0.46506 10.90369,1.34552 3.66638,0.78718 7.28476,2.13496 10.95115,3.99078 v 17.5894 z m 89.69731,44.7806 V 256.0226 c 0,-3.20134 -0.0476,-5.89404 -0.18565,-8.16747 -0.1406,-2.22594 -0.51029,-4.08401 -1.1138,-5.47644 -0.55775,-1.43816 -1.53146,-2.4141 -2.73848,-3.06282 -1.20483,-0.69454 -2.96963,-0.97369 -5.15037,-0.97369 -1.57892,0 -3.11034,0.27912 -4.68699,0.97369 -1.53142,0.69617 -3.20128,1.71735 -5.01192,2.9244 v 46.72735 h -20.55509 v -32.94673 c 0,-3.2013 -0.0476,-5.89401 -0.18599,-8.16744 -0.18599,-2.22597 -0.46284,-4.084 -1.06635,-5.47643 -0.64876,-1.4382 -1.53146,-2.41415 -2.73624,-3.06287 -1.29974,-0.69449 -3.0154,-0.97368 -5.19782,-0.97368 -1.71736,0 -3.34204,0.37031 -4.96617,1.11382 -1.62464,0.83468 -3.20129,1.76313 -4.68526,2.78372 v 46.72735 h -20.55912 v -65.84597 h 20.55737 v 7.28476 c 3.342,-2.83118 6.54332,-5.10235 9.51295,-6.72927 2.92441,-1.57889 6.26589,-2.41411 10.02327,-2.41411 3.99076,0 7.5639,0.97369 10.53353,2.87695 3.15555,1.90156 5.42893,4.73273 7.05365,8.58504 3.94499,-3.66639 7.70237,-6.49757 11.13708,-8.4918 3.52792,-1.9965 7.05137,-2.96965 10.62675,-2.96965 3.06288,0 5.7991,0.5578 8.2607,1.48399 2.41412,1.02113 4.50109,2.50679 6.12574,4.40838 1.90155,2.13496 3.24881,4.6395 4.1292,7.56391 0.9754,2.92444 1.39298,6.68348 1.39298,11.41625 v 42.8298 h -20.51382 z"
       id="path2" />
  </g>
</svg>
