<?xml version="1.0" encoding="UTF-8" standalone="no"?>
<svg
   xmlns:dc="http://purl.org/dc/elements/1.1/"
   xmlns:cc="http://creativecommons.org/ns#"
   xmlns:rdf="http://www.w3.org/1999/02/22-rdf-syntax-ns#"
   xmlns:svg="http://www.w3.org/2000/svg"
   xmlns="http://www.w3.org/2000/svg"
   xmlns:sodipodi="http://sodipodi.sourceforge.net/DTD/sodipodi-0.dtd"
   xmlns:inkscape="http://www.inkscape.org/namespaces/inkscape"
   sodipodi:docname="acmdl.svg"
   inkscape:version="1.0 (1.0+r73+1)"
   id="svg8"
   version="1.1"
   viewBox="0 0 512 512"
   height="512"
   width="512">
  <title
     id="title833">ACM DL</title>
  <defs
     id="defs2" />
  <sodipodi:namedview
     inkscape:window-maximized="1"
     inkscape:window-y="27"
     inkscape:window-x="51"
     inkscape:window-height="713"
     inkscape:window-width="1315"
     inkscape:guide-bbox="true"
     showguides="true"
     units="px"
     showgrid="true"
     inkscape:document-rotation="0"
     inkscape:current-layer="layer6"
     inkscape:document-units="px"
     inkscape:cy="256"
     inkscape:cx="256"
     inkscape:zoom="0.75"
     inkscape:pageshadow="2"
     inkscape:pageopacity="0.0"
     borderopacity="1.0"
     bordercolor="#666666"
     pagecolor="#ffffff"
     id="base">
    <inkscape:grid
       empspacing="4"
       id="grid10"
       type="xygrid" />
    <sodipodi:guide
       inkscape:color="rgb(0,0,255)"
       inkscape:locked="true"
       inkscape:label="baseline"
       id="guide23"
       orientation="0,1"
       position="511.99998,64" />
  </sodipodi:namedview>
  <metadata
     id="metadata5">
    <rdf:RDF>
      <cc:Work
         rdf:about="">
        <dc:format>image/svg+xml</dc:format>
        <dc:type
           rdf:resource="http://purl.org/dc/dcmitype/StillImage" />
        <dc:title>ACM DL</dc:title>
        <cc:license
           rdf:resource="http://scripts.sil.org/OFL" />
        <dc:subject>
          <rdf:Bag>
            <rdf:li>ACM</rdf:li>
          </rdf:Bag>
        </dc:subject>
      </cc:Work>
      <cc:License
         rdf:about="http://scripts.sil.org/OFL">
        <cc:permits
           rdf:resource="http://scripts.sil.org/pub/OFL/Reproduction" />
        <cc:permits
           rdf:resource="http://scripts.sil.org/pub/OFL/Distribution" />
        <cc:permits
           rdf:resource="http://scripts.sil.org/pub/OFL/Embedding" />
        <cc:permits
           rdf:resource="http://scripts.sil.org/pub/OFL/DerivativeWorks" />
        <cc:requires
           rdf:resource="http://scripts.sil.org/pub/OFL/Notice" />
        <cc:requires
           rdf:resource="http://scripts.sil.org/pub/OFL/Attribution" />
        <cc:requires
           rdf:resource="http://scripts.sil.org/pub/OFL/ShareAlike" />
        <cc:requires
           rdf:resource="http://scripts.sil.org/pub/OFL/DerivativeRenaming" />
        <cc:requires
           rdf:resource="http://scripts.sil.org/pub/OFL/BundlingWhenSelling" />
      </cc:License>
    </rdf:RDF>
  </metadata>
  <g
     inkscape:label="icon"
     id="layer6"
     inkscape:groupmode="layer">
    <path
       id="path2"
       d="m 220.12002,208.00707 c -2.51441,-1.9344 -4.68252,-3.3833 -8.01361,-3.33982 -12.59913,0.16562 -25.20445,0.0662 -37.80525,0.0662 h -4.33169 v 95.86495 c 11.96573,0 23.49434,-0.57019 34.93211,0.18825 8.60357,0.57023 15.39385,-1.43649 20.22696,-8.62636 1.35535,-2.01913 2.74732,-4.54064 2.77439,-6.84457 0.22054,-19.28434 -0.28244,-38.58276 0.3176,-57.85238 0.25398,-8.17147 -1.54935,-14.41311 -8.10048,-19.45556 z m 279.90929,51.39658 c 1.07047,-1.06863 2.43371,-1.84169 3.97069,-2.97812 -11.22909,-11.17446 -21.75318,-21.63627 -32.26257,-32.11623 -6.28944,-6.27212 -12.62797,-12.49738 -18.74986,-18.93054 -0.94863,-0.99799 -1.50361,-3.15785 -1.15506,-4.49943 5.88105,-22.55573 11.93469,-45.06396 17.94323,-67.58863 0.10318,-0.38865 0.10053,-0.80413 0.18557,-1.54784 -12.67135,-3.45335 -25.33814,-6.90674 -38.00545,-10.35222 -9.99787,-2.72154 -19.96074,-5.58832 -30.02287,-8.04997 -2.7908,-0.68208 -3.7169,-2.00047 -4.38924,-4.55305 -5.71185,-21.743677 -11.56358,-43.450041 -17.3927,-65.162617 -0.20788,-0.780987 -0.60465,-1.51279 -1.07672,-2.670142 -8.43215,2.217475 -16.77403,4.381289 -25.10126,6.609498 -14.65157,3.918467 -29.28852,7.903056 -43.95644,11.761621 -1.02314,0.268309 -2.68363,0.122041 -3.34185,-0.537441 C 289.82864,41.916086 273.08171,24.950976 256.31618,7.9999971 h -1.66446 C 237.94147,24.832873 221.25265,41.68273 204.46398,58.437625 c -0.77555,0.774735 -2.54772,1.184432 -3.63455,0.905291 -8.54383,-2.190939 -17.02162,-4.637869 -25.5423,-6.9192 -14.64538,-3.922412 -29.30712,-7.787176 -43.89667,-11.65819 -0.27409,0.430072 -0.49072,0.64083 -0.55671,0.890623 -5.88668,22.082728 -11.86872,44.138335 -17.52697,66.276441 -0.92385,3.61276 -2.71464,5.07356 -6.02937,5.94381 -20.911681,5.47872 -41.775984,11.15412 -62.696111,16.60178 -3.428089,0.89058 -4.146104,1.93662 -3.12296,5.63184 5.881028,21.25768 11.264614,42.65212 17.103927,63.92053 0.74454,2.70747 0.06361,4.04845 -1.609141,5.71833 -15.616638,15.58908 -31.1323,31.27932 -46.842,46.77289 -2.6858478,2.64922 -2.9126066,4.11284 -0.08077,6.8966 15.729995,15.47319 31.221431,31.19228 46.856645,46.76098 1.843805,1.83322 2.343515,3.31268 1.579846,6.08848 -5.856257,21.25599 -11.299593,42.62557 -17.134968,63.88546 -0.957157,3.48445 -0.072,4.51804 3.112834,5.35891 21.402928,5.66691 42.739283,11.59207 64.171008,17.13694 2.81557,0.72953 3.79134,2.09144 4.41625,4.44737 3.09426,11.71586 6.2065,23.42601 9.31707,35.13959 2.92504,11.01117 5.85627,22.01828 8.79536,33.06679 23.35783,-6.22704 46.29944,-12.37535 69.27992,-18.37289 1.27074,-0.33298 3.34181,0.0945 4.23695,0.98162 16.73447,16.6221 33.34999,33.36854 49.98977,50.08838 h 1.66442 c 6.28492,-6.43775 12.53314,-12.91268 18.86542,-19.30296 10.06213,-10.15393 20.20213,-20.2286 30.25353,-30.39269 1.61087,-1.6286 2.93294,-2.07054 5.39374,-1.39918 21.50393,5.87992 43.07773,11.50337 64.63521,17.18834 1.16752,0.30804 2.37,0.49165 3.89625,0.80414 2.54321,-9.36439 5.04348,-18.50729 7.50433,-27.65862 3.61818,-13.45807 7.23583,-26.91447 10.77789,-40.39344 0.56912,-2.16775 1.30345,-3.38502 3.84491,-4.05917 22.3595,-5.91047 44.65134,-12.07971 66.96178,-18.17836 0.50143,-0.13833 0.97973,-0.35565 1.6396,-0.59732 -5.9983,-22.39636 -11.88507,-44.6571 -17.98889,-66.85513 -0.89961,-3.27762 -0.59222,-5.34876 1.97011,-7.86575 15.44123,-15.16747 30.64165,-30.58704 45.95932,-45.88675 z M 248.7379,303.28939 c -6.2375,6.30322 -12.5348,12.55897 -19.11075,18.50279 -1.77778,1.60773 -4.62892,2.8374 -6.99666,2.85605 -25.65172,0.19608 -51.3034,0.1158 -76.95567,0.10114 -0.39418,0 -0.78794,-0.13844 -1.47888,-0.26842 V 180.55919 h 4.23695 c 23.84905,0 47.69986,0.0208 71.55121,-0.017 4.51949,-0.008 8.30464,1.42408 11.49531,4.68927 5.72202,5.85681 11.48124,11.68306 17.35775,17.38269 3.37851,3.27596 4.94028,7.2543 4.95271,11.78652 0.0661,25.7011 0.0333,51.4022 0.0295,77.10389 -0.003,4.65817 -1.92051,8.59135 -5.08243,11.78645 z m 143.77084,21.25372 H 296.41355 V 180.80558 h 25.51574 v 119.57633 h 70.57945 v 24.16177 z"
       style="stroke-width:0.0770963" />
  </g>
</svg>
