<?xml version="1.0" encoding="UTF-8" standalone="no"?>
<svg
   xmlns:dc="http://purl.org/dc/elements/1.1/"
   xmlns:cc="http://creativecommons.org/ns#"
   xmlns:rdf="http://www.w3.org/1999/02/22-rdf-syntax-ns#"
   xmlns:svg="http://www.w3.org/2000/svg"
   xmlns="http://www.w3.org/2000/svg"
   xmlns:sodipodi="http://sodipodi.sourceforge.net/DTD/sodipodi-0.dtd"
   xmlns:inkscape="http://www.inkscape.org/namespaces/inkscape"
   sodipodi:docname="acmdl-square.svg"
   inkscape:version="1.0 (1.0+r73+1)"
   id="svg8"
   version="1.1"
   viewBox="0 0 448 512"
   height="512"
   width="448">
  <title
     id="title835">ACM DL</title>
  <defs
     id="defs2" />
  <sodipodi:namedview
     inkscape:window-maximized="1"
     inkscape:window-y="27"
     inkscape:window-x="51"
     inkscape:window-height="713"
     inkscape:window-width="1315"
     inkscape:guide-bbox="true"
     showguides="true"
     units="px"
     showgrid="true"
     inkscape:document-rotation="0"
     inkscape:current-layer="layer6"
     inkscape:document-units="px"
     inkscape:cy="256"
     inkscape:cx="224"
     inkscape:zoom="0.75"
     inkscape:pageshadow="2"
     inkscape:pageopacity="0.0"
     borderopacity="1.0"
     bordercolor="#666666"
     pagecolor="#ffffff"
     id="base">
    <inkscape:grid
       empspacing="4"
       id="grid10"
       type="xygrid" />
    <sodipodi:guide
       inkscape:color="rgb(0,0,255)"
       inkscape:locked="true"
       inkscape:label=""
       id="guide832"
       orientation="0,1"
       position="448,416" />
    <sodipodi:guide
       inkscape:color="rgb(0,0,255)"
       inkscape:locked="true"
       inkscape:label=""
       id="guide834"
       orientation="0,1"
       position="448,96" />
    <sodipodi:guide
       inkscape:color="rgb(0,0,255)"
       inkscape:locked="true"
       inkscape:label="baseline"
       id="guide836"
       orientation="0,1"
       position="448,64" />
  </sodipodi:namedview>
  <metadata
     id="metadata5">
    <rdf:RDF>
      <cc:Work
         rdf:about="">
        <dc:format>image/svg+xml</dc:format>
        <dc:type
           rdf:resource="http://purl.org/dc/dcmitype/StillImage" />
        <dc:title>ACM DL</dc:title>
        <cc:license
           rdf:resource="http://scripts.sil.org/OFL" />
        <dc:subject>
          <rdf:Bag>
            <rdf:li>ACM</rdf:li>
          </rdf:Bag>
        </dc:subject>
      </cc:Work>
      <cc:License
         rdf:about="http://scripts.sil.org/OFL">
        <cc:permits
           rdf:resource="http://scripts.sil.org/pub/OFL/Reproduction" />
        <cc:permits
           rdf:resource="http://scripts.sil.org/pub/OFL/Distribution" />
        <cc:permits
           rdf:resource="http://scripts.sil.org/pub/OFL/Embedding" />
        <cc:permits
           rdf:resource="http://scripts.sil.org/pub/OFL/DerivativeWorks" />
        <cc:requires
           rdf:resource="http://scripts.sil.org/pub/OFL/Notice" />
        <cc:requires
           rdf:resource="http://scripts.sil.org/pub/OFL/Attribution" />
        <cc:requires
           rdf:resource="http://scripts.sil.org/pub/OFL/ShareAlike" />
        <cc:requires
           rdf:resource="http://scripts.sil.org/pub/OFL/DerivativeRenaming" />
        <cc:requires
           rdf:resource="http://scripts.sil.org/pub/OFL/BundlingWhenSelling" />
      </cc:License>
    </rdf:RDF>
  </metadata>
  <g
     inkscape:label="icon"
     id="layer6"
     inkscape:groupmode="layer">
    <path
       id="path2"
       d="M 48 32 C 21.5 32 0 53.5 0 80 L 0 432 C 0 458.5 21.5 480 48 480 L 400 480 C 426.5 480 448 458.5 448 432 L 448 80 C 448 53.5 426.5 32 400 32 L 48 32 z M 223.13086 96 L 224.20312 96 C 235.01959 106.93611 245.82486 117.88213 256.69336 128.76758 C 257.11802 129.19302 258.18951 129.28638 258.84961 129.11328 C 268.31277 126.62388 277.75637 124.05344 287.20898 121.52539 C 292.5814 120.08784 297.96224 118.69235 303.40234 117.26172 C 303.70689 118.0084 303.96349 118.48051 304.09766 118.98438 C 307.85838 132.9925 311.6333 146.99525 315.31836 161.02344 C 315.75211 162.67026 316.34988 163.52088 318.15039 163.96094 C 324.64209 165.5491 331.0693 167.39847 337.51953 169.1543 C 345.69201 171.37719 353.86399 173.606 362.03906 175.83398 C 361.98429 176.31379 361.98652 176.58129 361.91992 176.83203 C 358.04345 191.36408 354.13796 205.88542 350.34375 220.4375 C 350.11886 221.30303 350.47587 222.69794 351.08789 223.3418 C 355.0375 227.49223 359.12785 231.50816 363.18555 235.55469 C 369.96581 242.31595 376.75542 249.06606 384 256.27539 C 383.00839 257.00857 382.12814 257.50587 381.4375 258.19531 C 371.55512 268.06608 361.74919 278.01532 351.78711 287.80078 C 350.13399 289.42465 349.93525 290.76041 350.51562 292.875 C 354.45358 307.19631 358.25117 321.55855 362.12109 336.00781 C 361.69535 336.16381 361.38795 336.30328 361.06445 336.39258 C 346.67063 340.32719 332.28877 344.3079 317.86328 348.12109 C 316.22363 348.55604 315.74999 349.33974 315.38281 350.73828 C 313.09761 359.43439 310.76207 368.11622 308.42773 376.79883 C 306.8401 382.70293 305.22671 388.60298 303.58594 394.64453 C 302.60126 394.44291 301.82551 394.32366 301.07227 394.125 C 287.16422 390.45727 273.24655 386.82868 259.37305 383.03516 C 257.78543 382.60203 256.93186 382.88679 255.89258 383.9375 C 249.40781 390.49498 242.8667 396.99595 236.375 403.54688 C 232.28966 407.66963 228.25791 411.84663 224.20312 416 L 223.12891 416 C 212.39357 405.21301 201.67535 394.40949 190.87891 383.68555 C 190.3014 383.11314 188.96436 382.83606 188.14453 383.05078 C 173.31841 386.92017 158.51684 390.88687 143.44727 394.9043 C 141.55107 387.77625 139.66056 380.67625 137.77344 373.57227 C 135.76662 366.01513 133.75801 358.459 131.76172 350.90039 C 131.35855 349.38044 130.73056 348.50192 128.91406 348.03125 C 115.08715 344.45393 101.32202 340.63264 87.513672 336.97656 C 85.459002 336.43406 84.886376 335.76563 85.503906 333.51758 C 89.268656 319.80152 92.780354 306.01627 96.558594 292.30273 C 97.051274 290.51189 96.728612 289.55578 95.539062 288.37305 C 85.451822 278.32872 75.458937 268.18779 65.310547 258.20508 C 63.483547 256.40911 63.628518 255.46504 65.361328 253.75586 C 75.496618 243.76001 85.506781 233.63755 95.582031 223.58008 C 96.661291 222.50273 97.101444 221.63737 96.621094 219.89062 C 92.853794 206.16907 89.380148 192.36697 85.585938 178.65234 C 84.925837 176.26833 85.389893 175.59214 87.601562 175.01758 C 101.09842 171.50296 114.55937 167.84131 128.05078 164.30664 C 130.18931 163.7452 131.34342 162.80346 131.93945 160.47266 C 135.58994 146.19 139.45019 131.95981 143.24805 117.71289 C 143.29063 117.55173 143.43059 117.41614 143.60742 117.13867 C 153.02004 119.6361 162.4791 122.12958 171.92773 124.66016 C 177.42495 126.13199 182.89411 127.7115 188.40625 129.125 C 189.10743 129.30509 190.24965 129.04085 190.75 128.54102 C 201.58141 117.73141 212.35006 106.85992 223.13086 96 z M 200.76367 207.31836 C 185.37569 207.34266 169.98805 207.32812 154.60156 207.32812 L 151.86914 207.32812 L 151.86914 300.18164 C 152.3149 300.26552 152.56797 300.35352 152.82227 300.35352 C 169.37212 300.36302 185.92119 300.41555 202.4707 300.28906 C 203.99827 300.27702 205.83742 299.48452 206.98438 298.44727 C 211.22693 294.61255 215.29025 290.57637 219.31445 286.50977 C 221.3544 284.44843 222.59175 281.91152 222.59375 278.90625 C 222.59635 262.32452 222.61692 245.74347 222.57422 229.16211 C 222.5662 226.2381 221.55859 223.67017 219.37891 221.55664 C 215.58762 217.87946 211.87132 214.12233 208.17969 210.34375 C 206.1212 208.23717 203.67947 207.31236 200.76367 207.31836 z M 250.07422 207.48828 L 250.07422 300.2207 L 312.07031 300.2207 L 312.07031 284.63281 L 266.53516 284.63281 L 266.53516 207.48828 L 250.07422 207.48828 z M 195.68164 222.88281 C 197.83073 222.85476 199.22936 223.78911 200.85156 225.03711 C 205.0781 228.29031 206.242 232.31792 206.07812 237.58984 C 205.69101 250.02185 206.01533 262.47256 205.87305 274.91406 C 205.85558 276.40047 204.95645 278.02742 204.08203 279.33008 C 200.96389 283.9687 196.5839 285.26242 191.0332 284.89453 C 183.654 284.40521 176.21592 284.77344 168.49609 284.77344 L 168.49609 222.92383 L 171.29102 222.92383 C 179.42057 222.92383 187.55316 222.98965 195.68164 222.88281 z " />
  </g>
</svg>
