<?xml version="1.0" encoding="UTF-8" standalone="no"?>
<svg
   xmlns:dc="http://purl.org/dc/elements/1.1/"
   xmlns:cc="http://creativecommons.org/ns#"
   xmlns:rdf="http://www.w3.org/1999/02/22-rdf-syntax-ns#"
   xmlns:svg="http://www.w3.org/2000/svg"
   xmlns="http://www.w3.org/2000/svg"
   xmlns:sodipodi="http://sodipodi.sourceforge.net/DTD/sodipodi-0.dtd"
   xmlns:inkscape="http://www.inkscape.org/namespaces/inkscape"
   width="448"
   height="512"
   viewBox="0 0 448 512"
   version="1.1"
   id="svg8"
   inkscape:version="1.0 (1.0+r73+1)"
   sodipodi:docname="template-square.svg">
  <title
     id="title842">ADS</title>
  <defs
     id="defs2" />
  <sodipodi:namedview
     id="base"
     pagecolor="#ffffff"
     bordercolor="#666666"
     borderopacity="1.0"
     inkscape:pageopacity="0.0"
     inkscape:pageshadow="2"
     inkscape:zoom="0.75"
     inkscape:cx="224"
     inkscape:cy="256"
     inkscape:document-units="px"
     inkscape:current-layer="layer6"
     inkscape:document-rotation="0"
     showgrid="true"
     units="px"
     showguides="true"
     inkscape:guide-bbox="true"
     inkscape:window-width="1315"
     inkscape:window-height="713"
     inkscape:window-x="51"
     inkscape:window-y="27"
     inkscape:window-maximized="1">
    <inkscape:grid
       type="xygrid"
       id="grid10"
       empspacing="4" />
    <sodipodi:guide
       position="448,416"
       orientation="0,1"
       id="guide832"
       inkscape:label=""
       inkscape:locked="true"
       inkscape:color="rgb(0,0,255)" />
    <sodipodi:guide
       position="448,96"
       orientation="0,1"
       id="guide834"
       inkscape:label=""
       inkscape:locked="true"
       inkscape:color="rgb(0,0,255)" />
    <sodipodi:guide
       position="448,64"
       orientation="0,1"
       id="guide836"
       inkscape:label="baseline"
       inkscape:locked="true"
       inkscape:color="rgb(0,0,255)" />
  </sodipodi:namedview>
  <metadata
     id="metadata5">
    <rdf:RDF>
      <cc:Work
         rdf:about="">
        <dc:format>image/svg+xml</dc:format>
        <dc:type
           rdf:resource="http://purl.org/dc/dcmitype/StillImage" />
        <dc:title>ADS</dc:title>
        <cc:license
           rdf:resource="http://scripts.sil.org/OFL" />
        <dc:subject>
          <rdf:Bag>
            <rdf:li>ADS</rdf:li>
          </rdf:Bag>
        </dc:subject>
      </cc:Work>
      <cc:License
         rdf:about="http://scripts.sil.org/OFL">
        <cc:permits
           rdf:resource="http://scripts.sil.org/pub/OFL/Reproduction" />
        <cc:permits
           rdf:resource="http://scripts.sil.org/pub/OFL/Distribution" />
        <cc:permits
           rdf:resource="http://scripts.sil.org/pub/OFL/Embedding" />
        <cc:permits
           rdf:resource="http://scripts.sil.org/pub/OFL/DerivativeWorks" />
        <cc:requires
           rdf:resource="http://scripts.sil.org/pub/OFL/Notice" />
        <cc:requires
           rdf:resource="http://scripts.sil.org/pub/OFL/Attribution" />
        <cc:requires
           rdf:resource="http://scripts.sil.org/pub/OFL/ShareAlike" />
        <cc:requires
           rdf:resource="http://scripts.sil.org/pub/OFL/DerivativeRenaming" />
        <cc:requires
           rdf:resource="http://scripts.sil.org/pub/OFL/BundlingWhenSelling" />
      </cc:License>
    </rdf:RDF>
  </metadata>
  <g
     inkscape:groupmode="layer"
     id="layer6"
     inkscape:label="icon">
    <path
       d="M 48 32 C 21.5 32 0 53.5 0 80 L 0 432 C 0 458.5 21.5 480 48 480 L 400 480 C 426.5 480 448 458.5 448 432 L 448 80 C 448 53.5 426.5 32 400 32 L 48 32 z M 160.58203 96 C 181.6229 96 198.67773 113.05658 198.67773 134.0957 C 198.67773 155.13481 181.62313 172.19141 160.58398 172.19141 C 139.54487 172.19141 122.48828 155.13481 122.48828 134.0957 C 122.48828 113.05658 139.54118 96 160.58203 96 z M 268.47461 105.58984 C 316.34685 105.32899 359.79483 128.88257 390.70703 178.35156 L 390.70508 178.35156 C 436.16177 251.09811 414.03953 346.92031 341.29297 392.37695 C 283.81706 428.29163 211.93523 422.0238 161.87109 381.92969 L 169.3125 377.2793 C 216.59935 413.63192 283.35915 418.84928 336.91406 385.38672 C 405.79211 342.34742 426.73849 251.62023 383.69922 182.74219 C 354.1732 135.49005 307.13883 110.33832 255.17773 113.38672 C 240.96963 114.21766 228.93164 118.33398 228.93164 118.33398 C 228.93164 118.33398 228.30398 114.00899 227.39844 111.36523 C 241.31843 107.60433 255.07038 105.66288 268.47461 105.58984 z M 256.4082 146.72656 C 262.60021 146.68156 268.87814 147.14222 275.19531 148.14258 C 337.34161 157.98731 379.73991 216.34546 369.89648 278.49219 C 360.05304 340.63895 301.69556 383.0383 239.54883 373.19531 C 208.43338 368.26729 182.26677 351.1738 165.13086 327.53516 L 146.60742 339.10938 C 147.18164 346.23879 143.92816 353.44901 137.50781 357.61719 L 64.753906 404.86523 C 55.433947 410.91776 42.973788 408.27047 36.919922 398.94922 C 30.867825 389.62925 33.516611 377.16906 42.837891 371.11523 L 115.5918 323.86719 C 121.9423 319.74368 129.75009 319.66318 135.99609 322.97656 L 155.15625 311.00195 C 145.09288 290.60989 141.0171 267.0156 144.8457 242.8457 C 147.21364 227.89689 152.38679 214.09181 159.74609 201.88086 C 172.34734 202.05826 185.1457 198.73399 196.62891 191.55859 C 211.98022 181.96756 222.17517 167.24709 226.38281 151.00586 C 236.00719 148.27986 246.0882 146.80156 256.4082 146.72656 z M 257.74414 180.67383 C 218.13172 180.45779 183.21174 209.17386 176.82422 249.50195 C 169.77588 294.00188 200.13634 335.79154 244.63672 342.83984 C 289.13709 349.88817 330.9263 319.52903 337.97461 275.02734 C 345.02291 230.52739 314.66209 188.73778 270.16211 181.68945 C 265.99024 181.02868 261.84198 180.69618 257.74414 180.67383 z M 123.08398 185.40234 C 125.54039 186.69775 129.72852 191.26172 129.72852 191.26172 C 112.72099 221.66463 107.84047 254.98142 114.73828 289.51172 L 107.28125 294.17188 C 99.078007 257.03726 104.92846 218.26078 123.08398 185.40234 z M 257.56836 207.35938 C 268.70594 207.35937 278.59964 209.56094 287.25 213.95898 C 295.89905 218.35876 300.22266 226.66036 300.22266 238.86523 L 300.22266 285.33398 C 300.22266 288.55714 300.28294 292.46127 300.4082 297.04492 C 300.59379 300.51531 301.12092 302.87075 301.98828 304.10938 L 301.98633 304.10938 C 302.85373 305.34972 304.15458 306.37194 305.89453 307.17773 L 305.89453 311.08008 L 277.08398 311.08008 C 276.27818 309.03567 275.71943 307.11558 275.41016 305.31836 C 275.09921 303.52116 274.85361 301.47694 274.66797 299.18359 C 270.99117 303.14881 266.75103 306.52431 261.95312 309.3125 C 256.21931 312.59553 249.73697 314.23828 242.50781 314.23828 C 233.28322 314.23828 225.66674 311.61897 219.65234 306.38477 C 213.63795 301.14927 210.63281 293.73056 210.63281 284.12695 C 210.63281 271.67314 215.46935 262.65885 225.14453 257.08203 C 230.45158 254.04622 238.25241 251.87681 248.55078 250.57617 L 257.63281 249.46094 C 262.56211 248.84204 266.08717 248.06612 268.21094 247.13672 C 272.01614 245.52686 273.92188 243.01774 273.92188 239.60938 C 273.92187 235.45855 272.46107 232.59361 269.54102 231.01367 C 266.6197 229.43374 262.33434 228.64453 256.68164 228.64453 C 250.33895 228.64453 245.84689 230.19361 243.21094 233.29102 C 241.32524 235.58263 240.07134 238.68078 239.44336 242.58398 L 213.88477 242.58398 C 214.44464 233.72414 216.93271 226.44584 221.35156 220.74414 C 228.38252 211.821 240.45458 207.35938 257.56836 207.35938 z M 273.82227 261.82422 C 272.12827 262.87764 270.41486 263.72883 268.6875 264.37891 C 266.9601 265.03075 264.59117 265.63519 261.57617 266.19336 L 255.54688 267.30664 C 249.89592 268.29806 245.8364 269.50739 243.37305 270.93164 C 239.20182 273.3473 237.11719 277.09749 237.11719 282.17773 C 237.11719 286.70111 238.39067 289.96967 240.93945 291.98242 C 243.48697 293.99647 246.58488 295.00195 250.23438 295.00195 C 256.02195 295.00195 261.35319 293.33116 266.23047 289.98438 C 271.10772 286.63758 273.63897 280.53495 273.82617 271.67383 L 273.82227 271.67383 L 273.82227 261.82422 z "
       id="path2" />
  </g>
</svg>
