<?xml version="1.0" encoding="UTF-8" standalone="no"?>
<svg
   xmlns:dc="http://purl.org/dc/elements/1.1/"
   xmlns:cc="http://creativecommons.org/ns#"
   xmlns:rdf="http://www.w3.org/1999/02/22-rdf-syntax-ns#"
   xmlns:svg="http://www.w3.org/2000/svg"
   xmlns="http://www.w3.org/2000/svg"
   xmlns:sodipodi="http://sodipodi.sourceforge.net/DTD/sodipodi-0.dtd"
   xmlns:inkscape="http://www.inkscape.org/namespaces/inkscape"
   sodipodi:docname="ads.svg"
   inkscape:version="1.0 (1.0+r73+1)"
   id="svg8"
   version="1.1"
   viewBox="0 0 512 512"
   height="512"
   width="512">
  <title
     id="title833">ADS</title>
  <defs
     id="defs2" />
  <sodipodi:namedview
     inkscape:window-maximized="1"
     inkscape:window-y="27"
     inkscape:window-x="51"
     inkscape:window-height="713"
     inkscape:window-width="1315"
     inkscape:guide-bbox="true"
     showguides="true"
     units="px"
     showgrid="true"
     inkscape:document-rotation="0"
     inkscape:current-layer="layer6"
     inkscape:document-units="px"
     inkscape:cy="256"
     inkscape:cx="256"
     inkscape:zoom="0.75"
     inkscape:pageshadow="2"
     inkscape:pageopacity="0.0"
     borderopacity="1.0"
     bordercolor="#666666"
     pagecolor="#ffffff"
     id="base">
    <inkscape:grid
       empspacing="4"
       id="grid10"
       type="xygrid" />
    <sodipodi:guide
       inkscape:color="rgb(0,0,255)"
       inkscape:locked="true"
       inkscape:label="baseline"
       id="guide23"
       orientation="0,1"
       position="511.99998,64" />
  </sodipodi:namedview>
  <metadata
     id="metadata5">
    <rdf:RDF>
      <cc:Work
         rdf:about="">
        <dc:format>image/svg+xml</dc:format>
        <dc:type
           rdf:resource="http://purl.org/dc/dcmitype/StillImage" />
        <dc:title>ADS</dc:title>
        <dc:subject>
          <rdf:Bag>
            <rdf:li>ADS</rdf:li>
          </rdf:Bag>
        </dc:subject>
        <cc:license
           rdf:resource="http://scripts.sil.org/OFL" />
      </cc:Work>
      <cc:License
         rdf:about="http://scripts.sil.org/OFL">
        <cc:permits
           rdf:resource="http://scripts.sil.org/pub/OFL/Reproduction" />
        <cc:permits
           rdf:resource="http://scripts.sil.org/pub/OFL/Distribution" />
        <cc:permits
           rdf:resource="http://scripts.sil.org/pub/OFL/Embedding" />
        <cc:permits
           rdf:resource="http://scripts.sil.org/pub/OFL/DerivativeWorks" />
        <cc:requires
           rdf:resource="http://scripts.sil.org/pub/OFL/Notice" />
        <cc:requires
           rdf:resource="http://scripts.sil.org/pub/OFL/Attribution" />
        <cc:requires
           rdf:resource="http://scripts.sil.org/pub/OFL/ShareAlike" />
        <cc:requires
           rdf:resource="http://scripts.sil.org/pub/OFL/DerivativeRenaming" />
        <cc:requires
           rdf:resource="http://scripts.sil.org/pub/OFL/BundlingWhenSelling" />
      </cc:License>
    </rdf:RDF>
  </metadata>
  <g
     inkscape:label="icon"
     id="layer6"
     inkscape:groupmode="layer">
    <path
       id="path2"
       d="m 456.04703,162.82172 c 54.54803,87.29587 28.00105,202.28362 -59.29482,256.83159 -68.97109,43.09762 -155.2292,35.57435 -215.30618,-12.53858 l 8.92841,-5.57843 c 56.74423,43.62315 136.85712,49.88285 201.12302,9.72778 82.65366,-51.64717 107.7882,-160.52042 56.14107,-243.17406 -35.43122,-56.70258 -91.87095,-86.884733 -154.22427,-83.226657 -17.04972,0.997134 -31.49518,5.936515 -31.49518,5.936515 0,0 -0.75358,-5.190217 -1.84023,-8.362737 76.36113,-20.631259 148.48756,4.400216 195.96871,80.384579 z m -340.10921,138.98464 8.94926,-5.59198 c -8.27737,-41.43637 -2.42102,-81.41659 17.98801,-117.90008 0,0 -5.02679,-5.47593 -7.97449,-7.03042 -21.78662,39.43012 -28.80613,85.96147 -18.96224,130.523 z m 233.64762,11.92402 c -1.04083,-1.48634 -1.67318,-4.31278 -1.89589,-8.47724 -0.15031,-5.50038 -0.22272,-10.18422 -0.22272,-14.05202 v -55.76216 c 0,-14.64585 -5.18813,-24.60943 -15.56699,-29.88917 -10.38043,-5.27765 -22.25291,-7.91775 -35.618,-7.91775 -20.53654,0 -35.02211,5.35207 -43.45926,16.05983 -5.30262,6.84204 -8.28886,15.57638 -8.9607,26.20819 h 30.66926 c 0.75358,-4.68385 2.25916,-8.40127 4.52199,-11.1512 3.16315,-3.71689 8.55322,-5.57635 16.16445,-5.57635 6.78324,0 11.92609,0.94769 15.43168,2.84361 3.50405,1.89592 5.25684,5.33488 5.25684,10.31588 0,4.09004 -2.28571,7.1012 -6.85194,9.03304 -2.54853,1.11528 -6.77962,2.04579 -12.69478,2.78847 l -10.89824,1.33798 c -12.35805,1.56077 -21.72,4.16449 -28.08847,7.80746 -11.61021,6.69218 -17.41296,17.50819 -17.41296,32.45277 0,11.52433 3.60656,20.42778 10.82383,26.71037 7.21727,6.28105 16.35648,9.42337 27.42598,9.42337 8.675,0 16.45379,-1.96981 23.33437,-5.90944 5.75748,-3.34583 10.84465,-7.39787 15.2568,-12.15613 0.22277,2.75202 0.5194,5.20531 0.89254,7.36195 0.37112,2.15666 1.04084,4.46111 2.0078,6.9144 h 34.57301 v -4.68385 c -2.08794,-0.96695 -3.64871,-2.19256 -4.68959,-3.68097 z m -33.79442,-38.92166 c -0.22465,10.63334 -3.26203,17.95521 -9.11473,21.97136 -5.85273,4.01613 -12.2493,6.02186 -19.19439,6.02186 -4.3794,0 -8.09833,-1.20687 -11.15536,-3.62373 -3.05853,-2.4153 -4.58701,-6.33775 -4.58701,-11.76581 0,-6.09629 2.50272,-10.59535 7.5082,-13.49415 2.95602,-1.70909 7.82823,-3.15949 14.60938,-4.34919 l 7.23447,-1.33802 c 3.618,-0.66981 6.46161,-1.39318 8.53449,-2.17539 2.07284,-0.7801 4.12799,-1.80224 6.16079,-3.06635 v 11.81942 z M 225.61409,109.7148 c 0,-25.246934 -20.46575,-45.714804 -45.7148,-45.714804 -25.24902,0 -45.71273,20.46787 -45.71273,45.714804 0,25.24694 20.46787,45.71481 45.7148,45.71481 25.24698,0 45.71273,-20.46787 45.71273,-45.71481 z m 91.8194,16.85557 c -20.21495,-3.20115 -40.09625,-1.7965 -58.57506,3.43742 -5.04917,19.48947 -17.28178,37.15377 -35.70336,48.66301 -13.77985,8.61048 -29.13712,12.59955 -44.25862,12.38668 -8.83115,14.65313 -15.03985,31.21936 -17.88137,49.15793 -4.59433,29.00389 0.2971,57.3172 12.37315,81.78767 l -22.99348,14.36794 c -7.4952,-3.97606 -16.86288,-3.87874 -24.48348,1.06948 l -87.305195,56.69688 c -11.185536,7.26459 -14.363759,22.21856 -7.101242,33.40252 7.264639,11.18551 22.214961,14.36217 33.398912,7.09913 l 87.306775,-56.69842 c 7.70442,-5.00181 11.60813,-13.65391 10.91906,-22.2092 l 22.2264,-13.88811 c 20.56309,28.36636 51.96304,48.87796 89.30158,54.79159 74.57608,11.81159 144.60677,-39.06845 156.41889,-113.64456 11.81212,-74.57608 -39.0669,-144.60524 -113.64246,-156.41892 z m 75.3354,152.26175 c -8.45797,53.40203 -58.60369,89.83451 -112.00413,81.37652 -53.40046,-8.45797 -89.83451,-58.60577 -81.37651,-112.00569 8.45796,-53.39996 58.60577,-89.83451 112.00568,-81.37655 53.39997,8.458 89.83241,58.60578 81.37444,112.00572 z"
       style="stroke-width:0.0675235" />
  </g>
</svg>
