<?xml version="1.0" encoding="UTF-8" standalone="no"?>
<svg
   xmlns:dc="http://purl.org/dc/elements/1.1/"
   xmlns:cc="http://creativecommons.org/ns#"
   xmlns:rdf="http://www.w3.org/1999/02/22-rdf-syntax-ns#"
   xmlns:svg="http://www.w3.org/2000/svg"
   xmlns="http://www.w3.org/2000/svg"
   xmlns:sodipodi="http://sodipodi.sourceforge.net/DTD/sodipodi-0.dtd"
   xmlns:inkscape="http://www.inkscape.org/namespaces/inkscape"
   sodipodi:docname="africarxiv.svg"
   inkscape:version="1.0 (1.0+r73+1)"
   id="svg8"
   version="1.1"
   viewBox="0 0 448 512"
   height="512"
   width="448">
  <title
     id="title833">AfricArxiv</title>
  <defs
     id="defs2" />
  <sodipodi:namedview
     inkscape:window-maximized="1"
     inkscape:window-y="27"
     inkscape:window-x="51"
     inkscape:window-height="713"
     inkscape:window-width="1315"
     inkscape:guide-bbox="true"
     showguides="true"
     units="px"
     showgrid="true"
     inkscape:document-rotation="0"
     inkscape:current-layer="layer6"
     inkscape:document-units="px"
     inkscape:cy="256"
     inkscape:cx="224"
     inkscape:zoom="0.75"
     inkscape:pageshadow="2"
     inkscape:pageopacity="0.0"
     borderopacity="1.0"
     bordercolor="#666666"
     pagecolor="#ffffff"
     id="base">
    <inkscape:grid
       empspacing="4"
       id="grid10"
       type="xygrid" />
    <sodipodi:guide
       inkscape:color="rgb(0,0,255)"
       inkscape:locked="true"
       inkscape:label="baseline"
       id="guide861"
       orientation="0,1"
       position="447.99999,64" />
  </sodipodi:namedview>
  <metadata
     id="metadata5">
    <rdf:RDF>
      <cc:Work
         rdf:about="">
        <dc:format>image/svg+xml</dc:format>
        <dc:type
           rdf:resource="http://purl.org/dc/dcmitype/StillImage" />
        <dc:title>AfricArxiv</dc:title>
        <cc:license
           rdf:resource="http://scripts.sil.org/OFL" />
        <dc:subject>
          <rdf:Bag>
            <rdf:li>AfricArXiv</rdf:li>
            <rdf:li>arXiv</rdf:li>
          </rdf:Bag>
        </dc:subject>
      </cc:Work>
      <cc:License
         rdf:about="http://scripts.sil.org/OFL">
        <cc:permits
           rdf:resource="http://scripts.sil.org/pub/OFL/Reproduction" />
        <cc:permits
           rdf:resource="http://scripts.sil.org/pub/OFL/Distribution" />
        <cc:permits
           rdf:resource="http://scripts.sil.org/pub/OFL/Embedding" />
        <cc:permits
           rdf:resource="http://scripts.sil.org/pub/OFL/DerivativeWorks" />
        <cc:requires
           rdf:resource="http://scripts.sil.org/pub/OFL/Notice" />
        <cc:requires
           rdf:resource="http://scripts.sil.org/pub/OFL/Attribution" />
        <cc:requires
           rdf:resource="http://scripts.sil.org/pub/OFL/ShareAlike" />
        <cc:requires
           rdf:resource="http://scripts.sil.org/pub/OFL/DerivativeRenaming" />
        <cc:requires
           rdf:resource="http://scripts.sil.org/pub/OFL/BundlingWhenSelling" />
      </cc:License>
    </rdf:RDF>
  </metadata>
  <g
     inkscape:label="icon"
     id="layer6"
     inkscape:groupmode="layer">
    <path
       style="stroke-width:0.264583"
       id="path11"
       d="m 166.83706,8.0098715 c -9.8693,-0.1726722 -19.4997,1.9019458 -28.95839,7.6503525 l 0.009,-0.02634 c -4.66273,2.837212 -9.56933,6.947613 -14.22272,7.94154 -15.22518,3.261893 -28.064572,11.936671 -42.557852,16.544884 -6.894248,2.186641 -10.210634,6.406319 -10.002813,13.553565 -2.828178,5.123245 -7.29232,8.330646 -12.478816,10.779325 -4.595703,2.163211 -8.972983,4.632323 -10.341652,10.085759 -0.02192,0.01814 -0.04505,0.03439 -0.06705,0.05295 -5.403356,6.297893 -11.08604,12.378149 -16.597828,21.79336 L 200.58701,40.933855 c -7.30989,-6.948462 -14.90046,-12.830707 -6.45207,-23.492849 -7.5767,0.514747 -12.93385,4.910448 -19.31736,3.923119 3.622,-5.390818 11.37371,-4.248765 15.51425,-9.543968 -7.99717,-2.1821251 -15.81849,-3.675875 -23.49462,-3.8101759 z m 90.67478,33.6456655 c -7.12013,0.442752 -13.9692,1.004303 -19.87856,6.118523 -7.02074,6.035854 -14.90942,7.751226 -22.86988,1.037692 -6.00875,-5.069033 -11.86382,-4.109834 -18.67675,-0.811805 -15.73117,7.635183 -31.86867,14.45728 -47.82574,21.604534 -37.02231,16.661847 -74.030564,33.337989 -111.022769,50.029959 -11.82775,3.86729 -12.351963,4.94232 -9.632212,16.72488 1.987857,8.602 5.575035,17.65636 -4.517857,24.07171 a 6.2436766,6.2436766 0 0 0 -3.667228,5.77085 c -0.0091,0.005 -0.01852,0.008 -0.02835,0.0125 -2.620357,9.15317 -0.423693,18.05307 1.238879,27.0436 1.057179,5.6925 3.704148,5.47543 8.077434,3.39721 9.894103,-4.71664 19.932921,-9.1351 29.962562,-13.55356 31.709164,-13.93909 63.425221,-27.86915 95.146591,-41.79018 a 10.129033,10.129033 0 0 0 2.64719,-0.24181 c -1.03045,0.5444 -1.98238,1.19034 -2.50236,2.40188 l -32.52856,19.065 -48.983447,24.95586 c -14.032461,2.42157 -26.204198,10.0026 -39.504765,14.3036 -8.231535,2.6565 -6.59593,5.52188 -0.984755,9.21749 5.24975,6.32499 12.98467,7.88747 20.240347,10.34518 0.0098,-0.006 0.02003,-0.0102 0.02986,-0.0162 5.622011,2.63531 11.209035,5.35868 16.894304,7.86742 5.285893,2.34929 10.200966,3.16257 13.417683,-3.54192 1.807139,-3.80404 5.096139,-4.3555 9.035709,-2.54835 6.137663,2.86122 12.635434,2.9453 19.206194,1.81066 -0.002,0.002 -0.004,0.004 -0.006,0.006 0.0136,9e-4 0.0272,5.6e-4 0.0405,0.002 l 0.0318,0.0268 c 0.0151,-0.007 0.0306,-0.0136 0.0459,-0.0212 2.48949,0.21671 4.94902,0.24899 7.11033,-1.33418 2.97274,0 5.97204,-0.23467 8.90864,0.0635 13.98729,1.42764 28.55264,-3.3264 42.02489,4.11903 2.5571,1.40957 4.94253,-1.38099 7.22857,-2.5466 24.26979,-12.42109 48.51563,-24.9009 72.73735,-37.43643 32.16713,-16.57753 64.32378,-33.1514 96.46681,-49.7229 2.7559,-1.42764 9.03524,-2.0506 3.55958,-7.62564 v -0.0459 c -3.75331,-7.56076 -7.11753,-15.26574 -8.44981,-23.6905 0.011,-0.009 0.0181,-0.0185 0.0257,-0.0283 -0.42468,-6.27981 -2.56599,-12.034721 -5.27671,-17.654937 -2.34927,-4.816034 -4.9964,-6.154519 -10.48105,-3.714873 -12.69518,5.656351 -25.71685,10.816731 -38.72826,15.47013 -13.01144,4.65339 -25.09218,11.96314 -39.07946,13.86064 -0.0144,-0.003 -0.028,-0.003 -0.0424,-0.006 l 0.007,-0.004 c -0.1265,-2.14146 1.80629,-1.89779 2.9719,-2.54836 l 69.01898,-38.427992 c 0.253,-6.442459 -2.06013,-12.234707 -4.51781,-17.981416 -0.003,0.0023 -0.007,0.0049 -0.0147,0.0072 8.8e-4,-0.0024 0.003,-0.0049 0.003,-0.0072 -3.3071,-8.376106 -9.10743,-10.826127 -17.49258,-7.473877 a 52.03666,52.03666 0 0 1 -17.8914,3.923122 v -0.01928 c -0.0147,0.0057 -0.0295,0.0102 -0.0441,0.01625 l -4.78073,-0.386759 c -6.72186,-1.436675 -10.95029,-6.97549 -16.65182,-10.092813 z M 359.09299,150.66293 c -1.56302,0.0941 -3.33048,0.74976 -5.41436,1.8442 -25.44458,13.34575 -51.11536,26.25623 -76.71354,39.29476 -30.07988,15.36071 -60.20565,30.55878 -90.17711,46.08213 -1.88846,0.96682 -7.1908,0.75928 -4.6608,5.48495 3.30497,6.1494 2.30417,12.65108 2.47424,19.09854 -0.003,9e-4 -0.006,0.003 -0.009,0.004 -2.1e-4,0.009 2e-4,0.0178 0,0.0268 -0.072,3.15968 -0.13762,6.31616 -0.19764,9.46984 a 33.432133,33.432133 0 0 0 5.42143,14.1236 c 0.0106,0.003 0.0212,0.005 0.0318,0.007 -0.008,0.004 -0.0151,0.007 -0.0227,0.0106 l 3.65841,4.87082 8.57509,10.73343 c 1.46379,9.98446 6.5509,10.09283 15.13482,7.15622 31.119,-10.66214 62.54619,-20.45672 93.85496,-30.57671 l 1.80713,1.86185 a 13.228282,13.228282 0 0 0 0.0257,-0.004 l -34.12571,16.14957 c -5.68347,1.518 -10.84321,4.175 -15.94838,7.05739 a 4.0931774,4.0931774 0 0 0 -3.86666,1.80714 327.66201,327.66201 0 0 0 -39.53124,17.76435 0.90357114,0.90357114 0 0 0 -1.18416,0.39708 13.047567,13.047567 0 0 0 -7.38211,3.33368 c -4.74375,1.06622 -10.07581,2.61168 -9.82281,8.26803 0.63203,14.13916 -4.27432,26.99713 -7.9239,40.18775 -0.003,9.2e-4 -0.006,0.002 -0.009,0.003 a 11.014532,11.014532 0 0 0 1.11181,12.55998 c 2.783,3.33415 6.47755,-0.59694 9.53162,-1.70835 46.3532,-16.8064 92.6658,-33.71858 138.93468,-50.73584 6.11716,-2.24086 13.96769,-3.2345 17.68142,-7.61682 3.99378,-4.72568 -1.40928,-12.34285 -0.99364,-18.82146 0.52203,-2.78083 1.05218,-5.56123 1.57425,-8.35097 0.002,-0.003 0.003,-0.005 0.008,-0.007 2.78305,-8.55682 9.59659,-14.85514 13.07534,-23.02342 l 15.86719,-22.04573 c 3.37031,-7.22857 11.6364,-9.50613 16.0278,-15.71366 -0.0684,0.0231 -0.13607,0.0473 -0.20523,0.0706 0.0533,-0.0299 0.10771,-0.058 0.16025,-0.0883 9.44231,-5.79188 13.48066,-15.60495 20.13093,-25.8153 l -42.93701,13.19176 c -2.43201,0.15897 -4.82554,0.51667 -7.19854,0.97593 1.19445,-0.70116 2.29873,-1.60598 3.25072,-2.8466 2.63848,-1.265 5.30354,-2.50176 7.92389,-3.81194 13.82467,-6.90329 28.99588,-10.92453 42.00723,-19.56267 a 1.5812495,1.5812495 0 0 1 -0.90357,-0.51531 c 0.29821,0.16263 0.59637,0.32557 0.90357,0.51531 1.25598,-3.76789 0.78618,-7.59996 0.0726,-11.3317 l 0.0265,0.0547 c -1.01197,-5.28588 -3.33415,-7.99738 -9.03564,-4.18431 a 28.498634,28.498634 0 0 1 -12.13473,4.98024 46.181521,46.181521 0 0 1 -0.034,0.0212 c 9.1e-4,-0.0144 0.003,-0.0265 0.008,-0.0405 -7.92434,-0.59636 -16.10154,-0.44163 -21.54103,-7.87802 h 0.0265 c -2.54812,-3.49683 -5.25853,-0.97712 -7.84278,0.0529 -19.96892,8.02372 -39.93573,16.06375 -59.89863,24.11758 -1.49758,0.1383 -2.9307,0.47988 -4.33258,0.92299 0.85666,-0.8293 1.60827,-1.76374 2.11955,-2.93837 14.43904,-7.48759 28.85908,-14.99879 43.26197,-22.53458 6.27987,-3.28899 16.54518,-5.6567 17.73788,-10.30106 1.55416,-6.01778 -8.19537,-10.96109 -11.74639,-17.28609 -1.98784,-3.51828 -4.02519,-4.91829 -6.63034,-4.7614 z m 2.61366,185.67681 c -0.86843,-0.0574 -1.98573,0.19344 -3.42017,0.78357 -50.42526,20.81226 -100.90163,41.51069 -151.42933,62.09403 -3.85825,1.60834 -4.68953,3.0173 -2.71071,7.02916 4.82456,9.75752 9.26146,19.72281 11.74642,30.41078 a 14.113781,14.113781 0 0 1 -0.0178,0.003 h 0.0178 v 0.0113 c 0.29817,2.93662 1.01215,5.91092 0.8224,8.82039 -0.45179,6.73164 0.76732,8.79957 8.08625,5.54672 33.48635,-14.90887 67.33439,-28.98639 100.81174,-43.90437 14.2493,-6.3521 23.95329,-17.63723 29.90786,-32.09442 a 21.938707,21.938707 0 0 0 -0.034,0.003 c 0.008,-0.003 0.0113,-0.007 0.0189,-0.0147 8.63815,-9.88507 9.98449,-21.70358 9.03575,-34.11866 -0.21732,-2.82027 -0.92197,-4.4446 -2.83249,-4.5708 z m 55.59612,18.47732 c -4.02515,0.0306 -6.65809,4.18948 -8.52392,7.9133 -1.66738,3.31672 -2.87626,6.86809 -4.29022,10.32049 -0.003,0.003 -0.008,0.007 -0.0113,0.0102 -2.47578,5.10516 -4.45561,9.66671 -12.30765,8.4198 -5.52079,-0.87647 -13.09307,3.50574 -12.55997,8.73743 1.10234,10.9242 -6.2063,20.27637 -3.96546,30.93852 0.86215,0.79136 1.70109,1.08991 2.52717,1.11179 -0.99718,0.60404 -1.92856,1.32786 -2.71777,2.30483 -1.3915,5.30396 -2.90932,10.58906 -1.43648,16.14602 0.008,-9.1e-4 0.0151,-0.003 0.0265,-0.003 4.30244,9.47523 7.53306,10.68143 16.829,8.02801 11.26064,-3.23021 11.21476,-12.82177 13.07708,-21.47742 1.706,-4.43364 2.96065,-8.91363 2.44596,-14.19597 l -16.26428,4.93254 -0.0113,0.0457 c -1.27805,0.47932 -2.7388,0.11527 -4.02195,0.64769 0.829,-0.66126 1.56707,-1.4355 2.12478,-2.4283 2.76495,-1.61741 5.39323,-3.57668 8.32977,-4.80556 20.35747,-8.4664 23.6565,-26.312 25.18358,-45.17855 0.0903,-4.03894 2.89104,-9.67739 -2.62072,-11.21345 -0.63364,-0.17726 -1.23745,-0.25682 -1.81247,-0.2524 z m -91.75308,59.17331 c -34.25438,17.68289 -66.98088,34.94183 -100.1058,51.39592 -8.51164,4.23776 -10.01199,8.84617 -5.62968,16.4813 1.86042,6.89983 6.6998,11.24364 12.64118,14.65833 v 0.008 l 0.006,-0.002 c 9.1e-4,6.8e-4 0.003,9.5e-4 0.004,0.002 0.006,0.002 0.0117,0.002 0.0178,0.003 2.20327,2.95725 5.30794,4.10974 8.80982,4.48784 12.40603,7.31894 27.21549,0.71335 34.03745,-15.18953 8.67429,-4.91539 17.29465,-10.02917 26.04121,-14.85418 5.61778,-3.09793 9.57543,-6.92784 8.2433,-13.97888 0.003,-0.003 0.003,-0.008 0.007,-0.0113 1.67162,-4.63529 7.65367,-5.7919 8.79215,-10.84286 -1.02102,-10.90612 8.17571,-19.87883 7.14565,-32.14029 z" />
  </g>
</svg>
