<?xml version="1.0" encoding="UTF-8" standalone="no"?>
<svg
   sodipodi:docname="ai-square.svg"
   inkscape:version="1.1.1 (1:1.1+202109281943+c3084ef5ed)"
   id="svg8"
   version="1.1"
   viewBox="0 0 448 512"
   height="512"
   width="448"
   xmlns:inkscape="http://www.inkscape.org/namespaces/inkscape"
   xmlns:sodipodi="http://sodipodi.sourceforge.net/DTD/sodipodi-0.dtd"
   xmlns="http://www.w3.org/2000/svg"
   xmlns:svg="http://www.w3.org/2000/svg"
   xmlns:rdf="http://www.w3.org/1999/02/22-rdf-syntax-ns#"
   xmlns:cc="http://creativecommons.org/ns#"
   xmlns:dc="http://purl.org/dc/elements/1.1/">
  <title
     id="title907">Internet Archive</title>
  <defs
     id="defs2" />
  <sodipodi:namedview
     inkscape:window-maximized="1"
     inkscape:window-y="27"
     inkscape:window-x="56"
     inkscape:window-height="704"
     inkscape:window-width="1310"
     inkscape:guide-bbox="true"
     showguides="true"
     units="px"
     showgrid="true"
     inkscape:document-rotation="0"
     inkscape:current-layer="layer6"
     inkscape:document-units="px"
     inkscape:cy="255.33333"
     inkscape:cx="207.33333"
     inkscape:zoom="0.75"
     inkscape:pageshadow="2"
     inkscape:pageopacity="0.0"
     borderopacity="1.0"
     bordercolor="#666666"
     pagecolor="#ffffff"
     id="base"
     inkscape:pagecheckerboard="0">
    <inkscape:grid
       empspacing="4"
       id="grid10"
       type="xygrid" />
    <sodipodi:guide
       inkscape:color="rgb(0,0,255)"
       inkscape:locked="true"
       inkscape:label=""
       id="guide832"
       orientation="0,1"
       position="448,416" />
    <sodipodi:guide
       inkscape:color="rgb(0,0,255)"
       inkscape:locked="true"
       inkscape:label=""
       id="guide834"
       orientation="0,1"
       position="448,96" />
    <sodipodi:guide
       inkscape:color="rgb(0,0,255)"
       inkscape:locked="true"
       inkscape:label="baseline"
       id="guide836"
       orientation="0,1"
       position="448,64" />
  </sodipodi:namedview>
  <metadata
     id="metadata5">
    <rdf:RDF>
      <cc:Work
         rdf:about="">
        <dc:format>image/svg+xml</dc:format>
        <dc:type
           rdf:resource="http://purl.org/dc/dcmitype/StillImage" />
        <cc:license
           rdf:resource="http://scripts.sil.org/OFL" />
        <dc:subject>
          <rdf:Bag>
            <rdf:li>Internet Archive</rdf:li>
          </rdf:Bag>
        </dc:subject>
        <dc:title>Internet Archive</dc:title>
      </cc:Work>
      <cc:License
         rdf:about="http://scripts.sil.org/OFL">
        <cc:permits
           rdf:resource="http://scripts.sil.org/pub/OFL/Reproduction" />
        <cc:permits
           rdf:resource="http://scripts.sil.org/pub/OFL/Distribution" />
        <cc:permits
           rdf:resource="http://scripts.sil.org/pub/OFL/Embedding" />
        <cc:permits
           rdf:resource="http://scripts.sil.org/pub/OFL/DerivativeWorks" />
        <cc:requires
           rdf:resource="http://scripts.sil.org/pub/OFL/Notice" />
        <cc:requires
           rdf:resource="http://scripts.sil.org/pub/OFL/Attribution" />
        <cc:requires
           rdf:resource="http://scripts.sil.org/pub/OFL/ShareAlike" />
        <cc:requires
           rdf:resource="http://scripts.sil.org/pub/OFL/DerivativeRenaming" />
        <cc:requires
           rdf:resource="http://scripts.sil.org/pub/OFL/BundlingWhenSelling" />
      </cc:License>
    </rdf:RDF>
  </metadata>
  <g
     inkscape:label="icon"
     id="layer6"
     inkscape:groupmode="layer">
    <path
       id="path2"
       d="M 48 32 C 21.5 32 0 53.5 0 80 L 0 432 C 0 458.5 21.5 480 48 480 L 400 480 C 426.5 480 448 458.5 448 432 L 448 80 C 448 53.5 426.5 32 400 32 L 48 32 z M 221.32031 96 L 357.95312 127.28906 L 352.47656 136.92969 L 90.791016 136.92969 L 82.605469 129.11133 L 221.32031 96 z M 93.767578 144.37305 L 354.23242 144.37305 L 354.23242 170.41797 L 93.767578 170.41797 L 93.767578 144.37305 z M 103.70312 177.86133 L 121.04297 177.86133 L 124.14844 179.42969 L 125.70117 204.52148 L 127.25586 245.29492 L 127.25586 284.50781 L 125.70117 333.38672 L 125.44336 366.31641 L 121.04297 367.62695 L 105.51367 367.62695 L 100.85547 366.31641 L 99.044922 333.38672 L 97.488281 284.76758 L 97.488281 245.55859 L 99.044922 204.52148 L 100.46484 179.29492 L 103.70312 177.86133 z M 170.67578 177.86133 L 188.01953 177.86133 L 191.125 179.42969 L 192.67773 204.52148 L 194.23242 245.29492 L 194.23242 284.50781 L 192.67773 333.38672 L 192.42383 366.31641 L 188.01953 367.62695 L 172.48828 367.62695 L 167.82617 366.31641 L 166.01562 333.38672 L 164.46484 284.76758 L 164.46484 245.55859 L 166.01562 204.52148 L 167.44336 179.29492 L 170.67578 177.86133 z M 256.25977 177.86133 L 273.60156 177.86133 L 276.70508 179.42969 L 278.25977 204.52148 L 279.81445 245.29492 L 279.81445 284.50781 L 278.25977 333.38672 L 278.00391 366.31641 L 273.60156 367.62695 L 258.06836 367.62695 L 253.41016 366.31641 L 251.59766 333.38672 L 250.04688 284.76758 L 250.04688 245.55859 L 251.59766 204.52148 L 253.02344 179.29492 L 256.25977 177.86133 z M 326.95703 177.86133 L 344.30078 177.86133 L 347.41016 179.42969 L 348.96094 204.52148 L 350.51172 245.29492 L 350.51172 284.50781 L 348.96094 333.38672 L 348.70508 366.31641 L 344.30078 367.62695 L 328.77148 367.62695 L 324.11133 366.31641 L 322.29492 333.38672 L 320.74414 284.76758 L 320.74414 245.55859 L 322.29492 204.52148 L 323.72266 179.29492 L 326.95703 177.86133 z M 93.767578 378.79102 L 354.23242 378.79102 L 354.23242 397.39453 L 93.767578 397.39453 L 93.767578 378.79102 z M 82.607422 401.11719 L 365.39453 401.11719 L 365.39453 416 L 82.605469 416 L 82.607422 401.11719 z " />
  </g>
</svg>
