<?xml version="1.0" encoding="UTF-8" standalone="no"?>
<svg
   sodipodi:docname="arxiv.svg"
   inkscape:version="1.2.2 (1:1.2.2+202212051550+b0a8486541)"
   id="svg8"
   version="1.1"
   viewBox="0 0 448 512"
   height="512"
   width="448"
   xmlns:inkscape="http://www.inkscape.org/namespaces/inkscape"
   xmlns:sodipodi="http://sodipodi.sourceforge.net/DTD/sodipodi-0.dtd"
   xmlns="http://www.w3.org/2000/svg"
   xmlns:svg="http://www.w3.org/2000/svg"
   xmlns:rdf="http://www.w3.org/1999/02/22-rdf-syntax-ns#"
   xmlns:cc="http://creativecommons.org/ns#"
   xmlns:dc="http://purl.org/dc/elements/1.1/">
  <title
     id="title833">arXiv</title>
  <defs
     id="defs2" />
  <sodipodi:namedview
     inkscape:window-maximized="1"
     inkscape:window-y="0"
     inkscape:window-x="1992"
     inkscape:window-height="1403"
     inkscape:window-width="2488"
     inkscape:guide-bbox="true"
     showguides="true"
     units="px"
     showgrid="true"
     inkscape:document-rotation="0"
     inkscape:current-layer="layer6"
     inkscape:document-units="px"
     inkscape:cy="298.66667"
     inkscape:cx="244.33333"
     inkscape:zoom="1.5"
     inkscape:pageshadow="2"
     inkscape:pageopacity="0.0"
     borderopacity="1.0"
     bordercolor="#666666"
     pagecolor="#ffffff"
     id="base"
     inkscape:showpageshadow="2"
     inkscape:pagecheckerboard="0"
     inkscape:deskcolor="#d1d1d1">
    <inkscape:grid
       empspacing="4"
       id="grid10"
       type="xygrid" />
    <sodipodi:guide
       inkscape:color="rgb(0,0,255)"
       inkscape:locked="false"
       inkscape:label="baseline"
       id="guide861"
       orientation="0,1"
       position="447.99999,64" />
  </sodipodi:namedview>
  <metadata
     id="metadata5">
    <rdf:RDF>
      <cc:Work
         rdf:about="">
        <dc:format>image/svg+xml</dc:format>
        <dc:type
           rdf:resource="http://purl.org/dc/dcmitype/StillImage" />
        <dc:title>arXiv</dc:title>
        <cc:license
           rdf:resource="http://scripts.sil.org/OFL" />
        <dc:subject>
          <rdf:Bag>
            <rdf:li>arXiv</rdf:li>
          </rdf:Bag>
        </dc:subject>
      </cc:Work>
      <cc:License
         rdf:about="http://scripts.sil.org/OFL">
        <cc:permits
           rdf:resource="http://scripts.sil.org/pub/OFL/Reproduction" />
        <cc:permits
           rdf:resource="http://scripts.sil.org/pub/OFL/Distribution" />
        <cc:permits
           rdf:resource="http://scripts.sil.org/pub/OFL/Embedding" />
        <cc:permits
           rdf:resource="http://scripts.sil.org/pub/OFL/DerivativeWorks" />
        <cc:requires
           rdf:resource="http://scripts.sil.org/pub/OFL/Notice" />
        <cc:requires
           rdf:resource="http://scripts.sil.org/pub/OFL/Attribution" />
        <cc:requires
           rdf:resource="http://scripts.sil.org/pub/OFL/ShareAlike" />
        <cc:requires
           rdf:resource="http://scripts.sil.org/pub/OFL/DerivativeRenaming" />
        <cc:requires
           rdf:resource="http://scripts.sil.org/pub/OFL/BundlingWhenSelling" />
      </cc:License>
    </rdf:RDF>
  </metadata>
  <g
     inkscape:label="icon"
     id="layer6"
     inkscape:groupmode="layer">
    <g
       transform="matrix(1.5499998,0,0,-1.5499998,-123.19936,553.59966)"
       id="g4"
       style="stroke-width:0.645161">
      <path
         fill="currentColor"
         d="m 119.65,351.996 c -5.84961,0.13477 -11.1943,-3.29883 -13.502,-8.67578 -2.19629,-5.27051 -0.61914,-8.9668 4.19727,-15.8652 7.05469,-10.3799 78.8242,-96.5625 78.8242,-96.5625 l -15.8828,-14.8633 c -13.3809,-13.3779 -13.9561,-31.333 -1.50977,-43.7754 l 18.4922,-17.6133 -51.5977,-63.377 c -4.00586,-4.26758 -6.48535,-11.7559 -4.24805,-17.1309 2.27832,-5.53613 7.69727,-9.12891 13.6836,-9.07031 3.83398,0.0957 7.43262,1.87402 9.83789,4.86133 l 61.3691,57.0566 94.5762,-90.0703 c 3.19434,-3.08398 7.44336,-4.83984 11.8828,-4.91016 1.60449,0.0039 3.19824,0.245117 4.73242,0.714844 5.7793,1.80566 10.249,6.41797 11.8711,12.252 1.2998,5.47363 -0.27637,11.2334 -4.18164,15.2832 l -83.0859,100.011996 14.8789,13.834 c 11.0957,10.0029 11.1543,27.3906 0.12695,37.4688 l -16.2949,15.6309 56.2559,66.4434 0.0742,0.0859 0.0664,0.0899 c 5.02734,6.53125 7.43164,11.5615 4.83984,17.9395 -3.13379,5.96875 -8.69727,10.29 -15.2559,11.8516 -0.67676,0.0908 -1.35938,0.13574 -2.04297,0.13671 l -0.004,-0.0117 c -4.42871,-0.27051 -8.61035,-2.13086 -11.7754,-5.24023 l -0.13086,-0.10743 -0.12304,-0.11132 -65.207,-59.127 -89.8965,86.2402 c 0,0 -5.33398,6.47754 -10.9707,6.61133 z m 178.104,-33.041 c 0.47852,-0.002 0.95703,-0.0332 1.43164,-0.0957 4.84277,-1.33301 8.95605,-4.54004 11.4316,-8.91016 1.44922,-3.5625 1.00293,-6.45703 -4.19727,-13.2148 l -56.0586,-66.2188 -26.375,25.3027 64.9551,58.9062 c 2.33887,2.41504 5.46484,3.91113 8.8125,4.2168 v 0.0137 z M 192.436,227.402 334.446,57.244 c 2.78711,-3.48926 4.5293,-6.97949 3.3418,-10.9121 -1.16113,-4.30273 -4.43457,-7.71777 -8.68555,-9.05664 -1.08105,-0.333984 -2.20508,-0.503906 -3.33594,-0.505859 -3.20801,0.07617 -6.26953,1.35645 -8.57617,3.58789 l -142.033,135.284999 c -11.1719,11.1719 -9.48242,26.0195 1.39258,36.8945 z"
         id="path2"
         style="stroke-width:0.416233" />
    </g>
  </g>
</svg>
