<?xml version="1.0" encoding="UTF-8" standalone="no"?>
<svg
   xmlns:dc="http://purl.org/dc/elements/1.1/"
   xmlns:cc="http://creativecommons.org/ns#"
   xmlns:rdf="http://www.w3.org/1999/02/22-rdf-syntax-ns#"
   xmlns:svg="http://www.w3.org/2000/svg"
   xmlns="http://www.w3.org/2000/svg"
   xmlns:sodipodi="http://sodipodi.sourceforge.net/DTD/sodipodi-0.dtd"
   xmlns:inkscape="http://www.inkscape.org/namespaces/inkscape"
   sodipodi:docname="arxiv-square.svg"
   inkscape:version="1.0 (1.0+r73+1)"
   id="svg8"
   version="1.1"
   viewBox="0 0 448 512"
   height="512"
   width="448">
  <title
     id="title896">arXiv</title>
  <defs
     id="defs2" />
  <sodipodi:namedview
     inkscape:window-maximized="1"
     inkscape:window-y="27"
     inkscape:window-x="51"
     inkscape:window-height="713"
     inkscape:window-width="1315"
     inkscape:guide-bbox="true"
     showguides="true"
     units="px"
     showgrid="true"
     inkscape:document-rotation="0"
     inkscape:current-layer="layer6"
     inkscape:document-units="px"
     inkscape:cy="256"
     inkscape:cx="203.33333"
     inkscape:zoom="0.75"
     inkscape:pageshadow="2"
     inkscape:pageopacity="0.0"
     borderopacity="1.0"
     bordercolor="#666666"
     pagecolor="#ffffff"
     id="base">
    <inkscape:grid
       empspacing="4"
       id="grid10"
       type="xygrid" />
    <sodipodi:guide
       inkscape:color="rgb(0,0,255)"
       inkscape:locked="true"
       inkscape:label=""
       id="guide832"
       orientation="0,1"
       position="448,416" />
    <sodipodi:guide
       inkscape:color="rgb(0,0,255)"
       inkscape:locked="true"
       inkscape:label=""
       id="guide834"
       orientation="0,1"
       position="448,96" />
    <sodipodi:guide
       inkscape:color="rgb(0,0,255)"
       inkscape:locked="true"
       inkscape:label="baseline"
       id="guide836"
       orientation="0,1"
       position="448,64" />
    <sodipodi:guide
       id="guide837"
       orientation="1,0"
       position="64,512" />
    <sodipodi:guide
       id="guide839"
       orientation="1,0"
       position="384,512" />
  </sodipodi:namedview>
  <metadata
     id="metadata5">
    <rdf:RDF>
      <cc:Work
         rdf:about="">
        <dc:format>image/svg+xml</dc:format>
        <dc:type
           rdf:resource="http://purl.org/dc/dcmitype/StillImage" />
        <dc:title>arXiv</dc:title>
        <cc:license
           rdf:resource="http://scripts.sil.org/OFL" />
        <dc:subject>
          <rdf:Bag>
            <rdf:li>arXiv</rdf:li>
          </rdf:Bag>
        </dc:subject>
      </cc:Work>
      <cc:License
         rdf:about="http://scripts.sil.org/OFL">
        <cc:permits
           rdf:resource="http://scripts.sil.org/pub/OFL/Reproduction" />
        <cc:permits
           rdf:resource="http://scripts.sil.org/pub/OFL/Distribution" />
        <cc:permits
           rdf:resource="http://scripts.sil.org/pub/OFL/Embedding" />
        <cc:permits
           rdf:resource="http://scripts.sil.org/pub/OFL/DerivativeWorks" />
        <cc:requires
           rdf:resource="http://scripts.sil.org/pub/OFL/Notice" />
        <cc:requires
           rdf:resource="http://scripts.sil.org/pub/OFL/Attribution" />
        <cc:requires
           rdf:resource="http://scripts.sil.org/pub/OFL/ShareAlike" />
        <cc:requires
           rdf:resource="http://scripts.sil.org/pub/OFL/DerivativeRenaming" />
        <cc:requires
           rdf:resource="http://scripts.sil.org/pub/OFL/BundlingWhenSelling" />
      </cc:License>
    </rdf:RDF>
  </metadata>
  <g
     inkscape:label="icon"
     id="layer6"
     inkscape:groupmode="layer">
    <path
       id="path2"
       d="M 48 32 C 21.5 32 0 53.5 0 80 L 0 432 C 0 458.5 21.5 480 48 480 L 400 480 C 426.5 480 448 458.5 448 432 L 448 80 C 448 53.5 426.5 32 400 32 L 48 32 z M 107.12695 96.003906 C 107.90003 96.012162 108.67128 96.033145 109.43945 96.0625 C 117.89007 96.33594 126.60188 100.50252 128.75 105.54102 C 131.27655 111.47858 128.42449 115.30701 126.09375 119.53906 C 123.09907 124.98188 124.55782 130.42494 128.45117 134.95703 C 132.6566 139.89159 142.99347 150.50281 148.87891 156.78125 C 169.77736 140.93334 195.75409 131.41797 224.00977 131.41797 C 252.25086 131.41797 278.22834 140.93426 299.11328 156.76758 C 304.9987 150.50483 315.33756 139.89163 319.54297 134.95703 C 323.43634 130.42494 324.90847 124.98403 321.90039 119.55469 C 319.57104 115.30953 316.7173 111.48017 319.25586 105.54297 C 321.39196 100.51762 330.10207 96.338 338.55273 96.064453 C 344.69774 95.843147 351.05286 96.117425 356.59961 99.554688 C 363.93016 104.14 367.01565 110.89513 367.17188 119.48828 C 367.28929 125.21877 364.65948 126.25893 371.05273 127.37891 C 379.02209 128.75884 385.36154 132.31295 386.91211 137.84766 C 388.46117 143.40786 387.68116 147.78294 385.55859 152.74414 C 382.0943 159.17604 379.08662 160.46465 373.47461 162.19531 C 368.64391 163.6671 360.13996 162.99079 352.83594 160.13867 C 351.16911 159.48791 349.65843 158.43248 348.07031 157.58594 C 343.33038 155.03386 340.4799 155.53007 336.87305 159.38477 C 334.80225 161.62365 328.3191 167.48104 319.40039 175.93164 C 337.60419 197.59827 348.5918 225.50153 348.5918 255.99609 C 348.5918 286.50377 337.60277 314.39393 319.40039 336.06055 C 328.31869 344.52318 334.81589 350.39656 336.88672 352.62305 C 340.4935 356.47628 343.34549 356.9722 348.08398 354.43359 C 349.67316 353.575 351.1831 352.51906 352.84961 351.86719 C 360.16671 349.01653 368.65566 348.34012 373.48633 349.79883 C 379.11175 351.54259 382.10646 352.83176 385.57031 359.26367 C 387.69182 364.22528 388.48713 368.59832 386.92969 374.1582 C 385.3806 379.69143 379.03876 383.24753 371.08398 384.62891 C 364.67722 385.74747 367.30764 386.79014 367.19141 392.51953 C 367.03384 401.11268 363.94793 407.86926 356.63086 412.45312 C 351.08263 415.89055 344.71571 416.16478 338.57031 415.94336 C 330.11974 415.68304 321.41042 411.49127 319.25977 406.46484 C 316.73468 400.53967 319.57214 396.68514 321.91602 392.45312 C 324.91068 387.03582 323.45387 381.59294 319.56055 377.04883 C 315.35547 372.12766 305.00259 361.50245 299.11719 355.22656 C 278.23187 371.07296 252.26827 380.5918 224.01367 380.5918 C 195.75799 380.5918 169.78127 371.07296 148.88281 355.22656 C 142.99738 361.50245 132.6605 372.12735 128.45508 377.04883 C 124.56172 381.59294 123.10301 387.03582 126.09766 392.45312 C 128.42842 396.68513 131.28046 400.53967 128.75391 406.46484 C 126.60582 411.49017 117.89395 415.68351 109.44336 415.94336 C 103.29801 416.16462 96.931487 415.89045 91.384766 412.45312 C 84.06619 407.86925 80.966644 401.11268 80.810547 392.51953 C 80.706631 386.79014 83.338386 385.74747 76.931641 384.62891 C 68.962282 383.24753 62.632931 379.69143 61.070312 374.1582 C 59.521242 368.59948 60.303195 364.2249 62.425781 359.26367 C 65.888575 352.83178 68.895853 351.54104 74.507812 349.79688 C 79.338519 348.33819 87.841091 349.01654 95.158203 351.86719 C 96.825055 352.5176 98.335739 353.57156 99.923828 354.43164 C 104.66263 356.97021 107.50118 356.4763 111.12109 352.62305 C 113.20392 350.39659 119.68902 344.52335 128.5957 336.07422 C 110.40537 314.41998 99.402344 286.50378 99.402344 255.99609 C 99.402344 225.50151 110.3905 197.59825 128.5918 175.93164 C 119.68658 167.48105 113.20164 161.6226 111.11914 159.36914 C 107.50033 155.51586 104.66176 155.03191 99.921875 157.58398 C 98.333751 158.4174 96.822746 159.47284 95.15625 160.13672 C 87.838757 162.97535 79.33654 163.66516 74.505859 162.19336 C 68.893874 160.46271 65.886595 159.16044 62.423828 152.72852 C 60.30085 147.78045 59.518894 143.39383 61.068359 137.83398 C 62.630946 132.31279 68.95983 128.74487 76.927734 127.37695 C 83.334148 126.25698 80.702703 125.21516 80.806641 119.47266 C 80.963768 110.89299 84.063747 104.12346 91.380859 99.552734 C 96.234244 96.533353 101.71538 95.946113 107.12695 96.003906 z M 224.00977 139.12305 C 159.55712 139.12305 107.12305 191.55659 107.12305 255.99609 C 107.12305 320.44872 159.55712 372.88477 224.00977 372.88477 C 288.43617 372.88477 340.88281 320.44872 340.88281 255.99609 C 340.88281 191.55659 288.43581 139.12305 224.00977 139.12305 z M 189.40039 193.14648 C 195.43347 193.14648 200.32422 203.65367 200.32422 216.61523 C 200.32422 229.57675 195.43347 240.08398 189.40039 240.08398 C 183.36732 240.08398 178.47656 229.57675 178.47656 216.61523 C 178.47656 203.65367 183.36732 193.14648 189.40039 193.14648 z M 258.61914 193.14648 C 264.64458 193.14648 269.5293 203.65367 269.5293 216.61523 C 269.5293 229.57675 264.64458 240.08398 258.61914 240.08398 C 252.59373 240.08398 247.70898 229.57675 247.70898 216.61523 C 247.70898 203.65367 252.59373 193.14648 258.61914 193.14648 z M 160.15625 267.83203 L 171.73047 267.83203 C 171.73047 273.91323 169.45209 279.48612 165.80664 283.93945 C 169.74012 293.80864 193.30573 306.15234 223.99609 306.15234 C 254.69847 306.15234 278.2521 293.80864 282.18555 283.93945 C 278.52554 279.48612 276.27539 273.91323 276.27539 267.83203 L 287.83789 267.83203 C 287.83789 275.98258 295.04976 282.61133 303.9043 282.61133 L 303.9043 294.1875 C 299.42434 294.1875 295.23324 293.05302 291.48242 291.23047 C 282.9932 305.48739 256.80793 317.72852 223.99609 317.72852 C 191.1963 317.72852 165.00045 305.48776 156.50977 291.23047 C 152.76041 293.05302 148.56638 294.1875 144.08789 294.1875 L 144.08789 282.61133 C 152.94244 282.61133 160.15625 275.98258 160.15625 267.83203 z " />
  </g>
</svg>
