<?xml version="1.0" encoding="UTF-8" standalone="no"?>
<svg
   sodipodi:docname="arxiv-square.svg"
   inkscape:version="1.2.2 (1:1.2.2+202212051550+b0a8486541)"
   id="svg8"
   version="1.1"
   viewBox="0 0 448 512"
   height="512"
   width="448"
   xmlns:inkscape="http://www.inkscape.org/namespaces/inkscape"
   xmlns:sodipodi="http://sodipodi.sourceforge.net/DTD/sodipodi-0.dtd"
   xmlns="http://www.w3.org/2000/svg"
   xmlns:svg="http://www.w3.org/2000/svg"
   xmlns:rdf="http://www.w3.org/1999/02/22-rdf-syntax-ns#"
   xmlns:cc="http://creativecommons.org/ns#"
   xmlns:dc="http://purl.org/dc/elements/1.1/">
  <title
     id="title619">arXiv</title>
  <defs
     id="defs2" />
  <sodipodi:namedview
     inkscape:window-maximized="1"
     inkscape:window-y="0"
     inkscape:window-x="1992"
     inkscape:window-height="1403"
     inkscape:window-width="2488"
     inkscape:guide-bbox="true"
     showguides="true"
     units="px"
     showgrid="true"
     inkscape:document-rotation="0"
     inkscape:current-layer="layer6"
     inkscape:document-units="px"
     inkscape:cy="235.70226"
     inkscape:cx="353.08199"
     inkscape:zoom="1.0606602"
     inkscape:pageshadow="2"
     inkscape:pageopacity="0.0"
     borderopacity="1.0"
     bordercolor="#666666"
     pagecolor="#ffffff"
     id="base"
     inkscape:showpageshadow="2"
     inkscape:pagecheckerboard="0"
     inkscape:deskcolor="#d1d1d1">
    <inkscape:grid
       empspacing="4"
       id="grid10"
       type="xygrid" />
    <sodipodi:guide
       inkscape:color="rgb(0,0,255)"
       inkscape:locked="false"
       inkscape:label=""
       id="guide832"
       orientation="0,1"
       position="448,416" />
    <sodipodi:guide
       inkscape:color="rgb(0,0,255)"
       inkscape:locked="false"
       inkscape:label=""
       id="guide834"
       orientation="0,1"
       position="448,96" />
    <sodipodi:guide
       inkscape:color="rgb(0,0,255)"
       inkscape:locked="false"
       inkscape:label="baseline"
       id="guide836"
       orientation="0,1"
       position="448,64" />
    <sodipodi:guide
       position="64,512"
       orientation="1,0"
       id="guide835"
       inkscape:locked="false" />
    <sodipodi:guide
       position="384,512"
       orientation="1,0"
       id="guide837"
       inkscape:locked="false" />
  </sodipodi:namedview>
  <metadata
     id="metadata5">
    <rdf:RDF>
      <cc:Work
         rdf:about="">
        <dc:format>image/svg+xml</dc:format>
        <dc:type
           rdf:resource="http://purl.org/dc/dcmitype/StillImage" />
        <cc:license
           rdf:resource="http://scripts.sil.org/OFL" />
        <dc:subject>
          <rdf:Bag>
            <rdf:li>arXiv</rdf:li>
          </rdf:Bag>
        </dc:subject>
        <dc:title>arXiv</dc:title>
      </cc:Work>
      <cc:License
         rdf:about="http://scripts.sil.org/OFL">
        <cc:permits
           rdf:resource="http://scripts.sil.org/pub/OFL/Reproduction" />
        <cc:permits
           rdf:resource="http://scripts.sil.org/pub/OFL/Distribution" />
        <cc:permits
           rdf:resource="http://scripts.sil.org/pub/OFL/Embedding" />
        <cc:permits
           rdf:resource="http://scripts.sil.org/pub/OFL/DerivativeWorks" />
        <cc:requires
           rdf:resource="http://scripts.sil.org/pub/OFL/Notice" />
        <cc:requires
           rdf:resource="http://scripts.sil.org/pub/OFL/Attribution" />
        <cc:requires
           rdf:resource="http://scripts.sil.org/pub/OFL/ShareAlike" />
        <cc:requires
           rdf:resource="http://scripts.sil.org/pub/OFL/DerivativeRenaming" />
        <cc:requires
           rdf:resource="http://scripts.sil.org/pub/OFL/BundlingWhenSelling" />
      </cc:License>
    </rdf:RDF>
  </metadata>
  <g
     inkscape:label="icon"
     id="layer6"
     inkscape:groupmode="layer">
    <path
       id="path2"
       d="M 48 32 C 21.500027 32 0 53.500027 0 80 L 0 432 C 0 458.49997 21.500027 480 48 480 L 400 480 C 426.49997 480 448 458.49997 448 432 L 448 80 C 448 53.500027 426.49997 32 400 32 L 48 32 z M 119.65039 96.003906 C 125.28756 96.137972 130.62109 102.61523 130.62109 102.61523 L 220.51758 188.85547 L 285.72461 129.72852 L 285.84766 129.61719 L 285.97852 129.50977 C 289.14377 126.40068 293.32537 124.54049 297.75391 124.26953 L 297.75781 124.25781 C 298.44106 124.25881 299.12356 124.30403 299.80078 124.39453 C 306.35934 125.95563 311.92292 130.27688 315.05664 136.24609 C 317.64859 142.62383 315.2443 147.65458 310.2168 154.18555 L 310.15039 154.27539 L 310.07617 154.36133 L 253.82031 220.80469 L 270.11523 236.43555 C 281.14298 246.51325 281.08425 263.90174 269.98828 273.9043 L 255.10938 287.73828 L 338.19531 387.75 C 342.1008 391.80004 343.677 397.55913 342.37695 403.0332 C 340.75484 408.86672 336.2853 413.47986 330.50586 415.28516 C 328.97205 415.75521 327.37765 415.996 325.77344 416 C 321.33377 415.92934 317.08527 414.17362 313.89062 411.08984 L 219.31445 321.01953 L 157.94531 378.07617 C 155.54021 381.06395 151.94176 382.8419 148.10742 382.9375 C 142.12088 382.9965 136.70232 379.40351 134.42383 373.86719 C 132.18619 368.49175 134.66583 361.00412 138.67188 356.73633 L 190.26953 293.35938 L 171.77734 275.74609 C 159.33149 263.30343 159.90594 245.34868 173.28711 231.9707 L 189.16992 217.10742 C 189.16992 217.10742 117.40064 130.92467 110.3457 120.54492 C 105.52888 113.64687 103.95229 109.94978 106.14844 104.67969 C 108.4562 99.302919 113.80085 95.868679 119.65039 96.003906 z M 297.75391 129.04492 L 297.75391 129.05859 C 294.40621 129.36416 291.27986 130.8604 288.94141 133.27539 L 223.98633 192.18164 L 250.36133 217.48438 L 306.41992 151.26562 C 311.61979 144.50803 312.06639 141.61313 310.61719 138.05078 C 308.14154 133.68067 304.02792 130.47409 299.18555 129.14062 C 298.71138 129.07843 298.23215 129.04692 297.75391 129.04492 z M 192.43555 220.59766 L 176.54883 235.46289 C 165.67347 246.33825 163.98401 261.18519 175.15625 272.35742 L 317.18945 407.64258 C 319.49582 409.87355 322.55769 411.15477 325.76562 411.23047 C 326.89686 411.22878 328.02077 411.05873 329.10156 410.72461 C 333.35216 409.38528 336.62637 405.97076 337.78711 401.66797 C 338.97453 397.73533 337.23199 394.24478 334.44531 390.75586 L 192.43555 220.59766 z " />
  </g>
</svg>
