<?xml version="1.0" encoding="UTF-8" standalone="no"?>
<svg
   xmlns:dc="http://purl.org/dc/elements/1.1/"
   xmlns:cc="http://creativecommons.org/ns#"
   xmlns:rdf="http://www.w3.org/1999/02/22-rdf-syntax-ns#"
   xmlns:svg="http://www.w3.org/2000/svg"
   xmlns="http://www.w3.org/2000/svg"
   xmlns:sodipodi="http://sodipodi.sourceforge.net/DTD/sodipodi-0.dtd"
   xmlns:inkscape="http://www.inkscape.org/namespaces/inkscape"
   sodipodi:docname="biorxiv-square.svg"
   inkscape:version="1.0 (1.0+r73+1)"
   id="svg8"
   version="1.1"
   viewBox="0 0 448 512"
   height="512"
   width="448">
  <title
     id="title923">bioRxiv</title>
  <defs
     id="defs2" />
  <sodipodi:namedview
     inkscape:window-maximized="1"
     inkscape:window-y="27"
     inkscape:window-x="51"
     inkscape:window-height="713"
     inkscape:window-width="1315"
     inkscape:guide-bbox="true"
     showguides="true"
     units="px"
     showgrid="true"
     inkscape:document-rotation="0"
     inkscape:current-layer="layer6"
     inkscape:document-units="px"
     inkscape:cy="256"
     inkscape:cx="203.33333"
     inkscape:zoom="0.75"
     inkscape:pageshadow="2"
     inkscape:pageopacity="0.0"
     borderopacity="1.0"
     bordercolor="#666666"
     pagecolor="#ffffff"
     id="base">
    <inkscape:grid
       empspacing="4"
       id="grid10"
       type="xygrid" />
    <sodipodi:guide
       inkscape:color="rgb(0,0,255)"
       inkscape:locked="true"
       inkscape:label=""
       id="guide832"
       orientation="0,1"
       position="448,416" />
    <sodipodi:guide
       inkscape:color="rgb(0,0,255)"
       inkscape:locked="true"
       inkscape:label=""
       id="guide834"
       orientation="0,1"
       position="448,96" />
    <sodipodi:guide
       inkscape:color="rgb(0,0,255)"
       inkscape:locked="true"
       inkscape:label="baseline"
       id="guide836"
       orientation="0,1"
       position="448,64" />
    <sodipodi:guide
       id="guide837"
       orientation="1,0"
       position="64,512" />
    <sodipodi:guide
       id="guide841"
       orientation="1,0"
       position="384,512" />
  </sodipodi:namedview>
  <metadata
     id="metadata5">
    <rdf:RDF>
      <cc:Work
         rdf:about="">
        <dc:format>image/svg+xml</dc:format>
        <dc:type
           rdf:resource="http://purl.org/dc/dcmitype/StillImage" />
        <dc:title>bioRxiv</dc:title>
        <cc:license
           rdf:resource="http://scripts.sil.org/OFL" />
        <dc:subject>
          <rdf:Bag>
            <rdf:li>bioRxiv</rdf:li>
            <rdf:li>arXiv</rdf:li>
          </rdf:Bag>
        </dc:subject>
      </cc:Work>
      <cc:License
         rdf:about="http://scripts.sil.org/OFL">
        <cc:permits
           rdf:resource="http://scripts.sil.org/pub/OFL/Reproduction" />
        <cc:permits
           rdf:resource="http://scripts.sil.org/pub/OFL/Distribution" />
        <cc:permits
           rdf:resource="http://scripts.sil.org/pub/OFL/Embedding" />
        <cc:permits
           rdf:resource="http://scripts.sil.org/pub/OFL/DerivativeWorks" />
        <cc:requires
           rdf:resource="http://scripts.sil.org/pub/OFL/Notice" />
        <cc:requires
           rdf:resource="http://scripts.sil.org/pub/OFL/Attribution" />
        <cc:requires
           rdf:resource="http://scripts.sil.org/pub/OFL/ShareAlike" />
        <cc:requires
           rdf:resource="http://scripts.sil.org/pub/OFL/DerivativeRenaming" />
        <cc:requires
           rdf:resource="http://scripts.sil.org/pub/OFL/BundlingWhenSelling" />
      </cc:License>
    </rdf:RDF>
  </metadata>
  <g
     inkscape:label="icon"
     id="layer6"
     inkscape:groupmode="layer">
    <path
       id="path2"
       d="M 48 32 C 21.5 32 0 53.5 0 80 L 0 432 C 0 458.5 21.5 480 48 480 L 400 480 C 426.5 480 448 458.5 448 432 L 448 80 C 448 53.5 426.5 32 400 32 L 48 32 z M 25.220703 96 L 109.04492 96 C 136.30742 96 157.65952 101.52477 173.09766 112.5625 C 188.52893 123.60666 196.25 138.92856 196.25 158.5332 C 196.25 173.85941 191.06435 186.70325 180.70312 197.06445 C 174.84098 202.92662 169.093 207.2053 163.46289 209.9082 C 157.82775 212.61297 148.92856 215.43204 136.75977 218.35742 L 159.40625 248.43945 C 164.13919 254.7511 170.55949 262.52527 178.67188 271.76367 C 187.68141 281.90426 197.37262 292.2693 207.74023 302.85938 C 216.97681 312.55046 224.24541 319.59221 229.54297 323.98438 C 234.8355 328.37973 242.89382 333.6188 253.71094 339.70117 L 198.95508 339.70117 C 189.93868 339.70117 180.24736 334.51994 169.88477 324.15234 C 157.71598 311.76154 145.32291 296.55396 132.70508 278.52344 C 124.14 267.03164 116.59226 256.44108 110.05859 246.75 C 104.87295 239.09215 97.43608 227.48181 87.75 211.93359 C 130.11306 206.07646 151.29297 189.62643 151.29297 162.58594 C 151.29297 137.35164 133.37973 124.72852 97.550781 124.72852 L 84.033203 124.72852 L 84.033203 309.91211 C 84.033203 316.46084 85.216231 321.76472 87.582031 325.82617 C 89.947791 329.89218 94.512741 334.51945 101.27344 339.70508 L 23.529297 339.70508 L 23.529297 339.70312 C 29.835927 334.97017 34.230161 330.46704 36.712891 326.18359 C 39.190581 321.90517 40.431641 316.71894 40.431641 310.63477 L 40.431641 127.0957 C 40.431641 121.91511 39.367944 116.84671 37.246094 111.88672 C 35.829524 109.63789 34.412747 107.49306 32.998047 105.46484 C 31.583307 103.43665 28.991603 100.28345 25.220703 96 z M 268.42188 174.6875 C 286.22757 174.80783 302.13421 182.43934 311.83594 203.27734 C 320.57642 222.04967 328.31614 241.28683 336.52539 260.30859 C 337.73314 263.0969 339.04229 265.83854 340.93164 269.98633 C 347.0877 261.91099 353.24709 255.01211 358.06836 247.2793 C 370.95525 226.61076 391.13247 193.74798 395.81836 184.70508 C 398.20881 179.86525 401.69473 176.43265 403.89648 176.2207 C 406.10011 176.0086 408.91407 175.933 411.29492 177.41992 C 413.67533 178.90866 415.50523 182.50065 413.83789 189.53906 C 412.17055 196.5775 411.21346 199.13979 408.9043 204.5625 C 395.38748 234.14192 375.55674 259.61704 354.71094 284.25977 C 350.77834 288.90911 350.60497 292.31367 352.80859 297.57422 C 362.21552 320.04027 371.03429 342.75126 380.375 365.24609 C 383.4808 372.72347 387.31842 379.92117 391.15234 387.06836 C 395.0283 394.29547 397.79683 398.11599 409.56641 397.95703 C 414.41627 397.94123 423.63581 396.64631 424.41602 403.66602 C 425.26982 411.33897 415.95334 412.48279 410.40039 413.61523 C 404.13217 414.89334 400.9761 415.3814 394.56445 415.39648 C 379.78319 415.42798 362.31583 409.77147 355.08008 396.64062 C 347.67255 383.19918 343.67526 373.39699 336.87891 355.03711 C 332.41826 342.98388 327.40807 331.12086 322.16211 317.71094 C 319.20845 320.8816 316.42755 323.09073 314.625 325.92383 C 292.25261 356.2551 279.26261 380.79239 269.24219 398.01758 C 261.34176 411.59787 260.68067 417.5964 251.29883 415.63672 C 242.74381 412.14034 245.21338 400.66043 245.88672 397.75195 C 249.85586 380.61177 262.41666 363.774 272.20508 348.97266 C 283.14597 332.4286 296.59561 317.55935 308.58398 301.68359 C 310.35817 299.33288 311.57741 294.85714 310.56836 292.37305 C 299.81976 265.92593 288.64398 239.64785 277.42578 213.39258 C 271.32471 200.37553 267.17407 192.07633 243.17773 192.97852 C 239.20857 192.61763 236.80233 191.5729 236.86719 186.99023 C 236.86719 181.43231 240.61918 179.45797 243.36914 178.64258 C 251.84213 176.1283 260.32838 174.6328 268.42188 174.6875 z " />
  </g>
</svg>
