<?xml version="1.0" encoding="UTF-8" standalone="no"?>
<svg
   sodipodi:docname="clarivate-square.svg"
   inkscape:version="1.2 (1:1.2.1+202207142221+cd75a1ee6d)"
   id="svg8"
   version="1.1"
   viewBox="0 0 448 512"
   height="512"
   width="448"
   xmlns:inkscape="http://www.inkscape.org/namespaces/inkscape"
   xmlns:sodipodi="http://sodipodi.sourceforge.net/DTD/sodipodi-0.dtd"
   xmlns="http://www.w3.org/2000/svg"
   xmlns:svg="http://www.w3.org/2000/svg"
   xmlns:rdf="http://www.w3.org/1999/02/22-rdf-syntax-ns#"
   xmlns:cc="http://creativecommons.org/ns#"
   xmlns:dc="http://purl.org/dc/elements/1.1/">
  <title
     id="title1560">clarivate</title>
  <defs
     id="defs2" />
  <sodipodi:namedview
     inkscape:window-maximized="1"
     inkscape:window-y="27"
     inkscape:window-x="72"
     inkscape:window-height="1016"
     inkscape:window-width="1848"
     inkscape:guide-bbox="true"
     showguides="true"
     units="px"
     showgrid="true"
     inkscape:document-rotation="0"
     inkscape:current-layer="layer6"
     inkscape:document-units="px"
     inkscape:cy="256.66667"
     inkscape:cx="224"
     inkscape:zoom="0.75"
     inkscape:pageshadow="2"
     inkscape:pageopacity="0.0"
     borderopacity="1.0"
     bordercolor="#666666"
     pagecolor="#ffffff"
     id="base"
     inkscape:showpageshadow="2"
     inkscape:pagecheckerboard="0"
     inkscape:deskcolor="#d1d1d1">
    <inkscape:grid
       empspacing="4"
       id="grid10"
       type="xygrid" />
    <sodipodi:guide
       inkscape:color="rgb(0,0,255)"
       inkscape:locked="false"
       inkscape:label="baseline"
       id="guide836"
       orientation="0,1"
       position="448,64" />
  </sodipodi:namedview>
  <metadata
     id="metadata5">
    <rdf:RDF>
      <cc:Work
         rdf:about="">
        <dc:format>image/svg+xml</dc:format>
        <dc:type
           rdf:resource="http://purl.org/dc/dcmitype/StillImage" />
        <cc:license
           rdf:resource="http://scripts.sil.org/OFL" />
        <dc:subject>
          <rdf:Bag>
            <rdf:li>clarivate</rdf:li>
          </rdf:Bag>
        </dc:subject>
        <dc:title>clarivate</dc:title>
      </cc:Work>
      <cc:License
         rdf:about="http://scripts.sil.org/OFL">
        <cc:permits
           rdf:resource="http://scripts.sil.org/pub/OFL/Reproduction" />
        <cc:permits
           rdf:resource="http://scripts.sil.org/pub/OFL/Distribution" />
        <cc:permits
           rdf:resource="http://scripts.sil.org/pub/OFL/Embedding" />
        <cc:permits
           rdf:resource="http://scripts.sil.org/pub/OFL/DerivativeWorks" />
        <cc:requires
           rdf:resource="http://scripts.sil.org/pub/OFL/Notice" />
        <cc:requires
           rdf:resource="http://scripts.sil.org/pub/OFL/Attribution" />
        <cc:requires
           rdf:resource="http://scripts.sil.org/pub/OFL/ShareAlike" />
        <cc:requires
           rdf:resource="http://scripts.sil.org/pub/OFL/DerivativeRenaming" />
        <cc:requires
           rdf:resource="http://scripts.sil.org/pub/OFL/BundlingWhenSelling" />
      </cc:License>
    </rdf:RDF>
  </metadata>
  <g
     inkscape:label="icon"
     id="layer6"
     inkscape:groupmode="layer">
    <path
       id="path2"
       d="M 48 32 C 21.500027 32 0 53.500027 0 80 L 0 432 C 0 458.49997 21.500027 480 48 480 L 400 480 C 426.49997 480 448 458.49997 448 432 L 448 80 C 448 53.500027 426.49997 32 400 32 L 48 32 z M 210.68164 96 C 272.0996 112.54526 327.92893 147.916 371.68164 198 C 361.76975 223.37362 348.58364 247.0456 332.51367 268.29102 C 348.58726 286.5071 361.76762 306.82849 371.68164 328.58398 C 327.96477 371.48079 272.16466 401.79564 210.80664 416 C 195.66041 397.10274 183.52632 376.22232 174.76367 354.04102 C 236.57182 344.1477 292.55915 313.71625 332.51367 268.29102 C 292.55851 215.29821 236.57502 179.82081 174.76367 168.29102 C 183.47747 142.41541 195.58832 118.06504 210.68164 96 z M 122.4707 169.875 L 122.47266 169.875 C 139.9474 169.67309 157.44627 170.91215 174.7207 173.625 C 171.56466 181.57209 168.7733 189.71307 166.38867 198 C 150.56895 252.45904 153.48327 310.13728 174.76367 362.95898 C 147.09522 367.30694 118.91173 367.92594 91.054688 364.79102 C 71.391159 301.76089 71.408294 234.81453 91.097656 171.79102 C 101.53263 170.61776 111.98625 170.00305 122.4707 169.875 z " />
  </g>
</svg>
