<?xml version="1.0" encoding="UTF-8" standalone="no"?>
<svg
   xmlns:dc="http://purl.org/dc/elements/1.1/"
   xmlns:cc="http://creativecommons.org/ns#"
   xmlns:rdf="http://www.w3.org/1999/02/22-rdf-syntax-ns#"
   xmlns:svg="http://www.w3.org/2000/svg"
   xmlns="http://www.w3.org/2000/svg"
   xmlns:sodipodi="http://sodipodi.sourceforge.net/DTD/sodipodi-0.dtd"
   xmlns:inkscape="http://www.inkscape.org/namespaces/inkscape"
   width="512"
   height="512"
   viewBox="0 0 512 512"
   version="1.1"
   id="svg8"
   inkscape:version="1.0 (1.0+r73+1)"
   sodipodi:docname="coursera.svg">
  <title
     id="title833">Coursera</title>
  <defs
     id="defs2" />
  <sodipodi:namedview
     id="base"
     pagecolor="#ffffff"
     bordercolor="#666666"
     borderopacity="1.0"
     inkscape:pageopacity="0.0"
     inkscape:pageshadow="2"
     inkscape:zoom="0.75"
     inkscape:cx="256"
     inkscape:cy="256"
     inkscape:document-units="px"
     inkscape:current-layer="layer6"
     inkscape:document-rotation="0"
     showgrid="true"
     units="px"
     showguides="true"
     inkscape:guide-bbox="true"
     inkscape:window-width="1315"
     inkscape:window-height="713"
     inkscape:window-x="51"
     inkscape:window-y="27"
     inkscape:window-maximized="1">
    <inkscape:grid
       type="xygrid"
       id="grid10"
       empspacing="4" />
    <sodipodi:guide
       position="511.99998,64"
       orientation="0,1"
       id="guide23"
       inkscape:label="baseline"
       inkscape:locked="true"
       inkscape:color="rgb(0,0,255)" />
  </sodipodi:namedview>
  <metadata
     id="metadata5">
    <rdf:RDF>
      <cc:Work
         rdf:about="">
        <dc:format>image/svg+xml</dc:format>
        <dc:type
           rdf:resource="http://purl.org/dc/dcmitype/StillImage" />
        <dc:title>Coursera</dc:title>
        <cc:license
           rdf:resource="http://scripts.sil.org/OFL" />
        <dc:subject>
          <rdf:Bag>
            <rdf:li>Coursera</rdf:li>
          </rdf:Bag>
        </dc:subject>
      </cc:Work>
      <cc:License
         rdf:about="http://scripts.sil.org/OFL">
        <cc:permits
           rdf:resource="http://scripts.sil.org/pub/OFL/Reproduction" />
        <cc:permits
           rdf:resource="http://scripts.sil.org/pub/OFL/Distribution" />
        <cc:permits
           rdf:resource="http://scripts.sil.org/pub/OFL/Embedding" />
        <cc:permits
           rdf:resource="http://scripts.sil.org/pub/OFL/DerivativeWorks" />
        <cc:requires
           rdf:resource="http://scripts.sil.org/pub/OFL/Notice" />
        <cc:requires
           rdf:resource="http://scripts.sil.org/pub/OFL/Attribution" />
        <cc:requires
           rdf:resource="http://scripts.sil.org/pub/OFL/ShareAlike" />
        <cc:requires
           rdf:resource="http://scripts.sil.org/pub/OFL/DerivativeRenaming" />
        <cc:requires
           rdf:resource="http://scripts.sil.org/pub/OFL/BundlingWhenSelling" />
      </cc:License>
    </rdf:RDF>
  </metadata>
  <g
     inkscape:groupmode="layer"
     id="layer6"
     inkscape:label="icon">
    <path
       style="stroke-width:0.0771693"
       d="m 503.86034,251.97357 c -0.085,-1.94677 -0.21921,-3.8421 -0.37001,-5.77022 v -0.0333 -0.0333 c -1.84558,-20.9166 -8.75618,-40.49163 -20.48028,-58.17185 -5.23283,-7.88428 -11.22172,-15.04744 -17.9159,-21.47037 -9.77957,-9.40944 -21.10247,-17.19424 -33.86635,-23.34876 -19.20714,-9.17606 -40.42548,-13.80534 -63.07009,-13.80534 -2.21348,0 -4.52815,0.0329 -6.86143,0.11754 -15.903,0.72109 -31.28272,3.7404 -45.74304,9.05799 -14.57616,5.26387 -27.27563,12.22419 -37.65819,20.57749 -2.11402,1.67833 -4.41228,3.7404 -6.87781,6.00587 l -1.77724,1.74444 -2.43218,2.5831 h 0.0333 l -1.14094,1.12398 -0.55379,0.60351 -2.90178,3.05267 c -2.14737,2.4158 -4.19303,4.83157 -6.10476,7.19597 l -0.0166,-0.0329 -0.0661,-0.0663 c -3.97603,4.8316 -7.64861,9.82878 -10.34977,14.32585 a 246.4737,246.4737 0 0 0 -5.33397,8.8223 l -23.7025,47.92318 0.0333,0.0333 -1.24209,2.43219 -2.6164,5.30119 c -5.19947,10.51705 -10.76907,21.00133 -16.99195,29.65638 -13.87146,15.21471 -29.55522,22.6627 -49.71964,22.6627 -1.40935,0 -2.85206,-0.0661 -4.3275,-0.15088 -12.14342,-0.48542 -22.56159,-3.35442 -31.80377,-8.82231 a 58.448149,58.448149 0 0 1 -2.86843,-1.81228 c -7.547464,-5.01581 -13.336351,-11.45737 -17.663853,-19.49081 -4.881328,-9.1077 -7.045081,-18.4177 -6.743343,-28.28206 0.01474,-0.26842 0.03288,-0.50407 0.03288,-0.72107 0.654954,-15.70012 6.642176,-27.91191 18.703076,-38.4623 2.93455,-2.5339 6.00586,-4.68071 9.20883,-6.59244 a 26.267196,26.267196 0 0 1 1.35794,-0.75439 c 8.95682,-4.88132 19.1557,-7.31408 30.84705,-7.31408 l 3.63923,0.10106 c 18.56859,0.70468 32.89495,6.50766 44.31729,17.8311 l 35.82969,-64.32872 c -8.57255,-5.73686 -18.2504,-10.66791 -28.91834,-14.67727 -0.4029,-0.15084 -0.82279,-0.31816 -1.2421,-0.45266 -1.27483,-0.45266 -2.53388,-0.92169 -3.84211,-1.341 -11.33981,-3.79011 -23.23345,-6.12339 -35.478,-7.17956 -0.29549,-0.0538 -0.6301,-0.0872 -0.93187,-0.12193 -1.87838,-0.11569 -3.79235,-0.35149 -5.67073,-0.43626 -2.04626,-0.085 -4.11053,-0.11754 -6.12343,-0.13436 h -1.15734 c -22.52663,0.085 -43.461845,4.6977 -62.601176,13.84041 -21.437568,10.3334 -38.815458,25.3786 -51.696913,44.76995 -12.848063,19.39135 -19.8603744,40.91143 -20.8668248,64.0104 -0.084578,1.9801 -0.1343736,3.941 -0.1343736,5.87138 -0.014627,32.30781 11.7591204,60.7221 35.1762694,84.57548 24.439926,25.02709 56.227295,38.5143 94.387838,40.10734 2.44916,0.10091 4.86493,0.16743 7.28073,0.16743 21.58849,0 41.5664,-3.84212 59.48003,-11.5235 4.47843,-1.91173 8.8223,-4.16026 13.26793,-6.65856 2.4158,-1.39297 4.69767,-2.86844 6.96032,-4.44563 l 1.67835,-1.12398 2.81871,-1.92812 c 3.38946,-2.43218 6.55967,-5.06554 9.64511,-7.86787 l 1.07255,-1.02283 c 1.81227,-1.7275 3.62284,-3.47196 5.33397,-5.26785 l 6.42516,-7.26208 2.44914,-3.06904 1.14094,-1.67835 1.14094,-1.64274 c 9.54394,-16.03531 40.60969,-74.39305 40.60969,-74.39305 v -0.11754 l 1.84561,-3.55673 1.54385,-2.78368 c 4.57956,-8.3369 7.88426,-14.258 12.2615,-20.4803 l 0.11754,-0.18365 c 10.21528,-14.8118 27.77801,-25.36161 48.47758,-27.1411 34.72189,-2.98655 65.15076,19.8276 67.95135,50.95944 2.7837,31.13185 -23.11533,58.79399 -57.83724,61.79693 -7.22932,0.61992 -14.25799,0.13448 -20.88322,-1.32459 l -0.16732,0.0661 c -25.47976,-5.30133 -41.70091,-23.88628 -49.7027,-32.1904 l -33.41373,61.44373 c 0,0 10.38255,10.46732 17.49602,15.70013 7.12986,5.21643 16.3387,10.34978 23.68613,13.53637 17.83111,7.61582 37.22245,12.17904 58.6431,12.17904 2.48193,0 1.9801,0 4.56316,-0.10092 38.12776,-1.5936 72.11169,-16.20478 96.62003,-41.23186 C 491.28416,317.57987 503.88246,290.43875 504,258.31685 v -0.95679 a 207.65962,207.65962 0 0 0 -0.13833,-5.38596 z"
       id="path2" />
  </g>
</svg>
