<?xml version="1.0" encoding="UTF-8" standalone="no"?>
<svg
   xmlns:dc="http://purl.org/dc/elements/1.1/"
   xmlns:cc="http://creativecommons.org/ns#"
   xmlns:rdf="http://www.w3.org/1999/02/22-rdf-syntax-ns#"
   xmlns:svg="http://www.w3.org/2000/svg"
   xmlns="http://www.w3.org/2000/svg"
   xmlns:sodipodi="http://sodipodi.sourceforge.net/DTD/sodipodi-0.dtd"
   xmlns:inkscape="http://www.inkscape.org/namespaces/inkscape"
   sodipodi:docname="template-square.svg"
   inkscape:version="1.0 (1.0+r73+1)"
   id="svg8"
   version="1.1"
   viewBox="0 0 448 512"
   height="512"
   width="448">
  <title
     id="title1006">DataCite</title>
  <defs
     id="defs2" />
  <sodipodi:namedview
     inkscape:window-maximized="1"
     inkscape:window-y="27"
     inkscape:window-x="51"
     inkscape:window-height="713"
     inkscape:window-width="1315"
     inkscape:guide-bbox="true"
     showguides="true"
     units="px"
     showgrid="true"
     inkscape:document-rotation="0"
     inkscape:current-layer="layer6"
     inkscape:document-units="px"
     inkscape:cy="256"
     inkscape:cx="203.33333"
     inkscape:zoom="0.75"
     inkscape:pageshadow="2"
     inkscape:pageopacity="0.0"
     borderopacity="1.0"
     bordercolor="#666666"
     pagecolor="#ffffff"
     id="base">
    <inkscape:grid
       empspacing="4"
       id="grid10"
       type="xygrid" />
    <sodipodi:guide
       inkscape:color="rgb(0,0,255)"
       inkscape:locked="true"
       inkscape:label=""
       id="guide832"
       orientation="0,1"
       position="448,416" />
    <sodipodi:guide
       inkscape:color="rgb(0,0,255)"
       inkscape:locked="true"
       inkscape:label=""
       id="guide834"
       orientation="0,1"
       position="448,96" />
    <sodipodi:guide
       inkscape:color="rgb(0,0,255)"
       inkscape:locked="true"
       inkscape:label="baseline"
       id="guide836"
       orientation="0,1"
       position="448,64" />
    <sodipodi:guide
       position="64,512"
       orientation="1,0"
       id="guide835" />
    <sodipodi:guide
       position="384,512"
       orientation="1,0"
       id="guide837" />
  </sodipodi:namedview>
  <metadata
     id="metadata5">
    <rdf:RDF>
      <cc:Work
         rdf:about="">
        <dc:format>image/svg+xml</dc:format>
        <dc:type
           rdf:resource="http://purl.org/dc/dcmitype/StillImage" />
        <dc:title>DataCite</dc:title>
        <cc:license
           rdf:resource="http://scripts.sil.org/OFL" />
        <dc:subject>
          <rdf:Bag>
            <rdf:li>DataCite</rdf:li>
          </rdf:Bag>
        </dc:subject>
      </cc:Work>
      <cc:License
         rdf:about="http://scripts.sil.org/OFL">
        <cc:permits
           rdf:resource="http://scripts.sil.org/pub/OFL/Reproduction" />
        <cc:permits
           rdf:resource="http://scripts.sil.org/pub/OFL/Distribution" />
        <cc:permits
           rdf:resource="http://scripts.sil.org/pub/OFL/Embedding" />
        <cc:permits
           rdf:resource="http://scripts.sil.org/pub/OFL/DerivativeWorks" />
        <cc:requires
           rdf:resource="http://scripts.sil.org/pub/OFL/Notice" />
        <cc:requires
           rdf:resource="http://scripts.sil.org/pub/OFL/Attribution" />
        <cc:requires
           rdf:resource="http://scripts.sil.org/pub/OFL/ShareAlike" />
        <cc:requires
           rdf:resource="http://scripts.sil.org/pub/OFL/DerivativeRenaming" />
        <cc:requires
           rdf:resource="http://scripts.sil.org/pub/OFL/BundlingWhenSelling" />
      </cc:License>
    </rdf:RDF>
  </metadata>
  <g
     inkscape:label="icon"
     id="layer6"
     inkscape:groupmode="layer">
    <path
       d="M 48 32 C 21.5 32 0 53.5 0 80 L 0 432 C 0 458.5 21.5 480 48 480 L 400 480 C 426.5 480 448 458.5 448 432 L 448 80 C 448 53.5 426.5 32 400 32 L 48 32 z M 200.96289 96.009766 C 217.91862 96.321421 238.04267 103.88028 261.21875 120.89844 C 211.06566 98.021586 185.05422 123.22306 177.86719 165.14062 C 178.35416 165.13793 178.84115 165.11914 179.32812 165.11914 C 321.82029 160.20562 443.55664 200.60828 421.71875 257.38672 C 405.36866 298.74273 324.0549 328.96045 230.31836 341.02734 C 266.09354 380.69713 312.31908 392.194 338.19531 335.99414 C 339.83318 335.44817 340.92276 335.45226 341.46875 334.90625 C 320.95914 459.74751 229.10408 421.806 179.15625 345.71875 C 128.5757 348.51627 77.159914 345.99916 32.464844 337.09375 C 29.189164 336.54777 26.462162 335.99714 23.732422 335.45117 C 69.962242 335.68583 119.68235 329.43335 163.78125 318.1875 C 159.52551 309.06574 155.90315 299.67354 153.11719 290.14258 C 117.71595 203.98532 134.63339 98.501571 197.61523 96.044922 L 197.61523 96.042969 C 198.71742 95.999977 199.83251 95.988989 200.96289 96.009766 z M 177.66406 166.44141 C 171.87319 202.41104 179.65549 250.24216 197.88086 290.6875 C 200.16779 295.74872 202.67482 300.651 205.30273 305.43359 C 244.48806 291.08161 275.11015 272.25163 287.96289 250.28516 C 314.47172 204.69 250.85849 175.11529 177.66406 166.44141 z "
       id="path2" />
  </g>
</svg>
