<?xml version="1.0" encoding="UTF-8" standalone="no"?>
<svg
   xmlns:dc="http://purl.org/dc/elements/1.1/"
   xmlns:cc="http://creativecommons.org/ns#"
   xmlns:rdf="http://www.w3.org/1999/02/22-rdf-syntax-ns#"
   xmlns:svg="http://www.w3.org/2000/svg"
   xmlns="http://www.w3.org/2000/svg"
   xmlns:sodipodi="http://sodipodi.sourceforge.net/DTD/sodipodi-0.dtd"
   xmlns:inkscape="http://www.inkscape.org/namespaces/inkscape"
   sodipodi:docname="template-square.svg"
   inkscape:version="1.0 (1.0+r73+1)"
   id="svg8"
   version="1.1"
   viewBox="0 0 448 512"
   height="512"
   width="448">
  <title
     id="title1033">Dataverse</title>
  <defs
     id="defs2" />
  <sodipodi:namedview
     inkscape:window-maximized="1"
     inkscape:window-y="27"
     inkscape:window-x="51"
     inkscape:window-height="713"
     inkscape:window-width="1315"
     inkscape:guide-bbox="true"
     showguides="true"
     units="px"
     showgrid="true"
     inkscape:document-rotation="0"
     inkscape:current-layer="layer6"
     inkscape:document-units="px"
     inkscape:cy="256"
     inkscape:cx="203.33333"
     inkscape:zoom="0.75"
     inkscape:pageshadow="2"
     inkscape:pageopacity="0.0"
     borderopacity="1.0"
     bordercolor="#666666"
     pagecolor="#ffffff"
     id="base">
    <inkscape:grid
       empspacing="4"
       id="grid10"
       type="xygrid" />
    <sodipodi:guide
       inkscape:color="rgb(0,0,255)"
       inkscape:locked="true"
       inkscape:label=""
       id="guide832"
       orientation="0,1"
       position="448,416" />
    <sodipodi:guide
       inkscape:color="rgb(0,0,255)"
       inkscape:locked="true"
       inkscape:label=""
       id="guide834"
       orientation="0,1"
       position="448,96" />
    <sodipodi:guide
       inkscape:color="rgb(0,0,255)"
       inkscape:locked="true"
       inkscape:label="baseline"
       id="guide836"
       orientation="0,1"
       position="448,64" />
    <sodipodi:guide
       position="64,512"
       orientation="1,0"
       id="guide835" />
    <sodipodi:guide
       position="384,512"
       orientation="1,0"
       id="guide837" />
  </sodipodi:namedview>
  <metadata
     id="metadata5">
    <rdf:RDF>
      <cc:Work
         rdf:about="">
        <dc:format>image/svg+xml</dc:format>
        <dc:type
           rdf:resource="http://purl.org/dc/dcmitype/StillImage" />
        <dc:title>Dataverse</dc:title>
        <cc:license
           rdf:resource="http://scripts.sil.org/OFL" />
        <dc:subject>
          <rdf:Bag>
            <rdf:li>Dataverse</rdf:li>
          </rdf:Bag>
        </dc:subject>
      </cc:Work>
      <cc:License
         rdf:about="http://scripts.sil.org/OFL">
        <cc:permits
           rdf:resource="http://scripts.sil.org/pub/OFL/Reproduction" />
        <cc:permits
           rdf:resource="http://scripts.sil.org/pub/OFL/Distribution" />
        <cc:permits
           rdf:resource="http://scripts.sil.org/pub/OFL/Embedding" />
        <cc:permits
           rdf:resource="http://scripts.sil.org/pub/OFL/DerivativeWorks" />
        <cc:requires
           rdf:resource="http://scripts.sil.org/pub/OFL/Notice" />
        <cc:requires
           rdf:resource="http://scripts.sil.org/pub/OFL/Attribution" />
        <cc:requires
           rdf:resource="http://scripts.sil.org/pub/OFL/ShareAlike" />
        <cc:requires
           rdf:resource="http://scripts.sil.org/pub/OFL/DerivativeRenaming" />
        <cc:requires
           rdf:resource="http://scripts.sil.org/pub/OFL/BundlingWhenSelling" />
      </cc:License>
    </rdf:RDF>
  </metadata>
  <g
     inkscape:label="icon"
     id="layer6"
     inkscape:groupmode="layer">
    <path
       d="M 48 32 C 21.5 32 0 53.5 0 80 L 0 432 C 0 458.5 21.5 480 48 480 L 400 480 C 426.5 480 448 458.5 448 432 L 448 80 C 448 53.5 426.5 32 400 32 L 48 32 z M 251.91406 96 C 268.59556 96 282.16797 109.57163 282.16797 126.25391 C 282.16797 138.08865 275.32435 148.32955 265.40039 153.29883 L 272.07617 188.47461 C 272.08627 188.47461 272.09256 188.47266 272.10156 188.47266 L 272.10352 188.47266 C 295.77553 188.47266 315.03516 207.73166 315.03516 231.40625 C 315.03516 255.07826 295.77554 274.33789 272.10352 274.33789 C 267.16195 274.33789 262.43496 273.45468 258.01367 271.91211 L 243.21875 296.96289 C 258.07334 309.31643 267.54883 327.92482 267.54883 348.70898 C 267.54883 385.81297 237.36289 416 200.25781 416 C 163.15273 416 132.96484 385.81297 132.96484 348.70898 C 132.96484 311.60499 163.15236 281.41797 200.25781 281.41797 C 212.04989 281.41797 223.13525 284.47556 232.7832 289.82617 L 246.83398 266.03516 C 236.15095 258.21777 229.17383 245.62755 229.17383 231.40625 C 229.17383 212.0848 242.00504 195.71636 259.5918 190.3457 L 253.1582 156.44727 C 252.74222 156.46497 252.3326 156.51172 251.91406 156.51172 C 235.23111 156.51172 221.65625 142.93846 221.65625 126.25586 C 221.65625 109.57182 235.23146 96 251.91406 96 z M 251.91406 106.51367 C 241.02722 106.51367 232.16992 115.3694 232.16992 126.25586 C 232.16992 137.14232 241.02722 145.99805 251.91406 145.99805 C 262.79941 145.99805 271.65625 137.14232 271.65625 126.25586 C 271.65625 115.3694 262.80087 106.51367 251.91406 106.51367 z M 272.10156 201.08984 C 255.3858 201.08984 241.78711 214.68902 241.78711 231.40625 C 241.78711 248.12202 255.38544 261.7207 272.10156 261.7207 C 288.81733 261.7207 302.41997 248.12239 302.41797 231.40625 C 302.41797 214.69048 288.81733 201.08984 272.10156 201.08984 z M 200.25781 294.0332 C 170.10862 294.0332 145.58008 318.56087 145.58008 348.70898 C 145.58008 378.85564 170.10862 403.38281 200.25781 403.38281 C 230.40702 403.38281 254.93359 378.85564 254.93359 348.70898 C 254.93359 318.56124 230.40702 294.0332 200.25781 294.0332 z "
       id="path2" />
  </g>
</svg>
