<?xml version="1.0" encoding="UTF-8" standalone="no"?>
<svg
   xmlns:dc="http://purl.org/dc/elements/1.1/"
   xmlns:cc="http://creativecommons.org/ns#"
   xmlns:rdf="http://www.w3.org/1999/02/22-rdf-syntax-ns#"
   xmlns:svg="http://www.w3.org/2000/svg"
   xmlns="http://www.w3.org/2000/svg"
   xmlns:sodipodi="http://sodipodi.sourceforge.net/DTD/sodipodi-0.dtd"
   xmlns:inkscape="http://www.inkscape.org/namespaces/inkscape"
   sodipodi:docname="template-square.svg"
   inkscape:version="1.0 (1.0+r73+1)"
   id="svg8"
   version="1.1"
   viewBox="0 0 448 512"
   height="512"
   width="448">
  <title
     id="title1060">dblp</title>
  <defs
     id="defs2" />
  <sodipodi:namedview
     inkscape:window-maximized="1"
     inkscape:window-y="27"
     inkscape:window-x="51"
     inkscape:window-height="713"
     inkscape:window-width="1315"
     inkscape:guide-bbox="true"
     showguides="true"
     units="px"
     showgrid="true"
     inkscape:document-rotation="0"
     inkscape:current-layer="layer6"
     inkscape:document-units="px"
     inkscape:cy="256"
     inkscape:cx="203.33333"
     inkscape:zoom="0.75"
     inkscape:pageshadow="2"
     inkscape:pageopacity="0.0"
     borderopacity="1.0"
     bordercolor="#666666"
     pagecolor="#ffffff"
     id="base">
    <inkscape:grid
       empspacing="4"
       id="grid10"
       type="xygrid" />
    <sodipodi:guide
       inkscape:color="rgb(0,0,255)"
       inkscape:locked="true"
       inkscape:label=""
       id="guide832"
       orientation="0,1"
       position="448,416" />
    <sodipodi:guide
       inkscape:color="rgb(0,0,255)"
       inkscape:locked="true"
       inkscape:label=""
       id="guide834"
       orientation="0,1"
       position="448,96" />
    <sodipodi:guide
       inkscape:color="rgb(0,0,255)"
       inkscape:locked="true"
       inkscape:label="baseline"
       id="guide836"
       orientation="0,1"
       position="448,64" />
    <sodipodi:guide
       position="64,512"
       orientation="1,0"
       id="guide835" />
    <sodipodi:guide
       position="384,512"
       orientation="1,0"
       id="guide837" />
  </sodipodi:namedview>
  <metadata
     id="metadata5">
    <rdf:RDF>
      <cc:Work
         rdf:about="">
        <dc:format>image/svg+xml</dc:format>
        <dc:type
           rdf:resource="http://purl.org/dc/dcmitype/StillImage" />
        <dc:title>dblp</dc:title>
        <cc:license
           rdf:resource="http://scripts.sil.org/OFL" />
        <dc:subject>
          <rdf:Bag>
            <rdf:li>dblp</rdf:li>
          </rdf:Bag>
        </dc:subject>
      </cc:Work>
      <cc:License
         rdf:about="http://scripts.sil.org/OFL">
        <cc:permits
           rdf:resource="http://scripts.sil.org/pub/OFL/Reproduction" />
        <cc:permits
           rdf:resource="http://scripts.sil.org/pub/OFL/Distribution" />
        <cc:permits
           rdf:resource="http://scripts.sil.org/pub/OFL/Embedding" />
        <cc:permits
           rdf:resource="http://scripts.sil.org/pub/OFL/DerivativeWorks" />
        <cc:requires
           rdf:resource="http://scripts.sil.org/pub/OFL/Notice" />
        <cc:requires
           rdf:resource="http://scripts.sil.org/pub/OFL/Attribution" />
        <cc:requires
           rdf:resource="http://scripts.sil.org/pub/OFL/ShareAlike" />
        <cc:requires
           rdf:resource="http://scripts.sil.org/pub/OFL/DerivativeRenaming" />
        <cc:requires
           rdf:resource="http://scripts.sil.org/pub/OFL/BundlingWhenSelling" />
      </cc:License>
    </rdf:RDF>
  </metadata>
  <g
     inkscape:label="icon"
     id="layer6"
     inkscape:groupmode="layer">
    <path
       d="M 48 32 C 21.5 32 0 53.5 0 80 L 0 432 C 0 458.5 21.5 480 48 480 L 400 480 C 426.5 480 448 458.5 448 432 L 448 80 C 448 53.5 426.5 32 400 32 L 48 32 z M 105.4043 96.005859 C 106.18322 96.053237 107.14444 96.380328 108.24023 97.013672 L 202.90625 151.66602 C 206.37304 153.6661 209.93403 158.01326 210.88086 161.38672 C 209.10753 160.76039 206.94744 160.86713 204.80078 161.86719 L 129.29492 197.08008 L 137.92188 229.70703 C 138.81509 233.08015 142.42704 237.5065 145.93359 239.5332 L 216.45312 280.25391 L 224.08984 309.31641 L 225.96875 308.44141 L 218.88086 281.65234 L 240.59961 294.18555 C 244.10615 296.21226 246.2526 295.10589 245.35938 291.73242 L 229.13281 230.35938 L 232.10547 232.07227 L 223.90625 200.88086 L 221.61328 201.94727 L 210.9082 161.50781 L 210.86719 161.38672 C 212.66712 162.02658 214.05451 163.43992 214.58789 165.45312 L 223.90625 200.88086 L 307.57422 161.86719 C 311.92108 159.84047 316.33347 161.45332 317.38672 165.45312 L 350.19922 290.29297 C 351.25253 294.29315 348.55928 299.21334 344.19922 301.22656 L 318.2793 313.32031 L 310.08008 282.30664 C 309.18682 278.92004 305.57295 274.49351 302.06641 272.4668 L 232.12109 232.08789 L 247.42578 290.29297 C 248.47906 294.29279 245.78655 299.21352 241.45312 301.24023 L 225.97656 308.45117 L 236.57422 348.54688 C 235.05428 347.82685 233.86706 346.54604 233.40039 344.74609 L 224.08398 309.33789 L 140.42773 348.3457 C 136.08083 350.37242 131.66655 348.7596 130.61328 344.75977 L 97.800781 219.91992 C 96.74752 215.92009 99.440582 211.00133 103.78711 208.97461 L 129.29492 197.08008 L 103.48047 99.480469 C 102.86639 97.152182 103.69067 95.901629 105.4043 96.005859 z M 221.62695 201.94727 L 229.13281 230.3457 L 207.41406 217.8125 C 203.89439 215.78579 201.74813 216.8927 202.66797 220.2793 L 218.89453 281.63867 L 216.45312 280.24023 L 200.59961 219.91992 C 199.54634 215.92009 202.2408 210.99936 206.57422 208.97266 L 221.62695 201.94727 z M 318.29297 313.32031 L 344.5332 412.53125 C 345.42643 415.90438 343.27997 417.01302 339.77344 414.98633 L 245.10742 360.33203 C 241.60088 358.3053 237.98697 353.87936 237.09375 350.50586 L 236.57422 348.55859 C 238.42738 349.42522 240.81267 349.45203 243.19922 348.33203 L 318.29297 313.32031 z "
       id="path2" />
  </g>
</svg>
