<?xml version="1.0" encoding="UTF-8" standalone="no"?>
<svg
   xmlns:dc="http://purl.org/dc/elements/1.1/"
   xmlns:cc="http://creativecommons.org/ns#"
   xmlns:rdf="http://www.w3.org/1999/02/22-rdf-syntax-ns#"
   xmlns:svg="http://www.w3.org/2000/svg"
   xmlns="http://www.w3.org/2000/svg"
   xmlns:sodipodi="http://sodipodi.sourceforge.net/DTD/sodipodi-0.dtd"
   xmlns:inkscape="http://www.inkscape.org/namespaces/inkscape"
   width="384"
   height="512"
   viewBox="0 0 384 512"
   version="1.1"
   id="svg8"
   inkscape:version="1.0 (1.0+r73+1)"
   sodipodi:docname="dblp.svg">
  <title
     id="title833">dblp</title>
  <defs
     id="defs2" />
  <sodipodi:namedview
     id="base"
     pagecolor="#ffffff"
     bordercolor="#666666"
     borderopacity="1.0"
     inkscape:pageopacity="0.0"
     inkscape:pageshadow="2"
     inkscape:zoom="0.53033009"
     inkscape:cx="192"
     inkscape:cy="256"
     inkscape:document-units="px"
     inkscape:current-layer="layer6"
     inkscape:document-rotation="0"
     showgrid="true"
     units="px"
     showguides="true"
     inkscape:guide-bbox="true"
     inkscape:window-width="1315"
     inkscape:window-height="713"
     inkscape:window-x="51"
     inkscape:window-y="27"
     inkscape:window-maximized="1">
    <inkscape:grid
       type="xygrid"
       id="grid10"
       empspacing="4" />
    <sodipodi:guide
       position="384.00001,64"
       orientation="0,1"
       id="guide23"
       inkscape:label="baseline"
       inkscape:locked="true"
       inkscape:color="rgb(0,0,255)" />
  </sodipodi:namedview>
  <metadata
     id="metadata5">
    <rdf:RDF>
      <cc:Work
         rdf:about="">
        <dc:format>image/svg+xml</dc:format>
        <dc:type
           rdf:resource="http://purl.org/dc/dcmitype/StillImage" />
        <dc:title>dblp</dc:title>
        <cc:license
           rdf:resource="http://scripts.sil.org/OFL" />
        <dc:subject>
          <rdf:Bag>
            <rdf:li>dblp</rdf:li>
          </rdf:Bag>
        </dc:subject>
      </cc:Work>
      <cc:License
         rdf:about="http://scripts.sil.org/OFL">
        <cc:permits
           rdf:resource="http://scripts.sil.org/pub/OFL/Reproduction" />
        <cc:permits
           rdf:resource="http://scripts.sil.org/pub/OFL/Distribution" />
        <cc:permits
           rdf:resource="http://scripts.sil.org/pub/OFL/Embedding" />
        <cc:permits
           rdf:resource="http://scripts.sil.org/pub/OFL/DerivativeWorks" />
        <cc:requires
           rdf:resource="http://scripts.sil.org/pub/OFL/Notice" />
        <cc:requires
           rdf:resource="http://scripts.sil.org/pub/OFL/Attribution" />
        <cc:requires
           rdf:resource="http://scripts.sil.org/pub/OFL/ShareAlike" />
        <cc:requires
           rdf:resource="http://scripts.sil.org/pub/OFL/DerivativeRenaming" />
        <cc:requires
           rdf:resource="http://scripts.sil.org/pub/OFL/BundlingWhenSelling" />
      </cc:License>
    </rdf:RDF>
  </metadata>
  <g
     inkscape:groupmode="layer"
     id="layer6"
     inkscape:label="icon">
    <path
       id="rect991"
       style="fill-opacity:1;fill-rule:evenodd;stroke:none;stroke-width:1.066;stroke-miterlimit:4;stroke-dasharray:none;stroke-opacity:1;stop-color:#000000"
       d="m 32.247025,40.012819 c -2.2428,-0.15223 -3.88806,1.01161 -2.64918,5.63608 l 35.79017,133.561671 -0.006,0.003 -33.65224,15.63787 c 0,0 -10.07439,4.68192 -7.24107,15.25055 l 44.17766,164.87452 c 0,0 2.82977,10.56543 12.90503,5.88394 70.217005,-32.6353 111.107235,-51.63872 111.107235,-51.63872 l 23.56059,-10.95302 c 0,0 9.31217,-4.3568 7.47035,-14.12271 -0.0698,-0.3744 -0.12453,-0.73759 -0.22928,-1.12784 L 203.1111,226.99466 191.32151,183.0029 c -1.31859,-4.69013 0,0 -12.15521,-45.64012 0,0 -2.83181,-10.56955 -15.06775,-18.07325 L 39.001635,42.581439 c 0,0 -3.87101,-2.37289 -6.75461,-2.56862 z M 307.35817,130.16525 c -1.40848,-0.0243 -3.0411,0.31822 -4.92962,1.196 l -100.86067,46.58206 15.48604,57.76125 -0.0279,-0.0186 19.59148,73.4394 c 0.10312,0.38867 0.15484,0.75503 0.22619,1.12784 0.92144,8.4105 -7.46725,14.12272 -7.46725,14.12272 l -33.74519,15.77729 9.06605,33.92491 0.13945,0.55771 c 0,0 2.83181,10.56955 15.06775,18.07325 l 125.09672,76.70827 c 0,0 12.23242,7.50274 9.40069,-3.06747 -24.9628,-93.15868 -0.003,-0.01 -35.73439,-133.36028 l 33.60575,-15.61926 c -0.002,0 10.0713,-4.68193 7.23798,-15.25056 L 315.33357,137.2483 c 0,0 -1.87194,-6.97773 -7.9754,-7.08305 z" />
  </g>
</svg>
