<?xml version="1.0" encoding="UTF-8" standalone="no"?>
<svg
   xmlns:dc="http://purl.org/dc/elements/1.1/"
   xmlns:cc="http://creativecommons.org/ns#"
   xmlns:rdf="http://www.w3.org/1999/02/22-rdf-syntax-ns#"
   xmlns:svg="http://www.w3.org/2000/svg"
   xmlns="http://www.w3.org/2000/svg"
   xmlns:sodipodi="http://sodipodi.sourceforge.net/DTD/sodipodi-0.dtd"
   xmlns:inkscape="http://www.inkscape.org/namespaces/inkscape"
   sodipodi:docname="dblp-square.svg"
   inkscape:version="1.0 (1.0+r73+1)"
   id="svg8"
   version="1.1"
   viewBox="0 0 448 512"
   height="512"
   width="448">
  <title
     id="title837">dblp</title>
  <defs
     id="defs2" />
  <sodipodi:namedview
     inkscape:window-maximized="1"
     inkscape:window-y="27"
     inkscape:window-x="51"
     inkscape:window-height="713"
     inkscape:window-width="1315"
     inkscape:guide-bbox="true"
     showguides="true"
     units="px"
     showgrid="true"
     inkscape:document-rotation="0"
     inkscape:current-layer="layer6"
     inkscape:document-units="px"
     inkscape:cy="257.47982"
     inkscape:cx="224"
     inkscape:zoom="0.75"
     inkscape:pageshadow="2"
     inkscape:pageopacity="0.0"
     borderopacity="1.0"
     bordercolor="#666666"
     pagecolor="#ffffff"
     id="base">
    <inkscape:grid
       empspacing="4"
       id="grid10"
       type="xygrid" />
    <sodipodi:guide
       inkscape:color="rgb(0,0,255)"
       inkscape:locked="true"
       inkscape:label=""
       id="guide832"
       orientation="0,1"
       position="448,416" />
    <sodipodi:guide
       inkscape:color="rgb(0,0,255)"
       inkscape:locked="true"
       inkscape:label=""
       id="guide834"
       orientation="0,1"
       position="448,96" />
    <sodipodi:guide
       inkscape:color="rgb(0,0,255)"
       inkscape:locked="true"
       inkscape:label="baseline"
       id="guide836"
       orientation="0,1"
       position="448,64" />
    <sodipodi:guide
       position="64,512"
       orientation="1,0"
       id="guide835" />
    <sodipodi:guide
       position="384,512"
       orientation="1,0"
       id="guide837" />
  </sodipodi:namedview>
  <metadata
     id="metadata5">
    <rdf:RDF>
      <cc:Work
         rdf:about="">
        <dc:format>image/svg+xml</dc:format>
        <dc:type
           rdf:resource="http://purl.org/dc/dcmitype/StillImage" />
        <dc:title>dblp</dc:title>
        <cc:license
           rdf:resource="http://scripts.sil.org/OFL" />
        <dc:subject>
          <rdf:Bag>
            <rdf:li>dblp</rdf:li>
          </rdf:Bag>
        </dc:subject>
      </cc:Work>
      <cc:License
         rdf:about="http://scripts.sil.org/OFL">
        <cc:permits
           rdf:resource="http://scripts.sil.org/pub/OFL/Reproduction" />
        <cc:permits
           rdf:resource="http://scripts.sil.org/pub/OFL/Distribution" />
        <cc:permits
           rdf:resource="http://scripts.sil.org/pub/OFL/Embedding" />
        <cc:permits
           rdf:resource="http://scripts.sil.org/pub/OFL/DerivativeWorks" />
        <cc:requires
           rdf:resource="http://scripts.sil.org/pub/OFL/Notice" />
        <cc:requires
           rdf:resource="http://scripts.sil.org/pub/OFL/Attribution" />
        <cc:requires
           rdf:resource="http://scripts.sil.org/pub/OFL/ShareAlike" />
        <cc:requires
           rdf:resource="http://scripts.sil.org/pub/OFL/DerivativeRenaming" />
        <cc:requires
           rdf:resource="http://scripts.sil.org/pub/OFL/BundlingWhenSelling" />
      </cc:License>
    </rdf:RDF>
  </metadata>
  <g
     inkscape:label="icon"
     id="layer6"
     inkscape:groupmode="layer">
    <path
       id="path2"
       d="M 48 32 C 21.5 32 0 53.5 0 80 L 0 432 C 0 458.5 21.5 480 48 480 L 400 480 C 426.5 480 448 458.5 448 432 L 448 80 C 448 53.5 426.5 32 400 32 L 48 32 z M 105.66406 96.009766 C 107.80007 96.154751 110.66797 97.912109 110.66797 97.912109 L 203.33203 154.73242 C 212.39569 160.29071 214.49414 168.12109 214.49414 168.12109 C 223.498 201.92859 222.52132 198.45356 223.49805 201.92773 L 232.23047 234.51367 L 247.31836 290.82812 C 247.3959 291.11719 247.43658 291.38672 247.48828 291.66406 C 248.85259 298.89806 241.95508 302.125 241.95508 302.125 L 224.50391 310.23828 C 224.50391 310.23828 194.21377 324.31398 142.20117 348.48828 C 134.73802 351.95605 132.64258 344.13086 132.64258 344.13086 L 99.917969 222.00195 C 97.819214 214.17333 105.28125 210.70508 105.28125 210.70508 L 130.20898 199.12109 L 130.21289 199.11914 L 103.70117 100.18359 C 102.78349 96.758065 104.00273 95.897003 105.66406 96.009766 z M 309.45117 162.78906 C 313.97225 162.86707 315.35742 168.03516 315.35742 168.03516 L 348.08203 290.16211 C 350.18078 297.99073 342.7197 301.45898 342.7207 301.45898 L 317.82812 313.0293 C 344.29604 411.80769 325.80592 342.80802 344.29688 411.81445 C 346.39445 419.64424 337.33398 414.08594 337.33398 414.08594 L 244.66992 357.26562 C 235.60626 351.70733 233.50781 343.87891 233.50781 343.87891 L 233.40625 343.46484 L 226.68945 318.33594 L 251.68555 306.64844 C 251.68555 306.64844 257.89934 302.4175 257.2168 296.1875 C 257.16394 295.91134 257.12718 295.63947 257.05078 295.35156 L 242.53711 240.95312 L 242.55859 240.9668 L 231.08789 198.17969 L 305.79883 163.67578 C 307.19774 163.02557 308.40785 162.77106 309.45117 162.78906 z " />
  </g>
</svg>
