<?xml version="1.0" encoding="UTF-8" standalone="no"?>
<svg
   xmlns:dc="http://purl.org/dc/elements/1.1/"
   xmlns:cc="http://creativecommons.org/ns#"
   xmlns:rdf="http://www.w3.org/1999/02/22-rdf-syntax-ns#"
   xmlns:svg="http://www.w3.org/2000/svg"
   xmlns="http://www.w3.org/2000/svg"
   xmlns:sodipodi="http://sodipodi.sourceforge.net/DTD/sodipodi-0.dtd"
   xmlns:inkscape="http://www.inkscape.org/namespaces/inkscape"
   sodipodi:docname="depsy.svg"
   inkscape:version="1.0 (1.0+r73+1)"
   id="svg8"
   version="1.1"
   viewBox="0 0 512 512"
   height="512"
   width="512">
  <title
     id="title833">Depsy</title>
  <defs
     id="defs2" />
  <sodipodi:namedview
     inkscape:window-maximized="1"
     inkscape:window-y="27"
     inkscape:window-x="51"
     inkscape:window-height="713"
     inkscape:window-width="1315"
     inkscape:guide-bbox="true"
     showguides="true"
     units="px"
     showgrid="true"
     inkscape:document-rotation="0"
     inkscape:current-layer="layer6"
     inkscape:document-units="px"
     inkscape:cy="256"
     inkscape:cx="256"
     inkscape:zoom="0.75"
     inkscape:pageshadow="2"
     inkscape:pageopacity="0.0"
     borderopacity="1.0"
     bordercolor="#666666"
     pagecolor="#ffffff"
     id="base">
    <inkscape:grid
       empspacing="4"
       id="grid10"
       type="xygrid" />
    <sodipodi:guide
       inkscape:color="rgb(0,0,255)"
       inkscape:locked="true"
       inkscape:label="baseline"
       id="guide23"
       orientation="0,1"
       position="511.99998,64" />
  </sodipodi:namedview>
  <metadata
     id="metadata5">
    <rdf:RDF>
      <cc:Work
         rdf:about="">
        <dc:format>image/svg+xml</dc:format>
        <dc:type
           rdf:resource="http://purl.org/dc/dcmitype/StillImage" />
        <dc:title>Depsy</dc:title>
        <cc:license
           rdf:resource="http://scripts.sil.org/OFL" />
        <dc:subject>
          <rdf:Bag>
            <rdf:li>Depsy</rdf:li>
          </rdf:Bag>
        </dc:subject>
      </cc:Work>
      <cc:License
         rdf:about="http://scripts.sil.org/OFL">
        <cc:permits
           rdf:resource="http://scripts.sil.org/pub/OFL/Reproduction" />
        <cc:permits
           rdf:resource="http://scripts.sil.org/pub/OFL/Distribution" />
        <cc:permits
           rdf:resource="http://scripts.sil.org/pub/OFL/Embedding" />
        <cc:permits
           rdf:resource="http://scripts.sil.org/pub/OFL/DerivativeWorks" />
        <cc:requires
           rdf:resource="http://scripts.sil.org/pub/OFL/Notice" />
        <cc:requires
           rdf:resource="http://scripts.sil.org/pub/OFL/Attribution" />
        <cc:requires
           rdf:resource="http://scripts.sil.org/pub/OFL/ShareAlike" />
        <cc:requires
           rdf:resource="http://scripts.sil.org/pub/OFL/DerivativeRenaming" />
        <cc:requires
           rdf:resource="http://scripts.sil.org/pub/OFL/BundlingWhenSelling" />
      </cc:License>
    </rdf:RDF>
  </metadata>
  <g
     inkscape:label="icon"
     id="layer6"
     inkscape:groupmode="layer">
    <path
       id="path2"
       d="M 393.80916,49.79568 V 447.8874 h -76.00147 v -32.01487 c -14.83228,14.10728 -29.71034,24.26899 -44.6274,30.4834 -14.92781,6.21846 -31.09938,9.32705 -48.52553,9.32705 -39.11367,0 -72.9493,-15.17133 -101.49836,-45.51633 C 94.607342,379.8217 80.337298,342.09702 80.337298,296.99831 c 0,-46.77086 13.811709,-85.09512 41.432342,-114.97896 27.62283,-29.87989 61.17309,-44.82181 100.66316,-44.82181 18.16582,0 35.21785,3.43696 51.1583,10.30242 15.94442,6.86771 30.68407,17.16786 44.21659,30.90103 V 28.065157 h 36.04065 C 323.82604,15.158739 290.75107,7.9999982 255.99997,7.9999982 119.03394,7.9999982 7.9999983,119.03395 7.9999983,255.99998 7.9999983,392.96602 119.03394,504 255.99997,504 392.96602,504 504,392.96602 504,255.99998 504,170.03066 460.25072,94.28747 393.80916,49.796243 Z M 237.91382,207.35241 c -23.49363,0 -43.00727,8.30816 -58.5465,24.91602 -15.53697,16.61407 -23.30774,37.90889 -23.30774,63.89295 0,26.16829 7.90525,47.70103 23.7214,64.58748 15.81612,16.89098 35.28226,25.33309 58.40634,25.33309 23.86153,0 43.656,-8.30367 59.37325,-24.91605 15.72348,-16.60785 23.58689,-38.37171 23.58689,-65.28368 0,-26.35194 -7.86341,-47.6965 -23.58689,-64.0314 -15.71498,-16.32869 -35.60043,-24.49841 -59.6462,-24.49841 z"
       style="stroke-width:0.07717" />
  </g>
</svg>
