<?xml version="1.0" encoding="UTF-8" standalone="no"?>
<svg
   xmlns:dc="http://purl.org/dc/elements/1.1/"
   xmlns:cc="http://creativecommons.org/ns#"
   xmlns:rdf="http://www.w3.org/1999/02/22-rdf-syntax-ns#"
   xmlns:svg="http://www.w3.org/2000/svg"
   xmlns="http://www.w3.org/2000/svg"
   xmlns:sodipodi="http://sodipodi.sourceforge.net/DTD/sodipodi-0.dtd"
   xmlns:inkscape="http://www.inkscape.org/namespaces/inkscape"
   sodipodi:docname="doi-square.svg"
   inkscape:version="1.0 (1.0+r73+1)"
   id="svg8"
   version="1.1"
   viewBox="0 0 448 512"
   height="512"
   width="448">
  <title
     id="title839">DOI</title>
  <defs
     id="defs2" />
  <sodipodi:namedview
     inkscape:window-maximized="1"
     inkscape:window-y="27"
     inkscape:window-x="51"
     inkscape:window-height="713"
     inkscape:window-width="1315"
     inkscape:guide-bbox="true"
     showguides="true"
     units="px"
     showgrid="true"
     inkscape:document-rotation="0"
     inkscape:current-layer="layer6"
     inkscape:document-units="px"
     inkscape:cy="256"
     inkscape:cx="224"
     inkscape:zoom="0.75"
     inkscape:pageshadow="2"
     inkscape:pageopacity="0.0"
     borderopacity="1.0"
     bordercolor="#666666"
     pagecolor="#ffffff"
     id="base">
    <inkscape:grid
       empspacing="4"
       id="grid10"
       type="xygrid" />
    <sodipodi:guide
       inkscape:color="rgb(0,0,255)"
       inkscape:locked="true"
       inkscape:label=""
       id="guide832"
       orientation="0,1"
       position="448,416" />
    <sodipodi:guide
       inkscape:color="rgb(0,0,255)"
       inkscape:locked="true"
       inkscape:label=""
       id="guide834"
       orientation="0,1"
       position="448,96" />
    <sodipodi:guide
       inkscape:color="rgb(0,0,255)"
       inkscape:locked="true"
       inkscape:label="baseline"
       id="guide836"
       orientation="0,1"
       position="448,64" />
    <sodipodi:guide
       id="guide835"
       orientation="1,0"
       position="64,512" />
    <sodipodi:guide
       id="guide837"
       orientation="1,0"
       position="384,512" />
  </sodipodi:namedview>
  <metadata
     id="metadata5">
    <rdf:RDF>
      <cc:Work
         rdf:about="">
        <dc:format>image/svg+xml</dc:format>
        <dc:type
           rdf:resource="http://purl.org/dc/dcmitype/StillImage" />
        <dc:title>DOI</dc:title>
        <cc:license
           rdf:resource="http://scripts.sil.org/OFL" />
        <dc:subject>
          <rdf:Bag>
            <rdf:li>DOI</rdf:li>
          </rdf:Bag>
        </dc:subject>
      </cc:Work>
      <cc:License
         rdf:about="http://scripts.sil.org/OFL">
        <cc:permits
           rdf:resource="http://scripts.sil.org/pub/OFL/Reproduction" />
        <cc:permits
           rdf:resource="http://scripts.sil.org/pub/OFL/Distribution" />
        <cc:permits
           rdf:resource="http://scripts.sil.org/pub/OFL/Embedding" />
        <cc:permits
           rdf:resource="http://scripts.sil.org/pub/OFL/DerivativeWorks" />
        <cc:requires
           rdf:resource="http://scripts.sil.org/pub/OFL/Notice" />
        <cc:requires
           rdf:resource="http://scripts.sil.org/pub/OFL/Attribution" />
        <cc:requires
           rdf:resource="http://scripts.sil.org/pub/OFL/ShareAlike" />
        <cc:requires
           rdf:resource="http://scripts.sil.org/pub/OFL/DerivativeRenaming" />
        <cc:requires
           rdf:resource="http://scripts.sil.org/pub/OFL/BundlingWhenSelling" />
      </cc:License>
    </rdf:RDF>
  </metadata>
  <g
     inkscape:label="icon"
     id="layer6"
     inkscape:groupmode="layer">
    <path
       id="path2"
       d="M 48 32 C 21.5 32 0 53.5 0 80 L 0 432 C 0 458.5 21.5 480 48 480 L 400 480 C 426.5 480 448 458.5 448 432 L 448 80 C 448 53.5 426.5 32 400 32 L 48 32 z M 224 96 C 312.36522 96 384 167.63482 384 256 C 384 344.36519 312.36522 416 224 416 C 135.63483 416 64 344.36519 64 256 C 64 167.63482 135.63483 96 224 96 z M 156.41406 156.93359 L 156.41406 220.48242 C 153.02052 216.96092 147.2893 213.34456 144.08789 211.80859 C 138.51851 209.12087 130.70047 208.55273 124.36328 208.55273 C 113.47937 208.55273 103.2244 214.34332 94.837891 221.57812 C 84.274087 230.66864 78.992188 242.83291 78.992188 258.07031 C 78.992188 273.05177 83.834712 286.94854 94.142578 296.03906 C 102.78503 303.6563 112.64466 307.1582 123.7207 307.1582 C 130.57159 307.1582 137.87276 305.19762 143.25 302.18945 C 146.32197 300.46169 153.40284 296.61143 156.41211 292.83398 L 156.41211 304.89648 L 186.04883 304.89648 L 186.04883 156.93359 L 156.41406 156.93359 z M 325.07031 157.54492 C 320.14112 157.54492 315.94758 159.27313 312.49023 162.73047 C 309.09707 166.12401 307.39839 170.28567 307.40039 175.21484 C 307.40039 180.144 309.09707 184.3376 312.49023 187.79492 C 315.94614 191.25227 320.13968 192.98047 325.07031 192.98047 C 330.06363 192.98047 334.25719 191.28382 337.65039 187.89062 C 341.10773 184.43328 342.83398 180.20816 342.83398 175.21484 C 342.83398 170.28529 341.10773 166.12366 337.65039 162.73047 C 334.19304 159.27313 329.99948 157.54492 325.07031 157.54492 z M 247.04688 207.26953 C 228.73749 207.26953 214.61977 212.97785 204.69727 224.39258 C 196.50252 233.84845 192.4043 244.68885 192.4043 256.91406 C 192.4043 270.49006 196.47209 281.9365 204.60156 291.25781 C 214.46282 302.60438 228.29038 308.2793 246.08789 308.2793 C 263.82065 308.2793 277.61793 302.60561 287.47656 291.25977 C 295.60647 281.93869 299.67387 270.76012 299.67188 257.72461 C 299.67188 244.8231 295.57561 233.71392 287.38086 224.39258 C 277.32855 212.97676 263.88408 207.26953 247.04688 207.26953 z M 309.32031 210.73633 L 309.32031 304.82227 L 340.81836 304.82227 L 340.81836 210.73633 L 309.32031 210.73633 z M 133.41406 234.39062 C 139.04724 234.39063 146.2632 237.91213 150.23242 241.88281 C 154.20163 245.78824 155.74805 252.53285 155.74805 258.16602 C 155.74805 263.86337 152.44578 270.42076 148.47656 274.32617 C 144.5726 278.23158 137.79646 280.62305 132.09766 280.62305 C 125.75901 280.62305 121.48289 277.37802 117.51367 272.64062 C 114.24846 268.79936 112.39648 263.31589 112.39648 258.38672 C 112.39648 253.45609 114.02971 247.53461 117.29492 243.69336 C 121.3283 238.95596 127.13921 234.39258 133.41406 234.39258 L 133.41406 234.39062 z M 246.08789 235.93945 C 251.84904 235.93945 256.74735 238.07148 260.7793 242.32617 C 264.87646 246.51414 266.92578 251.6459 266.92578 257.72461 C 266.92578 263.87149 264.90983 269.06807 260.875 273.32422 C 256.84197 277.51217 251.91466 279.60938 246.08789 279.60938 C 239.55856 279.60938 234.24366 277.04153 230.14648 271.9082 C 226.81856 267.78804 225.15234 263.06066 225.15234 257.72461 C 225.15234 252.45637 226.81856 247.76081 230.14648 243.64062 C 234.24403 238.5073 239.55856 235.93945 246.08789 235.93945 z " />
  </g>
</svg>
