<?xml version="1.0" encoding="UTF-8" standalone="no"?>
<svg
   xmlns:dc="http://purl.org/dc/elements/1.1/"
   xmlns:cc="http://creativecommons.org/ns#"
   xmlns:rdf="http://www.w3.org/1999/02/22-rdf-syntax-ns#"
   xmlns:svg="http://www.w3.org/2000/svg"
   xmlns="http://www.w3.org/2000/svg"
   xmlns:sodipodi="http://sodipodi.sourceforge.net/DTD/sodipodi-0.dtd"
   xmlns:inkscape="http://www.inkscape.org/namespaces/inkscape"
   sodipodi:docname="dryad.svg"
   inkscape:version="1.0 (1.0+r73+1)"
   id="svg8"
   version="1.1"
   viewBox="0 0 512 512"
   height="512"
   width="512">
  <title
     id="title833">Dryad</title>
  <defs
     id="defs2" />
  <sodipodi:namedview
     inkscape:window-maximized="1"
     inkscape:window-y="27"
     inkscape:window-x="51"
     inkscape:window-height="713"
     inkscape:window-width="1315"
     inkscape:guide-bbox="true"
     showguides="true"
     units="px"
     showgrid="true"
     inkscape:document-rotation="0"
     inkscape:current-layer="layer6"
     inkscape:document-units="px"
     inkscape:cy="256"
     inkscape:cx="256"
     inkscape:zoom="0.75"
     inkscape:pageshadow="2"
     inkscape:pageopacity="0.0"
     borderopacity="1.0"
     bordercolor="#666666"
     pagecolor="#ffffff"
     id="base">
    <inkscape:grid
       empspacing="4"
       id="grid10"
       type="xygrid" />
    <sodipodi:guide
       inkscape:color="rgb(0,0,255)"
       inkscape:locked="true"
       inkscape:label="baseline"
       id="guide23"
       orientation="0,1"
       position="511.99998,64" />
  </sodipodi:namedview>
  <metadata
     id="metadata5">
    <rdf:RDF>
      <cc:Work
         rdf:about="">
        <dc:format>image/svg+xml</dc:format>
        <dc:type
           rdf:resource="http://purl.org/dc/dcmitype/StillImage" />
        <dc:title>Dryad</dc:title>
        <cc:license
           rdf:resource="http://scripts.sil.org/OFL" />
        <dc:subject>
          <rdf:Bag>
            <rdf:li>Dryad</rdf:li>
          </rdf:Bag>
        </dc:subject>
      </cc:Work>
      <cc:License
         rdf:about="http://scripts.sil.org/OFL">
        <cc:permits
           rdf:resource="http://scripts.sil.org/pub/OFL/Reproduction" />
        <cc:permits
           rdf:resource="http://scripts.sil.org/pub/OFL/Distribution" />
        <cc:permits
           rdf:resource="http://scripts.sil.org/pub/OFL/Embedding" />
        <cc:permits
           rdf:resource="http://scripts.sil.org/pub/OFL/DerivativeWorks" />
        <cc:requires
           rdf:resource="http://scripts.sil.org/pub/OFL/Notice" />
        <cc:requires
           rdf:resource="http://scripts.sil.org/pub/OFL/Attribution" />
        <cc:requires
           rdf:resource="http://scripts.sil.org/pub/OFL/ShareAlike" />
        <cc:requires
           rdf:resource="http://scripts.sil.org/pub/OFL/DerivativeRenaming" />
        <cc:requires
           rdf:resource="http://scripts.sil.org/pub/OFL/BundlingWhenSelling" />
      </cc:License>
    </rdf:RDF>
  </metadata>
  <g
     inkscape:label="icon"
     id="layer6"
     inkscape:groupmode="layer">
    <path
       id="path2"
       d="m 425.86459,381.10259 c -26.59778,-2.34437 -77.18987,-5.39392 -78.30594,-16.8863 0.82675,-14.89473 17.69057,-23.83619 34.30691,-33.5032 28.45807,-16.59587 49.68284,-38.17047 62.22758,-68.49994 0.70242,-1.65976 5.72451,-17.50856 5.47642,-16.28502 -31.04118,38.58568 -65.43058,65.38804 -97.54658,90.44777 -10.74659,8.33964 -24.57243,13.06933 -37.53085,18.02762 -5.08423,1.95018 -15.39682,1.95018 -16.78132,-0.64325 -2.58309,-4.91632 -2.12875,-13.02794 0.0412,-18.62889 8.26691,-21.51279 20.48052,-41.86326 26.06092,-63.9359 7.58481,-29.83143 10.82908,-61.84047 13.51616,-92.54317 2.99672,-34.14644 2.04622,-68.1057 2.76957,-102.459205 0.12374,-5.43535 0,-15.268547 -1.85975,-21.284183 -6.44786,7.405962 -6.71683,19.375972 -6.71683,19.375972 -5.84882,32.403876 -4.33998,77.856096 -10.78785,76.320556 -6.46874,-1.53498 -28.78866,-69.308845 -23.10541,-108.516818 -14.5701,9.003318 -9.7961,41.054367 -4.50558,60.077478 4.50558,16.16025 9.77517,33.00515 15.74776,47.89988 6.30318,15.68319 3.32732,33.95926 3.01709,50.92895 -0.20685,10.93251 -3.038,21.96885 -5.74542,32.69429 -3.36858,13.23553 -11.03591,16.99013 -21.47283,8.21486 -12.37917,-10.39308 -23.68409,-22.84011 -32.75683,-36.26227 -26.08126,-38.60614 -47.36816,-79.49486 -51.62509,-127.229062 -0.5165,-5.580598 -2.76958,-10.994922 -4.69149,-18.297053 -8.61784,21.968815 -4.11283,32.880889 -2.52149,47.899845 5.70416,53.52183 35.91857,95.80032 65.86458,138.05779 14.46667,20.4543 18.99258,41.78042 9.96109,66.96496 -10.64318,29.70662 -28.9955,39.51942 -59.74733,27.90224 -34.10008,-12.92411 -47.18225,-41.28242 -55.61416,-74.93082 -7.17118,-28.66967 -8.47317,-61.82004 -12.08983,-109.8447 -1.81851,-24.4375 -5.82793,-40.57731 -15.45844,-42.23652 1.79817,11.67959 6.076,30.18367 7.7911,43.08739 3.18267,23.93943 2.37683,39.97545 -0.61992,63.89444 -0.88891,7.42695 -5.97258,13.00696 -8.55624,11.49296 -20.52175,-11.9076 -28.065329,-56.23948 -30.173168,-74.41231 -11.263106,13.35974 1.446659,58.2101 28.912418,92.77122 9.548,10.99488 14.13608,23.96042 20.99758,37.19594 5.41483,10.51786 4.54683,20.9319 -3.80259,29.43718 -8.65909,8.8581 -21.22474,10.49688 -32.5709,7.55117 -6.3241,-1.65976 -14.115195,-5.08252 -23.68409,-8.04921 10.044144,15.26854 25.91624,15.39277 37.90267,16.76207 12.02824,1.36934 22.27867,0.51847 34.34816,0.51847 19.75716,0.0219 30.11157,16.51307 39.99016,29.81045 26.53616,35.74384 26.18465,74.59893 14.19823,115.03103 -1.48792,5.04114 -2.2525,10.31021 -3.61666,15.39277 -0.45492,1.74252 -1.7151,3.29851 -2.5831,4.83349 C 67.049984,467.23591 -4.8906024,344.46764 9.9066493,230.43212 30.614892,70.633533 163.66641,-2.5750847 275.78307,9.2286911 437.97529,26.281219 512.91263,159.19409 503.15782,272.52399 489.31107,433.29764 360.41308,504.59809 258.7124,503.9962 c 3.45109,-35.43236 8.49408,-70.42908 29.946,-99.65866 12.52385,-17.07292 32.1369,-22.46688 53.38201,-20.08105 18.26923,2.09541 32.88061,4.39786 51.1911,5.22773 10.00289,-0.66365 21.26596,-1.88784 32.63248,-8.38103 z"
       style="stroke-width:0.0773159" />
  </g>
</svg>
