<?xml version="1.0" encoding="UTF-8" standalone="no"?>
<!-- Created with Inkscape (http://www.inkscape.org/) -->
<svg xmlns:dc="http://purl.org/dc/elements/1.1/" xmlns:cc="http://creativecommons.org/ns#" xmlns:rdf="http://www.w3.org/1999/02/22-rdf-syntax-ns#" xmlns:svg="http://www.w3.org/2000/svg" xmlns="http://www.w3.org/2000/svg" xmlns:xlink="http://www.w3.org/1999/xlink" xmlns:sodipodi="http://sodipodi.sourceforge.net/DTD/sodipodi-0.dtd" xmlns:inkscape="http://www.inkscape.org/namespaces/inkscape" width="1000" height="984.45074" viewBox="0 0 1000 1000" id="svg4389" sodipodi:version="0.32" inkscape:version="0.92.4 (5da689c313, 2019-01-14)" version="1.0" sodipodi:docname="European_Research_Council_logo-simple.svg" inkscape:output_extension="org.inkscape.output.svg.inkscape">
  <defs id="defs4391">
    <linearGradient inkscape:collect="always" id="linearGradient4675">
      <stop style="stop-color:#606060;stop-opacity:1;" offset="0" id="stop4671"/>
      <stop style="stop-color:#606060;stop-opacity:0;" offset="1" id="stop4673"/>
    </linearGradient>
    <linearGradient inkscape:collect="always" xlink:href="#linearGradient4675" id="linearGradient2240" x1="224.57236" y1="277.06201" x2="376.38483" y2="277.06201" gradientUnits="userSpaceOnUse"/>
    <linearGradient inkscape:collect="always" xlink:href="#linearGradient4675" id="linearGradient2390" gradientUnits="userSpaceOnUse" x1="224.57236" y1="277.06201" x2="376.38483" y2="277.06201"/>
    <linearGradient inkscape:collect="always" xlink:href="#linearGradient4675" id="linearGradient2392" gradientUnits="userSpaceOnUse" x1="224.57236" y1="277.06201" x2="376.38483" y2="277.06201"/>
    <linearGradient inkscape:collect="always" xlink:href="#linearGradient4675" id="linearGradient2394" gradientUnits="userSpaceOnUse" x1="224.57236" y1="277.06201" x2="376.38483" y2="277.06201"/>
    <linearGradient inkscape:collect="always" xlink:href="#linearGradient4675" id="linearGradient2396" gradientUnits="userSpaceOnUse" x1="224.57236" y1="277.06201" x2="376.38483" y2="277.06201"/>
    <linearGradient inkscape:collect="always" xlink:href="#linearGradient4675" id="linearGradient2398" gradientUnits="userSpaceOnUse" x1="224.57236" y1="277.06201" x2="376.38483" y2="277.06201"/>
    <linearGradient inkscape:collect="always" xlink:href="#linearGradient4675" id="linearGradient2400" gradientUnits="userSpaceOnUse" x1="224.57236" y1="277.06201" x2="376.38483" y2="277.06201"/>
    <linearGradient inkscape:collect="always" xlink:href="#linearGradient4675" id="linearGradient2402" gradientUnits="userSpaceOnUse" x1="224.57236" y1="277.06201" x2="376.38483" y2="277.06201"/>
    <linearGradient inkscape:collect="always" xlink:href="#linearGradient4675" id="linearGradient2404" gradientUnits="userSpaceOnUse" x1="224.57236" y1="277.06201" x2="376.38483" y2="277.06201"/>
    <linearGradient inkscape:collect="always" xlink:href="#linearGradient4675" id="linearGradient2406" gradientUnits="userSpaceOnUse" x1="224.57236" y1="277.06201" x2="376.38483" y2="277.06201"/>
    <linearGradient inkscape:collect="always" xlink:href="#linearGradient4675" id="linearGradient2408" gradientUnits="userSpaceOnUse" x1="224.57236" y1="277.06201" x2="376.38483" y2="277.06201"/>
    <linearGradient inkscape:collect="always" xlink:href="#linearGradient4675" id="linearGradient2410" gradientUnits="userSpaceOnUse" x1="224.57236" y1="277.06201" x2="376.38483" y2="277.06201"/>
    <linearGradient inkscape:collect="always" xlink:href="#linearGradient4675" id="linearGradient2412" gradientUnits="userSpaceOnUse" x1="224.57236" y1="277.06201" x2="376.38483" y2="277.06201"/>
    <linearGradient inkscape:collect="always" xlink:href="#linearGradient4675" id="linearGradient2414" gradientUnits="userSpaceOnUse" x1="224.57236" y1="277.06201" x2="376.38483" y2="277.06201"/>
    <linearGradient inkscape:collect="always" xlink:href="#linearGradient4675" id="linearGradient2416" gradientUnits="userSpaceOnUse" x1="224.57236" y1="277.06201" x2="376.38483" y2="277.06201"/>
    <linearGradient inkscape:collect="always" xlink:href="#linearGradient4675" id="linearGradient2418" gradientUnits="userSpaceOnUse" x1="224.57236" y1="277.06201" x2="376.38483" y2="277.06201"/>
    <linearGradient inkscape:collect="always" xlink:href="#linearGradient4675" id="linearGradient2420" gradientUnits="userSpaceOnUse" x1="224.57236" y1="277.06201" x2="376.38483" y2="277.06201"/>
    <linearGradient inkscape:collect="always" xlink:href="#linearGradient4675" id="linearGradient2422" gradientUnits="userSpaceOnUse" x1="224.57236" y1="277.06201" x2="376.38483" y2="277.06201"/>
    <linearGradient inkscape:collect="always" xlink:href="#linearGradient4675" id="linearGradient2424" gradientUnits="userSpaceOnUse" x1="224.57236" y1="277.06201" x2="376.38483" y2="277.06201"/>
    <linearGradient inkscape:collect="always" xlink:href="#linearGradient4675" id="linearGradient2426" gradientUnits="userSpaceOnUse" x1="224.57236" y1="277.06201" x2="376.38483" y2="277.06201"/>
    <linearGradient inkscape:collect="always" xlink:href="#linearGradient4675" id="linearGradient2428" gradientUnits="userSpaceOnUse" x1="224.57236" y1="277.06201" x2="376.38483" y2="277.06201"/>
    <linearGradient inkscape:collect="always" xlink:href="#linearGradient4675" id="linearGradient2430" gradientUnits="userSpaceOnUse" x1="224.57236" y1="277.06201" x2="376.38483" y2="277.06201"/>
    <linearGradient inkscape:collect="always" xlink:href="#linearGradient4675" id="linearGradient2432" gradientUnits="userSpaceOnUse" x1="224.57236" y1="277.06201" x2="376.38483" y2="277.06201"/>
    <linearGradient inkscape:collect="always" xlink:href="#linearGradient4675" id="linearGradient2434" gradientUnits="userSpaceOnUse" x1="224.57236" y1="277.06201" x2="376.38483" y2="277.06201"/>
    <linearGradient inkscape:collect="always" xlink:href="#linearGradient4675" id="linearGradient2436" gradientUnits="userSpaceOnUse" x1="224.57236" y1="277.06201" x2="376.38483" y2="277.06201"/>
    <linearGradient inkscape:collect="always" xlink:href="#linearGradient4675" id="linearGradient2438" gradientUnits="userSpaceOnUse" x1="224.57236" y1="277.06201" x2="376.38483" y2="277.06201"/>
    <linearGradient inkscape:collect="always" xlink:href="#linearGradient4675" id="linearGradient2440" gradientUnits="userSpaceOnUse" x1="224.57236" y1="277.06201" x2="376.38483" y2="277.06201"/>
    <linearGradient inkscape:collect="always" xlink:href="#linearGradient4675" id="linearGradient2442" gradientUnits="userSpaceOnUse" x1="224.57236" y1="277.06201" x2="376.38483" y2="277.06201"/>
    <linearGradient inkscape:collect="always" xlink:href="#linearGradient4675" id="linearGradient2444" gradientUnits="userSpaceOnUse" x1="224.57236" y1="277.06201" x2="376.38483" y2="277.06201"/>
    <linearGradient inkscape:collect="always" xlink:href="#linearGradient4675" id="linearGradient2446" gradientUnits="userSpaceOnUse" x1="224.57236" y1="277.06201" x2="376.38483" y2="277.06201"/>
    <linearGradient inkscape:collect="always" xlink:href="#linearGradient4675" id="linearGradient2448" gradientUnits="userSpaceOnUse" x1="224.57236" y1="277.06201" x2="376.38483" y2="277.06201"/>
    <linearGradient inkscape:collect="always" xlink:href="#linearGradient4675" id="linearGradient2450" gradientUnits="userSpaceOnUse" x1="224.57236" y1="277.06201" x2="376.38483" y2="277.06201"/>
    <linearGradient inkscape:collect="always" xlink:href="#linearGradient4675" id="linearGradient2452" gradientUnits="userSpaceOnUse" x1="224.57236" y1="277.06201" x2="376.38483" y2="277.06201"/>
    <linearGradient inkscape:collect="always" xlink:href="#linearGradient4675" id="linearGradient2454" gradientUnits="userSpaceOnUse" x1="224.57236" y1="277.06201" x2="376.38483" y2="277.06201"/>
    <linearGradient inkscape:collect="always" xlink:href="#linearGradient4675" id="linearGradient2456" gradientUnits="userSpaceOnUse" x1="224.57236" y1="277.06201" x2="376.38483" y2="277.06201"/>
    <linearGradient inkscape:collect="always" xlink:href="#linearGradient4675" id="linearGradient2458" gradientUnits="userSpaceOnUse" x1="224.57236" y1="277.06201" x2="376.38483" y2="277.06201"/>
    <linearGradient inkscape:collect="always" xlink:href="#linearGradient4675" id="linearGradient2460" gradientUnits="userSpaceOnUse" x1="224.57236" y1="277.06201" x2="376.38483" y2="277.06201"/>
    <linearGradient inkscape:collect="always" xlink:href="#linearGradient4675" id="linearGradient2462" gradientUnits="userSpaceOnUse" x1="224.57236" y1="277.06201" x2="376.38483" y2="277.06201"/>
    <linearGradient inkscape:collect="always" xlink:href="#linearGradient4675" id="linearGradient2464" gradientUnits="userSpaceOnUse" x1="224.57236" y1="277.06201" x2="376.38483" y2="277.06201"/>
    <linearGradient inkscape:collect="always" xlink:href="#linearGradient4675" id="linearGradient2466" gradientUnits="userSpaceOnUse" x1="224.57236" y1="277.06201" x2="376.38483" y2="277.06201"/>
    <linearGradient inkscape:collect="always" xlink:href="#linearGradient4675" id="linearGradient2468" gradientUnits="userSpaceOnUse" x1="224.57236" y1="277.06201" x2="376.38483" y2="277.06201"/>
    <linearGradient inkscape:collect="always" xlink:href="#linearGradient4675" id="linearGradient2470" gradientUnits="userSpaceOnUse" x1="224.57236" y1="277.06201" x2="376.38483" y2="277.06201"/>
    <linearGradient inkscape:collect="always" xlink:href="#linearGradient4675" id="linearGradient2472" gradientUnits="userSpaceOnUse" x1="224.57236" y1="277.06201" x2="376.38483" y2="277.06201"/>
    <linearGradient inkscape:collect="always" xlink:href="#linearGradient4675" id="linearGradient2474" gradientUnits="userSpaceOnUse" x1="224.57236" y1="277.06201" x2="376.38483" y2="277.06201"/>
    <linearGradient inkscape:collect="always" xlink:href="#linearGradient4675" id="linearGradient2476" gradientUnits="userSpaceOnUse" x1="224.57236" y1="277.06201" x2="376.38483" y2="277.06201"/>
    <linearGradient inkscape:collect="always" xlink:href="#linearGradient4675" id="linearGradient2478" gradientUnits="userSpaceOnUse" x1="224.57236" y1="277.06201" x2="376.38483" y2="277.06201"/>
    <linearGradient inkscape:collect="always" xlink:href="#linearGradient4675" id="linearGradient2480" gradientUnits="userSpaceOnUse" x1="224.57236" y1="277.06201" x2="376.38483" y2="277.06201"/>
    <linearGradient inkscape:collect="always" xlink:href="#linearGradient4675" id="linearGradient2482" gradientUnits="userSpaceOnUse" x1="224.57236" y1="277.06201" x2="376.38483" y2="277.06201"/>
    <linearGradient inkscape:collect="always" xlink:href="#linearGradient4675" id="linearGradient2484" gradientUnits="userSpaceOnUse" x1="224.57236" y1="277.06201" x2="376.38483" y2="277.06201"/>
    <linearGradient inkscape:collect="always" xlink:href="#linearGradient4675" id="linearGradient2486" gradientUnits="userSpaceOnUse" x1="224.57236" y1="277.06201" x2="376.38483" y2="277.06201"/>
    <linearGradient inkscape:collect="always" xlink:href="#linearGradient4675" id="linearGradient2488" gradientUnits="userSpaceOnUse" x1="224.57236" y1="277.06201" x2="376.38483" y2="277.06201"/>
    <linearGradient inkscape:collect="always" xlink:href="#linearGradient4675" id="linearGradient2490" gradientUnits="userSpaceOnUse" x1="224.57236" y1="277.06201" x2="376.38483" y2="277.06201"/>
    <linearGradient inkscape:collect="always" xlink:href="#linearGradient4675" id="linearGradient2492" gradientUnits="userSpaceOnUse" x1="224.57236" y1="277.06201" x2="376.38483" y2="277.06201"/>
    <linearGradient inkscape:collect="always" xlink:href="#linearGradient4675" id="linearGradient2494" gradientUnits="userSpaceOnUse" x1="224.57236" y1="277.06201" x2="376.38483" y2="277.06201"/>
    <linearGradient inkscape:collect="always" xlink:href="#linearGradient4675" id="linearGradient2496" gradientUnits="userSpaceOnUse" x1="224.57236" y1="277.06201" x2="376.38483" y2="277.06201"/>
    <linearGradient inkscape:collect="always" xlink:href="#linearGradient4675" id="linearGradient2498" gradientUnits="userSpaceOnUse" x1="224.57236" y1="277.06201" x2="376.38483" y2="277.06201"/>
    <linearGradient inkscape:collect="always" xlink:href="#linearGradient4675" id="linearGradient2500" gradientUnits="userSpaceOnUse" x1="224.57236" y1="277.06201" x2="376.38483" y2="277.06201"/>
    <linearGradient inkscape:collect="always" xlink:href="#linearGradient4675" id="linearGradient2502" gradientUnits="userSpaceOnUse" x1="224.57236" y1="277.06201" x2="376.38483" y2="277.06201"/>
    <linearGradient inkscape:collect="always" xlink:href="#linearGradient4675" id="linearGradient2504" gradientUnits="userSpaceOnUse" x1="224.57236" y1="277.06201" x2="376.38483" y2="277.06201"/>
    <linearGradient inkscape:collect="always" xlink:href="#linearGradient4675" id="linearGradient2506" gradientUnits="userSpaceOnUse" x1="224.57236" y1="277.06201" x2="376.38483" y2="277.06201"/>
    <linearGradient inkscape:collect="always" xlink:href="#linearGradient4675" id="linearGradient2508" gradientUnits="userSpaceOnUse" x1="224.57236" y1="277.06201" x2="376.38483" y2="277.06201"/>
    <linearGradient inkscape:collect="always" xlink:href="#linearGradient4675" id="linearGradient2510" gradientUnits="userSpaceOnUse" x1="224.57236" y1="277.06201" x2="376.38483" y2="277.06201"/>
    <linearGradient inkscape:collect="always" xlink:href="#linearGradient4675" id="linearGradient2512" gradientUnits="userSpaceOnUse" x1="224.57236" y1="277.06201" x2="376.38483" y2="277.06201"/>
    <linearGradient inkscape:collect="always" xlink:href="#linearGradient4675" id="linearGradient2514" gradientUnits="userSpaceOnUse" x1="224.57236" y1="277.06201" x2="376.38483" y2="277.06201"/>
    <linearGradient inkscape:collect="always" xlink:href="#linearGradient4675" id="linearGradient2516" gradientUnits="userSpaceOnUse" x1="224.57236" y1="277.06201" x2="376.38483" y2="277.06201"/>
    <linearGradient inkscape:collect="always" xlink:href="#linearGradient4675" id="linearGradient2518" gradientUnits="userSpaceOnUse" x1="224.57236" y1="277.06201" x2="376.38483" y2="277.06201"/>
  </defs>
  <sodipodi:namedview id="base" pagecolor="#ffffff" bordercolor="#666666" borderopacity="1.0" gridtolerance="10000" guidetolerance="10" objecttolerance="10" inkscape:pageopacity="0.0" inkscape:pageshadow="2" inkscape:zoom="0.35" inkscape:cx="246.69417" inkscape:cy="689.30616" inkscape:document-units="px" inkscape:current-layer="g2720" showgrid="false" inkscape:window-width="1024" inkscape:window-height="712" inkscape:window-x="48" inkscape:window-y="307" inkscape:window-maximized="0" fit-margin-top="0" fit-margin-left="0" fit-margin-right="0" fit-margin-bottom="0"/>
  <metadata id="metadata4394">
    <rdf:RDF>
      <cc:Work rdf:about="">
        <dc:format>image/svg+xml</dc:format>
        <dc:type rdf:resource="http://purl.org/dc/dcmitype/StillImage"/>
        <dc:title/>
      </cc:Work>
    </rdf:RDF>
  </metadata>
  <g inkscape:label="Layer 1" inkscape:groupmode="layer" id="layer1" transform="translate(-38.876032,614.73832)">
    <g id="g2720">
      <g id="g4682" transform="matrix(3.009684,0,0,3.009684,-86.025969,-945.75916)" style="stroke-width:0.33226079">
        <path d="m 279.67858,148.65125 c -1.14043,1.63491 -3.37841,2.03791 -5.01903,0.90605 -1.62919,-1.13757 -2.04364,-3.38127 -0.91749,-5.01332 1.15186,-1.64347 3.39556,-2.04648 5.02475,-0.91463 1.64061,1.13472 2.05506,3.38128 0.91177,5.0219" style="fill:#606060;fill-opacity:1;fill-rule:nonzero;stroke:none;stroke-width:0.33226079" id="path3089" inkscape:connector-curvature="0"/>
        <path d="m 220.72778,224.47414 c -1.37767,4.95043 -6.52247,7.84581 -11.46719,6.45385 -4.9533,-1.37766 -7.83438,-6.51388 -6.451,-11.46718 1.36623,-4.94472 6.51103,-7.83152 11.46146,-6.451 4.94187,1.37766 7.83725,6.51674 6.45673,11.46433" style="fill:#606060;fill-opacity:1;fill-rule:nonzero;stroke:none;stroke-width:0.33226079" id="path2869" inkscape:connector-curvature="0"/>
        <path d="m 199.13678,329.07073 c 0.46874,-5.11908 4.99045,-8.89193 10.1038,-8.4289 5.12765,0.46018 8.89193,4.98188 8.4289,10.10382 -0.45731,5.11049 -4.97902,8.8862 -10.0981,8.41746 -5.12192,-0.4516 -8.89192,-4.98188 -8.4346,-10.09238" style="fill:#606060;fill-opacity:1;fill-rule:nonzero;stroke:none;stroke-width:0.33226079" id="path2871" inkscape:connector-curvature="0"/>
        <path d="m 179.0692,322.64259 c 2.39234,-4.54743 8.02875,-6.28237 12.57332,-3.88718 4.53886,2.4009 6.28237,8.02303 3.88146,12.57331 -2.39233,4.54172 -8.02873,6.27665 -12.57331,3.88146 -4.53885,-2.39804 -6.27951,-8.02874 -3.88147,-12.56759" style="fill:#606060;fill-opacity:1;fill-rule:nonzero;stroke:none;stroke-width:0.33226079" id="path2873" inkscape:connector-curvature="0"/>
        <path d="m 162.46009,308.24573 c 4.0158,-3.19835 9.86371,-2.54096 13.06778,1.48056 3.20406,4.02437 2.54382,9.87229 -1.4777,13.07635 -4.0158,3.20122 -9.87515,2.53239 -13.07922,-1.48912 -3.19835,-4.01295 -2.52666,-9.86944 1.48914,-13.06779" style="fill:#606060;fill-opacity:1;fill-rule:nonzero;stroke:none;stroke-width:0.33226079" id="path2875" inkscape:connector-curvature="0"/>
        <path d="m 153.05368,288.52972 c 4.95901,-1.33479 10.0638,1.60919 11.4043,6.56819 1.3205,4.97045 -1.61775,10.06666 -6.5882,11.40431 -4.95901,1.33193 -10.05808,-1.61776 -11.40144,-6.5882 -1.32336,-4.95044 1.62633,-10.05522 6.58534,-11.3843" style="fill:#606060;fill-opacity:1;fill-rule:nonzero;stroke:none;stroke-width:0.33226079" id="path2877" inkscape:connector-curvature="0"/>
        <path d="m 152.1419,267.58754 c 5.09622,0.66596 8.68328,5.33915 8.01161,10.43822 -0.67455,5.08763 -5.34488,8.66898 -10.44109,7.99444 -5.09621,-0.66596 -8.68613,-5.35059 -8.01159,-10.43822 0.67454,-5.09049 5.3563,-8.6747 10.44107,-7.99444" style="fill:#606060;fill-opacity:1;fill-rule:nonzero;stroke:none;stroke-width:0.33226079" id="path2879" inkscape:connector-curvature="0"/>
        <path d="m 159.76765,247.19128 c 4.40737,2.64099 5.84219,8.34886 3.19834,12.76766 -2.64386,4.40166 -8.35458,5.83363 -12.76196,3.18407 -4.40452,-2.63528 -5.83363,-8.35458 -3.2012,-12.7591 2.64385,-4.40166 8.3603,-5.82791 12.76482,-3.19263" style="fill:#606060;fill-opacity:1;fill-rule:nonzero;stroke:none;stroke-width:0.33226079" id="path2881" inkscape:connector-curvature="0"/>
        <path d="m 174.86763,231.51679 c 2.99827,4.17014 2.03791,9.98376 -2.14082,12.97918 -4.18158,2.99256 -9.98376,2.03791 -12.97632,-2.14938 -2.99827,-4.16443 -2.03791,-9.97805 2.13795,-12.96775 4.16157,-2.99828 9.98377,-2.04077 12.97919,2.13795" style="fill:#606060;fill-opacity:1;fill-rule:nonzero;stroke:none;stroke-width:0.33226079" id="path2883" inkscape:connector-curvature="0"/>
        <path d="m 197.39327,222.7049 c 0.86031,5.07334 -2.5524,9.87801 -7.62002,10.73833 -5.07335,0.84603 -9.86373,-2.56383 -10.71833,-7.63431 -0.85747,-5.06476 2.55524,-9.86658 7.62287,-10.71832 5.0562,-0.86033 9.86372,2.55524 10.71548,7.6143" style="fill:#606060;fill-opacity:1;fill-rule:nonzero;stroke:none;stroke-width:0.33226079" id="path2885" inkscape:connector-curvature="0"/>
        <path d="m 213.25639,353.64571 c 0,4.41023 -3.57564,7.98301 -7.98873,7.98301 -4.40452,0 -7.97444,-3.57278 -7.97444,-7.98301 0,-4.40166 3.56992,-7.98016 7.97444,-7.98016 4.41309,0 7.98873,3.5785 7.98873,7.98016" style="fill:#606060;fill-opacity:1;fill-rule:nonzero;stroke:none;stroke-width:0.33226079" id="path2887" inkscape:connector-curvature="0"/>
        <path d="m 237.35405,347.06037 c 1.39767,4.18158 -0.86032,8.709 -5.03904,10.09809 -4.18158,1.3891 -8.70329,-0.86603 -10.0981,-5.04761 -1.39767,-4.18158 0.86032,-8.70043 5.04476,-10.0981 4.18729,-1.39481 8.70328,0.86033 10.09238,5.04762" style="fill:#606060;fill-opacity:1;fill-rule:nonzero;stroke:none;stroke-width:0.33226079" id="path2889" inkscape:connector-curvature="0"/>
        <path d="m 196.81018,198.90735 c 0.13434,-4.40738 3.81858,-7.86297 8.22883,-7.72577 4.4188,0.14291 7.86296,3.8243 7.72576,8.23453 -0.14005,4.40738 -3.83573,7.86297 -8.22881,7.7172 -4.40738,-0.12862 -7.86868,-3.82144 -7.72578,-8.22596" style="fill:#606060;fill-opacity:1;fill-rule:nonzero;stroke:none;stroke-width:0.33226079" id="path2891" inkscape:connector-curvature="0"/>
        <path d="m 220.42194,199.57903 c 1.40053,-4.17872 5.93653,-6.42814 10.11525,-5.02475 4.18443,1.4091 6.42528,5.93652 5.01904,10.11238 -1.40053,4.18158 -5.92795,6.42814 -10.10382,5.02476 -4.18443,-1.40624 -6.431,-5.93081 -5.03047,-10.11239" style="fill:#606060;fill-opacity:1;fill-rule:nonzero;stroke:none;stroke-width:0.33226079" id="path2893" inkscape:connector-curvature="0"/>
        <path d="m 173.26701,205.54128 c -1.30334,-4.21016 1.05183,-8.68042 5.25914,-9.98091 4.21587,-1.30049 8.68042,1.05468 9.98948,5.26484 1.30621,4.21302 -1.05754,8.68899 -5.27056,9.98663 -4.2073,1.30621 -8.68328,-1.05469 -9.97806,-5.27056" style="fill:#606060;fill-opacity:1;fill-rule:nonzero;stroke:none;stroke-width:0.33226079" id="path2895" inkscape:connector-curvature="0"/>
        <path d="m 151.71889,220.27255 c -2.661,-3.51847 -1.96359,-8.52607 1.56345,-11.18136 3.51561,-2.65529 8.5175,-1.95788 11.17564,1.55487 2.65529,3.52419 1.95788,8.53179 -1.56344,11.18422 -3.51562,2.661 -8.52321,1.96646 -11.17565,-1.55773" style="fill:#606060;fill-opacity:1;fill-rule:nonzero;stroke:none;stroke-width:0.33226079" id="path2897" inkscape:connector-curvature="0"/>
        <path d="m 129.1218,260.90501 c -4.16157,-1.45769 -6.35955,-6.00797 -4.90471,-10.1724 1.46055,-4.16157 6.00798,-6.34525 10.17527,-4.899 4.15871,1.4577 6.35668,6.01085 4.89327,10.17528 -1.44912,4.15585 -5.99941,6.34524 -10.16383,4.89612" style="fill:#606060;fill-opacity:1;fill-rule:nonzero;stroke:none;stroke-width:0.33226079" id="path2899" inkscape:connector-curvature="0"/>
        <path d="m 136.84471,238.46513 c -3.63851,-2.48952 -4.556,-7.45996 -2.06078,-11.09848 2.49809,-3.6328 7.46854,-4.556 11.09275,-2.05506 3.64424,2.48951 4.56459,7.46282 2.06365,11.09847 -2.48952,3.6328 -7.45997,4.55315 -11.09562,2.05507" style="fill:#606060;fill-opacity:1;fill-rule:nonzero;stroke:none;stroke-width:0.33226079" id="path2901" inkscape:connector-curvature="0"/>
        <path d="m 127.767,284.87692 c -4.40452,-0.16007 -7.84867,-3.8586 -7.69147,-8.26598 0.16863,-4.40738 3.87003,-7.85153 8.26883,-7.68861 4.40738,0.15434 7.84296,3.85574 7.69433,8.26311 -0.1572,4.40452 -3.8586,7.84868 -8.27169,7.69148" style="fill:#606060;fill-opacity:1;fill-rule:nonzero;stroke:none;stroke-width:0.33226079" id="path2903" inkscape:connector-curvature="0"/>
        <path d="m 134.08367,308.59443 c -4.23588,1.24047 -8.67184,-1.17472 -9.90945,-5.41061 -1.24333,-4.22445 1.1833,-8.66612 5.40775,-9.90945 4.21587,-1.24332 8.66898,1.18044 9.90088,5.41347 1.24333,4.23017 -1.17187,8.66041 -5.39918,9.90659" style="fill:#606060;fill-opacity:1;fill-rule:nonzero;stroke:none;stroke-width:0.33226079" id="path2905" inkscape:connector-curvature="0"/>
        <path d="m 147.89745,329.15362 c -3.5642,2.59811 -8.55752,1.82926 -11.16707,-1.72637 -2.59812,-3.55562 -1.82926,-8.55466 1.72351,-11.1585 3.55277,-2.60955 8.54894,-1.84069 11.16135,1.71493 2.59812,3.55849 1.83498,8.55466 -1.71779,11.16994" style="fill:#606060;fill-opacity:1;fill-rule:nonzero;stroke:none;stroke-width:0.33226079" id="path2907" inkscape:connector-curvature="0"/>
        <path d="m 186.63492,352.29377 c -1.52629,4.13584 -6.09944,6.26808 -10.24673,4.75037 -4.13012,-1.51201 -6.26808,-6.09659 -4.7475,-10.23815 1.51772,-4.13871 6.10517,-6.26809 10.24101,-4.75322 4.13584,1.51486 6.26236,6.09944 4.75322,10.241" style="fill:#606060;fill-opacity:1;fill-rule:nonzero;stroke:none;stroke-width:0.33226079" id="path2909" inkscape:connector-curvature="0"/>
        <path d="m 166.47017,344.09353 c -2.54954,3.60136 -7.53142,4.45311 -11.13278,1.90644 -3.59277,-2.54953 -4.44738,-7.53427 -1.90356,-11.12992 2.55238,-3.59849 7.53141,-4.44739 11.12991,-1.89785 3.59563,2.54382 4.45025,7.52855 1.90643,11.12133" style="fill:#606060;fill-opacity:1;fill-rule:nonzero;stroke:none;stroke-width:0.33226079" id="path2911" inkscape:connector-curvature="0"/>
        <path d="m 212.22743,178.52824 c 0,3.8443 -3.11261,6.9569 -6.95977,6.9569 -3.83287,0 -6.94262,-3.1126 -6.94262,-6.9569 0,-3.8386 3.10975,-6.95406 6.94262,-6.95406 3.84716,0 6.95977,3.11546 6.95977,6.95406" style="fill:#606060;fill-opacity:1;fill-rule:nonzero;stroke:none;stroke-width:0.33226079" id="path2913" inkscape:connector-curvature="0"/>
        <path d="m 231.19172,181.83519 c -0.75171,3.76142 -4.41309,6.2052 -8.1745,5.45349 -3.76143,-0.74885 -6.20806,-4.41881 -5.45635,-8.17737 0.75171,-3.76999 4.41023,-6.21092 8.18022,-5.4592 3.76143,0.75171 6.20235,4.4131 5.45063,8.18308" style="fill:#606060;fill-opacity:1;fill-rule:nonzero;stroke:none;stroke-width:0.33226079" id="path2915" inkscape:connector-curvature="0"/>
        <path d="m 248.26102,188.33479 c -1.44055,3.5642 -5.4935,5.28199 -9.05199,3.84145 -3.5642,-1.43482 -5.28199,-5.49064 -3.84716,-9.05198 1.43768,-3.56135 5.48206,-5.27628 9.05198,-3.84717 3.56135,1.44626 5.27914,5.49636 3.84717,9.0577" style="fill:#606060;fill-opacity:1;fill-rule:nonzero;stroke:none;stroke-width:0.33226079" id="path2917" inkscape:connector-curvature="0"/>
        <path d="m 107.36216,269.65403 c 3.84717,-0.0343 6.9712,3.05544 7.00836,6.9026 0.0286,3.8386 -3.06687,6.9712 -6.89975,7.00265 -3.85288,0.0286 -6.96834,-3.06116 -7.00835,-6.89403 -0.0257,-3.85002 3.05829,-6.98264 6.89974,-7.01122" style="fill:#606060;fill-opacity:1;fill-rule:nonzero;stroke:none;stroke-width:0.33226079" id="path2919" inkscape:connector-curvature="0"/>
        <path d="m 110.52335,250.6583 c 3.77,0.72884 6.2395,4.37021 5.51922,8.14021 -0.72312,3.77285 -4.37021,6.24235 -8.13449,5.51636 -3.78142,-0.72313 -6.23949,-4.36735 -5.52208,-8.13449 0.72027,-3.77571 4.36164,-6.24521 8.13735,-5.52208" style="fill:#606060;fill-opacity:1;fill-rule:nonzero;stroke:none;stroke-width:0.33226079" id="path2921" inkscape:connector-curvature="0"/>
        <path d="m 116.90576,233.55185 c 3.5642,1.41195 5.31344,5.44776 3.89576,9.02054 -1.40625,3.57277 -5.45063,5.32201 -9.02055,3.90719 -3.56991,-1.40911 -5.31915,-5.45063 -3.90147,-9.01769 1.40053,-3.57277 5.44491,-5.32487 9.02626,-3.91004" style="fill:#606060;fill-opacity:1;fill-rule:nonzero;stroke:none;stroke-width:0.33226079" id="path2923" inkscape:connector-curvature="0"/>
        <path d="m 127.64695,216.2053 c 3.19264,2.12366 4.0644,6.43671 1.95503,9.63506 -2.12366,3.20407 -6.43957,4.07583 -9.64078,1.95217 -3.19835,-2.1208 -4.07582,-6.42814 -1.95502,-9.62935 2.11794,-3.20978 6.43099,-4.07868 9.64077,-1.95788" style="fill:#606060;fill-opacity:1;fill-rule:nonzero;stroke:none;stroke-width:0.33226079" id="path2925" inkscape:connector-curvature="0"/>
        <path d="m 140.38318,202.65162 c 2.74104,2.68387 2.78391,7.08839 0.0972,9.82942 -2.69815,2.74103 -7.09124,2.78105 -9.83799,0.0943 -2.74103,-2.68958 -2.7839,-7.0941 -0.0972,-9.83514 2.68673,-2.73818 7.09125,-2.78677 9.83799,-0.0886" style="fill:#606060;fill-opacity:1;fill-rule:nonzero;stroke:none;stroke-width:0.33226079" id="path2927" inkscape:connector-curvature="0"/>
        <path d="m 156.20915,191.2416 c 2.10938,3.20693 1.23762,7.52284 -1.97502,9.63793 -3.20407,2.11507 -7.51427,1.23188 -9.62935,-1.97218 -2.11222,-3.20692 -1.24046,-7.51427 1.96931,-9.63506 3.19835,-2.11222 7.50855,-1.2319 9.63506,1.96931" style="fill:#606060;fill-opacity:1;fill-rule:nonzero;stroke:none;stroke-width:0.33226079" id="path2929" inkscape:connector-curvature="0"/>
        <path d="m 172.3238,183.88454 c 1.5463,3.51561 -0.0543,7.62002 -3.56991,9.16631 -3.5099,1.54345 -7.61431,-0.0457 -9.15488,-3.56134 -1.54915,-3.51561 0.0486,-7.62001 3.55276,-9.16346 3.5099,-1.54915 7.6143,0.0457 9.17203,3.55849" style="fill:#606060;fill-opacity:1;fill-rule:nonzero;stroke:none;stroke-width:0.33226079" id="path2931" inkscape:connector-curvature="0"/>
        <path d="m 191.30525,179.52861 c 0.89462,3.73283 -1.40624,7.48854 -5.13908,8.38317 -3.74427,0.89748 -7.48283,-1.40339 -8.38316,-5.13623 -0.89748,-3.73284 1.40053,-7.48282 5.1305,-8.3803 3.74713,-0.89748 7.48569,1.40053 8.39174,5.13336" style="fill:#606060;fill-opacity:1;fill-rule:nonzero;stroke:none;stroke-width:0.33226079" id="path2933" inkscape:connector-curvature="0"/>
        <path d="m 198.48796,373.78474 c -0.0286,-3.84717 3.06115,-6.97692 6.91117,-6.99979 3.83574,-0.0314 6.96263,3.06402 7.00265,6.89974 0.0143,3.84145 -3.07544,6.97978 -6.91118,7.00265 -3.83573,0.0286 -6.97692,-3.06687 -7.00264,-6.9026" style="fill:#606060;fill-opacity:1;fill-rule:nonzero;stroke:none;stroke-width:0.33226079" id="path2935" inkscape:connector-curvature="0"/>
        <path d="m 179.49508,370.61783 c 0.72599,-3.77 4.37594,-6.23664 8.14879,-5.51351 3.76427,0.72313 6.2395,4.37021 5.51351,8.14021 -0.72313,3.76999 -4.37022,6.2395 -8.14593,5.51922 -3.77285,-0.72599 -6.23664,-4.37594 -5.51637,-8.14592" style="fill:#606060;fill-opacity:1;fill-rule:nonzero;stroke:none;stroke-width:0.33226079" id="path2937" inkscape:connector-curvature="0"/>
        <path d="m 162.38863,364.23542 c 1.41767,-3.56707 5.45348,-5.31915 9.02341,-3.91576 3.56991,1.42339 5.32486,5.4592 3.9129,9.03769 -1.41482,3.56706 -5.4592,5.31343 -9.0234,3.89576 -3.56992,-1.41197 -5.33059,-5.45063 -3.91291,-9.01769" style="fill:#606060;fill-opacity:1;fill-rule:nonzero;stroke:none;stroke-width:0.33226079" id="path2939" inkscape:connector-curvature="0"/>
        <path d="m 145.0478,353.48565 c 2.12938,-3.20407 6.44243,-4.07868 9.6465,-1.95216 3.19835,2.11793 4.07011,6.43671 1.94359,9.63506 -2.11222,3.2012 -6.43386,4.0701 -9.63506,1.95216 -3.20406,-2.12366 -4.07011,-6.44242 -1.95503,-9.63506" style="fill:#606060;fill-opacity:1;fill-rule:nonzero;stroke:none;stroke-width:0.33226079" id="path2941" inkscape:connector-curvature="0"/>
        <path d="m 131.50556,340.73513 c 2.67529,-2.73532 7.07981,-2.78105 9.81512,-0.0915 2.75533,2.68959 2.78391,7.09125 0.1029,9.83228 -2.69245,2.73532 -7.09125,2.78676 -9.83228,0.0943 -2.74103,-2.69815 -2.78391,-7.0941 -0.0857,-9.83513" style="fill:#606060;fill-opacity:1;fill-rule:nonzero;stroke:none;stroke-width:0.33226079" id="path2943" inkscape:connector-curvature="0"/>
        <path d="m 120.10411,324.90629 c 3.20407,-2.11793 7.51998,-1.22902 9.63507,1.97218 2.11508,3.20121 1.23188,7.51713 -1.97218,9.63506 -3.20978,2.11222 -7.52284,1.2319 -9.63506,-1.97789 -2.10937,-3.20406 -1.22618,-7.50854 1.97217,-9.62935" style="fill:#606060;fill-opacity:1;fill-rule:nonzero;stroke:none;stroke-width:0.33226079" id="path2945" inkscape:connector-curvature="0"/>
        <path d="m 112.75276,308.78879 c 3.52133,-1.5463 7.62289,0.0543 9.15489,3.56421 1.55773,3.52132 -0.0372,7.62001 -3.5642,9.1663 -3.50418,1.5463 -7.60859,-0.0543 -9.14345,-3.56991 -1.55488,-3.51561 0.0371,-7.6143 3.55276,-9.1606" style="fill:#606060;fill-opacity:1;fill-rule:nonzero;stroke:none;stroke-width:0.33226079" id="path2947" inkscape:connector-curvature="0"/>
        <path d="m 108.40827,289.80163 c 3.73284,-0.89748 7.48282,1.4091 8.37744,5.13908 0.89748,3.73855 -1.40624,7.4914 -5.13907,8.3803 -3.73284,0.90606 -7.48855,-1.40053 -8.37745,-5.13622 -0.89462,-3.73855 1.40052,-7.48568 5.13908,-8.38316" style="fill:#606060;fill-opacity:1;fill-rule:nonzero;stroke:none;stroke-width:0.33226079" id="path2949" inkscape:connector-curvature="0"/>
        <path d="m 236.31365,368.86002 c -1.48627,-3.53276 0.16864,-7.6143 3.71284,-9.11487 3.53562,-1.48627 7.60572,0.17149 9.10057,3.70998 1.49199,3.53276 -0.16863,7.61715 -3.69568,9.11486 -3.53562,1.48628 -7.6143,-0.1715 -9.11773,-3.70997" style="fill:#606060;fill-opacity:1;fill-rule:nonzero;stroke:none;stroke-width:0.33226079" id="path2951" inkscape:connector-curvature="0"/>
        <path d="m 217.2779,372.93298 c -0.83745,-3.74713 1.51486,-7.46567 5.25913,-8.30027 3.74427,-0.84604 7.46567,1.512 8.30028,5.26485 0.84889,3.7414 -1.50915,7.45709 -5.25914,8.30027 -3.74426,0.83746 -7.44851,-1.51486 -8.30027,-5.26485" style="fill:#606060;fill-opacity:1;fill-rule:nonzero;stroke:none;stroke-width:0.33226079" id="path2953" inkscape:connector-curvature="0"/>
        <path d="m 198.32504,162.05059 c 0,3.26695 -2.64385,5.91937 -5.92509,5.91937 -3.28123,0 -5.9251,-2.65242 -5.9251,-5.91937 0,-3.27266 2.64387,-5.92509 5.9251,-5.92509 3.28124,0 5.92509,2.65243 5.92509,5.92509" style="fill:#606060;fill-opacity:1;fill-rule:nonzero;stroke:none;stroke-width:0.33226079" id="path2955" inkscape:connector-curvature="0"/>
        <path d="m 224.81503,163.7055 c -0.75171,3.1812 -3.94434,5.15337 -7.12268,4.39309 -3.18692,-0.75171 -5.16195,-3.93578 -4.41024,-7.12555 0.76315,-3.18691 3.95864,-5.15337 7.13983,-4.39881 3.18407,0.75458 5.15052,3.95007 4.39309,7.13127" style="fill:#606060;fill-opacity:1;fill-rule:nonzero;stroke:none;stroke-width:0.33226079" id="path2957" inkscape:connector-curvature="0"/>
        <path d="m 245.38279,169.45339 c -1.32336,2.98397 -4.82754,4.32448 -7.80866,2.98969 -2.99255,-1.33193 -4.32735,-4.84468 -3.00399,-7.82581 1.33479,-2.98398 4.84468,-4.32449 7.83153,-2.9897 2.98112,1.33479 4.32735,4.8304 2.98112,7.82582" style="fill:#606060;fill-opacity:1;fill-rule:nonzero;stroke:none;stroke-width:0.33226079" id="path2959" inkscape:connector-curvature="0"/>
        <path d="m 263.64397,178.38818 c -1.83498,2.70674 -5.51351,3.40129 -8.22311,1.56059 -2.70388,-1.84356 -3.40128,-5.5278 -1.55201,-8.23168 1.83497,-2.69815 5.53065,-3.39842 8.22882,-1.55773 2.70673,1.84355 3.39556,5.53066 1.5463,8.22882" style="fill:#606060;fill-opacity:1;fill-rule:nonzero;stroke:none;stroke-width:0.33226079" id="path2961" inkscape:connector-curvature="0"/>
        <path d="m 253.24576,379.46973 c -1.23475,-3.03543 0.22008,-6.49673 3.24408,-7.72291 3.02399,-1.24332 6.49101,0.22008 7.72291,3.25552 1.23475,3.02685 -0.22008,6.48244 -3.2498,7.72577 -3.02971,1.22332 -6.47959,-0.23724 -7.71719,-3.25838" style="fill:#606060;fill-opacity:1;fill-rule:nonzero;stroke:none;stroke-width:0.33226079" id="path2963" inkscape:connector-curvature="0"/>
        <path d="m 232.58653,386.88682 c -0.63166,-3.21264 1.45484,-6.33382 4.66462,-6.96263 3.2155,-0.63452 6.3281,1.4577 6.95405,4.67033 0.63167,3.20693 -1.45483,6.31381 -4.66462,6.9512 -3.21549,0.63167 -6.32238,-1.4577 -6.95405,-4.6589" style="fill:#606060;fill-opacity:1;fill-rule:nonzero;stroke:none;stroke-width:0.33226079" id="path2965" inkscape:connector-curvature="0"/>
        <path d="m 211.34995,390.17949 c -0.0114,-3.27552 2.62671,-5.93938 5.8908,-5.95939 3.28123,-0.02 5.93938,2.62099 5.95653,5.88793 0.0257,3.27553 -2.62099,5.93652 -5.89651,5.96226 -3.26409,0.0171 -5.93081,-2.621 -5.95082,-5.8908" style="fill:#606060;fill-opacity:1;fill-rule:nonzero;stroke:none;stroke-width:0.33226079" id="path2967" inkscape:connector-curvature="0"/>
        <path d="m 185.94322,388.87042 c 0.71742,-3.19834 3.87862,-5.21911 7.06839,-4.50741 3.19263,0.69741 5.20482,3.86718 4.49598,7.06267 -0.69741,3.19263 -3.86431,5.20482 -7.05694,4.50169 -3.19549,-0.70598 -5.21055,-3.86717 -4.50743,-7.05695" style="fill:#606060;fill-opacity:1;fill-rule:nonzero;stroke:none;stroke-width:0.33226079" id="path2969" inkscape:connector-curvature="0"/>
        <path d="m 167.31621,384.16865 c 1.24046,-3.03543 4.68462,-4.49884 7.72005,-3.26694 3.03257,1.23189 4.49026,4.6932 3.26409,7.71433 -1.23189,3.03543 -4.69034,4.49884 -7.72006,3.26695 -3.02686,-1.23761 -4.49026,-4.69034 -3.26408,-7.71434" style="fill:#606060;fill-opacity:1;fill-rule:nonzero;stroke:none;stroke-width:0.33226079" id="path2971" inkscape:connector-curvature="0"/>
        <path d="m 142.92128,372.37563 c 1.90644,-2.66386 5.61927,-3.26695 8.26884,-1.35766 2.66386,1.90644 3.26409,5.61069 1.35194,8.26598 -1.91501,2.65815 -5.61355,3.25837 -8.26884,1.3548 -2.65242,-1.91215 -3.25836,-5.61355 -1.35194,-8.26312" style="fill:#606060;fill-opacity:1;fill-rule:nonzero;stroke:none;stroke-width:0.33226079" id="path2973" inkscape:connector-curvature="0"/>
        <path d="m 127.25824,360.31108 c 2.34374,-2.278 6.08801,-2.24656 8.38888,0.10004 2.278,2.33802 2.22941,6.08801 -0.1029,8.37173 -2.33802,2.28943 -6.09945,2.24656 -8.38316,-0.0915 -2.28372,-2.3466 -2.24656,-6.08801 0.0972,-8.3803" style="fill:#606060;fill-opacity:1;fill-rule:nonzero;stroke:none;stroke-width:0.33226079" id="path2975" inkscape:connector-curvature="0"/>
        <path d="m 112.44122,343.79914 c 2.74104,-1.78639 6.41385,-1.02324 8.19737,1.71207 1.80355,2.72961 1.04612,6.41099 -1.70063,8.1888 -2.74104,1.8064 -6.40814,1.03468 -8.2031,-1.69778 -1.7921,-2.74103 -1.02895,-6.40527 1.70636,-8.20309" style="fill:#606060;fill-opacity:1;fill-rule:nonzero;stroke:none;stroke-width:0.33226079" id="path2977" inkscape:connector-curvature="0"/>
        <path d="m 101.90296,326.41544 c 3.01828,-1.27762 6.50531,0.1229 7.76864,3.13833 1.29192,3.0097 -0.11719,6.48816 -3.12689,7.76578 -3.01257,1.27762 -6.4853,-0.13148 -7.771502,-3.13261 -1.280483,-3.01257 0.131479,-6.48816 3.129752,-7.7715" style="fill:#606060;fill-opacity:1;fill-rule:nonzero;stroke:none;stroke-width:0.33226079" id="path2979" inkscape:connector-curvature="0"/>
        <path d="m 94.854588,308.23144 c 3.184058,-0.74313 6.382402,1.23189 7.122682,4.41595 0.75171,3.18692 -1.22617,6.37669 -4.418806,7.11697 -3.184058,0.75457 -6.370974,-1.22618 -7.11697,-4.40737 -0.743137,-3.18692 1.226177,-6.37099 4.413094,-7.12555" style="fill:#606060;fill-opacity:1;fill-rule:nonzero;stroke:none;stroke-width:0.33226079" id="path2981" inkscape:connector-curvature="0"/>
        <path d="m 90.501517,283.78508 c 3.281238,-0.0429 5.973682,2.57525 6.005123,5.85078 0.04859,3.26409 -2.5724,5.95081 -5.84792,5.99368 -3.275522,0.0429 -5.956533,-2.57811 -6.005123,-5.84506 -0.02858,-3.27552 2.583832,-5.95367 5.84792,-5.9994" style="fill:#606060;fill-opacity:1;fill-rule:nonzero;stroke:none;stroke-width:0.33226079" id="path2983" inkscape:connector-curvature="0"/>
        <path d="m 91.410431,259.91321 c 3.209782,0.64311 5.296283,3.75857 4.653184,6.96263 -0.637383,3.20979 -3.769994,5.29057 -6.974059,4.65605 -3.19835,-0.63739 -5.281992,-3.75857 -4.644609,-6.96263 0.628809,-3.20407 3.755702,-5.29057 6.965484,-4.65605" style="fill:#606060;fill-opacity:1;fill-rule:nonzero;stroke:none;stroke-width:0.33226079" id="path2985" inkscape:connector-curvature="0"/>
        <path d="m 96.892499,237.75915 c 3.015423,1.26333 4.435961,4.74464 3.172621,7.76006 -1.26333,3.01828 -4.730352,4.43597 -7.754349,3.16691 -3.015423,-1.26333 -4.435959,-4.73321 -3.172626,-7.75435 1.263334,-3.01543 4.730356,-4.43024 7.754354,-3.17262" style="fill:#606060;fill-opacity:1;fill-rule:nonzero;stroke:none;stroke-width:0.33226079" id="path2987" inkscape:connector-curvature="0"/>
        <path d="m 106.81053,216.87699 c 2.7153,1.85212 3.40127,5.53923 1.56058,8.23738 -1.85212,2.69531 -5.53637,3.39843 -8.24025,1.5463 -2.692441,-1.84355 -3.389847,-5.52779 -1.549153,-8.23453 1.849273,-2.70102 5.539233,-3.38699 8.228823,-1.54915" style="fill:#606060;fill-opacity:1;fill-rule:nonzero;stroke:none;stroke-width:0.33226079" id="path2989" inkscape:connector-curvature="0"/>
        <path d="m 121.19881,197.9327 c 2.26657,2.36946 2.18654,6.12231 -0.18578,8.37744 -2.35804,2.25513 -6.11374,2.18082 -8.36888,-0.18579 -2.26371,-2.36946 -2.1751,-6.11945 0.18293,-8.37458 2.3666,-2.25799 6.11088,-2.17511 8.37173,0.18293" style="fill:#606060;fill-opacity:1;fill-rule:nonzero;stroke:none;stroke-width:0.33226079" id="path2991" inkscape:connector-curvature="0"/>
        <path d="m 136.91045,184.02174 c 1.78353,2.74103 1.01467,6.41384 -1.72065,8.20023 -2.72674,1.78925 -6.40527,1.02324 -8.20309,-1.71207 -1.78353,-2.74104 -1.00324,-6.41671 1.71779,-8.20881 2.74103,-1.78639 6.40813,-1.01467 8.20595,1.72065" style="fill:#606060;fill-opacity:1;fill-rule:nonzero;stroke:none;stroke-width:0.33226079" id="path2993" inkscape:connector-curvature="0"/>
        <path d="m 154.79148,173.26339 c 1.26333,3.024 -0.16292,6.49674 -3.18692,7.7515 -3.0097,1.26619 -6.4853,-0.15435 -7.74006,-3.17835 -1.26905,-3.02114 0.1572,-6.4853 3.17262,-7.75435 3.01829,-1.26047 6.49103,0.16291 7.75436,3.1812" style="fill:#606060;fill-opacity:1;fill-rule:nonzero;stroke:none;stroke-width:0.33226079" id="path2995" inkscape:connector-curvature="0"/>
        <path d="m 175.95375,165.50332 c 0.64881,3.20978 -1.42912,6.33954 -4.65033,6.97978 -3.18691,0.64596 -6.33095,-1.42626 -6.96549,-4.6389 -0.64023,-3.20692 1.43484,-6.32809 4.64461,-6.97691 3.20407,-0.64596 6.32239,1.43196 6.97121,4.63603" style="fill:#606060;fill-opacity:1;fill-rule:nonzero;stroke:none;stroke-width:0.33226079" id="path2997" inkscape:connector-curvature="0"/>
        <path d="m 183.90817,144.95843 c 0.60594,3.0583 -1.36051,6.02513 -4.41309,6.63107 -3.04686,0.61166 -6.01084,-1.35766 -6.63107,-4.3988 -0.60594,-3.05258 1.37195,-6.01941 4.4188,-6.63679 3.04687,-0.60594 6.00513,1.36052 6.62536,4.40452" style="fill:#606060;fill-opacity:1;fill-rule:nonzero;stroke:none;stroke-width:0.33226079" id="path2999" inkscape:connector-curvature="0"/>
        <path d="m 211.04413,143.41213 c -0.0343,3.1126 -2.56669,5.61927 -5.66785,5.59069 -3.11261,-0.0172 -5.62499,-2.56097 -5.59641,-5.65928 0.0172,-3.12118 2.56097,-5.61069 5.66785,-5.59355 3.10118,0.0229 5.60783,2.55526 5.59641,5.66214" style="fill:#606060;fill-opacity:1;fill-rule:nonzero;stroke:none;stroke-width:0.33226079" id="path3001" inkscape:connector-curvature="0"/>
        <path d="m 241.83002,148.48262 c -0.746,3.01542 -3.80429,4.85897 -6.814,4.11298 -3.01828,-0.74314 -4.85897,-3.79001 -4.11298,-6.80828 0.74599,-3.024 3.79286,-4.86184 6.81114,-4.11871 3.01543,0.746 4.8504,3.79572 4.11584,6.81401" style="fill:#606060;fill-opacity:1;fill-rule:nonzero;stroke:none;stroke-width:0.33226079" id="path3003" inkscape:connector-curvature="0"/>
        <path d="m 262.85509,156.52279 c -1.25476,2.8525 -4.56744,4.15585 -7.41136,2.91539 -2.85251,-1.24905 -4.153,-4.56744 -2.90968,-7.41423 1.25191,-2.8525 4.55601,-4.15299 7.40566,-2.90681 2.85537,1.24904 4.15299,4.55601 2.91538,7.40565" style="fill:#606060;fill-opacity:1;fill-rule:nonzero;stroke:none;stroke-width:0.33226079" id="path3005" inkscape:connector-curvature="0"/>
        <path d="m 249.60724,401.28653 c -1.15758,-2.8868 0.24867,-6.17089 3.12118,-7.32276 2.89537,-1.15757 6.1709,0.24581 7.32561,3.13261 1.14901,2.88966 -0.2458,6.16233 -3.12974,7.32277 -2.8868,1.14614 -6.15089,-0.25439 -7.31705,-3.13262" style="fill:#606060;fill-opacity:1;fill-rule:nonzero;stroke:none;stroke-width:0.33226079" id="path3007" inkscape:connector-curvature="0"/>
        <path d="m 225.4324,407.41742 c -0.58879,-3.06116 1.39482,-6.01655 4.44168,-6.61393 3.04972,-0.5945 6.01084,1.40053 6.60821,4.43883 0.59451,3.06115 -1.39482,6.01369 -4.44454,6.6082 -3.04686,0.59451 -6.00226,-1.3891 -6.60535,-4.4331" style="fill:#606060;fill-opacity:1;fill-rule:nonzero;stroke:none;stroke-width:0.33226079" id="path3009" inkscape:connector-curvature="0"/>
        <path d="m 197.09886,408.75793 c 0.0657,-3.11547 2.63528,-5.58497 5.73645,-5.51351 3.1126,0.0657 5.57639,2.63813 5.49922,5.74216 -0.06,3.10975 -2.62671,5.57354 -5.72787,5.51065 -3.10974,-0.0743 -5.57926,-2.63814 -5.5078,-5.7393" style="fill:#606060;fill-opacity:1;fill-rule:nonzero;stroke:none;stroke-width:0.33226079" id="path3011" inkscape:connector-curvature="0"/>
        <path d="m 171.74072,404.76213 c 0.66883,-3.044 3.66139,-4.96472 6.70253,-4.30733 3.02972,0.66024 4.96474,3.65566 4.29877,6.69109 -0.6631,3.044 -3.65566,4.97045 -6.69109,4.30733 -3.02972,-0.66596 -4.95901,-3.65852 -4.31021,-6.69109" style="fill:#606060;fill-opacity:1;fill-rule:nonzero;stroke:none;stroke-width:0.33226079" id="path3013" inkscape:connector-curvature="0"/>
        <path d="m 146.74273,395.53293 c 1.26905,-2.84678 4.58173,-4.13298 7.42851,-2.88394 2.83822,1.24905 4.12442,4.57601 2.87537,7.41995 -1.26333,2.84392 -4.57601,4.13584 -7.4228,2.8868 -2.83821,-1.26619 -4.13584,-4.58173 -2.88108,-7.42281" style="fill:#606060;fill-opacity:1;fill-rule:nonzero;stroke:none;stroke-width:0.33226079" id="path3015" inkscape:connector-curvature="0"/>
        <path d="m 121.40174,379.37828 c 1.86356,-2.49237 5.38203,-3.00686 7.88012,-1.14616 2.48951,1.86642 2.98684,5.38775 1.12328,7.88012 -1.85499,2.48951 -5.37631,3.00399 -7.87154,1.14329 -2.4838,-1.86642 -2.99542,-5.38774 -1.13186,-7.87725" style="fill:#606060;fill-opacity:1;fill-rule:nonzero;stroke:none;stroke-width:0.33226079" id="path3017" inkscape:connector-curvature="0"/>
        <path d="m 106.17886,364.93283 c 2.24656,-2.1694 5.80505,-2.11509 7.96872,0.10289 2.16368,2.23513 2.11509,5.79933 -0.11433,7.963 -2.23513,2.16654 -5.79361,2.11795 -7.96301,-0.12004 -2.15795,-2.22084 -2.11508,-5.78504 0.10862,-7.94585" style="fill:#606060;fill-opacity:1;fill-rule:nonzero;stroke:none;stroke-width:0.33226079" id="path3019" inkscape:connector-curvature="0"/>
        <path d="m 91.104602,344.52512 c 2.612414,-1.70063 6.099443,-0.97465 7.800085,1.62062 1.700643,2.60384 0.974653,6.08801 -1.62347,7.79151 -2.606698,1.7035 -6.093727,0.97466 -7.794369,-1.63204 -1.70064,-2.58955 -0.968936,-6.07944 1.617754,-7.78009" style="fill:#606060;fill-opacity:1;fill-rule:nonzero;stroke:none;stroke-width:0.33226079" id="path3021" inkscape:connector-curvature="0"/>
        <path d="m 81.438099,324.92059 c 2.849646,-1.25476 6.162324,0.0314 7.4228,2.87537 1.246184,2.84107 -0.0343,6.16804 -2.883945,7.41422 -2.855363,1.25476 -6.168041,-0.0229 -7.4228,-2.88108 -1.246184,-2.84107 0.04001,-6.16232 2.883945,-7.40851" style="fill:#606060;fill-opacity:1;fill-rule:nonzero;stroke:none;stroke-width:0.33226079" id="path3023" inkscape:connector-curvature="0"/>
        <path d="m 74.226808,299.51958 c 3.046863,-0.66025 6.050853,1.25476 6.71396,4.2902 0.660249,3.03542 -1.257617,6.0337 -4.293048,6.69966 -3.046863,0.66882 -6.03942,-1.25475 -6.713961,-4.29876 -0.648816,-3.02971 1.263334,-6.02799 4.293049,-6.6911" style="fill:#606060;fill-opacity:1;fill-rule:nonzero;stroke:none;stroke-width:0.33226079" id="path3025" inkscape:connector-curvature="0"/>
        <path d="m 72.223195,271.94919 c 3.104027,-0.009 5.644986,2.47235 5.673568,5.58496 0.02572,3.10403 -2.469503,5.64498 -5.587822,5.66785 -3.106886,0.0229 -5.644986,-2.47236 -5.667851,-5.57925 -0.01429,-3.10974 2.475219,-5.6507 5.582105,-5.67356" style="fill:#606060;fill-opacity:1;fill-rule:nonzero;stroke:none;stroke-width:0.33226079" id="path3027" inkscape:connector-curvature="0"/>
        <path d="m 75.835986,245.07619 c 3.052579,0.61166 5.030469,3.56992 4.424525,6.61679 -0.6088,3.04686 -3.575633,5.02474 -6.622497,4.41308 -3.055438,-0.60594 -5.030469,-3.56419 -4.41881,-6.6225 0.61166,-3.03542 3.575635,-5.01331 6.616782,-4.40737" style="fill:#606060;fill-opacity:1;fill-rule:nonzero;stroke:none;stroke-width:0.33226079" id="path3029" inkscape:connector-curvature="0"/>
        <path d="m 84.204856,220.85563 c 2.878229,1.18901 4.253033,4.47311 3.06973,7.33705 -1.183304,2.87537 -4.470257,4.25303 -7.339911,3.06687 -2.883945,-1.18331 -4.258749,-4.4674 -3.081163,-7.34849 1.200453,-2.86679 4.475974,-4.23588 7.351344,-3.05543" style="fill:#606060;fill-opacity:1;fill-rule:nonzero;stroke:none;stroke-width:0.33226079" id="path3031" inkscape:connector-curvature="0"/>
        <path d="m 97.241202,198.43575 c 2.583831,1.73207 3.304098,5.21053 1.586313,7.80865 -1.714933,2.58383 -5.216254,3.29553 -7.802943,1.57202 -2.595265,-1.71779 -3.304104,-5.20196 -1.580596,-7.80294 1.714931,-2.58669 5.210536,-3.2841 7.797226,-1.57773" style="fill:#606060;fill-opacity:1;fill-rule:nonzero;stroke:none;stroke-width:0.33226079" id="path3033" inkscape:connector-curvature="0"/>
        <path d="m 116.98007,176.62751 c 2.1551,2.25801 2.07222,5.80505 -0.16863,7.95158 -2.2437,2.15224 -5.80791,2.06935 -7.95443,-0.17721 -2.14938,-2.24656 -2.07792,-5.79933 0.18293,-7.96014 2.24656,-2.13796 5.79933,-2.06365 7.94013,0.18577" style="fill:#606060;fill-opacity:1;fill-rule:nonzero;stroke:none;stroke-width:0.33226079" id="path3035" inkscape:connector-curvature="0"/>
        <path d="m 135.94151,162.64795 c 1.70922,2.60099 1.01182,6.07659 -1.57487,7.80009 -2.59527,1.7178 -6.09373,1.01182 -7.80581,-1.58059 -1.71493,-2.59527 -1.01181,-6.07944 1.57488,-7.80009 2.6067,-1.71208 6.0823,-1.00609 7.8058,1.58059" style="fill:#606060;fill-opacity:1;fill-rule:nonzero;stroke:none;stroke-width:0.33226079" id="path3037" inkscape:connector-curvature="0"/>
        <path d="m 158.92733,151.52662 c 1.19473,2.87537 -0.16292,6.15946 -3.03544,7.35992 -2.86679,1.1833 -6.16232,-0.18006 -7.35134,-3.04115 -1.18902,-2.88394 0.1572,-6.1709 3.04686,-7.36277 2.8668,-1.18331 6.15661,0.1772 7.33992,3.044" style="fill:#606060;fill-opacity:1;fill-rule:nonzero;stroke:none;stroke-width:0.33226079" id="path3039" inkscape:connector-curvature="0"/>
        <path d="m 193.69187,128.82949 c 0,1.99218 -1.61204,3.60993 -3.60707,3.60993 -1.99505,0 -3.60995,-1.61775 -3.60995,-3.60993 0,-1.99219 1.6149,-3.60422 3.60995,-3.60422 1.99503,0 3.60707,1.61203 3.60707,3.60422" style="fill:#606060;fill-opacity:1;fill-rule:nonzero;stroke:none;stroke-width:0.33226079" id="path3041" inkscape:connector-curvature="0"/>
        <path d="m 207.38846,112.86633 c 0,1.59488 -1.29763,2.88108 -2.88395,2.88108 -1.59775,0 -2.88966,-1.2862 -2.88966,-2.88108 0,-1.59489 1.29191,-2.88109 2.88966,-2.88109 1.58632,0 2.88395,1.2862 2.88395,2.88109" style="fill:#606060;fill-opacity:1;fill-rule:nonzero;stroke:none;stroke-width:0.33226079" id="path3043" inkscape:connector-curvature="0"/>
        <path d="m 245.92299,118.05399 c -0.37728,1.5463 -1.92358,2.49524 -3.48417,2.12366 -1.5463,-0.38013 -2.50094,-1.94073 -2.11222,-3.48988 0.36871,-1.54344 1.93787,-2.48951 3.48703,-2.12366 1.53487,0.38014 2.48951,1.94359 2.10936,3.48988" style="fill:#606060;fill-opacity:1;fill-rule:nonzero;stroke:none;stroke-width:0.33226079" id="path3045" inkscape:connector-curvature="0"/>
        <path d="m 275.55703,128.86664 c -0.66311,1.44912 -2.38662,2.08937 -3.83002,1.41197 -1.45483,-0.66883 -2.07792,-2.37805 -1.40624,-3.83288 0.66596,-1.44054 2.36947,-2.07793 3.82144,-1.4091 1.4434,0.66883 2.0865,2.38376 1.41482,3.83001" style="fill:#606060;fill-opacity:1;fill-rule:nonzero;stroke:none;stroke-width:0.33226079" id="path3047" inkscape:connector-curvature="0"/>
        <path d="m 262.13482,429.10274 c -0.58308,-1.48342 0.16292,-3.15834 1.63491,-3.73284 1.48912,-0.5745 3.16118,0.15435 3.73283,1.64062 0.58308,1.48056 -0.1572,3.15834 -1.6349,3.73284 -1.47484,0.58022 -3.16119,-0.15435 -3.73284,-1.64062" style="fill:#606060;fill-opacity:1;fill-rule:nonzero;stroke:none;stroke-width:0.33226079" id="path3049" inkscape:connector-curvature="0"/>
        <path d="m 232.31501,437.12576 c -0.2944,-1.57202 0.74599,-3.07544 2.298,-3.36698 1.57488,-0.28582 3.08402,0.746 3.36413,2.31231 0.2944,1.57202 -0.7317,3.07544 -2.30658,3.36412 -1.56345,0.29154 -3.06687,-0.75171 -3.35555,-2.30945" style="fill:#606060;fill-opacity:1;fill-rule:nonzero;stroke:none;stroke-width:0.33226079" id="path3051" inkscape:connector-curvature="0"/>
        <path d="m 198.39364,439.28944 c 0.0457,-1.59774 1.36909,-2.85822 2.9554,-2.81535 1.6006,0.0486 2.85536,1.3748 2.80677,2.96112 -0.0286,1.59203 -1.35194,2.85536 -2.94968,2.80963 -1.58918,-0.04 -2.84965,-1.36909 -2.81249,-2.9554" style="fill:#606060;fill-opacity:1;fill-rule:nonzero;stroke:none;stroke-width:0.33226079" id="path3053" inkscape:connector-curvature="0"/>
        <path d="m 164.27791,434.25897 c 0.38301,-1.54915 1.94645,-2.5038 3.48418,-2.12651 1.54629,0.38014 2.49522,1.94073 2.12651,3.48131 -0.37729,1.54344 -1.93501,2.5038 -3.47845,2.12937 -1.54916,-0.37443 -2.50667,-1.94645 -2.13224,-3.48417" style="fill:#606060;fill-opacity:1;fill-rule:nonzero;stroke:none;stroke-width:0.33226079" id="path3055" inkscape:connector-curvature="0"/>
        <path d="m 134.10939,423.21767 c 0.67454,-1.44626 2.38662,-2.06936 3.82144,-1.39767 1.44912,0.67168 2.08079,2.38089 1.4091,3.82715 -0.66881,1.45198 -2.37518,2.08079 -3.83001,1.40339 -1.4434,-0.66883 -2.06935,-2.38376 -1.40053,-3.83287" style="fill:#606060;fill-opacity:1;fill-rule:nonzero;stroke:none;stroke-width:0.33226079" id="path3057" inkscape:connector-curvature="0"/>
        <path d="m 105.00127,405.19944 c 0.95465,-1.27477 2.75818,-1.532 4.03867,-0.5745 1.26047,0.96893 1.51486,2.76962 0.56306,4.04152 -0.94321,1.27763 -2.76389,1.53773 -4.03294,0.57165 -1.2662,-0.96037 -1.53201,-2.76677 -0.56879,-4.03867" style="fill:#606060;fill-opacity:1;fill-rule:nonzero;stroke:none;stroke-width:0.33226079" id="path3059" inkscape:connector-curvature="0"/>
        <path d="m 83.78184,385.51201 c 1.166154,-1.08612 2.992557,-1.01752 4.075823,0.15435 1.083266,1.17473 1.020385,2.99541 -0.148627,4.07011 -1.169013,1.08898 -2.995416,1.03181 -4.075824,-0.14577 -1.088982,-1.16615 -1.017526,-2.98971 0.148628,-4.07869" style="fill:#606060;fill-opacity:1;fill-rule:nonzero;stroke:none;stroke-width:0.33226079" id="path3061" inkscape:connector-curvature="0"/>
        <path d="m 66.766851,363.01495 c 1.334789,-0.86889 3.129752,-0.48017 3.98436,0.85748 0.866041,1.33478 0.488755,3.11546 -0.846033,3.97863 -1.346223,0.8689 -3.121177,0.49163 -3.987218,-0.84317 -0.863183,-1.3405 -0.491614,-3.12689 0.848891,-3.99294" style="fill:#606060;fill-opacity:1;fill-rule:nonzero;stroke:none;stroke-width:0.33226079" id="path3063" inkscape:connector-curvature="0"/>
        <path d="m 54.979548,340.56364 c 1.460551,-0.65168 3.166909,-0.006 3.810009,1.44911 0.648816,1.46341 0,3.17263 -1.454835,3.81001 -1.457692,0.65453 -3.166909,0.006 -3.821441,-1.45198 -0.637383,-1.44911 0.01143,-3.15833 1.466267,-3.80714" style="fill:#606060;fill-opacity:1;fill-rule:nonzero;stroke:none;stroke-width:0.33226079" id="path3065" inkscape:connector-curvature="0"/>
        <path d="m 45.57886,311.36691 c 1.546297,-0.363 3.106886,0.5945 3.475596,2.13794 0.35442,1.56345 -0.597368,3.11261 -2.146524,3.4756 -1.55773,0.37157 -3.112602,-0.58879 -3.46988,-2.14938 -0.365852,-1.54344 0.591652,-3.0926 2.140808,-3.46416" style="fill:#606060;fill-opacity:1;fill-rule:nonzero;stroke:none;stroke-width:0.33226079" id="path3067" inkscape:connector-curvature="0"/>
        <path d="m 41.731695,275.37047 c 1.600603,-0.0257 2.898236,1.24905 2.915385,2.84965 0.0057,1.59489 -1.269051,2.89824 -2.855363,2.90681 -1.597746,0.02 -2.901094,-1.24905 -2.915385,-2.84965 -0.02287,-1.59774 1.26905,-2.89823 2.855363,-2.90681" style="fill:#606060;fill-opacity:1;fill-rule:nonzero;stroke:none;stroke-width:0.33226079" id="path3069" inkscape:connector-curvature="0"/>
        <path d="m 44.732826,244.96758 c 1.563447,0.27439 2.612414,1.77495 2.326592,3.34126 -0.282963,1.56917 -1.780671,2.61527 -3.338402,2.3323 -1.580596,-0.27724 -2.61813,-1.7778 -2.332308,-3.34983 0.277248,-1.5663 1.774955,-2.60955 3.344118,-2.32373" style="fill:#606060;fill-opacity:1;fill-rule:nonzero;stroke:none;stroke-width:0.33226079" id="path3071" inkscape:connector-curvature="0"/>
        <path d="m 54.696584,212.381 c 1.474843,0.59451 2.177964,2.27515 1.586313,3.74999 -0.605943,1.4777 -2.289435,2.18939 -3.761419,1.58345 -1.4777,-0.60022 -2.186539,-2.28086 -1.586313,-3.7557 0.59451,-1.46913 2.283719,-2.18939 3.761419,-1.57774" style="fill:#606060;fill-opacity:1;fill-rule:nonzero;stroke:none;stroke-width:0.33226079" id="path3073" inkscape:connector-curvature="0"/>
        <path d="m 70.891264,183.00707 c 1.331931,0.88891 1.680634,2.68387 0.774577,3.99865 -0.888906,1.32907 -2.681011,1.68349 -3.987218,0.77743 -1.326214,-0.88604 -1.68635,-2.66958 -0.791727,-3.99579 0.894624,-1.31764 2.686728,-1.66635 4.004368,-0.78029" style="fill:#606060;fill-opacity:1;fill-rule:nonzero;stroke:none;stroke-width:0.33226079" id="path3075" inkscape:connector-curvature="0"/>
        <path d="m 92.785236,157.52889 c 1.117563,1.14614 1.100414,2.96111 -0.04573,4.07296 -1.154722,1.1147 -2.981124,1.08612 -4.075823,-0.0543 -1.123281,-1.14328 -1.094698,-2.96111 0.04859,-4.07581 1.14043,-1.11185 2.961117,-1.08327 4.072965,0.0572" style="fill:#606060;fill-opacity:1;fill-rule:nonzero;stroke:none;stroke-width:0.33226079" id="path3077" inkscape:connector-curvature="0"/>
        <path d="m 117.96045,137.99008 c 0.87461,1.3348 0.49161,3.12118 -0.83746,3.99008 -1.34623,0.86604 -3.13261,0.48876 -3.98437,-0.84318 -0.88318,-1.33478 -0.50018,-3.12403 0.83461,-3.99293 1.33479,-0.87461 3.12117,-0.4859 3.98722,0.84603" style="fill:#606060;fill-opacity:1;fill-rule:nonzero;stroke:none;stroke-width:0.33226079" id="path3079" inkscape:connector-curvature="0"/>
        <path d="m 147.57162,123.28454 c 0.58879,1.48627 -0.14291,3.15262 -1.62634,3.73855 -1.48627,0.58022 -3.15547,-0.14862 -3.72712,-1.63204 -0.5945,-1.48628 0.14291,-3.15262 1.62061,-3.74141 1.48056,-0.58022 3.15263,0.15434 3.73285,1.6349" style="fill:#606060;fill-opacity:1;fill-rule:nonzero;stroke:none;stroke-width:0.33226079" id="path3081" inkscape:connector-curvature="0"/>
        <path d="m 174.87334,115.65595 c 0.32298,1.56345 -0.69169,3.08116 -2.24942,3.39843 -1.56631,0.31154 -3.08974,-0.69455 -3.39556,-2.25228 -0.3287,-1.56345 0.68597,-3.08403 2.25513,-3.40129 1.55773,-0.31726 3.06973,0.6917 3.38985,2.25514" style="fill:#606060;fill-opacity:1;fill-rule:nonzero;stroke:none;stroke-width:0.33226079" id="path3083" inkscape:connector-curvature="0"/>
        <path d="m 226.89296,130.02137 c -0.44303,1.94358 -2.37804,3.15834 -4.32163,2.70959 -1.93502,-0.44588 -3.14976,-2.37804 -2.70388,-4.31877 0.44017,-1.93788 2.37519,-3.1469 4.31592,-2.70673 1.94073,0.44302 3.15547,2.37803 2.70959,4.31591" style="fill:#606060;fill-opacity:1;fill-rule:nonzero;stroke:none;stroke-width:0.33226079" id="path3085" inkscape:connector-curvature="0"/>
        <path d="m 256.60417,137.69569 c -0.84032,1.80354 -2.98113,2.5924 -4.78467,1.75781 -1.80925,-0.83747 -2.60098,-2.98112 -1.76638,-4.78467 0.84032,-1.81497 2.98684,-2.59812 4.79038,-1.76066 1.81497,0.83746 2.58384,2.98113 1.76067,4.78752" style="fill:#606060;fill-opacity:1;fill-rule:nonzero;stroke:none;stroke-width:0.33226079" id="path3087" inkscape:connector-curvature="0"/>
        <path id="path3135" style="fill:#606060;fill-opacity:1;fill-rule:nonzero;stroke:none;stroke-width:0.33226079" d="m 271.46125,408.08342 c -0.76029,-1.83498 0.11433,-3.94435 1.97789,-4.69892 1.82355,-0.75742 3.93291,0.12577 4.69034,1.96646 0.74885,1.83784 -0.12576,3.94434 -1.96074,4.70749 -1.84355,0.75171 -3.95292,-0.13148 -4.70749,-1.97503" inkscape:connector-curvature="0"/>
        <path id="path3137" style="fill:#606060;fill-opacity:1;fill-rule:nonzero;stroke:none;stroke-width:0.33226079" d="m 244.76833,418.43018 c -0.40015,-1.95788 0.87175,-3.85574 2.82678,-4.24732 1.95216,-0.383 3.85288,0.88891 4.23588,2.84393 0.39729,1.94931 -0.87462,3.85574 -2.82392,4.23303 -1.96074,0.38872 -3.86432,-0.88319 -4.23874,-2.82964" inkscape:connector-curvature="0"/>
        <path id="path3139" style="fill:#606060;fill-opacity:1;fill-rule:nonzero;stroke:none;stroke-width:0.33226079" d="m 214.1625,423.58927 c 0.02,-1.99218 1.65491,-3.58135 3.64995,-3.55563 1.99503,0.0314 3.58706,1.67206 3.54705,3.66138 -0.02,1.99218 -1.66063,3.58135 -3.64995,3.54991 -1.99504,-0.0314 -3.58135,-1.66634 -3.54705,-3.65566" inkscape:connector-curvature="0"/>
        <path id="path3141" style="fill:#606060;fill-opacity:1;fill-rule:nonzero;stroke:none;stroke-width:0.33226079" d="m 181.90462,422.0544 c 0.46303,-1.93501 2.39804,-3.13547 4.33592,-2.67529 1.9293,0.46017 3.13547,2.40662 2.66672,4.34164 -0.45732,1.93787 -2.39233,3.13546 -4.3445,2.66672 -1.9293,-0.45732 -3.11546,-2.39805 -2.65814,-4.33307" inkscape:connector-curvature="0"/>
        <path id="path3143" style="fill:#606060;fill-opacity:1;fill-rule:nonzero;stroke:none;stroke-width:0.33226079" d="m 156.02914,415.51765 c 0.8003,-1.82069 2.93825,-2.64957 4.76751,-1.85498 1.80926,0.81173 2.63814,2.93539 1.83784,4.75893 -0.80316,1.82069 -2.92682,2.65243 -4.75322,1.84641 -1.82069,-0.8003 -2.64385,-2.93253 -1.85213,-4.75036" inkscape:connector-curvature="0"/>
        <path id="path3145" style="fill:#606060;fill-opacity:1;fill-rule:nonzero;stroke:none;stroke-width:0.33226079" d="m 126.8953,401.52666 c 1.18044,-1.6006 3.43844,-1.94931 5.03904,-0.76886 1.60918,1.17759 1.94645,3.43558 0.75743,5.03333 -1.16616,1.60917 -3.42129,1.95788 -5.02475,0.78029 -1.60632,-1.17473 -1.94931,-3.43844 -0.77172,-5.04476" inkscape:connector-curvature="0"/>
        <path id="path3147" style="fill:#606060;fill-opacity:1;fill-rule:nonzero;stroke:none;stroke-width:0.33226079" d="m 104.42396,384.33446 c 1.47199,-1.34336 3.74999,-1.25476 5.10193,0.20865 1.34622,1.45484 1.25476,3.74713 -0.21151,5.09335 -1.46055,1.34908 -3.73855,1.25476 -5.09049,-0.20007 -1.35766,-1.46341 -1.26048,-3.74713 0.20007,-5.10193" inkscape:connector-curvature="0"/>
        <path id="path3149" style="fill:#606060;fill-opacity:1;fill-rule:nonzero;stroke:none;stroke-width:0.33226079" d="m 87.243198,365.32729 c 1.67206,-1.07469 3.890039,-0.59451 4.984738,1.08041 1.074691,1.67206 0.588793,3.91005 -1.100416,4.97616 -1.663484,1.07755 -3.890038,0.60309 -4.970446,-1.07469 -1.083265,-1.68063 -0.59451,-3.90719 1.086124,-4.98188" inkscape:connector-curvature="0"/>
        <path id="path3151" style="fill:#606060;fill-opacity:1;fill-rule:nonzero;stroke:none;stroke-width:0.33226079" d="m 73.901023,344.23076 c 1.840694,-0.78029 3.950061,0.0715 4.736072,1.9093 0.783153,1.8264 -0.07146,3.9472 -1.906433,4.71606 -1.83212,0.77458 -3.941487,-0.0686 -4.733214,-1.89214 -0.77172,-1.83498 0.07717,-3.95578 1.903575,-4.73322" inkscape:connector-curvature="0"/>
        <path id="path3153" style="fill:#606060;fill-opacity:1;fill-rule:nonzero;stroke:none;stroke-width:0.33226079" d="m 63.694316,319.21847 c 1.949307,-0.44016 3.867173,0.78601 4.310197,2.73246 0.440166,1.94073 -0.794585,3.86718 -2.741033,4.29877 -1.940732,0.43445 -3.858599,-0.78887 -4.301623,-2.73818 -0.428733,-1.93501 0.797444,-3.86431 2.732459,-4.29305" inkscape:connector-curvature="0"/>
        <path id="path3155" style="fill:#606060;fill-opacity:1;fill-rule:nonzero;stroke:none;stroke-width:0.33226079" d="m 57.720635,287.53795 c 1.995038,-0.006 3.607074,1.60918 3.607074,3.60708 0,1.9836 -1.612036,3.60421 -3.607074,3.60136 -1.977889,0.003 -3.598501,-1.60918 -3.607075,-3.5985 0,-1.99218 1.623469,-3.60994 3.607075,-3.60994" inkscape:connector-curvature="0"/>
        <path id="path3157" style="fill:#606060;fill-opacity:1;fill-rule:nonzero;stroke:none;stroke-width:0.33226079" d="m 58.212249,259.58169 c 1.955023,0.36586 3.235506,2.25514 2.863937,4.21874 -0.374427,1.95216 -2.272286,3.23836 -4.215876,2.85822 -1.952165,-0.37157 -3.238364,-2.258 -2.866795,-4.21302 0.374426,-1.95788 2.260852,-3.24122 4.218734,-2.86394" inkscape:connector-curvature="0"/>
        <path id="path3159" style="fill:#606060;fill-opacity:1;fill-rule:nonzero;stroke:none;stroke-width:0.33226079" d="m 64.446028,230.66793 c 1.846411,0.75457 2.729601,2.85822 1.966456,4.69892 -0.751712,1.84355 -2.861079,2.72674 -4.707489,1.96645 -1.837836,-0.75171 -2.71531,-2.85822 -1.963598,-4.69605 0.757428,-1.8407 2.866795,-2.72389 4.704631,-1.96932" inkscape:connector-curvature="0"/>
        <path id="path3161" style="fill:#606060;fill-opacity:1;fill-rule:nonzero;stroke:none;stroke-width:0.33226079" d="m 76.276205,203.66632 c 1.646335,1.10327 2.097934,3.34698 0.997519,4.99903 -1.106132,1.65491 -3.349835,2.09793 -5.001887,0.99466 -1.657768,-1.11185 -2.109367,-3.34984 -0.997519,-5.00189 1.106132,-1.64919 3.346977,-2.09793 5.001887,-0.9918" inkscape:connector-curvature="0"/>
        <path id="path3163" style="fill:#606060;fill-opacity:1;fill-rule:nonzero;stroke:none;stroke-width:0.33226079" d="m 94.668856,177.90517 c 1.386237,1.42626 1.334789,3.70997 -0.09718,5.10193 -1.437685,1.37766 -3.709971,1.33479 -5.096208,-0.10861 -1.377663,-1.42626 -1.340506,-3.70998 0.09432,-5.08764 1.426252,-1.37766 3.715687,-1.33765 5.099066,0.0943" inkscape:connector-curvature="0"/>
        <path id="path3165" style="fill:#606060;fill-opacity:1;fill-rule:nonzero;stroke:none;stroke-width:0.33226079" d="m 116.17983,158.09484 c 1.07469,1.67206 0.58307,3.90719 -1.10042,4.97331 -1.68349,1.07469 -3.9129,0.57736 -4.96473,-1.0947 -1.07469,-1.67778 -0.58879,-3.90719 1.08327,-4.97902 1.68063,-1.07469 3.90719,-0.5745 4.98188,1.10041" inkscape:connector-curvature="0"/>
        <path id="path3167" style="fill:#606060;fill-opacity:1;fill-rule:nonzero;stroke:none;stroke-width:0.33226079" d="m 139.66869,143.63796 c 0.75171,1.84356 -0.15435,3.93863 -2.00076,4.68463 -1.83498,0.74599 -3.94434,-0.16292 -4.68176,-2.00933 -0.74028,-1.8407 0.15434,-3.94149 2.00647,-4.68463 1.83783,-0.73456 3.94148,0.16292 4.67605,2.00933" inkscape:connector-curvature="0"/>
        <path id="path3169" style="fill:#606060;fill-opacity:1;fill-rule:nonzero;stroke:none;stroke-width:0.33226079" d="m 166.79606,133.4284 c 0.37157,1.95788 -0.92035,3.83859 -2.87537,4.2073 -1.95788,0.36299 -3.83859,-0.92606 -4.19873,-2.88966 -0.37442,-1.94645 0.90606,-3.83288 2.8668,-4.19873 1.95788,-0.36299 3.85288,0.92892 4.2073,2.88109" inkscape:connector-curvature="0"/>
      </g>
      <path inkscape:connector-curvature="0" id="path2881-9" style="fill:#606060;fill-opacity:1;fill-rule:nonzero;stroke:none;stroke-width:1" d="M 580.28847,44.409064 C 572.5382,31.02744 577.08704,13.908146 590.49286,6.1319654 c 13.38081,-7.731035 30.50348,-3.170551 38.24126,10.2336176 7.75108,13.362425 3.17055,30.503481 -10.18436,38.258741 -13.38081,7.73103 -30.51018,3.14714 -38.26129,-10.21526"/>
      <g style="fill:url(#linearGradient2240);fill-opacity:1;stroke-width:0.33226079" id="g2232" transform="matrix(3.009684,0,0,3.009684,-86.025969,-945.75916)">
        <path d="m 241.58047,234.72245 c -2.89106,4.25046 -8.67478,5.35903 -12.92299,2.47573 -4.26211,-2.88773 -5.36319,-8.66728 -2.47573,-12.92301 2.87691,-4.24849 8.662,-5.35956 12.91247,-2.46849 4.26125,2.87745 5.36317,8.66728 2.48625,12.91577" style="fill:url(#linearGradient2390);fill-opacity:1;fill-rule:nonzero;stroke:none;stroke-width:0.33226079" id="path2871-5" inkscape:connector-curvature="0"/>
        <path d="m 255.70088,253.70993 c -4.29657,2.81813 -10.0676,1.60388 -12.88185,-2.6938 -2.80648,-4.29991 -1.60665,-10.0626 2.6988,-12.87907 4.2938,-2.81314 10.06481,-1.59889 12.87907,2.6988 2.80786,4.2974 1.60138,10.0662 -2.69602,12.87407" style="fill:url(#linearGradient2392);fill-opacity:1;fill-rule:nonzero;stroke:none;stroke-width:0.33226079" id="path2873-3" inkscape:connector-curvature="0"/>
        <path d="m 260.49368,277.44912 c -5.06275,0.85125 -9.85929,-2.55807 -10.71277,-7.62859 -0.85209,-5.07302 2.55972,-9.86818 7.63025,-10.72166 5.06414,-0.85376 9.86514,2.57111 10.71863,7.64163 0.85263,5.06026 -2.57336,9.85737 -7.63611,10.70862" style="fill:url(#linearGradient2394);fill-opacity:1;fill-rule:nonzero;stroke:none;stroke-width:0.33226079" id="path2875-5" inkscape:connector-curvature="0"/>
        <path d="m 254.91935,300.24626 c -4.98457,-1.23594 -8.02286,-6.28517 -6.79191,-11.27249 1.25398,-4.98765 6.29404,-8.02121 11.29,-6.78222 4.98318,1.23844 8.0137,6.28989 6.77971,11.28861 -1.24179,4.97153 -6.296,8.00704 -11.2778,6.7661" style="fill:url(#linearGradient2396);fill-opacity:1;fill-rule:nonzero;stroke:none;stroke-width:0.33226079" id="path2877-6" inkscape:connector-curvature="0"/>
        <path d="m 241.43189,317.65053 c -4.13488,-3.0525 -5.00752,-8.87866 -1.94865,-13.01327 3.05584,-4.1232 8.87674,-4.99224 13.00745,-1.93224 4.13488,3.05249 5.00447,8.89005 1.94864,13.01326 -3.05723,4.12571 -8.88951,4.9917 -13.00744,1.93225" style="fill:url(#linearGradient2398);fill-opacity:1;fill-rule:nonzero;stroke:none;stroke-width:0.33226079" id="path2879-2" inkscape:connector-curvature="0"/>
        <path d="m 240.47178,208.16232 c 2.1375,-3.85761 6.99672,-5.24971 10.85684,-3.11082 3.85262,2.13473 5.2436,6.99007 3.1061,10.84768 -2.13335,3.85012 -6.99034,5.25 -10.84296,3.11526 -3.86012,-2.13889 -5.25333,-7.002 -3.11998,-10.85212" style="fill:url(#linearGradient2400);fill-opacity:1;fill-rule:nonzero;stroke:none;stroke-width:0.33226079" id="path2887-7" inkscape:connector-curvature="0"/>
        <path d="m 259.22023,331.39711 c 2.93362,3.29203 2.65081,8.33744 -0.64011,11.27494 -3.29452,2.93223 -8.33051,2.63829 -11.27468,-0.6465 -2.93111,-3.29065 -2.64689,-8.33856 0.65152,-11.27191 3.28175,-2.93277 8.32301,-2.64243 11.26327,0.64347" style="fill:url(#linearGradient2402);fill-opacity:1;fill-rule:nonzero;stroke:none;stroke-width:0.33226079" id="path2899-6" inkscape:connector-curvature="0"/>
        <path d="m 274.24986,311.47386 c 3.77505,2.27474 4.99507,7.17911 2.72145,10.95805 -2.28363,3.77339 -7.1905,4.99202 -10.95916,2.71756 -3.78032,-2.27113 -4.99146,-7.17385 -2.72534,-10.95693 2.27224,-3.77643 7.17913,-4.99508 10.96305,-2.71868" style="fill:url(#linearGradient2404);fill-opacity:1;fill-rule:nonzero;stroke:none;stroke-width:0.33226079" id="path2903-6" inkscape:connector-curvature="0"/>
        <path d="m 280.50743,292.12439 c 4.30633,0.96797 7.01588,5.2305 6.04541,9.53546 -0.95992,4.29772 -5.23523,7.00672 -9.53295,6.0468 -4.29021,-0.95578 -7.01061,-5.23412 -6.03653,-9.5338 0.9627,-4.30273 5.22247,-7.00727 9.52407,-6.04846" style="fill:url(#linearGradient2406);fill-opacity:1;fill-rule:nonzero;stroke:none;stroke-width:0.33226079" id="path2905-1" inkscape:connector-curvature="0"/>
        <path d="m 281.53603,269.53537 c 4.37682,-0.54511 8.37183,2.54751 8.93109,6.92238 0.54927,4.36933 -2.54613,8.36933 -6.91573,8.92498 -4.37237,0.56065 -8.36987,-2.53336 -8.93163,-6.90961 -0.54788,-4.37183 2.54112,-8.37209 6.91627,-8.93775" style="fill:url(#linearGradient2408);fill-opacity:1;fill-rule:nonzero;stroke:none;stroke-width:0.33226079" id="path2907-8" inkscape:connector-curvature="0"/>
        <path d="m 260.41125,222.91852 c 3.33956,-2.87786 8.37311,-2.52646 11.26515,0.81114 2.87978,3.3243 2.52784,8.37062 -0.80949,11.25625 -3.33345,2.88453 -8.37813,2.5237 -11.26153,-0.80587 -2.8834,-3.32956 -2.52145,-8.37034 0.80587,-11.26152" style="fill:url(#linearGradient2410);fill-opacity:1;fill-rule:nonzero;stroke:none;stroke-width:0.33226079" id="path2909-7" inkscape:connector-curvature="0"/>
        <path d="m 274.77603,245.30067 c 3.97555,-1.91442 8.746,-0.24488 10.66181,3.72816 1.90691,3.97137 0.23848,8.74571 -3.72929,10.65791 -3.97664,1.91053 -8.74322,0.23987 -10.65513,-3.73429 -1.91218,-3.96776 -0.24377,-8.7421 3.72261,-10.65178" style="fill:url(#linearGradient2412);fill-opacity:1;fill-rule:nonzero;stroke:none;stroke-width:0.33226079" id="path2911-9" inkscape:connector-curvature="0"/>
        <path d="m 291.866,319.79909 c -3.38174,-1.8346 -4.61681,-6.05131 -2.78472,-9.43443 1.83544,-3.37147 6.06131,-4.61127 9.42917,-2.7811 3.38396,1.84236 4.61153,6.05493 2.78886,9.42692 -1.84351,3.38006 -6.05935,4.62544 -9.43331,2.78861" style="fill:url(#linearGradient2414);fill-opacity:1;fill-rule:nonzero;stroke:none;stroke-width:0.33226079" id="path2919-3" inkscape:connector-curvature="0"/>
        <path d="m 280.94452,336.91645 c -2.94437,-2.46471 -3.33957,-6.8467 -0.88234,-9.79521 2.46109,-2.94963 6.84809,-3.34207 9.78883,-0.88261 2.95712,2.46526 3.34094,6.8442 0.88761,9.7916 -2.45999,2.95351 -6.84198,3.34871 -9.7941,0.88622" style="fill:url(#linearGradient2416);fill-opacity:1;fill-rule:nonzero;stroke:none;stroke-width:0.33226079" id="path2921-7" inkscape:connector-curvature="0"/>
        <path d="m 268.22124,350.12816 c -2.43327,-2.96248 -2.00729,-7.3404 0.96436,-9.7784 2.96166,-2.44352 7.34707,-2.01339 9.78395,0.95438 2.43964,2.96277 2.01089,7.34568 -0.95799,9.77867 -2.95665,2.4463 -7.34345,2.01867 -9.79032,-0.95465" style="fill:url(#linearGradient2418);fill-opacity:1;fill-rule:nonzero;stroke:none;stroke-width:0.33226079" id="path2923-5" inkscape:connector-curvature="0"/>
        <path d="m 252.19691,361.19426 c -1.76332,-3.40493 -0.43544,-7.60006 2.95976,-9.3753 3.41048,-1.77332 7.60811,-0.44406 9.37892,2.96503 1.76971,3.4052 0.44959,7.5981 -2.95699,9.3703 -3.40824,1.78109 -7.60199,0.45071 -9.38169,-2.96003" style="fill:url(#linearGradient2420);fill-opacity:1;fill-rule:nonzero;stroke:none;stroke-width:0.33226079" id="path2925-9" inkscape:connector-curvature="0"/>
        <path d="m 265.98866,198.56935 c -1.83959,3.37897 -6.05908,4.61905 -9.43776,2.77307 -3.37033,-1.8316 -4.60516,-6.05467 -2.78111,-9.42916 1.84932,-3.36703 6.07296,-4.61462 9.43916,-2.77556 3.36897,1.83404 4.61628,6.06408 2.77971,9.43165" style="fill:url(#linearGradient2422);fill-opacity:1;fill-rule:nonzero;stroke:none;stroke-width:0.33226079" id="path2935-7" inkscape:connector-curvature="0"/>
        <path d="m 279.40602,211.59539 c -2.46222,2.94574 -6.85033,3.33428 -9.79995,0.87318 -2.94212,-2.45695 -3.33957,-6.84671 -0.87734,-9.79245 2.45971,-2.94712 6.84671,-3.33956 9.80022,-0.87957 2.94823,2.46361 3.33429,6.85034 0.87707,9.79884" style="fill:url(#linearGradient2424);fill-opacity:1;fill-rule:nonzero;stroke:none;stroke-width:0.33226079" id="path2937-3" inkscape:connector-curvature="0"/>
        <path d="m 291.04037,227.42785 c -2.96888,2.43301 -7.34817,2.00952 -9.7906,-0.94826 -2.43272,-2.97526 -2.01173,-7.35594 0.95769,-9.80171 2.96638,-2.43438 7.3504,-2.00173 9.7809,0.96576 2.43826,2.96527 2.0209,7.35122 -0.94799,9.78421" style="fill:url(#linearGradient2426);fill-opacity:1;fill-rule:nonzero;stroke:none;stroke-width:0.33226079" id="path2939-6" inkscape:connector-curvature="0"/>
        <path d="m 297.96352,243.80207 c -3.41548,1.77055 -7.61199,0.44516 -9.38392,-2.96781 -1.77109,-3.40269 -0.44044,-7.60283 2.96976,-9.36976 3.39908,-1.77636 7.60034,-0.44182 9.37392,2.96226 1.77331,3.41047 0.43767,7.60783 -2.95976,9.37531" style="fill:url(#linearGradient2428);fill-opacity:1;fill-rule:nonzero;stroke:none;stroke-width:0.33226079" id="path2941-1" inkscape:connector-curvature="0"/>
        <path d="m 302.24248,262.96321 c -3.6658,1.09594 -7.54058,-0.99879 -8.62961,-4.67706 -1.10652,-3.688 1.00183,-7.55197 4.6754,-8.65014 3.6808,-1.08763 7.55335,0.99934 8.64597,4.68292 1.08986,3.68856 -1.00321,7.55447 -4.69182,8.6443" style="fill:url(#linearGradient2430);fill-opacity:1;fill-rule:nonzero;stroke:none;stroke-width:0.33226079" id="path2943-2" inkscape:connector-curvature="0"/>
        <path d="m 303.12203,283.98072 c -3.82909,0.29964 -7.17337,-2.56968 -7.47191,-6.39488 -0.29853,-3.8252 2.5658,-7.17227 6.39488,-7.47191 3.83131,-0.29187 7.17727,2.56855 7.46914,6.39988 0.29215,3.82493 -2.56663,7.16199 -6.39211,7.46691" style="fill:url(#linearGradient2432);fill-opacity:1;fill-rule:nonzero;stroke:none;stroke-width:0.33226079" id="path2945-9" inkscape:connector-curvature="0"/>
        <path d="m 299.83491,303.10767 c -3.82954,-0.35413 -6.6414,-3.74207 -6.28029,-7.55469 0.34413,-3.83508 3.72572,-6.64718 7.56022,-6.29029 3.81454,0.34583 6.62889,3.73515 6.26752,7.55415 -0.34385,3.82869 -3.72287,6.64222 -7.54745,6.29083" style="fill:url(#linearGradient2434);fill-opacity:1;fill-rule:nonzero;stroke:none;stroke-width:0.33226079" id="path2947-3" inkscape:connector-curvature="0"/>
        <path d="m 281.52774,191.21674 c -2.17766,2.44986 -5.92216,2.68529 -8.3673,0.51678 -2.45458,-2.15739 -2.67834,-5.90523 -0.50957,-8.35676 2.1574,-2.45457 5.90272,-2.67973 8.35452,-0.51733 2.45292,2.16627 2.68336,5.90799 0.52235,8.35731" style="fill:url(#linearGradient2436);fill-opacity:1;fill-rule:nonzero;stroke:none;stroke-width:0.33226079" id="path2969-1" inkscape:connector-curvature="0"/>
        <path d="m 296.79736,207.84444 c -2.55621,2.05387 -6.27808,1.66463 -8.3361,-0.88409 -2.05552,-2.54732 -1.65297,-6.28142 0.88381,-8.3297 2.54871,-2.05803 6.28308,-1.66186 8.33611,0.88408 2.04775,2.54956 1.65435,6.27892 -0.88382,8.32971" style="fill:url(#linearGradient2438);fill-opacity:1;fill-rule:nonzero;stroke:none;stroke-width:0.33226079" id="path2971-0" inkscape:connector-curvature="0"/>
        <path d="m 308.09975,227.11482 c -2.95865,1.40608 -6.49856,0.13411 -7.89075,-2.82011 -1.40608,-2.95865 -0.13577,-6.48966 2.82372,-7.88548 2.96338,-1.39693 6.48939,-0.12937 7.88937,2.82262 1.3933,2.9581 0.12936,6.48938 -2.82234,7.88297" style="fill:url(#linearGradient2440);fill-opacity:1;fill-rule:nonzero;stroke:none;stroke-width:0.33226079" id="path2973-6" inkscape:connector-curvature="0"/>
        <path d="m 315.16627,247.72574 c -3.15414,0.85662 -6.41401,-0.98561 -7.28925,-4.15334 -0.85939,-3.14914 1.00062,-6.40569 4.14753,-7.27286 3.15468,-0.86939 6.42401,0.99116 7.28838,4.1431 0.86024,3.15941 -0.98561,6.414 -4.14669,7.28311" style="fill:url(#linearGradient2442);fill-opacity:1;fill-rule:nonzero;stroke:none;stroke-width:0.33226079" id="path2975-3" inkscape:connector-curvature="0"/>
        <path d="m 318.99314,270.71791 c -3.26339,0.23406 -6.10611,-2.21357 -6.34043,-5.47055 -0.25461,-3.26171 2.19217,-6.1147 5.45639,-6.33848 3.27309,-0.25156 6.10667,2.2008 6.35237,5.46083 0.23905,3.26615 -2.20442,6.10138 -5.46833,6.3482" style="fill:url(#linearGradient2444);fill-opacity:1;fill-rule:nonzero;stroke:none;stroke-width:0.33226079" id="path2977-2" inkscape:connector-curvature="0"/>
        <path d="m 316.80203,295.54158 c -3.14526,-0.8932 -4.98561,-4.17088 -4.08992,-7.31476 0.88708,-3.15192 4.16311,-4.98339 7.3145,-4.08354 3.1508,0.8832 4.97838,4.16035 4.08907,7.30449 -0.89458,3.14777 -4.16035,4.9784 -7.31365,4.09381" style="fill:url(#linearGradient2446);fill-opacity:1;fill-rule:nonzero;stroke:none;stroke-width:0.33226079" id="path2981-6" inkscape:connector-curvature="0"/>
        <path d="m 311.16143,315.76487 c -2.89089,-1.55279 -3.97702,-5.14782 -2.41698,-8.02816 1.53951,-2.87864 5.13425,-3.95839 8.02012,-2.40835 2.88588,1.55002 3.96063,5.14202 2.41974,8.02316 -1.56254,2.87894 -5.14563,3.95535 -8.02288,2.41335" style="fill:url(#linearGradient2448);fill-opacity:1;fill-rule:nonzero;stroke:none;stroke-width:0.33226079" id="path2983-1" inkscape:connector-curvature="0"/>
        <path d="m 301.95639,334.7294 c -2.49589,-2.11821 -2.81098,-5.85455 -0.69556,-8.34545 2.11321,-2.49867 5.86178,-2.80045 8.35684,-0.69252 2.48866,2.10767 2.79848,5.84763 0.68805,8.34129 -2.10293,2.49783 -5.84928,2.80738 -8.34933,0.69668" style="fill:url(#linearGradient2450);fill-opacity:1;fill-rule:nonzero;stroke:none;stroke-width:0.33226079" id="path2985-5" inkscape:connector-curvature="0"/>
        <path d="m 287.76593,353.41573 c -2.02528,-2.56651 -1.58054,-6.3001 0.98598,-8.32537 2.5679,-2.02779 6.28761,-1.58748 8.31762,0.9882 2.02528,2.56652 1.58608,6.2901 -0.98321,8.32039 -2.56652,2.02529 -6.28483,1.58246 -8.32039,-0.98322" style="fill:url(#linearGradient2452);fill-opacity:1;fill-rule:nonzero;stroke:none;stroke-width:0.33226079" id="path2987-5" inkscape:connector-curvature="0"/>
        <path d="m 271.41425,368.02472 c -1.4774,-2.93607 -0.29038,-6.49364 2.62737,-7.96158 2.92638,-1.45992 6.48977,-0.28929 7.95717,2.64125 1.46156,2.91749 0.28595,6.4781 -2.63598,7.95355 -2.92666,1.46629 -6.48672,0.27789 -7.94856,-2.63322" style="fill:url(#linearGradient2454);fill-opacity:1;fill-rule:nonzero;stroke:none;stroke-width:0.33226079" id="path2989-4" inkscape:connector-curvature="0"/>
        <path d="m 283.52081,168.26618 c -1.56744,2.69326 -5.01194,3.60792 -7.68989,2.04238 -2.69074,-1.56605 -3.59903,-5.01027 -2.0271,-7.68796 1.55968,-2.69101 4.9989,-3.60208 7.68099,-2.04403 2.68407,1.57219 3.60154,5.01167 2.036,7.68961" style="fill:url(#linearGradient2456);fill-opacity:1;fill-rule:nonzero;stroke:none;stroke-width:0.33226079" id="path3011-5" inkscape:connector-curvature="0"/>
        <path d="m 303.21564,186.08269 c -2.06036,2.33842 -5.60886,2.56807 -7.95032,0.5191 -2.33009,-2.04592 -2.57086,-5.60385 -0.51716,-7.93616 2.05535,-2.34119 5.60662,-2.57585 7.94031,-0.52464 2.32732,2.05092 2.56446,5.60358 0.52717,7.9417" style="fill:url(#linearGradient2458);fill-opacity:1;fill-rule:nonzero;stroke:none;stroke-width:0.33226079" id="path3013-4" inkscape:connector-curvature="0"/>
        <path d="m 319.95482,208.59097 c -2.48979,1.875 -6.01076,1.39448 -7.89546,-1.0778 -1.87721,-2.46813 -1.38977,-6.0016 1.08114,-7.88381 2.4834,-1.87527 6.00714,-1.39976 7.89185,1.07253 1.86889,2.48312 1.39699,6.01214 -1.07753,7.88908" style="fill:url(#linearGradient2460);fill-opacity:1;fill-rule:nonzero;stroke:none;stroke-width:0.33226079" id="path3015-7" inkscape:connector-curvature="0"/>
        <path d="m 329.7416,229.78978 c -2.83802,1.27686 -6.16498,0.0216 -7.44823,-2.81671 -1.27297,-2.83914 -10e-4,-6.16028 2.83672,-7.43714 2.82915,-1.27851 6.15859,-0.0219 7.43934,2.81506 1.26798,2.83638 0.009,6.16443 -2.82783,7.43879" style="fill:url(#linearGradient2462);fill-opacity:1;fill-rule:nonzero;stroke:none;stroke-width:0.33226079" id="path3017-4" inkscape:connector-curvature="0"/>
        <path d="m 336.01697,253.97097 c -3.0165,0.80873 -6.10278,-0.96346 -6.92035,-3.95219 -0.80927,-3.00373 0.96069,-6.09778 3.95942,-6.9098 3.00512,-0.81177 6.09417,0.95542 6.90705,3.96442 0.81118,2.98846 -0.95378,6.08528 -3.94612,6.89757" style="fill:url(#linearGradient2464);fill-opacity:1;fill-rule:nonzero;stroke:none;stroke-width:0.33226079" id="path3019-4" inkscape:connector-curvature="0"/>
        <path d="m 338.22378,280.32825 c -3.10931,0.22138 -5.80755,-2.10369 -6.03725,-5.19802 -0.22554,-3.10182 2.09815,-5.79755 5.19635,-6.02837 3.10571,-0.22666 5.80256,2.10091 6.02672,5.20524 0.23247,3.08932 -2.09899,5.78728 -5.18582,6.02115" style="fill:url(#linearGradient2466);fill-opacity:1;fill-rule:nonzero;stroke:none;stroke-width:0.33226079" id="path3021-3" inkscape:connector-curvature="0"/>
        <path d="m 334.5472,308.54804 c -3.10072,-0.2836 -5.37495,-3.01416 -5.0991,-6.11269 0.28695,-3.08906 3.01947,-5.37854 6.11603,-5.08744 3.10572,0.28638 5.38407,3.00949 5.09633,6.11768 -0.28694,3.08906 -3.02168,5.37077 -6.11326,5.08245" style="fill:url(#linearGradient2468);fill-opacity:1;fill-rule:nonzero;stroke:none;stroke-width:0.33226079" id="path3023-0" inkscape:connector-curvature="0"/>
        <path d="m 325.68572,333.24303 c -2.98508,-0.89921 -4.68452,-4.0302 -3.79335,-7.00668 0.89365,-2.97508 4.02438,-4.66813 7.00223,-3.77947 2.98924,0.89171 4.67453,4.02465 3.78921,7.01417 -0.90089,2.96454 -4.02661,4.66037 -6.99809,3.77198" style="fill:url(#linearGradient2470);fill-opacity:1;fill-rule:nonzero;stroke:none;stroke-width:0.33226079" id="path3025-7" inkscape:connector-curvature="0"/>
        <path d="m 312.73366,354.83082 c -2.71945,-1.49656 -3.73939,-4.89851 -2.2558,-7.63496 1.48193,-2.72755 4.89602,-3.74076 7.63469,-2.24941 2.72868,1.48579 3.73937,4.89852 2.25356,7.62719 -1.4947,2.72701 -4.90379,3.74299 -7.63245,2.25718" style="fill:url(#linearGradient2472);fill-opacity:1;fill-rule:nonzero;stroke:none;stroke-width:0.33226079" id="path3027-8" inkscape:connector-curvature="0"/>
        <path d="m 293.45123,374.44637 c -1.94131,-2.43501 -1.55214,-5.97393 0.87095,-7.9055 2.42864,-1.94157 5.97144,-1.55352 7.90662,0.87484 1.94907,2.4328 1.55991,5.97171 -0.8665,7.92105 -2.43948,1.92576 -5.96812,1.53575 -7.91107,-0.89039" style="fill:url(#linearGradient2474);fill-opacity:1;fill-rule:nonzero;stroke:none;stroke-width:0.33226079" id="path3031-8" inkscape:connector-curvature="0"/>
        <path d="m 271.90113,390.27907 c -1.42059,-2.76734 -0.3647,-6.15903 2.39707,-7.59904 2.75235,-1.42889 6.15988,-0.35443 7.58712,2.40681 1.43751,2.76039 0.36886,6.15154 -2.3993,7.59127 -2.75374,1.4314 -6.14935,0.34721 -7.58489,-2.39904" style="fill:url(#linearGradient2476);fill-opacity:1;fill-rule:nonzero;stroke:none;stroke-width:0.33226079" id="path3033-8" inkscape:connector-curvature="0"/>
        <path d="m 300.19918,143.1857 c -0.81434,1.37539 -2.58283,1.83652 -3.94959,1.03019 -1.37649,-0.81827 -1.83125,-2.58644 -1.01991,-3.95044 0.79662,-1.37868 2.56644,-1.84233 3.94182,-1.02796 1.37066,0.80522 1.82902,2.57868 1.02768,3.94821" style="fill:url(#linearGradient2478);fill-opacity:1;fill-rule:nonzero;stroke:none;stroke-width:0.33226079" id="path3053-9" inkscape:connector-curvature="0"/>
        <path d="m 323.70612,163.75171 c -1.08584,1.1694 -2.91607,1.24668 -4.07826,0.17138 -1.16829,-1.08195 -1.24195,-2.90691 -0.17276,-4.07575 1.07807,-1.16718 2.90606,-1.25223 4.07463,-0.17666 1.17357,1.07834 1.24919,2.91746 0.17639,4.08103" style="fill:url(#linearGradient2480);fill-opacity:1;fill-rule:nonzero;stroke:none;stroke-width:0.33226079" id="path3055-2" inkscape:connector-curvature="0"/>
        <path d="m 342.41652,187.89176 c -1.29098,0.93811 -3.09053,0.65334 -4.02001,-0.6296 -0.942,-1.28986 -0.66612,-3.09105 0.62236,-4.03054 1.28874,-0.94589 3.08606,-0.66889 4.03028,0.62875 0.93838,1.28459 0.65472,3.08801 -0.63263,4.03139" style="fill:url(#linearGradient2482);fill-opacity:1;fill-rule:nonzero;stroke:none;stroke-width:0.33226079" id="path3057-6" inkscape:connector-curvature="0"/>
        <path d="m 356.86131,215.92777 c -1.45288,0.65235 -3.15509,0.003 -3.81106,-1.4549 -0.63292,-1.45843 0.0173,-3.15679 1.46629,-3.80801 1.44425,-0.66039 3.16286,-0.005 3.80467,1.45462 0.64208,1.45373 -9.3e-4,3.16261 -1.4599,3.80829" style="fill:url(#linearGradient2484);fill-opacity:1;fill-rule:nonzero;stroke:none;stroke-width:0.33226079" id="path3059-6" inkscape:connector-curvature="0"/>
        <path d="m 365.25656,244.73606 c -1.54644,0.38482 -3.11074,-0.56038 -3.4903,-2.11044 -0.37817,-1.55256 0.55926,-3.11463 2.10266,-3.48808 1.55033,-0.38594 3.12017,0.54926 3.49446,2.10293 0.38734,1.54783 -0.55899,3.10826 -2.10682,3.49559" style="fill:url(#linearGradient2486);fill-opacity:1;fill-rule:nonzero;stroke:none;stroke-width:0.33226079" id="path3061-4" inkscape:connector-curvature="0"/>
        <path d="m 373.24671,276.85668 c -1.59339,-0.13786 -2.773,-1.52966 -2.63027,-3.11413 0.14175,-1.5945 1.53768,-2.77509 3.11914,-2.62749 1.59227,0.13398 2.77299,1.52965 2.63887,3.12218 -0.14482,1.57645 -1.54074,2.75704 -3.12774,2.61944" style="fill:url(#linearGradient2488);fill-opacity:1;fill-rule:nonzero;stroke:none;stroke-width:0.33226079" id="path3065-5" inkscape:connector-curvature="0"/>
        <path d="m 364.5686,309.81515 c -1.52848,-0.43193 -2.42945,-2.02582 -2.0039,-3.55457 0.44774,-1.53932 2.0311,-2.43306 3.56207,-1.99974 1.54263,0.42997 2.43722,2.0236 1.99336,3.5618 -0.42805,1.52736 -2.01641,2.41833 -3.55153,1.99251" style="fill:url(#linearGradient2490);fill-opacity:1;fill-rule:nonzero;stroke:none;stroke-width:0.33226079" id="path3067-0" inkscape:connector-curvature="0"/>
        <path d="m 353.62089,344.90329 c -1.4125,-0.75329 -1.9297,-2.49723 -1.16894,-3.90558 0.76801,-1.39781 2.51472,-1.92002 3.90642,-1.15868 1.40724,0.75689 1.9322,2.49862 1.16894,3.90558 -0.75437,1.40863 -2.51472,1.92001 -3.90642,1.15868" style="fill:url(#linearGradient2492);fill-opacity:1;fill-rule:nonzero;stroke:none;stroke-width:0.33226079" id="path3069-4" inkscape:connector-curvature="0"/>
        <path d="m 336.11666,373.15764 c -1.23455,-0.99776 -1.42481,-2.8187 -0.41566,-4.05022 1.00804,-1.2354 2.82509,-1.42453 4.05049,-0.42203 1.24817,1.00856 1.42843,2.82396 0.4165,4.06048 -1.00164,1.23567 -2.81731,1.4223 -4.05133,0.41177" style="fill:url(#linearGradient2494);fill-opacity:1;fill-rule:nonzero;stroke:none;stroke-width:0.33226079" id="path3071-8" inkscape:connector-curvature="0"/>
        <path d="m 317.88678,393.90806 c -1.0019,-1.23483 -0.80236,-3.04566 0.42996,-4.04894 1.24622,-0.99886 3.0637,-0.80544 4.05756,0.438 1.00163,1.24121 0.80709,3.05481 -0.43273,4.05394 -1.23206,0.9969 -3.0587,0.80821 -4.05479,-0.443" style="fill:url(#linearGradient2496);fill-opacity:1;fill-rule:nonzero;stroke:none;stroke-width:0.33226079" id="path3073-7" inkscape:connector-curvature="0"/>
        <path d="m 292.36061,413.71752 c -0.73421,-1.42307 -0.16925,-3.16213 1.26051,-3.87302 1.42168,-0.73171 3.16101,-0.17314 3.8644,1.25246 0.7306,1.41779 0.18119,3.1524 -1.24411,3.87884 -1.42115,0.71893 -3.15771,0.15537 -3.8808,-1.25828" style="fill:url(#linearGradient2498);fill-opacity:1;fill-rule:nonzero;stroke:none;stroke-width:0.33226079" id="path3075-1" inkscape:connector-curvature="0"/>
        <path id="path3141-1" style="fill:url(#linearGradient2500);fill-opacity:1;fill-rule:nonzero;stroke:none;stroke-width:0.33226079" d="m 302.56805,164.83469 c -1.34285,1.46813 -3.61722,1.58033 -5.08925,0.23858 -1.46452,-1.33758 -1.57617,-3.62473 -0.22831,-5.0901 1.33924,-1.4734 3.61223,-1.58309 5.0926,-0.22693 1.46591,1.33509 1.56282,3.60754 0.22496,5.07845" inkscape:connector-curvature="0"/>
        <path id="path3143-5" style="fill:url(#linearGradient2502);fill-opacity:1;fill-rule:nonzero;stroke:none;stroke-width:0.33226079" d="m 321.77128,185.25044 c -1.58246,1.20467 -3.85425,0.89349 -5.06918,-0.68812 -1.18914,-1.58691 -0.88488,-3.8462 0.69895,-5.05337 1.58495,-1.20329 3.84563,-0.90153 5.05253,0.68869 1.20467,1.58245 0.89126,3.84647 -0.6823,5.0528" inkscape:connector-curvature="0"/>
        <path id="path3145-9" style="fill:url(#linearGradient2504);fill-opacity:1;fill-rule:nonzero;stroke:none;stroke-width:0.33226079" d="m 337.91937,211.14018 c -1.80829,0.82792 -3.95237,0.0385 -4.78028,-1.76975 -0.8368,-1.80995 -0.0374,-3.94848 1.77698,-4.76974 1.79995,-0.84234 3.94152,-0.0544 4.77332,1.75282 0.83569,1.80607 0.0386,3.95237 -1.77002,4.78667" inkscape:connector-curvature="0"/>
        <path id="path3147-4" style="fill:url(#linearGradient2506);fill-opacity:1;fill-rule:nonzero;stroke:none;stroke-width:0.33226079" d="m 347.3177,235.93605 c -1.93863,0.46161 -3.88825,-0.71997 -4.36152,-2.65525 -0.47242,-1.92502 0.71859,-3.88575 2.6536,-4.35263 1.9314,-0.47215 3.87824,0.71443 4.35567,2.64221 0.47827,1.93805 -0.71358,3.88852 -2.64775,4.36567" inkscape:connector-curvature="0"/>
        <path id="path3149-9" style="fill:url(#linearGradient2508);fill-opacity:1;fill-rule:nonzero;stroke:none;stroke-width:0.33226079" d="m 352.21563,261.72617 c -1.98342,0.12964 -3.69075,-1.36536 -3.8365,-3.36098 -0.12963,-1.98341 1.38007,-3.70548 3.37432,-3.81929 1.97731,-0.13629 3.69491,1.35786 3.82677,3.34905 0.13298,1.99507 -1.37368,3.70575 -3.36459,3.83122" inkscape:connector-curvature="0"/>
        <path id="path3153-9" style="fill:url(#linearGradient2510);fill-opacity:1;fill-rule:nonzero;stroke:none;stroke-width:0.33226079" d="m 351.49193,292.69349 c -1.91838,-0.55976 -3.00165,-2.56182 -2.44577,-4.47909 0.5556,-1.91089 2.56932,-2.9975 4.48105,-2.43163 1.90812,0.5606 2.99277,2.56017 2.43551,4.47994 -0.56283,1.90034 -2.57044,2.99361 -4.47079,2.43078" inkscape:connector-curvature="0"/>
        <path id="path3155-1" style="fill:url(#linearGradient2512);fill-opacity:1;fill-rule:nonzero;stroke:none;stroke-width:0.33226079" d="m 345.10122,321.71785 c -1.74796,-0.96168 -2.37518,-3.15578 -1.40686,-4.90334 0.96139,-1.73505 3.1569,-2.37129 4.90057,-1.40186 1.73151,0.956 2.36768,3.15163 1.41102,4.89584 -0.96555,1.74255 -3.16967,2.37076 -4.90473,1.40936" inkscape:connector-curvature="0"/>
        <path id="path3157-7" style="fill:url(#linearGradient2514);fill-opacity:1;fill-rule:nonzero;stroke:none;stroke-width:0.33226079" d="m 332.75136,349.7195 c -1.53274,-1.26755 -1.7371,-3.54071 -0.46039,-5.07818 1.27366,-1.52608 3.5571,-1.73128 5.07291,-0.45677 1.52746,1.27116 1.7382,3.5446 0.46566,5.07456 -1.27644,1.53108 -3.54849,1.73932 -5.07818,0.46039" inkscape:connector-curvature="0"/>
        <path id="path3159-7" style="fill:url(#linearGradient2516);fill-opacity:1;fill-rule:nonzero;stroke:none;stroke-width:0.33226079" d="m 316.20893,372.80382 c -1.24933,-1.55492 -1.00228,-3.82303 0.55737,-5.06321 1.55103,-1.24822 3.82415,-0.9984 5.07071,0.56153 1.24322,1.54826 0.98978,3.8161 -0.55848,5.05931 -1.55465,1.24296 -3.82776,0.99314 -5.0696,-0.55763" inkscape:connector-curvature="0"/>
        <path id="path3161-1" style="fill:url(#linearGradient2518);fill-opacity:1;fill-rule:nonzero;stroke:none;stroke-width:0.33226079" d="m 294.69153,393.03701 c -0.90532,-1.76296 -0.21287,-3.9444 1.55035,-4.85611 1.76962,-0.91143 3.9469,-0.21149 4.85722,1.55424 0.91117,1.776 0.2215,3.95244 -1.55173,4.85861 -1.76685,0.90643 -3.9444,0.21287 -4.85584,-1.55674" inkscape:connector-curvature="0"/>
      </g>
      <g id="g4661" transform="matrix(3.009684,0,0,3.009684,-86.025969,-945.75916)" style="stroke-width:0.33226079">
        <path inkscape:connector-curvature="0" id="text3171" d="m 227.58168,286.95348 13.14642,1.53472 c -2.07333,7.25108 -5.91359,12.87842 -11.52077,16.88206 -5.60731,4.00367 -12.76951,6.00548 -21.48661,6.00548 -10.97892,0 -19.68428,-3.1918 -26.1161,-9.57538 -6.43185,-6.38359 -9.64778,-15.33619 -9.64778,-26.85786 0,-11.92191 3.25126,-21.1748 9.75379,-27.75862 6.50251,-6.58374 14.93692,-9.87562 25.3033,-9.87567 10.03646,5e-5 18.23526,3.22523 24.59651,9.67546 6.36108,6.45041 9.54167,15.52534 9.54173,27.22486 -6e-5,0.71178 -0.0236,1.77941 -0.0707,3.2029 h -55.97822 c 0.47117,7.78491 2.8036,13.7459 6.99727,17.88298 4.19364,4.13711 9.42391,6.20568 15.69088,6.20565 4.6648,3e-5 8.64641,-1.1566 11.94485,-3.46981 3.29832,-2.31321 5.91347,-6.00548 7.84542,-11.07677 z m -41.77163,-19.41772 h 41.91301 c -0.5655,-5.96093 -2.16758,-10.43169 -4.80621,-13.41223 -4.05235,-4.62639 -9.30622,-6.9396 -15.76157,-6.93965 -5.84287,5e-5 -10.7551,1.84617 -14.73667,5.53838 -3.98167,3.69229 -6.18449,8.63014 -6.60856,14.8135 z m 71.59671,42.23852 v -70.86462 h 11.45009 v 10.74312 c 2.92141,-5.02672 5.61899,-8.34088 8.09282,-9.94238 2.47375,-1.6014 5.19492,-2.40214 8.16348,-2.40219 4.28786,5e-5 8.64644,1.29013 13.07573,3.87019 l -4.38214,11.14348 c -3.10993,-1.73484 -6.21984,-2.60231 -9.32969,-2.60237 -2.78012,6e-5 -5.27746,0.78966 -7.49205,2.36884 -2.21465,1.57926 -3.79316,3.77016 -4.73555,6.57265 -1.4136,4.27061 -2.12039,8.94152 -2.12036,14.01278 v 37.1005 z" style="font-size:11.48947048px;stroke:#000000;stroke-width:0.90138429;stroke-miterlimit:4;stroke-opacity:1"/>
        <path inkscape:connector-curvature="0" id="text3175" d="m 355.69054,285.94412 12.62276,1.60252 c -1.37884,8.50032 -4.90893,15.15424 -10.59029,19.96178 -5.6815,4.80754 -12.65848,7.21132 -20.93097,7.21132 -10.36451,0 -18.69647,-3.30955 -24.99595,-9.92864 -6.29951,-6.61908 -9.44926,-16.10644 -9.44926,-28.46208 0,-7.98932 1.35498,-14.97999 4.06497,-20.97206 2.70996,-5.99196 6.83435,-10.48596 12.37318,-13.48204 5.53877,-2.99594 11.56487,-4.49395 18.07836,-4.494 8.22496,5e-5 14.95236,2.03225 20.18218,6.09651 5.22971,4.06441 8.5815,9.83581 10.05542,17.31414 l -12.48015,1.88121 c -1.18862,-4.97004 -3.29243,-8.70925 -6.31136,-11.21759 -3.01906,-2.50823 -6.66803,-3.76237 -10.94687,-3.76243 -6.46595,6e-5 -11.71949,2.26448 -15.76066,6.79326 -4.0412,4.52892 -6.06179,11.69377 -6.06179,21.49463 0,9.94028 1.94928,17.16321 5.84786,21.6688 3.89853,4.50564 8.98568,6.75845 15.26142,6.75845 5.03955,0 9.24714,-1.50962 12.62279,-4.52887 3.37551,-3.01921 5.51497,-7.66416 6.41836,-13.93491 z" style="font-size:11.79311562px;stroke:#000000;stroke-width:0.92525363;stroke-miterlimit:4;stroke-opacity:1"/>
      </g>
    </g>
  </g>
</svg>