<?xml version="1.0" encoding="utf-8"?>
<!-- Generator: Adobe Illustrator 16.0.0, SVG Export Plug-In . SVG Version: 6.00 Build 0)  -->
<!DOCTYPE svg PUBLIC "-//W3C//DTD SVG 1.1//EN" "http://www.w3.org/Graphics/SVG/1.1/DTD/svg11.dtd" [
	<!ENTITY st0 "fill-rule:evenodd;clip-rule:evenodd;fill:#444444;">
	<!ENTITY st1 "fill:#444444;">
]>
<svg version="1.1" id="Layer_1" xmlns="http://www.w3.org/2000/svg" xmlns:xlink="http://www.w3.org/1999/xlink" x="0px" y="0px"
	 width="28px" height="28px" viewBox="0 0 28 28" style="enable-background:new 0 0 28 28;" xml:space="preserve">
<g>
	<path style="&st1;" d="M7.521,6.118c0.573,0.003,1.014-0.438,1.014-1.016c0-0.574-0.445-1.02-1.015-1.016
		C6.977,4.091,6.516,4.547,6.503,5.09C6.492,5.637,6.966,6.116,7.521,6.118z"/>
	<path style="&st1;" d="M24.431,16.375c-0.562,0-1.027,0.465-1.02,1.022c0.007,0.541,0.464,0.998,1.008,1.012
		c0.552,0.012,1.02-0.453,1.021-1.016C25.441,16.815,25.005,16.376,24.431,16.375z"/>
	<path style="&st1;" d="M20.446,6.118c0.571-0.001,1.011-0.45,1.004-1.025c-0.005-0.572-0.458-1.016-1.028-1.006
		c-0.542,0.01-1.001,0.473-1.004,1.015C19.415,5.653,19.887,6.12,20.446,6.118z"/>
	<path style="&st1;" d="M13.981,23.968c-0.562,0.002-1.031,0.471-1.021,1.021c0.011,0.541,0.472,1,1.013,1.011
		c0.553,0.012,1.018-0.453,1.019-1.019C14.993,24.403,14.558,23.966,13.981,23.968z"/>
	<path style="&st1;" d="M17.371,23.435c-0.559,0.004-1.009,0.455-1.008,1.008c0.001,0.547,0.46,1.007,1.011,1.01
		c0.564,0.004,1.02-0.457,1.014-1.029C18.383,23.864,17.938,23.431,17.371,23.435z"/>
	<path style="&st1;" d="M24.981,12.987c-0.56-0.003-1.016,0.436-1.028,0.988c-0.011,0.551,0.471,1.039,1.021,1.035
		c0.549-0.004,1.002-0.463,1.002-1.016C25.979,13.431,25.543,12.989,24.981,12.987z"/>
	<path style="&st1;" d="M5.102,19.444c-0.566-0.002-1.003,0.428-1.008,0.993c-0.005,0.571,0.456,1.038,1.016,1.03
		c0.547-0.008,1.005-0.476,1.003-1.021C6.11,19.894,5.659,19.444,5.102,19.444z"/>
	<path style="&st1;" d="M5.083,8.552c0.553,0.011,1.033-0.467,1.029-1.024C6.106,6.974,5.656,6.53,5.099,6.53
		C4.531,6.531,4.097,6.962,4.094,7.527C4.091,8.086,4.531,8.542,5.083,8.552z"/>
	<path style="&st1;" d="M17.375,4.56c0.559,0.003,1.017-0.459,1.013-1.024s-0.463-1.011-1.032-1.001
		c-0.546,0.009-0.997,0.474-0.991,1.02C16.37,4.097,16.831,4.556,17.375,4.56z"/>
	<path style="&st1;" d="M4.555,17.394c0.005-0.551-0.442-1.008-0.996-1.019c-0.566-0.011-1.035,0.444-1.04,1.007
		c-0.003,0.544,0.447,1.009,0.997,1.027C4.065,18.426,4.55,17.953,4.555,17.394z"/>
	<path style="&st1;" d="M22.864,8.544c0.547,0.007,1.012-0.45,1.016-1c0.005-0.556-0.44-1.006-0.999-1.01
		c-0.56-0.003-1.012,0.438-1.018,0.992C21.857,8.073,22.314,8.538,22.864,8.544z"/>
	<path style="&st1;" d="M3.999,13.987c-0.002-0.562-0.44-0.998-1.004-0.996C2.434,12.992,1.997,13.434,2,13.997
		c0.003,0.558,0.453,1.01,1.005,1.006C3.558,15,4,14.547,3.999,13.987z"/>
	<path style="&st1;" d="M13.98,4.016c0.552,0.004,1.003-0.446,1.004-1.004C14.987,2.449,14.55,2.004,13.992,2
		c-0.552-0.003-1.008,0.448-1.013,1.001C12.976,3.551,13.431,4.013,13.98,4.016z"/>
	<path style="&st1;" d="M22.864,19.446c-0.554,0.004-1.008,0.463-1.001,1.012c0.005,0.547,0.475,1.01,1.018,1.003
		c0.549-0.008,1.004-0.472,0.999-1.021C23.876,19.887,23.422,19.442,22.864,19.446z"/>
	<path style="&st1;" d="M23.422,10.585c-0.01,0.541,0.453,1.014,0.997,1.021c0.55,0.008,1.013-0.445,1.017-0.996
		c0.004-0.556-0.438-1.013-0.99-1.021C23.898,9.583,23.432,10.035,23.422,10.585z"/>
	<path style="&st1;" d="M3.542,11.606c0.555-0.001,0.996-0.453,0.994-1.014C4.535,10.032,4.09,9.587,3.534,9.591
		c-0.558,0.003-0.998,0.449-0.995,1.011C2.54,11.161,2.987,11.609,3.542,11.606z"/>
	<path style="&st1;" d="M10.595,4.555c0.554-0.004,0.999-0.457,0.996-1.016c-0.002-0.562-0.447-1.004-1.005-1.001
		c-0.558,0.004-0.997,0.449-0.995,1.01C9.594,4.106,10.044,4.559,10.595,4.555z"/>
	<path style="&st1;" d="M7.521,21.879c-0.557,0.004-1.009,0.458-1.002,1.008c0.008,0.556,0.458,0.995,1.018,0.991
		c0.562-0.004,0.996-0.443,0.992-1.007C8.524,22.31,8.083,21.876,7.521,21.879z"/>
	<path style="&st1;" d="M20.441,21.88c-0.56-0.001-1.004,0.441-1.003,1c0.002,0.558,0.445,0.999,1.006,0.998
		c0.563,0,0.998-0.436,0.998-1C21.442,22.315,21.008,21.88,20.441,21.88z"/>
	<path style="&st1;" d="M10.603,23.441c-0.563-0.007-1.006,0.425-1.012,0.985c-0.006,0.562,0.428,1.008,0.987,1.016
		c0.558,0.008,1.005-0.431,1.013-0.99C11.598,23.891,11.164,23.446,10.603,23.441z"/>
	<path style="&st1;" d="M17.328,5.747c0.012,0.459,0.409,0.848,0.864,0.85c0.477,0.001,0.857-0.393,0.854-0.878
		c-0.004-0.469-0.387-0.852-0.854-0.852C17.73,4.867,17.315,5.29,17.328,5.747z"/>
	<path style="&st1;" d="M5.723,17.352c-0.485,0-0.844,0.36-0.845,0.847c0,0.481,0.363,0.855,0.838,0.864s0.878-0.396,0.87-0.874
		C6.578,17.712,6.206,17.352,5.723,17.352z"/>
	<path style="&st1;" d="M7.435,6.589C6.96,6.587,6.574,6.958,6.565,7.426C6.555,7.895,6.961,8.296,7.441,8.29
		C7.915,8.286,8.29,7.907,8.289,7.435S7.911,6.59,7.435,6.589z"/>
	<path style="&st1;" d="M23.143,11.683c-0.458-0.002-0.86,0.396-0.861,0.855c-0.002,0.459,0.398,0.863,0.856,0.863
		c0.46,0.001,0.859-0.396,0.862-0.855C24.001,12.085,23.604,11.685,23.143,11.683z"/>
	<path style="&st1;" d="M7.433,21.406c0.462,0,0.854-0.395,0.854-0.86c0-0.468-0.388-0.857-0.854-0.857
		c-0.461,0-0.861,0.397-0.862,0.857C6.57,21.003,6.974,21.406,7.433,21.406z"/>
	<path style="&st1;" d="M23.143,16.293c0.472,0,0.859-0.383,0.862-0.847c0-0.466-0.383-0.85-0.853-0.854
		c-0.486-0.006-0.885,0.387-0.877,0.859C22.282,15.915,22.674,16.294,23.143,16.293z"/>
	<path style="&st1;" d="M15.433,22.293c-0.467,0.001-0.859,0.39-0.862,0.849c-0.004,0.464,0.383,0.85,0.852,0.854
		c0.477,0.004,0.864-0.363,0.875-0.829C16.308,22.69,15.911,22.292,15.433,22.293z"/>
	<path style="&st1;" d="M14.575,4.832c-0.005,0.457,0.394,0.859,0.854,0.863c0.464,0.003,0.859-0.39,0.862-0.853
		c0.002-0.463-0.39-0.862-0.852-0.865C14.984,3.974,14.581,4.372,14.575,4.832z"/>
	<path style="&st1;" d="M4.879,9.796c0.004,0.473,0.395,0.857,0.859,0.848c0.469-0.011,0.845-0.401,0.837-0.871
		C6.569,9.298,6.185,8.922,5.714,8.93C5.243,8.937,4.875,9.319,4.879,9.796z"/>
	<path style="&st1;" d="M23.096,18.184c-0.01-0.457-0.387-0.827-0.844-0.828c-0.474-0.003-0.861,0.379-0.861,0.844
		c0,0.466,0.391,0.849,0.861,0.845C22.721,19.039,23.107,18.646,23.096,18.184z"/>
	<path style="&st1;" d="M5.672,12.54c0-0.471-0.388-0.857-0.852-0.852c-0.456,0.008-0.828,0.383-0.833,0.84
		c-0.006,0.475,0.368,0.859,0.837,0.866C5.288,13.399,5.672,13.013,5.672,12.54z"/>
	<path style="&st1;" d="M18.18,21.403c-0.474,0.007-0.854,0.395-0.844,0.861c0.011,0.474,0.391,0.837,0.87,0.833
		c0.474-0.005,0.846-0.386,0.838-0.86C19.039,21.766,18.656,21.397,18.18,21.403z"/>
	<path style="&st1;" d="M12.519,5.688c0.465,0.011,0.854-0.371,0.859-0.842c0.004-0.473-0.375-0.862-0.842-0.862
		c-0.455,0-0.834,0.371-0.844,0.828C11.685,5.289,12.052,5.679,12.519,5.688z"/>
	<path style="&st1;" d="M22.228,10.634c0.457,0.012,0.863-0.38,0.868-0.842c0.007-0.46-0.387-0.857-0.852-0.858
		c-0.462-0.001-0.856,0.395-0.854,0.856C21.396,10.241,21.773,10.622,22.228,10.634z"/>
	<path style="&st1;" d="M20.524,21.398c0.465,0.011,0.854-0.374,0.858-0.844c0.002-0.473-0.378-0.86-0.843-0.86
		c-0.465,0.001-0.845,0.387-0.842,0.859C19.7,21.013,20.066,21.387,20.524,21.398z"/>
	<path style="&st1;" d="M9.778,6.586c0.467-0.001,0.844-0.39,0.842-0.862c-0.003-0.471-0.394-0.855-0.858-0.844
		C9.305,4.892,8.938,5.267,8.935,5.727C8.933,6.199,9.315,6.587,9.778,6.586z"/>
	<path style="&st1;" d="M4.81,16.284c0.484,0.008,0.857-0.351,0.862-0.83c0.005-0.481-0.356-0.853-0.836-0.854
		c-0.466-0.003-0.839,0.353-0.849,0.813C3.974,15.896,4.336,16.276,4.81,16.284z"/>
	<path style="&st1;" d="M20.564,6.595c-0.481-0.01-0.858,0.351-0.866,0.826c-0.007,0.484,0.353,0.854,0.831,0.857
		c0.482,0.006,0.852-0.359,0.854-0.838C21.383,6.974,21.025,6.604,20.564,6.595z"/>
	<path style="&st1;" d="M10.62,22.258c0.002-0.479-0.365-0.849-0.844-0.848c-0.469,0-0.832,0.354-0.84,0.819
		c-0.01,0.481,0.352,0.857,0.828,0.863C10.245,23.098,10.617,22.734,10.62,22.258z"/>
	<path style="&st1;" d="M13.375,23.153c0.005-0.481-0.359-0.849-0.84-0.849c-0.478,0-0.845,0.37-0.843,0.851
		c0.003,0.463,0.363,0.828,0.828,0.834C13.003,23.996,13.372,23.634,13.375,23.153z"/>
	<path style="&st1;" d="M17.079,21.347c0.004-0.416-0.295-0.717-0.708-0.717c-0.395,0.002-0.73,0.335-0.724,0.718
		c0.006,0.367,0.34,0.703,0.709,0.715C16.737,22.075,17.075,21.738,17.079,21.347z"/>
	<path style="&st1;" d="M7.763,17.825c-0.422-0.01-0.727,0.276-0.731,0.689c-0.007,0.398,0.309,0.735,0.695,0.743
		c0.375,0.008,0.731-0.341,0.734-0.72C8.466,18.165,8.141,17.835,7.763,17.825z"/>
	<path style="&st1;" d="M22.43,14.013c0.013-0.376-0.3-0.712-0.678-0.727c-0.422-0.014-0.735,0.266-0.751,0.672
		c-0.016,0.398,0.29,0.738,0.681,0.758C22.06,14.735,22.414,14.399,22.43,14.013z"/>
	<path style="&st1;" d="M16.382,5.938c-0.396-0.002-0.733,0.322-0.734,0.706c-0.002,0.378,0.35,0.727,0.728,0.726
		c0.378-0.003,0.698-0.324,0.703-0.706C17.085,6.247,16.79,5.941,16.382,5.938z"/>
	<path style="&st1;" d="M7.031,9.468c0.004,0.38,0.323,0.704,0.699,0.708c0.378,0.005,0.73-0.344,0.73-0.723
		c0.001-0.386-0.333-0.711-0.729-0.708C7.317,8.747,7.026,9.048,7.031,9.468z"/>
	<path style="&st1;" d="M20.614,11.602c-0.005,0.382,0.345,0.728,0.727,0.722c0.39-0.007,0.706-0.344,0.696-0.742
		c-0.009-0.389-0.322-0.688-0.716-0.683C20.939,10.903,20.617,11.223,20.614,11.602z"/>
	<path style="&st1;" d="M18.534,19.523c-0.383-0.007-0.729,0.337-0.726,0.723c0.004,0.379,0.324,0.696,0.707,0.699
		c0.399,0.004,0.706-0.288,0.715-0.681C19.239,19.864,18.926,19.531,18.534,19.523z"/>
	<path style="&st1;" d="M5.925,11.595c-0.006,0.387,0.334,0.732,0.719,0.729c0.377-0.003,0.696-0.324,0.7-0.707
		c0.005-0.408-0.302-0.719-0.71-0.718C6.249,10.899,5.933,11.212,5.925,11.595z"/>
	<path style="&st1;" d="M10.151,20.241c0-0.386-0.311-0.707-0.69-0.718c-0.383-0.011-0.731,0.331-0.731,0.718
		c0.001,0.383,0.316,0.699,0.7,0.704C9.844,20.952,10.151,20.651,10.151,20.241z"/>
	<path style="&st1;" d="M20.222,10.161c0.382,0.011,0.729-0.333,0.724-0.717c-0.006-0.379-0.331-0.695-0.712-0.694
		c-0.389,0.001-0.702,0.312-0.705,0.695C19.524,9.825,19.841,10.151,20.222,10.161z"/>
	<path style="&st1;" d="M20.945,18.53c-0.003-0.381-0.323-0.698-0.706-0.699c-0.389-0.002-0.705,0.305-0.711,0.689
		c-0.006,0.393,0.327,0.729,0.717,0.722C20.622,19.235,20.946,18.906,20.945,18.53z"/>
	<path style="&st1;" d="M6.266,14.702c0.38-0.004,0.7-0.327,0.703-0.707c0.001-0.385-0.312-0.699-0.698-0.705
		c-0.383-0.004-0.709,0.307-0.72,0.686C5.54,14.362,5.878,14.706,6.266,14.702z"/>
	<path style="&st1;" d="M18.524,7.031c-0.377,0.001-0.703,0.324-0.707,0.704c-0.005,0.395,0.324,0.718,0.725,0.711
		c0.388-0.008,0.688-0.318,0.685-0.712C19.224,7.352,18.903,7.031,18.524,7.031z"/>
	<path style="&st1;" d="M9.45,8.446c0.391-0.001,0.694-0.307,0.695-0.7c0.002-0.386-0.309-0.707-0.689-0.715
		C9.067,7.023,8.733,7.36,8.739,7.754C8.746,8.141,9.062,8.448,9.45,8.446z"/>
	<path style="&st1;" d="M13.992,22.426c0.383-0.004,0.692-0.321,0.692-0.708c0.002-0.389-0.31-0.706-0.691-0.711
		c-0.38-0.004-0.705,0.311-0.715,0.693C13.269,22.094,13.599,22.43,13.992,22.426z"/>
	<path style="&st1;" d="M13.984,5.56c-0.383,0.002-0.706,0.314-0.715,0.694c-0.009,0.388,0.321,0.722,0.718,0.722
		c0.391,0,0.697-0.303,0.703-0.693C14.695,5.872,14.39,5.56,13.984,5.56z"/>
	<path style="&st1;" d="M22.033,16.39c0.006-0.393-0.294-0.703-0.685-0.711c-0.396-0.008-0.731,0.314-0.728,0.704
		c0.004,0.376,0.329,0.7,0.707,0.703C21.708,17.09,22.028,16.773,22.033,16.39z"/>
	<path style="&st1;" d="M11.575,5.942c-0.385,0.012-0.688,0.331-0.68,0.719c0.008,0.382,0.334,0.699,0.711,0.694
		c0.391-0.005,0.703-0.341,0.691-0.739C12.286,6.23,11.966,5.931,11.575,5.942z"/>
	<path style="&st1;" d="M6.638,17.087c0.383-0.001,0.698-0.314,0.701-0.7c0.005-0.394-0.295-0.702-0.684-0.708
		c-0.402-0.008-0.723,0.307-0.719,0.707C5.94,16.769,6.261,17.089,6.638,17.087z"/>
	<path style="&st1;" d="M12.298,21.344c0.003-0.394-0.295-0.7-0.686-0.706c-0.393-0.006-0.706,0.292-0.717,0.68
		c-0.01,0.394,0.314,0.73,0.705,0.729C11.979,22.046,12.296,21.728,12.298,21.344z"/>
	<path style="&st1;" d="M9.441,19.145c0.324-0.004,0.578-0.265,0.581-0.594c0.004-0.339-0.234-0.59-0.566-0.601
		c-0.334-0.009-0.62,0.26-0.625,0.586C8.825,18.855,9.121,19.149,9.441,19.145z"/>
	<path style="&st1;" d="M19.755,13c0.006,0.328,0.266,0.587,0.589,0.587c0.317,0,0.614-0.302,0.605-0.615
		c-0.011-0.312-0.291-0.578-0.605-0.578C19.997,12.394,19.75,12.649,19.755,13z"/>
	<path style="&st1;" d="M16.894,20.332c0.322,0.012,0.602-0.269,0.602-0.605c0-0.34-0.237-0.581-0.576-0.586
		c-0.342-0.005-0.617,0.258-0.617,0.59C16.304,20.038,16.581,20.321,16.894,20.332z"/>
	<path style="&st1;" d="M7.646,11.056c-0.009,0.319,0.284,0.619,0.604,0.617c0.336-0.001,0.594-0.271,0.587-0.617
		c-0.005-0.337-0.251-0.576-0.587-0.575C7.927,10.481,7.653,10.742,7.646,11.056z"/>
	<path style="&st1;" d="M15.004,7.028c-0.315-0.009-0.616,0.288-0.616,0.607c0.002,0.318,0.268,0.583,0.59,0.588
		c0.351,0.006,0.604-0.243,0.604-0.592C15.579,7.312,15.316,7.038,15.004,7.028z"/>
	<path style="&st1;" d="M7.622,13.582c0.312,0.004,0.594-0.271,0.602-0.585s-0.258-0.594-0.575-0.604
		c-0.323-0.011-0.598,0.243-0.612,0.563C7.021,13.286,7.296,13.579,7.622,13.582z"/>
	<path style="&st1;" d="M19.722,11.668c0.32,0,0.58-0.265,0.584-0.591c0.004-0.334-0.242-0.589-0.571-0.596
		c-0.333-0.008-0.616,0.269-0.609,0.597C19.132,11.395,19.406,11.668,19.722,11.668z"/>
	<path style="&st1;" d="M18.531,19.141c0.317,0.004,0.586-0.259,0.591-0.583c0.008-0.328-0.239-0.594-0.564-0.605
		c-0.336-0.011-0.609,0.255-0.609,0.594C17.948,18.868,18.211,19.137,18.531,19.141z"/>
	<path style="&st1;" d="M11.06,20.325c0.332,0.002,0.6-0.278,0.589-0.617c-0.011-0.333-0.263-0.572-0.598-0.566
		c-0.327,0.006-0.583,0.268-0.579,0.592C10.474,20.054,10.743,20.323,11.06,20.325z"/>
	<path style="&st1;" d="M12.387,7.641c0.003,0.321,0.265,0.579,0.591,0.581c0.33,0.001,0.585-0.252,0.59-0.58
		c0.004-0.322-0.252-0.592-0.574-0.604C12.669,7.027,12.383,7.31,12.387,7.641z"/>
	<path style="&st1;" d="M12.98,20.935c0.324-0.001,0.579-0.26,0.579-0.588c-0.001-0.324-0.266-0.592-0.583-0.589
		c-0.319,0.001-0.581,0.271-0.579,0.594C12.398,20.679,12.656,20.937,12.98,20.935z"/>
	<path style="&st1;" d="M9.435,8.86c-0.328,0-0.594,0.26-0.594,0.58c0,0.317,0.269,0.582,0.592,0.582
		c0.326,0.001,0.586-0.258,0.586-0.582C10.019,9.112,9.766,8.86,9.435,8.86z"/>
	<path style="&st1;" d="M16.911,7.673c-0.322-0.001-0.594,0.264-0.595,0.581c-0.001,0.313,0.272,0.591,0.587,0.594
		c0.318,0.003,0.586-0.266,0.586-0.587C17.491,7.93,17.239,7.675,16.911,7.673z"/>
	<path style="&st1;" d="M15.577,20.355c0.002-0.319-0.262-0.593-0.58-0.598c-0.31-0.004-0.591,0.272-0.596,0.586
		c-0.004,0.313,0.268,0.589,0.586,0.591C15.312,20.938,15.573,20.681,15.577,20.355z"/>
	<path style="&st1;" d="M20.344,15.583c0.32,0,0.59-0.267,0.59-0.583c0.001-0.32-0.265-0.582-0.59-0.582
		c-0.331,0-0.583,0.251-0.583,0.581C19.761,15.324,20.019,15.583,20.344,15.583z"/>
	<path style="&st1;" d="M8.219,15.005c0.005-0.317-0.259-0.583-0.585-0.586c-0.328-0.004-0.59,0.249-0.595,0.573
		c-0.003,0.321,0.258,0.586,0.583,0.59C7.942,15.586,8.214,15.324,8.219,15.005z"/>
	<path style="&st1;" d="M20.302,16.905c-0.005-0.332-0.258-0.576-0.591-0.57c-0.323,0.004-0.586,0.271-0.578,0.59
		c0.007,0.32,0.277,0.582,0.598,0.575C20.055,17.493,20.308,17.229,20.302,16.905z"/>
	<path style="&st1;" d="M10.481,8.273c0.008,0.323,0.279,0.583,0.6,0.573s0.568-0.277,0.562-0.605s-0.265-0.574-0.597-0.566
		C10.722,7.683,10.474,7.944,10.481,8.273z"/>
	<path style="&st1;" d="M8.263,16.333c-0.328-0.006-0.591,0.244-0.599,0.568c-0.008,0.322,0.25,0.592,0.573,0.6
		c0.322,0.008,0.588-0.25,0.594-0.574C8.836,16.594,8.594,16.34,8.263,16.333z"/>
	<path style="&st1;" d="M18.534,8.86C18.2,8.862,17.95,9.117,17.956,9.45c0.005,0.319,0.252,0.566,0.568,0.572
		c0.332,0.006,0.59-0.246,0.593-0.577C19.117,9.109,18.868,8.859,18.534,8.86z"/>
	<path style="&st1;" d="M14.013,9.165c0.261-0.014,0.487-0.259,0.475-0.514c-0.014-0.26-0.258-0.487-0.514-0.479
		c-0.264,0.009-0.486,0.241-0.485,0.504C13.492,8.95,13.737,9.181,14.013,9.165z"/>
	<path style="&st1;" d="M17.797,10.859c-0.003,0.261,0.228,0.496,0.488,0.5c0.259,0.004,0.496-0.229,0.499-0.489
		c0.002-0.26-0.229-0.499-0.49-0.5C18.038,10.367,17.8,10.602,17.797,10.859z"/>
	<path style="&st1;" d="M17.099,17.802c-0.262,0.008-0.49,0.242-0.486,0.5c0.005,0.261,0.236,0.484,0.5,0.486
		c0.271,0,0.494-0.217,0.498-0.483C17.614,18.027,17.378,17.794,17.099,17.802z"/>
	<path style="&st1;" d="M8.423,12.339c-0.006,0.268,0.241,0.509,0.518,0.502c0.266-0.006,0.486-0.234,0.482-0.5
		c-0.004-0.263-0.23-0.484-0.497-0.485C8.664,11.855,8.43,12.081,8.423,12.339z"/>
	<path style="&st1;" d="M10.849,18.788c0.281,0.004,0.487-0.197,0.492-0.48c0.006-0.279-0.203-0.5-0.474-0.506
		c-0.271-0.004-0.491,0.213-0.495,0.487C10.37,18.575,10.567,18.782,10.849,18.788z"/>
	<path style="&st1;" d="M18.288,17.603c0.273,0.002,0.497-0.22,0.493-0.489c-0.003-0.27-0.231-0.485-0.505-0.478
		c-0.264,0.006-0.475,0.217-0.479,0.475C17.792,17.382,18.009,17.602,18.288,17.603z"/>
	<path style="&st1;" d="M19.53,12.352c0.001-0.286-0.198-0.492-0.479-0.496c-0.281-0.003-0.486,0.2-0.489,0.484
		c-0.005,0.277,0.206,0.499,0.477,0.501C19.312,12.845,19.528,12.628,19.53,12.352z"/>
	<path style="&st1;" d="M12.327,19.548c0.259,0.01,0.496-0.217,0.504-0.48c0.006-0.266-0.211-0.5-0.475-0.51
		c-0.266-0.011-0.49,0.208-0.498,0.48C11.851,19.312,12.058,19.538,12.327,19.548z"/>
	<path style="&st1;" d="M8.653,14.481c0.271,0.006,0.498-0.216,0.5-0.486c0.002-0.262-0.203-0.477-0.466-0.488
		c-0.273-0.012-0.505,0.2-0.516,0.47C8.164,14.242,8.387,14.477,8.653,14.481z"/>
	<path style="&st1;" d="M11.856,8.952c0.011,0.267,0.217,0.462,0.484,0.462c0.281,0,0.492-0.212,0.49-0.489
		c-0.006-0.276-0.222-0.483-0.503-0.479C12.051,8.453,11.847,8.672,11.856,8.952z"/>
	<path style="&st1;" d="M15.153,8.957c0.012,0.267,0.219,0.458,0.49,0.452c0.266-0.007,0.469-0.211,0.47-0.476
		c0.001-0.273-0.218-0.488-0.495-0.483C15.341,8.456,15.141,8.676,15.153,8.957z"/>
	<path style="&st1;" d="M10.868,10.173c0.258-0.005,0.465-0.217,0.468-0.48c0.003-0.266-0.194-0.474-0.458-0.482
		c-0.279-0.011-0.498,0.196-0.498,0.474C10.378,9.96,10.598,10.18,10.868,10.173z"/>
	<path style="&st1;" d="M17.133,9.21c-0.278-0.011-0.5,0.2-0.503,0.475c0,0.26,0.209,0.479,0.467,0.488
		c0.26,0.011,0.502-0.22,0.504-0.481C17.602,9.434,17.394,9.219,17.133,9.21z"/>
	<path style="&st1;" d="M9.69,10.375c-0.261-0.005-0.5,0.234-0.496,0.495c0.004,0.255,0.223,0.475,0.478,0.48
		c0.27,0.005,0.492-0.219,0.488-0.492C10.156,10.598,9.945,10.38,9.69,10.375z"/>
	<path style="&st1;" d="M10.159,17.109c-0.003-0.263-0.21-0.469-0.475-0.472c-0.273-0.002-0.496,0.222-0.49,0.491
		c0.005,0.261,0.215,0.465,0.48,0.469C9.953,17.601,10.164,17.39,10.159,17.109z"/>
	<path style="&st1;" d="M13.987,19.797c0.271,0,0.489-0.228,0.479-0.5c-0.008-0.265-0.216-0.462-0.484-0.461
		c-0.266,0.003-0.477,0.206-0.484,0.465C13.489,19.563,13.722,19.798,13.987,19.797z"/>
	<path style="&st1;" d="M19.523,15.624c-0.005-0.264-0.214-0.472-0.474-0.475c-0.271-0.001-0.487,0.222-0.482,0.496
		c0.006,0.276,0.227,0.48,0.504,0.468C19.336,16.102,19.528,15.894,19.523,15.624z"/>
	<path style="&st1;" d="M16.113,19.056c0.001-0.268-0.23-0.498-0.495-0.492c-0.259,0.008-0.465,0.222-0.466,0.486
		c-0.001,0.275,0.219,0.496,0.491,0.489C15.897,19.532,16.112,19.312,16.113,19.056z"/>
	<path style="&st1;" d="M19.792,13.974c-0.011-0.262-0.225-0.463-0.49-0.461c-0.263,0.003-0.477,0.211-0.482,0.469
		c-0.007,0.262,0.229,0.499,0.492,0.496C19.578,14.476,19.802,14.241,19.792,13.974z"/>
	<path style="&st1;" d="M8.913,16.114c0.274,0.006,0.501-0.213,0.5-0.48c-0.002-0.25-0.223-0.475-0.473-0.482
		c-0.257-0.008-0.48,0.199-0.495,0.455C8.43,15.884,8.636,16.108,8.913,16.114z"/>
	<path style="&st1;" d="M9.672,12.897c-0.222-0.007-0.425,0.192-0.425,0.414c0.003,0.209,0.188,0.392,0.405,0.396
		c0.227,0.005,0.429-0.188,0.423-0.406C10.073,13.091,9.884,12.902,9.672,12.897z"/>
	<path style="&st1;" d="M9.659,14.273c-0.217,0.003-0.404,0.188-0.405,0.399c-0.001,0.222,0.204,0.417,0.427,0.406
		c0.213-0.009,0.397-0.204,0.39-0.414C10.065,14.453,9.874,14.271,9.659,14.273z"/>
	<path style="&st1;" d="M17.09,11.306c0.219-0.005,0.41-0.215,0.397-0.434c-0.014-0.207-0.211-0.388-0.417-0.383
		c-0.208,0.006-0.395,0.193-0.398,0.402C16.669,11.109,16.872,11.312,17.09,11.306z"/>
	<path style="&st1;" d="M12.013,18.304c0.234-0.025,0.378-0.166,0.396-0.405c0.016-0.215-0.195-0.422-0.412-0.421
		c-0.215,0.002-0.419,0.209-0.414,0.422C11.587,18.116,11.8,18.325,12.013,18.304z"/>
	<path style="&st1;" d="M13.328,18.722c0.208-0.015,0.388-0.213,0.38-0.418c-0.008-0.219-0.221-0.413-0.435-0.396
		c-0.21,0.016-0.386,0.211-0.379,0.42C12.902,18.546,13.112,18.737,13.328,18.722z"/>
	<path style="&st1;" d="M12.891,9.668c0,0.234,0.181,0.405,0.425,0.398c0.213-0.005,0.4-0.188,0.4-0.396
		c0.003-0.221-0.2-0.409-0.43-0.402C13.062,9.276,12.891,9.448,12.891,9.668z"/>
	<path style="&st1;" d="M10.487,15.983c0.002-0.209-0.188-0.401-0.397-0.405c-0.21-0.003-0.402,0.187-0.405,0.396
		c-0.002,0.211,0.186,0.404,0.396,0.405C10.292,16.382,10.483,16.194,10.487,15.983z"/>
	<path style="&st1;" d="M17.098,17.487c0.223-0.008,0.395-0.184,0.394-0.402c-0.002-0.233-0.187-0.404-0.429-0.396
		c-0.214,0.008-0.399,0.195-0.398,0.401C16.665,17.309,16.868,17.495,17.098,17.487z"/>
	<path style="&st1;" d="M17.488,11.995c-0.001,0.248,0.124,0.388,0.372,0.404c0.241,0.018,0.424-0.15,0.428-0.385
		c0.004-0.225-0.155-0.396-0.379-0.406C17.663,11.597,17.489,11.753,17.488,11.995z"/>
	<path style="&st1;" d="M17.906,16.387c0.216-0.013,0.383-0.2,0.376-0.422c-0.006-0.219-0.191-0.399-0.403-0.395
		c-0.224,0.004-0.405,0.207-0.39,0.438C17.503,16.223,17.698,16.399,17.906,16.387z"/>
	<path style="&st1;" d="M11.984,9.696c-0.216,0.007-0.398,0.193-0.396,0.402c0.005,0.213,0.192,0.391,0.408,0.39
		c0.233,0,0.422-0.194,0.408-0.418C12.392,9.852,12.208,9.688,11.984,9.696z"/>
	<path style="&st1;" d="M14.683,9.278c-0.226-0.006-0.404,0.156-0.412,0.377c-0.008,0.216,0.167,0.399,0.386,0.407
		c0.222,0.007,0.401-0.159,0.409-0.379C15.073,9.462,14.905,9.285,14.683,9.278z"/>
	<path style="&st1;" d="M15.973,9.7c-0.226,0-0.392,0.166-0.392,0.391c-0.002,0.225,0.166,0.393,0.391,0.393
		c0.224,0.001,0.392-0.166,0.393-0.391C16.364,9.867,16.198,9.7,15.973,9.7z"/>
	<path style="&st1;" d="M15.062,18.319c0-0.223-0.175-0.402-0.391-0.404c-0.214-0.001-0.398,0.184-0.399,0.397
		c-0.002,0.211,0.185,0.402,0.395,0.403C14.88,18.718,15.062,18.536,15.062,18.319z"/>
	<path style="&st1;" d="M10.497,17.073c-0.006,0.227,0.154,0.396,0.379,0.404c0.229,0.007,0.398-0.15,0.405-0.377
		c0.008-0.229-0.152-0.398-0.378-0.405C10.677,16.688,10.505,16.848,10.497,17.073z"/>
	<path style="&st1;" d="M18.315,12.917c-0.225-0.004-0.398,0.162-0.401,0.384c-0.003,0.219,0.169,0.398,0.387,0.403
		c0.22,0.004,0.395-0.165,0.399-0.388C18.703,13.091,18.539,12.921,18.315,12.917z"/>
	<path style="&st1;" d="M10.097,11.613c-0.218-0.007-0.405,0.167-0.412,0.38c-0.008,0.213,0.172,0.397,0.39,0.404
		c0.22,0.005,0.405-0.164,0.413-0.381C10.495,11.805,10.315,11.62,10.097,11.613z"/>
	<path style="&st1;" d="M16.363,17.899c0.004-0.22-0.168-0.404-0.383-0.41c-0.212-0.004-0.396,0.178-0.399,0.395
		c-0.006,0.217,0.172,0.405,0.383,0.41C16.175,18.3,16.359,18.118,16.363,17.899z"/>
	<path style="&st1;" d="M17.914,14.679c0.001,0.216,0.181,0.396,0.395,0.396c0.22-0.001,0.39-0.174,0.391-0.398
		c0.001-0.224-0.168-0.393-0.392-0.393C18.087,14.284,17.914,14.458,17.914,14.679z"/>
	<path style="&st1;" d="M10.892,10.495c-0.212-0.002-0.392,0.182-0.393,0.399c-0.002,0.218,0.178,0.402,0.389,0.403
		c0.213,0.002,0.394-0.181,0.394-0.399C11.281,10.679,11.104,10.495,10.892,10.495z"/>
</g>
</svg>
