<?xml version="1.0" encoding="UTF-8" standalone="no"?>
<svg
   xmlns:dc="http://purl.org/dc/elements/1.1/"
   xmlns:cc="http://creativecommons.org/ns#"
   xmlns:rdf="http://www.w3.org/1999/02/22-rdf-syntax-ns#"
   xmlns:svg="http://www.w3.org/2000/svg"
   xmlns="http://www.w3.org/2000/svg"
   xmlns:sodipodi="http://sodipodi.sourceforge.net/DTD/sodipodi-0.dtd"
   xmlns:inkscape="http://www.inkscape.org/namespaces/inkscape"
   sodipodi:docname="figshare.svg"
   inkscape:version="1.0 (1.0+r73+1)"
   id="svg8"
   version="1.1"
   viewBox="0 0 512 512"
   height="512"
   width="512">
  <title
     id="title833">Figshare</title>
  <defs
     id="defs2" />
  <sodipodi:namedview
     inkscape:window-maximized="1"
     inkscape:window-y="27"
     inkscape:window-x="51"
     inkscape:window-height="713"
     inkscape:window-width="1315"
     inkscape:guide-bbox="true"
     showguides="true"
     units="px"
     showgrid="true"
     inkscape:document-rotation="0"
     inkscape:current-layer="layer6"
     inkscape:document-units="px"
     inkscape:cy="256"
     inkscape:cx="256"
     inkscape:zoom="0.75"
     inkscape:pageshadow="2"
     inkscape:pageopacity="0.0"
     borderopacity="1.0"
     bordercolor="#666666"
     pagecolor="#ffffff"
     id="base">
    <inkscape:grid
       empspacing="4"
       id="grid10"
       type="xygrid" />
    <sodipodi:guide
       inkscape:color="rgb(0,0,255)"
       inkscape:locked="true"
       inkscape:label="baseline"
       id="guide23"
       orientation="0,1"
       position="511.99998,64" />
  </sodipodi:namedview>
  <metadata
     id="metadata5">
    <rdf:RDF>
      <cc:Work
         rdf:about="">
        <dc:format>image/svg+xml</dc:format>
        <dc:type
           rdf:resource="http://purl.org/dc/dcmitype/StillImage" />
        <dc:title>Figshare</dc:title>
        <cc:license
           rdf:resource="http://scripts.sil.org/OFL" />
        <dc:subject>
          <rdf:Bag>
            <rdf:li>Figshare</rdf:li>
          </rdf:Bag>
        </dc:subject>
      </cc:Work>
      <cc:License
         rdf:about="http://scripts.sil.org/OFL">
        <cc:permits
           rdf:resource="http://scripts.sil.org/pub/OFL/Reproduction" />
        <cc:permits
           rdf:resource="http://scripts.sil.org/pub/OFL/Distribution" />
        <cc:permits
           rdf:resource="http://scripts.sil.org/pub/OFL/Embedding" />
        <cc:permits
           rdf:resource="http://scripts.sil.org/pub/OFL/DerivativeWorks" />
        <cc:requires
           rdf:resource="http://scripts.sil.org/pub/OFL/Notice" />
        <cc:requires
           rdf:resource="http://scripts.sil.org/pub/OFL/Attribution" />
        <cc:requires
           rdf:resource="http://scripts.sil.org/pub/OFL/ShareAlike" />
        <cc:requires
           rdf:resource="http://scripts.sil.org/pub/OFL/DerivativeRenaming" />
        <cc:requires
           rdf:resource="http://scripts.sil.org/pub/OFL/BundlingWhenSelling" />
      </cc:License>
    </rdf:RDF>
  </metadata>
  <g
     inkscape:label="icon"
     id="layer6"
     inkscape:groupmode="layer">
    <path
       id="path2"
       d="m 122.2155,93.104719 c 11.85358,0.06217 20.97666,-9.051753 20.97666,-20.997351 0,-11.862565 -9.20568,-21.079866 -20.9976,-20.997385 -11.23301,0.103521 -20.77019,9.526999 -21.03887,20.74932 -0.22737,11.304764 9.57845,21.203604 21.05981,21.244865 z M 472.03772,305.08055 c -11.6262,0 -21.24593,9.61007 -21.10114,21.12114 0.14476,11.18047 9.59883,20.62496 20.85279,20.9143 11.41916,0.24805 21.10114,-9.362 21.12147,-20.99737 0.0227,-11.94505 -8.9992,-21.01772 -20.87368,-21.03862 z M 389.59836,93.104719 c 11.81231,-0.02192 20.915,-9.299818 20.77021,-21.18327 -0.10356,-11.821312 -9.47494,-20.997385 -21.26627,-20.790539 -11.21268,0.206665 -20.708,9.775061 -20.77024,20.976458 -0.0623,11.387282 9.70238,21.038609 21.2663,20.997351 z M 255.85517,462.0011 c -11.62617,0.0412 -21.32852,9.73379 -21.1215,21.10019 0.22737,11.18045 9.76459,20.66624 20.95633,20.89399 11.44006,0.24794 21.05981,-9.362 21.08017,-21.05896 0.0219,-11.94509 -8.97827,-20.97649 -20.915,-20.93522 z m 70.12985,-11.01551 c -11.56396,0.0828 -20.87372,9.40328 -20.85282,20.83185 0.0219,11.30479 9.51627,20.81083 20.91507,20.87301 11.66747,0.0828 21.10111,-9.44451 20.97666,-21.26574 -0.10364,-11.57329 -9.30919,-20.52163 -21.03891,-20.43912 z m 157.43055,-215.923 c -11.58489,-0.0621 -21.01852,9.01049 -21.2663,20.4187 -0.22753,11.3873 9.74362,21.47262 21.12147,21.38955 11.35752,-0.0826 20.72894,-9.56882 20.72894,-20.99737 0.0624,-11.63538 -8.95737,-20.76964 -20.58411,-20.81088 z M 72.17254,368.50609 c -11.708773,-0.0412 -20.749289,8.84548 -20.852796,20.52155 -0.103634,11.8004 9.433679,21.45169 21.018547,21.28672 11.316194,-0.16592 20.790551,-9.83728 20.749248,-21.10024 -0.06225,-11.40762 -9.391752,-20.70803 -20.914999,-20.70803 z m -0.392579,-225.0991 c 11.440097,0.22715 21.369823,-9.65132 21.287222,-21.16238 -0.123742,-11.44946 -9.433641,-20.62499 -20.956302,-20.62499 -11.750623,0.0219 -20.728891,8.92801 -20.790551,20.60466 -0.06225,11.55228 9.040513,20.97646 20.459631,21.18327 z M 326.06817,60.906556 c 11.56397,0.06217 21.03891,-9.485737 20.95631,-21.162384 -0.0824,-11.676648 -9.57845,-20.893946 -21.34943,-20.687138 -11.29525,0.185813 -20.62541,9.795987 -20.50096,21.079865 0.10364,11.201398 9.64013,20.687139 20.89408,20.769657 z M 60.856929,326.13952 c 0.103635,-11.3873 -9.144023,-20.83179 -20.604477,-21.05897 -11.708773,-0.22718 -21.411089,9.17608 -21.514633,20.8109 -0.06225,11.24264 9.246981,20.8527 20.62542,21.22454 11.357462,0.35146 21.390732,-9.42416 21.494238,-20.97647 z M 439.62041,143.24141 c 11.31617,0.14483 20.93537,-9.29982 21.01852,-20.66621 0.10356,-11.49073 -9.10216,-20.79054 -20.66668,-20.87306 -11.5849,-0.0622 -20.93537,9.05175 -21.05983,20.50121 -0.12359,11.3048 9.33014,20.91428 20.70799,21.03861 z M 49.354624,255.72937 c -0.04138,-11.61447 -9.102172,-20.62498 -20.770193,-20.58372 -11.605813,0.0208 -20.6457786,9.15516 -20.5841202,20.79054 0.062245,11.53198 9.3714332,20.87305 20.7905872,20.79054 11.44006,-0.0621 20.584083,-9.42415 20.563141,-20.99736 z M 255.83481,49.663898 c 11.41912,0.08266 20.74925,-9.217335 20.77019,-20.74928 0.0623,-11.635387 -8.9783,-20.8317992 -20.52187,-20.914281 -11.41915,-0.062181 -20.85279,9.258557 -20.9563,20.687099 -0.0623,11.366396 9.35049,20.914322 20.70798,20.976462 z m 183.7856,318.883452 c -11.461,0.0825 -20.85283,9.56879 -20.70799,20.91429 0.10356,11.3048 9.8262,20.87305 21.05983,20.72837 11.35748,-0.16592 20.7702,-9.7547 20.66668,-21.10023 -0.0828,-11.42853 -9.47493,-20.62494 -21.01852,-20.54243 z M 451.164,185.42206 c -0.20674,11.18047 9.37141,20.95556 20.62537,21.10022 11.37785,0.16558 20.95631,-9.19641 21.03893,-20.58371 0.0828,-11.49072 -9.06089,-20.9352 -20.48058,-21.10024 -11.33658,-0.12362 -20.97672,9.21734 -21.18372,20.58373 z M 39.900627,206.52228 c 11.481363,-0.0208 20.604439,-9.36198 20.56314,-20.95555 -0.02192,-11.5732 -9.226586,-20.76966 -20.728895,-20.68714 -11.543604,0.0622 -20.645741,9.27948 -20.584082,20.89396 0.02196,11.55232 9.267888,20.81089 20.749251,20.7493 z M 185.80791,60.803114 c 11.461,-0.08232 20.66668,-9.444476 20.60447,-20.997347 -0.0414,-11.614465 -9.24698,-20.749282 -20.79058,-20.687137 -11.54357,0.08267 -20.62539,9.27948 -20.58408,20.873059 0.0622,11.531948 9.37143,20.893944 20.77019,20.810877 z M 122.2155,418.82865 c -11.52266,0.0828 -20.87373,9.46545 -20.72889,20.83181 0.16585,11.49075 9.47494,20.56339 21.05981,20.48032 11.62617,-0.0828 20.60448,-9.15519 20.52188,-20.81088 -0.1036,-11.59415 -9.22663,-20.56339 -20.8528,-20.50125 z m 267.27991,0.0227 c -11.58485,-0.0227 -20.77019,9.11387 -20.74928,20.66619 0.0414,11.53198 9.2057,20.6459 20.81153,20.625 11.64706,0 20.64574,-9.01051 20.64574,-20.66623 0,-11.63539 -8.97827,-20.62496 -20.70799,-20.62496 z m -203.52175,32.26031 c -11.64711,-0.14476 -20.8115,8.78335 -20.93536,20.35653 -0.12374,11.61449 8.85437,20.83181 20.41833,20.9974 11.54361,0.16592 20.79059,-8.90707 20.9563,-20.45995 0.14465,-11.59415 -8.83346,-20.79054 -20.43927,-20.89398 z M 325.09581,85.437418 c 0.24824,9.485738 8.46125,17.525392 17.87398,17.566652 9.86806,0.0219 17.72917,-8.122175 17.66692,-18.145343 -0.0827,-9.692542 -8.00587,-17.607912 -17.66692,-17.607912 -9.55755,0 -18.14269,8.742089 -17.87398,18.186603 z M 85.019427,325.27145 c -10.033236,0 -17.459906,7.44009 -17.480852,17.5045 0,9.94065 7.509275,17.67006 17.336039,17.85597 9.826806,0.18592 18.163596,-8.18375 17.997876,-18.06224 -0.16584,-9.85814 -7.861095,-17.29766 -17.853063,-17.29766 z M 120.43649,102.83848 c -9.82621,-0.0414 -17.81176,7.62601 -17.99787,17.29767 -0.20724,9.69258 8.19201,17.97976 18.12229,17.85598 9.80586,-0.0827 17.56345,-7.91533 17.54309,-17.67006 -0.0219,-9.75473 -7.8198,-17.46325 -17.66696,-17.48359 z m 324.95598,105.27504 c -9.47494,-0.0412 -17.79081,8.18375 -17.81178,17.67006 -0.0412,9.48575 8.23332,17.83508 17.70829,17.83508 9.51621,0.0208 17.77044,-8.18376 17.83265,-17.67007 0.0227,-9.527 -8.19198,-17.79382 -17.72916,-17.83507 z M 120.39464,409.05351 c 9.55751,0 17.66693,-8.16341 17.66693,-17.77285 0,-9.67174 -8.02685,-17.71136 -17.66693,-17.71136 -9.53663,0 -17.81176,8.20463 -17.83271,17.71136 -0.0219,9.44447 8.33683,17.77285 17.83271,17.77285 z M 445.39247,303.38574 c 9.76456,0 17.77047,-7.91533 17.83272,-17.50449 0,-9.63041 -7.92333,-17.56665 -17.64605,-17.64916 -10.05419,-0.12374 -18.30841,7.99785 -18.14264,17.75257 0.14513,9.58916 8.25422,17.42199 17.95657,17.40108 z M 285.89329,427.38478 c -9.66105,0.0227 -17.77047,8.06 -17.83271,17.5457 -0.0827,9.58919 7.9233,17.56664 17.62565,17.64919 9.86807,0.0828 17.87398,-7.50165 18.10139,-17.13264 0.20689,-9.85814 -8.00591,-18.08319 -17.89433,-18.06225 z M 268.14373,66.5275 c -0.10364,9.444518 8.15071,17.752578 17.66696,17.835096 9.5988,0.06217 17.77046,-8.060028 17.83267,-17.62825 0.0414,-9.568808 -8.06811,-17.814758 -17.62566,-17.876353 -9.4127,-0.06217 -17.74952,8.163432 -17.87397,17.670093 z M 67.559521,169.11609 c 0.08273,9.77505 8.171622,17.71129 17.770466,17.52537 9.70235,-0.22719 17.480853,-8.28717 17.315093,-18.00062 -0.12374,-9.81637 -8.068112,-17.58703 -17.811765,-17.42199 -9.743614,0.14483 -17.356396,8.03907 -17.273794,17.89724 z M 444.42011,342.46626 c -0.20712,-9.44448 -8.00591,-17.0914 -17.45995,-17.11174 -9.80583,-0.0621 -17.81174,7.83283 -17.81174,17.44234 0,9.6304 8.08849,17.54573 17.81174,17.46323 9.70235,-0.12374 17.68793,-8.24592 17.45995,-17.79383 z M 83.964463,225.82483 c 0,-9.73382 -8.026818,-17.71131 -17.625662,-17.60791 -9.43364,0.16562 -17.128985,7.91534 -17.232495,17.35983 -0.123742,9.81634 7.612747,17.75257 17.315097,17.89724 9.59881,0.10337 17.54306,-7.87408 17.54306,-17.64916 z m 258.756967,183.1665 c -9.80582,0.14476 -17.66692,8.16344 -17.4599,17.79383 0.22738,9.79604 8.08851,17.29769 17.99788,17.21514 9.80586,-0.10355 17.5012,-7.97744 17.33604,-17.77285 -0.10364,-9.73383 -8.02686,-17.35982 -17.87402,-17.23612 z M 225.61058,84.217931 c 9.61976,0.22715 17.66696,-7.667263 17.77047,-17.401104 0.0827,-9.775064 -7.75759,-17.814717 -17.4186,-17.814717 -9.41274,0 -17.25348,7.667259 -17.45991,17.111736 -0.14498,9.858172 7.44758,17.917577 17.10859,18.104085 z M 426.46353,186.43464 c 9.454,0.24805 17.85302,-7.85317 17.95658,-17.40107 0.14475,-9.50666 -8.00591,-17.71132 -17.62564,-17.73166 -9.55756,-0.0219 -17.70826,8.1634 -17.66699,17.6904 0.12359,9.32073 7.92333,17.19425 17.33605,17.44233 z m -35.25131,222.45332 c 9.61973,0.22715 17.66695,-7.7294 17.74953,-17.44233 0.0412,-9.77514 -7.81977,-17.77293 -17.43957,-17.77293 -9.61973,0.0208 -17.4808,7.99779 -17.4186,17.75256 0.0623,9.50668 7.6337,17.23608 17.10864,17.46323 z M 168.90633,102.7763 c 9.66105,-0.0219 17.45991,-8.059986 17.4186,-17.814717 -0.0622,-9.733803 -8.15071,-17.670055 -17.74952,-17.442327 -9.45403,0.247975 -17.04642,7.997851 -17.10863,17.504508 -0.0414,9.754731 7.86106,17.772916 17.43955,17.752536 z M 66.132337,303.19983 c 10.012876,0.16558 17.729164,-7.25417 17.832674,-17.15301 0.103634,-9.94064 -7.364429,-17.62824 -17.294703,-17.64915 -9.640143,-0.0621 -17.356397,7.29542 -17.563451,16.80207 -0.268762,9.9819 7.219616,17.83508 17.02548,18.00066 z M 392.03982,102.96281 c -9.95066,-0.207 -17.74956,7.25416 -17.91529,17.07048 -0.14464,10.00284 7.30279,17.64917 17.19125,17.71132 9.971,0.12367 17.6256,-7.41916 17.66691,-17.31855 0,-9.63044 -7.40629,-17.27733 -16.94287,-17.46325 z m -205.7143,323.69861 c 0.0414,-9.89942 -7.55112,-17.54574 -17.45994,-17.52541 -9.70232,0 -17.21159,7.31581 -17.3773,16.92586 -0.20686,9.94065 7.28182,17.71132 17.12898,17.83506 9.95067,0.12359 17.64602,-7.3988 17.70826,-17.23604 z m 56.99332,18.49629 c 0.10364,-9.94069 -7.42667,-17.54578 -17.37734,-17.54578 -9.88846,0 -17.48085,7.64636 -17.43954,17.58698 0.0622,9.56882 7.50923,17.11177 17.12898,17.23608 9.99197,0.14513 17.62566,-7.33667 17.6879,-17.27728 z m 76.62543,-37.32367 c 0.0827,-8.5974 -6.103,-14.81801 -14.64686,-14.81801 -8.17166,0.0416 -15.10166,6.92303 -14.9778,14.83835 0.12374,7.58475 7.03355,14.52869 14.66724,14.77678 7.88203,0.24793 14.87423,-6.71675 14.95683,-14.79712 z M 127.22169,335.04708 c -8.72996,-0.20681 -15.03946,5.70411 -15.12257,14.23937 -0.14498,8.22501 6.39261,15.18985 14.37757,15.35542 7.75756,0.16558 15.12257,-7.04735 15.18423,-14.87962 0.10364,-7.68816 -6.62002,-14.50777 -14.43982,-14.7146 z m 303.42045,-78.78095 c 0.26873,-7.77067 -6.20598,-14.7146 -14.02575,-15.02428 -8.72995,-0.28932 -15.20519,5.49729 -15.53609,13.88787 -0.33108,8.225 5.99947,15.25201 14.08796,15.66509 7.81981,0.39274 15.14295,-6.55119 15.47388,-14.52868 z M 305.52537,89.384625 c -8.19202,-0.04135 -15.16387,6.65458 -15.18427,14.590285 -0.0414,7.81192 7.24057,15.02427 15.06036,15.00393 7.81983,-0.0622 14.43985,-6.69587 14.54336,-14.59028 0.12374,-8.617758 -5.97854,-14.941792 -14.4189,-15.003935 z M 112.07872,162.33714 c 0.0827,7.85319 6.68224,14.54903 14.46018,14.63209 7.8198,0.10337 15.10166,-7.10949 15.10166,-14.94175 0.0219,-7.97751 -6.88873,-14.69369 -15.0813,-14.63209 -8.56479,0.0413 -14.58459,6.26185 -14.48108,14.94175 z m 280.99511,44.10255 c -0.10356,7.89442 7.13707,15.04519 15.03942,14.92143 8.06812,-0.14465 14.605,-7.10951 14.39852,-15.33452 -0.18595,-8.03909 -6.6613,-14.21845 -14.812,-14.11503 -7.90239,0.0825 -14.5637,6.69586 -14.62594,14.52868 z m -43.02923,163.6989 c -7.92331,-0.14468 -15.08131,6.96481 -15.01906,14.94171 0.0827,7.83288 6.70259,14.38405 14.62589,14.44566 8.25423,0.0828 14.60499,-5.95219 14.79169,-14.07379 0.18599,-8.26683 -6.28911,-15.14858 -14.39852,-15.31358 z M 89.198602,206.29503 c -0.123742,7.99783 6.909608,15.12768 14.874218,15.06609 7.79889,-0.0621 14.39852,-6.69586 14.48112,-14.61119 0.10363,-8.43184 -6.24781,-14.85927 -14.68814,-14.83836 -7.964606,0 -14.502029,6.46868 -14.667198,14.38402 z m 87.424568,178.68186 c 0,-7.97744 -6.43392,-14.61114 -14.27407,-14.8383 -7.92331,-0.22719 -15.12257,6.84046 -15.12257,14.8383 0.0219,7.91536 6.53743,14.44566 14.48109,14.54907 8.56479,0.14513 14.91555,-6.07593 14.91555,-14.54907 z M 384.96443,176.65902 c 7.90239,0.22715 15.08126,-6.8818 14.97774,-14.81805 -0.12359,-7.83281 -6.84741,-14.3631 -14.72938,-14.34277 -8.04722,0.0219 -14.52245,6.44781 -14.58466,14.36314 -0.1036,7.85315 6.45429,14.59029 14.3363,14.7971 z m 14.95737,172.95801 c -0.0624,-7.87409 -6.6822,-14.42527 -14.60496,-14.44562 -8.04717,-0.0412 -14.58465,6.30312 -14.70852,14.23935 -0.12374,8.12216 6.76486,15.06609 14.83298,14.92144 7.79883,-0.14465 14.50201,-6.94393 14.48111,-14.7146 z M 96.253019,270.50548 c 7.861101,-0.0826 14.481121,-6.75801 14.543371,-14.61118 0.0219,-7.95659 -6.45431,-14.44562 -14.439827,-14.56994 -7.923304,-0.0825 -14.667195,6.34436 -14.894605,14.17719 -0.227377,7.9775 6.764795,15.08644 14.791646,15.00393 z M 349.83754,111.97338 c -7.79885,0.0219 -14.54329,6.69584 -14.62589,14.54902 -0.10364,8.16343 6.70259,14.83835 14.99811,14.69369 8.02686,-0.1657 14.23277,-6.5721 14.17056,-14.71461 -0.0622,-7.89441 -6.70262,-14.52865 -14.54333,-14.52865 z m -187.7164,29.24271 c 8.08847,-0.0219 14.35722,-6.34437 14.37758,-14.46651 0.0414,-7.97751 -6.39262,-14.6112 -14.25372,-14.77675 -8.04717,-0.1657 -14.95681,6.79924 -14.83295,14.94175 0.14499,7.99785 6.68224,14.34277 14.70851,14.30096 z m 93.96144,288.91739 c 7.92331,-0.0828 14.31534,-6.63367 14.31534,-14.6321 0.0414,-8.03909 -6.41298,-14.59026 -14.29498,-14.69371 -7.8611,-0.0828 -14.58463,6.42743 -14.79169,14.32188 -0.18599,8.1425 6.64039,15.08644 14.77074,15.00393 z M 255.91745,81.572772 c -7.9233,0.04135 -14.60498,6.489033 -14.79164,14.342763 -0.18599,8.018735 6.64038,14.921425 14.8533,14.921425 8.08851,0 14.41888,-6.26186 14.54333,-14.321848 0.10364,-8.49402 -6.20595,-14.941792 -14.60499,-14.941792 z M 422.42927,305.3908 c 0.12359,-8.12216 -6.08209,-14.52869 -14.17055,-14.69369 -8.19201,-0.16558 -15.12257,6.48903 -15.06036,14.54903 0.0828,7.77067 6.80614,14.46652 14.62594,14.52869 7.88198,0.0825 14.50201,-6.4687 14.60497,-14.38403 z M 206.08154,89.467177 c -7.96461,0.247975 -14.23277,6.840541 -14.0676,14.859273 0.16584,7.89444 6.90964,14.44562 14.70849,14.34277 8.08848,-0.10352 14.54333,-7.04735 14.29502,-15.27234 -0.22738,-7.977514 -6.84744,-14.156301 -14.9365,-13.929117 z M 103.94844,319.79517 c 7.92334,-0.0208 14.43982,-6.48904 14.50207,-14.46653 0.10359,-8.1425 -6.103,-14.50778 -14.15021,-14.63209 -8.316433,-0.16559 -14.956814,6.34435 -14.87425,14.61118 0.08273,7.91534 6.723534,14.52868 14.52239,14.48744 z m 117.08991,87.97738 c 0.0623,-8.14254 -6.10299,-14.46652 -14.19146,-14.5903 -8.13037,-0.12397 -14.605,6.0347 -14.83295,14.05342 -0.20724,8.1425 6.49557,15.08647 14.58463,15.0661 7.8407,-0.0227 14.39852,-6.59244 14.43978,-14.52865 z m -59.10325,-45.4458 c 6.70259,-0.0826 11.95709,-5.47638 12.0193,-12.27564 0.0827,-7.0061 -4.84098,-12.19313 -11.70873,-12.42031 -6.90965,-0.18592 -12.82599,5.37353 -12.92949,12.11063 -0.12375,6.59244 5.99948,12.66838 12.61947,12.58587 z M 375.30404,235.33157 c 0.12374,6.77835 5.5028,12.13097 12.18504,12.13097 6.55779,0 12.70205,-6.24152 12.51595,-12.70963 -0.22753,-6.44778 -6.01985,-11.94505 -12.51595,-11.94505 -7.1783,0 -12.28801,5.27011 -12.18504,12.52371 z m -59.18646,151.52609 c 6.66132,0.24794 12.45376,-5.55946 12.45376,-12.50336 0,-7.02643 -4.90264,-12.00721 -11.91583,-12.11062 -7.0748,-0.10337 -12.76431,5.33171 -12.76431,12.19311 0.0219,6.34434 5.75117,12.19316 12.22638,12.42031 z M 124.80123,195.15589 c -0.18599,6.59243 5.87504,12.7927 12.49506,12.75145 6.95095,-0.0208 12.28801,-5.6007 12.1432,-12.75145 -0.10363,-6.96484 -5.19225,-11.90381 -12.1432,-11.88346 -6.68223,0 -12.35025,5.39387 -12.49506,11.88346 z M 277.0186,111.91123 c -6.51652,-0.1858 -12.74338,5.95219 -12.74338,12.54459 0.0414,6.5721 5.54408,12.04849 12.20541,12.15189 7.26146,0.12367 12.49502,-5.02202 12.49502,-12.23437 -0.0622,-6.59244 -5.50278,-12.2553 -11.95705,-12.46211 z m -152.714,135.4479 c 6.45427,0.0825 12.288,-5.6007 12.45376,-12.08972 0.16585,-6.48903 -5.3371,-12.27564 -11.89547,-12.48246 -6.68223,-0.22719 -12.37116,5.02203 -12.66078,11.63538 -0.33101,6.82017 5.35801,12.8752 12.10194,12.93736 z m 250.31665,-39.55578 c 6.62001,0 11.99839,-5.47636 12.08154,-12.21403 0.0828,-6.90268 -5.00614,-12.17279 -11.81228,-12.31746 -6.88871,-0.16558 -12.74336,5.55944 -12.59858,12.3378 0.12374,6.55119 5.79247,12.19313 12.32991,12.19313 z m -24.63882,154.44089 c 6.55781,0.0826 12.12284,-5.35262 12.22638,-12.04847 0.16589,-6.77836 -4.94452,-12.27563 -11.66751,-12.50338 -6.9509,-0.22718 -12.59853,5.27012 -12.59853,12.27565 -0.0219,6.63369 5.42022,12.19313 12.04024,12.27564 z m -154.5547,24.46874 c 6.86834,0.0412 12.41246,-5.74533 12.18509,-12.75142 -0.22738,-6.88177 -5.44061,-11.8213 -12.3712,-11.69697 -6.7648,0.12374 -12.0606,5.53853 -11.97799,12.23437 0.0414,6.61337 5.60632,12.17275 12.1641,12.21402 z M 222.87961,124.5796 c 0.0622,6.6337 5.48191,11.96597 12.22635,12.00723 6.82707,0.0219 12.10193,-5.20795 12.20544,-11.98631 0.0827,-6.65462 -5.2132,-12.23441 -11.87452,-12.48248 -6.72354,-0.22715 -12.63984,5.62106 -12.55727,12.46211 z m 12.26765,274.74015 c 6.70259,-0.0227 11.97803,-5.37351 11.97803,-12.15183 -0.0219,-6.69588 -5.50282,-12.23439 -12.0606,-12.1728 -6.59911,0.0219 -12.01933,5.6007 -11.97803,12.27565 0.0219,6.75802 5.35801,12.08968 12.0606,12.04845 z m -73.33661,-249.5475 c -6.78519,0 -12.28801,5.37354 -12.28801,11.98631 0,6.55118 5.56506,12.02812 12.24671,12.02812 6.74389,0.0219 12.12284,-5.33169 12.12284,-12.02812 0,-6.77836 -5.23414,-11.98631 -12.08154,-11.98631 z m 154.6582,-24.53093 c -6.66131,-0.0219 -12.28803,5.45601 -12.30893,12.00723 -0.0219,6.46866 5.62668,12.21404 12.14322,12.27563 6.57868,0.0622 12.1228,-5.49727 12.1228,-12.13097 0.0414,-6.84054 -5.17189,-12.11063 -11.95709,-12.15189 z m -27.5967,262.09158 c 0.0414,-6.59244 -5.42022,-12.25529 -11.99839,-12.35873 -6.41298,-0.0824 -12.22636,5.62108 -12.32986,12.11068 -0.0827,6.4687 5.54411,12.17276 12.12284,12.21404 6.72353,0.0828 12.12284,-5.22887 12.20541,-11.96599 z m 98.61633,-98.61985 c 6.62003,0 12.20545,-5.51819 12.20545,-12.04847 0.0227,-6.61335 -5.48186,-12.02813 -12.20545,-12.02813 -6.84737,0 -12.06058,5.18704 -12.06058,12.00722 0,6.71676 5.3371,12.06938 12.06058,12.06938 z M 136.6554,276.76742 c 0.10363,-6.55118 -5.35801,-12.04846 -12.1019,-12.11063 -6.78519,-0.0825 -12.20544,5.1458 -12.30895,11.84165 -0.0623,6.63369 5.33706,12.11062 12.06059,12.19313 6.62003,0.0825 12.24671,-5.33171 12.35026,-11.9247 z m 249.96424,39.26645 c -0.10356,-6.86143 -5.33707,-11.9038 -12.22634,-11.78005 -6.68226,0.0825 -12.12287,5.60069 -11.95711,12.19313 0.14498,6.61335 5.73022,12.02813 12.37117,11.88346 6.70259,-0.14468 11.9367,-5.60069 11.81228,-12.29654 z M 183.4497,137.64073 c 0.16585,6.67551 5.77153,12.04846 12.41249,11.84165 6.64094,-0.20667 11.75063,-5.72446 11.62618,-12.5034 -0.1245,-6.77891 -5.48191,-11.86254 -12.35026,-11.69695 -6.70259,0.16569 -11.83318,5.55942 -11.68841,12.3587 z m -45.88415,166.57183 c -6.78519,-0.12374 -12.22635,5.04239 -12.39155,11.7388 -0.16584,6.6546 5.17193,12.23438 11.85358,12.39997 6.66133,0.16558 12.16414,-5.1667 12.28804,-11.86256 0.10364,-6.88177 -4.90267,-12.13097 -11.75065,-12.27564 z M 350.04467,149.77225 c -6.90964,0.0413 -12.08154,5.31136 -11.95709,12.19312 0.10364,6.59247 5.2132,11.69698 11.75062,11.82131 6.86835,0.12367 12.20541,-5.08417 12.26765,-11.92471 0,-6.94391 -5.15099,-12.11064 -12.06063,-12.08972 z m -93.52759,6.30311 c 5.39931,-0.28932 10.07454,-5.35261 9.82622,-10.6227 -0.28963,-5.37354 -5.3371,-10.06443 -10.63345,-9.89943 -5.46152,0.1858 -10.05418,4.9808 -10.03324,10.4159 0.0622,5.66286 5.1306,10.43682 10.83989,10.10568 z m 78.28112,35.00899 c -0.0623,5.39387 4.71657,10.25032 10.09548,10.33339 5.35801,0.0825 10.26068,-4.73269 10.32289,-10.10566 0.0414,-5.37351 -4.73747,-10.31248 -10.13678,-10.33339 -5.2958,-0.0621 -10.21935,4.79486 -10.28159,10.10566 z m -14.43978,143.48757 c -5.42026,0.16562 -10.13681,5.00113 -10.05424,10.3334 0.10359,5.39386 4.8823,10.00281 10.34385,10.04405 5.60633,0 10.21935,-4.48461 10.3025,-9.98189 0.0623,-5.74536 -4.82004,-10.56056 -10.59211,-10.39499 z M 140.87526,221.67087 c -0.12375,5.53854 4.98582,10.51932 10.71605,10.37465 5.50281,-0.12374 10.05417,-4.83611 9.97102,-10.33339 -0.0827,-5.43512 -4.75782,-10.00282 -10.28159,-10.02316 -5.42025,-0.0208 -10.26064,4.65021 -10.40548,9.9819 z m 50.18722,133.27795 c 5.81338,0.0825 10.07457,-4.07154 10.17808,-9.91975 0.12374,-5.76569 -4.19953,-10.33339 -9.80586,-10.45715 -5.60636,-0.0825 -10.15772,4.40212 -10.24029,10.06441 -0.0414,5.91037 4.03375,10.18873 9.86807,10.31249 z m 153.89286,-24.48968 c 5.64762,0.0412 10.28159,-4.54679 10.19902,-10.10566 -0.0623,-5.57978 -4.77877,-10.02316 -10.44734,-9.87848 -5.46151,0.12374 -9.82622,4.48462 -9.90937,9.81631 -0.10363,5.6007 4.38561,10.14749 10.15769,10.16783 z M 370.64911,221.9393 c 0.0219,-5.91037 -4.09599,-10.16782 -9.90937,-10.25033 -5.81337,-0.0621 -10.05417,4.13314 -10.11583,10.00281 -0.1036,5.72445 4.26174,10.31249 9.86806,10.35374 5.64763,0.0825 10.11588,-4.40211 10.15773,-10.10565 z M 221.63853,370.65516 c 5.35801,0.20682 10.26065,-4.48461 10.4264,-9.91974 0.12374,-5.49727 -4.36525,-10.33338 -9.82622,-10.53965 -5.50282,-0.22719 -10.13678,4.29871 -10.30249,9.91975 -0.14498,5.66285 4.13729,10.33339 9.70231,10.53964 z M 145.63367,265.93844 c 5.60632,0.12374 10.30253,-4.46371 10.34383,-10.04406 0.0414,-5.41478 -4.19954,-9.85815 -9.64014,-10.08531 -5.64763,-0.24805 -10.44731,4.13312 -10.67472,9.71347 -0.14464,5.47637 4.46821,10.3334 9.97103,10.4159 z m 66.26125,-114.26519 c 0.22737,5.5182 4.48915,9.54792 10.01287,9.54792 5.81338,0 10.17809,-4.38123 10.13678,-10.10569 -0.12374,-5.70409 -4.59266,-9.98187 -10.40545,-9.89939 -5.70987,0.14449 -9.92976,4.67056 -9.74366,10.45716 z m 68.20601,0.10352 c 0.24824,5.5182 4.53042,9.4654 10.13674,9.34108 5.50281,-0.1445 9.70235,-4.36086 9.7233,-9.83722 0.0219,-5.64197 -4.5101,-10.08535 -10.24029,-9.9819 -5.73023,0.12363 -9.86811,4.67052 -9.61975,10.47804 z m -88.64532,25.1305 c 5.3371,-0.10337 9.61975,-4.48463 9.68144,-9.91976 0.0623,-5.49727 -4.01342,-9.79598 -9.47494,-9.96098 -5.77153,-0.22715 -10.30253,4.05064 -10.30253,9.79598 -0.0414,5.6832 4.51006,10.22999 10.09548,10.08533 z m 129.60591,-19.90163 c -5.75114,-0.22715 -10.34383,4.13313 -10.40548,9.81633 0,5.37349 4.32342,9.89938 9.66107,10.0853 5.37895,0.22719 10.3851,-4.54677 10.4264,-9.94064 0.0219,-5.33173 -4.2821,-9.7751 -9.68141,-9.96099 z m -153.97546,24.07659 c -5.39931,-0.10337 -10.3438,4.83611 -10.26065,10.22997 0.0827,5.27011 4.61302,9.81633 9.88847,9.91975 5.58537,0.10337 10.17804,-4.52588 10.09547,-10.16783 -0.0827,-5.37352 -4.44785,-9.87848 -9.72329,-9.98189 z m 9.70235,139.16795 c -0.0623,-5.43512 -4.34434,-9.69256 -9.82622,-9.75473 -5.64762,-0.0412 -10.26064,4.58803 -10.13678,10.14748 0.10364,5.39386 4.44785,9.61006 9.92976,9.69256 5.7715,0.0826 10.13675,-4.27779 10.03324,-10.08531 z m 79.19128,55.55145 c 5.60633,0 10.11584,-4.71179 9.90937,-10.33339 -0.16584,-5.47637 -4.46821,-9.54791 -10.01287,-9.527 -5.50286,0.0621 -9.86811,4.25746 -10.01292,9.61007 -0.18599,5.41478 4.63397,10.27119 10.11584,10.25032 z m 114.52461,-86.2414 c -0.1036,-5.45602 -4.42691,-9.75474 -9.80586,-9.81632 -5.60632,-0.0208 -10.07453,4.58803 -9.97102,10.25032 0.12374,5.7041 4.69616,9.91973 10.42639,9.67166 5.48191,-0.22718 9.45404,-4.52588 9.35049,-10.10566 z m -70.54392,70.92723 c 0.0219,-5.53854 -4.75783,-10.29214 -10.24029,-10.16783 -5.35801,0.16558 -9.61975,4.58804 -9.6401,10.04407 -0.0219,5.68319 4.53041,10.25031 10.15768,10.10566 5.2545,-0.14468 9.70235,-4.69145 9.7233,-9.9819 z m 76.109,-105.02697 c -0.22738,-5.41478 -4.65492,-9.56881 -10.1368,-9.52701 -5.44061,0.0621 -9.86806,4.36087 -9.97102,9.69257 -0.14461,5.41479 4.73747,10.31249 10.17804,10.25034 5.50285,-0.0412 10.1368,-4.89771 9.92978,-10.4159 z M 151.01204,299.6868 c 5.66856,0.12374 10.36418,-4.40212 10.34383,-9.91975 -0.0414,-5.16669 -4.61302,-9.81632 -9.78496,-9.96099 -5.3167,-0.16559 -9.92972,4.11279 -10.24029,9.40325 -0.31048,5.72445 3.95122,10.35373 9.68142,10.47806 z m 15.70184,-66.48385 c -4.59267,-0.14468 -8.7922,3.96812 -8.7922,8.55616 0.0622,4.31904 3.88897,8.10124 8.37813,8.18375 4.69616,0.10337 8.87476,-3.88505 8.75085,-8.39058 -0.0414,-4.33995 -3.95118,-8.24591 -8.33678,-8.34933 z m -0.26911,28.43689 c -4.48915,0.0621 -8.35777,3.88505 -8.37812,8.24592 -0.0219,4.58804 4.22043,8.61775 8.83345,8.39058 4.40659,-0.18591 8.21297,-4.21619 8.06816,-8.55615 -0.12374,-4.36087 -4.07564,-8.12217 -8.52294,-8.08035 z m 153.72768,-61.31711 c 4.53042,-0.10337 8.48164,-4.44337 8.21293,-8.96925 -0.28963,-4.27779 -4.36526,-8.01874 -8.62645,-7.91533 -4.30304,0.12374 -8.17165,3.98846 -8.23331,8.30807 -0.0623,4.50554 4.13732,8.70083 8.64738,8.57651 z M 215.14311,344.94616 c 4.84101,-0.5165 7.81979,-3.43071 8.19201,-8.36968 0.33101,-4.44337 -4.03378,-8.72117 -8.52293,-8.70083 -4.44785,0.0412 -8.66771,4.31906 -8.56475,8.72117 0.0827,4.46372 4.48912,8.78333 8.89567,8.34934 z m 27.20356,8.63866 c 4.30304,-0.31022 8.02681,-4.40212 7.86109,-8.63866 -0.16584,-4.52588 -4.57175,-8.53526 -8.99921,-8.18377 -4.34434,0.33059 -7.98555,4.36087 -7.84074,8.67991 0.16584,4.50554 4.51006,8.45275 8.97831,8.14252 z m -9.04052,-187.11375 c 0,4.83611 3.74417,8.36966 8.7922,8.22499 4.40655,-0.10352 8.27513,-3.88502 8.27513,-8.18373 0.0623,-4.56715 -4.13729,-8.45276 -8.89567,-8.3081 -4.63396,0.1657 -8.17166,3.72006 -8.17166,8.26684 z M 183.5743,296.97945 c 0.0414,-4.31904 -3.88894,-8.28717 -8.21293,-8.36967 -4.34431,-0.0621 -8.31643,3.8647 -8.37809,8.18376 -0.0414,4.36086 3.84767,8.34932 8.19198,8.36967 4.36525,0.0621 8.31647,-3.82345 8.39904,-8.18376 z m 136.76332,31.08268 c 4.61302,-0.16558 8.17162,-3.80254 8.15071,-8.30807 -0.0414,-4.8152 -3.86861,-8.34933 -8.87476,-8.18377 -4.42694,0.16559 -8.25425,4.02973 -8.23334,8.28718 0,4.52588 4.19956,8.36968 8.95739,8.20466 z m 8.06811,-113.50061 c -0.0219,5.12544 2.5653,8.01875 7.69593,8.34934 4.98579,0.37183 8.77122,-3.10014 8.85441,-7.95659 0.0827,-4.6502 -3.20678,-8.18376 -7.84074,-8.3906 -5.0893,-0.22718 -8.68865,2.99672 -8.7096,7.99785 z m 8.64739,90.76727 c 4.46821,-0.26846 7.92331,-4.13314 7.7785,-8.72117 -0.12374,-4.52588 -3.95118,-8.24592 -8.33683,-8.16341 -4.63396,0.0825 -8.37809,4.27779 -8.06811,9.05174 0.28962,4.44338 4.3234,8.08035 8.62644,7.83284 z M 214.54296,167.04972 c -4.46824,0.14484 -8.23332,3.98847 -8.19201,8.3081 0.10363,4.40211 3.97212,8.08033 8.44033,8.05999 4.82004,0 8.72996,-4.00937 8.44034,-8.63868 -0.24824,-4.50552 -4.05473,-7.89441 -8.68866,-7.72941 z m 55.83482,-8.63868 c -4.67523,-0.12363 -8.35774,3.22393 -8.5229,7.79105 -0.16588,4.4637 3.45451,8.24591 7.98551,8.41149 4.59266,0.14483 8.29553,-3.28607 8.46128,-7.83285 0.14498,-4.56711 -3.33065,-8.22499 -7.92331,-8.36969 z m 26.68653,8.7212 c -4.67526,0 -8.10942,3.4307 -8.10942,8.08033 -0.0414,4.6502 3.43416,8.12217 8.08847,8.12217 4.63397,0.0208 8.10942,-3.43071 8.13036,-8.08036 -0.0219,-4.67052 -3.45454,-8.12214 -8.10941,-8.12214 z m -18.84579,178.12415 c 0,-4.60838 -3.6203,-8.30808 -8.08851,-8.34933 -4.42691,-0.0208 -8.23328,3.80255 -8.25423,8.20466 -0.0414,4.36087 3.82732,8.30808 8.17166,8.32843 4.40656,0.0621 8.17163,-3.69913 8.17163,-8.18376 z M 183.7808,319.50598 c -0.12374,4.69144 3.18584,8.18375 7.8407,8.34933 4.73748,0.14464 8.23332,-3.10013 8.37813,-7.79101 0.16585,-4.73271 -3.14457,-8.22501 -7.8198,-8.36968 -4.67526,-0.14464 -8.23331,3.16173 -8.39903,7.81192 z m 161.73356,-85.8899 c -4.65487,-0.0825 -8.23328,3.34821 -8.29552,7.93568 -0.0623,4.52587 3.4964,8.22501 8.0059,8.32841 4.55136,0.0826 8.17166,-3.4098 8.25423,-8.01874 0.0623,-4.65019 -3.33065,-8.16341 -7.96461,-8.24592 z M 175.50618,206.66709 c -4.51006,-0.14468 -8.37809,3.45106 -8.5229,7.85318 -0.16585,4.40212 3.55806,8.20466 8.06812,8.34933 4.55136,0.10337 8.37809,-3.38947 8.54384,-7.87409 0.14464,-4.36086 -3.579,-8.18375 -8.08847,-8.32842 z m 129.62624,129.90939 c 0.0827,-4.54679 -3.47545,-8.34933 -7.9233,-8.47309 -4.38565,-0.0825 -8.19202,3.67879 -8.25423,8.16342 -0.12374,4.48461 3.55806,8.36967 7.92331,8.47308 4.36525,0.12378 8.17166,-3.63754 8.25422,-8.16341 z m 32.08642,-66.54601 c 0.0219,4.46371 3.74416,8.18375 8.17166,8.18375 4.55136,-0.0208 8.06811,-3.59572 8.08847,-8.225 0.0219,-4.62929 -3.47545,-8.12217 -8.10942,-8.12217 -4.57171,0 -8.15071,3.59573 -8.15071,8.16342 z M 191.95242,183.5619 c -4.3856,-0.0412 -8.10941,3.76131 -8.13036,8.24592 -0.0414,4.50554 3.68251,8.30808 8.04721,8.32843 4.40656,0.0412 8.15072,-3.74039 8.15072,-8.24592 -0.0219,-4.52587 -3.68251,-8.32843 -8.06811,-8.32843 z"
       style="stroke-width:0.0772082" />
  </g>
</svg>
