<?xml version="1.0" encoding="utf-8"?>
<!-- Generator: Adobe Illustrator 16.0.0, SVG Export Plug-In . SVG Version: 6.00 Build 0)  -->
<!DOCTYPE svg PUBLIC "-//W3C//DTD SVG 1.1//EN" "http://www.w3.org/Graphics/SVG/1.1/DTD/svg11.dtd" [
	<!ENTITY st0 "fill-rule:evenodd;clip-rule:evenodd;fill:#444444;">
	<!ENTITY st1 "fill:#FFFFFF;">
	<!ENTITY st2 "fill:#444444;">
]>
<svg version="1.1" id="Layer_1" xmlns="http://www.w3.org/2000/svg" xmlns:xlink="http://www.w3.org/1999/xlink" x="0px" y="0px"
	 width="28px" height="28px" viewBox="0 0 28 28" style="enable-background:new 0 0 28 28;" xml:space="preserve">
<g>
	<g>
		<path style="&st2;" d="M22.68,3.32C21.799,2.439,20.74,2,19.5,2h-15C3.26,2,2.201,2.439,1.32,3.32C0.439,4.199,0,5.26,0,6.5v15
			c0,1.24,0.439,2.301,1.32,3.182C2.201,25.559,3.262,26,4.5,26h15c1.24,0,2.299-0.441,3.18-1.32C23.561,23.799,24,22.74,24,21.5
			v-15C24,5.26,23.561,4.199,22.68,3.32z M19.631,11.74c-0.003,0.367-0.311,0.67-0.677,0.664c-0.363-0.005-0.672-0.32-0.665-0.681
			c0.006-0.367,0.317-0.668,0.683-0.664C19.339,11.065,19.634,11.37,19.631,11.74z M5.898,14.4c0.319,0.001,0.561,0.248,0.558,0.569
			c-0.004,0.319-0.252,0.559-0.575,0.553c-0.315-0.005-0.557-0.259-0.549-0.58C5.34,14.636,5.588,14.398,5.898,14.4z M5.332,13.02
			c0.004-0.305,0.252-0.555,0.556-0.561c0.31-0.004,0.568,0.254,0.568,0.568S6.199,13.6,5.891,13.597
			C5.578,13.592,5.329,13.335,5.332,13.02z M6.375,13.983c0.007-0.252,0.225-0.459,0.48-0.456c0.258,0.003,0.466,0.213,0.465,0.47
			c-0.002,0.253-0.215,0.469-0.469,0.471C6.593,14.471,6.368,14.241,6.375,13.983z M7.636,10.193
			c-0.32,0.004-0.592-0.264-0.585-0.576c0.007-0.312,0.264-0.559,0.58-0.558c0.318,0,0.568,0.249,0.569,0.563
			C8.201,9.938,7.951,10.191,7.636,10.193z M8.315,10.969c0,0.253-0.235,0.485-0.487,0.481c-0.251-0.002-0.464-0.219-0.466-0.472
			c-0.004-0.279,0.19-0.48,0.467-0.481C8.093,10.495,8.316,10.712,8.315,10.969z M7.57,12.411c-0.003,0.255-0.215,0.469-0.467,0.471
			c-0.256,0.003-0.482-0.228-0.479-0.485c0.005-0.255,0.216-0.463,0.474-0.464C7.369,11.932,7.574,12.139,7.57,12.411z
			 M7.773,12.929c0.212,0.007,0.389,0.193,0.384,0.403c-0.005,0.209-0.192,0.392-0.401,0.39c-0.218-0.002-0.4-0.197-0.391-0.417
			C7.375,13.091,7.559,12.922,7.773,12.929z M7.111,15.119c0.26,0.004,0.459,0.21,0.455,0.472c-0.001,0.258-0.211,0.467-0.467,0.468
			c-0.252,0.001-0.465-0.213-0.468-0.468C6.629,15.324,6.843,15.114,7.111,15.119z M7.629,17.793c0.312,0,0.57,0.259,0.57,0.571
			c0,0.311-0.262,0.573-0.57,0.573c-0.305,0-0.574-0.27-0.574-0.573C7.056,18.058,7.322,17.793,7.629,17.793z M7.825,17.505
			C7.567,17.5,7.357,17.275,7.362,17.01c0.003-0.275,0.206-0.466,0.487-0.459c0.252,0.006,0.469,0.227,0.466,0.475
			C8.313,17.278,8.075,17.511,7.825,17.505z M7.367,14.661c0.004-0.216,0.178-0.384,0.396-0.382c0.217,0.002,0.394,0.179,0.39,0.391
			c-0.003,0.213-0.184,0.388-0.397,0.385C7.539,15.052,7.365,14.876,7.367,14.661z M8.122,13.984
			c0.007-0.18,0.162-0.321,0.344-0.313c0.176,0.008,0.312,0.151,0.312,0.326c-0.002,0.18-0.153,0.328-0.334,0.324
			C8.266,14.317,8.117,14.161,8.122,13.984z M14.875,13.803c-0.146-0.003-0.26-0.123-0.258-0.269
			c0.002-0.147,0.118-0.259,0.268-0.256c0.149,0.002,0.259,0.116,0.257,0.266C15.138,13.692,15.021,13.806,14.875,13.803z
			 M15.141,14.451c-0.001,0.149-0.114,0.265-0.261,0.266c-0.143,0-0.262-0.12-0.263-0.265c0-0.146,0.115-0.263,0.262-0.263
			C15.028,14.189,15.142,14.302,15.141,14.451z M15.05,12.894c0.001-0.189,0.139-0.325,0.326-0.323
			c0.187,0.003,0.319,0.14,0.318,0.331c-0.001,0.184-0.145,0.329-0.327,0.326C15.187,13.226,15.046,13.078,15.05,12.894z
			 M15.024,11.349c-0.211-0.004-0.376-0.169-0.38-0.382c-0.003-0.222,0.163-0.392,0.386-0.393s0.389,0.165,0.389,0.39
			C15.417,11.185,15.245,11.353,15.024,11.349z M14.87,11.58c0.174,0.001,0.328,0.16,0.327,0.333
			c-0.002,0.174-0.16,0.329-0.333,0.326c-0.174-0.002-0.327-0.159-0.325-0.333C14.541,11.734,14.699,11.578,14.87,11.58z
			 M14.613,12.405c0.149,0.007,0.256,0.122,0.253,0.271c-0.003,0.156-0.124,0.268-0.285,0.257c-0.165-0.012-0.249-0.104-0.248-0.271
			C14.334,12.502,14.449,12.397,14.613,12.405z M14.05,15.793c0.161-0.006,0.284,0.108,0.285,0.264
			c0.001,0.146-0.113,0.263-0.262,0.269c-0.153,0.005-0.289-0.119-0.289-0.266C13.783,15.923,13.907,15.798,14.05,15.793z
			 M13.789,11.928c0.003-0.14,0.127-0.265,0.266-0.268c0.137-0.004,0.269,0.117,0.277,0.255c0.009,0.146-0.118,0.285-0.265,0.289
			C13.923,12.208,13.787,12.073,13.789,11.928z M14.072,11.449c-0.172-0.007-0.312-0.153-0.312-0.326
			c0.002-0.183,0.149-0.323,0.336-0.316c0.173,0.006,0.312,0.149,0.312,0.321C14.407,11.302,14.245,11.456,14.072,11.449z
			 M13.943,10.565c-0.21-0.002-0.393-0.187-0.392-0.396c0.001-0.211,0.182-0.388,0.396-0.387c0.219,0.001,0.387,0.171,0.386,0.392
			C14.334,10.388,14.155,10.567,13.943,10.565z M13.584,11.396c-0.001,0.149-0.112,0.261-0.262,0.26
			c-0.149,0-0.262-0.111-0.261-0.261c0-0.15,0.111-0.261,0.262-0.261C13.473,11.134,13.584,11.245,13.584,11.396z M13.591,9.58
			c-0.252,0.001-0.486-0.231-0.485-0.483c0.001-0.256,0.226-0.473,0.49-0.471c0.272,0.002,0.469,0.206,0.464,0.483
			C14.057,9.364,13.843,9.578,13.591,9.58z M13.417,10.622c-0.001,0.177-0.137,0.312-0.313,0.317
			c-0.181,0.004-0.319-0.123-0.327-0.302c-0.008-0.188,0.125-0.334,0.311-0.337C13.271,10.297,13.417,10.44,13.417,10.622z
			 M12.659,10.149c-0.215-0.004-0.392-0.18-0.393-0.393c0-0.213,0.2-0.41,0.41-0.404c0.209,0.006,0.384,0.189,0.385,0.402
			C13.062,9.987,12.894,10.153,12.659,10.149z M11.818,11.114c0,0.138-0.125,0.26-0.268,0.264c-0.162,0.004-0.282-0.109-0.282-0.266
			c0-0.146,0.113-0.262,0.264-0.267C11.685,10.841,11.82,10.967,11.818,11.114z M11.667,10.45c-0.001-0.175,0.147-0.329,0.323-0.336
			c0.17-0.005,0.333,0.147,0.342,0.32c0.009,0.17-0.142,0.333-0.315,0.343C11.832,10.787,11.669,10.634,11.667,10.45z
			 M11.523,16.605c0.143-0.012,0.284,0.118,0.29,0.264c0.005,0.137-0.115,0.269-0.254,0.278c-0.144,0.011-0.283-0.117-0.289-0.263
			C11.267,16.746,11.384,16.615,11.523,16.605z M11.995,17.224c0.18,0,0.318,0.132,0.323,0.308c0.007,0.182-0.139,0.333-0.319,0.333
			c-0.177,0.001-0.332-0.155-0.326-0.33C11.678,17.361,11.818,17.226,11.995,17.224z M12.189,16.875
			c0.001-0.143,0.124-0.266,0.267-0.265c0.144,0.001,0.26,0.121,0.26,0.27c-0.001,0.145-0.121,0.266-0.264,0.265
			C12.312,17.144,12.188,17.016,12.189,16.875z M12.445,11.375c-0.146-0.005-0.263-0.128-0.257-0.271
			c0.005-0.146,0.124-0.255,0.274-0.251c0.148,0.004,0.26,0.122,0.255,0.27S12.593,11.38,12.445,11.375z M11.999,9.317
			c-0.264,0-0.484-0.223-0.479-0.481c0.006-0.253,0.222-0.462,0.477-0.463c0.271,0,0.475,0.209,0.471,0.482
			C12.464,9.115,12.26,9.317,11.999,9.317z M11.72,9.762c-0.004,0.219-0.174,0.387-0.394,0.386
			c-0.218-0.001-0.393-0.173-0.394-0.387C10.93,9.54,11.12,9.352,11.337,9.358C11.551,9.366,11.722,9.546,11.72,9.762z
			 M11.229,10.616c0.001,0.186-0.14,0.326-0.327,0.326c-0.179,0-0.315-0.13-0.322-0.308c-0.007-0.187,0.129-0.333,0.314-0.337
			C11.081,10.294,11.225,10.433,11.229,10.616z M10.944,11.38c0.01,0.149-0.116,0.279-0.271,0.279
			c-0.145,0.001-0.27-0.118-0.272-0.26c-0.002-0.14,0.119-0.264,0.264-0.269C10.813,11.126,10.936,11.234,10.944,11.38z
			 M10.412,9.57C10.16,9.574,9.943,9.362,9.938,9.107c-0.006-0.259,0.196-0.471,0.453-0.479c0.26-0.008,0.474,0.191,0.481,0.448
			C10.881,9.343,10.673,9.567,10.412,9.57z M10.039,9.783c0.222-0.005,0.394,0.159,0.397,0.378s-0.161,0.397-0.375,0.403
			c-0.214,0.007-0.395-0.167-0.399-0.382C9.657,9.963,9.822,9.788,10.039,9.783z M9.926,10.807c0.177,0.006,0.308,0.145,0.306,0.322
			c-0.002,0.175-0.14,0.316-0.312,0.32c-0.181,0.004-0.327-0.143-0.325-0.327C9.595,10.938,9.74,10.8,9.926,10.807z M9.933,12.199
			c-0.141-0.001-0.26-0.124-0.259-0.27c0.001-0.145,0.12-0.268,0.262-0.267c0.142,0,0.26,0.123,0.26,0.27
			C10.195,12.078,10.074,12.2,9.933,12.199z M10.195,16.067c-0.005,0.15-0.118,0.256-0.271,0.251
			c-0.149-0.005-0.257-0.118-0.252-0.27c0.005-0.15,0.119-0.257,0.271-0.252C10.094,15.802,10.2,15.915,10.195,16.067z
			 M9.666,12.678c-0.006,0.145-0.129,0.257-0.275,0.254c-0.145-0.005-0.265-0.128-0.26-0.27s0.13-0.258,0.274-0.253
			C9.551,12.413,9.671,12.536,9.666,12.678z M9.109,13.805c-0.145-0.003-0.269-0.124-0.27-0.264c0-0.147,0.135-0.28,0.282-0.276
			c0.142,0.004,0.268,0.13,0.27,0.27C9.395,13.68,9.261,13.809,9.109,13.805z M9.388,14.443c0.006,0.14-0.118,0.271-0.259,0.276
			c-0.148,0.007-0.286-0.123-0.285-0.271c0.001-0.142,0.126-0.265,0.27-0.267S9.385,14.302,9.388,14.443z M9.122,12.233
			c-0.17-0.003-0.315-0.15-0.318-0.32c-0.003-0.174,0.157-0.333,0.331-0.33c0.17,0.004,0.311,0.148,0.313,0.322
			C9.45,12.088,9.302,12.237,9.122,12.233z M8.963,11.349c-0.216,0-0.395-0.177-0.395-0.389c0-0.213,0.178-0.386,0.396-0.386
			c0.22,0,0.389,0.167,0.389,0.386C9.354,11.177,9.181,11.349,8.963,11.349z M8.625,12.57c0.178,0.001,0.329,0.148,0.332,0.324
			c0.002,0.177-0.146,0.329-0.322,0.333c-0.185,0.004-0.35-0.156-0.345-0.335C8.294,12.721,8.45,12.57,8.625,12.57z M8.635,14.768
			c0.166,0.005,0.314,0.155,0.314,0.322c0.001,0.178-0.149,0.323-0.333,0.32c-0.185-0.005-0.322-0.154-0.312-0.339
			C8.314,14.9,8.464,14.763,8.635,14.768z M8.979,16.634c0.221,0.007,0.38,0.175,0.377,0.4c-0.001,0.22-0.171,0.393-0.387,0.396
			c-0.214,0.004-0.41-0.192-0.407-0.405C8.565,16.807,8.756,16.628,8.979,16.634z M9.124,16.398
			c-0.177-0.003-0.316-0.139-0.32-0.312c-0.003-0.18,0.146-0.329,0.327-0.327c0.177,0.002,0.314,0.139,0.316,0.314
			C9.45,16.26,9.31,16.4,9.124,16.398z M9.395,15.586c-0.141-0.001-0.266-0.129-0.264-0.27c0.002-0.14,0.131-0.266,0.271-0.265
			c0.14,0.003,0.266,0.132,0.265,0.271C9.663,15.463,9.535,15.588,9.395,15.586z M9.919,16.535c0.181,0.003,0.319,0.15,0.316,0.337
			c-0.004,0.188-0.141,0.322-0.328,0.32c-0.188-0.004-0.319-0.142-0.318-0.333C9.592,16.677,9.738,16.532,9.919,16.535z
			 M10.042,17.428c0.223-0.004,0.391,0.155,0.398,0.378c0.007,0.226-0.172,0.412-0.393,0.411c-0.211-0.001-0.391-0.181-0.393-0.395
			C9.652,17.606,9.823,17.432,10.042,17.428z M10.396,16.6c-0.003-0.142,0.133-0.28,0.276-0.281s0.284,0.138,0.274,0.28
			c-0.013,0.16-0.108,0.254-0.265,0.271C10.541,16.884,10.399,16.744,10.396,16.6z M10.912,17.038
			c0.176,0.007,0.32,0.163,0.316,0.341c-0.006,0.175-0.163,0.326-0.336,0.32c-0.18-0.007-0.318-0.157-0.312-0.341
			C10.585,17.177,10.735,17.031,10.912,17.038z M11.325,17.839c0.212-0.002,0.389,0.176,0.389,0.393c0,0.218-0.17,0.391-0.386,0.392
			s-0.388-0.171-0.389-0.389C10.938,18.02,11.112,17.84,11.325,17.839z M12.003,18.671c0.255,0.004,0.462,0.216,0.461,0.474
			c0,0.258-0.206,0.47-0.461,0.473c-0.263,0.003-0.483-0.222-0.477-0.483C11.533,18.879,11.75,18.668,12.003,18.671z M12.275,18.229
			c0.003-0.209,0.19-0.394,0.397-0.391c0.212,0.003,0.388,0.186,0.386,0.398c-0.002,0.217-0.177,0.388-0.393,0.386
			C12.454,18.621,12.272,18.438,12.275,18.229z M12.776,17.366c0-0.176,0.138-0.318,0.311-0.323c0.176-0.005,0.33,0.149,0.33,0.328
			c-0.001,0.17-0.145,0.317-0.313,0.321C12.922,17.697,12.775,17.551,12.776,17.366z M13.316,16.863
			c-0.141-0.004-0.259-0.13-0.255-0.273c0.003-0.146,0.125-0.266,0.267-0.264c0.144,0.004,0.258,0.127,0.255,0.273
			C13.581,16.746,13.457,16.866,13.316,16.863z M13.954,17.427c0.226,0.004,0.384,0.164,0.384,0.391
			c0,0.226-0.187,0.412-0.401,0.404c-0.208-0.007-0.394-0.196-0.395-0.401C13.542,17.599,13.726,17.424,13.954,17.427z
			 M14.082,17.192c-0.175-0.001-0.329-0.15-0.333-0.324c-0.003-0.172,0.15-0.328,0.324-0.333c0.187-0.006,0.344,0.149,0.342,0.335
			C14.412,17.048,14.263,17.192,14.082,17.192z M14.334,15.339c-0.011-0.154,0.11-0.289,0.26-0.292
			c0.142-0.003,0.265,0.117,0.269,0.263c0.005,0.148-0.106,0.273-0.25,0.281C14.473,15.6,14.343,15.481,14.334,15.339z
			 M14.858,15.757c0.183-0.005,0.335,0.139,0.337,0.318c0.003,0.18-0.146,0.328-0.329,0.327c-0.186-0.001-0.331-0.147-0.327-0.328
			C14.542,15.902,14.683,15.762,14.858,15.757z M15.046,16.635c0.217,0.008,0.382,0.185,0.377,0.403
			c-0.004,0.217-0.183,0.392-0.395,0.389c-0.213-0.002-0.389-0.181-0.389-0.396C14.64,16.805,14.822,16.628,15.046,16.635z
			 M15.389,15.409c-0.185,0.009-0.332-0.128-0.336-0.312c-0.003-0.184,0.141-0.332,0.321-0.331c0.174,0.002,0.312,0.141,0.316,0.316
			C15.693,15.263,15.565,15.401,15.389,15.409z M15.549,14.318c-0.176,0.002-0.333-0.156-0.328-0.33
			c0.004-0.172,0.146-0.312,0.321-0.312c0.178-0.002,0.32,0.133,0.327,0.307C15.876,14.161,15.727,14.317,15.549,14.318z
			 M16.36,10.186c-0.318-0.002-0.559-0.249-0.554-0.571c0.005-0.317,0.257-0.558,0.577-0.551c0.307,0.006,0.546,0.253,0.546,0.563
			C16.928,9.946,16.683,10.189,16.36,10.186z M17.365,12.388c0.007,0.266-0.204,0.49-0.464,0.494
			c-0.255,0.005-0.487-0.227-0.484-0.48c0.002-0.253,0.217-0.466,0.472-0.469C17.151,11.929,17.36,12.129,17.365,12.388z
			 M16.163,10.5c0.254-0.001,0.471,0.21,0.475,0.463c0.004,0.256-0.229,0.485-0.482,0.479s-0.465-0.225-0.462-0.478
			C15.695,10.708,15.904,10.501,16.163,10.5z M16.641,13.314c0.006,0.209-0.192,0.41-0.403,0.41c-0.216,0-0.39-0.173-0.393-0.392
			c-0.004-0.233,0.161-0.404,0.393-0.404C16.446,12.929,16.634,13.106,16.641,13.314z M16.237,14.278
			c0.217,0,0.394,0.175,0.393,0.389c0,0.211-0.18,0.389-0.393,0.389c-0.218,0-0.39-0.173-0.39-0.39
			C15.848,14.446,16.017,14.278,16.237,14.278z M16.368,17.796c0.31,0,0.562,0.259,0.562,0.574
			c-0.003,0.313-0.263,0.569-0.572,0.562c-0.306-0.008-0.55-0.257-0.551-0.563C15.805,18.054,16.058,17.797,16.368,17.796z
			 M15.693,17.014c0.004-0.257,0.215-0.461,0.474-0.46c0.256,0.001,0.469,0.213,0.471,0.467c0.001,0.25-0.215,0.47-0.467,0.475
			C15.911,17.499,15.689,17.275,15.693,17.014z M16.894,16.058c-0.252-0.002-0.469-0.218-0.472-0.469
			c-0.003-0.26,0.222-0.475,0.485-0.47c0.26,0.005,0.46,0.213,0.455,0.474C17.36,15.849,17.146,16.06,16.894,16.058z M17.128,14.478
			c-0.26-0.013-0.463-0.239-0.453-0.505c0.011-0.271,0.219-0.458,0.5-0.448c0.253,0.01,0.461,0.233,0.453,0.484
			C17.617,14.267,17.381,14.49,17.128,14.478z M18.109,14.396c0.313,0.002,0.568,0.258,0.568,0.569
			c-0.003,0.309-0.261,0.563-0.575,0.563c-0.312,0.001-0.573-0.251-0.578-0.561C17.519,14.653,17.784,14.392,18.109,14.396z
			 M18.1,13.601c-0.306,0-0.573-0.269-0.571-0.575c0.001-0.306,0.27-0.571,0.574-0.57c0.307,0.002,0.572,0.269,0.572,0.575
			C18.673,13.337,18.406,13.602,18.1,13.601z M17.928,9.022c0.372,0.003,0.669,0.303,0.667,0.674
			c-0.003,0.366-0.312,0.671-0.678,0.667c-0.367-0.005-0.672-0.314-0.667-0.679C17.253,9.314,17.556,9.021,17.928,9.022z
			 M17.503,10.622c0.311,0.001,0.573,0.266,0.568,0.572c-0.003,0.309-0.273,0.569-0.578,0.562c-0.303-0.008-0.555-0.262-0.559-0.562
			C16.933,10.886,17.196,10.622,17.503,10.622z M16.289,7.392c0.38-0.007,0.683,0.289,0.686,0.67
			c0.005,0.384-0.289,0.684-0.669,0.685c-0.373,0.001-0.688-0.311-0.686-0.679C15.621,7.707,15.928,7.397,16.289,7.392z
			 M15.831,11.654c0.219,0.005,0.383,0.175,0.381,0.397c-0.003,0.218-0.177,0.394-0.39,0.394c-0.21,0-0.394-0.183-0.397-0.394
			C15.42,11.833,15.608,11.649,15.831,11.654z M15.035,10.298c-0.267,0.004-0.485-0.211-0.482-0.474
			c0.003-0.254,0.22-0.469,0.472-0.47c0.252,0,0.466,0.213,0.468,0.469C15.494,10.085,15.294,10.293,15.035,10.298z M15.371,8.479
			c0.003,0.323-0.251,0.586-0.568,0.585c-0.304-0.001-0.568-0.261-0.576-0.566c-0.009-0.305,0.269-0.586,0.576-0.586
			C15.113,7.912,15.369,8.167,15.371,8.479z M14.245,6.356c0.379-0.007,0.686,0.29,0.688,0.667c0.003,0.377-0.303,0.686-0.675,0.684
			c-0.363-0.003-0.67-0.31-0.674-0.671C13.58,6.672,13.881,6.362,14.245,6.356z M13.535,7.896c-0.001,0.309-0.266,0.57-0.574,0.568
			c-0.308-0.003-0.573-0.271-0.569-0.575c0.003-0.307,0.272-0.572,0.576-0.57C13.276,7.32,13.537,7.587,13.535,7.896z M12.003,6
			c0.371,0.003,0.663,0.3,0.661,0.675c-0.001,0.371-0.302,0.672-0.669,0.669c-0.367-0.002-0.671-0.31-0.668-0.676
			C11.331,6.299,11.635,5.998,12.003,6z M11.032,7.323c0.311,0,0.563,0.26,0.561,0.574c-0.004,0.314-0.263,0.568-0.573,0.562
			s-0.556-0.267-0.55-0.584C10.476,7.57,10.729,7.323,11.032,7.323z M9.731,6.358c0.372-0.001,0.669,0.294,0.67,0.668
			c0.002,0.372-0.295,0.675-0.664,0.677C9.37,7.706,9.07,7.404,9.068,7.032C9.066,6.658,9.36,6.361,9.731,6.358z M9.183,7.92
			c0.31-0.008,0.57,0.249,0.571,0.562c0.002,0.315-0.25,0.574-0.561,0.575C8.885,9.059,8.629,8.8,8.631,8.484
			C8.633,8.178,8.878,7.928,9.183,7.92z M8.979,9.354c0.254,0.005,0.461,0.22,0.46,0.477c-0.001,0.262-0.203,0.466-0.464,0.467
			c-0.259,0.001-0.47-0.204-0.474-0.462C8.496,9.574,8.72,9.349,8.979,9.354z M8.566,12.037c0.004,0.23-0.168,0.411-0.392,0.412
			c-0.214,0.001-0.409-0.199-0.403-0.412c0.006-0.209,0.188-0.383,0.403-0.384C8.398,11.653,8.562,11.812,8.566,12.037z
			 M7.688,7.392c0.379-0.003,0.676,0.294,0.676,0.677c0,0.386-0.293,0.679-0.675,0.678C7.318,8.744,7.003,8.425,7.01,8.06
			C7.019,7.698,7.325,7.395,7.688,7.392z M7.059,11.182c0.005,0.313-0.246,0.573-0.559,0.581c-0.31,0.007-0.57-0.25-0.573-0.565
			C5.925,10.88,6.17,10.624,6.483,10.62C6.798,10.614,7.054,10.865,7.059,11.182z M6.074,9.021c0.371,0,0.672,0.296,0.675,0.664
			c0.003,0.372-0.317,0.69-0.686,0.684s-0.661-0.311-0.66-0.684C5.405,9.309,5.695,9.021,6.074,9.021z M5.03,11.061
			c0.371-0.002,0.668,0.295,0.669,0.668c0,0.374-0.294,0.675-0.664,0.676c-0.369,0.002-0.667-0.297-0.668-0.67
			C4.365,11.36,4.659,11.062,5.03,11.061z M4.008,13.998c-0.002-0.376,0.289-0.67,0.663-0.671c0.376-0.001,0.669,0.289,0.669,0.664
			c0.001,0.373-0.294,0.676-0.662,0.678S4.01,14.37,4.008,13.998z M4.354,16.255c0.003-0.375,0.315-0.679,0.693-0.672
			c0.369,0.008,0.668,0.312,0.664,0.68c-0.004,0.373-0.326,0.688-0.692,0.677C4.652,16.927,4.352,16.617,4.354,16.255z
			 M6.081,18.979c-0.374,0.005-0.681-0.306-0.678-0.687c0.004-0.377,0.295-0.663,0.672-0.662c0.372,0,0.673,0.299,0.674,0.668
			C6.751,18.661,6.445,18.973,6.081,18.979z M6.485,17.375c-0.317-0.006-0.56-0.255-0.56-0.576c0.001-0.324,0.24-0.564,0.563-0.564
			c0.322,0,0.57,0.24,0.576,0.559C7.07,17.111,6.801,17.381,6.485,17.375z M7.699,20.585c-0.374,0.003-0.674-0.29-0.68-0.66
			c-0.004-0.366,0.297-0.67,0.669-0.672c0.375-0.002,0.669,0.287,0.672,0.661C8.363,20.29,8.074,20.582,7.699,20.585z M8.166,16.334
			c-0.216-0.005-0.388-0.185-0.382-0.399c0.005-0.217,0.181-0.383,0.399-0.379c0.22,0.004,0.382,0.174,0.378,0.396
			C8.559,16.168,8.381,16.34,8.166,16.334z M8.981,17.683c0.254,0.007,0.46,0.221,0.46,0.479c0,0.272-0.204,0.474-0.48,0.469
			c-0.256-0.003-0.466-0.214-0.467-0.469C8.494,17.903,8.727,17.676,8.981,17.683z M8.632,19.486
			c0.005-0.311,0.247-0.546,0.56-0.546c0.319-0.001,0.564,0.245,0.562,0.564c-0.001,0.318-0.25,0.561-0.57,0.557
			C8.866,20.059,8.626,19.808,8.632,19.486z M9.727,21.629c-0.373-0.006-0.662-0.304-0.658-0.678s0.299-0.661,0.675-0.657
			c0.374,0.004,0.663,0.3,0.658,0.674C10.396,21.341,10.098,21.634,9.727,21.629z M9.938,18.879
			c0.007-0.259,0.216-0.458,0.478-0.453c0.26,0.003,0.459,0.208,0.457,0.47c-0.002,0.257-0.213,0.468-0.465,0.469
			C10.147,19.365,9.932,19.141,9.938,18.879z M10.47,20.104c-0.002-0.32,0.243-0.567,0.562-0.567c0.32,0,0.563,0.245,0.56,0.566
			c-0.002,0.32-0.248,0.562-0.569,0.558C10.712,20.655,10.472,20.412,10.47,20.104z M11.99,22c-0.361-0.007-0.668-0.313-0.675-0.674
			c-0.008-0.367,0.305-0.68,0.68-0.682c0.384,0,0.675,0.291,0.674,0.677C12.668,21.698,12.358,22.008,11.99,22z M12.956,20.664
			c-0.312-0.004-0.57-0.261-0.568-0.569c0.002-0.307,0.264-0.565,0.575-0.566c0.319-0.001,0.583,0.265,0.576,0.583
			C13.532,20.422,13.273,20.667,12.956,20.664z M13.105,18.898c-0.004-0.255,0.22-0.478,0.483-0.479
			c0.274,0,0.475,0.201,0.472,0.478c-0.003,0.262-0.229,0.486-0.481,0.478C13.332,19.367,13.11,19.144,13.105,18.898z
			 M14.257,21.635c-0.367-0.002-0.673-0.309-0.674-0.673c-0.001-0.369,0.3-0.669,0.672-0.672c0.378-0.003,0.675,0.286,0.678,0.659
			C14.937,21.33,14.634,21.637,14.257,21.635z M14.812,20.065c-0.319,0.002-0.573-0.24-0.58-0.556
			c-0.007-0.311,0.247-0.569,0.562-0.574c0.318-0.004,0.573,0.241,0.576,0.556C15.376,19.809,15.128,20.062,14.812,20.065z
			 M15.019,18.63c-0.256-0.001-0.469-0.213-0.472-0.466c-0.003-0.257,0.229-0.486,0.483-0.481c0.262,0.005,0.471,0.228,0.465,0.494
			C15.488,18.438,15.284,18.633,15.019,18.63z M15.43,15.95c-0.005-0.213,0.17-0.391,0.386-0.394
			c0.222-0.004,0.391,0.159,0.394,0.38c0.004,0.217-0.165,0.393-0.381,0.396C15.614,16.338,15.434,16.163,15.43,15.95z
			 M16.304,20.585c-0.373,0.001-0.669-0.293-0.67-0.665s0.295-0.667,0.668-0.666c0.378,0,0.668,0.289,0.668,0.664
			C16.97,20.295,16.68,20.585,16.304,20.585z M16.935,16.8c0-0.311,0.259-0.564,0.574-0.562c0.305,0.001,0.557,0.247,0.562,0.552
			c0.008,0.309-0.25,0.57-0.562,0.574C17.195,17.365,16.935,17.11,16.935,16.8z M17.928,18.974
			c-0.362,0.005-0.675-0.304-0.678-0.668c-0.005-0.366,0.298-0.672,0.667-0.675c0.372-0.002,0.675,0.294,0.678,0.663
			C18.597,18.66,18.294,18.969,17.928,18.974z M18.954,16.939c-0.363-0.009-0.668-0.313-0.672-0.675
			c-0.006-0.371,0.305-0.682,0.68-0.682c0.383,0.001,0.674,0.294,0.672,0.68C19.634,16.638,19.321,16.947,18.954,16.939z
			 M19.323,14.674c-0.367,0.003-0.688-0.323-0.68-0.69c0.008-0.368,0.312-0.66,0.686-0.658c0.374,0.001,0.664,0.296,0.663,0.672
			C19.992,14.365,19.69,14.671,19.323,14.674z"/>
	</g>
</g>
</svg>
