<?xml version="1.0" encoding="UTF-8" standalone="no"?>
<svg
   xmlns:dc="http://purl.org/dc/elements/1.1/"
   xmlns:cc="http://creativecommons.org/ns#"
   xmlns:rdf="http://www.w3.org/1999/02/22-rdf-syntax-ns#"
   xmlns:svg="http://www.w3.org/2000/svg"
   xmlns="http://www.w3.org/2000/svg"
   xmlns:sodipodi="http://sodipodi.sourceforge.net/DTD/sodipodi-0.dtd"
   xmlns:inkscape="http://www.inkscape.org/namespaces/inkscape"
   sodipodi:docname="template-square.svg"
   inkscape:version="1.0 (1.0+r73+1)"
   id="svg8"
   version="1.1"
   viewBox="0 0 448 512"
   height="512"
   width="448">
  <title
     id="title844">Google Scholar</title>
  <defs
     id="defs2" />
  <sodipodi:namedview
     inkscape:window-maximized="1"
     inkscape:window-y="27"
     inkscape:window-x="51"
     inkscape:window-height="713"
     inkscape:window-width="1315"
     inkscape:guide-bbox="true"
     showguides="true"
     units="px"
     showgrid="true"
     inkscape:document-rotation="0"
     inkscape:current-layer="layer6"
     inkscape:document-units="px"
     inkscape:cy="256"
     inkscape:cx="224"
     inkscape:zoom="0.75"
     inkscape:pageshadow="2"
     inkscape:pageopacity="0.0"
     borderopacity="1.0"
     bordercolor="#666666"
     pagecolor="#ffffff"
     id="base">
    <inkscape:grid
       empspacing="4"
       id="grid10"
       type="xygrid" />
    <sodipodi:guide
       inkscape:color="rgb(0,0,255)"
       inkscape:locked="true"
       inkscape:label=""
       id="guide832"
       orientation="0,1"
       position="448,416" />
    <sodipodi:guide
       inkscape:color="rgb(0,0,255)"
       inkscape:locked="true"
       inkscape:label=""
       id="guide834"
       orientation="0,1"
       position="448,96" />
    <sodipodi:guide
       inkscape:color="rgb(0,0,255)"
       inkscape:locked="true"
       inkscape:label="baseline"
       id="guide836"
       orientation="0,1"
       position="448,64" />
    <sodipodi:guide
       position="64,512"
       orientation="1,0"
       id="guide835" />
    <sodipodi:guide
       position="384,512"
       orientation="1,0"
       id="guide837" />
  </sodipodi:namedview>
  <metadata
     id="metadata5">
    <rdf:RDF>
      <cc:Work
         rdf:about="">
        <dc:format>image/svg+xml</dc:format>
        <dc:type
           rdf:resource="http://purl.org/dc/dcmitype/StillImage" />
        <dc:title>Google Scholar</dc:title>
        <cc:license
           rdf:resource="http://scripts.sil.org/OFL" />
        <dc:subject>
          <rdf:Bag>
            <rdf:li>Google Scholar</rdf:li>
          </rdf:Bag>
        </dc:subject>
      </cc:Work>
      <cc:License
         rdf:about="http://scripts.sil.org/OFL">
        <cc:permits
           rdf:resource="http://scripts.sil.org/pub/OFL/Reproduction" />
        <cc:permits
           rdf:resource="http://scripts.sil.org/pub/OFL/Distribution" />
        <cc:permits
           rdf:resource="http://scripts.sil.org/pub/OFL/Embedding" />
        <cc:permits
           rdf:resource="http://scripts.sil.org/pub/OFL/DerivativeWorks" />
        <cc:requires
           rdf:resource="http://scripts.sil.org/pub/OFL/Notice" />
        <cc:requires
           rdf:resource="http://scripts.sil.org/pub/OFL/Attribution" />
        <cc:requires
           rdf:resource="http://scripts.sil.org/pub/OFL/ShareAlike" />
        <cc:requires
           rdf:resource="http://scripts.sil.org/pub/OFL/DerivativeRenaming" />
        <cc:requires
           rdf:resource="http://scripts.sil.org/pub/OFL/BundlingWhenSelling" />
      </cc:License>
    </rdf:RDF>
  </metadata>
  <g
     inkscape:label="icon"
     id="layer6"
     inkscape:groupmode="layer">
    <path
       d="M 48 32 C 21.5 32 0 53.5 0 80 L 0 432 C 0 458.5 21.5 480 48 480 L 400 480 C 426.5 480 448 458.5 448 432 L 448 80 C 448 53.5 426.5 32 400 32 L 48 32 z M 188.69531 96 L 366.93555 96 L 350.46484 108.85938 L 350.46484 131.55273 C 356.58074 132.33805 355.93359 136.01292 355.93359 140.41016 L 355.93359 247.63281 C 355.93359 252.59844 351.87154 256.66211 346.90625 256.66211 L 343.58203 256.66211 C 338.6164 256.66211 334.55273 252.59808 334.55273 247.63281 L 334.55273 140.41016 C 334.55273 136.00235 333.91278 132.32357 340.07422 131.54883 L 340.07422 117.2832 L 292.65039 156.17578 C 293.19834 157.19151 293.71814 157.84328 294.21289 158.69531 C 298.37973 166.07266 300.50195 175.2445 300.50195 186.45508 C 300.50195 195.04833 299.06991 202.77005 296.16602 209.58594 C 293.2752 216.4033 289.75942 221.97045 285.6582 226.25977 C 281.55701 230.56406 277.44275 234.49591 273.32812 238.03711 C 269.21486 241.58524 265.69906 245.28375 262.82031 249.125 C 259.91892 252.95314 258.47266 256.91247 258.47266 261.01367 C 258.47266 265.12181 260.3486 269.29452 264.08594 273.5 C 267.8098 277.7186 272.39123 281.80635 277.80859 285.84375 C 283.23797 289.85418 288.65493 294.30653 294.07227 299.15039 C 299.50131 303.98623 304.05933 310.21146 307.7832 317.77148 C 311.53367 325.35666 313.4082 333.7088 313.4082 342.88867 C 313.4082 354.99795 310.32064 365.93466 304.16211 375.66797 C 297.99007 385.36114 289.94334 393.09684 280.06055 398.76758 C 270.15151 404.47697 259.55333 408.77389 248.25195 411.67773 C 236.92398 414.55506 225.68694 416 214.46289 416 C 207.37866 416 200.23024 415.4525 193.04102 414.33398 C 185.82883 413.21398 178.60279 411.2357 171.32422 408.44922 C 164.03255 405.64267 157.57316 402.19843 151.97461 398.05859 C 146.36256 393.96392 141.84477 388.67686 138.38086 382.23828 C 134.91694 375.79976 133.19727 368.55971 133.19727 360.51953 C 133.19727 350.9809 135.85421 342.13421 141.17969 333.88477 C 146.50481 325.69549 153.56199 318.85925 162.33789 313.44336 C 177.65114 303.91787 201.67434 298.03206 234.36914 295.80664 C 226.89588 286.46381 223.14648 277.66689 223.14648 269.4375 C 223.14648 264.75479 224.36834 259.73766 226.79102 254.32031 C 222.8845 254.86718 218.86242 255.17383 214.75977 255.17383 C 197.19704 255.17383 182.36436 249.46431 170.32031 237.9668 C 158.27629 226.48824 152.26172 212.1206 152.26172 194.75 C 152.26172 192.93401 152.31391 191.33134 152.44336 189.56055 L 81.064453 189.56055 L 188.69531 96 z M 220.07422 134.33398 C 208.8753 134.33398 200.28236 138.36304 194.29297 146.4043 C 188.30507 154.42442 185.30859 164.13895 185.30859 175.55078 C 185.30859 185.27059 186.9492 195.16722 190.23047 205.25781 C 193.49857 215.34329 198.8517 224.34729 206.35156 232.2832 C 213.8248 240.23914 222.52348 244.20898 232.40625 244.20898 C 243.42216 244.20898 252.02911 240.51954 258.20117 233.13672 C 264.34622 225.76629 267.43164 216.46329 267.43164 205.25781 C 267.43164 195.71264 265.80524 185.72081 262.53711 175.27148 C 259.28103 164.80901 253.85206 155.36886 246.27344 146.96484 C 238.7211 138.53274 229.97011 134.33398 220.07422 134.33398 z M 238.5918 306.41406 C 230.55711 306.41406 222.65275 307.12634 214.89258 308.54492 C 207.13241 309.92488 199.47583 312.25478 191.92383 315.54297 C 184.34522 318.81255 178.22564 323.61796 173.56445 329.97266 C 168.87661 336.31933 166.54492 343.79435 166.54492 352.39453 C 166.54492 360.59035 168.60405 367.90081 172.71875 374.26758 C 176.8214 380.59526 182.2367 385.55152 188.96875 389.09961 C 195.70076 392.65432 202.7576 395.33574 210.12695 397.09961 C 217.50975 398.85145 225.02377 399.76367 232.67969 399.76367 C 247.82231 399.76367 260.85547 396.35252 271.79297 389.53516 C 282.70351 382.71926 288.17383 372.1931 288.17383 357.98633 C 288.17383 354.99821 287.75694 352.05432 286.93555 349.18359 C 286.07694 346.2797 285.2319 343.79439 284.39844 341.73047 C 283.56499 339.70522 281.97671 337.26317 279.63281 334.45117 C 277.302 331.63256 275.51712 329.54862 274.31836 328.16211 C 273.09446 326.73003 270.80621 324.68508 267.43164 321.98242 C 264.08738 319.26867 261.95132 317.57694 261 316.95117 L 260.99805 316.95117 C 260.06034 316.29355 257.62635 314.51567 253.70703 311.63086 C 249.78813 308.72002 247.64052 307.17679 247.26172 306.99414 C 245.20436 306.62337 242.31565 306.41406 238.5918 306.41406 z "
       id="path2" />
  </g>
</svg>
