<?xml version="1.0" encoding="utf-8"?>
<!-- Generator: Adobe Illustrator 16.0.0, SVG Export Plug-In . SVG Version: 6.00 Build 0)  -->
<!DOCTYPE svg PUBLIC "-//W3C//DTD SVG 1.1//EN" "http://www.w3.org/Graphics/SVG/1.1/DTD/svg11.dtd" [
	<!ENTITY st0 "fill:#444444;">
]>
<svg version="1.1" id="Layer_1" xmlns="http://www.w3.org/2000/svg" xmlns:xlink="http://www.w3.org/1999/xlink" x="0px" y="0px"
	 width="28px" height="28px" viewBox="0 0 28 28" style="enable-background:new 0 0 28 28;" xml:space="preserve">
<path style="&st0;" d="M22.349,4.901h-0.144V2.964L23.44,2H10.072L2,9.017h5.354C7.344,9.15,7.34,9.27,7.34,9.406
	c0,1.303,0.452,2.38,1.354,3.241c0.904,0.862,2.016,1.291,3.333,1.291c0.307,0,0.608-0.023,0.902-0.064
	c-0.182,0.406-0.274,0.783-0.274,1.134c0,0.617,0.281,1.277,0.842,1.978c-2.452,0.167-4.253,0.608-5.402,1.323
	c-0.658,0.406-1.187,0.919-1.587,1.533C6.109,20.46,5.91,21.124,5.91,21.839c0,0.603,0.129,1.146,0.389,1.629
	c0.259,0.483,0.598,0.879,1.019,1.187c0.419,0.311,0.904,0.569,1.451,0.779c0.546,0.209,1.088,0.357,1.628,0.441
	C10.937,25.959,11.474,26,12.005,26c0.842,0,1.685-0.108,2.534-0.324c0.848-0.218,1.643-0.54,2.386-0.968
	c0.742-0.425,1.345-1.005,1.808-1.732c0.461-0.73,0.693-1.55,0.693-2.458c0-0.688-0.14-1.315-0.421-1.884
	c-0.279-0.567-0.622-1.034-1.029-1.396c-0.406-0.363-0.812-0.697-1.219-0.998c-0.406-0.303-0.75-0.609-1.03-0.926
	c-0.28-0.315-0.42-0.628-0.42-0.937c0-0.308,0.109-0.604,0.326-0.892c0.216-0.288,0.48-0.565,0.788-0.832
	c0.308-0.266,0.617-0.561,0.925-0.883c0.308-0.322,0.571-0.739,0.788-1.25c0.218-0.511,0.326-1.09,0.326-1.735
	c0-0.841-0.159-1.529-0.472-2.082c-0.036-0.064-0.075-0.113-0.117-0.189l0,0l3.557-2.917v1.305h-0.17
	c-0.141,0-0.266,0.087-0.266,0.227v8.576c0,0.089,0.052,0.167,0.122,0.211c0.139,0.184,0.396,0.307,0.694,0.307
	c0.305,0,0.565-0.132,0.696-0.326c0.055-0.046,0.083-0.114,0.083-0.192V5.128C22.583,4.988,22.487,4.901,22.349,4.901z
	 M15.495,18.571c0.071,0.047,0.231,0.174,0.482,0.377c0.253,0.203,0.425,0.356,0.516,0.463c0.091,0.104,0.224,0.26,0.399,0.472
	c0.176,0.211,0.294,0.394,0.356,0.546c0.063,0.155,0.126,0.341,0.191,0.559c0.062,0.215,0.092,0.436,0.092,0.66
	c0,1.065-0.409,1.855-1.228,2.366c-0.82,0.511-1.798,0.767-2.933,0.767c-0.574,0-1.138-0.068-1.692-0.2
	c-0.553-0.132-1.083-0.333-1.587-0.6c-0.504-0.266-0.911-0.638-1.219-1.112c-0.309-0.478-0.463-1.026-0.463-1.641
	c0-0.645,0.175-1.206,0.526-1.682c0.349-0.477,0.808-0.837,1.376-1.082c0.567-0.247,1.142-0.421,1.723-0.525
	c0.582-0.106,1.175-0.16,1.777-0.16c0.279,0,0.497,0.016,0.651,0.043c0.028,0.014,0.189,0.129,0.483,0.348
	C15.243,18.389,15.425,18.522,15.495,18.571z M15.285,12.285c-0.463,0.554-1.108,0.831-1.935,0.831
	c-0.742,0-1.394-0.298-1.954-0.895c-0.562-0.595-0.964-1.271-1.209-2.027C9.942,9.438,9.819,8.695,9.819,7.966
	c0-0.856,0.225-1.584,0.673-2.186c0.449-0.603,1.093-0.905,1.934-0.905c0.743,0,1.398,0.315,1.965,0.947
	c0.568,0.63,0.975,1.338,1.219,2.123c0.246,0.784,0.367,1.533,0.367,2.249C15.978,11.035,15.747,11.732,15.285,12.285z"/>
</svg>
