<?xml version="1.0" encoding="utf-8"?>
<!-- Generator: Adobe Illustrator 16.0.0, SVG Export Plug-In . SVG Version: 6.00 Build 0)  -->
<!DOCTYPE svg PUBLIC "-//W3C//DTD SVG 1.1//EN" "http://www.w3.org/Graphics/SVG/1.1/DTD/svg11.dtd" [
	<!ENTITY st0 "fill:#444444;">
]>
<svg version="1.1" id="Layer_1" xmlns="http://www.w3.org/2000/svg" xmlns:xlink="http://www.w3.org/1999/xlink" x="0px" y="0px"
	 width="28px" height="28px" viewBox="0 0 28 28" style="enable-background:new 0 0 28 28;" xml:space="preserve">
<g>
	<g>
		<path style="&st0;" d="M12.261,8.548c-0.378-0.422-0.815-0.631-1.311-0.631c-0.56,0-0.989,0.201-1.289,0.604
			c-0.299,0.4-0.449,0.887-0.449,1.457c0,0.486,0.082,0.98,0.246,1.485s0.432,0.954,0.807,1.351
			c0.373,0.398,0.809,0.597,1.303,0.597c0.551,0,0.98-0.185,1.289-0.554c0.308-0.368,0.462-0.833,0.462-1.394
			c0-0.478-0.081-0.978-0.245-1.499C12.911,9.44,12.64,8.969,12.261,8.548z M12.31,16.55c-0.103-0.019-0.247-0.029-0.434-0.029
			c-0.401,0-0.797,0.035-1.185,0.107c-0.388,0.068-0.771,0.185-1.148,0.35c-0.379,0.163-0.685,0.403-0.918,0.721
			c-0.234,0.317-0.351,0.691-0.351,1.121c0,0.41,0.103,0.775,0.309,1.094c0.205,0.316,0.476,0.564,0.812,0.742
			c0.336,0.178,0.689,0.312,1.058,0.399c0.369,0.088,0.745,0.134,1.128,0.134c0.757,0,1.408-0.171,1.955-0.512
			c0.546-0.341,0.819-0.867,0.819-1.578c0-0.148-0.021-0.296-0.062-0.439c-0.043-0.145-0.086-0.27-0.127-0.373
			c-0.042-0.102-0.121-0.223-0.238-0.363c-0.117-0.142-0.206-0.246-0.266-0.314c-0.062-0.072-0.176-0.174-0.345-0.309
			c-0.167-0.137-0.274-0.221-0.321-0.252c-0.047-0.033-0.169-0.122-0.365-0.267C12.437,16.636,12.329,16.559,12.31,16.55z
			 M22.68,3.32C21.8,2.439,20.74,2,19.5,2h-15C3.26,2,2.201,2.439,1.32,3.32C0.439,4.199,0,5.26,0,6.5v15
			c0,1.24,0.439,2.301,1.32,3.182C2.201,25.559,3.262,26,4.5,26h15c1.24,0,2.3-0.441,3.18-1.32c0.881-0.881,1.321-1.939,1.321-3.18
			v-15C24.001,5.26,23.561,4.199,22.68,3.32z M17.565,7.935c0.092,0,0.156,0.058,0.156,0.151v5.717c0,0.052-0.019,0.097-0.055,0.128
			c-0.087,0.129-0.261,0.218-0.464,0.218c-0.198,0-0.37-0.083-0.462-0.205c-0.047-0.029-0.082-0.081-0.082-0.141V8.086
			c0-0.094,0.084-0.151,0.178-0.151h0.113V7.063l-2.371,1.945c0.027,0.051,0.054,0.084,0.078,0.126
			c0.209,0.369,0.314,0.827,0.314,1.388c0,0.43-0.071,0.816-0.217,1.157c-0.145,0.341-0.32,0.618-0.525,0.833
			s-0.41,0.412-0.616,0.589c-0.206,0.178-0.382,0.362-0.525,0.555c-0.146,0.191-0.218,0.39-0.218,0.595s0.094,0.414,0.281,0.624
			c0.186,0.211,0.415,0.415,0.686,0.617c0.271,0.2,0.543,0.423,0.813,0.665c0.271,0.242,0.499,0.554,0.686,0.932
			c0.188,0.379,0.281,0.797,0.281,1.256c0,0.605-0.154,1.152-0.462,1.639c-0.309,0.484-0.711,0.871-1.205,1.154
			c-0.496,0.286-1.025,0.501-1.591,0.646C11.793,21.928,11.231,22,10.67,22c-0.354,0-0.712-0.027-1.071-0.083
			c-0.36-0.057-0.722-0.155-1.086-0.295c-0.364-0.141-0.688-0.312-0.967-0.52c-0.281-0.204-0.507-0.469-0.68-0.791
			c-0.174-0.322-0.26-0.684-0.26-1.086c0-0.477,0.133-0.919,0.399-1.331c0.267-0.41,0.619-0.751,1.058-1.022
			c0.766-0.477,1.967-0.771,3.602-0.882c-0.373-0.467-0.561-0.907-0.561-1.318c0-0.234,0.061-0.485,0.182-0.756
			c-0.195,0.027-0.396,0.042-0.602,0.042c-0.878,0-1.619-0.285-2.222-0.859S7.56,11.806,7.56,10.938c0-0.091,0.003-0.171,0.01-0.259
			H4L9.382,6h8.912L17.47,6.644v1.291H17.565z"/>
	</g>
</g>
</svg>
