<?xml version="1.0" encoding="UTF-8" standalone="no"?>
<svg
   sodipodi:docname="hal-square.svg"
   inkscape:version="1.1.1 (1:1.1+202109281943+c3084ef5ed)"
   id="svg8"
   version="1.1"
   viewBox="0 0 448 512"
   height="512"
   width="448"
   xmlns:inkscape="http://www.inkscape.org/namespaces/inkscape"
   xmlns:sodipodi="http://sodipodi.sourceforge.net/DTD/sodipodi-0.dtd"
   xmlns="http://www.w3.org/2000/svg"
   xmlns:svg="http://www.w3.org/2000/svg"
   xmlns:rdf="http://www.w3.org/1999/02/22-rdf-syntax-ns#"
   xmlns:cc="http://creativecommons.org/ns#"
   xmlns:dc="http://purl.org/dc/elements/1.1/">
  <title
     id="title59">Archive Ouverte HAL</title>
  <defs
     id="defs2" />
  <sodipodi:namedview
     inkscape:window-maximized="1"
     inkscape:window-y="0"
     inkscape:window-x="1422"
     inkscape:window-height="1043"
     inkscape:window-width="1864"
     inkscape:guide-bbox="true"
     showguides="true"
     units="px"
     showgrid="true"
     inkscape:document-rotation="0"
     inkscape:current-layer="layer6"
     inkscape:document-units="px"
     inkscape:cy="256"
     inkscape:cx="200"
     inkscape:zoom="0.75"
     inkscape:pageshadow="2"
     inkscape:pageopacity="0.0"
     borderopacity="1.0"
     bordercolor="#666666"
     pagecolor="#ffffff"
     id="base"
     inkscape:pagecheckerboard="0">
    <inkscape:grid
       empspacing="4"
       id="grid10"
       type="xygrid" />
    <sodipodi:guide
       inkscape:color="rgb(0,0,255)"
       inkscape:locked="true"
       inkscape:label=""
       id="guide832"
       orientation="0,1"
       position="448,416" />
    <sodipodi:guide
       inkscape:color="rgb(0,0,255)"
       inkscape:locked="true"
       inkscape:label=""
       id="guide834"
       orientation="0,1"
       position="448,96" />
    <sodipodi:guide
       inkscape:color="rgb(0,0,255)"
       inkscape:locked="true"
       inkscape:label="baseline"
       id="guide836"
       orientation="0,1"
       position="448,64" />
    <sodipodi:guide
       position="64,512"
       orientation="1,0"
       id="guide835" />
    <sodipodi:guide
       position="384,512"
       orientation="1,0"
       id="guide837" />
  </sodipodi:namedview>
  <metadata
     id="metadata5">
    <rdf:RDF>
      <cc:Work
         rdf:about="">
        <dc:format>image/svg+xml</dc:format>
        <dc:type
           rdf:resource="http://purl.org/dc/dcmitype/StillImage" />
        <cc:license
           rdf:resource="http://scripts.sil.org/OFL" />
        <dc:subject>
          <rdf:Bag>
            <rdf:li>HAL</rdf:li>
          </rdf:Bag>
        </dc:subject>
        <dc:title>Archive Ouverte HAL</dc:title>
      </cc:Work>
      <cc:License
         rdf:about="http://scripts.sil.org/OFL">
        <cc:permits
           rdf:resource="http://scripts.sil.org/pub/OFL/Reproduction" />
        <cc:permits
           rdf:resource="http://scripts.sil.org/pub/OFL/Distribution" />
        <cc:permits
           rdf:resource="http://scripts.sil.org/pub/OFL/Embedding" />
        <cc:permits
           rdf:resource="http://scripts.sil.org/pub/OFL/DerivativeWorks" />
        <cc:requires
           rdf:resource="http://scripts.sil.org/pub/OFL/Notice" />
        <cc:requires
           rdf:resource="http://scripts.sil.org/pub/OFL/Attribution" />
        <cc:requires
           rdf:resource="http://scripts.sil.org/pub/OFL/ShareAlike" />
        <cc:requires
           rdf:resource="http://scripts.sil.org/pub/OFL/DerivativeRenaming" />
        <cc:requires
           rdf:resource="http://scripts.sil.org/pub/OFL/BundlingWhenSelling" />
      </cc:License>
    </rdf:RDF>
  </metadata>
  <g
     inkscape:label="icon"
     id="layer6"
     inkscape:groupmode="layer">
    <path
       id="path2"
       d="M 48 32 C 21.5 32 0 53.5 0 80 L 0 432 C 0 458.5 21.5 480 48 480 L 400 480 C 426.5 480 448 458.5 448 432 L 448 80 C 448 53.5 426.5 32 400 32 L 48 32 z M 243.62305 96 C 255.28046 97.403777 266.57057 100.14951 277.3125 103.93359 C 277.3125 105.52048 277.19141 107.29057 277.19141 109.06055 C 277.06934 134.63366 287.07858 158.80221 305.38867 176.99023 C 324.98047 196.39894 350.92007 205.9209 376.85938 205.31055 C 380.46039 216.05248 382.83939 227.46559 384.12109 239.12305 C 381.00836 239.36715 377.83536 239.49023 374.72266 239.49023 C 340.84896 239.49023 307.03699 226.73522 281.3418 201.16211 C 256.56214 176.50451 242.8896 143.78968 243.01172 108.93945 C 243.01172 104.66709 243.13477 100.27236 243.62305 96 z M 200.6543 96.244141 C 214.32585 139.33391 238.37289 178.70001 271.45312 211.6582 C 303.80098 243.88397 342.1299 266.83432 382.90039 280.50586 C 381.13042 292.04122 378.01845 303.02712 373.99023 313.58594 C 327.60465 298.32754 284.02742 272.50888 247.28516 235.88867 C 209.81048 198.53607 182.58753 153.55398 167.45117 104.66602 C 178.07103 100.75987 189.11892 97.89204 200.6543 96.244141 z M 313.20117 121.69531 C 331.63333 133.96308 347.4412 150.13816 359.46484 168.81445 C 353.54457 173.57508 346.40266 176.07617 338.77344 176.07617 L 338.65234 176.07617 C 329.74143 176.07617 321.50131 172.59703 315.21484 166.31055 C 308.92836 160.0241 305.38917 151.66287 305.57227 142.75195 C 305.57227 135.00068 308.31847 127.61556 313.20117 121.69531 z M 123.57031 129.56836 L 349.15039 356.85742 C 342.00946 365.7073 334.01345 373.88641 324.98047 381.02734 L 99.15625 153.49414 C 106.41925 144.70529 114.6594 136.7093 123.57031 129.56836 z M 72.789062 199.39062 C 120.39532 214.58802 165.01168 240.77286 202.73047 278.06445 C 239.47275 314.56257 266.14442 358.32245 281.58594 406.05078 C 271.08815 410.20107 260.04122 413.19096 248.50586 414.96094 C 234.59017 373.09187 210.90841 334.64178 178.56055 302.41602 C 145.48029 269.45784 106.11324 246.2653 64.244141 232.59375 C 65.892054 221.11944 68.760852 210.07153 72.789062 199.39062 z M 78.009766 274.64648 C 111.00538 275.2573 143.80164 288.08813 168.79492 312.97461 C 193.5746 337.63222 207.1235 370.4691 207.0625 405.19727 C 207.0625 408.8593 206.82029 412.46005 206.57617 416 C 194.79665 414.77933 183.56662 412.2753 172.76367 408.61328 C 172.88571 407.45366 172.88477 406.17284 172.88477 405.07422 C 173.00683 379.50112 162.99761 355.33256 144.6875 337.14453 C 124.66846 317.24756 97.934427 307.84769 71.628906 308.82422 C 67.905863 298.08231 65.282684 286.79219 63.878906 275.13477 C 68.578498 274.7229 73.296111 274.55918 78.009766 274.64648 z M 111.24023 338.05859 L 111.36328 338.05859 C 120.27418 338.05859 128.51236 341.53776 134.79883 347.82422 C 141.0853 354.04966 144.44336 362.47189 144.44336 371.38281 C 144.44336 378.88993 141.9413 386.09291 137.30273 391.83008 C 118.50435 379.92851 102.32928 364.24272 89.939453 345.81055 C 95.920746 340.80579 103.36688 338.05859 111.24023 338.05859 z " />
  </g>
</svg>
