<?xml version="1.0" encoding="UTF-8" standalone="no"?>
<svg
   xmlns:dc="http://purl.org/dc/elements/1.1/"
   xmlns:cc="http://creativecommons.org/ns#"
   xmlns:rdf="http://www.w3.org/1999/02/22-rdf-syntax-ns#"
   xmlns:svg="http://www.w3.org/2000/svg"
   xmlns="http://www.w3.org/2000/svg"
   xmlns:sodipodi="http://sodipodi.sourceforge.net/DTD/sodipodi-0.dtd"
   xmlns:inkscape="http://www.inkscape.org/namespaces/inkscape"
   sodipodi:docname="hal-square.svg"
   inkscape:version="1.0 (1.0+r73+1)"
   id="svg8"
   version="1.1"
   viewBox="0 0 448 512"
   height="512"
   width="448">
  <title
     id="title839">Archive Ouverte HAL</title>
  <defs
     id="defs2" />
  <sodipodi:namedview
     inkscape:window-maximized="1"
     inkscape:window-y="27"
     inkscape:window-x="51"
     inkscape:window-height="713"
     inkscape:window-width="1315"
     inkscape:guide-bbox="true"
     showguides="true"
     units="px"
     showgrid="true"
     inkscape:document-rotation="0"
     inkscape:current-layer="layer6"
     inkscape:document-units="px"
     inkscape:cy="256"
     inkscape:cx="224"
     inkscape:zoom="0.75"
     inkscape:pageshadow="2"
     inkscape:pageopacity="0.0"
     borderopacity="1.0"
     bordercolor="#666666"
     pagecolor="#ffffff"
     id="base">
    <inkscape:grid
       empspacing="4"
       id="grid10"
       type="xygrid" />
    <sodipodi:guide
       inkscape:color="rgb(0,0,255)"
       inkscape:locked="true"
       inkscape:label=""
       id="guide832"
       orientation="0,1"
       position="448,416" />
    <sodipodi:guide
       inkscape:color="rgb(0,0,255)"
       inkscape:locked="true"
       inkscape:label=""
       id="guide834"
       orientation="0,1"
       position="448,96" />
    <sodipodi:guide
       inkscape:color="rgb(0,0,255)"
       inkscape:locked="true"
       inkscape:label="baseline"
       id="guide836"
       orientation="0,1"
       position="448,64" />
    <sodipodi:guide
       id="guide835"
       orientation="1,0"
       position="64,512" />
    <sodipodi:guide
       id="guide837"
       orientation="1,0"
       position="384,512" />
  </sodipodi:namedview>
  <metadata
     id="metadata5">
    <rdf:RDF>
      <cc:Work
         rdf:about="">
        <dc:format>image/svg+xml</dc:format>
        <dc:type
           rdf:resource="http://purl.org/dc/dcmitype/StillImage" />
        <dc:title>Archive Ouverte HAL</dc:title>
        <cc:license
           rdf:resource="http://scripts.sil.org/OFL" />
        <dc:subject>
          <rdf:Bag>
            <rdf:li>HAL</rdf:li>
          </rdf:Bag>
        </dc:subject>
      </cc:Work>
      <cc:License
         rdf:about="http://scripts.sil.org/OFL">
        <cc:permits
           rdf:resource="http://scripts.sil.org/pub/OFL/Reproduction" />
        <cc:permits
           rdf:resource="http://scripts.sil.org/pub/OFL/Distribution" />
        <cc:permits
           rdf:resource="http://scripts.sil.org/pub/OFL/Embedding" />
        <cc:permits
           rdf:resource="http://scripts.sil.org/pub/OFL/DerivativeWorks" />
        <cc:requires
           rdf:resource="http://scripts.sil.org/pub/OFL/Notice" />
        <cc:requires
           rdf:resource="http://scripts.sil.org/pub/OFL/Attribution" />
        <cc:requires
           rdf:resource="http://scripts.sil.org/pub/OFL/ShareAlike" />
        <cc:requires
           rdf:resource="http://scripts.sil.org/pub/OFL/DerivativeRenaming" />
        <cc:requires
           rdf:resource="http://scripts.sil.org/pub/OFL/BundlingWhenSelling" />
      </cc:License>
    </rdf:RDF>
  </metadata>
  <g
     inkscape:label="icon"
     id="layer6"
     inkscape:groupmode="layer">
    <path
       id="path2"
       d="M 48 32 C 21.5 32 0 53.5 0 80 L 0 432 C 0 458.5 21.5 480 48 480 L 400 480 C 426.5 480 448 458.5 448 432 L 448 80 C 448 53.5 426.5 32 400 32 L 48 32 z M 224 96 L 224.00195 96 C 312.36505 96.001058 384 167.63482 384 256 C 384 268.88437 382.4774 281.41022 379.60156 293.41211 L 343.8125 293.41211 L 343.8125 198.03711 C 343.89067 197.42601 343.93164 196.80435 343.93164 196.17188 C 343.93164 188.15798 337.43382 181.66016 329.41992 181.66016 C 321.40602 181.66016 314.91016 188.15798 314.91016 196.17188 C 314.91016 196.80431 314.9511 197.42594 315.0293 198.03711 L 315.0293 305.93945 C 314.95113 306.55058 314.91016 307.17416 314.91016 307.80664 C 314.91016 315.82054 321.40602 322.31641 329.41992 322.31641 C 330.05236 322.31641 330.67517 322.27547 331.28516 322.19727 L 369.70508 322.19727 C 344.52514 377.53005 288.75541 416 224 416 C 159.05863 416 103.15416 377.30867 78.078125 321.7207 C 79.388065 322.10919 80.773474 322.31836 82.208984 322.31836 C 90.222904 322.31836 96.720703 315.82054 96.720703 307.80664 C 96.720703 307.17419 96.679762 306.55258 96.601562 305.94141 L 96.601562 270.39453 L 148.24023 270.39453 L 148.24023 307.80664 C 148.24023 315.82054 154.73805 322.31836 162.75195 322.31836 C 170.76584 322.31836 177.26172 315.82054 177.26172 307.80664 C 177.26172 306.91004 177.18059 306.03128 177.02539 305.17969 L 177.02539 198.80078 C 177.18054 197.94921 177.26172 197.07045 177.26172 196.17383 C 177.26172 188.15993 170.76584 181.66211 162.75195 181.66211 C 154.73824 181.66211 148.24023 188.15993 148.24023 196.17383 L 148.24023 241.60938 L 96.601562 241.60938 L 96.601562 198.03906 C 96.679772 197.42793 96.720703 196.80631 96.720703 196.17383 C 96.720703 188.18363 90.263943 181.70131 82.283203 181.66211 C 109.05244 130.73222 162.47014 96.000736 224 96 z M 246.22852 181.66211 C 240.22001 181.66211 235.0656 185.31314 232.86133 190.51758 L 232.78516 190.69531 L 186.19141 302.78711 C 185.61458 304.35172 185.30078 306.04184 185.30078 307.80664 C 185.30078 315.82054 191.79666 322.31836 199.81055 322.31836 C 207.82554 322.31836 214.32227 315.82054 214.32227 307.80664 L 275.32812 307.80664 C 275.32812 315.82054 281.82482 322.31836 289.83984 322.31836 C 297.85373 322.31836 304.35156 315.82054 304.35156 307.80664 C 304.35156 305.99557 304.01854 304.26189 303.41211 302.66406 L 303.4082 302.65234 C 303.36778 302.54575 303.3259 302.44018 303.2832 302.33594 L 303.27734 302.32227 L 287.15625 261.05859 L 263.13086 284.11719 L 226.51562 284.11719 L 244.98828 238.11328 L 287.15625 261.05859 L 259.89453 191.2832 C 259.80331 191.02619 259.70306 190.77336 259.59766 190.52344 L 259.59375 190.51758 C 257.38948 185.31315 252.23594 181.66211 246.22852 181.66211 z " />
  </g>
</svg>
