<?xml version="1.0" encoding="UTF-8" standalone="no"?>
<svg
   sodipodi:docname="hal.svg"
   inkscape:version="1.1.1 (1:1.1+202109281943+c3084ef5ed)"
   id="svg8"
   version="1.1"
   viewBox="0 0 512 512"
   height="512"
   width="512"
   xmlns:inkscape="http://www.inkscape.org/namespaces/inkscape"
   xmlns:sodipodi="http://sodipodi.sourceforge.net/DTD/sodipodi-0.dtd"
   xmlns="http://www.w3.org/2000/svg"
   xmlns:svg="http://www.w3.org/2000/svg"
   xmlns:rdf="http://www.w3.org/1999/02/22-rdf-syntax-ns#"
   xmlns:cc="http://creativecommons.org/ns#"
   xmlns:dc="http://purl.org/dc/elements/1.1/">
  <title
     id="title833">Archive ouverte HAL</title>
  <defs
     id="defs2" />
  <sodipodi:namedview
     inkscape:window-maximized="1"
     inkscape:window-y="0"
     inkscape:window-x="1422"
     inkscape:window-height="1043"
     inkscape:window-width="1864"
     inkscape:guide-bbox="true"
     showguides="true"
     units="px"
     showgrid="true"
     inkscape:document-rotation="0"
     inkscape:current-layer="layer6"
     inkscape:document-units="px"
     inkscape:cy="256"
     inkscape:cx="256"
     inkscape:zoom="0.75"
     inkscape:pageshadow="2"
     inkscape:pageopacity="0.0"
     borderopacity="1.0"
     bordercolor="#666666"
     pagecolor="#ffffff"
     id="base"
     inkscape:pagecheckerboard="0">
    <inkscape:grid
       empspacing="4"
       id="grid10"
       type="xygrid" />
    <sodipodi:guide
       inkscape:color="rgb(0,0,255)"
       inkscape:locked="true"
       inkscape:label="baseline"
       id="guide23"
       orientation="0,1"
       position="511.99998,64" />
  </sodipodi:namedview>
  <metadata
     id="metadata5">
    <rdf:RDF>
      <cc:Work
         rdf:about="">
        <dc:format>image/svg+xml</dc:format>
        <dc:type
           rdf:resource="http://purl.org/dc/dcmitype/StillImage" />
        <dc:title>Archive ouverte HAL</dc:title>
        <cc:license
           rdf:resource="http://scripts.sil.org/OFL" />
        <dc:subject>
          <rdf:Bag>
            <rdf:li>HAL</rdf:li>
          </rdf:Bag>
        </dc:subject>
      </cc:Work>
      <cc:License
         rdf:about="http://scripts.sil.org/OFL">
        <cc:permits
           rdf:resource="http://scripts.sil.org/pub/OFL/Reproduction" />
        <cc:permits
           rdf:resource="http://scripts.sil.org/pub/OFL/Distribution" />
        <cc:permits
           rdf:resource="http://scripts.sil.org/pub/OFL/Embedding" />
        <cc:permits
           rdf:resource="http://scripts.sil.org/pub/OFL/DerivativeWorks" />
        <cc:requires
           rdf:resource="http://scripts.sil.org/pub/OFL/Notice" />
        <cc:requires
           rdf:resource="http://scripts.sil.org/pub/OFL/Attribution" />
        <cc:requires
           rdf:resource="http://scripts.sil.org/pub/OFL/ShareAlike" />
        <cc:requires
           rdf:resource="http://scripts.sil.org/pub/OFL/DerivativeRenaming" />
        <cc:requires
           rdf:resource="http://scripts.sil.org/pub/OFL/BundlingWhenSelling" />
      </cc:License>
    </rdf:RDF>
  </metadata>
  <g
     inkscape:label="icon"
     id="layer6"
     inkscape:groupmode="layer">
    <path
       id="path7"
       d="m 286.41498,8 c -0.75682,6.62215 -0.94602,13.43277 -0.94602,20.05493 -0.18921,54.01784 21.00242,104.72609 59.4109,142.94537 39.82753,39.63832 92.23713,59.40907 144.74135,59.40907 4.82471,0 9.74254,-0.18883 14.56725,-0.56724 -1.98664,-18.06902 -5.67464,-35.76 -11.25618,-52.40998 -40.20593,0.94602 -80.41334,-13.81229 -110.78064,-43.89579 -28.38065,-28.19145 -43.89467,-65.65281 -43.70547,-105.29112 0,-2.74347 0.18847,-5.4873 0.18847,-7.94696 C 321.98465,14.43295 304.48399,10.17585 286.41498,8 Z m -66.60031,0.37878 c -17.87982,2.55426 -35.00318,6.99945 -51.46396,13.05399 23.46134,75.77635 65.65466,145.49816 123.7404,203.3947 56.95052,56.76131 124.49611,96.77878 196.39376,120.42932 6.24374,-16.36618 11.06809,-33.39383 13.81155,-51.27364 C 439.10217,272.79226 379.69236,237.2211 329.55321,187.27114 278.27881,136.18596 241.00556,75.16792 219.81467,8.37878 Z m 174.4468,39.44837 c -7.56817,9.17641 -11.82528,20.62328 -11.82528,32.63776 -0.28381,13.81191 5.20385,26.77205 14.94789,36.51607 9.74402,9.74403 22.51383,15.13635 36.32575,15.13635 h 0.19032 c 11.82528,0 22.8941,-3.87721 32.07051,-11.25618 -18.63664,-28.94827 -43.13933,-54.01896 -71.70919,-73.034 z M 100.33321,60.0312 C 86.521293,71.09966 73.749998,83.49181 62.492338,97.11452 L 412.52043,449.79221 c 14.00112,-11.06846 26.39364,-23.74478 37.46209,-37.4621 z M 21.623084,168.25647 c -6.243739,16.55538 -10.690049,33.67875 -13.244309,51.46396 64.897103,21.19089 125.916255,57.13825 177.190635,108.22343 50.13917,49.94995 86.84444,109.5497 108.41374,174.44679 17.87982,-2.74346 35.00207,-7.3786 51.27364,-13.81155 C 321.32245,414.6002 279.98203,346.77117 223.03151,290.19906 164.56736,232.39712 95.41279,191.81242 21.623084,168.25647 Z m 8.091075,116.64708 c -7.306172,-0.13524 -14.618254,0.1153 -21.902624,0.75387 2.17585,18.06901 6.24301,35.56968 12.013739,52.21966 40.773542,-1.51363 82.210406,13.05548 113.239926,43.89579 28.38065,28.19145 43.89467,65.65465 43.70547,105.29297 0,1.70284 7.4e-4,3.68838 -0.18847,5.48582 16.74459,5.67613 34.15176,9.5563 52.40999,11.44834 0.37841,-5.48693 0.75571,-11.06956 0.75571,-16.74569 C 229.8425,433.42566 208.84155,382.53005 170.43306,344.31077 131.69347,305.73673 80.857357,285.85032 29.714159,284.90355 Z m 51.508303,98.28835 c -12.203682,0 -23.745518,4.25821 -33.016532,12.01559 19.204244,28.56986 44.2753,52.88114 73.41277,71.32857 7.18977,-8.89261 11.06772,-20.05567 11.06772,-31.69173 0,-13.81192 -5.20386,-26.86666 -14.94788,-36.51608 -9.74403,-9.74402 -22.513846,-15.13635 -36.325765,-15.13635 z"
       style="stroke-width:1" />
  </g>
</svg>
