<?xml version="1.0" encoding="UTF-8" standalone="no"?>
<svg
   xmlns:dc="http://purl.org/dc/elements/1.1/"
   xmlns:cc="http://creativecommons.org/ns#"
   xmlns:rdf="http://www.w3.org/1999/02/22-rdf-syntax-ns#"
   xmlns:svg="http://www.w3.org/2000/svg"
   xmlns="http://www.w3.org/2000/svg"
   xmlns:sodipodi="http://sodipodi.sourceforge.net/DTD/sodipodi-0.dtd"
   xmlns:inkscape="http://www.inkscape.org/namespaces/inkscape"
   sodipodi:docname="hal.svg"
   inkscape:version="1.0 (1.0+r73+1)"
   id="svg8"
   version="1.1"
   viewBox="0 0 512 512"
   height="512"
   width="512">
  <title
     id="title833">Archive ouverte HAL</title>
  <defs
     id="defs2" />
  <sodipodi:namedview
     inkscape:window-maximized="1"
     inkscape:window-y="27"
     inkscape:window-x="51"
     inkscape:window-height="713"
     inkscape:window-width="1315"
     inkscape:guide-bbox="true"
     showguides="true"
     units="px"
     showgrid="true"
     inkscape:document-rotation="0"
     inkscape:current-layer="layer6"
     inkscape:document-units="px"
     inkscape:cy="256"
     inkscape:cx="256"
     inkscape:zoom="0.75"
     inkscape:pageshadow="2"
     inkscape:pageopacity="0.0"
     borderopacity="1.0"
     bordercolor="#666666"
     pagecolor="#ffffff"
     id="base">
    <inkscape:grid
       empspacing="4"
       id="grid10"
       type="xygrid" />
    <sodipodi:guide
       inkscape:color="rgb(0,0,255)"
       inkscape:locked="true"
       inkscape:label="baseline"
       id="guide23"
       orientation="0,1"
       position="511.99998,64" />
  </sodipodi:namedview>
  <metadata
     id="metadata5">
    <rdf:RDF>
      <cc:Work
         rdf:about="">
        <dc:format>image/svg+xml</dc:format>
        <dc:type
           rdf:resource="http://purl.org/dc/dcmitype/StillImage" />
        <dc:title>Archive ouverte HAL</dc:title>
        <cc:license
           rdf:resource="http://scripts.sil.org/OFL" />
        <dc:subject>
          <rdf:Bag>
            <rdf:li>HAL</rdf:li>
          </rdf:Bag>
        </dc:subject>
      </cc:Work>
      <cc:License
         rdf:about="http://scripts.sil.org/OFL">
        <cc:permits
           rdf:resource="http://scripts.sil.org/pub/OFL/Reproduction" />
        <cc:permits
           rdf:resource="http://scripts.sil.org/pub/OFL/Distribution" />
        <cc:permits
           rdf:resource="http://scripts.sil.org/pub/OFL/Embedding" />
        <cc:permits
           rdf:resource="http://scripts.sil.org/pub/OFL/DerivativeWorks" />
        <cc:requires
           rdf:resource="http://scripts.sil.org/pub/OFL/Notice" />
        <cc:requires
           rdf:resource="http://scripts.sil.org/pub/OFL/Attribution" />
        <cc:requires
           rdf:resource="http://scripts.sil.org/pub/OFL/ShareAlike" />
        <cc:requires
           rdf:resource="http://scripts.sil.org/pub/OFL/DerivativeRenaming" />
        <cc:requires
           rdf:resource="http://scripts.sil.org/pub/OFL/BundlingWhenSelling" />
      </cc:License>
    </rdf:RDF>
  </metadata>
  <g
     inkscape:label="icon"
     id="layer6"
     inkscape:groupmode="layer">
    <path
       sodipodi:nodetypes="ccscccsssccssscccsscsccsscccsscccscccccccccccsccccssccccccccccc"
       id="path38"
       stroke-width="0.0501403"
       d="m 256.00172,9.0586249 c -95.37255,0 -178.171583,53.8346181 -219.664338,132.7767751 12.370134,0.0608 22.378947,10.10633 22.378947,22.49114 0,0.98035 -0.06187,1.94608 -0.183081,2.89332 v 67.53272 h 80.038482 v -70.42604 c 0,-12.42153 10.07127,-22.49114 22.49252,-22.49114 12.42154,0 22.49172,10.06961 22.49172,22.49114 0,1.38976 -0.12703,2.75219 -0.36756,4.07213 v 164.88881 c 0.24057,1.31998 0.36756,2.68241 0.36756,4.07214 0,12.42155 -10.07018,22.49113 -22.49172,22.49113 -12.42154,0 -22.49252,-10.06959 -22.49252,-22.49113 V 279.36867 H 58.53326 v 55.09762 c 0.121209,0.94732 0.18308,1.91305 0.18308,2.89333 0,12.42155 -10.069554,22.49113 -22.491132,22.49113 -2.225043,0 -4.375027,-0.3233 -6.405429,-0.92547 38.867835,86.16136 125.520831,146.13305 226.179961,146.13305 100.37088,0 186.81481,-59.62696 225.84372,-145.39277 h -59.55065 c -0.94549,0.12121 -1.91138,0.18376 -2.89164,0.18376 -12.42153,0 -22.49114,-10.06958 -22.49114,-22.49112 0,-0.98035 0.0627,-1.94608 0.18369,-2.89333 V 167.21675 c -0.12133,-0.94731 -0.18369,-1.91305 -0.18369,-2.89331 0,-12.42155 10.06961,-22.49114 22.49114,-22.49114 12.42153,0 22.4931,10.06959 22.4931,22.49114 0,0.98034 -0.0627,1.94611 -0.18368,2.89331 v 147.83117 h 55.47057 C 501.6387,296.44497 504,277.02773 504,257.05696 504,120.08992 392.9656,9.058332 256.0014,9.058332 Z M 290.45327,141.8354 c 9.31149,0 17.30122,5.65782 20.71783,13.72469 l 0.006,0.011 c 0.16339,0.38739 0.31778,0.77876 0.45915,1.17711 l 42.25562,108.1524 24.98833,63.95844 0.008,0.0197 c 0.0661,0.16157 0.13077,0.32486 0.19351,0.49005 l 0.008,0.02 c 0.93997,2.47663 1.45414,5.16392 1.45414,7.97107 0,12.42155 -10.07013,22.49114 -22.49167,22.49114 v 0 c -12.42326,0 -22.49311,-10.06959 -22.49311,-22.49114 h -94.55989 c 0,12.42155 -10.0693,22.49114 -22.49253,22.49114 -12.42154,0 -22.49172,-10.06959 -22.49172,-22.49114 0,-2.73544 0.48836,-5.35718 1.38245,-7.78233 l 72.22024,-173.74117 0.11754,-0.27715 c 3.41662,-8.06687 11.40634,-13.72468 20.71953,-13.72468 z m -1.92212,87.49784 -28.63097,71.30763 h 56.75337 l 37.23741,-35.74023 -65.36066,-35.56739 z" />
  </g>
</svg>
