<?xml version="1.0" encoding="UTF-8" standalone="no"?>
<svg
   xmlns:dc="http://purl.org/dc/elements/1.1/"
   xmlns:cc="http://creativecommons.org/ns#"
   xmlns:rdf="http://www.w3.org/1999/02/22-rdf-syntax-ns#"
   xmlns:svg="http://www.w3.org/2000/svg"
   xmlns="http://www.w3.org/2000/svg"
   xmlns:sodipodi="http://sodipodi.sourceforge.net/DTD/sodipodi-0.dtd"
   xmlns:inkscape="http://www.inkscape.org/namespaces/inkscape"
   sodipodi:docname="ieee-square.svg"
   inkscape:version="1.0 (1.0+r73+1)"
   id="svg8"
   version="1.1"
   viewBox="0 0 448 512"
   height="512"
   width="448">
  <title
     id="title839">IEEE</title>
  <defs
     id="defs2" />
  <sodipodi:namedview
     inkscape:window-maximized="1"
     inkscape:window-y="27"
     inkscape:window-x="51"
     inkscape:window-height="713"
     inkscape:window-width="1315"
     inkscape:guide-bbox="true"
     showguides="true"
     units="px"
     showgrid="true"
     inkscape:document-rotation="0"
     inkscape:current-layer="layer6"
     inkscape:document-units="px"
     inkscape:cy="256"
     inkscape:cx="224"
     inkscape:zoom="0.75"
     inkscape:pageshadow="2"
     inkscape:pageopacity="0.0"
     borderopacity="1.0"
     bordercolor="#666666"
     pagecolor="#ffffff"
     id="base">
    <inkscape:grid
       empspacing="4"
       id="grid10"
       type="xygrid" />
    <sodipodi:guide
       inkscape:color="rgb(0,0,255)"
       inkscape:locked="true"
       inkscape:label=""
       id="guide832"
       orientation="0,1"
       position="448,416" />
    <sodipodi:guide
       inkscape:color="rgb(0,0,255)"
       inkscape:locked="true"
       inkscape:label=""
       id="guide834"
       orientation="0,1"
       position="448,96" />
    <sodipodi:guide
       inkscape:color="rgb(0,0,255)"
       inkscape:locked="true"
       inkscape:label="baseline"
       id="guide836"
       orientation="0,1"
       position="448,64" />
    <sodipodi:guide
       id="guide835"
       orientation="1,0"
       position="64,512" />
    <sodipodi:guide
       id="guide837"
       orientation="1,0"
       position="384,512" />
  </sodipodi:namedview>
  <metadata
     id="metadata5">
    <rdf:RDF>
      <cc:Work
         rdf:about="">
        <dc:format>image/svg+xml</dc:format>
        <dc:type
           rdf:resource="http://purl.org/dc/dcmitype/StillImage" />
        <dc:title>IEEE</dc:title>
        <cc:license
           rdf:resource="http://scripts.sil.org/OFL" />
        <dc:subject>
          <rdf:Bag>
            <rdf:li>IEEE</rdf:li>
          </rdf:Bag>
        </dc:subject>
      </cc:Work>
      <cc:License
         rdf:about="http://scripts.sil.org/OFL">
        <cc:permits
           rdf:resource="http://scripts.sil.org/pub/OFL/Reproduction" />
        <cc:permits
           rdf:resource="http://scripts.sil.org/pub/OFL/Distribution" />
        <cc:permits
           rdf:resource="http://scripts.sil.org/pub/OFL/Embedding" />
        <cc:permits
           rdf:resource="http://scripts.sil.org/pub/OFL/DerivativeWorks" />
        <cc:requires
           rdf:resource="http://scripts.sil.org/pub/OFL/Notice" />
        <cc:requires
           rdf:resource="http://scripts.sil.org/pub/OFL/Attribution" />
        <cc:requires
           rdf:resource="http://scripts.sil.org/pub/OFL/ShareAlike" />
        <cc:requires
           rdf:resource="http://scripts.sil.org/pub/OFL/DerivativeRenaming" />
        <cc:requires
           rdf:resource="http://scripts.sil.org/pub/OFL/BundlingWhenSelling" />
      </cc:License>
    </rdf:RDF>
  </metadata>
  <g
     inkscape:label="icon"
     id="layer6"
     inkscape:groupmode="layer">
    <path
       id="path2"
       d="M 48 32 C 21.5 32 0 53.5 0 80 L 0 432 C 0 458.5 21.5 480 48 480 L 400 480 C 426.5 480 448 458.5 448 432 L 448 80 C 448 53.5 426.5 32 400 32 L 48 32 z M 224.125 96 C 225.02285 96.00766 225.92267 96.180969 226.80469 96.568359 C 228.42453 97.007199 230.25204 98.507129 231.71875 99.412109 L 243.68359 116.58984 C 253.53025 129.2287 263.87873 142.47878 274.5293 154.43945 L 300.81641 182.26172 C 324.60433 206.22511 349.85334 227.35175 376.95312 246.0293 L 377.81641 246.16992 C 381.27774 248.40136 383.62414 252.42587 384 256.50977 C 383.856 265.36096 373.78746 267.13556 368.51562 271.9043 C 315.8546 310.58174 268.72266 358.48641 231.55859 411.82617 L 228.56641 414.87109 C 225.55569 416.72873 221.66254 415.97743 218.50781 414.87109 C 214.47735 413.54058 214.03621 409.05485 211.45898 406.32617 C 203.24056 393.39556 192.73876 381.24597 183.79883 369.19336 C 178.49088 363.77078 174.09137 358.02887 168.66602 352.25391 C 138.10089 318.3183 103.76095 288.5598 67.84375 263.49414 C 65.293136 260.90698 63.154788 257.47323 64.332031 253.3125 C 65.429416 248.68558 70.699935 245.94599 74.248047 243.13867 C 119.10116 211.94643 160.21288 171.25338 194.94336 127.67383 L 216.59375 99.105469 C 218.75281 97.446019 221.43146 95.977021 224.125 96 z M 223.19922 137.27539 C 219.5822 137.34315 216.01452 138.45709 212.71289 141.06055 C 202.57166 148.43494 192.95776 155.93792 183.2832 164.41602 C 182.46582 164.94682 181.50513 166.0585 180.98633 166.58008 C 158.45441 186.95823 136.14227 209.26659 117.92773 232.78711 C 112.78747 239.55904 107.35457 246.16942 105.37305 254.20312 C 105.30634 258.50978 105.95202 262.53972 108.24414 265.80469 C 123.66014 289.07772 144.07012 311.32647 164.41016 330.43359 C 181.94733 346.29453 198.84343 363.70205 218.88086 374.32812 C 225.47945 377.45941 232.90693 373.81528 238.41211 369.86914 C 265.6333 350.46507 289.95011 326.14073 313.00195 301.00195 C 323.65687 287.73773 335.84246 275.6289 341.83984 260.43945 C 343.46917 254.4281 340.89246 249.29256 337.97656 244.76172 C 319.9939 218.72717 298.10136 194.10047 274.5293 171.94336 L 272.98242 171.04102 C 264.47199 162.69108 254.77361 154.52165 245.46289 147.31055 C 239.35153 142.04283 231.15665 137.12633 223.19922 137.27539 z M 224.48438 145.02734 C 232.16091 145.09253 239.18397 152.07489 245.46289 156.54297 C 277.82835 182.9395 308.37141 213.15335 331.64453 247.27148 C 334.57903 251.67564 335.90425 258.51077 333.27344 263.49414 C 327.23994 273.69063 319.09832 282.99661 311.38086 292.44727 L 311.38086 292.96094 C 292.13712 313.71478 271.8173 335.04862 249.85742 352.625 C 239.14014 359.23218 229.30136 373.66334 215.49609 364.72461 C 184.06398 341.45161 153.9857 312.51704 128.48828 281.48438 C 124.16579 274.66222 117.41346 269.0723 114.4082 261.33594 C 110.21076 250.85576 119.4625 243.33917 124.75586 235.44727 C 150.75461 202.96109 183.0445 171.10521 216.59375 147.61719 C 219.29467 145.75262 221.92553 145.00562 224.48438 145.02734 z M 223.41602 169.03125 L 220.48828 178.55469 L 205.80273 221.17188 C 209.47991 221.5516 214.03371 221.17105 217.64453 221.55078 L 217.64453 221.9043 L 215.49609 270.11133 L 215.86719 270.61719 C 220.56592 271.08328 226.43068 271.32084 231.21875 270.49414 L 231.21875 269.73438 L 229.30078 222.97852 L 229.58984 221.39648 L 242.50977 221.17383 C 236.06577 203.92288 229.8149 186.49832 223.79492 169.03125 L 223.41602 169.03125 z M 188.56836 230.98438 C 183.19368 231.28579 178.2823 233.66875 173.43555 235.80859 C 165.19963 239.9926 153.08215 246.31709 154.41797 257.76172 C 156.18182 264.01096 162.86113 268.04776 168.14648 270.61719 C 197.35866 283.65717 236.1374 284.10159 266.97852 274.36719 L 266.98047 274.36719 C 274.59402 271.39514 284.81493 267.08351 286.21094 257.63281 C 286.12961 249.82439 277.97188 244.90888 272.10938 241.91797 L 272.10938 241.54883 C 274.15323 240.73028 276.50359 239.99382 278.62109 239.76953 L 278.62109 239.55859 C 268.29174 237.6836 258.31774 234.94586 248.3125 232.26562 C 250.24041 236.71412 251.62963 241.40449 253.23633 246.02734 C 256.24304 245.05328 259.32627 244.31256 262.57031 243.86523 C 267.84621 245.94561 275.39924 248.92192 276.14844 255.60742 C 276.73507 261.85665 269.98291 264.90251 265.71875 267.43945 C 243.09606 275.77978 217.644 276.59317 194.05078 270.25195 C 187.5335 268.17157 178.12824 265.50167 177.32031 257.09375 C 181.94578 246.02887 193.91023 243.72355 203.90234 241.03516 C 198.76757 237.68227 193.54708 234.71551 188.56836 230.98438 z M 215.20312 283.88281 C 214.32704 301.00116 214.11185 316.8454 212.86133 334.00586 C 219.54922 334.62338 227.09459 335.21106 234.22656 334.16016 L 232.0957 286.32031 L 231.7207 284.04297 C 226.29134 284.25915 221.1513 284.47714 215.20312 283.88281 z " />
  </g>
</svg>
