<?xml version="1.0" encoding="UTF-8" standalone="no"?>
<svg
   xmlns:dc="http://purl.org/dc/elements/1.1/"
   xmlns:cc="http://creativecommons.org/ns#"
   xmlns:rdf="http://www.w3.org/1999/02/22-rdf-syntax-ns#"
   xmlns:svg="http://www.w3.org/2000/svg"
   xmlns="http://www.w3.org/2000/svg"
   xmlns:sodipodi="http://sodipodi.sourceforge.net/DTD/sodipodi-0.dtd"
   xmlns:inkscape="http://www.inkscape.org/namespaces/inkscape"
   width="512"
   height="512"
   viewBox="0 0 512 512"
   version="1.1"
   id="svg8"
   inkscape:version="1.0 (1.0+r73+1)"
   sodipodi:docname="ieee.svg">
  <title
     id="title833">IEEE</title>
  <defs
     id="defs2" />
  <sodipodi:namedview
     id="base"
     pagecolor="#ffffff"
     bordercolor="#666666"
     borderopacity="1.0"
     inkscape:pageopacity="0.0"
     inkscape:pageshadow="2"
     inkscape:zoom="0.75"
     inkscape:cx="256"
     inkscape:cy="256"
     inkscape:document-units="px"
     inkscape:current-layer="layer6"
     inkscape:document-rotation="0"
     showgrid="true"
     units="px"
     showguides="true"
     inkscape:guide-bbox="true"
     inkscape:window-width="1315"
     inkscape:window-height="713"
     inkscape:window-x="51"
     inkscape:window-y="27"
     inkscape:window-maximized="1">
    <inkscape:grid
       type="xygrid"
       id="grid10"
       empspacing="4" />
    <sodipodi:guide
       inkscape:color="rgb(0,0,255)"
       inkscape:locked="true"
       inkscape:label="baseline"
       id="guide23"
       orientation="0,1"
       position="511.99998,64" />
  </sodipodi:namedview>
  <metadata
     id="metadata5">
    <rdf:RDF>
      <cc:Work
         rdf:about="">
        <dc:format>image/svg+xml</dc:format>
        <dc:type
           rdf:resource="http://purl.org/dc/dcmitype/StillImage" />
        <dc:title>IEEE</dc:title>
        <cc:license
           rdf:resource="http://scripts.sil.org/OFL" />
        <dc:subject>
          <rdf:Bag>
            <rdf:li>IEEE</rdf:li>
          </rdf:Bag>
        </dc:subject>
      </cc:Work>
      <cc:License
         rdf:about="http://scripts.sil.org/OFL">
        <cc:permits
           rdf:resource="http://scripts.sil.org/pub/OFL/Reproduction" />
        <cc:permits
           rdf:resource="http://scripts.sil.org/pub/OFL/Distribution" />
        <cc:permits
           rdf:resource="http://scripts.sil.org/pub/OFL/Embedding" />
        <cc:permits
           rdf:resource="http://scripts.sil.org/pub/OFL/DerivativeWorks" />
        <cc:requires
           rdf:resource="http://scripts.sil.org/pub/OFL/Notice" />
        <cc:requires
           rdf:resource="http://scripts.sil.org/pub/OFL/Attribution" />
        <cc:requires
           rdf:resource="http://scripts.sil.org/pub/OFL/ShareAlike" />
        <cc:requires
           rdf:resource="http://scripts.sil.org/pub/OFL/DerivativeRenaming" />
        <cc:requires
           rdf:resource="http://scripts.sil.org/pub/OFL/BundlingWhenSelling" />
      </cc:License>
    </rdf:RDF>
  </metadata>
  <g
     inkscape:groupmode="layer"
     id="layer6"
     inkscape:label="icon">
    <path
       style="stroke-width:0.0776765"
       d="m 494.41527,240.76415 -1.33701,-0.22001 c -42.00468,-28.9502 -81.14139,-61.69405 -118.01269,-98.8373 L 334.31944,98.581054 C 317.81106,80.042026 301.77179,59.503143 286.50946,39.91291 l -18.5444,-26.623918 c -2.2734,-1.402708 -5.10684,-3.7272281 -7.61758,-4.4074274 -5.46851,-2.4018093 -11.36648,0.5026877 -15.82853,3.9322134 l -33.55636,44.2795 C 157.13034,124.64157 93.406537,187.7177 23.884215,236.06567 c -5.499574,4.35134 -13.668719,8.59733 -15.3696671,15.76905 -1.8247257,6.44913 1.4901751,11.77151 5.4436261,15.78161 55.671661,38.85176 108.898706,84.97601 156.274636,137.57621 8.4093,8.95117 15.22728,17.85252 23.45458,26.25751 13.8569,18.68152 30.1341,37.512 42.87265,57.55446 3.99471,4.22944 4.67905,11.18351 10.92626,13.2458 4.88983,1.71485 10.92627,2.87936 15.59289,0 l 4.63779,-4.71945 c 57.6043,-82.6766 130.65853,-156.92995 212.28313,-216.87997 8.17134,-7.39155 23.77667,-10.14262 23.99989,-23.86196 -0.58261,-6.33004 -4.22018,-12.56562 -9.58526,-16.02436 z m -55.76489,22.11741 c -9.29593,23.54364 -28.18276,42.31106 -44.6979,62.87058 -35.73036,38.96513 -73.42044,76.66947 -115.61327,106.74578 -8.53304,6.11649 -20.04644,11.76359 -30.27424,6.91008 -31.05803,-16.47043 -57.24658,-43.45217 -84.42919,-68.03662 -31.52706,-29.61603 -63.16321,-64.10213 -87.058002,-100.17532 -3.552786,-5.06071 -4.553046,-11.3049 -4.449645,-17.98021 3.071365,-12.45225 11.4925,-22.69967 19.45991,-33.19616 28.232537,-36.45678 62.816237,-71.03505 97.740717,-102.6212 0.80413,-0.80844 2.29376,-2.52954 3.5607,-3.35228 14.99557,-13.14106 29.8962,-24.770576 45.6151,-36.200884 16.37611,-12.913141 36.98315,-2.189956 50.76147,9.686347 14.43162,11.177205 29.46448,23.840767 42.65565,36.783157 l 2.39944,1.39643 c 36.5367,34.34352 70.46889,72.5151 98.34204,112.86866 4.51963,7.02278 8.51266,14.98404 5.98722,24.30164 z M 422.84901,242.47033 C 386.77565,189.58723 339.4325,142.75592 289.26603,101.84129 276.28959,92.607265 261.26463,76.446602 244.51895,88.006892 192.51762,124.41331 142.46932,173.78901 102.17125,224.1426 c -8.204708,12.23243 -22.545328,23.88256 -16.039302,40.12683 4.658158,11.99136 15.123872,20.65797 21.823712,31.2323 39.52101,48.10062 86.14257,92.9475 134.86234,129.02067 21.39817,13.85503 36.64802,-8.51146 53.2598,-18.75258 34.03782,-27.2434 65.53611,-60.31182 95.3639,-92.48028 V 312.492 c 11.96206,-14.64853 24.5808,-29.07152 33.93275,-44.87606 4.07773,-7.72423 2.02303,-18.31916 -2.52544,-25.14561 z m -172.29363,-106.5111 4.5406,-14.76194 h 0.58713 c 9.33098,27.07395 19.01967,54.08261 29.00787,80.82159 l -20.02612,0.34507 -0.44869,2.45222 2.97414,72.47329 v 1.17657 c -7.4215,1.28137 -16.51457,0.91321 -23.79761,0.19075 l -0.5747,-0.78493 3.32958,-74.71997 v -0.54678 c -5.59678,-0.58858 -12.65435,0 -18.35398,-0.58858 l 22.76235,-66.0579 z M 238.734,376.9079 c 1.93829,-26.59871 2.27341,-51.15576 3.63134,-77.6892 9.21966,0.92122 17.18647,0.58227 25.60198,0.24718 l 0.58092,3.53031 3.30247,74.15255 c -11.05455,1.62891 -22.74991,0.71625 -33.11615,-0.2409 z m 83.88384,-92.43855 c -47.80374,15.0883 -107.91257,14.3995 -153.19146,-5.81247 -8.19228,-3.98262 -18.54438,-10.2411 -21.27835,-19.9274 -2.07052,-17.73919 16.71121,-27.54056 29.47687,-34.02577 7.51248,-3.31675 15.12388,-7.01024 23.45462,-7.47744 7.71702,5.78326 15.80988,10.38139 23.76877,15.57836 -15.48777,4.167 -34.03161,7.7391 -41.20109,24.88967 1.25229,13.03227 15.82854,17.17176 25.93033,20.39634 36.56949,9.82889 76.02214,8.56816 111.08731,-4.35935 6.60944,-3.93226 17.07458,-8.65401 16.1653,-18.34032 -1.16125,-10.36252 -12.86904,-14.97548 -21.04667,-18.20007 -5.02825,0.69334 -9.80622,1.84244 -14.46662,3.35224 -2.49038,-7.16541 -4.64399,-14.43727 -7.63226,-21.33245 15.50812,4.15437 30.96706,8.39866 46.97756,11.30489 v 0.3269 c -3.28213,0.34764 -6.92536,1.48865 -10.09332,2.75738 v 0.5737 c 9.08687,4.63591 21.73325,12.25533 21.85931,24.35837 -2.16382,14.64857 -18.00871,21.33016 -29.80972,25.93685 z"
       id="path2" />
  </g>
</svg>
