<?xml version="1.0" encoding="UTF-8" standalone="no"?>
<svg
   xmlns:dc="http://purl.org/dc/elements/1.1/"
   xmlns:cc="http://creativecommons.org/ns#"
   xmlns:rdf="http://www.w3.org/1999/02/22-rdf-syntax-ns#"
   xmlns:svg="http://www.w3.org/2000/svg"
   xmlns="http://www.w3.org/2000/svg"
   xmlns:sodipodi="http://sodipodi.sourceforge.net/DTD/sodipodi-0.dtd"
   xmlns:inkscape="http://www.inkscape.org/namespaces/inkscape"
   sodipodi:docname="impactstory.svg"
   inkscape:version="1.0 (1.0+r73+1)"
   id="svg8"
   version="1.1"
   viewBox="0 0 512 512"
   height="512"
   width="512">
  <title
     id="title833">Impactstory</title>
  <defs
     id="defs2" />
  <sodipodi:namedview
     inkscape:window-maximized="1"
     inkscape:window-y="27"
     inkscape:window-x="51"
     inkscape:window-height="713"
     inkscape:window-width="1315"
     inkscape:guide-bbox="true"
     showguides="true"
     units="px"
     showgrid="true"
     inkscape:document-rotation="0"
     inkscape:current-layer="layer6"
     inkscape:document-units="px"
     inkscape:cy="256"
     inkscape:cx="256"
     inkscape:zoom="0.75"
     inkscape:pageshadow="2"
     inkscape:pageopacity="0.0"
     borderopacity="1.0"
     bordercolor="#666666"
     pagecolor="#ffffff"
     id="base">
    <inkscape:grid
       empspacing="4"
       id="grid10"
       type="xygrid" />
    <sodipodi:guide
       inkscape:color="rgb(0,0,255)"
       inkscape:locked="true"
       inkscape:label="baseline"
       id="guide23"
       orientation="0,1"
       position="511.99998,64" />
  </sodipodi:namedview>
  <metadata
     id="metadata5">
    <rdf:RDF>
      <cc:Work
         rdf:about="">
        <dc:format>image/svg+xml</dc:format>
        <dc:type
           rdf:resource="http://purl.org/dc/dcmitype/StillImage" />
        <dc:title>Impactstory</dc:title>
        <cc:license
           rdf:resource="http://scripts.sil.org/OFL" />
        <dc:subject>
          <rdf:Bag>
            <rdf:li>Impactstory</rdf:li>
          </rdf:Bag>
        </dc:subject>
      </cc:Work>
      <cc:License
         rdf:about="http://scripts.sil.org/OFL">
        <cc:permits
           rdf:resource="http://scripts.sil.org/pub/OFL/Reproduction" />
        <cc:permits
           rdf:resource="http://scripts.sil.org/pub/OFL/Distribution" />
        <cc:permits
           rdf:resource="http://scripts.sil.org/pub/OFL/Embedding" />
        <cc:permits
           rdf:resource="http://scripts.sil.org/pub/OFL/DerivativeWorks" />
        <cc:requires
           rdf:resource="http://scripts.sil.org/pub/OFL/Notice" />
        <cc:requires
           rdf:resource="http://scripts.sil.org/pub/OFL/Attribution" />
        <cc:requires
           rdf:resource="http://scripts.sil.org/pub/OFL/ShareAlike" />
        <cc:requires
           rdf:resource="http://scripts.sil.org/pub/OFL/DerivativeRenaming" />
        <cc:requires
           rdf:resource="http://scripts.sil.org/pub/OFL/BundlingWhenSelling" />
      </cc:License>
    </rdf:RDF>
  </metadata>
  <g
     inkscape:label="icon"
     id="layer6"
     inkscape:groupmode="layer">
    <path
       id="path2"
       d="m 485.43711,284.52077 c -2.40035,-9.06013 -4.87991,-18.4199 -4.99966,-27.50019 -0.10303,-8.64007 2.13986,-17.74014 4.31958,-26.5399 2.99989,-12.29985 6.13943,-25.02009 3.0399,-36.57998 -3.10014,-11.59979 -12.1598,-21.02022 -20.91969,-30.13996 -6.28039,-6.55977 -12.80078,-13.32027 -17.0205,-20.86006 -4.45918,-7.94006 -6.99943,-17.25998 -9.44024,-26.28007 -3.39991,-12.57981 -6.59976,-24.439919 -14.49969,-32.620075 -8.1201,-8.420239 -20.57963,-12.24019 -32.64056,-15.999932 -8.75981,-2.660009 -17.80019,-5.420121 -25.31875,-10.000143 -7.561,-4.580151 -14.24108,-11.360349 -20.72051,-17.920064 -8.81966,-8.920108 -17.95995,-18.179798 -29.1399,-21.459969 -3.32006,-0.959772 -6.82068,-1.420244 -10.78053,-1.420244 -8.1199,0 -16.83986,2.079788 -25.30003,4.0201 -8.74019,2.060083 -17.78005,4.13983 -26.48029,4.13983 l -0.53979,-0.03969 C 246.4767,25.240336 237.53637,22.920181 228.89626,20.680177 220.05599,18.379998 210.89638,16 202.23603,16 c -3.70015,0 -7.02023,0.419982 -10.21998,1.259994 -11.68016,3.100262 -21.11979,12.420112 -30.24003,21.359879 -6.36021,6.320315 -12.9199,12.780007 -20.26016,17.140155 -7.63981,4.519959 -16.73988,7.280026 -25.51994,9.919876 -12.60004,3.819868 -24.520288,7.459863 -32.519978,15.78003 -8.040139,8.379815 -11.339996,21.000036 -14.539782,33.180096 -2.279895,8.89979 -4.68019,18.12013 -8.939768,25.86008 -4.220206,7.70004 -10.660193,14.6798 -16.919735,21.35992 -8.560387,9.24003 -17.460205,18.78026 -20.260331,30.17983 -2.739877,11.03984 0.399769,22.89991 3.740162,35.45999 2.380048,9.03991 4.879724,18.37999 4.980041,27.47997 0.09795,8.64012 -2.139883,17.75978 -4.300103,26.53988 -3.020039,12.32002 -6.139942,25.02014 -3.040316,36.58003 3.080314,11.55986 12.140176,21.03989 20.900005,30.13991 6.300105,6.5401 12.800307,13.32025 17.000239,20.86035 4.48004,7.94042 7.020259,17.2404 9.459892,26.29979 3.399922,12.55944 6.619957,24.3993 14.480189,32.57945 8.140245,8.46008 20.600225,12.26062 32.659945,15.98053 8.75985,2.69971 17.81997,5.48056 25.31983,10.06024 7.56004,4.57946 14.25981,11.33943 20.69981,17.87971 8.8402,8.98067 17.99979,18.22062 29.15993,21.48048 3.29985,0.93959 6.79984,1.40002 10.75978,1.40002 8.12004,0 16.86022,-2.02048 25.30015,-3.96005 8.75986,-2.08009 17.80022,-4.1599 26.49996,-4.1599 h 0.58023 c 8.50006,0.12341 17.46015,2.41952 26.07994,4.63977 8.82001,2.34015 17.98018,4.69997 26.66028,4.69997 3.69956,0 7.02083,-0.39986 10.19918,-1.23971 11.70109,-3.16011 21.12064,-12.42047 30.24101,-21.42017 6.36013,-6.25968 12.95879,-12.71979 20.2597,-17.08013 7.66057,-4.52002 16.76046,-7.30042 25.51959,-9.96042 12.6008,-3.81981 24.50019,-7.41976 32.51994,-15.75944 8.04075,-8.43954 11.34072,-20.99996 14.52026,-33.20029 2.31984,-8.85956 4.72015,-18.05961 8.96055,-25.84016 4.21968,-7.69969 10.70003,-14.63964 16.91925,-21.3596 8.56023,-9.21979 17.46,-18.76004 20.29987,-30.16026 2.72016,-11.03973 -0.41964,-22.89985 -3.75965,-35.45993 z M 255.99723,464.44048 c -112.24025,0 -203.200395,-93.33974 -203.200395,-208.46006 0,-115.08019 90.960145,-208.42048 203.200395,-208.42048 112.23967,0 203.20079,93.34029 203.20079,208.42048 0,115.12032 -90.96112,208.46006 -203.20079,208.46006 z m 0.0407,-395.45986 c -103.28025,0 -187.020085,83.74032 -187.020085,187.00036 0,103.29991 83.740385,187.04006 187.020085,187.04006 103.29867,0 187.03969,-83.74015 187.03969,-187.04006 0,-103.26004 -83.74102,-187.00036 -187.03969,-187.00036 z m -25.96041,66.41964 c 0,-4.40013 3.52021,-7.91984 7.87989,-7.91984 h 39.45979 c 4.34002,0 7.87994,3.53998 7.87994,7.91984 v 33.50003 c 0,4.40011 -3.52025,7.87995 -7.87994,7.87995 h -39.46024 c -4.36028,0 -7.87995,-3.47984 -7.87995,-7.87995 z m 84.81913,232.66058 c 0,4.3797 -3.55892,7.92022 -7.89894,7.92022 h -98.60055 c -4.36027,0 -7.9002,-3.54052 -7.9002,-7.92022 v -35.45988 c 0,-4.40014 3.53993,-7.90013 7.9002,-7.90013 h 21.67981 v -71.04027 h -21.67981 c -4.36027,0 -7.90021,-3.52024 -7.90021,-7.87997 v -33.49995 c 0,-4.40016 3.53994,-7.90018 7.90021,-7.90018 h 69.04034 c 4.33997,0 7.87994,3.50002 7.87994,7.90018 v 112.39992 h 21.70008 c 4.34012,0 7.89947,3.49999 7.89947,7.90024 v 35.48004 z"
       style="stroke-width:0.075;stroke-miterlimit:4;stroke-dasharray:none;stroke:none" />
  </g>
</svg>
