<?xml version="1.0" encoding="utf-8"?>
<!-- Generator: Adobe Illustrator 16.0.0, SVG Export Plug-In . SVG Version: 6.00 Build 0)  -->
<!DOCTYPE svg PUBLIC "-//W3C//DTD SVG 1.1//EN" "http://www.w3.org/Graphics/SVG/1.1/DTD/svg11.dtd" [
	<!ENTITY st0 "fill-rule:evenodd;clip-rule:evenodd;fill:#444444;">
	<!ENTITY st1 "fill:#444444;">
]>
<svg version="1.1" id="Layer_1" xmlns="http://www.w3.org/2000/svg" xmlns:xlink="http://www.w3.org/1999/xlink" x="0px" y="0px"
	 width="28px" height="28px" viewBox="0 0 28 28" style="enable-background:new 0 0 28 28;" xml:space="preserve">
<g>
	<g>
		<path style="&st0;" d="M25.472,15.426c-0.12-0.453-0.244-0.921-0.25-1.375c-0.005-0.432,0.107-0.887,0.216-1.327
			c0.15-0.615,0.307-1.251,0.152-1.829c-0.155-0.58-0.608-1.051-1.046-1.507c-0.314-0.328-0.64-0.666-0.851-1.043
			c-0.223-0.397-0.35-0.863-0.472-1.314c-0.17-0.629-0.33-1.222-0.725-1.631c-0.406-0.421-1.029-0.612-1.632-0.8
			c-0.438-0.133-0.89-0.271-1.266-0.5c-0.378-0.229-0.712-0.568-1.036-0.896c-0.441-0.446-0.898-0.909-1.457-1.073
			c-0.166-0.048-0.341-0.071-0.539-0.071c-0.406,0-0.842,0.104-1.265,0.201c-0.437,0.103-0.889,0.207-1.324,0.207L13.95,2.466
			c-0.426-0.004-0.873-0.12-1.305-0.232C12.203,2.119,11.745,2,11.312,2c-0.185,0-0.351,0.021-0.511,0.063
			c-0.584,0.155-1.056,0.621-1.512,1.068C8.971,3.447,8.643,3.77,8.276,3.988C7.894,4.214,7.439,4.352,7,4.484
			c-0.63,0.191-1.226,0.373-1.626,0.789c-0.402,0.419-0.567,1.05-0.727,1.659C4.533,7.377,4.413,7.838,4.2,8.225
			C3.989,8.61,3.667,8.959,3.354,9.293c-0.428,0.462-0.873,0.939-1.013,1.509c-0.137,0.552,0.02,1.145,0.187,1.773
			c0.119,0.452,0.244,0.919,0.249,1.374c0.005,0.432-0.107,0.888-0.215,1.327c-0.151,0.616-0.307,1.251-0.152,1.829
			c0.154,0.578,0.607,1.052,1.045,1.507c0.315,0.327,0.64,0.666,0.85,1.043c0.224,0.397,0.351,0.862,0.473,1.315
			c0.17,0.628,0.331,1.22,0.724,1.629c0.407,0.423,1.03,0.613,1.633,0.799c0.438,0.135,0.891,0.274,1.266,0.503
			c0.378,0.229,0.713,0.567,1.035,0.894c0.442,0.449,0.9,0.911,1.458,1.074c0.165,0.047,0.34,0.07,0.538,0.07
			c0.406,0,0.843-0.101,1.265-0.198c0.438-0.104,0.89-0.208,1.325-0.208h0.029c0.425,0.006,0.873,0.121,1.304,0.232
			C15.796,25.882,16.254,26,16.688,26c0.185,0,0.351-0.02,0.51-0.062c0.585-0.158,1.056-0.621,1.512-1.071
			c0.318-0.313,0.648-0.636,1.013-0.854c0.383-0.226,0.838-0.365,1.276-0.498c0.63-0.191,1.225-0.371,1.626-0.788
			c0.402-0.422,0.567-1.05,0.726-1.66c0.116-0.443,0.236-0.903,0.448-1.292c0.211-0.385,0.535-0.732,0.846-1.068
			c0.428-0.461,0.873-0.938,1.015-1.508C25.796,16.647,25.639,16.054,25.472,15.426z M14,24.422c-5.612,0-10.16-4.667-10.16-10.423
			C3.84,8.245,8.388,3.578,14,3.578s10.16,4.667,10.16,10.421C24.16,19.755,19.612,24.422,14,24.422z"/>
	</g>
</g>
<g>
	<g>
		<path style="&st0;" d="M14.002,4.649c-5.164,0-9.351,4.187-9.351,9.35c0,5.165,4.187,9.352,9.351,9.352
			c5.165,0,9.352-4.187,9.352-9.352C23.354,8.836,19.167,4.649,14.002,4.649z M12.704,7.97c0-0.22,0.176-0.396,0.394-0.396h1.973
			c0.217,0,0.394,0.177,0.394,0.396v1.675c0,0.22-0.176,0.394-0.394,0.394h-1.973c-0.218,0-0.394-0.174-0.394-0.394V7.97z
			 M16.945,19.603c0,0.219-0.178,0.396-0.395,0.396h-4.93c-0.218,0-0.395-0.177-0.395-0.396V17.83c0-0.22,0.177-0.395,0.395-0.395
			h1.084v-3.552H11.62c-0.218,0-0.395-0.176-0.395-0.394v-1.675c0-0.22,0.177-0.395,0.395-0.395h3.452
			c0.217,0,0.394,0.175,0.394,0.395v5.62h1.085c0.217,0,0.395,0.175,0.395,0.395V19.603z"/>
	</g>
</g>
</svg>
