<?xml version="1.0" encoding="utf-8"?>
<!-- Generator: Adobe Illustrator 16.0.0, SVG Export Plug-In . SVG Version: 6.00 Build 0)  -->
<!DOCTYPE svg PUBLIC "-//W3C//DTD SVG 1.1//EN" "http://www.w3.org/Graphics/SVG/1.1/DTD/svg11.dtd" [
	<!ENTITY st0 "fill-rule:evenodd;clip-rule:evenodd;fill:#444444;">
	<!ENTITY st1 "fill:#444444;">
]>
<svg version="1.1" id="Layer_1" xmlns="http://www.w3.org/2000/svg" xmlns:xlink="http://www.w3.org/1999/xlink" x="0px" y="0px"
	 width="28px" height="28px" viewBox="0 0 28 28" style="enable-background:new 0 0 28 28;" xml:space="preserve">
<g>
	<g>
		<path style="&st1;" d="M12,7.052c-3.741,0-6.773,3.111-6.773,6.947c0,3.838,3.032,6.949,6.773,6.949s6.773-3.111,6.773-6.949
			C18.773,10.163,15.742,7.052,12,7.052z M12.001,20.233c-3.442,0-6.233-2.791-6.233-6.234c0-3.441,2.791-6.232,6.233-6.232
			c3.443,0,6.234,2.791,6.234,6.232C18.236,17.442,15.445,20.233,12.001,20.233z M13.7,16.29h-0.723v-3.746
			c0-0.146-0.118-0.264-0.263-0.264h-2.301c-0.146,0-0.264,0.117-0.264,0.264v1.116c0,0.146,0.118,0.263,0.264,0.263h0.723v2.367
			h-0.723c-0.146,0-0.264,0.117-0.264,0.264v1.182c0,0.146,0.118,0.264,0.264,0.264H13.7c0.145,0,0.263-0.118,0.263-0.264v-1.182
			C13.963,16.407,13.845,16.29,13.7,16.29z M11.399,11.358h1.315c0.145,0,0.263-0.115,0.263-0.262V9.979
			c0-0.146-0.118-0.264-0.263-0.264h-1.315c-0.145,0-0.263,0.117-0.263,0.264v1.117C11.136,11.243,11.254,11.358,11.399,11.358z
			 M22.68,3.32C21.8,2.439,20.74,2,19.5,2h-15C3.26,2,2.201,2.439,1.32,3.32C0.439,4.199,0,5.26,0,6.5v15
			c0,1.24,0.439,2.301,1.32,3.182C2.201,25.559,3.262,26,4.5,26h15c1.24,0,2.3-0.441,3.18-1.32c0.881-0.881,1.321-1.939,1.321-3.18
			v-15C24.001,5.26,23.561,4.199,22.68,3.32z M19.774,16.132c-0.095,0.381-0.391,0.698-0.677,1.006
			c-0.208,0.224-0.423,0.455-0.564,0.712c-0.142,0.259-0.221,0.565-0.299,0.861c-0.106,0.407-0.216,0.825-0.484,1.106
			c-0.268,0.278-0.664,0.398-1.084,0.525c-0.292,0.089-0.596,0.182-0.851,0.332c-0.243,0.146-0.463,0.36-0.675,0.569
			c-0.304,0.3-0.618,0.608-1.008,0.714C14.027,21.987,13.916,22,13.792,22c-0.289,0-0.595-0.079-0.89-0.156
			c-0.288-0.074-0.586-0.151-0.869-0.155h-0.02c-0.29,0-0.592,0.07-0.883,0.139c-0.281,0.065-0.573,0.133-0.843,0.133
			c-0.132,0-0.249-0.016-0.358-0.047c-0.372-0.109-0.677-0.417-0.972-0.717c-0.215-0.217-0.438-0.443-0.69-0.596
			c-0.25-0.152-0.552-0.245-0.844-0.335c-0.402-0.124-0.817-0.251-1.089-0.532c-0.262-0.273-0.369-0.668-0.482-1.086
			c-0.082-0.303-0.166-0.612-0.315-0.877c-0.14-0.252-0.356-0.478-0.566-0.695c-0.292-0.304-0.595-0.619-0.697-1.005
			c-0.104-0.386,0-0.809,0.102-1.22c0.072-0.293,0.147-0.597,0.144-0.885c-0.003-0.303-0.087-0.614-0.166-0.916
			c-0.111-0.419-0.216-0.814-0.125-1.182c0.094-0.38,0.39-0.698,0.676-1.006c0.208-0.223,0.423-0.455,0.564-0.713
			c0.142-0.258,0.222-0.564,0.298-0.861C5.872,8.882,5.982,8.462,6.25,8.183c0.267-0.277,0.664-0.398,1.084-0.526
			c0.292-0.089,0.595-0.181,0.851-0.331c0.244-0.146,0.463-0.36,0.675-0.57c0.304-0.299,0.618-0.609,1.008-0.713
			C9.974,6.014,10.085,6,10.208,6c0.289,0,0.594,0.079,0.889,0.155c0.288,0.075,0.586,0.152,0.87,0.155l0.02,0.001
			c0.29,0,0.591-0.07,0.882-0.139c0.282-0.064,0.573-0.134,0.843-0.134c0.132,0,0.249,0.016,0.359,0.048
			c0.372,0.109,0.677,0.418,0.971,0.715c0.215,0.219,0.438,0.445,0.69,0.598c0.25,0.152,0.552,0.245,0.844,0.334
			c0.402,0.125,0.817,0.252,1.088,0.533c0.263,0.272,0.37,0.668,0.483,1.087c0.081,0.301,0.166,0.611,0.314,0.876
			c0.141,0.252,0.357,0.477,0.567,0.695c0.292,0.305,0.594,0.618,0.697,1.005c0.103,0.386-0.001,0.81-0.102,1.22
			c-0.073,0.293-0.147,0.597-0.145,0.885c0.004,0.303,0.087,0.614,0.167,0.916C19.76,15.369,19.864,15.765,19.774,16.132z"/>
	</g>
</g>
</svg>
