<?xml version="1.0" encoding="UTF-8" standalone="no"?>
<svg
   xmlns:dc="http://purl.org/dc/elements/1.1/"
   xmlns:cc="http://creativecommons.org/ns#"
   xmlns:rdf="http://www.w3.org/1999/02/22-rdf-syntax-ns#"
   xmlns:svg="http://www.w3.org/2000/svg"
   xmlns="http://www.w3.org/2000/svg"
   xmlns:sodipodi="http://sodipodi.sourceforge.net/DTD/sodipodi-0.dtd"
   xmlns:inkscape="http://www.inkscape.org/namespaces/inkscape"
   sodipodi:docname="impactstory-square.svg"
   inkscape:version="1.0 (1.0+r73+1)"
   id="svg8"
   version="1.1"
   viewBox="0 0 448 512"
   height="512"
   width="448">
  <title
     id="title839">Impactstory</title>
  <defs
     id="defs2" />
  <sodipodi:namedview
     inkscape:window-maximized="1"
     inkscape:window-y="27"
     inkscape:window-x="51"
     inkscape:window-height="713"
     inkscape:window-width="1315"
     inkscape:guide-bbox="true"
     showguides="true"
     units="px"
     showgrid="true"
     inkscape:document-rotation="0"
     inkscape:current-layer="layer6"
     inkscape:document-units="px"
     inkscape:cy="256"
     inkscape:cx="224"
     inkscape:zoom="0.75"
     inkscape:pageshadow="2"
     inkscape:pageopacity="0.0"
     borderopacity="1.0"
     bordercolor="#666666"
     pagecolor="#ffffff"
     id="base">
    <inkscape:grid
       empspacing="4"
       id="grid10"
       type="xygrid" />
    <sodipodi:guide
       inkscape:color="rgb(0,0,255)"
       inkscape:locked="true"
       inkscape:label=""
       id="guide832"
       orientation="0,1"
       position="448,416" />
    <sodipodi:guide
       inkscape:color="rgb(0,0,255)"
       inkscape:locked="true"
       inkscape:label=""
       id="guide834"
       orientation="0,1"
       position="448,96" />
    <sodipodi:guide
       inkscape:color="rgb(0,0,255)"
       inkscape:locked="true"
       inkscape:label="baseline"
       id="guide836"
       orientation="0,1"
       position="448,64" />
    <sodipodi:guide
       id="guide835"
       orientation="1,0"
       position="64,512" />
    <sodipodi:guide
       id="guide837"
       orientation="1,0"
       position="384,512" />
  </sodipodi:namedview>
  <metadata
     id="metadata5">
    <rdf:RDF>
      <cc:Work
         rdf:about="">
        <dc:format>image/svg+xml</dc:format>
        <dc:type
           rdf:resource="http://purl.org/dc/dcmitype/StillImage" />
        <dc:title>Impactstory</dc:title>
        <dc:subject>
          <rdf:Bag>
            <rdf:li>Impactstory</rdf:li>
          </rdf:Bag>
        </dc:subject>
        <cc:license
           rdf:resource="http://scripts.sil.org/OFL" />
      </cc:Work>
      <cc:License
         rdf:about="http://scripts.sil.org/OFL">
        <cc:permits
           rdf:resource="http://scripts.sil.org/pub/OFL/Reproduction" />
        <cc:permits
           rdf:resource="http://scripts.sil.org/pub/OFL/Distribution" />
        <cc:permits
           rdf:resource="http://scripts.sil.org/pub/OFL/Embedding" />
        <cc:permits
           rdf:resource="http://scripts.sil.org/pub/OFL/DerivativeWorks" />
        <cc:requires
           rdf:resource="http://scripts.sil.org/pub/OFL/Notice" />
        <cc:requires
           rdf:resource="http://scripts.sil.org/pub/OFL/Attribution" />
        <cc:requires
           rdf:resource="http://scripts.sil.org/pub/OFL/ShareAlike" />
        <cc:requires
           rdf:resource="http://scripts.sil.org/pub/OFL/DerivativeRenaming" />
        <cc:requires
           rdf:resource="http://scripts.sil.org/pub/OFL/BundlingWhenSelling" />
      </cc:License>
    </rdf:RDF>
  </metadata>
  <g
     inkscape:label="icon"
     id="layer6"
     inkscape:groupmode="layer">
    <path
       id="path2"
       d="M 48 32 C 21.5 32 0 53.5 0 80 L 0 432 C 0 458.5 21.5 480 48 480 L 400 480 C 426.5 480 448 458.5 448 432 L 448 80 C 448 53.5 426.5 32 400 32 L 48 32 z M 188.1582 96 C 193.93177 96 200.03813 97.585687 205.93164 99.119141 C 211.69172 100.61248 217.65024 102.15949 223.33008 102.21289 L 223.69141 102.24023 C 229.49157 102.24023 235.51696 100.85386 241.34375 99.480469 C 246.98385 98.186927 252.79767 96.800781 258.21094 96.800781 C 260.85084 96.800781 263.18507 97.106246 265.39844 97.746094 C 272.85174 99.932875 278.94445 106.10599 284.82422 112.05273 C 289.14384 116.42588 293.59802 120.94657 298.63867 124 C 303.65105 127.05335 309.67771 128.89463 315.51758 130.66797 C 323.55819 133.17447 331.86395 135.72049 337.27734 141.33398 C 342.54395 146.78742 344.67867 154.69353 346.94531 163.08008 C 348.57251 169.09346 350.2655 175.30625 353.23828 180.59961 C 356.05143 185.62614 360.39705 190.13463 364.58398 194.50781 C 370.42392 200.58763 376.46449 206.86641 378.53125 214.59961 C 380.59761 222.3062 378.50384 230.78643 376.50391 238.98633 C 375.05074 244.85284 373.5563 250.91964 373.625 256.67969 C 373.70482 262.73322 375.35873 268.97359 376.95898 275.01367 L 376.95703 275.01367 C 379.18371 283.38705 381.27634 291.29251 379.46289 298.65234 C 377.56965 306.25249 371.6365 312.61324 365.92969 318.75977 C 361.78353 323.23974 357.46351 327.86687 354.65039 333 C 351.82346 338.18704 350.2243 344.32017 348.67773 350.22656 C 346.55805 358.36011 344.35856 366.733 338.99805 372.35938 C 333.65157 377.91915 325.71694 380.32064 317.31641 382.86719 C 311.47698 384.64051 305.41173 386.49252 300.30469 389.50586 C 295.43743 392.41275 291.03697 396.71948 286.79688 400.89258 C 280.71662 406.89238 274.43745 413.06709 266.63672 415.17383 C 264.51782 415.73371 262.30427 416 259.83789 416 C 254.05115 416 247.94446 414.42729 242.06445 412.86719 C 236.31792 411.38702 230.34444 409.85584 224.67773 409.77344 L 224.29102 409.77344 C 218.49119 409.77344 212.46295 411.16015 206.62305 412.54688 C 200.99644 413.83992 195.17117 415.1875 189.75781 415.1875 C 187.11785 415.1875 184.78387 414.8803 182.58398 414.25391 C 175.14388 412.08067 169.03799 405.92071 163.14453 399.93359 C 158.85119 395.57342 154.38377 391.06664 149.34375 388.01367 C 144.34384 384.96053 138.30473 383.10646 132.46484 381.30664 C 124.42503 378.82671 116.11825 376.29239 110.69141 370.65234 C 105.45126 365.1989 103.30372 357.30652 101.03711 348.93359 C 99.410694 342.89397 97.717159 336.69401 94.730469 331.40039 C 91.930519 326.37365 87.596554 321.85225 83.396484 317.49219 C 77.556594 311.42552 71.518384 305.10696 69.464844 297.40039 C 67.398424 289.69379 69.476874 281.22702 71.490234 273.01367 C 72.930374 267.16027 74.422722 261.08039 74.357422 255.32031 C 74.290542 249.25366 72.623799 243.02661 71.037109 237 C 68.810179 228.62661 66.718332 220.71928 68.544922 213.35938 C 70.411672 205.75965 76.343861 199.40025 82.050781 193.24023 C 86.223811 188.78682 90.516608 184.13337 93.330078 179 C 96.169788 173.84005 97.771086 167.69296 99.291016 161.75977 C 101.4242 153.63972 103.62429 145.22717 108.98438 139.64062 C 114.3175 134.09385 122.26404 131.66571 130.66406 129.11914 C 136.51744 127.35924 142.58453 125.51916 147.67773 122.50586 C 152.57123 119.59909 156.94345 115.29362 161.18359 111.08008 C 167.26375 105.12023 173.55697 98.906686 181.34375 96.839844 C 183.47691 96.279837 185.69143 96 188.1582 96 z M 223.99805 117.03906 C 149.17121 117.03906 88.53125 179.26621 88.53125 255.98633 C 88.53125 332.73323 149.17121 394.96094 223.99805 394.96094 C 298.8245 394.96094 359.46484 332.73323 359.46484 255.98633 C 359.46484 179.26621 298.8245 117.03906 223.99805 117.03906 z M 224.02539 131.32031 C 292.89117 131.32031 348.71875 187.14826 348.71875 255.98828 C 348.71875 324.8549 292.89117 380.68164 224.02539 380.68164 C 155.17225 380.68164 99.345703 324.85489 99.345703 255.98828 C 99.345703 187.14825 155.17188 131.32031 224.02539 131.32031 z M 211.9707 170.32031 C 209.06425 170.32031 206.71875 172.6662 206.71875 175.59961 L 206.71875 197.93359 C 206.71875 200.867 209.06385 203.1875 211.9707 203.1875 L 238.27734 203.1875 C 241.18381 203.1875 243.53125 200.867 243.53125 197.93359 L 243.53125 175.59961 C 243.53125 172.67971 241.1707 170.32031 238.27734 170.32031 L 211.9707 170.32031 z M 192.26562 221.58789 C 189.35879 221.58789 186.99805 223.92008 186.99805 226.85352 L 186.99805 249.1875 C 186.99805 252.09398 189.35879 254.43945 192.26562 254.43945 L 206.71875 254.43945 L 206.71875 301.80078 L 192.26562 301.80078 C 189.35879 301.80078 186.99805 304.13298 186.99805 307.06641 L 186.99805 330.70703 C 186.99805 333.62684 189.35879 335.98828 192.26562 335.98828 L 257.99805 335.98828 C 260.8914 335.98828 263.26367 333.62684 263.26367 330.70703 L 263.27734 330.70703 L 263.27734 307.05469 C 263.27734 304.12119 260.90514 301.78711 258.01172 301.78711 L 243.54492 301.78711 L 243.54492 226.85352 C 243.54492 223.92008 241.18433 221.58789 238.29102 221.58789 L 192.26562 221.58789 z " />
  </g>
</svg>
