<?xml version="1.0" encoding="UTF-8" standalone="no"?>
<svg
   xmlns:dc="http://purl.org/dc/elements/1.1/"
   xmlns:cc="http://creativecommons.org/ns#"
   xmlns:rdf="http://www.w3.org/1999/02/22-rdf-syntax-ns#"
   xmlns:svg="http://www.w3.org/2000/svg"
   xmlns="http://www.w3.org/2000/svg"
   xmlns:sodipodi="http://sodipodi.sourceforge.net/DTD/sodipodi-0.dtd"
   xmlns:inkscape="http://www.inkscape.org/namespaces/inkscape"
   width="448"
   height="512"
   viewBox="0 0 448 512"
   version="1.1"
   id="svg8"
   inkscape:version="1.0 (1.0+r73+1)"
   sodipodi:docname="inaturalist-square.svg">
  <title
     id="title862">iNaturalist</title>
  <defs
     id="defs2" />
  <sodipodi:namedview
     id="base"
     pagecolor="#ffffff"
     bordercolor="#666666"
     borderopacity="1.0"
     inkscape:pageopacity="0.0"
     inkscape:pageshadow="2"
     inkscape:zoom="0.75"
     inkscape:cx="224"
     inkscape:cy="256"
     inkscape:document-units="px"
     inkscape:current-layer="layer6"
     inkscape:document-rotation="0"
     showgrid="true"
     units="px"
     showguides="true"
     inkscape:guide-bbox="true"
     inkscape:window-width="1315"
     inkscape:window-height="713"
     inkscape:window-x="51"
     inkscape:window-y="27"
     inkscape:window-maximized="1">
    <inkscape:grid
       type="xygrid"
       id="grid10"
       empspacing="4" />
    <sodipodi:guide
       position="448,416"
       orientation="0,1"
       id="guide832"
       inkscape:label=""
       inkscape:locked="true"
       inkscape:color="rgb(0,0,255)" />
    <sodipodi:guide
       position="448,96"
       orientation="0,1"
       id="guide834"
       inkscape:label=""
       inkscape:locked="true"
       inkscape:color="rgb(0,0,255)" />
    <sodipodi:guide
       position="448,64"
       orientation="0,1"
       id="guide836"
       inkscape:label="baseline"
       inkscape:locked="true"
       inkscape:color="rgb(0,0,255)" />
    <sodipodi:guide
       id="guide835"
       orientation="1,0"
       position="64,512" />
    <sodipodi:guide
       id="guide837"
       orientation="1,0"
       position="384,512" />
  </sodipodi:namedview>
  <metadata
     id="metadata5">
    <rdf:RDF>
      <cc:Work
         rdf:about="">
        <dc:format>image/svg+xml</dc:format>
        <dc:type
           rdf:resource="http://purl.org/dc/dcmitype/StillImage" />
        <dc:title>iNaturalist</dc:title>
        <cc:license
           rdf:resource="http://scripts.sil.org/OFL" />
        <dc:subject>
          <rdf:Bag>
            <rdf:li>iNaturalist</rdf:li>
          </rdf:Bag>
        </dc:subject>
      </cc:Work>
      <cc:License
         rdf:about="http://scripts.sil.org/OFL">
        <cc:permits
           rdf:resource="http://scripts.sil.org/pub/OFL/Reproduction" />
        <cc:permits
           rdf:resource="http://scripts.sil.org/pub/OFL/Distribution" />
        <cc:permits
           rdf:resource="http://scripts.sil.org/pub/OFL/Embedding" />
        <cc:permits
           rdf:resource="http://scripts.sil.org/pub/OFL/DerivativeWorks" />
        <cc:requires
           rdf:resource="http://scripts.sil.org/pub/OFL/Notice" />
        <cc:requires
           rdf:resource="http://scripts.sil.org/pub/OFL/Attribution" />
        <cc:requires
           rdf:resource="http://scripts.sil.org/pub/OFL/ShareAlike" />
        <cc:requires
           rdf:resource="http://scripts.sil.org/pub/OFL/DerivativeRenaming" />
        <cc:requires
           rdf:resource="http://scripts.sil.org/pub/OFL/BundlingWhenSelling" />
      </cc:License>
    </rdf:RDF>
  </metadata>
  <g
     inkscape:groupmode="layer"
     id="layer6"
     inkscape:label="icon">
    <path
       d="M 48 32 C 21.5 32 0 53.5 0 80 L 0 432 C 0 458.5 21.5 480 48 480 L 400 480 C 426.5 480 448 458.5 448 432 L 448 80 C 448 53.5 426.5 32 400 32 L 48 32 z M 178.50781 96 C 186.63363 97.525769 206.63377 109.4878 214.25391 114.26562 C 224.72506 120.8308 238.76232 130.85792 247.30664 139.62891 C 259.10301 151.73917 268.00584 166.41236 275.50391 181.44336 C 281.17979 192.82125 288.21506 211.4435 288.36328 224.16406 C 288.38943 226.64018 289.03449 232.97876 285.56445 233.37109 C 282.45188 233.72856 275.01524 224.7672 272.66992 222.42188 C 261.85003 211.60199 250.02724 201.64457 237.79492 192.45508 L 210.14844 171.77344 C 200.85431 161.9562 195.48255 150.2127 190.53906 137.84961 C 186.01406 126.53275 180.19052 107.9446 178.50781 96 z M 43.367188 132.61914 L 83.474609 138.35547 C 129.518 146.65566 174.97621 163.07318 214.25391 188.71484 C 231.50818 199.9881 248.4307 213.0226 262.83398 227.80078 L 276.15625 241.58398 C 278.10052 243.47593 281.2052 246.57237 284.00391 246.94727 C 287.5001 247.40065 290.05427 244.0428 291.9375 241.60156 L 306.49805 220.67773 C 319.42785 204.68766 339.01781 193.89256 359.85547 193.64844 L 372.0625 193.64844 C 379.22054 193.65715 389.44736 195.21907 396.47461 196.83203 C 398.77635 197.36387 403.8252 198.15602 404.54883 200.78906 C 405.35096 203.71854 400.17174 206.72661 398.21875 208.30469 C 391.42689 213.76259 387.7729 218.96931 384.07617 226.78125 C 372.48904 251.24589 373.40506 284.57727 359.58594 314.83984 C 336.8389 364.6497 296.45349 399.03499 243.02539 411.7207 C 227.71537 415.35638 212.47518 416.15965 196.81641 415.97656 C 184.89797 415.83706 167.27875 412.53992 155.83984 409.01758 C 151.53281 407.70104 144.68736 406.56028 141.88867 402.89844 C 170.60802 401.58191 203.57474 383.24595 223.8457 363.62891 C 228.8415 358.79003 238.15208 347.65639 242.23242 341.86719 C 243.7582 339.69623 246.8789 335.13687 246.0332 332.37305 C 244.78642 328.27527 238.52766 328.75416 235.17969 328.78906 L 213.38281 330.5332 C 180.36515 330.91682 159.16054 316.63455 138.03516 292.16992 C 133.30091 286.68587 125.27228 278.66492 122.70898 272.11719 L 149.73633 267.13086 L 165.42969 265.14258 C 144.33919 260.88786 112.74256 245.19487 97.423828 230.25977 C 91.468965 224.45311 84.755851 218.12268 81.730469 210.21484 C 91.617459 207.35511 101.12859 206.61322 111.37305 206.72656 C 117.71153 206.80506 120.60781 208.5662 127.06836 206.72656 C 120.86065 204.43355 106.09856 194.77413 100.03906 190.74609 C 84.990609 180.72833 72.009751 172.61116 59.0625 159.64648 C 51.485961 152.06121 44.369832 143.7529 43.367188 132.61914 z M 354.79492 211.41797 C 354.45826 211.42435 354.11137 211.44364 353.75391 211.47852 C 342.6463 215.88146 348.98364 228.42011 357.24023 226.38867 C 365.68646 224.31933 365.23135 211.22004 354.79492 211.41797 z "
       id="path2" />
  </g>
</svg>
