<?xml version="1.0" encoding="UTF-8" standalone="no"?>
<svg
   xmlns:dc="http://purl.org/dc/elements/1.1/"
   xmlns:cc="http://creativecommons.org/ns#"
   xmlns:rdf="http://www.w3.org/1999/02/22-rdf-syntax-ns#"
   xmlns:svg="http://www.w3.org/2000/svg"
   xmlns="http://www.w3.org/2000/svg"
   xmlns:sodipodi="http://sodipodi.sourceforge.net/DTD/sodipodi-0.dtd"
   xmlns:inkscape="http://www.inkscape.org/namespaces/inkscape"
   width="448"
   height="512"
   viewBox="0 0 448 512"
   version="1.1"
   id="svg8"
   inkscape:version="1.0 (1.0+r73+1)"
   sodipodi:docname="isidore.svg">
  <title
     id="title844">Isidore</title>
  <defs
     id="defs2" />
  <sodipodi:namedview
     id="base"
     pagecolor="#ffffff"
     bordercolor="#666666"
     borderopacity="1.0"
     inkscape:pageopacity="0.0"
     inkscape:pageshadow="2"
     inkscape:zoom="0.75"
     inkscape:cx="224"
     inkscape:cy="256"
     inkscape:document-units="px"
     inkscape:current-layer="layer6"
     inkscape:document-rotation="0"
     showgrid="true"
     units="px"
     showguides="true"
     inkscape:guide-bbox="true"
     inkscape:window-width="1315"
     inkscape:window-height="713"
     inkscape:window-x="51"
     inkscape:window-y="27"
     inkscape:window-maximized="1"
     inkscape:snap-global="true">
    <inkscape:grid
       type="xygrid"
       id="grid10"
       empspacing="4" />
    <sodipodi:guide
       position="447.99999,64"
       orientation="0,1"
       id="guide1297"
       inkscape:label="baseline"
       inkscape:locked="true"
       inkscape:color="rgb(0,0,255)" />
  </sodipodi:namedview>
  <metadata
     id="metadata5">
    <rdf:RDF>
      <cc:Work
         rdf:about="">
        <dc:format>image/svg+xml</dc:format>
        <dc:type
           rdf:resource="http://purl.org/dc/dcmitype/StillImage" />
        <dc:title>Isidore</dc:title>
        <cc:license
           rdf:resource="http://scripts.sil.org/OFL" />
        <dc:subject>
          <rdf:Bag>
            <rdf:li>Isidore</rdf:li>
          </rdf:Bag>
        </dc:subject>
      </cc:Work>
      <cc:License
         rdf:about="http://scripts.sil.org/OFL">
        <cc:permits
           rdf:resource="http://scripts.sil.org/pub/OFL/Reproduction" />
        <cc:permits
           rdf:resource="http://scripts.sil.org/pub/OFL/Distribution" />
        <cc:permits
           rdf:resource="http://scripts.sil.org/pub/OFL/Embedding" />
        <cc:permits
           rdf:resource="http://scripts.sil.org/pub/OFL/DerivativeWorks" />
        <cc:requires
           rdf:resource="http://scripts.sil.org/pub/OFL/Notice" />
        <cc:requires
           rdf:resource="http://scripts.sil.org/pub/OFL/Attribution" />
        <cc:requires
           rdf:resource="http://scripts.sil.org/pub/OFL/ShareAlike" />
        <cc:requires
           rdf:resource="http://scripts.sil.org/pub/OFL/DerivativeRenaming" />
        <cc:requires
           rdf:resource="http://scripts.sil.org/pub/OFL/BundlingWhenSelling" />
      </cc:License>
    </rdf:RDF>
  </metadata>
  <g
     inkscape:groupmode="layer"
     id="layer6"
     inkscape:label="icon">
    <path
       sodipodi:nodetypes="ccccccssccsccccssccccc"
       d="M 17.11497,95.999999 C 4.1566915,201.78503 91.429365,257.3222 91.429365,257.3222 c 0,0 -87.2726735,50.24787 -74.314395,158.6778 92.82677,-13.22332 128.46395,-86.38668 138.89968,-110.07756 20.48352,56.23319 73.94363,93.65645 133.79125,93.65702 78.64241,-5.3e-4 142.3938,-63.75427 142.39149,-142.3966 C 432.1969,178.54234 368.44642,114.79133 289.8059,114.79133 h -0.11376 c -59.04448,0 -111.93336,36.53193 -132.94945,91.70966 C 146.66966,183.35155 109.94182,106.57847 17.115049,95.999999 Z m 272.06078,75.227271 c 0.20995,0 0.42012,-7.9e-4 0.63012,0 47.47179,3.1e-4 85.95529,38.48375 85.95556,85.95559 0.002,47.47376 -38.48172,85.96039 -85.95556,85.96069 -47.4738,-3.8e-4 -85.95799,-38.48693 -85.95548,-85.96069 -9.7e-4,-47.22685 38.09857,-85.95559 85.32536,-85.95559 z m 0.63012,53.14566 c -18.12017,6e-4 -32.80929,14.6897 -32.80985,32.80993 -0.002,18.12214 14.68771,32.81443 32.80985,32.81502 18.12221,-5.9e-4 32.81221,-14.69288 32.80993,-32.81502 -6.1e-4,-18.12023 -14.68968,-32.80943 -32.80993,-32.80993 z"
       style="stroke:none;stroke-width:0.264583;stroke-miterlimit:4;stroke-dasharray:none;stroke-opacity:1"
       id="path994" />
  </g>
</svg>
