<?xml version="1.0" encoding="UTF-8" standalone="no"?>
<svg
   sodipodi:docname="isni.svg"
   inkscape:version="1.2.2 (1:1.2.2+202212051550+b0a8486541)"
   id="svg8"
   version="1.1"
   viewBox="0 0 512 512"
   height="512"
   width="512"
   xmlns:inkscape="http://www.inkscape.org/namespaces/inkscape"
   xmlns:sodipodi="http://sodipodi.sourceforge.net/DTD/sodipodi-0.dtd"
   xmlns="http://www.w3.org/2000/svg"
   xmlns:svg="http://www.w3.org/2000/svg"
   xmlns:rdf="http://www.w3.org/1999/02/22-rdf-syntax-ns#"
   xmlns:cc="http://creativecommons.org/ns#"
   xmlns:dc="http://purl.org/dc/elements/1.1/">
  <title
     id="title680">ISNI</title>
  <defs
     id="defs2" />
  <sodipodi:namedview
     inkscape:window-maximized="1"
     inkscape:window-y="0"
     inkscape:window-x="1992"
     inkscape:window-height="1403"
     inkscape:window-width="2488"
     inkscape:guide-bbox="true"
     showguides="true"
     units="px"
     showgrid="true"
     inkscape:document-rotation="0"
     inkscape:current-layer="layer6"
     inkscape:document-units="px"
     inkscape:cy="149.33333"
     inkscape:cx="320.66667"
     inkscape:zoom="0.75"
     inkscape:pageshadow="2"
     inkscape:pageopacity="0.0"
     borderopacity="1.0"
     bordercolor="#666666"
     pagecolor="#ffffff"
     id="base"
     scale-x="1"
     inkscape:showpageshadow="2"
     inkscape:pagecheckerboard="0"
     inkscape:deskcolor="#d1d1d1">
    <inkscape:grid
       empspacing="4"
       id="grid10"
       type="xygrid" />
  </sodipodi:namedview>
  <metadata
     id="metadata5">
    <rdf:RDF>
      <cc:Work
         rdf:about="">
        <dc:format>image/svg+xml</dc:format>
        <dc:type
           rdf:resource="http://purl.org/dc/dcmitype/StillImage" />
        <cc:license
           rdf:resource="http://scripts.sil.org/OFL" />
        <dc:title>ISNI</dc:title>
        <dc:subject>
          <rdf:Bag>
            <rdf:li>ISNI</rdf:li>
          </rdf:Bag>
        </dc:subject>
      </cc:Work>
      <cc:License
         rdf:about="http://scripts.sil.org/OFL">
        <cc:permits
           rdf:resource="http://scripts.sil.org/pub/OFL/Reproduction" />
        <cc:permits
           rdf:resource="http://scripts.sil.org/pub/OFL/Distribution" />
        <cc:permits
           rdf:resource="http://scripts.sil.org/pub/OFL/Embedding" />
        <cc:permits
           rdf:resource="http://scripts.sil.org/pub/OFL/DerivativeWorks" />
        <cc:requires
           rdf:resource="http://scripts.sil.org/pub/OFL/Notice" />
        <cc:requires
           rdf:resource="http://scripts.sil.org/pub/OFL/Attribution" />
        <cc:requires
           rdf:resource="http://scripts.sil.org/pub/OFL/ShareAlike" />
        <cc:requires
           rdf:resource="http://scripts.sil.org/pub/OFL/DerivativeRenaming" />
        <cc:requires
           rdf:resource="http://scripts.sil.org/pub/OFL/BundlingWhenSelling" />
      </cc:License>
    </rdf:RDF>
  </metadata>
  <g
     inkscape:label="icon"
     id="layer6"
     inkscape:groupmode="layer">
    <path
       style="fill:#000000;stroke-width:3.77953"
       d="m 39.950925,405.85771 -2.23497,-0.24487 -2.3689,-0.4798 -2.36897,-0.47977 -2.26131,-0.74256 -2.26124,-0.74254 -2.0887,-1.01179 -2.0887,-1.01179 -2.03468,-1.35721 -2.03468,-1.35722 -2.2492,-2.24311 -2.24928,-2.24312 -1.34858,-2.03093 -1.34858,-2.0309 -0.80204,-1.60091 -0.80211,-1.60087 -0.6986,-1.86248 -0.69869,-1.86246 -0.60783,-2.4212 -0.60777,-2.42121 -0.34336,-2.04871 -0.34336,-2.04872 -0.0547,-116.77657 -0.0547,-116.77657 0.29536,-2.60745 0.29544,-2.60742 0.46485,-2.20597 0.46493,-2.20596 0.67562,-2.07588 0.67562,-2.07587 1.36156,-2.70241 1.36148,-2.7024 1.25813,-1.75714 1.25813,-1.75715 1.77981,-1.78153 1.77982,-1.78161 1.71336,-1.2106 1.71344,-1.2106 1.25602,-0.72237 1.2561,-0.72245 2.14116,-0.9247 2.14107,-0.92469 2.15969,-0.62168 2.15969,-0.6216 1.56599,-0.29841 1.56592,-0.29833 2.23497,-0.31279 2.23497,-0.31279 211.576015,-0.0618 211.576,-0.0618 3.6319,0.19357 3.6318,0.19357 2.3281,0.37932 2.3281,0.37933 2.1258,0.55397 2.1258,0.55397 2.1579,0.85708 2.1577,0.85707 1.3969,0.75591 1.3969,0.75591 1.583,1.08152 1.5832,1.08145 1.373,1.19316 1.373,1.19324 1.1984,1.37298 1.1984,1.37297 1.1882,1.76934 1.1883,1.76934 1.1131,2.32808 1.11311,2.32816 0.4745,1.40667 0.4745,1.40674 0.4636,1.8526 0.4637,1.8526 0.2834,1.67615 0.2834,1.67625 0.1996,2.14184 0.1996,2.14184 -0.058,116.4972 -0.058,116.49721 -0.3433,2.04871 -0.3433,2.04871 -0.6079,2.42121 -0.6078,2.4212 -0.6986,1.86246 -0.6987,1.86247 -0.802,1.60088 -0.8022,1.6009 -1.3485,2.03091 -1.3486,2.03093 -2.2492,2.23712 -2.2493,2.2371 -1.6762,1.13561 -1.6763,1.1356 -1.3968,0.75899 -1.3969,0.75899 -2.0655,0.84282 -2.0656,0.84283 -2.538,0.66768 -2.538,0.66767 -2.3807,0.40213 -2.3806,0.40214 -214.74229,0.0349 -214.742405,0.035 z m 138.660565,-51.30714 2.70052,-0.18479 2.51439,-0.28801 2.5143,-0.28804 2.76025,-0.45908 2.76035,-0.45907 1.70961,-0.37687 1.70961,-0.37689 2.88682,-0.74207 2.88683,-0.74205 2.32808,-0.76373 2.32808,-0.7637 2.28196,-0.98435 2.28204,-0.98436 2.1879,-1.24996 2.18791,-1.24996 1.79498,-1.23514 1.79491,-1.23511 1.83688,-1.51874 1.83689,-1.51875 2.06001,-2.11306 2.06001,-2.11306 1.52268,-1.9154 1.52269,-1.91541 1.44411,-2.18201 1.4442,-2.18204 1.31801,-2.60744 1.31809,-2.60746 0.85317,-2.32807 0.85324,-2.32808 0.57016,-2.27408 0.57015,-2.27407 0.32789,-2.10272 0.3278,-2.10272 v -3.81806 -3.81805 l -0.33492,-2.04871 -0.33492,-2.04871 -0.44702,-1.7839 -0.44695,-1.78392 -0.67148,-1.92897 -0.67139,-1.92898 -0.8036,-1.71958 -0.80352,-1.71958 -1.02477,-1.73803 -1.02476,-1.73803 -1.39768,-1.87113 -1.3976,-1.87113 -1.82258,-1.91681 -1.82258,-1.91681 -1.7813,-1.48806 -1.7813,-1.48806 -2.23497,-1.49607 -2.23498,-1.49607 -2.97993,-1.45353 -2.97994,-1.45353 -4.46994,-1.67442 -4.46987,-1.67441 -3.63186,-1.2133 -3.63179,-1.21331 -3.44557,-1.02186 -3.44557,-1.02187 -3.81801,-1.12542 -3.81809,-1.12543 -8.19485,-2.34697 -8.19484,-2.34695 -3.53868,-1.09984 -3.53868,-1.09986 -2.79371,-0.94941 -2.79372,-0.94941 -0.98169,-0.59051 -0.98176,-0.59051 -0.95183,-0.93605 -0.95175,-0.93605 -0.62527,-0.96556 -0.62519,-0.96555 -0.37636,-0.95481 -0.37635,-0.95482 -0.18028,-0.80411 -0.1802,-0.80411 0.27792,-1.09357 0.27785,-1.09358 0.67539,-1.38297 0.67538,-1.38297 1.41715,-1.42261 1.41706,-1.42261 0.88155,-0.50632 0.88154,-0.50633 1.96221,-0.3605 1.9622,-0.3605 2.65049,-0.37102 2.65057,-0.37101 3.25927,-0.28855 3.25935,-0.28853 4.65616,-0.11326 4.65617,-0.11325 2.04867,0.20332 2.04875,0.2033 1.2106,0.29966 1.21059,0.29967 2.04867,0.99494 2.04875,0.99496 1.49001,1.20666 1.48993,1.20667 0.72112,0.87203 0.72112,0.87203 0.977,1.55611 0.97692,1.55609 0.70111,1.91994 0.7011,1.91995 0.36119,0.71694 0.36118,0.71695 0.77835,0.84843 0.77827,0.84844 0.7982,0.35529 0.79813,0.35529 h 1.16932 1.16939 l 1.47649,-0.38674 1.47656,-0.38673 1.67771,-0.20705 1.67779,-0.20704 12.29227,-2.02552 12.29226,-2.02552 0.42154,-0.0971 0.42154,-0.0971 -0.11898,-0.50799 -0.11899,-0.508 -1.26134,-3.81806 -1.26125,-3.81805 -0.98693,-2.32808 -0.98685,-2.32809 -1.08919,-2.11922 -1.08918,-2.11922 -1.08817,-1.73136 -1.08817,-1.73136 -1.05705,-1.40453 -1.05713,-1.40454 -1.29284,-1.42341 -1.29292,-1.42341 -1.51518,-1.36973 -1.51518,-1.36974 -1.69672,-1.21842 -1.69663,-1.2184 -3.35246,-1.66365 -3.35245,-1.66365 -3.07305,-1.20476 -3.07305,-1.20476 -2.67308,-0.85601 -2.67309,-0.85601 -3.00745,-0.73888 -3.00746,-0.73888 -2.5143,-0.45676 -2.51431,-0.45676 -2.32808,-0.29219 -2.32808,-0.29219 -2.51438,-0.18754 -2.51431,-0.18754 h -3.7249 -3.72498 l -2.5143,0.18754 -2.5143,0.18754 -2.32809,0.29219 -2.32808,0.29219 -2.51438,0.45676 -2.51431,0.45676 -3.00745,0.73888 -3.00746,0.73888 -2.67308,0.85601 -2.67301,0.85601 -3.07312,1.21342 -3.07305,1.2134 -2.42119,1.15644 -2.4212,1.15645 -1.7684,1.07939 -1.76832,1.07939 -1.67725,1.26401 -1.67716,1.26401 -1.53066,1.42604 -1.53066,1.42605 -1.39549,1.66332 -1.39557,1.66333 -0.91039,1.35251 -0.91039,1.35252 -0.85207,1.50519 -0.85199,1.5052 -0.82869,1.94036 -0.82862,1.94036 -0.59752,1.86247 -0.59752,1.86247 -0.44241,1.95572 -0.44242,1.95573 -0.32365,2.32794 -0.32366,2.32794 -0.0102,4.84241 -0.0102,4.84241 0.24048,1.67622 0.24047,1.67623 0.46188,1.95558 0.46196,1.95559 0.58149,1.76934 0.58158,1.76934 0.80133,1.8174 0.80133,1.81739 1.06667,1.81236 1.06667,1.81239 0.65865,0.93327 0.65866,0.93327 1.11999,1.39686 1.1199,1.39684 1.58813,1.59392 1.58804,1.59391 1.49001,1.18409 1.48993,1.1841 1.67622,1.10618 1.67623,1.10619 1.86245,0.94026 1.86245,0.94027 1.67623,0.68844 1.67623,0.68844 2.97994,1.21264 2.97993,1.21263 3.07219,1.0616 3.07219,1.0616 6.79888,1.93136 6.79889,1.93137 13.03723,3.57771 13.03731,3.5777 2.65166,0.715 2.65174,0.715 1.16635,0.58852 1.16635,0.58852 1.30941,1.32434 1.30934,1.32437 0.59384,1.13266 0.59385,1.13263 0.2852,1.09489 0.28511,1.09487 v 2.06358 2.06357 l -0.28121,1.11004 -0.2812,1.11006 -0.73387,1.48997 -0.73386,1.48997 -0.89397,1.06245 -0.8939,1.06242 -0.93126,0.72107 -0.93119,0.72105 -1.11748,0.66373 -1.11749,0.66375 -1.30371,0.64722 -1.30378,0.64724 -1.73768,0.68343 -1.73776,0.68344 -2.19267,0.53542 -2.19268,0.53543 -1.80194,0.22681 -1.80194,0.22681 -3.67307,-0.0998 -3.67314,-0.0998 -2.15336,-0.46653 -2.15335,-0.46653 -1.85096,-0.61201 -1.85096,-0.61206 -2.70052,-1.35866 -2.70061,-1.35869 -1.76191,-1.25809 -1.76191,-1.25812 -1.90787,-1.83127 -1.90788,-1.83126 -1.01264,-1.2418 -1.01265,-1.2418 -1.03892,-1.55648 -1.03891,-1.5565 -1.05174,-2.07532 -1.05174,-2.07532 -0.86301,-0.89972 -0.86302,-0.89969 -0.69102,-0.35747 -0.69102,-0.35745 -0.61269,1.4e-4 -0.61268,1.2e-4 -4.17287,0.56426 -4.17286,0.56424 -4.95325,0.72304 -4.95324,0.72303 -8.33447,1.26431 -8.33455,1.26432 1.6e-4,0.28853 1.5e-4,0.28853 1.20059,3.56096 1.20051,3.56098 1.13195,2.58516 1.13203,2.58517 1.3238,2.42121 1.3238,2.4212 1.1812,1.79561 1.18128,1.79559 1.48375,1.90615 1.48383,1.90614 1.70086,1.83881 1.70093,1.83879 2.08143,1.79184 2.08143,1.79183 1.76934,1.26133 1.76934,1.26134 1.7469,1.0552 1.7469,1.05519 2.1643,1.08445 2.1643,1.08444 2.60741,1.03239 2.6075,1.03241 2.88682,0.86122 2.88683,0.86124 2.14178,0.53742 2.14186,0.53743 2.88683,0.56067 2.88682,0.56068 2.70053,0.37106 2.7006,0.37106 2.51431,0.20313 2.51438,0.20314 0.83807,0.0557 0.83816,0.0557 3.91112,0.0307 3.9112,0.0307 2.7006,-0.18479 z M 86.046935,276.23612 v -73.6605 h -18.99718 -18.9971 v 73.6605 73.6605 h 18.9971 18.99718 z m 216.977295,60.48356 1.6e-4,-13.17694 0.27519,-17.13468 0.27526,-17.13468 0.19295,-8.19485 0.19294,-8.19485 0.18279,-5.12177 0.1827,-5.12178 0.1981,-4.3768 0.19803,-4.37679 0.25869,-1.76934 0.25862,-1.76934 0.48776,-1.67622 0.48775,-1.67622 0.608,-1.40361 0.60799,-1.40362 0.7832,-1.34103 0.78319,-1.34103 1.10342,-1.46436 1.10341,-1.46435 1.68014,-1.59889 1.68021,-1.59888 1.83102,-1.21896 1.83103,-1.21897 1.38509,-0.6396 1.38509,-0.63961 1.95556,-0.73286 1.95556,-0.73286 1.86245,-0.48098 1.86253,-0.481 1.33936,-0.19921 1.33943,-0.19922 h 2.50078 2.50086 l 1.59109,0.27747 1.59117,0.27747 1.36664,0.48796 1.36664,0.48796 1.39682,0.72469 1.3969,0.72469 1.22795,0.92406 1.22795,0.92406 1.22819,1.30188 1.22811,1.30188 0.96918,1.43624 0.9691,1.43624 0.8,1.69226 0.80001,1.69227 0.48541,1.48996 0.48533,1.48997 0.44578,2.23497 0.44577,2.23495 0.29489,2.88682 0.29489,2.88682 0.20843,2.32809 0.2085,2.32808 0.14533,43.58169 0.14534,43.58169 0.15479,1.11748 0.15479,1.11747 h 19.27652 19.27651 l 0.051,-35.66621 0.051,-35.66621 -0.1866,-13.96849 -0.1866,-13.96849 -0.2844,-4.09742 -0.2842,-4.09743 -0.287,-2.97994 -0.287,-2.97995 -0.3696,-2.32807 -0.3696,-2.32809 -0.5425,-2.14183 -0.5425,-2.14184 -0.6495,-1.86246 -0.6493,-1.86247 -0.669,-1.56221 -0.669,-1.56222 -1.0067,-1.79371 -1.00683,-1.79372 -1.17768,-1.66246 -1.17776,-1.66244 -2.23239,-2.31422 -2.23239,-2.31422 -1.91046,-1.43439 -1.91037,-1.43439 -1.95838,-1.1666 -1.95845,-1.1666 -2.09362,-0.9404 -2.09363,-0.94041 -3.57581,-1.18606 -3.57574,-1.18604 -1.9185,-0.46705 -1.91851,-0.46706 -2.06313,-0.36071 -2.06314,-0.3607 -2.49992,-0.2214 -2.49984,-0.22138 -3.63179,0.10708 -3.63187,0.10707 -2.42119,0.37079 -2.42119,0.3708 -1.86245,0.40535 -1.86245,0.40535 -2.88683,0.93346 -2.88682,0.93345 -2.43793,1.06829 -2.43792,1.06828 -1.87981,1.05504 -1.87972,1.05504 -1.92156,1.26849 -1.92163,1.2685 -1.95556,1.55959 -1.95556,1.5596 -4.84247,4.68721 -4.84238,4.68722 -0.37245,0.41638 -0.37252,0.41638 -0.0931,-9.37855 -0.0931,-9.37853 -17.8331,-0.0475 -17.8331,-0.0475 v 73.75456 73.75456 h 19.27651 19.27652 z m 161.01009,-60.48356 v -73.56738 l -18.9506,-0.0474 -18.95059,-0.0475 v 73.66227 73.66227 l 18.95059,-0.0475 18.9506,-0.0474 z m 0,-113.14477 V 146.0498 l -18.9506,-0.0475 -18.95059,-0.0474 v 17.13645 17.13645 l 18.95059,-0.0475 18.9506,-0.0474 z M 86.046935,162.90511 v -17.13469 h -18.99718 -18.9971 v 17.13469 17.13468 h 18.9971 18.99718 z"
       id="path248" />
  </g>
</svg>
