<?xml version="1.0" encoding="UTF-8" standalone="no"?>
<svg
   sodipodi:docname="isni-square.svg"
   inkscape:version="1.2.2 (1:1.2.2+202212051550+b0a8486541)"
   id="svg8"
   version="1.1"
   viewBox="0 0 448 512"
   height="512"
   width="448"
   xmlns:inkscape="http://www.inkscape.org/namespaces/inkscape"
   xmlns:sodipodi="http://sodipodi.sourceforge.net/DTD/sodipodi-0.dtd"
   xmlns="http://www.w3.org/2000/svg"
   xmlns:svg="http://www.w3.org/2000/svg"
   xmlns:rdf="http://www.w3.org/1999/02/22-rdf-syntax-ns#"
   xmlns:cc="http://creativecommons.org/ns#"
   xmlns:dc="http://purl.org/dc/elements/1.1/">
  <title
     id="title871">ISNI</title>
  <defs
     id="defs2" />
  <sodipodi:namedview
     inkscape:window-maximized="1"
     inkscape:window-y="0"
     inkscape:window-x="1992"
     inkscape:window-height="1403"
     inkscape:window-width="2488"
     inkscape:guide-bbox="true"
     showguides="true"
     units="px"
     showgrid="true"
     inkscape:document-rotation="0"
     inkscape:current-layer="layer6"
     inkscape:document-units="px"
     inkscape:cy="256"
     inkscape:cx="224.66667"
     inkscape:zoom="0.75"
     inkscape:pageshadow="2"
     inkscape:pageopacity="0.0"
     borderopacity="1.0"
     bordercolor="#666666"
     pagecolor="#ffffff"
     id="base"
     inkscape:showpageshadow="2"
     inkscape:pagecheckerboard="0"
     inkscape:deskcolor="#d1d1d1">
    <inkscape:grid
       empspacing="4"
       id="grid10"
       type="xygrid" />
    <sodipodi:guide
       inkscape:color="rgb(0,0,255)"
       inkscape:locked="false"
       inkscape:label="baseline"
       id="guide836"
       orientation="0,1"
       position="448,64" />
  </sodipodi:namedview>
  <metadata
     id="metadata5">
    <rdf:RDF>
      <cc:Work
         rdf:about="">
        <dc:format>image/svg+xml</dc:format>
        <dc:type
           rdf:resource="http://purl.org/dc/dcmitype/StillImage" />
        <cc:license
           rdf:resource="http://scripts.sil.org/OFL" />
        <dc:subject>
          <rdf:Bag>
            <rdf:li>ISNI</rdf:li>
          </rdf:Bag>
        </dc:subject>
        <dc:title>ISNI</dc:title>
      </cc:Work>
      <cc:License
         rdf:about="http://scripts.sil.org/OFL">
        <cc:permits
           rdf:resource="http://scripts.sil.org/pub/OFL/Reproduction" />
        <cc:permits
           rdf:resource="http://scripts.sil.org/pub/OFL/Distribution" />
        <cc:permits
           rdf:resource="http://scripts.sil.org/pub/OFL/Embedding" />
        <cc:permits
           rdf:resource="http://scripts.sil.org/pub/OFL/DerivativeWorks" />
        <cc:requires
           rdf:resource="http://scripts.sil.org/pub/OFL/Notice" />
        <cc:requires
           rdf:resource="http://scripts.sil.org/pub/OFL/Attribution" />
        <cc:requires
           rdf:resource="http://scripts.sil.org/pub/OFL/ShareAlike" />
        <cc:requires
           rdf:resource="http://scripts.sil.org/pub/OFL/DerivativeRenaming" />
        <cc:requires
           rdf:resource="http://scripts.sil.org/pub/OFL/BundlingWhenSelling" />
      </cc:License>
    </rdf:RDF>
  </metadata>
  <g
     inkscape:label="icon"
     id="layer6"
     inkscape:groupmode="layer">
    <path
       id="path2"
       d="M 48 32 C 21.500027 32 0 53.500027 0 80 L 0 432 C 0 458.49997 21.500027 480 48 480 L 400 480 C 426.49997 480 448 458.49997 448 432 L 448 80 C 448 53.500027 426.49997 32 400 32 L 48 32 z M 358.81641 159.16016 L 361.16016 159.28516 L 363.50195 159.4082 L 365.00391 159.6543 L 366.50586 159.89844 L 367.87891 160.25586 L 369.25 160.61328 L 370.64258 161.16602 L 372.0332 161.71875 L 372.93555 162.20703 L 373.83594 162.69531 L 374.85742 163.39258 L 375.87891 164.08984 L 376.76367 164.85938 L 377.65039 165.62891 L 378.42383 166.51562 L 379.19727 167.40039 L 379.96289 168.54297 L 380.73047 169.68359 L 381.44727 171.18555 L 382.16602 172.6875 L 382.47266 173.5957 L 382.7793 174.50391 L 383.07812 175.69922 L 383.37695 176.89453 L 383.56055 177.97461 L 383.74219 179.05664 L 383.87109 180.43945 L 384 181.82031 L 383.96289 256.98047 L 383.92578 332.13867 L 383.70312 333.46094 L 383.48242 334.7832 L 383.08984 336.3457 L 382.69727 337.90625 L 382.24805 339.10938 L 381.79688 340.31055 L 381.2793 341.34375 L 380.76172 342.375 L 379.89062 343.68555 L 379.02148 344.99609 L 377.57031 346.43945 L 376.11914 347.88281 L 375.03711 348.61523 L 373.95703 349.34766 L 373.05469 349.83789 L 372.1543 350.32812 L 370.82031 350.87109 L 369.48828 351.41602 L 367.85156 351.8457 L 366.21289 352.27734 L 364.67773 352.53516 L 363.14258 352.79492 L 224.59766 352.81836 L 86.054688 352.83984 L 84.613281 352.68164 L 83.171875 352.52539 L 81.642578 352.21484 L 80.115234 351.90625 L 78.65625 351.42578 L 77.197266 350.94727 L 75.849609 350.29492 L 74.501953 349.64258 L 73.189453 348.76562 L 71.876953 347.89062 L 70.425781 346.44336 L 68.974609 344.99609 L 68.103516 343.68555 L 67.234375 342.375 L 66.716797 341.3418 L 66.199219 340.31055 L 65.748047 339.10742 L 65.298828 337.90625 L 64.90625 336.34375 L 64.513672 334.7832 L 64.292969 333.46094 L 64.070312 332.13867 L 64.035156 256.79883 L 64 181.45898 L 64.191406 179.77734 L 64.380859 178.0957 L 64.681641 176.67188 L 64.980469 175.24805 L 65.416016 173.91016 L 65.853516 172.57031 L 66.730469 170.82617 L 67.609375 169.08398 L 68.421875 167.94922 L 69.232422 166.81641 L 70.380859 165.66602 L 71.529297 164.51758 L 72.634766 163.73633 L 73.740234 162.95508 L 74.550781 162.48828 L 75.361328 162.02344 L 76.742188 161.42578 L 78.123047 160.83008 L 79.517578 160.42969 L 80.910156 160.02734 L 81.919922 159.83594 L 82.931641 159.64258 L 84.373047 159.44141 L 85.814453 159.23828 L 222.31641 159.19922 L 358.81641 159.16016 z M 89.839844 184.88477 L 89.839844 195.93945 L 89.839844 206.99414 L 102.0957 206.99414 L 114.35352 206.99414 L 114.35352 195.93945 L 114.35352 184.88477 L 102.0957 184.88477 L 89.839844 184.88477 z M 333.76367 185.00391 L 333.76367 196.05859 L 333.76367 207.11523 L 345.99023 207.08398 L 358.21484 207.05273 L 358.21484 196.05859 L 358.21484 185.06445 L 345.99023 185.0332 L 333.76367 185.00391 z M 166.20117 217.92773 L 164.57812 218.04883 L 162.95703 218.16992 L 161.45312 218.35938 L 159.95117 218.54688 L 158.33008 218.8418 L 156.70703 219.13672 L 154.76758 219.61328 L 152.82812 220.08984 L 151.10352 220.64258 L 149.37891 221.19531 L 147.39453 221.97656 L 145.41211 222.75977 L 143.85156 223.50586 L 142.28906 224.25195 L 141.14844 224.94922 L 140.00781 225.64453 L 138.92578 226.46094 L 137.84375 227.27539 L 136.85547 228.19727 L 135.86719 229.11719 L 134.9668 230.18945 L 134.06641 231.26172 L 133.48047 232.13477 L 132.89258 233.00781 L 132.3418 233.97852 L 131.79297 234.94922 L 131.25781 236.20117 L 130.72461 237.45312 L 130.33789 238.6543 L 129.95312 239.85742 L 129.66797 241.11914 L 129.38281 242.38086 L 129.17383 243.88281 L 128.96484 245.38477 L 128.95703 248.50781 L 128.95117 251.63281 L 129.10547 252.71289 L 129.25977 253.79492 L 129.55859 255.05664 L 129.85742 256.31836 L 130.23242 257.46094 L 130.60742 258.60156 L 131.12305 259.77344 L 131.64062 260.94727 L 132.33008 262.11523 L 133.01758 263.28516 L 133.44141 263.88672 L 133.86719 264.49023 L 134.58984 265.39062 L 135.3125 266.29102 L 136.33594 267.32031 L 137.36133 268.34766 L 138.32227 269.11328 L 139.2832 269.87695 L 140.36523 270.58984 L 141.44727 271.30273 L 142.64844 271.91016 L 143.84961 272.51758 L 144.93164 272.96094 L 146.01367 273.4043 L 147.93555 274.1875 L 149.85742 274.9707 L 151.83984 275.6543 L 153.82227 276.33984 L 158.20898 277.58594 L 162.5957 278.83203 L 171.00586 281.14062 L 179.41797 283.44727 L 181.12695 283.91016 L 182.83789 284.37109 L 183.5918 284.75 L 184.34375 285.13086 L 185.1875 285.98438 L 186.0332 286.83984 L 186.41602 287.57031 L 186.79883 288.30078 L 186.98242 289.00781 L 187.16797 289.71289 L 187.16797 291.04492 L 187.16797 292.375 L 186.98633 293.0918 L 186.80469 293.80859 L 186.33008 294.76953 L 185.85742 295.73047 L 185.28125 296.41602 L 184.70312 297.10156 L 184.10352 297.56641 L 183.50195 298.03125 L 182.78125 298.46094 L 182.06055 298.88867 L 181.21875 299.30664 L 180.37891 299.72266 L 179.25781 300.16406 L 178.13672 300.60547 L 176.7207 300.95117 L 175.30664 301.29688 L 174.14453 301.44336 L 172.98242 301.58984 L 170.61133 301.52539 L 168.24219 301.46094 L 166.85352 301.16016 L 165.46289 300.85742 L 164.26953 300.46289 L 163.07617 300.06836 L 161.33398 299.19141 L 159.5918 298.31445 L 158.45508 297.50391 L 157.31836 296.69141 L 156.08594 295.50977 L 154.85547 294.32812 L 154.20312 293.52734 L 153.54883 292.72656 L 152.87891 291.72266 L 152.20898 290.71875 L 151.5293 289.37891 L 150.85156 288.04102 L 150.29492 287.46094 L 149.73828 286.87891 L 149.29102 286.64844 L 148.8457 286.41797 L 148.45117 286.41797 L 148.05469 286.41797 L 145.36328 286.7832 L 142.67188 287.14648 L 139.47656 287.61328 L 136.2793 288.08008 L 130.90234 288.89453 L 125.52539 289.71094 L 125.52539 289.89648 L 125.52539 290.08398 L 126.30078 292.38086 L 127.07422 294.67773 L 127.80469 296.3457 L 128.53516 298.01367 L 129.39062 299.57617 L 130.24414 301.13867 L 131.00586 302.29688 L 131.76758 303.45508 L 132.72461 304.68359 L 133.68164 305.91406 L 134.7793 307.10156 L 135.87695 308.28711 L 137.2207 309.44336 L 138.5625 310.59961 L 139.70508 311.41211 L 140.8457 312.22656 L 141.97266 312.9082 L 143.09961 313.58789 L 144.49609 314.28711 L 145.89258 314.98828 L 147.57422 315.6543 L 149.25781 316.32031 L 151.11914 316.875 L 152.98242 317.43164 L 154.36328 317.77734 L 155.74609 318.125 L 157.60742 318.48633 L 159.4707 318.84766 L 161.21289 319.08789 L 162.95508 319.32617 L 164.57812 319.45703 L 166.19922 319.58789 L 166.74023 319.625 L 167.28125 319.66016 L 169.80469 319.67969 L 172.32812 319.69922 L 174.07031 319.58008 L 174.07227 319.58203 L 175.81445 319.46094 L 177.43555 319.27539 L 179.05859 319.08984 L 180.83984 318.79492 L 182.62109 318.49805 L 183.72266 318.25391 L 184.82617 318.01172 L 186.68945 317.5332 L 188.55078 317.05469 L 190.05273 316.56055 L 191.55469 316.06836 L 193.02734 315.43359 L 194.5 314.79883 L 195.91016 313.99219 L 197.32227 313.18555 L 198.48047 312.38867 L 199.63867 311.5918 L 200.82422 310.61133 L 202.00977 309.63281 L 203.33789 308.26953 L 204.66602 306.90625 L 205.64844 305.66992 L 206.63086 304.43359 L 207.5625 303.02734 L 208.49609 301.61914 L 209.3457 299.93555 L 210.19531 298.25391 L 210.74609 296.75195 L 211.29688 295.25 L 211.66406 293.7832 L 212.0332 292.31641 L 212.24414 290.95898 L 212.45508 289.60352 L 212.45508 287.13867 L 212.45508 284.67578 L 212.24023 283.35547 L 212.02344 282.0332 L 211.73438 280.88281 L 211.44727 279.73047 L 211.01367 278.48633 L 210.58008 277.24219 L 210.0625 276.13281 L 209.54297 275.02344 L 208.88281 273.90234 L 208.2207 272.78125 L 207.32031 271.57422 L 206.41797 270.36523 L 205.24219 269.12891 L 204.06641 267.89258 L 202.91602 266.93359 L 201.76758 265.97266 L 200.32617 265.00781 L 198.88281 264.04297 L 196.96094 263.10547 L 195.03906 262.16602 L 192.1543 261.08594 L 189.27148 260.00586 L 186.92773 259.22266 L 184.58398 258.44141 L 182.36133 257.78125 L 180.13867 257.12305 L 177.67578 256.39648 L 175.21289 255.66992 L 169.92578 254.15625 L 164.63867 252.64258 L 162.35547 251.93164 L 160.07227 251.22266 L 158.26953 250.60938 L 156.4668 249.99805 L 155.83398 249.61719 L 155.20117 249.23633 L 154.58594 248.63086 L 153.97266 248.02734 L 153.56836 247.4043 L 153.16602 246.78125 L 152.92383 246.16602 L 152.67969 245.55078 L 152.56445 245.03125 L 152.44727 244.51172 L 152.62695 243.80664 L 152.80664 243.10156 L 153.24219 242.20898 L 153.67773 241.31641 L 154.5918 240.39844 L 155.50586 239.48047 L 156.07422 239.1543 L 156.64453 238.82812 L 157.91016 238.5957 L 159.17578 238.36328 L 160.88477 238.12305 L 162.5957 237.88477 L 164.69922 237.69727 L 166.80078 237.51172 L 169.80469 237.43945 L 172.80859 237.36523 L 174.13086 237.49609 L 175.45312 237.62695 L 176.23438 237.82031 L 177.01562 238.01367 L 178.33594 238.65625 L 179.6582 239.29883 L 180.61914 240.07617 L 181.58008 240.85547 L 182.04688 241.41797 L 182.51172 241.98047 L 183.14062 242.98438 L 183.77148 243.98828 L 184.22461 245.22656 L 184.67578 246.46484 L 184.91016 246.92773 L 185.14258 247.39062 L 185.64453 247.9375 L 186.14648 248.48633 L 186.66211 248.71484 L 187.17578 248.94336 L 187.93164 248.94336 L 188.68555 248.94336 L 189.63867 248.69531 L 190.58984 248.44531 L 191.67383 248.31055 L 192.75586 248.17773 L 200.68555 246.87109 L 208.61719 245.56445 L 208.88867 245.50195 L 209.16016 245.43945 L 209.08398 245.11133 L 209.00781 244.7832 L 208.19336 242.32031 L 207.37891 239.85742 L 206.74219 238.35547 L 206.10547 236.85352 L 205.40234 235.48633 L 204.70117 234.11914 L 203.99805 233.00195 L 203.29688 231.88477 L 202.61523 230.97852 L 201.93164 230.07227 L 201.09766 229.1543 L 200.26367 228.23633 L 199.28711 227.35156 L 198.30859 226.46875 L 197.21484 225.68164 L 196.11914 224.89648 L 193.95703 223.82227 L 191.79492 222.75 L 189.8125 221.97266 L 187.82812 221.19531 L 186.10352 220.64258 L 184.37891 220.08984 L 182.43945 219.61328 L 180.5 219.13672 L 178.87695 218.8418 L 177.25586 218.54688 L 175.75391 218.35938 L 174.25195 218.16992 L 172.62891 218.04883 L 171.00586 217.92773 L 168.60352 217.92773 L 166.20117 217.92773 z M 283.83789 218.25586 L 281.49414 218.32422 L 279.15039 218.39453 L 277.58984 218.63281 L 276.02734 218.87305 L 274.82617 219.13477 L 273.62305 219.39453 L 271.76172 219.99805 L 269.89844 220.59961 L 268.32617 221.28906 L 266.75391 221.97852 L 265.54102 222.6582 L 264.32812 223.33984 L 263.08789 224.1582 L 261.84766 224.97656 L 260.58594 225.98242 L 259.32422 226.98828 L 256.20117 230.01367 L 253.07617 233.03711 L 252.83594 233.30469 L 252.5957 233.57422 L 252.53516 227.52344 L 252.47656 221.47266 L 240.9707 221.44141 L 229.46484 221.41211 L 229.46484 268.99414 L 229.46484 316.57812 L 241.90234 316.57812 L 254.33789 316.57812 L 254.33789 308.07812 L 254.33789 299.57617 L 254.51562 288.52148 L 254.69336 277.4668 L 254.81836 272.17969 L 254.94336 266.89258 L 255.06055 263.58789 L 255.17773 260.2832 L 255.30664 257.46094 L 255.43359 254.63672 L 255.60156 253.49414 L 255.76758 252.35352 L 256.08203 251.27148 L 256.39648 250.19141 L 256.78906 249.28516 L 257.18164 248.37891 L 257.6875 247.51367 L 258.19141 246.64844 L 258.9043 245.70508 L 259.61523 244.75977 L 260.69922 243.72852 L 261.7832 242.69727 L 262.96484 241.91016 L 264.14648 241.12305 L 265.03906 240.71094 L 265.93359 240.29883 L 267.19531 239.82617 L 268.45703 239.35352 L 269.6582 239.04297 L 270.85938 238.73242 L 271.72461 238.60352 L 272.58789 238.47461 L 274.20117 238.47461 L 275.81445 238.47461 L 276.8418 238.6543 L 277.86914 238.83398 L 278.75 239.14844 L 279.63086 239.46289 L 280.5332 239.92969 L 281.43359 240.39844 L 282.22656 240.99414 L 283.01758 241.58984 L 283.81055 242.42969 L 284.60352 243.26953 L 285.22852 244.19727 L 285.85352 245.12305 L 286.36914 246.21484 L 286.88672 247.30664 L 287.19922 248.26758 L 287.51172 249.22852 L 287.80078 250.67188 L 288.08789 252.11328 L 288.27734 253.97656 L 288.46875 255.83789 L 288.60156 257.33984 L 288.73633 258.8418 L 288.83008 286.95898 L 288.92383 315.07617 L 289.02539 315.79688 L 289.125 316.51758 L 301.56055 316.51758 L 313.99805 316.51758 L 314.0293 293.50781 L 314.0625 270.49805 L 313.94336 261.48633 L 313.82227 252.47461 L 313.63867 249.83008 L 313.45508 247.1875 L 313.26953 245.26367 L 313.08594 243.3418 L 312.8457 241.83984 L 312.60742 240.33789 L 312.25781 238.95508 L 311.9082 237.57422 L 311.48828 236.37305 L 311.07031 235.16992 L 310.63867 234.16211 L 310.20703 233.1543 L 309.55664 231.99805 L 308.9082 230.83984 L 308.14844 229.76758 L 307.38867 228.69531 L 305.94727 227.20312 L 304.50781 225.70898 L 303.27539 224.7832 L 302.04297 223.85938 L 300.7793 223.10547 L 299.51562 222.35352 L 298.16602 221.74609 L 296.81445 221.14062 L 294.50781 220.375 L 292.20117 219.60938 L 290.96289 219.30859 L 289.72461 219.00586 L 288.39453 218.77344 L 287.0625 218.54102 L 285.44922 218.39844 L 283.83789 218.25586 z M 333.76367 221.53125 L 333.76367 269.05469 L 333.76367 316.58008 L 345.99023 316.54883 L 358.21484 316.51758 L 358.21484 269.05469 L 358.21484 221.59375 L 345.99023 221.5625 L 333.76367 221.53125 z M 89.839844 221.5332 L 89.839844 269.05469 L 89.839844 316.57812 L 102.0957 316.57812 L 114.35352 316.57812 L 114.35352 269.05469 L 114.35352 221.5332 L 102.0957 221.5332 L 89.839844 221.5332 z " />
  </g>
</svg>
