<?xml version="1.0" encoding="UTF-8" standalone="no"?>
<svg
   xmlns:dc="http://purl.org/dc/elements/1.1/"
   xmlns:cc="http://creativecommons.org/ns#"
   xmlns:rdf="http://www.w3.org/1999/02/22-rdf-syntax-ns#"
   xmlns:svg="http://www.w3.org/2000/svg"
   xmlns="http://www.w3.org/2000/svg"
   xmlns:sodipodi="http://sodipodi.sourceforge.net/DTD/sodipodi-0.dtd"
   xmlns:inkscape="http://www.inkscape.org/namespaces/inkscape"
   width="448"
   height="512"
   viewBox="0 0 448 512"
   version="1.1"
   id="svg8"
   inkscape:version="1.0 (1.0+r73+1)"
   sodipodi:docname="lattes-square.svg">
  <title
     id="title839">Plataforma Lattes</title>
  <defs
     id="defs2" />
  <sodipodi:namedview
     id="base"
     pagecolor="#ffffff"
     bordercolor="#666666"
     borderopacity="1.0"
     inkscape:pageopacity="0.0"
     inkscape:pageshadow="2"
     inkscape:zoom="0.75"
     inkscape:cx="224"
     inkscape:cy="256"
     inkscape:document-units="px"
     inkscape:current-layer="layer6"
     inkscape:document-rotation="0"
     showgrid="true"
     units="px"
     showguides="true"
     inkscape:guide-bbox="true"
     inkscape:window-width="1315"
     inkscape:window-height="713"
     inkscape:window-x="51"
     inkscape:window-y="27"
     inkscape:window-maximized="1">
    <inkscape:grid
       type="xygrid"
       id="grid10"
       empspacing="4" />
    <sodipodi:guide
       position="448,416"
       orientation="0,1"
       id="guide832"
       inkscape:label=""
       inkscape:locked="true"
       inkscape:color="rgb(0,0,255)" />
    <sodipodi:guide
       position="448,96"
       orientation="0,1"
       id="guide834"
       inkscape:label=""
       inkscape:locked="true"
       inkscape:color="rgb(0,0,255)" />
    <sodipodi:guide
       position="448,64"
       orientation="0,1"
       id="guide836"
       inkscape:label="baseline"
       inkscape:locked="true"
       inkscape:color="rgb(0,0,255)" />
    <sodipodi:guide
       id="guide835"
       orientation="1,0"
       position="64,512" />
    <sodipodi:guide
       id="guide837"
       orientation="1,0"
       position="384,512" />
  </sodipodi:namedview>
  <metadata
     id="metadata5">
    <rdf:RDF>
      <cc:Work
         rdf:about="">
        <dc:format>image/svg+xml</dc:format>
        <dc:type
           rdf:resource="http://purl.org/dc/dcmitype/StillImage" />
        <dc:title>Plataforma Lattes</dc:title>
        <cc:license
           rdf:resource="http://scripts.sil.org/OFL" />
        <dc:subject>
          <rdf:Bag>
            <rdf:li>Plataforma Lattes</rdf:li>
          </rdf:Bag>
        </dc:subject>
      </cc:Work>
      <cc:License
         rdf:about="http://scripts.sil.org/OFL">
        <cc:permits
           rdf:resource="http://scripts.sil.org/pub/OFL/Reproduction" />
        <cc:permits
           rdf:resource="http://scripts.sil.org/pub/OFL/Distribution" />
        <cc:permits
           rdf:resource="http://scripts.sil.org/pub/OFL/Embedding" />
        <cc:permits
           rdf:resource="http://scripts.sil.org/pub/OFL/DerivativeWorks" />
        <cc:requires
           rdf:resource="http://scripts.sil.org/pub/OFL/Notice" />
        <cc:requires
           rdf:resource="http://scripts.sil.org/pub/OFL/Attribution" />
        <cc:requires
           rdf:resource="http://scripts.sil.org/pub/OFL/ShareAlike" />
        <cc:requires
           rdf:resource="http://scripts.sil.org/pub/OFL/DerivativeRenaming" />
        <cc:requires
           rdf:resource="http://scripts.sil.org/pub/OFL/BundlingWhenSelling" />
      </cc:License>
    </rdf:RDF>
  </metadata>
  <g
     inkscape:groupmode="layer"
     id="layer6"
     inkscape:label="icon">
    <path
       id="path2"
       d="M 48 32 C 21.5 32 0 53.5 0 80 L 0 432 C 0 458.5 21.5 480 48 480 L 400 480 C 426.5 480 448 458.5 448 432 L 448 80 C 448 53.5 426.5 32 400 32 L 48 32 z M 186.25781 96 C 217.87062 96.0622 253.98328 102.76751 291.98438 116.27344 C 307.23086 121.69878 313.2844 125.46653 310.48438 127.81445 C 308.41246 129.54766 294.36917 129.52214 270.10547 127.73828 C 232.1761 124.95031 203.30451 130.22509 188.42188 142.68359 C 165.76452 161.64773 169.21805 203.22033 198.44336 263.18945 C 201.60866 269.68268 204.79818 276.03654 205.52734 277.33008 C 207.22339 280.30617 205.99304 283.07018 203.04102 282.93164 C 201.78357 282.87144 173.47486 279.29406 140.13086 274.97266 C 106.78577 270.65271 78.8041 266.89514 77.9375 266.61914 C 76.45622 266.1419 71.155576 248.45977 68.166016 234.06641 C 67.412776 230.42386 66.307728 220.77787 65.705078 212.61523 C 63.015928 176.1927 70.940424 151.01303 92.177734 128.36914 C 112.40373 106.82245 145.61278 95.920029 186.25781 96 z M 234.23242 154.44531 C 246.2097 154.47836 259.75493 157.12268 270.74414 162.0293 C 287.43473 169.47735 302.23039 182.57724 307.73047 194.75977 C 314.78918 210.39563 308.9105 227.83932 293.78906 236.16602 C 283.76633 241.67924 264.28842 244.55653 251.98047 242.3457 L 251.99414 242.3457 L 251.99414 242.34375 C 225.38071 237.55859 201.45646 221.05559 193.73242 202.17969 C 190.02716 193.1118 190.20248 181.28198 194.1582 174.19922 C 197.73804 167.79387 206.98068 160.38385 215.25781 157.28125 C 220.42427 155.34572 227.04605 154.42548 234.23242 154.44531 z M 321.69922 162.02734 C 327.62732 161.32477 356.88806 189.73302 367.66406 206.65039 C 386.23881 235.82501 387.74753 267.3863 372.02344 297.90625 C 362.3649 316.65671 351.69057 329.62945 333.81836 344.375 C 304.11581 368.86546 269.59069 385.92011 221.91602 399.66016 C 196.3081 407.04552 154.89903 416 146.37109 416 C 144.56313 416 141.1724 410.07184 130.59766 388.38281 L 130.57227 388.39453 C 96.248268 318.06253 75.826172 275.58757 75.826172 274.5332 C 75.826172 272.81308 77.924265 273.05178 98.546875 277.0957 C 134.81739 284.21711 154.19529 286.22624 186.49805 286.23828 C 229.23662 286.25008 264.04005 279.48234 291.08008 265.88086 C 305.38521 258.68473 313.98763 252.30346 321.0332 243.66211 C 329.71173 233.01157 332.49935 225.67753 332.59961 213.33203 C 332.68751 201.58953 331.10488 195.3975 324.31055 181.0293 C 321.62247 175.35202 319.26047 168.83548 319.03516 166.54883 C 318.68335 162.86872 318.98598 162.3405 321.69922 162.02734 z " />
  </g>
</svg>
