<?xml version="1.0" encoding="UTF-8" standalone="no"?>
<svg
   xmlns:dc="http://purl.org/dc/elements/1.1/"
   xmlns:cc="http://creativecommons.org/ns#"
   xmlns:rdf="http://www.w3.org/1999/02/22-rdf-syntax-ns#"
   xmlns:svg="http://www.w3.org/2000/svg"
   xmlns="http://www.w3.org/2000/svg"
   xmlns:sodipodi="http://sodipodi.sourceforge.net/DTD/sodipodi-0.dtd"
   xmlns:inkscape="http://www.inkscape.org/namespaces/inkscape"
   sodipodi:docname="template-square.svg"
   inkscape:version="1.0 (1.0+r73+1)"
   id="svg8"
   version="1.1"
   viewBox="0 0 448 512"
   height="512"
   width="448">
  <title
     id="title1024">MathOverflow</title>
  <defs
     id="defs2" />
  <sodipodi:namedview
     inkscape:window-maximized="1"
     inkscape:window-y="27"
     inkscape:window-x="51"
     inkscape:window-height="713"
     inkscape:window-width="1315"
     inkscape:guide-bbox="true"
     showguides="true"
     units="px"
     showgrid="true"
     inkscape:document-rotation="0"
     inkscape:current-layer="layer6"
     inkscape:document-units="px"
     inkscape:cy="256"
     inkscape:cx="203.33333"
     inkscape:zoom="0.75"
     inkscape:pageshadow="2"
     inkscape:pageopacity="0.0"
     borderopacity="1.0"
     bordercolor="#666666"
     pagecolor="#ffffff"
     id="base">
    <inkscape:grid
       empspacing="4"
       id="grid10"
       type="xygrid" />
    <sodipodi:guide
       inkscape:color="rgb(0,0,255)"
       inkscape:locked="true"
       inkscape:label=""
       id="guide832"
       orientation="0,1"
       position="448,416" />
    <sodipodi:guide
       inkscape:color="rgb(0,0,255)"
       inkscape:locked="true"
       inkscape:label=""
       id="guide834"
       orientation="0,1"
       position="448,96" />
    <sodipodi:guide
       inkscape:color="rgb(0,0,255)"
       inkscape:locked="true"
       inkscape:label="baseline"
       id="guide836"
       orientation="0,1"
       position="448,64" />
    <sodipodi:guide
       position="64,512"
       orientation="1,0"
       id="guide835" />
    <sodipodi:guide
       position="384,512"
       orientation="1,0"
       id="guide837" />
  </sodipodi:namedview>
  <metadata
     id="metadata5">
    <rdf:RDF>
      <cc:Work
         rdf:about="">
        <dc:format>image/svg+xml</dc:format>
        <dc:type
           rdf:resource="http://purl.org/dc/dcmitype/StillImage" />
        <dc:title>MathOverflow</dc:title>
        <cc:license
           rdf:resource="http://scripts.sil.org/OFL" />
        <dc:subject>
          <rdf:Bag>
            <rdf:li>MathOverflow</rdf:li>
          </rdf:Bag>
        </dc:subject>
      </cc:Work>
      <cc:License
         rdf:about="http://scripts.sil.org/OFL">
        <cc:permits
           rdf:resource="http://scripts.sil.org/pub/OFL/Reproduction" />
        <cc:permits
           rdf:resource="http://scripts.sil.org/pub/OFL/Distribution" />
        <cc:permits
           rdf:resource="http://scripts.sil.org/pub/OFL/Embedding" />
        <cc:permits
           rdf:resource="http://scripts.sil.org/pub/OFL/DerivativeWorks" />
        <cc:requires
           rdf:resource="http://scripts.sil.org/pub/OFL/Notice" />
        <cc:requires
           rdf:resource="http://scripts.sil.org/pub/OFL/Attribution" />
        <cc:requires
           rdf:resource="http://scripts.sil.org/pub/OFL/ShareAlike" />
        <cc:requires
           rdf:resource="http://scripts.sil.org/pub/OFL/DerivativeRenaming" />
        <cc:requires
           rdf:resource="http://scripts.sil.org/pub/OFL/BundlingWhenSelling" />
      </cc:License>
    </rdf:RDF>
  </metadata>
  <g
     inkscape:label="icon"
     id="layer6"
     inkscape:groupmode="layer">
    <path
       d="M 48 32 C 21.5 32 0 53.5 0 80 L 0 432 C 0 458.5 21.5 480 48 480 L 400 480 C 426.5 480 448 458.5 448 432 L 448 80 C 448 53.5 426.5 32 400 32 L 48 32 z M 34.173828 96 L 354.17578 96 L 354.16602 168 L 333.375 168 L 333.375 116.80078 L 53.763672 116.80078 L 53.763672 395.20117 L 333.37305 395.20117 L 333.37305 344 L 354.16602 344 L 354.17383 416 L 34.173828 416 L 34.173828 96 z M 358.875 194.44727 C 394.43192 194.44727 413.82617 211.90144 413.82617 242.28711 C 413.82617 261.68104 399.60198 314.04492 340.12695 314.04492 C 306.51122 314.04492 285.17969 295.94477 285.17969 268.14648 C 285.17969 245.51898 300.04617 194.44727 358.875 194.44727 z M 217.96484 199.75781 C 227.01583 199.75781 234.12628 202.98942 239.29883 208.80859 C 244.47183 214.62602 247.05664 223.0325 247.05664 233.375 L 247.05664 297.375 L 250.93555 301.25195 L 263.21875 302.54492 L 263.21875 310.94922 L 214.08594 310.94922 L 214.08594 302.54492 L 224.42969 301.25195 L 228.30859 297.375 L 228.30859 237.89844 C 228.30859 230.14027 226.37071 224.32374 223.13672 220.44531 C 219.90491 216.56688 214.73133 214.62695 207.62109 214.62695 C 204.38928 214.62695 200.51075 215.27359 195.98438 216.56641 C 191.45978 217.85923 186.93296 219.79716 181.76172 222.38281 L 181.76172 298.01953 L 185.64062 301.89844 L 196.62891 303.19141 L 196.62891 311.59375 L 148.14648 311.59375 L 148.14648 303.19141 L 159.13477 301.89844 L 163.01367 298.01953 L 163.01367 238.54492 C 163.01367 230.78676 161.07382 224.96827 157.83984 221.08984 C 154.60803 217.21142 149.43476 215.27344 142.9707 215.27344 C 139.09226 215.27344 135.21372 215.92007 131.33398 217.21289 C 127.45424 218.5057 122.28288 220.44367 117.75781 223.0293 L 117.75781 298.66602 L 121.63672 302.54492 L 132.625 303.83789 L 132.625 312.24023 L 82.851562 312.24023 L 82.851562 303.83789 L 95.134766 302.54492 L 99.013672 298.66602 L 99.013672 217.21289 L 82.851562 217.21289 L 82.851562 210.10156 L 109.35742 202.34375 L 117.76172 202.34375 L 117.76172 214.62695 C 125.51858 210.10234 132.62983 206.86884 138.44727 204.2832 C 144.26471 202.34419 149.43652 201.05078 153.96289 201.05078 C 159.78032 201.05078 164.30697 202.34405 168.83203 204.92969 C 172.71223 206.8687 176.59036 210.10088 179.17773 215.27344 C 187.58254 210.10219 195.33867 206.22232 201.80273 203.63672 C 208.26678 201.05107 213.43978 199.75781 217.96484 199.75781 z M 358.23047 214.48633 C 330.43173 214.48633 324.61523 265.55773 324.61523 274.60742 C 324.61523 286.89065 331.07967 294.00195 342.06836 294.00195 C 370.51154 294.00195 375.68555 242.28611 375.68555 235.82031 C 376.33172 221.59804 370.51195 214.48633 358.23047 214.48633 z "
       id="path2" />
  </g>
</svg>
