<?xml version="1.0" encoding="utf-8"?>
<!-- Generator: Adobe Illustrator 16.0.0, SVG Export Plug-In . SVG Version: 6.00 Build 0)  -->
<!DOCTYPE svg PUBLIC "-//W3C//DTD SVG 1.1//EN" "http://www.w3.org/Graphics/SVG/1.1/DTD/svg11.dtd" [
	<!ENTITY st0 "fill:#444444;">
]>
<svg version="1.1" id="Layer_1" xmlns="http://www.w3.org/2000/svg" xmlns:xlink="http://www.w3.org/1999/xlink" x="0px" y="0px"
	 width="28px" height="28px" viewBox="0 0 28 28" style="enable-background:new 0 0 28 28;" xml:space="preserve">
<g>
	<g>
		<path style="&st0;" d="M27.978,20.78c-0.134-1.129-0.756-1.958-1.92-2.227c-0.261-0.061-0.539-0.064-0.81-0.059
			c-1.057,0.02-1.7-0.479-1.854-1.523c-0.068-0.458-0.057-0.93-0.024-1.394c0.035-0.483,0.102-0.972,0.227-1.439
			c0.133-0.503,0.254-0.998,0.249-1.521c-0.021-0.258-0.022-0.52-0.062-0.776c-0.251-1.634-1.49-2.927-3.14-3.292
			c-1.596-0.356-3.22,0.309-4.174,1.639c-0.37,0.517-0.828,0.986-1.299,1.417c-0.643,0.577-1.509,0.591-2.19,0.088
			c-0.539-0.397-1.007-0.883-1.38-1.433c-1.264-1.854-3.71-2.374-5.589-1.14c-1.498,0.983-2.039,2.572-1.752,4.337
			c0.081,0.497,0.235,0.979,0.318,1.475c0.118,0.688,0.176,1.385,0.057,2.084c-0.134,0.796-0.561,1.27-1.311,1.42
			c-0.198,0.041-0.408,0.039-0.611,0.049c-0.176,0.012-0.355,0-0.529,0.021c-0.621,0.088-1.104,0.433-1.554,0.843
			c-0.291,0.265-0.469,0.589-0.546,0.965c-0.046,0.229-0.08,0.462-0.082,0.69c-0.008,0.755,0.116,1.474,0.655,2.053
			c0.678,0.729,1.505,1.079,2.498,0.894c1.488-0.275,2.426-1.716,2.091-3.196C5.162,20.395,5,20.057,4.89,19.704
			c-0.239-0.765-0.134-1.457,0.437-2.048c0.285-0.296,0.634-0.501,1.012-0.651c0.885-0.353,1.808-0.421,2.743-0.3
			c0.604,0.078,1.177,0.259,1.69,0.604c0.935,0.626,1.107,1.649,0.607,2.568c-0.646,1.189-0.361,2.646,0.714,3.477
			c0.694,0.536,1.487,0.677,2.338,0.595c2.014-0.193,3.209-2.33,2.189-4.126c-0.427-0.751-0.338-1.652,0.342-2.282
			c0.285-0.265,0.617-0.448,0.979-0.583c0.844-0.317,1.717-0.37,2.603-0.253c0.658,0.088,1.286,0.282,1.834,0.677
			c0.651,0.472,0.977,1.1,0.845,1.907c-0.049,0.304-0.156,0.601-0.269,0.889c-0.212,0.526-0.284,1.066-0.193,1.626
			c0.2,1.229,1.236,2.149,2.5,2.194c1.131,0.039,2.366-0.731,2.636-1.968C27.989,21.617,28.029,21.201,27.978,20.78z M14.013,18.417
			c-1.693,0-2.76-1.385-2.755-2.759c0.004-1.514,1.24-2.727,2.77-2.723c1.515,0.002,2.744,1.23,2.74,2.736
			C16.762,17.04,15.701,18.417,14.013,18.417z"/>
	</g>
</g>
</svg>
