<?xml version="1.0" encoding="utf-8"?>
<!-- Generator: Adobe Illustrator 16.0.0, SVG Export Plug-In . SVG Version: 6.00 Build 0)  -->
<!DOCTYPE svg PUBLIC "-//W3C//DTD SVG 1.1//EN" "http://www.w3.org/Graphics/SVG/1.1/DTD/svg11.dtd" [
	<!ENTITY st0 "fill-rule:evenodd;clip-rule:evenodd;fill:#444444;">
	<!ENTITY st1 "fill:#444444;">
]>
<svg version="1.1" id="Layer_1" xmlns="http://www.w3.org/2000/svg" xmlns:xlink="http://www.w3.org/1999/xlink" x="0px" y="0px"
	 width="28px" height="28px" viewBox="0 0 28 28" style="enable-background:new 0 0 28 28;" xml:space="preserve">
<g>
	<g>
		<path style="&st1;" d="M27.978,20.78c-0.134-1.129-0.757-1.958-1.921-2.227c-0.26-0.061-0.538-0.064-0.809-0.059
			c-1.057,0.02-1.701-0.479-1.854-1.523c-0.068-0.458-0.058-0.93-0.024-1.394c0.034-0.483,0.103-0.972,0.228-1.439
			c0.133-0.503,0.254-0.998,0.248-1.521c-0.021-0.258-0.022-0.52-0.062-0.776c-0.251-1.634-1.489-2.927-3.14-3.292
			c-1.597-0.356-3.221,0.309-4.175,1.639c-0.37,0.517-0.827,0.986-1.3,1.417c-0.643,0.577-1.509,0.591-2.189,0.088
			c-0.539-0.397-1.008-0.883-1.38-1.433c-1.265-1.854-3.71-2.374-5.589-1.14c-1.498,0.983-2.039,2.572-1.752,4.337
			c0.08,0.497,0.234,0.979,0.317,1.475c0.118,0.688,0.177,1.385,0.057,2.084c-0.134,0.796-0.562,1.27-1.311,1.42
			c-0.198,0.041-0.407,0.039-0.611,0.049c-0.176,0.012-0.354,0-0.529,0.021c-0.621,0.088-1.104,0.433-1.554,0.843
			c-0.291,0.265-0.47,0.589-0.547,0.965c-0.045,0.229-0.08,0.462-0.082,0.69c-0.008,0.755,0.116,1.474,0.656,2.053
			c0.678,0.729,1.505,1.079,2.497,0.894c1.487-0.275,2.426-1.716,2.091-3.196C5.162,20.395,5,20.057,4.891,19.704
			c-0.24-0.765-0.135-1.457,0.436-2.048c0.285-0.296,0.635-0.501,1.013-0.651c0.886-0.353,1.808-0.421,2.743-0.3
			c0.604,0.078,1.176,0.259,1.689,0.604c0.936,0.626,1.107,1.649,0.607,2.568c-0.646,1.189-0.36,2.646,0.715,3.477
			c0.693,0.536,1.486,0.677,2.338,0.595c2.014-0.193,3.209-2.33,2.188-4.126c-0.427-0.751-0.339-1.652,0.343-2.282
			c0.284-0.265,0.617-0.448,0.979-0.583c0.844-0.317,1.717-0.37,2.602-0.253c0.658,0.088,1.287,0.282,1.834,0.677
			c0.652,0.472,0.978,1.1,0.846,1.907c-0.049,0.304-0.156,0.601-0.27,0.889c-0.212,0.526-0.283,1.066-0.192,1.626
			c0.2,1.229,1.235,2.149,2.501,2.194c1.131,0.039,2.365-0.731,2.635-1.968C27.989,21.617,28.029,21.201,27.978,20.78z
			 M14.013,18.417c-1.693,0-2.76-1.385-2.755-2.759c0.004-1.514,1.24-2.727,2.77-2.723c1.516,0.002,2.744,1.23,2.74,2.736
			C16.762,17.04,15.701,18.417,14.013,18.417z"/>
	</g>
</g>
</svg>
