<?xml version="1.0" encoding="utf-8"?>
<!-- Generator: Adobe Illustrator 16.0.0, SVG Export Plug-In . SVG Version: 6.00 Build 0)  -->
<!DOCTYPE svg PUBLIC "-//W3C//DTD SVG 1.1//EN" "http://www.w3.org/Graphics/SVG/1.1/DTD/svg11.dtd" [
	<!ENTITY st0 "fill-rule:evenodd;clip-rule:evenodd;fill:#444444;">
	<!ENTITY st1 "fill:#444444;">
]>
<svg version="1.1" id="Layer_1" xmlns="http://www.w3.org/2000/svg" xmlns:xlink="http://www.w3.org/1999/xlink" x="0px" y="0px"
	 width="28px" height="28px" viewBox="0 0 28 28" style="enable-background:new 0 0 28 28;" xml:space="preserve">
<g>
	<g>
		<path style="&st1;" d="M12.02,11.651c-1.093-0.004-1.975,0.862-1.978,1.944c-0.004,0.98,0.758,1.971,1.968,1.971
			c1.206,0,1.964-0.983,1.967-1.961C13.979,12.53,13.102,11.652,12.02,11.651z M22.68,3.32C21.8,2.439,20.74,2,19.5,2h-15
			C3.26,2,2.201,2.439,1.32,3.32C0.439,4.199,0,5.26,0,6.5v15c0,1.24,0.439,2.301,1.32,3.182C2.201,25.559,3.262,26,4.5,26h15
			c1.24,0,2.3-0.441,3.18-1.32c0.881-0.881,1.321-1.939,1.321-3.18v-15C24.001,5.26,23.561,4.199,22.68,3.32z M21.926,18.146
			c-0.192,0.883-1.075,1.435-1.882,1.406c-0.903-0.032-1.644-0.69-1.786-1.568c-0.065-0.399-0.014-0.785,0.138-1.161
			c0.081-0.206,0.157-0.417,0.192-0.635c0.094-0.577-0.139-1.025-0.604-1.361c-0.391-0.282-0.84-0.421-1.31-0.484
			c-0.633-0.083-1.257-0.045-1.859,0.182c-0.258,0.096-0.496,0.227-0.699,0.415c-0.486,0.451-0.55,1.094-0.245,1.631
			c0.729,1.283-0.125,2.809-1.563,2.947c-0.608,0.059-1.174-0.042-1.67-0.425c-0.768-0.594-0.972-1.634-0.51-2.483
			c0.356-0.656,0.234-1.388-0.434-1.834c-0.367-0.248-0.776-0.377-1.208-0.433c-0.668-0.087-1.327-0.038-1.959,0.214
			c-0.271,0.107-0.52,0.254-0.723,0.466c-0.407,0.422-0.483,0.917-0.312,1.463c0.079,0.251,0.194,0.493,0.253,0.751
			c0.239,1.057-0.431,2.086-1.494,2.282c-0.709,0.133-1.3-0.117-1.784-0.638C2.083,18.468,1.995,17.953,2,17.414
			c0.001-0.163,0.025-0.33,0.059-0.493c0.055-0.269,0.182-0.5,0.39-0.688c0.322-0.293,0.667-0.539,1.11-0.603
			c0.125-0.015,0.252-0.007,0.378-0.015c0.146-0.008,0.294-0.006,0.436-0.035c0.536-0.107,0.841-0.446,0.937-1.015
			c0.085-0.499,0.043-0.997-0.041-1.488c-0.06-0.354-0.169-0.698-0.227-1.053c-0.205-1.261,0.182-2.396,1.251-3.098
			c1.342-0.883,3.09-0.512,3.993,0.813c0.266,0.393,0.601,0.739,0.986,1.023c0.486,0.359,1.105,0.35,1.564-0.063
			c0.337-0.307,0.664-0.644,0.928-1.012c0.682-0.95,1.842-1.425,2.982-1.17c1.179,0.26,2.063,1.184,2.243,2.352
			c0.028,0.183,0.029,0.37,0.044,0.554c0.004,0.374-0.082,0.728-0.178,1.087c-0.089,0.334-0.137,0.683-0.162,1.027
			c-0.024,0.332-0.031,0.668,0.018,0.996c0.109,0.745,0.569,1.102,1.324,1.087c0.193-0.004,0.392-0.001,0.578,0.043
			c0.831,0.191,1.275,0.783,1.372,1.59C22.021,17.555,21.993,17.853,21.926,18.146z"/>
	</g>
</g>
</svg>
