<?xml version="1.0" encoding="UTF-8" standalone="no"?>
<svg
   xmlns:dc="http://purl.org/dc/elements/1.1/"
   xmlns:cc="http://creativecommons.org/ns#"
   xmlns:rdf="http://www.w3.org/1999/02/22-rdf-syntax-ns#"
   xmlns:svg="http://www.w3.org/2000/svg"
   xmlns="http://www.w3.org/2000/svg"
   xmlns:sodipodi="http://sodipodi.sourceforge.net/DTD/sodipodi-0.dtd"
   xmlns:inkscape="http://www.inkscape.org/namespaces/inkscape"
   width="448"
   height="512"
   viewBox="0 0 448 512"
   version="1.1"
   id="svg8"
   inkscape:version="1.0 (1.0+r73+1)"
   sodipodi:docname="moodle-square.svg">
  <title
     id="title862">Moodle</title>
  <defs
     id="defs2" />
  <sodipodi:namedview
     id="base"
     pagecolor="#ffffff"
     bordercolor="#666666"
     borderopacity="1.0"
     inkscape:pageopacity="0.0"
     inkscape:pageshadow="2"
     inkscape:zoom="0.82979434"
     inkscape:cx="224"
     inkscape:cy="256"
     inkscape:document-units="px"
     inkscape:current-layer="layer6"
     inkscape:document-rotation="0"
     showgrid="true"
     units="px"
     showguides="true"
     inkscape:guide-bbox="true"
     inkscape:window-width="1315"
     inkscape:window-height="713"
     inkscape:window-x="51"
     inkscape:window-y="27"
     inkscape:window-maximized="1">
    <inkscape:grid
       type="xygrid"
       id="grid10"
       empspacing="4" />
    <sodipodi:guide
       position="448,416"
       orientation="0,1"
       id="guide832"
       inkscape:label=""
       inkscape:locked="true"
       inkscape:color="rgb(0,0,255)" />
    <sodipodi:guide
       position="448,96"
       orientation="0,1"
       id="guide834"
       inkscape:label=""
       inkscape:locked="true"
       inkscape:color="rgb(0,0,255)" />
    <sodipodi:guide
       position="448,64"
       orientation="0,1"
       id="guide836"
       inkscape:label="baseline"
       inkscape:locked="true"
       inkscape:color="rgb(0,0,255)" />
    <sodipodi:guide
       id="guide835"
       orientation="1,0"
       position="64,512" />
    <sodipodi:guide
       id="guide837"
       orientation="1,0"
       position="384,512" />
  </sodipodi:namedview>
  <metadata
     id="metadata5">
    <rdf:RDF>
      <cc:Work
         rdf:about="">
        <dc:format>image/svg+xml</dc:format>
        <dc:type
           rdf:resource="http://purl.org/dc/dcmitype/StillImage" />
        <dc:title>Moodle</dc:title>
        <cc:license
           rdf:resource="http://scripts.sil.org/OFL" />
        <dc:subject>
          <rdf:Bag>
            <rdf:li>Moodle</rdf:li>
          </rdf:Bag>
        </dc:subject>
      </cc:Work>
      <cc:License
         rdf:about="http://scripts.sil.org/OFL">
        <cc:permits
           rdf:resource="http://scripts.sil.org/pub/OFL/Reproduction" />
        <cc:permits
           rdf:resource="http://scripts.sil.org/pub/OFL/Distribution" />
        <cc:permits
           rdf:resource="http://scripts.sil.org/pub/OFL/Embedding" />
        <cc:permits
           rdf:resource="http://scripts.sil.org/pub/OFL/DerivativeWorks" />
        <cc:requires
           rdf:resource="http://scripts.sil.org/pub/OFL/Notice" />
        <cc:requires
           rdf:resource="http://scripts.sil.org/pub/OFL/Attribution" />
        <cc:requires
           rdf:resource="http://scripts.sil.org/pub/OFL/ShareAlike" />
        <cc:requires
           rdf:resource="http://scripts.sil.org/pub/OFL/DerivativeRenaming" />
        <cc:requires
           rdf:resource="http://scripts.sil.org/pub/OFL/BundlingWhenSelling" />
      </cc:License>
    </rdf:RDF>
  </metadata>
  <g
     inkscape:groupmode="layer"
     id="layer6"
     inkscape:label="icon">
    <path
       d="M 48 32 C 21.5 32 0 53.5 0 80 L 0 432 C 0 458.5 21.5 480 48 480 L 400 480 C 426.5 480 448 458.5 448 432 L 448 80 C 448 53.5 426.5 32 400 32 L 48 32 z M 276.37305 146.7832 L 277.02344 149.04688 L 226.20898 186.17969 C 226.20898 186.17969 239.7828 196.76665 246.7207 204.53516 C 249.85734 206.62707 252.67817 209.02381 255.17969 211.73438 C 264.62348 199.85848 281.83537 193.91992 306.8125 193.91992 C 329.6484 193.91992 347.76219 198.94941 361.1543 209.00586 C 376.37823 220.26291 383.994 236.8567 384 258.78906 L 384 365.2168 L 332.8418 365.2168 L 332.8418 264.7207 C 332.8418 243.71662 324.17764 233.21303 306.84961 233.20703 C 289.52155 233.20084 280.83983 243.70425 280.80273 264.7207 L 280.80273 365.2168 L 229.60742 365.2168 L 229.60742 264.7207 C 229.60742 249.75638 225.27362 240.12647 216.61328 235.82031 C 205.5119 243.11133 193.06253 247.96815 179.86523 250.13281 C 178.63133 254.24734 178.01348 259.1054 178.02148 264.7207 L 178.02148 365.2168 L 126.81836 365.2168 L 126.81836 258.78906 C 126.81836 253.98178 127.1842 249.43142 127.91602 245.13672 C 127.91402 245.1354 127.9128 245.13521 127.91211 245.13477 A 239.49838 239.49838 0 0 1 126.36133 214.44531 L 74.005859 213.94336 C 73.43961 219.91226 72.410877 235.25658 73.664062 258.59375 C 79.651517 279.84228 79.781524 301.19344 78.509766 320.6875 C 70.489357 301.94537 61.949846 284.7163 70.712891 259.35547 C 69.431849 235.86049 70.434219 220.23767 71.009766 213.91602 L 64.732422 213.85156 L 64 211.77148 C 142.97876 165.98832 184.67673 158.02477 276.37305 146.7832 z "
       id="path2" />
  </g>
</svg>
