<?xml version="1.0" encoding="UTF-8" standalone="no"?>
<svg
   xmlns:dc="http://purl.org/dc/elements/1.1/"
   xmlns:cc="http://creativecommons.org/ns#"
   xmlns:rdf="http://www.w3.org/1999/02/22-rdf-syntax-ns#"
   xmlns:svg="http://www.w3.org/2000/svg"
   xmlns="http://www.w3.org/2000/svg"
   xmlns:sodipodi="http://sodipodi.sourceforge.net/DTD/sodipodi-0.dtd"
   xmlns:inkscape="http://www.inkscape.org/namespaces/inkscape"
   width="448"
   height="512"
   viewBox="0 0 448 512"
   version="1.1"
   id="svg8"
   inkscape:version="1.0 (1.0+r73+1)"
   sodipodi:docname="obp-square.svg">
  <title
     id="title837">Open Book Publisher</title>
  <defs
     id="defs2" />
  <sodipodi:namedview
     id="base"
     pagecolor="#ffffff"
     bordercolor="#666666"
     borderopacity="1.0"
     inkscape:pageopacity="0.0"
     inkscape:pageshadow="2"
     inkscape:zoom="0.75"
     inkscape:cx="224"
     inkscape:cy="256"
     inkscape:document-units="px"
     inkscape:current-layer="layer6"
     inkscape:document-rotation="0"
     showgrid="true"
     units="px"
     showguides="true"
     inkscape:guide-bbox="true"
     inkscape:window-width="1315"
     inkscape:window-height="713"
     inkscape:window-x="51"
     inkscape:window-y="27"
     inkscape:window-maximized="1">
    <inkscape:grid
       type="xygrid"
       id="grid10"
       empspacing="4" />
    <sodipodi:guide
       position="448,416"
       orientation="0,1"
       id="guide832"
       inkscape:label=""
       inkscape:locked="true"
       inkscape:color="rgb(0,0,255)" />
    <sodipodi:guide
       position="448,96"
       orientation="0,1"
       id="guide834"
       inkscape:label=""
       inkscape:locked="true"
       inkscape:color="rgb(0,0,255)" />
    <sodipodi:guide
       position="448,64"
       orientation="0,1"
       id="guide836"
       inkscape:label="baseline"
       inkscape:locked="true"
       inkscape:color="rgb(0,0,255)" />
    <sodipodi:guide
       id="guide835"
       orientation="1,0"
       position="64,512" />
    <sodipodi:guide
       id="guide837"
       orientation="1,0"
       position="384,512" />
  </sodipodi:namedview>
  <metadata
     id="metadata5">
    <rdf:RDF>
      <cc:Work
         rdf:about="">
        <dc:format>image/svg+xml</dc:format>
        <dc:type
           rdf:resource="http://purl.org/dc/dcmitype/StillImage" />
        <dc:title>Open Book Publisher</dc:title>
        <cc:license
           rdf:resource="http://scripts.sil.org/OFL" />
        <dc:subject>
          <rdf:Bag>
            <rdf:li>Open Book Publisher</rdf:li>
          </rdf:Bag>
        </dc:subject>
      </cc:Work>
      <cc:License
         rdf:about="http://scripts.sil.org/OFL">
        <cc:permits
           rdf:resource="http://scripts.sil.org/pub/OFL/Reproduction" />
        <cc:permits
           rdf:resource="http://scripts.sil.org/pub/OFL/Distribution" />
        <cc:permits
           rdf:resource="http://scripts.sil.org/pub/OFL/Embedding" />
        <cc:permits
           rdf:resource="http://scripts.sil.org/pub/OFL/DerivativeWorks" />
        <cc:requires
           rdf:resource="http://scripts.sil.org/pub/OFL/Notice" />
        <cc:requires
           rdf:resource="http://scripts.sil.org/pub/OFL/Attribution" />
        <cc:requires
           rdf:resource="http://scripts.sil.org/pub/OFL/ShareAlike" />
        <cc:requires
           rdf:resource="http://scripts.sil.org/pub/OFL/DerivativeRenaming" />
        <cc:requires
           rdf:resource="http://scripts.sil.org/pub/OFL/BundlingWhenSelling" />
      </cc:License>
    </rdf:RDF>
  </metadata>
  <g
     inkscape:groupmode="layer"
     id="layer6"
     inkscape:label="icon">
    <path
       d="M 48 32 C 21.5 32 0 53.5 0 80 L 0 432 C 0 458.5 21.5 480 48 480 L 400 480 C 426.5 480 448 458.5 448 432 L 448 80 C 448 53.5 426.5 32 400 32 L 48 32 z M 139.09766 96 C 173.71405 121.68927 203.48682 149.2773 223.52539 186.69531 C 243.42151 149.2773 273.33722 121.83173 307.76367 96 L 307.76367 126.91211 C 318.16284 122.35358 327.28028 117.08333 338.1543 113.33203 L 338.1543 148.70898 C 348.50598 147.28444 357.85961 145.14612 367.87891 144.71875 L 367.87891 355.93164 C 319.77682 376.01772 271.81705 396.0089 223.85742 416 C 175.89777 396.0089 128.1757 376.01772 80.121094 355.93164 L 80.121094 144.5293 C 89.38063 145.7639 98.354986 146.95167 108.2793 148.28125 L 108.2793 113.33203 C 119.29578 117.08333 128.50854 122.25959 139.09766 127.29297 L 139.09766 96 z M 299.31055 112.76172 C 292.18783 118.93474 286.0158 124.01643 280.22266 129.42969 C 260.51647 147.71134 242.37597 167.32158 230.74219 192.01367 C 228.55789 196.6197 226.61133 201.2254 226.61133 206.63867 L 226.75391 385.08789 C 245.5579 353.08314 273.09884 328.72252 301.44727 306.07227 C 300.73499 241.87284 300.02282 178.14828 299.31055 112.76172 z M 147.74023 112.95117 C 146.98047 178.48017 146.26696 242.58644 145.55469 306.12109 C 174.52041 329.1987 200.5431 353.89038 220.1543 385.08789 L 220.1543 379.05664 C 220.1543 323.02459 220.05942 266.99299 220.29688 210.96094 C 220.34438 203.26839 218.63374 196.38286 215.21484 189.6875 C 199.54487 158.86988 175.09147 135.74387 147.74023 112.95117 z M 329.74805 125.86719 C 321.96054 129.71346 314.64861 132.61138 308.0957 137.16992 C 308.71302 194.91142 309.37684 252.41584 309.99414 309.91992 C 301.87425 316.75773 293.70682 323.26192 285.9668 330.24219 C 270.72419 343.96529 256.10008 358.35286 244.65625 375.58984 L 242.4707 379.15234 C 242.99303 378.63001 243.37464 378.29664 243.70703 378.01172 C 244.32434 377.48939 244.93995 376.96826 245.50977 376.39844 C 271.48396 354.55544 301.20972 339.07491 332.78711 326.39648 C 331.78994 259.68035 330.79271 193.15314 329.74805 125.86719 z M 116.92188 126.20117 C 115.82972 193.24969 114.7849 259.77531 113.74023 326.39648 C 145.69749 339.21737 175.66122 354.88783 202.34766 376.39844 C 184.63584 349.94942 161.27327 329.24513 137.10352 310.15625 C 137.72082 251.84493 138.33778 194.38896 138.95508 137.02734 C 131.6899 133.03861 124.89933 129.33516 116.92188 126.20117 z M 359.37891 153.93164 C 352.39863 155.11876 345.70415 156.21132 338.62891 157.39844 C 339.53113 215.56731 340.3849 275.20673 341.28711 332.56836 L 334.63867 334.89648 C 322.0552 339.78742 309.80479 345.34347 297.93359 351.75391 C 275.56825 363.76757 254.34234 377.25146 237.72266 396.91016 L 233.78125 402.4668 L 307.71484 371.88672 C 324.85686 364.71651 341.99948 357.54704 359.37891 350.23438 L 359.37891 153.93164 z M 88.667969 154.16797 L 88.667969 350.32812 C 129.97974 367.61259 170.95999 384.75498 213.31641 402.4668 C 206.95345 393.87205 200.73234 387.50995 193.89453 381.7168 C 169.86723 361.34583 142.23134 347.14671 113.26562 335.41797 C 110.51152 334.27833 105.24023 332.23633 105.24023 332.23633 C 106.14245 274.82722 107.04507 215.18596 107.94727 157.20703 L 88.667969 154.16797 z "
       id="path2" />
  </g>
</svg>
