<?xml version="1.0" encoding="UTF-8" standalone="no"?>
<svg
   xmlns:dc="http://purl.org/dc/elements/1.1/"
   xmlns:cc="http://creativecommons.org/ns#"
   xmlns:rdf="http://www.w3.org/1999/02/22-rdf-syntax-ns#"
   xmlns:svg="http://www.w3.org/2000/svg"
   xmlns="http://www.w3.org/2000/svg"
   xmlns:sodipodi="http://sodipodi.sourceforge.net/DTD/sodipodi-0.dtd"
   xmlns:inkscape="http://www.inkscape.org/namespaces/inkscape"
   sodipodi:docname="obp.svg"
   inkscape:version="1.0 (1.0+r73+1)"
   id="svg8"
   version="1.1"
   viewBox="0 0 448 512"
   height="512"
   width="448">
  <title
     id="title856">Open Book Publisher</title>
  <defs
     id="defs2" />
  <sodipodi:namedview
     inkscape:window-maximized="1"
     inkscape:window-y="27"
     inkscape:window-x="51"
     inkscape:window-height="713"
     inkscape:window-width="1315"
     inkscape:guide-bbox="true"
     showguides="true"
     units="px"
     showgrid="true"
     inkscape:document-rotation="0"
     inkscape:current-layer="layer6"
     inkscape:document-units="px"
     inkscape:cy="323.04479"
     inkscape:cx="293.92266"
     inkscape:zoom="0.75"
     inkscape:pageshadow="2"
     inkscape:pageopacity="0.0"
     borderopacity="1.0"
     bordercolor="#666666"
     pagecolor="#ffffff"
     id="base"
     scale-x="1">
    <inkscape:grid
       empspacing="4"
       id="grid10"
       type="xygrid" />
    <sodipodi:guide
       position="448,64"
       orientation="0,1"
       id="guide858"
       inkscape:label="baseline"
       inkscape:locked="true"
       inkscape:color="rgb(0,0,255)" />
  </sodipodi:namedview>
  <metadata
     id="metadata5">
    <rdf:RDF>
      <cc:Work
         rdf:about="">
        <dc:format>image/svg+xml</dc:format>
        <dc:type
           rdf:resource="http://purl.org/dc/dcmitype/StillImage" />
        <dc:title>Open Book Publisher</dc:title>
        <cc:license
           rdf:resource="http://scripts.sil.org/OFL" />
        <dc:subject>
          <rdf:Bag>
            <rdf:li>Open Book Publisher</rdf:li>
          </rdf:Bag>
        </dc:subject>
      </cc:Work>
      <cc:License
         rdf:about="http://scripts.sil.org/OFL">
        <cc:permits
           rdf:resource="http://scripts.sil.org/pub/OFL/Reproduction" />
        <cc:permits
           rdf:resource="http://scripts.sil.org/pub/OFL/Distribution" />
        <cc:permits
           rdf:resource="http://scripts.sil.org/pub/OFL/Embedding" />
        <cc:permits
           rdf:resource="http://scripts.sil.org/pub/OFL/DerivativeWorks" />
        <cc:requires
           rdf:resource="http://scripts.sil.org/pub/OFL/Notice" />
        <cc:requires
           rdf:resource="http://scripts.sil.org/pub/OFL/Attribution" />
        <cc:requires
           rdf:resource="http://scripts.sil.org/pub/OFL/ShareAlike" />
        <cc:requires
           rdf:resource="http://scripts.sil.org/pub/OFL/DerivativeRenaming" />
        <cc:requires
           rdf:resource="http://scripts.sil.org/pub/OFL/BundlingWhenSelling" />
      </cc:License>
    </rdf:RDF>
  </metadata>
  <g
     inkscape:label="icon"
     id="layer6"
     inkscape:groupmode="layer">
    <path
       style="stroke-width:1"
       d="m 341.26842,32 c 0,15.556013 0,28.718795 0,43.277631 14.55884,-6.381952 27.32275,-13.76109 42.54638,-19.01291 0,17.018549 0,33.039921 0,49.526639 14.49235,-1.99436 27.58866,-4.9859 41.61568,-5.58421 0,98.78735 0,196.9764 0,295.69728 C 358.08755,424.02493 290.94406,452.01246 223.80057,480 156.65707,452.01246 89.84597,424.02493 22.56952,395.90443 c 0,-98.45496 0,-196.71049 0,-295.963191 12.96335,1.728441 25.52783,3.390401 39.42187,5.251811 0,-16.420241 0,-32.175692 0,-48.928329 15.42306,5.25182 28.31993,12.498002 43.14469,19.544744 0,-14.42588 0,-27.921057 0,-43.809465 48.46296,35.964976 90.14511,74.5891 118.19913,126.97432 C 251.18978,106.5891 293.07137,68.164415 341.26842,32 Z M 117.23519,55.732896 c -1.06366,91.740604 -2.06084,181.486864 -3.05802,270.435374 40.55201,32.30865 76.98234,66.87758 104.43804,110.55409 0,-2.79211 0,-5.58422 0,-8.4428 0,-78.44487 -0.13295,-156.88974 0.19944,-235.33461 0.0665,-10.76956 -2.32676,-20.40897 -7.11322,-29.78247 C 189.76346,120.01781 155.52692,87.642676 117.23519,55.732896 Z M 34.53568,388.05994 c 57.83647,24.19825 115.2076,48.19707 174.5066,72.99362 -8.90814,-12.03264 -17.61685,-20.94078 -27.18979,-29.05119 -33.63822,-28.51936 -72.32883,-48.3965 -112.88085,-64.81674 -3.85575,-1.59549 -11.23489,-4.45407 -11.23489,-4.45407 1.2631,-80.37275 2.52619,-163.87001 3.78928,-245.04051 l -26.99035,-4.25464 c 0,91.40822 0,182.88293 0,274.62353 z M 74.09051,74.280455 C 72.5615,168.14839 71.09897,261.28505 69.63643,354.55468 114.3766,372.50393 156.32467,394.4419 193.6857,424.55675 168.88915,387.52812 136.18162,358.5434 102.34396,331.81896 103.20818,250.18311 104.07241,169.74387 104.93663,89.437599 94.76538,83.853384 85.25893,78.668046 74.09051,74.280455 Z M 227.85575,436.72236 c 26.32558,-44.80665 64.88322,-78.91022 104.57102,-110.62057 -0.99719,-89.8792 -1.99436,-179.09363 -2.99154,-270.634806 -9.97181,8.642226 -18.61404,15.755451 -26.72444,23.334019 -27.58866,25.594297 -52.98353,53.050007 -69.27082,87.618937 -3.05802,6.44844 -5.78365,12.89687 -5.78365,20.47544 z m 113.34621,-18.48108 c 23.99881,-10.03829 47.99763,-20.07657 72.32883,-30.31429 0,-91.60765 0,-182.88292 0,-274.82297 -9.77238,1.66197 -19.14587,3.19098 -29.0512,4.85294 1.2631,81.43642 2.45972,164.93367 3.72281,245.23995 l -9.30702,3.25745 c -17.61686,6.84732 -34.76837,14.62532 -51.38805,23.59994 -31.31147,16.81912 -61.02744,35.69907 -84.29499,63.22126 l -5.51774,7.778 z m -91.34175,10.17124 c 0.73126,-0.73126 1.26309,-1.19661 1.72844,-1.59549 0.86423,-0.73127 1.72845,-1.46253 2.5262,-2.26028 36.36386,-30.5802 77.97951,-52.25226 122.18786,-70.00207 -1.39605,-93.40258 -2.79211,-186.53925 -4.25463,-280.739576 -10.90252,5.384776 -21.14023,9.439972 -30.3143,15.821934 0.86423,80.838102 1.79494,161.343812 2.65916,241.849522 -11.36786,9.57294 -22.8022,18.68052 -33.63823,28.4529 -21.33966,19.21234 -41.81511,39.35539 -57.83647,63.48716 z"
       id="path2" />
  </g>
</svg>
