<?xml version="1.0" encoding="UTF-8" standalone="no"?>
<svg
   xmlns:dc="http://purl.org/dc/elements/1.1/"
   xmlns:cc="http://creativecommons.org/ns#"
   xmlns:rdf="http://www.w3.org/1999/02/22-rdf-syntax-ns#"
   xmlns:svg="http://www.w3.org/2000/svg"
   xmlns="http://www.w3.org/2000/svg"
   xmlns:sodipodi="http://sodipodi.sourceforge.net/DTD/sodipodi-0.dtd"
   xmlns:inkscape="http://www.inkscape.org/namespaces/inkscape"
   width="512"
   height="512"
   viewBox="0 0 512 512"
   version="1.1"
   id="svg8"
   inkscape:version="1.0 (1.0+r73+1)"
   sodipodi:docname="open-data.svg">
  <title
     id="title833">Open Data</title>
  <defs
     id="defs2" />
  <sodipodi:namedview
     id="base"
     pagecolor="#ffffff"
     bordercolor="#666666"
     borderopacity="1.0"
     inkscape:pageopacity="0.0"
     inkscape:pageshadow="2"
     inkscape:zoom="0.75"
     inkscape:cx="256"
     inkscape:cy="256"
     inkscape:document-units="px"
     inkscape:current-layer="layer6"
     inkscape:document-rotation="0"
     showgrid="true"
     units="px"
     showguides="true"
     inkscape:guide-bbox="true"
     inkscape:window-width="1315"
     inkscape:window-height="713"
     inkscape:window-x="51"
     inkscape:window-y="27"
     inkscape:window-maximized="1">
    <inkscape:grid
       type="xygrid"
       id="grid10"
       empspacing="4" />
    <sodipodi:guide
       inkscape:color="rgb(0,0,255)"
       inkscape:locked="true"
       inkscape:label="baseline"
       position="511.99998,64"
       orientation="0,1"
       id="guide39" />
  </sodipodi:namedview>
  <metadata
     id="metadata5">
    <rdf:RDF>
      <cc:Work
         rdf:about="">
        <dc:format>image/svg+xml</dc:format>
        <dc:type
           rdf:resource="http://purl.org/dc/dcmitype/StillImage" />
        <dc:title>Open Data</dc:title>
        <cc:license
           rdf:resource="http://scripts.sil.org/OFL" />
        <dc:subject>
          <rdf:Bag>
            <rdf:li>Open Science Badges</rdf:li>
            <rdf:li>Open Data</rdf:li>
          </rdf:Bag>
        </dc:subject>
      </cc:Work>
      <cc:License
         rdf:about="http://scripts.sil.org/OFL">
        <cc:permits
           rdf:resource="http://scripts.sil.org/pub/OFL/Reproduction" />
        <cc:permits
           rdf:resource="http://scripts.sil.org/pub/OFL/Distribution" />
        <cc:permits
           rdf:resource="http://scripts.sil.org/pub/OFL/Embedding" />
        <cc:permits
           rdf:resource="http://scripts.sil.org/pub/OFL/DerivativeWorks" />
        <cc:requires
           rdf:resource="http://scripts.sil.org/pub/OFL/Notice" />
        <cc:requires
           rdf:resource="http://scripts.sil.org/pub/OFL/Attribution" />
        <cc:requires
           rdf:resource="http://scripts.sil.org/pub/OFL/ShareAlike" />
        <cc:requires
           rdf:resource="http://scripts.sil.org/pub/OFL/DerivativeRenaming" />
        <cc:requires
           rdf:resource="http://scripts.sil.org/pub/OFL/BundlingWhenSelling" />
      </cc:License>
    </rdf:RDF>
  </metadata>
  <g
     inkscape:groupmode="layer"
     id="layer6"
     inkscape:label="icon">
    <path
       id="path90"
       style="fill-opacity:1;fill-rule:nonzero;stroke:none;stroke-width:0.0352777"
       d="M 255.99349,8.0446377 C 223.80996,6.8710755 198.88846,29.106812 171.90108,43.078975 135.19601,64.83668 97.398702,84.909644 61.424592,107.79531 c -23.529448,19.12486 -34.340913,49.89944 -31.869027,79.61823 0.136467,52.69231 -0.273926,105.39637 0.206898,158.08127 3.046554,31.90013 25.166618,58.97257 53.630746,72.31691 45.693451,26.22554 91.119371,52.93874 136.981251,78.85735 29.15402,13.29373 63.66608,7.7032 89.45702,-10.28262 45.55933,-26.46403 91.40188,-52.46098 136.78286,-79.21917 26.10444,-18.58601 38.49713,-51.27731 35.81722,-82.60095 -0.13644,-52.69193 0.27402,-105.39561 -0.20674,-158.08014 C 479.17554,134.58854 457.05921,107.51038 428.59249,94.170602 382.89744,67.950466 337.46312,41.255709 291.60404,15.334368 280.50454,10.177688 268.1747,8.0789301 255.99349,8.0446377 Z M 227.29819,140.73479 c 19.13338,0 38.26677,0 57.40015,0 0,76.83994 0,153.67988 0,230.51981 -19.13338,0 -38.26677,0 -57.40015,0 0,-76.83993 0,-153.67987 0,-230.51981 z m 72.23096,50.17436 c 19.12396,0 38.2479,0 57.37188,0 0,60.11515 0,120.2303 0,180.34545 -19.12398,0 -38.24792,0 -57.37188,0 0,-60.11515 0,-120.2303 0,-180.34545 z m -144.45251,94.07924 c 19.13025,0 38.26049,0 57.39074,0 0,28.7554 0,57.51081 0,86.26621 -19.13025,0 -38.26049,0 -57.39074,0 0,-28.7554 0,-57.51081 0,-86.26621 z" />
  </g>
</svg>
