<?xml version="1.0" encoding="UTF-8" standalone="no"?>
<svg
   xmlns:dc="http://purl.org/dc/elements/1.1/"
   xmlns:cc="http://creativecommons.org/ns#"
   xmlns:rdf="http://www.w3.org/1999/02/22-rdf-syntax-ns#"
   xmlns:svg="http://www.w3.org/2000/svg"
   xmlns="http://www.w3.org/2000/svg"
   xmlns:sodipodi="http://sodipodi.sourceforge.net/DTD/sodipodi-0.dtd"
   xmlns:inkscape="http://www.inkscape.org/namespaces/inkscape"
   width="384"
   height="512"
   viewBox="0 0 384 512"
   version="1.1"
   id="svg8"
   inkscape:version="1.0 (1.0+r73+1)"
   sodipodi:docname="openedition.svg">
  <title
     id="title833">OpenÉdition</title>
  <defs
     id="defs2" />
  <sodipodi:namedview
     scale-x="1"
     id="base"
     pagecolor="#ffffff"
     bordercolor="#666666"
     borderopacity="1.0"
     inkscape:pageopacity="0.0"
     inkscape:pageshadow="2"
     inkscape:zoom="0.75"
     inkscape:cx="192"
     inkscape:cy="256"
     inkscape:document-units="px"
     inkscape:current-layer="layer6"
     inkscape:document-rotation="0"
     showgrid="true"
     units="px"
     showguides="true"
     inkscape:guide-bbox="true"
     inkscape:window-width="1315"
     inkscape:window-height="713"
     inkscape:window-x="51"
     inkscape:window-y="27"
     inkscape:window-maximized="1">
    <inkscape:grid
       type="xygrid"
       id="grid10"
       empspacing="4" />
    <sodipodi:guide
       position="384,64"
       orientation="0,1"
       id="guide832"
       inkscape:label="baseline"
       inkscape:locked="true"
       inkscape:color="rgb(0,0,255)" />
  </sodipodi:namedview>
  <metadata
     id="metadata5">
    <rdf:RDF>
      <cc:Work
         rdf:about="">
        <dc:format>image/svg+xml</dc:format>
        <dc:type
           rdf:resource="http://purl.org/dc/dcmitype/StillImage" />
        <dc:title>OpenÉdition</dc:title>
        <cc:license
           rdf:resource="http://scripts.sil.org/OFL" />
        <dc:subject>
          <rdf:Bag>
            <rdf:li>OpenÉdition</rdf:li>
          </rdf:Bag>
        </dc:subject>
      </cc:Work>
      <cc:License
         rdf:about="http://scripts.sil.org/OFL">
        <cc:permits
           rdf:resource="http://scripts.sil.org/pub/OFL/Reproduction" />
        <cc:permits
           rdf:resource="http://scripts.sil.org/pub/OFL/Distribution" />
        <cc:permits
           rdf:resource="http://scripts.sil.org/pub/OFL/Embedding" />
        <cc:permits
           rdf:resource="http://scripts.sil.org/pub/OFL/DerivativeWorks" />
        <cc:requires
           rdf:resource="http://scripts.sil.org/pub/OFL/Notice" />
        <cc:requires
           rdf:resource="http://scripts.sil.org/pub/OFL/Attribution" />
        <cc:requires
           rdf:resource="http://scripts.sil.org/pub/OFL/ShareAlike" />
        <cc:requires
           rdf:resource="http://scripts.sil.org/pub/OFL/DerivativeRenaming" />
        <cc:requires
           rdf:resource="http://scripts.sil.org/pub/OFL/BundlingWhenSelling" />
      </cc:License>
    </rdf:RDF>
  </metadata>
  <g
     inkscape:groupmode="layer"
     id="layer6"
     inkscape:label="icon">
    <path
       id="path62"
       style="fill-opacity:1;fill-rule:nonzero;stroke:none;stroke-width:1.33333"
       d="m 190.22492,64.021331 c -55.20128,0.96136 -107.104462,34.33842 -129.016775,88.772379 -29.240466,72.58895 5.926181,155.11607 78.504835,184.34279 10.79068,4.34517 21.79562,7.23392 32.82698,8.83241 L 182.36437,448 h 18.08785 l 9.52732,-101.6685 c 49.43309,-6.14649 94.14302,-38.20621 114.08125,-87.7149 0.0411,-0.0825 0.0745,-0.18074 0.11577,-0.27699 -33.70251,20.80798 -83.80321,33.82998 -134.96887,13.23859 -44.08408,-17.74506 -63.97427,-57.78436 -49.84219,-92.90661 12.20703,-30.30611 44.78314,-43.61316 71.64131,-32.80181 30.99022,12.48545 43.7489,46.43949 32.37379,74.67273 -5.54145,13.79176 -17.29219,25.04895 -28.8942,33.99022 43.96726,15.91965 93.51886,1.55504 109.36291,-22.5393 19.68728,-29.90736 -4.54714,-87.82568 -4.54714,-87.82568 C 305.76135,114.37041 281.75123,88.86444 245.53584,74.288911 227.39118,66.984811 208.6254,63.70088 190.22492,64.021331 Z M 19.332209,308.55955 c 2.715714,31.27552 63.88827,104.88885 148.464221,103.70288 -0.0413,-0.12041 -0.0755,-0.25139 -0.14102,-0.33739 C 143.46482,348.45612 83.357999,309.23674 19.332182,308.55955 Z m 337.475001,41.48316 c -80.69009,1.02619 -143.17995,83.96646 -144.60193,97.87672 63.99489,1.86663 125.61455,-34.94217 152.3215,-97.38322 0.0412,-0.10649 0.0861,-0.22586 0.14104,-0.33236 -2.63937,-0.14257 -5.25766,-0.19413 -7.86057,-0.16114 z" />
  </g>
</svg>
