<?xml version="1.0" encoding="utf-8"?>
<!-- Generator: Adobe Illustrator 16.0.0, SVG Export Plug-In . SVG Version: 6.00 Build 0)  -->
<!DOCTYPE svg PUBLIC "-//W3C//DTD SVG 1.1//EN" "http://www.w3.org/Graphics/SVG/1.1/DTD/svg11.dtd" [
	<!ENTITY st0 "fill-rule:evenodd;clip-rule:evenodd;fill:#444444;">
	<!ENTITY st1 "fill:#444444;">
]>
<svg version="1.1" id="Layer_1" xmlns="http://www.w3.org/2000/svg" xmlns:xlink="http://www.w3.org/1999/xlink" x="0px" y="0px"
	 width="28px" height="28px" viewBox="0 0 28 28" style="enable-background:new 0 0 28 28;" xml:space="preserve">
<g>
	<g>
		<path style="&st1;" d="M15.196,11.313c-0.525-0.272-1.237-0.405-2.143-0.405h-2.231v6.614h2.096c0.591,0,0.987-0.014,1.197-0.048
			c0.207-0.033,0.438-0.101,0.688-0.199c0.426-0.159,0.8-0.396,1.124-0.715c0.314-0.306,0.559-0.663,0.729-1.069
			c0.17-0.403,0.259-0.826,0.259-1.269c0-0.62-0.158-1.192-0.469-1.714C16.137,11.98,15.721,11.584,15.196,11.313z M15.229,15.968
			c-0.145,0.147-0.306,0.268-0.482,0.367c-0.175,0.101-0.394,0.182-0.656,0.247s-0.63,0.097-1.104,0.097h-1.214v-4.927h1.185
			c0.458,0,0.784,0.018,0.989,0.052c0.206,0.034,0.424,0.107,0.656,0.214c0.227,0.108,0.43,0.244,0.607,0.411
			c0.481,0.451,0.719,1.031,0.719,1.742C15.929,14.896,15.696,15.491,15.229,15.968z M8.396,17.532h0.947v-6.624H8.396V17.532z
			 M22.68,3.32C21.8,2.439,20.74,2,19.5,2h-15C3.26,2,2.201,2.439,1.32,3.32C0.439,4.199,0,5.26,0,6.5v15
			c0,1.24,0.439,2.301,1.32,3.182C2.201,25.559,3.262,26,4.5,26h15c1.24,0,2.3-0.441,3.18-1.32c0.881-0.881,1.321-1.939,1.321-3.18
			v-15C24.001,5.26,23.561,4.199,22.68,3.32z M12,22c-4.418,0-8-3.583-8-8s3.582-8,8-8s8,3.583,8,8S16.418,22,12,22z M8.866,8.915
			c-0.357,0-0.648,0.292-0.648,0.649c0,0.362,0.291,0.65,0.648,0.65c0.362,0,0.656-0.288,0.656-0.65
			C9.522,9.207,9.229,8.915,8.866,8.915z"/>
	</g>
</g>
</svg>
