<?xml version="1.0" encoding="utf-8"?>
<!-- Generator: Adobe Illustrator 16.0.0, SVG Export Plug-In . SVG Version: 6.00 Build 0)  -->
<!DOCTYPE svg PUBLIC "-//W3C//DTD SVG 1.1//EN" "http://www.w3.org/Graphics/SVG/1.1/DTD/svg11.dtd" [
	<!ENTITY st0 "fill-rule:evenodd;clip-rule:evenodd;fill:#444444;">
	<!ENTITY st1 "fill:#444444;">
]>
<svg version="1.1" id="Layer_1" xmlns="http://www.w3.org/2000/svg" xmlns:xlink="http://www.w3.org/1999/xlink" x="0px" y="0px"
	 width="28px" height="28px" viewBox="0 0 28 28" style="enable-background:new 0 0 28 28;" xml:space="preserve">
<g>
	<g>
		<path style="&st1;" d="M17.901,11.026c-0.345-0.161-0.671-0.269-0.98-0.32c-0.308-0.053-0.802-0.078-1.486-0.078h-1.776v7.391
			h1.821c0.71,0,1.262-0.049,1.656-0.146c0.394-0.097,0.722-0.219,0.985-0.369c0.263-0.149,0.504-0.332,0.723-0.551
			c0.701-0.712,1.052-1.61,1.052-2.696c0-1.067-0.36-1.938-1.081-2.612C18.549,11.395,18.243,11.188,17.901,11.026z M14,2
			C7.372,2,2,7.373,2,14s5.372,12,12,12s12-5.373,12-12S20.628,2,14,2z M10.016,19.299H8.594V9.362h1.422V19.299z M9.304,8.324
			c-0.539,0-0.978-0.436-0.978-0.978c0-0.538,0.438-0.977,0.978-0.977c0.541,0,0.979,0.438,0.979,0.977
			C10.282,7.889,9.845,8.324,9.304,8.324z M20.984,16.24c-0.256,0.607-0.621,1.141-1.096,1.601
			c-0.483,0.476-1.045,0.832-1.686,1.074c-0.375,0.146-0.718,0.245-1.031,0.296c-0.314,0.049-0.911,0.073-1.794,0.073h-3.143V9.362
			h3.35c1.353,0,2.421,0.201,3.209,0.607c0.787,0.405,1.412,1.003,1.877,1.789c0.465,0.787,0.698,1.646,0.698,2.574
			C21.369,14.998,21.239,15.634,20.984,16.24z"/>
	</g>
</g>
</svg>
