<?xml version="1.0" encoding="UTF-8" standalone="no"?>
<svg
   xmlns:dc="http://purl.org/dc/elements/1.1/"
   xmlns:cc="http://creativecommons.org/ns#"
   xmlns:rdf="http://www.w3.org/1999/02/22-rdf-syntax-ns#"
   xmlns:svg="http://www.w3.org/2000/svg"
   xmlns="http://www.w3.org/2000/svg"
   xmlns:sodipodi="http://sodipodi.sourceforge.net/DTD/sodipodi-0.dtd"
   xmlns:inkscape="http://www.inkscape.org/namespaces/inkscape"
   sodipodi:docname="orcid-square.svg"
   inkscape:version="1.0 (1.0+r73+1)"
   id="svg8"
   version="1.1"
   viewBox="0 0 448 512"
   height="512"
   width="448">
  <title
     id="title839">Orcid</title>
  <defs
     id="defs2" />
  <sodipodi:namedview
     inkscape:window-maximized="1"
     inkscape:window-y="27"
     inkscape:window-x="51"
     inkscape:window-height="713"
     inkscape:window-width="1315"
     inkscape:guide-bbox="true"
     showguides="true"
     units="px"
     showgrid="true"
     inkscape:document-rotation="0"
     inkscape:current-layer="layer6"
     inkscape:document-units="px"
     inkscape:cy="256"
     inkscape:cx="224"
     inkscape:zoom="0.75"
     inkscape:pageshadow="2"
     inkscape:pageopacity="0.0"
     borderopacity="1.0"
     bordercolor="#666666"
     pagecolor="#ffffff"
     id="base">
    <inkscape:grid
       empspacing="4"
       id="grid10"
       type="xygrid" />
    <sodipodi:guide
       inkscape:color="rgb(0,0,255)"
       inkscape:locked="true"
       inkscape:label=""
       id="guide832"
       orientation="0,1"
       position="448,416" />
    <sodipodi:guide
       inkscape:color="rgb(0,0,255)"
       inkscape:locked="true"
       inkscape:label=""
       id="guide834"
       orientation="0,1"
       position="448,96" />
    <sodipodi:guide
       inkscape:color="rgb(0,0,255)"
       inkscape:locked="true"
       inkscape:label="baseline"
       id="guide836"
       orientation="0,1"
       position="448,64" />
    <sodipodi:guide
       id="guide835"
       orientation="1,0"
       position="64,512" />
    <sodipodi:guide
       id="guide837"
       orientation="1,0"
       position="384,512" />
  </sodipodi:namedview>
  <metadata
     id="metadata5">
    <rdf:RDF>
      <cc:Work
         rdf:about="">
        <dc:format>image/svg+xml</dc:format>
        <dc:type
           rdf:resource="http://purl.org/dc/dcmitype/StillImage" />
        <dc:title>Orcid</dc:title>
        <cc:license
           rdf:resource="http://scripts.sil.org/OFL" />
        <dc:subject>
          <rdf:Bag>
            <rdf:li>Orcid</rdf:li>
          </rdf:Bag>
        </dc:subject>
      </cc:Work>
      <cc:License
         rdf:about="http://scripts.sil.org/OFL">
        <cc:permits
           rdf:resource="http://scripts.sil.org/pub/OFL/Reproduction" />
        <cc:permits
           rdf:resource="http://scripts.sil.org/pub/OFL/Distribution" />
        <cc:permits
           rdf:resource="http://scripts.sil.org/pub/OFL/Embedding" />
        <cc:permits
           rdf:resource="http://scripts.sil.org/pub/OFL/DerivativeWorks" />
        <cc:requires
           rdf:resource="http://scripts.sil.org/pub/OFL/Notice" />
        <cc:requires
           rdf:resource="http://scripts.sil.org/pub/OFL/Attribution" />
        <cc:requires
           rdf:resource="http://scripts.sil.org/pub/OFL/ShareAlike" />
        <cc:requires
           rdf:resource="http://scripts.sil.org/pub/OFL/DerivativeRenaming" />
        <cc:requires
           rdf:resource="http://scripts.sil.org/pub/OFL/BundlingWhenSelling" />
      </cc:License>
    </rdf:RDF>
  </metadata>
  <g
     inkscape:label="icon"
     id="layer6"
     inkscape:groupmode="layer">
    <path
       id="path2"
       d="M 48 32 C 21.5 32 0 53.5 0 80 L 0 432 C 0 458.5 21.5 480 48 480 L 400 480 C 426.5 480 448 458.5 448 432 L 448 80 C 448 53.5 426.5 32 400 32 L 48 32 z M 224 96 C 312.37321 96 384 167.63992 384 256 C 384 344.36009 312.37321 416 224 416 C 135.62679 416 64 344.36009 64 256 C 64 167.63992 135.62679 96 224 96 z M 161.38672 154.25391 C 154.18656 154.25391 148.34766 160.10614 148.34766 167.2793 C 148.34766 174.50609 154.20004 180.32031 161.38672 180.32031 C 168.6 180.32031 174.42525 174.5192 174.43945 167.2793 C 174.43945 160.09263 168.6 154.25391 161.38672 154.25391 z M 151.91992 194.16016 L 151.91992 326.6543 L 170.87891 326.6543 L 170.87891 194.16016 L 151.91992 194.16016 z M 200.45312 194.16016 L 200.45312 326.45312 L 242.36133 326.45312 C 254.13446 326.45312 262.09473 326.13381 266.28125 325.48047 C 270.45462 324.80053 275.02745 323.47971 280.02734 321.5332 C 288.57391 318.30628 296.06779 313.55956 302.50781 307.21289 C 308.841 301.0795 313.70591 293.96058 317.11914 285.86719 L 317.12109 285.86719 C 320.52082 277.7873 322.25443 269.30595 322.24023 260.42578 C 322.24023 248.05256 319.1337 236.60085 312.93359 226.10742 C 306.73346 215.62745 298.39971 207.65376 287.90625 202.25391 C 277.39933 196.84058 263.16106 194.16016 245.12109 194.16016 L 200.45312 194.16016 z M 219.45312 211.03906 L 243.13281 211.03906 C 252.25286 211.03906 258.84061 211.37352 262.94727 212.08008 C 267.06743 212.76004 271.41372 214.20099 276.01367 216.34766 L 276.01367 216.3457 C 280.5735 218.50584 284.65256 221.26623 288.19922 224.59961 C 297.81257 233.58659 302.61328 245.199 302.61328 259.42578 C 302.61328 273.90595 297.93278 285.87966 288.58594 295.37305 C 285.66599 298.29299 282.45385 300.73409 278.94727 302.7207 C 275.44072 304.7208 271.06578 306.34744 265.8125 307.64062 C 260.55922 308.93379 253.20114 309.58594 243.73438 309.58594 L 219.45312 309.58594 L 219.45312 211.03906 z " />
  </g>
</svg>
