<?xml version="1.0" encoding="UTF-8" standalone="no"?>
<svg
   xmlns:dc="http://purl.org/dc/elements/1.1/"
   xmlns:cc="http://creativecommons.org/ns#"
   xmlns:rdf="http://www.w3.org/1999/02/22-rdf-syntax-ns#"
   xmlns:svg="http://www.w3.org/2000/svg"
   xmlns="http://www.w3.org/2000/svg"
   xmlns:sodipodi="http://sodipodi.sourceforge.net/DTD/sodipodi-0.dtd"
   xmlns:inkscape="http://www.inkscape.org/namespaces/inkscape"
   sodipodi:docname="osf-square.svg"
   inkscape:version="1.0 (1.0+r73+1)"
   id="svg8"
   version="1.1"
   viewBox="0 0 448 512"
   height="512"
   width="448">
  <title
     id="title839">OSF</title>
  <defs
     id="defs2" />
  <sodipodi:namedview
     inkscape:window-maximized="1"
     inkscape:window-y="27"
     inkscape:window-x="51"
     inkscape:window-height="713"
     inkscape:window-width="1315"
     inkscape:guide-bbox="true"
     showguides="true"
     units="px"
     showgrid="true"
     inkscape:document-rotation="0"
     inkscape:current-layer="layer6"
     inkscape:document-units="px"
     inkscape:cy="256"
     inkscape:cx="224"
     inkscape:zoom="0.75"
     inkscape:pageshadow="2"
     inkscape:pageopacity="0.0"
     borderopacity="1.0"
     bordercolor="#666666"
     pagecolor="#ffffff"
     id="base">
    <inkscape:grid
       empspacing="4"
       id="grid10"
       type="xygrid" />
    <sodipodi:guide
       inkscape:color="rgb(0,0,255)"
       inkscape:locked="true"
       inkscape:label=""
       id="guide832"
       orientation="0,1"
       position="448,416" />
    <sodipodi:guide
       inkscape:color="rgb(0,0,255)"
       inkscape:locked="true"
       inkscape:label=""
       id="guide834"
       orientation="0,1"
       position="448,96" />
    <sodipodi:guide
       inkscape:color="rgb(0,0,255)"
       inkscape:locked="true"
       inkscape:label="baseline"
       id="guide836"
       orientation="0,1"
       position="448,64" />
    <sodipodi:guide
       id="guide835"
       orientation="1,0"
       position="64,512" />
    <sodipodi:guide
       id="guide837"
       orientation="1,0"
       position="384,512" />
  </sodipodi:namedview>
  <metadata
     id="metadata5">
    <rdf:RDF>
      <cc:Work
         rdf:about="">
        <dc:format>image/svg+xml</dc:format>
        <dc:type
           rdf:resource="http://purl.org/dc/dcmitype/StillImage" />
        <dc:title>OSF</dc:title>
        <cc:license
           rdf:resource="http://scripts.sil.org/OFL" />
        <dc:subject>
          <rdf:Bag>
            <rdf:li>OSF</rdf:li>
          </rdf:Bag>
        </dc:subject>
      </cc:Work>
      <cc:License
         rdf:about="http://scripts.sil.org/OFL">
        <cc:permits
           rdf:resource="http://scripts.sil.org/pub/OFL/Reproduction" />
        <cc:permits
           rdf:resource="http://scripts.sil.org/pub/OFL/Distribution" />
        <cc:permits
           rdf:resource="http://scripts.sil.org/pub/OFL/Embedding" />
        <cc:permits
           rdf:resource="http://scripts.sil.org/pub/OFL/DerivativeWorks" />
        <cc:requires
           rdf:resource="http://scripts.sil.org/pub/OFL/Notice" />
        <cc:requires
           rdf:resource="http://scripts.sil.org/pub/OFL/Attribution" />
        <cc:requires
           rdf:resource="http://scripts.sil.org/pub/OFL/ShareAlike" />
        <cc:requires
           rdf:resource="http://scripts.sil.org/pub/OFL/DerivativeRenaming" />
        <cc:requires
           rdf:resource="http://scripts.sil.org/pub/OFL/BundlingWhenSelling" />
      </cc:License>
    </rdf:RDF>
  </metadata>
  <g
     inkscape:label="icon"
     id="layer6"
     inkscape:groupmode="layer">
    <path
       id="path2"
       d="M 48 32 C 21.5 32 0 53.5 0 80 L 0 432 C 0 458.5 21.5 480 48 480 L 400 480 C 426.5 480 448 458.5 448 432 L 448 80 C 448 53.5 426.5 32 400 32 L 48 32 z M 224 96 C 246.16777 96 264.1366 113.97053 264.13867 136.13867 C 264.13867 149.2385 257.76918 160.75929 248.0625 168.08594 C 247.9411 154.88729 237.22635 144.21875 224 144.21875 C 210.77364 144.21875 200.0589 154.88729 199.9375 168.08594 C 190.22973 160.75929 183.86133 149.23742 183.86133 136.13867 C 183.86133 113.97053 201.83186 96 224 96 z M 139.24414 131.10742 C 149.51633 131.10742 159.78895 135.02601 167.62695 142.86328 C 176.88846 152.12734 180.53216 164.77629 178.84961 176.82031 C 178.90283 176.87228 178.96633 176.90588 179.01953 176.95898 C 188.42469 186.36414 188.42469 201.61436 179.01953 211.01953 C 169.61437 220.42469 154.36219 220.42469 144.95703 211.01953 C 144.90528 210.96638 144.87046 210.90271 144.81836 210.84961 C 132.77435 212.53325 120.1259 208.89152 110.86328 199.62891 C 95.187293 183.95292 95.187293 158.53927 110.86328 142.86328 C 118.70074 135.02601 128.97195 131.10742 139.24414 131.10742 z M 308.75586 131.10742 C 319.02823 131.10742 329.29945 135.02601 337.13672 142.86328 C 352.81114 158.53934 352.81177 183.95131 337.13867 199.62695 C 327.87605 208.88848 315.22564 212.53216 303.18164 210.84961 C 303.12826 210.90276 303.09607 210.96643 303.04297 211.01953 C 293.63779 220.42468 278.38562 220.42468 268.98047 211.01953 C 259.5753 201.61437 259.5753 186.36414 268.98047 176.95898 C 269.03362 176.90702 269.09924 176.87251 269.15234 176.82031 C 267.46868 164.77485 271.11044 152.1259 280.37305 142.86328 C 288.2105 135.02601 298.48349 131.10742 308.75586 131.10742 z M 104.13867 215.86133 C 117.23741 215.86133 128.75927 222.2294 136.08594 231.9375 C 122.88728 232.05745 112.21875 242.77329 112.21875 256 C 112.21875 269.22638 122.88728 279.94108 136.08594 280.0625 C 128.75927 289.77027 117.23741 296.13867 104.13867 296.13867 C 81.970533 296.13867 64 278.16813 64 256 C 64 233.83186 81.970533 215.86133 104.13867 215.86133 z M 343.86133 215.86133 C 366.02947 215.86133 384 233.83225 384 256 C 384 278.16779 366.02995 296.13667 343.86328 296.13867 C 330.76342 296.13867 319.24269 289.77111 311.91602 280.06445 C 325.11322 279.94303 335.78125 269.22636 335.78125 256 C 335.78125 242.77365 325.1127 232.05891 311.91406 231.9375 C 319.23926 222.22975 330.76258 215.86133 343.86133 215.86133 z M 161.98828 293.92578 C 168.15229 293.92574 174.31695 296.27771 179.01953 300.98047 C 188.42469 310.386 188.42469 325.63389 179.01953 335.03906 C 178.96593 335.09242 178.90236 335.12693 178.84766 335.17773 C 180.5313 347.22321 176.88956 359.87215 167.62695 369.13477 C 151.95205 384.8093 126.53782 384.8093 110.86328 369.13477 C 95.187291 353.45987 95.187291 328.04562 110.86328 312.37109 C 120.12589 303.10701 132.77484 299.46588 144.82031 301.14844 C 144.87206 301.0967 144.90568 301.03357 144.95898 300.98047 C 149.66156 296.27789 155.82427 293.92583 161.98828 293.92578 z M 286.01172 293.92578 C 292.17574 293.92578 298.33843 296.27789 303.04102 300.98047 C 303.09438 301.03221 303.12749 301.09534 303.17969 301.14844 C 315.22518 299.46588 327.87413 303.10849 337.13672 312.37109 L 337.13867 312.37109 C 352.81266 328.046 352.81271 353.46219 337.13672 369.13672 C 321.46182 384.81126 296.0476 384.81126 280.37305 369.13672 C 271.11154 359.87412 267.46783 347.22518 269.15039 335.17969 C 269.09724 335.12774 269.03387 335.09442 268.98047 335.04102 C 259.57532 325.6355 259.57532 310.38562 268.98047 300.98047 C 273.68305 296.27789 279.8477 293.92578 286.01172 293.92578 z M 199.9375 343.91406 C 200.05855 357.11271 210.77364 367.78125 224 367.78125 C 237.22636 367.78125 247.94111 357.11415 248.0625 343.91406 C 257.77026 351.24071 264.13867 362.76258 264.13867 375.86133 C 264.13867 398.02946 246.16814 416 224 416 C 201.83187 416 183.86133 398.02946 183.86133 375.86133 C 183.86133 362.76147 190.22937 351.24071 199.9375 343.91406 z " />
  </g>
</svg>
