<?xml version="1.0" encoding="UTF-8" standalone="no"?>
<svg
   xmlns:dc="http://purl.org/dc/elements/1.1/"
   xmlns:cc="http://creativecommons.org/ns#"
   xmlns:rdf="http://www.w3.org/1999/02/22-rdf-syntax-ns#"
   xmlns:svg="http://www.w3.org/2000/svg"
   xmlns="http://www.w3.org/2000/svg"
   xmlns:sodipodi="http://sodipodi.sourceforge.net/DTD/sodipodi-0.dtd"
   xmlns:inkscape="http://www.inkscape.org/namespaces/inkscape"
   sodipodi:docname="template-square.svg"
   inkscape:version="1.0 (1.0+r73+1)"
   id="svg8"
   version="1.1"
   viewBox="0 0 448 512"
   height="512"
   width="448">
  <title
     id="title1431">PhilPapers</title>
  <defs
     id="defs2" />
  <sodipodi:namedview
     inkscape:window-maximized="1"
     inkscape:window-y="27"
     inkscape:window-x="51"
     inkscape:window-height="713"
     inkscape:window-width="1315"
     inkscape:guide-bbox="true"
     showguides="true"
     units="px"
     showgrid="true"
     inkscape:document-rotation="0"
     inkscape:current-layer="layer6"
     inkscape:document-units="px"
     inkscape:cy="256"
     inkscape:cx="203.33333"
     inkscape:zoom="0.75"
     inkscape:pageshadow="2"
     inkscape:pageopacity="0.0"
     borderopacity="1.0"
     bordercolor="#666666"
     pagecolor="#ffffff"
     id="base">
    <inkscape:grid
       empspacing="4"
       id="grid10"
       type="xygrid" />
    <sodipodi:guide
       inkscape:color="rgb(0,0,255)"
       inkscape:locked="true"
       inkscape:label=""
       id="guide832"
       orientation="0,1"
       position="448,416" />
    <sodipodi:guide
       inkscape:color="rgb(0,0,255)"
       inkscape:locked="true"
       inkscape:label=""
       id="guide834"
       orientation="0,1"
       position="448,96" />
    <sodipodi:guide
       inkscape:color="rgb(0,0,255)"
       inkscape:locked="true"
       inkscape:label="baseline"
       id="guide836"
       orientation="0,1"
       position="448,64" />
    <sodipodi:guide
       position="64,512"
       orientation="1,0"
       id="guide835" />
    <sodipodi:guide
       position="384,512"
       orientation="1,0"
       id="guide837" />
  </sodipodi:namedview>
  <metadata
     id="metadata5">
    <rdf:RDF>
      <cc:Work
         rdf:about="">
        <dc:format>image/svg+xml</dc:format>
        <dc:type
           rdf:resource="http://purl.org/dc/dcmitype/StillImage" />
        <dc:title>PhilPapers</dc:title>
        <cc:license
           rdf:resource="http://scripts.sil.org/OFL" />
        <dc:subject>
          <rdf:Bag>
            <rdf:li>PhilPapers</rdf:li>
          </rdf:Bag>
        </dc:subject>
      </cc:Work>
      <cc:License
         rdf:about="http://scripts.sil.org/OFL">
        <cc:permits
           rdf:resource="http://scripts.sil.org/pub/OFL/Reproduction" />
        <cc:permits
           rdf:resource="http://scripts.sil.org/pub/OFL/Distribution" />
        <cc:permits
           rdf:resource="http://scripts.sil.org/pub/OFL/Embedding" />
        <cc:permits
           rdf:resource="http://scripts.sil.org/pub/OFL/DerivativeWorks" />
        <cc:requires
           rdf:resource="http://scripts.sil.org/pub/OFL/Notice" />
        <cc:requires
           rdf:resource="http://scripts.sil.org/pub/OFL/Attribution" />
        <cc:requires
           rdf:resource="http://scripts.sil.org/pub/OFL/ShareAlike" />
        <cc:requires
           rdf:resource="http://scripts.sil.org/pub/OFL/DerivativeRenaming" />
        <cc:requires
           rdf:resource="http://scripts.sil.org/pub/OFL/BundlingWhenSelling" />
      </cc:License>
    </rdf:RDF>
  </metadata>
  <g
     inkscape:label="icon"
     id="layer6"
     inkscape:groupmode="layer">
    <path
       d="M 48 32 C 21.5 32 0 53.5 0 80 L 0 432 C 0 458.5 21.5 480 48 480 L 400 480 C 426.5 480 448 458.5 448 432 L 448 80 C 448 53.5 426.5 32 400 32 L 48 32 z M 181.64062 96 L 238.07812 96 A 65.328742 65.322487 0 0 1 266.04883 109.72266 A 70.318365 70.311637 0 0 1 286.64062 137.9082 A 98.091383 98.081991 0 0 1 293.84961 175.94727 C 293.84961 200.88334 285.60067 220.84912 269.09766 235.84375 A 56.931208 56.92576 0 0 1 244.96289 249.36328 L 244.96289 249.36523 C 235.94877 251.80904 223.09331 253.02633 206.39453 253.01562 L 181.64062 253.01562 L 181.64062 96 z M 64 96.015625 L 96.490234 96.015625 A 46.111872 46.107463 0 0 1 101.26953 97.996094 A 41.375662 41.371699 0 0 1 117.94727 113.03125 L 117.94922 113.03125 A 51.757447 51.752493 0 0 1 124.36719 132.10547 A 224.30123 224.27977 0 0 1 126.26953 165.59766 L 126.26953 351.84766 C 126.26953 369.20517 125.34262 382.00728 123.48633 390.25781 A 40.906577 40.902666 0 0 1 112.65625 410.72461 A 44.375926 44.37168 0 0 1 106.54492 416 L 64 416 L 64 96.015625 z M 301.91211 96.015625 L 384 96.015625 L 384 416 L 201.44336 416 A 44.400899 44.396651 0 0 1 195.33203 410.72461 A 42.773425 42.769331 0 0 1 184.5957 390.13477 C 182.65702 381.79203 181.6875 369.02903 181.6875 351.84766 L 181.6875 261.11914 L 231.19531 261.11914 C 253.09212 261.11914 266.90663 260.8686 272.64062 260.36328 C 290.66921 258.84735 306.0023 254.38135 318.63672 246.9668 C 342.90573 232.65216 355.04102 210.07835 355.04102 179.24219 C 355.04102 148.91136 343.07535 124.64904 319.14648 106.45703 A 87.061666 87.053333 0 0 0 301.91211 96.015625 z "
       id="path2" />
  </g>
</svg>
