<?xml version="1.0" encoding="UTF-8" standalone="no"?>
<svg
   xmlns:dc="http://purl.org/dc/elements/1.1/"
   xmlns:cc="http://creativecommons.org/ns#"
   xmlns:rdf="http://www.w3.org/1999/02/22-rdf-syntax-ns#"
   xmlns:svg="http://www.w3.org/2000/svg"
   xmlns="http://www.w3.org/2000/svg"
   xmlns:sodipodi="http://sodipodi.sourceforge.net/DTD/sodipodi-0.dtd"
   xmlns:inkscape="http://www.inkscape.org/namespaces/inkscape"
   width="512"
   height="512"
   viewBox="0 0 512 512"
   version="1.1"
   id="svg8"
   inkscape:version="1.0 (1.0+r73+1)"
   sodipodi:docname="philpapers.svg">
  <title
     id="title833">PhilPapers</title>
  <defs
     id="defs2" />
  <sodipodi:namedview
     id="base"
     pagecolor="#ffffff"
     bordercolor="#666666"
     borderopacity="1.0"
     inkscape:pageopacity="0.0"
     inkscape:pageshadow="2"
     inkscape:zoom="0.75"
     inkscape:cx="256"
     inkscape:cy="256"
     inkscape:document-units="px"
     inkscape:current-layer="layer6"
     inkscape:document-rotation="0"
     showgrid="true"
     units="px"
     showguides="true"
     inkscape:guide-bbox="true"
     inkscape:window-width="1315"
     inkscape:window-height="713"
     inkscape:window-x="51"
     inkscape:window-y="27"
     inkscape:window-maximized="1">
    <inkscape:grid
       type="xygrid"
       id="grid10"
       empspacing="4" />
    <sodipodi:guide
       position="511.99998,64"
       orientation="0,1"
       id="guide23"
       inkscape:label="baseline"
       inkscape:locked="true"
       inkscape:color="rgb(0,0,255)" />
  </sodipodi:namedview>
  <metadata
     id="metadata5">
    <rdf:RDF>
      <cc:Work
         rdf:about="">
        <dc:format>image/svg+xml</dc:format>
        <dc:type
           rdf:resource="http://purl.org/dc/dcmitype/StillImage" />
        <dc:title>PhilPapers</dc:title>
        <cc:license
           rdf:resource="http://scripts.sil.org/OFL" />
        <dc:subject>
          <rdf:Bag>
            <rdf:li>PhilPapers</rdf:li>
          </rdf:Bag>
        </dc:subject>
      </cc:Work>
      <cc:License
         rdf:about="http://scripts.sil.org/OFL">
        <cc:permits
           rdf:resource="http://scripts.sil.org/pub/OFL/Reproduction" />
        <cc:permits
           rdf:resource="http://scripts.sil.org/pub/OFL/Distribution" />
        <cc:permits
           rdf:resource="http://scripts.sil.org/pub/OFL/Embedding" />
        <cc:permits
           rdf:resource="http://scripts.sil.org/pub/OFL/DerivativeWorks" />
        <cc:requires
           rdf:resource="http://scripts.sil.org/pub/OFL/Notice" />
        <cc:requires
           rdf:resource="http://scripts.sil.org/pub/OFL/Attribution" />
        <cc:requires
           rdf:resource="http://scripts.sil.org/pub/OFL/ShareAlike" />
        <cc:requires
           rdf:resource="http://scripts.sil.org/pub/OFL/DerivativeRenaming" />
        <cc:requires
           rdf:resource="http://scripts.sil.org/pub/OFL/BundlingWhenSelling" />
      </cc:License>
    </rdf:RDF>
  </metadata>
  <g
     inkscape:groupmode="layer"
     id="layer6"
     inkscape:label="icon">
    <path
       style="stroke-width:0.0675269"
       d="M 281.1554,248.03682 A 68.31745,68.310912 0 0 0 310.11679,231.813 c 19.80361,-17.99355 29.70388,-41.9537 29.70388,-71.87698 A 117.70966,117.69839 0 0 0 331.16872,114.28938 84.382038,84.373965 0 0 0 306.45893,80.4671 78.394491,78.386985 0 0 0 272.89418,63.999997 H 205.16914 V 252.41796 h 29.70392 c 20.03854,0.0128 35.46585,-1.44813 46.28279,-4.3807 z M 349.49475,64.019238 a 104.474,104.464 0 0 1 20.68219,12.529589 c 28.71464,21.830411 43.07125,50.943873 43.07125,87.340863 0,37.00339 -14.56143,64.09299 -43.68424,81.27056 -15.16131,8.89745 -33.55994,14.25597 -55.19425,16.07509 -6.8808,0.60638 -23.45971,0.90869 -49.73588,0.90869 h -59.40908 v 108.87378 c 0,20.61764 1.1634,35.93281 3.48982,45.9441 a 51.32811,51.323197 0 0 0 12.88432,24.70742 53.281079,53.275981 0 0 0 7.33363,6.3298 H 448 V 64.019238 H 349.4943 Z M 128.73748,84.438265 A 49.650794,49.646039 0 0 0 108.72429,66.394868 55.334247,55.328956 0 0 0 102.98765,64.018815 H 64.000003 V 448 h 51.054657 a 53.251111,53.246016 0 0 0 7.33363,-6.32981 49.087893,49.083199 0 0 0 12.99502,-24.55993 c 2.22754,-9.90063 3.34109,-25.26388 3.34109,-46.09289 V 147.51624 a 269.16148,269.13573 0 0 0 -2.28355,-40.1888 62.108937,62.102992 0 0 0 -7.70292,-22.889594 z"
       id="path2" />
  </g>
</svg>
