<?xml version="1.0" encoding="UTF-8" standalone="no"?>
<svg
   xmlns:dc="http://purl.org/dc/elements/1.1/"
   xmlns:cc="http://creativecommons.org/ns#"
   xmlns:rdf="http://www.w3.org/1999/02/22-rdf-syntax-ns#"
   xmlns:svg="http://www.w3.org/2000/svg"
   xmlns="http://www.w3.org/2000/svg"
   xmlns:sodipodi="http://sodipodi.sourceforge.net/DTD/sodipodi-0.dtd"
   xmlns:inkscape="http://www.inkscape.org/namespaces/inkscape"
   sodipodi:docname="template-square.svg"
   inkscape:version="1.0 (1.0+r73+1)"
   id="svg8"
   version="1.1"
   viewBox="0 0 448 512"
   height="512"
   width="448">
  <title
     id="title1458">Piazza</title>
  <defs
     id="defs2" />
  <sodipodi:namedview
     inkscape:window-maximized="1"
     inkscape:window-y="27"
     inkscape:window-x="51"
     inkscape:window-height="713"
     inkscape:window-width="1315"
     inkscape:guide-bbox="true"
     showguides="true"
     units="px"
     showgrid="true"
     inkscape:document-rotation="0"
     inkscape:current-layer="layer6"
     inkscape:document-units="px"
     inkscape:cy="256"
     inkscape:cx="203.33333"
     inkscape:zoom="0.75"
     inkscape:pageshadow="2"
     inkscape:pageopacity="0.0"
     borderopacity="1.0"
     bordercolor="#666666"
     pagecolor="#ffffff"
     id="base">
    <inkscape:grid
       empspacing="4"
       id="grid10"
       type="xygrid" />
    <sodipodi:guide
       inkscape:color="rgb(0,0,255)"
       inkscape:locked="true"
       inkscape:label=""
       id="guide832"
       orientation="0,1"
       position="448,416" />
    <sodipodi:guide
       inkscape:color="rgb(0,0,255)"
       inkscape:locked="true"
       inkscape:label=""
       id="guide834"
       orientation="0,1"
       position="448,96" />
    <sodipodi:guide
       inkscape:color="rgb(0,0,255)"
       inkscape:locked="true"
       inkscape:label="baseline"
       id="guide836"
       orientation="0,1"
       position="448,64" />
    <sodipodi:guide
       position="64,512"
       orientation="1,0"
       id="guide835" />
    <sodipodi:guide
       position="384,512"
       orientation="1,0"
       id="guide837" />
  </sodipodi:namedview>
  <metadata
     id="metadata5">
    <rdf:RDF>
      <cc:Work
         rdf:about="">
        <dc:format>image/svg+xml</dc:format>
        <dc:type
           rdf:resource="http://purl.org/dc/dcmitype/StillImage" />
        <dc:title>Piazza</dc:title>
        <cc:license
           rdf:resource="http://scripts.sil.org/OFL" />
        <dc:subject>
          <rdf:Bag>
            <rdf:li>Piazza</rdf:li>
          </rdf:Bag>
        </dc:subject>
      </cc:Work>
      <cc:License
         rdf:about="http://scripts.sil.org/OFL">
        <cc:permits
           rdf:resource="http://scripts.sil.org/pub/OFL/Reproduction" />
        <cc:permits
           rdf:resource="http://scripts.sil.org/pub/OFL/Distribution" />
        <cc:permits
           rdf:resource="http://scripts.sil.org/pub/OFL/Embedding" />
        <cc:permits
           rdf:resource="http://scripts.sil.org/pub/OFL/DerivativeWorks" />
        <cc:requires
           rdf:resource="http://scripts.sil.org/pub/OFL/Notice" />
        <cc:requires
           rdf:resource="http://scripts.sil.org/pub/OFL/Attribution" />
        <cc:requires
           rdf:resource="http://scripts.sil.org/pub/OFL/ShareAlike" />
        <cc:requires
           rdf:resource="http://scripts.sil.org/pub/OFL/DerivativeRenaming" />
        <cc:requires
           rdf:resource="http://scripts.sil.org/pub/OFL/BundlingWhenSelling" />
      </cc:License>
    </rdf:RDF>
  </metadata>
  <g
     inkscape:label="icon"
     id="layer6"
     inkscape:groupmode="layer">
    <path
       d="M 48 32 C 21.5 32 0 53.5 0 80 L 0 432 C 0 458.5 21.5 480 48 480 L 400 480 C 426.5 480 448 458.5 448 432 L 448 80 C 448 53.5 426.5 32 400 32 L 48 32 z M 226.67578 96 C 232.27474 96.015941 237.53773 96.307249 241.30078 96.904297 C 264.66625 100.61103 284.81322 110.82352 301.36133 127.35156 C 330.60531 156.55689 340.62692 199.18214 327.49609 238.51562 C 322.23331 254.27803 314.54314 266.91825 302.875 278.98633 C 293.82713 288.34226 285.42792 294.64598 274.53711 300.25 C 263.80118 305.77528 254.35038 308.95219 242.78906 310.92969 C 230.40089 313.04828 212.27083 312.54736 200.36133 309.75391 C 186.19871 306.43366 171.42746 299.56652 159.90625 290.94922 C 152.12385 285.12792 152.87695 278.60842 152.87695 351.83398 L 152.87695 416 L 114.82617 416 L 114.82617 305.01367 L 114.82812 305.01367 C 114.82812 210.74837 114.99685 193.01642 115.93164 187.3125 C 123.13837 143.32841 156.54341 108.39221 201.2793 98.050781 C 207.08028 96.709123 217.34418 95.973431 226.67578 96 z M 223.75977 136.62109 C 212.58747 136.66229 210.84516 136.85178 204.89844 138.67578 C 191.81316 142.68912 181.53187 149.12044 172.47852 158.95508 C 166.67326 165.26311 163.53709 170.16477 159.83984 178.7168 C 152.06255 196.70754 152.71473 218.74786 161.55078 236.39844 C 173.25464 259.77846 195.31048 273.94099 222.64258 275.625 C 223.46253 275.6757 227.15638 275.37364 230.84961 274.95508 C 239.8614 273.93243 245.16227 272.431 253.57031 268.51758 C 272.49295 259.70923 286.05201 243.38367 291.41211 222.95312 C 294.01997 213.01456 294.16886 199.38388 291.77539 189.64258 C 285.68062 164.83047 266.90637 145.44451 242.04102 138.29102 C 236.84933 136.79769 234.46904 136.58089 223.75977 136.62109 z "
       id="path2" />
  </g>
</svg>
