<?xml version="1.0" encoding="UTF-8" standalone="no"?>
<svg
   xmlns:dc="http://purl.org/dc/elements/1.1/"
   xmlns:cc="http://creativecommons.org/ns#"
   xmlns:rdf="http://www.w3.org/1999/02/22-rdf-syntax-ns#"
   xmlns:svg="http://www.w3.org/2000/svg"
   xmlns="http://www.w3.org/2000/svg"
   xmlns:sodipodi="http://sodipodi.sourceforge.net/DTD/sodipodi-0.dtd"
   xmlns:inkscape="http://www.inkscape.org/namespaces/inkscape"
   width="448"
   height="512"
   viewBox="0 0 448 512"
   version="1.1"
   id="svg8"
   inkscape:version="1.0 (1.0+r73+1)"
   sodipodi:docname="preregistered-de-square.svg">
  <title
     id="title1242">Preregistered DE</title>
  <defs
     id="defs2" />
  <sodipodi:namedview
     id="base"
     pagecolor="#ffffff"
     bordercolor="#666666"
     borderopacity="1.0"
     inkscape:pageopacity="0.0"
     inkscape:pageshadow="2"
     inkscape:zoom="0.75"
     inkscape:cx="203.33333"
     inkscape:cy="256"
     inkscape:document-units="px"
     inkscape:current-layer="layer6"
     inkscape:document-rotation="0"
     showgrid="true"
     units="px"
     showguides="true"
     inkscape:guide-bbox="true"
     inkscape:window-width="1315"
     inkscape:window-height="713"
     inkscape:window-x="51"
     inkscape:window-y="27"
     inkscape:window-maximized="1">
    <inkscape:grid
       type="xygrid"
       id="grid10"
       empspacing="4" />
    <sodipodi:guide
       position="448,416"
       orientation="0,1"
       id="guide832"
       inkscape:label=""
       inkscape:locked="true"
       inkscape:color="rgb(0,0,255)" />
    <sodipodi:guide
       position="448,96"
       orientation="0,1"
       id="guide834"
       inkscape:label=""
       inkscape:locked="true"
       inkscape:color="rgb(0,0,255)" />
    <sodipodi:guide
       position="448,64"
       orientation="0,1"
       id="guide836"
       inkscape:label="baseline"
       inkscape:locked="true"
       inkscape:color="rgb(0,0,255)" />
    <sodipodi:guide
       id="guide835"
       orientation="1,0"
       position="64,512" />
    <sodipodi:guide
       id="guide837"
       orientation="1,0"
       position="384,512" />
  </sodipodi:namedview>
  <metadata
     id="metadata5">
    <rdf:RDF>
      <cc:Work
         rdf:about="">
        <dc:format>image/svg+xml</dc:format>
        <dc:type
           rdf:resource="http://purl.org/dc/dcmitype/StillImage" />
        <dc:title>Preregistered DE</dc:title>
        <cc:license
           rdf:resource="http://scripts.sil.org/OFL" />
        <dc:subject>
          <rdf:Bag>
            <rdf:li>Open Science Badges</rdf:li>
            <rdf:li>Preregistered</rdf:li>
          </rdf:Bag>
        </dc:subject>
      </cc:Work>
      <cc:License
         rdf:about="http://scripts.sil.org/OFL">
        <cc:permits
           rdf:resource="http://scripts.sil.org/pub/OFL/Reproduction" />
        <cc:permits
           rdf:resource="http://scripts.sil.org/pub/OFL/Distribution" />
        <cc:permits
           rdf:resource="http://scripts.sil.org/pub/OFL/Embedding" />
        <cc:permits
           rdf:resource="http://scripts.sil.org/pub/OFL/DerivativeWorks" />
        <cc:requires
           rdf:resource="http://scripts.sil.org/pub/OFL/Notice" />
        <cc:requires
           rdf:resource="http://scripts.sil.org/pub/OFL/Attribution" />
        <cc:requires
           rdf:resource="http://scripts.sil.org/pub/OFL/ShareAlike" />
        <cc:requires
           rdf:resource="http://scripts.sil.org/pub/OFL/DerivativeRenaming" />
        <cc:requires
           rdf:resource="http://scripts.sil.org/pub/OFL/BundlingWhenSelling" />
      </cc:License>
    </rdf:RDF>
  </metadata>
  <g
     inkscape:groupmode="layer"
     id="layer6"
     inkscape:label="icon">
    <path
       id="path2"
       d="M 48 32 C 21.5 32 0 53.5 0 80 L 0 432 C 0 458.5 21.5 480 48 480 L 400 480 C 426.5 480 448 458.5 448 432 L 448 80 C 448 53.5 426.5 32 400 32 L 48 32 z M 224.02148 96 C 233.32502 96 242.66973 98.043924 249.7207 102.13672 L 344.38672 156.77734 C 358.53005 164.9546 370.12695 185.0057 370.12695 201.34766 L 370.12695 310.65039 C 370.12695 326.99654 358.53005 347.05548 344.38672 355.22852 L 249.7207 409.88281 C 242.66973 413.9631 233.32502 416 224.02148 416 C 214.67598 416 205.32991 413.9631 198.2793 409.88281 L 103.61523 355.22852 C 89.471907 347.05548 77.873047 326.99654 77.873047 310.65039 L 77.873047 201.34766 C 77.873047 185.0057 89.471907 164.9546 103.61523 156.77734 L 198.2793 102.13672 C 205.32991 98.043924 214.67598 96 224.02148 96 z M 193.60547 164.77148 L 193.60547 200.66406 L 209.29297 200.66406 C 219.55621 200.66406 227.85938 193.64113 227.85938 182.87305 C 227.85937 172.10494 219.55621 164.77148 209.29297 164.77148 L 193.60547 164.77148 z M 231.82031 164.77148 L 231.82031 200.66406 L 258.18945 200.66406 L 258.18945 192.61523 L 240.41797 192.61523 L 240.41797 186.25977 L 254.10156 186.25977 L 254.10156 178.71875 L 240.41797 178.71875 L 240.41797 172.81445 L 257.89648 172.81445 L 257.89648 164.77148 L 231.82031 164.77148 z M 202.24023 172.81445 L 209.29297 172.81445 C 214.42453 172.81445 218.88672 176.71509 218.88672 182.87305 C 218.88672 189.02267 214.42453 192.61523 209.29297 192.61523 L 202.24023 192.61523 L 202.24023 172.81445 z M 287.98438 218.35156 C 285.25676 218.35156 282.53191 219.38364 280.4668 221.45508 L 206.07812 295.83203 C 201.94777 299.97069 195.14987 299.97069 191.01953 295.83203 L 173.11914 277.94336 C 168.98878 273.79634 162.23254 273.79634 158.06055 277.94336 L 146.54688 289.44531 C 143.29263 292.71205 142.41655 300.3652 146.54688 304.50391 L 191.01953 348.96484 C 195.14987 353.1035 201.94778 353.1035 206.07812 348.96484 L 307.04492 248.02148 C 311.17526 243.87864 311.17526 237.10404 307.04492 232.95703 L 295.53125 221.45508 C 293.44509 219.38361 290.71164 218.35156 287.98438 218.35156 z " />
  </g>
</svg>
