<?xml version="1.0" encoding="UTF-8" standalone="no"?>
<svg
   xmlns:dc="http://purl.org/dc/elements/1.1/"
   xmlns:cc="http://creativecommons.org/ns#"
   xmlns:rdf="http://www.w3.org/1999/02/22-rdf-syntax-ns#"
   xmlns:svg="http://www.w3.org/2000/svg"
   xmlns="http://www.w3.org/2000/svg"
   xmlns:sodipodi="http://sodipodi.sourceforge.net/DTD/sodipodi-0.dtd"
   xmlns:inkscape="http://www.inkscape.org/namespaces/inkscape"
   sodipodi:docname="template-square.svg"
   inkscape:version="1.0 (1.0+r73+1)"
   id="svg8"
   version="1.1"
   viewBox="0 0 448 512"
   height="512"
   width="448">
  <title
     id="title1377">Preregistered TC+</title>
  <defs
     id="defs2" />
  <sodipodi:namedview
     inkscape:window-maximized="1"
     inkscape:window-y="27"
     inkscape:window-x="51"
     inkscape:window-height="713"
     inkscape:window-width="1315"
     inkscape:guide-bbox="true"
     showguides="true"
     units="px"
     showgrid="true"
     inkscape:document-rotation="0"
     inkscape:current-layer="layer6"
     inkscape:document-units="px"
     inkscape:cy="256"
     inkscape:cx="203.33333"
     inkscape:zoom="0.75"
     inkscape:pageshadow="2"
     inkscape:pageopacity="0.0"
     borderopacity="1.0"
     bordercolor="#666666"
     pagecolor="#ffffff"
     id="base">
    <inkscape:grid
       empspacing="4"
       id="grid10"
       type="xygrid" />
    <sodipodi:guide
       inkscape:color="rgb(0,0,255)"
       inkscape:locked="true"
       inkscape:label=""
       id="guide832"
       orientation="0,1"
       position="448,416" />
    <sodipodi:guide
       inkscape:color="rgb(0,0,255)"
       inkscape:locked="true"
       inkscape:label=""
       id="guide834"
       orientation="0,1"
       position="448,96" />
    <sodipodi:guide
       inkscape:color="rgb(0,0,255)"
       inkscape:locked="true"
       inkscape:label="baseline"
       id="guide836"
       orientation="0,1"
       position="448,64" />
    <sodipodi:guide
       position="64,512"
       orientation="1,0"
       id="guide835" />
    <sodipodi:guide
       position="384,512"
       orientation="1,0"
       id="guide837" />
  </sodipodi:namedview>
  <metadata
     id="metadata5">
    <rdf:RDF>
      <cc:Work
         rdf:about="">
        <dc:format>image/svg+xml</dc:format>
        <dc:type
           rdf:resource="http://purl.org/dc/dcmitype/StillImage" />
        <dc:title>Preregistered TC+</dc:title>
        <cc:license
           rdf:resource="http://scripts.sil.org/OFL" />
      </cc:Work>
      <cc:License
         rdf:about="http://scripts.sil.org/OFL">
        <cc:permits
           rdf:resource="http://scripts.sil.org/pub/OFL/Reproduction" />
        <cc:permits
           rdf:resource="http://scripts.sil.org/pub/OFL/Distribution" />
        <cc:permits
           rdf:resource="http://scripts.sil.org/pub/OFL/Embedding" />
        <cc:permits
           rdf:resource="http://scripts.sil.org/pub/OFL/DerivativeWorks" />
        <cc:requires
           rdf:resource="http://scripts.sil.org/pub/OFL/Notice" />
        <cc:requires
           rdf:resource="http://scripts.sil.org/pub/OFL/Attribution" />
        <cc:requires
           rdf:resource="http://scripts.sil.org/pub/OFL/ShareAlike" />
        <cc:requires
           rdf:resource="http://scripts.sil.org/pub/OFL/DerivativeRenaming" />
        <cc:requires
           rdf:resource="http://scripts.sil.org/pub/OFL/BundlingWhenSelling" />
      </cc:License>
    </rdf:RDF>
  </metadata>
  <g
     inkscape:label="icon"
     id="layer6"
     inkscape:groupmode="layer">
    <path
       d="M 48 32 C 21.5 32 0 53.5 0 80 L 0 432 C 0 458.5 21.5 480 48 480 L 400 480 C 426.5 480 448 458.5 448 432 L 448 80 C 448 53.5 426.5 32 400 32 L 48 32 z M 223.95117 96 C 233.3375 96 242.61982 98.044026 249.69727 102.13477 L 344.36133 156.77734 C 358.51593 164.95384 370.11523 185.01051 370.11523 201.35352 L 370.11523 310.64648 C 370.11523 326.98951 358.51593 347.04615 344.36133 355.22266 L 249.69727 409.87695 C 242.61982 413.95764 233.3375 416 223.95117 416 C 214.66559 416 205.32355 413.95764 198.24609 409.87695 L 103.58203 355.22266 C 89.427438 347.04615 77.884766 326.98951 77.884766 310.64648 L 77.884766 201.35352 C 77.884766 185.01051 89.427438 164.95384 103.58203 156.77734 L 198.24609 102.13477 C 205.32355 98.044026 214.61553 96 223.95117 96 z M 239.85352 164.76953 C 229.21122 164.76953 220.64453 172.84757 220.64453 183.99023 C 220.64453 195.12795 229.21122 203.20508 239.85352 203.20508 C 247.52613 203.20508 254.15766 198.87514 257.22656 192.32617 L 248.26758 190.00391 C 246.73311 192.53838 243.31887 194.33008 239.85352 194.33008 C 234.06208 194.33008 229.9043 190.37089 229.9043 183.99023 C 229.9043 177.91152 233.71571 173.52734 239.85352 173.52734 C 242.72469 173.52734 245.88816 174.85414 247.52148 176.96289 L 256.58594 174.5918 C 253.31866 168.67645 247.08118 164.76953 239.85352 164.76953 z M 186.9707 165.14258 L 186.9707 173.11914 L 197.66016 173.11914 L 197.66016 200.6875 L 206.18555 200.6875 L 206.18555 173.11914 L 216.97266 173.11914 L 216.97266 165.14258 L 186.9707 165.14258 z M 287.97852 214.16797 C 285.25003 214.16797 282.52497 215.20293 280.45703 217.27344 L 206.05664 291.64648 C 201.92074 295.78749 195.19645 295.78749 191.06055 291.64648 L 173.11719 273.75977 C 168.981 269.61379 162.20848 269.61379 158.07227 273.75977 L 146.55664 285.26172 C 143.31782 288.5307 142.42106 296.18516 146.55664 300.32617 L 191.06055 344.7793 C 195.19645 348.92035 201.92074 348.92035 206.05664 344.7793 L 307.01562 243.83789 C 311.15149 239.69688 311.1515 232.92445 307.01562 228.77344 L 295.50781 217.27344 C 293.43986 215.20296 290.70667 214.16797 287.97852 214.16797 z M 294.44531 293.55469 L 294.44531 308.63086 L 279.67383 308.63086 L 279.67383 319.90625 L 294.54297 319.90625 L 294.54297 334.64062 L 306.57031 334.64062 L 306.57031 319.90625 L 321.28516 319.90625 L 321.28516 308.63086 L 306.4668 308.63086 L 306.4668 293.55469 L 294.44531 293.55469 z "
       id="path2" />
  </g>
</svg>
