<?xml version="1.0" encoding="UTF-8" standalone="no"?>
<svg
   xmlns:dc="http://purl.org/dc/elements/1.1/"
   xmlns:cc="http://creativecommons.org/ns#"
   xmlns:rdf="http://www.w3.org/1999/02/22-rdf-syntax-ns#"
   xmlns:svg="http://www.w3.org/2000/svg"
   xmlns="http://www.w3.org/2000/svg"
   xmlns:sodipodi="http://sodipodi.sourceforge.net/DTD/sodipodi-0.dtd"
   xmlns:inkscape="http://www.inkscape.org/namespaces/inkscape"
   width="512"
   height="512"
   viewBox="0 0 512 512"
   version="1.1"
   id="svg8"
   inkscape:version="1.0 (1.0+r73+1)"
   sodipodi:docname="preregistered-tc.svg">
  <title
     id="title833">Preregistered TC</title>
  <defs
     id="defs2" />
  <sodipodi:namedview
     id="base"
     pagecolor="#ffffff"
     bordercolor="#666666"
     borderopacity="1.0"
     inkscape:pageopacity="0.0"
     inkscape:pageshadow="2"
     inkscape:zoom="0.75"
     inkscape:cx="256"
     inkscape:cy="256"
     inkscape:document-units="px"
     inkscape:current-layer="layer6"
     inkscape:document-rotation="0"
     showgrid="true"
     units="px"
     showguides="true"
     inkscape:guide-bbox="true"
     inkscape:window-width="1315"
     inkscape:window-height="713"
     inkscape:window-x="51"
     inkscape:window-y="27"
     inkscape:window-maximized="1">
    <inkscape:grid
       type="xygrid"
       id="grid10"
       empspacing="4" />
    <sodipodi:guide
       inkscape:color="rgb(0,0,255)"
       inkscape:locked="true"
       inkscape:label="baseline"
       position="511.99998,64"
       orientation="0,1"
       id="guide39" />
  </sodipodi:namedview>
  <metadata
     id="metadata5">
    <rdf:RDF>
      <cc:Work
         rdf:about="">
        <dc:format>image/svg+xml</dc:format>
        <dc:type
           rdf:resource="http://purl.org/dc/dcmitype/StillImage" />
        <dc:title>Preregistered TC</dc:title>
        <cc:license
           rdf:resource="http://scripts.sil.org/OFL" />
        <dc:subject>
          <rdf:Bag>
            <rdf:li>Open Science Badges</rdf:li>
            <rdf:li>Preregistered</rdf:li>
          </rdf:Bag>
        </dc:subject>
      </cc:Work>
      <cc:License
         rdf:about="http://scripts.sil.org/OFL">
        <cc:permits
           rdf:resource="http://scripts.sil.org/pub/OFL/Reproduction" />
        <cc:permits
           rdf:resource="http://scripts.sil.org/pub/OFL/Distribution" />
        <cc:permits
           rdf:resource="http://scripts.sil.org/pub/OFL/Embedding" />
        <cc:permits
           rdf:resource="http://scripts.sil.org/pub/OFL/DerivativeWorks" />
        <cc:requires
           rdf:resource="http://scripts.sil.org/pub/OFL/Notice" />
        <cc:requires
           rdf:resource="http://scripts.sil.org/pub/OFL/Attribution" />
        <cc:requires
           rdf:resource="http://scripts.sil.org/pub/OFL/ShareAlike" />
        <cc:requires
           rdf:resource="http://scripts.sil.org/pub/OFL/DerivativeRenaming" />
        <cc:requires
           rdf:resource="http://scripts.sil.org/pub/OFL/BundlingWhenSelling" />
      </cc:License>
    </rdf:RDF>
  </metadata>
  <g
     inkscape:groupmode="layer"
     id="layer6"
     inkscape:label="icon">
    <path
       id="path300"
       style="fill-opacity:1;fill-rule:nonzero;stroke:none;stroke-width:0.0352777"
       d="m 255.9665,7.9999985 c -14.42056,0 -28.90564,3.1667345 -39.89868,9.5105635 L 69.401682,102.20596 C 47.415089,114.88071 29.502973,145.96032 29.502973,171.29035 V 340.7096 c 0,25.33649 17.912116,56.42566 39.898709,69.09388 L 216.06782,494.51785 C 227.06086,500.84228 241.54594,504 255.9665,504 c 14.48556,0 28.90565,-3.15772 39.8992,-9.48215 l 146.7321,-84.71437 c 21.92209,-12.66822 39.89923,-43.75739 39.89923,-69.09388 V 171.29035 c 0,-25.33003 -17.97714,-56.40964 -39.89923,-69.08439 L 295.8657,17.510562 C 284.87215,11.166733 270.45206,7.9999985 255.9665,7.9999985 Z M 281.95971,114.59627 c 11.44607,0 21.21594,6.11088 26.32449,15.36472 l -14.16159,3.72278 c -2.65101,-3.30453 -7.57137,-5.37101 -12.1629,-5.37101 -9.57054,0 -15.51617,6.85629 -15.51617,16.36881 0,9.99105 6.52761,16.18884 15.51617,16.18884 5.56151,0 10.8694,-2.80888 13.26191,-6.773 l 14.02916,3.63752 c -4.78551,10.24324 -15.13352,17.02247 -27.29107,17.02247 -16.55458,0 -29.94307,-12.64163 -29.94307,-30.07583 0,-17.44718 13.38849,-30.0853 29.94307,-30.0853 z m -82.77241,2.25452 h 47.01322 v 12.47552 H 229.25357 V 172.4934 H 215.93491 V 129.32631 H 199.1873 Z m 155.94909,80.79264 c 4.23549,0 8.46956,1.60138 11.67059,4.81214 l 17.84616,17.82762 c 6.40203,6.42787 6.40203,16.92876 0,23.35018 L 228.22098,400.09398 c -6.46654,6.41492 -16.93867,6.41492 -23.34073,0 l -68.93284,-68.91391 c -6.40206,-6.41499 -5.04404,-18.27733 0,-23.34075 L 153.794,290.01171 c 6.40206,-6.42788 16.87419,-6.42788 23.34073,0 l 27.74552,27.72661 c 6.40206,6.41494 16.87419,6.41494 23.34073,0 L 343.45655,202.45557 c 3.20103,-3.21071 7.44432,-4.81214 11.67984,-4.81214 z" />
  </g>
</svg>
