<?xml version="1.0" encoding="UTF-8" standalone="no"?>
<svg
   xmlns:dc="http://purl.org/dc/elements/1.1/"
   xmlns:cc="http://creativecommons.org/ns#"
   xmlns:rdf="http://www.w3.org/1999/02/22-rdf-syntax-ns#"
   xmlns:svg="http://www.w3.org/2000/svg"
   xmlns="http://www.w3.org/2000/svg"
   xmlns:sodipodi="http://sodipodi.sourceforge.net/DTD/sodipodi-0.dtd"
   xmlns:inkscape="http://www.inkscape.org/namespaces/inkscape"
   sodipodi:docname="template-square.svg"
   inkscape:version="1.0 (1.0+r73+1)"
   id="svg8"
   version="1.1"
   viewBox="0 0 448 512"
   height="512"
   width="448">
  <title
     id="title1323">Preregistered DE TC+</title>
  <defs
     id="defs2" />
  <sodipodi:namedview
     inkscape:window-maximized="1"
     inkscape:window-y="27"
     inkscape:window-x="51"
     inkscape:window-height="713"
     inkscape:window-width="1315"
     inkscape:guide-bbox="true"
     showguides="true"
     units="px"
     showgrid="true"
     inkscape:document-rotation="0"
     inkscape:current-layer="layer6"
     inkscape:document-units="px"
     inkscape:cy="256"
     inkscape:cx="203.33333"
     inkscape:zoom="0.75"
     inkscape:pageshadow="2"
     inkscape:pageopacity="0.0"
     borderopacity="1.0"
     bordercolor="#666666"
     pagecolor="#ffffff"
     id="base">
    <inkscape:grid
       empspacing="4"
       id="grid10"
       type="xygrid" />
    <sodipodi:guide
       inkscape:color="rgb(0,0,255)"
       inkscape:locked="true"
       inkscape:label=""
       id="guide832"
       orientation="0,1"
       position="448,416" />
    <sodipodi:guide
       inkscape:color="rgb(0,0,255)"
       inkscape:locked="true"
       inkscape:label=""
       id="guide834"
       orientation="0,1"
       position="448,96" />
    <sodipodi:guide
       inkscape:color="rgb(0,0,255)"
       inkscape:locked="true"
       inkscape:label="baseline"
       id="guide836"
       orientation="0,1"
       position="448,64" />
    <sodipodi:guide
       position="64,512"
       orientation="1,0"
       id="guide835" />
    <sodipodi:guide
       position="384,512"
       orientation="1,0"
       id="guide837" />
  </sodipodi:namedview>
  <metadata
     id="metadata5">
    <rdf:RDF>
      <cc:Work
         rdf:about="">
        <dc:format>image/svg+xml</dc:format>
        <dc:type
           rdf:resource="http://purl.org/dc/dcmitype/StillImage" />
        <dc:title>Preregistered DE TC+</dc:title>
        <cc:license
           rdf:resource="http://scripts.sil.org/OFL" />
      </cc:Work>
      <cc:License
         rdf:about="http://scripts.sil.org/OFL">
        <cc:permits
           rdf:resource="http://scripts.sil.org/pub/OFL/Reproduction" />
        <cc:permits
           rdf:resource="http://scripts.sil.org/pub/OFL/Distribution" />
        <cc:permits
           rdf:resource="http://scripts.sil.org/pub/OFL/Embedding" />
        <cc:permits
           rdf:resource="http://scripts.sil.org/pub/OFL/DerivativeWorks" />
        <cc:requires
           rdf:resource="http://scripts.sil.org/pub/OFL/Notice" />
        <cc:requires
           rdf:resource="http://scripts.sil.org/pub/OFL/Attribution" />
        <cc:requires
           rdf:resource="http://scripts.sil.org/pub/OFL/ShareAlike" />
        <cc:requires
           rdf:resource="http://scripts.sil.org/pub/OFL/DerivativeRenaming" />
        <cc:requires
           rdf:resource="http://scripts.sil.org/pub/OFL/BundlingWhenSelling" />
      </cc:License>
    </rdf:RDF>
  </metadata>
  <g
     inkscape:label="icon"
     id="layer6"
     inkscape:groupmode="layer">
    <path
       d="M 48 32 C 21.5 32 0 53.5 0 80 L 0 432 C 0 458.5 21.5 480 48 480 L 400 480 C 426.5 480 448 458.5 448 432 L 448 80 C 448 53.5 426.5 32 400 32 L 48 32 z M 224.0332 96 C 233.30268 96 242.6964 98.0422 249.75586 102.13672 L 344.41602 156.77734 C 358.53492 164.95411 370.13281 185.00635 370.13281 201.34766 L 370.13281 310.64453 C 370.13281 326.99197 358.53492 347.05177 344.41602 355.22852 L 249.75586 409.87695 C 242.6964 413.95918 233.30268 416 224.0332 416 C 214.7024 416 205.30865 413.95918 198.31055 409.87695 L 103.65039 355.22852 C 89.469866 347.05177 77.867188 326.99197 77.867188 310.64453 L 77.867188 201.34766 C 77.867188 185.00635 89.469866 164.95411 103.65039 156.77734 L 198.31055 102.13672 C 205.30865 98.0422 214.7024 96 224.0332 96 z M 277.76562 164.75977 C 268.26271 164.75977 260.64648 171.97963 260.64648 181.93945 C 260.64648 191.89926 268.26272 199.11719 277.76562 199.11719 C 284.71023 199.11719 290.61444 195.24832 293.35547 189.40039 L 285.31836 187.32227 C 283.97791 189.58225 280.93345 191.19141 277.76562 191.19141 C 272.649 191.19141 268.92773 187.65339 268.92773 181.93945 C 268.92773 176.5179 272.28353 172.59961 277.76562 172.59961 C 280.32425 172.59961 283.18384 173.77373 284.70703 175.66211 L 292.75 173.53516 C 289.82593 168.2537 284.28406 164.75977 277.76562 164.75977 z M 230.83008 165.10156 L 230.83008 172.2207 L 240.35742 172.2207 L 240.35742 196.875 L 248.00195 196.875 L 248.00195 172.2207 L 257.65234 172.2207 L 257.65234 165.10156 L 230.83008 165.10156 z M 157.05273 165.16406 L 157.05273 197.17578 L 171.03516 197.17578 C 180.19575 197.17578 187.60938 190.90935 187.60938 181.30273 C 187.60938 171.70209 180.19575 165.16406 171.03516 165.16406 L 157.05273 165.16406 z M 191.76562 165.41406 L 191.76562 197.18164 L 215.1543 197.18164 L 215.1543 190.06055 L 199.44141 190.06055 L 199.44141 184.42578 L 211.52344 184.42578 L 211.52344 177.75195 L 199.44141 177.75195 L 199.44141 172.5332 L 214.91016 172.5332 L 214.91016 165.41406 L 191.76562 165.41406 z M 164.71094 172.33789 L 171.03516 172.33789 C 175.61514 172.33789 179.59766 175.81231 179.59766 181.30273 C 179.59766 186.78706 175.61514 189.99414 171.03516 189.99414 L 164.71094 189.99414 L 164.71094 172.33789 z M 287.99609 214.17578 C 285.2729 214.17578 282.55339 215.20945 280.47852 217.28125 L 206.08984 291.65625 C 201.94008 295.79375 195.16342 295.79375 191.01367 291.65625 L 173.13867 273.76953 C 168.98861 269.61981 162.21028 269.61981 158.06055 273.76953 L 146.5293 285.27148 C 143.29513 288.53636 142.44058 296.1923 146.5293 300.33594 L 191.01367 344.79102 C 195.16342 348.92856 201.94008 348.92856 206.08984 344.79102 L 307.02734 243.84766 C 311.17707 239.70401 311.17707 232.93295 307.02734 228.7832 L 295.54883 217.28125 C 293.44359 215.20946 290.71931 214.17773 287.99609 214.17773 L 287.99609 214.17578 z M 292.11523 293.54688 L 292.11523 308.61523 L 277.39844 308.61523 L 277.39844 319.89844 L 292.17578 319.89844 L 292.17578 334.63281 L 304.20898 334.63281 L 304.20898 319.89844 L 318.92578 319.89844 L 318.92578 308.61719 L 304.08789 308.61719 L 304.08789 293.54688 L 292.11523 293.54688 z "
       id="path2" />
  </g>
</svg>
