<?xml version="1.0" encoding="UTF-8" standalone="no"?>
<svg
   xmlns:dc="http://purl.org/dc/elements/1.1/"
   xmlns:cc="http://creativecommons.org/ns#"
   xmlns:rdf="http://www.w3.org/1999/02/22-rdf-syntax-ns#"
   xmlns:svg="http://www.w3.org/2000/svg"
   xmlns="http://www.w3.org/2000/svg"
   xmlns:sodipodi="http://sodipodi.sourceforge.net/DTD/sodipodi-0.dtd"
   xmlns:inkscape="http://www.inkscape.org/namespaces/inkscape"
   sodipodi:docname="template-square.svg"
   inkscape:version="1.0 (1.0+r73+1)"
   id="svg8"
   version="1.1"
   viewBox="0 0 448 512"
   height="512"
   width="448">
  <title
     id="title1350">Preregistered TC</title>
  <defs
     id="defs2" />
  <sodipodi:namedview
     inkscape:window-maximized="1"
     inkscape:window-y="27"
     inkscape:window-x="51"
     inkscape:window-height="713"
     inkscape:window-width="1315"
     inkscape:guide-bbox="true"
     showguides="true"
     units="px"
     showgrid="true"
     inkscape:document-rotation="0"
     inkscape:current-layer="layer6"
     inkscape:document-units="px"
     inkscape:cy="256"
     inkscape:cx="203.33333"
     inkscape:zoom="0.75"
     inkscape:pageshadow="2"
     inkscape:pageopacity="0.0"
     borderopacity="1.0"
     bordercolor="#666666"
     pagecolor="#ffffff"
     id="base">
    <inkscape:grid
       empspacing="4"
       id="grid10"
       type="xygrid" />
    <sodipodi:guide
       inkscape:color="rgb(0,0,255)"
       inkscape:locked="true"
       inkscape:label=""
       id="guide832"
       orientation="0,1"
       position="448,416" />
    <sodipodi:guide
       inkscape:color="rgb(0,0,255)"
       inkscape:locked="true"
       inkscape:label=""
       id="guide834"
       orientation="0,1"
       position="448,96" />
    <sodipodi:guide
       inkscape:color="rgb(0,0,255)"
       inkscape:locked="true"
       inkscape:label="baseline"
       id="guide836"
       orientation="0,1"
       position="448,64" />
    <sodipodi:guide
       position="64,512"
       orientation="1,0"
       id="guide835" />
    <sodipodi:guide
       position="384,512"
       orientation="1,0"
       id="guide837" />
  </sodipodi:namedview>
  <metadata
     id="metadata5">
    <rdf:RDF>
      <cc:Work
         rdf:about="">
        <dc:format>image/svg+xml</dc:format>
        <dc:type
           rdf:resource="http://purl.org/dc/dcmitype/StillImage" />
        <dc:title>Preregistered TC</dc:title>
        <cc:license
           rdf:resource="http://scripts.sil.org/OFL" />
      </cc:Work>
      <cc:License
         rdf:about="http://scripts.sil.org/OFL">
        <cc:permits
           rdf:resource="http://scripts.sil.org/pub/OFL/Reproduction" />
        <cc:permits
           rdf:resource="http://scripts.sil.org/pub/OFL/Distribution" />
        <cc:permits
           rdf:resource="http://scripts.sil.org/pub/OFL/Embedding" />
        <cc:permits
           rdf:resource="http://scripts.sil.org/pub/OFL/DerivativeWorks" />
        <cc:requires
           rdf:resource="http://scripts.sil.org/pub/OFL/Notice" />
        <cc:requires
           rdf:resource="http://scripts.sil.org/pub/OFL/Attribution" />
        <cc:requires
           rdf:resource="http://scripts.sil.org/pub/OFL/ShareAlike" />
        <cc:requires
           rdf:resource="http://scripts.sil.org/pub/OFL/DerivativeRenaming" />
        <cc:requires
           rdf:resource="http://scripts.sil.org/pub/OFL/BundlingWhenSelling" />
      </cc:License>
    </rdf:RDF>
  </metadata>
  <g
     inkscape:label="icon"
     id="layer6"
     inkscape:groupmode="layer">
    <path
       d="M 48 32 C 21.5 32 0 53.5 0 80 L 0 432 C 0 458.5 21.5 480 48 480 L 400 480 C 426.5 480 448 458.5 448 432 L 448 80 C 448 53.5 426.5 32 400 32 L 48 32 z M 223.97852 96 C 233.32405 96 242.62809 98.043924 249.7207 102.13672 L 344.38477 156.77734 C 358.52806 164.9546 370.12695 185.00571 370.12695 201.34766 L 370.12695 310.65039 C 370.12695 326.99652 358.52806 347.05548 344.38477 355.22852 L 249.7207 409.88281 C 242.62809 413.96309 233.32405 416 223.97852 416 C 214.67494 416 205.32862 413.96309 198.23633 409.88281 L 103.61328 355.22852 C 89.42838 347.05548 77.873047 326.99652 77.873047 310.65039 L 77.873047 201.34766 C 77.873047 185.00571 89.428381 164.9546 103.61328 156.77734 L 198.23633 102.13672 C 205.32862 98.043924 214.67494 96 223.97852 96 z M 240.74805 164.77148 C 230.06767 164.77148 221.42969 172.92539 221.42969 184.18164 C 221.42969 195.42951 230.06767 203.58594 240.74805 203.58594 C 248.59163 203.58594 255.26804 199.21206 258.35547 192.60352 L 249.30469 190.25586 C 247.76113 192.81336 244.33612 194.62695 240.74805 194.62695 C 234.94898 194.62695 230.73828 190.62748 230.73828 184.18164 C 230.73828 178.04453 234.5735 173.62109 240.74805 173.62109 C 243.71032 173.62109 246.88537 174.95399 248.5957 177.08594 L 257.73242 174.68359 C 254.43658 168.71337 248.13261 164.77148 240.74805 164.77148 z M 187.3457 166.22656 L 187.3457 174.27539 L 198.15234 174.27539 L 198.15234 202.125 L 206.74414 202.125 L 206.74414 174.27539 L 217.67773 174.27539 L 217.67773 166.22656 L 187.3457 166.22656 z M 287.95898 218.35156 C 285.22638 218.35156 282.48901 219.38365 280.42383 221.45508 L 206.07812 295.83203 C 201.90617 299.97071 195.14989 299.97071 191.01953 295.83203 L 173.11914 277.94336 C 168.94718 273.79634 162.19091 273.79634 158.06055 277.94336 L 146.54688 289.44531 C 143.29266 292.71204 142.41652 300.36521 146.54688 304.50391 L 191.01953 348.96289 C 195.14989 353.10155 201.90616 353.10155 206.07812 348.96289 L 307.00195 248.02148 C 311.13229 243.87863 311.13229 237.10404 307.00195 232.95703 L 295.48828 221.45508 C 293.4231 219.38362 290.69155 218.35156 287.95898 218.35156 z "
       id="path2" />
  </g>
</svg>
