<?xml version="1.0" encoding="UTF-8" standalone="no"?>
<svg
   xmlns:dc="http://purl.org/dc/elements/1.1/"
   xmlns:cc="http://creativecommons.org/ns#"
   xmlns:rdf="http://www.w3.org/1999/02/22-rdf-syntax-ns#"
   xmlns:svg="http://www.w3.org/2000/svg"
   xmlns="http://www.w3.org/2000/svg"
   xmlns:sodipodi="http://sodipodi.sourceforge.net/DTD/sodipodi-0.dtd"
   xmlns:inkscape="http://www.inkscape.org/namespaces/inkscape"
   width="512"
   height="512"
   viewBox="0 0 512 512"
   version="1.1"
   id="svg8"
   inkscape:version="1.0 (1.0+r73+1)"
   sodipodi:docname="preregistered-de-tc.svg">
  <title
     id="title833">Preregistered DE TC</title>
  <defs
     id="defs2" />
  <sodipodi:namedview
     id="base"
     pagecolor="#ffffff"
     bordercolor="#666666"
     borderopacity="1.0"
     inkscape:pageopacity="0.0"
     inkscape:pageshadow="2"
     inkscape:zoom="0.75"
     inkscape:cx="256"
     inkscape:cy="256"
     inkscape:document-units="px"
     inkscape:current-layer="layer6"
     inkscape:document-rotation="0"
     showgrid="true"
     units="px"
     showguides="true"
     inkscape:guide-bbox="true"
     inkscape:window-width="1315"
     inkscape:window-height="713"
     inkscape:window-x="51"
     inkscape:window-y="27"
     inkscape:window-maximized="1">
    <inkscape:grid
       type="xygrid"
       id="grid10"
       empspacing="4" />
    <sodipodi:guide
       inkscape:color="rgb(0,0,255)"
       inkscape:locked="true"
       inkscape:label="baseline"
       position="511.99998,64"
       orientation="0,1"
       id="guide39" />
  </sodipodi:namedview>
  <metadata
     id="metadata5">
    <rdf:RDF>
      <cc:Work
         rdf:about="">
        <dc:format>image/svg+xml</dc:format>
        <dc:type
           rdf:resource="http://purl.org/dc/dcmitype/StillImage" />
        <dc:title>Preregistered DE TC</dc:title>
        <cc:license
           rdf:resource="http://scripts.sil.org/OFL" />
        <dc:subject>
          <rdf:Bag>
            <rdf:li>Open Science Badges</rdf:li>
            <rdf:li>Preregistered</rdf:li>
          </rdf:Bag>
        </dc:subject>
      </cc:Work>
      <cc:License
         rdf:about="http://scripts.sil.org/OFL">
        <cc:permits
           rdf:resource="http://scripts.sil.org/pub/OFL/Reproduction" />
        <cc:permits
           rdf:resource="http://scripts.sil.org/pub/OFL/Distribution" />
        <cc:permits
           rdf:resource="http://scripts.sil.org/pub/OFL/Embedding" />
        <cc:permits
           rdf:resource="http://scripts.sil.org/pub/OFL/DerivativeWorks" />
        <cc:requires
           rdf:resource="http://scripts.sil.org/pub/OFL/Notice" />
        <cc:requires
           rdf:resource="http://scripts.sil.org/pub/OFL/Attribution" />
        <cc:requires
           rdf:resource="http://scripts.sil.org/pub/OFL/ShareAlike" />
        <cc:requires
           rdf:resource="http://scripts.sil.org/pub/OFL/DerivativeRenaming" />
        <cc:requires
           rdf:resource="http://scripts.sil.org/pub/OFL/BundlingWhenSelling" />
      </cc:License>
    </rdf:RDF>
  </metadata>
  <g
     inkscape:groupmode="layer"
     id="layer6"
     inkscape:label="icon">
    <path
       id="path398"
       style="fill-opacity:1;fill-rule:nonzero;stroke:none;stroke-width:0.037687"
       d="m 255.96675,7.9999983 c -14.43825,0 -28.94537,3.1782047 -39.86013,9.5198787 L 69.377366,102.21364 C 47.47799,114.8902 29.51676,145.9619 29.51676,171.28725 v 169.41598 c 0,25.33232 17.96123,56.43248 39.860606,69.10206 L 216.10662,494.50851 C 227.02138,500.83642 241.5285,504 255.96675,504 c 14.50708,0 28.94533,-3.16358 39.86053,-9.49149 l 146.7293,-84.70322 c 21.96721,-12.66958 39.92666,-43.76974 39.92666,-69.10206 V 171.28725 c 0,-25.32535 -17.95945,-56.39705 -39.92666,-69.07361 L 295.82728,17.519877 C 284.91208,11.178203 270.47383,7.9999983 255.96675,7.9999983 Z M 351.71497,114.59426 c 10.47015,0 19.43319,5.61723 24.15514,14.12353 l -12.99631,3.41958 c -2.39541,-3.03847 -6.98445,-4.9352 -11.15883,-4.9352 -8.75939,0 -14.30344,6.29396 -14.30344,15.03289 0,9.1837 6.02322,14.88133 14.30344,14.88133 5.06378,0 9.99138,-2.58544 12.18168,-6.23294 l 12.86395,3.3533 c -4.38008,9.41633 -13.8912,15.64859 -25.04563,15.64859 -15.26119,0 -27.57428,-11.6233 -27.57428,-27.65028 0,-16.02024 12.31309,-27.6408 27.57428,-27.6408 z m -73.45942,2.065 h 43.16635 v 11.4712 h -15.59152 v 39.66145 H 293.639 v -39.66145 h -15.38345 z m -130.58821,0.009 h 22.28884 c 14.60989,0 26.45681,10.44994 26.45681,25.79368 0,15.33702 -11.84692,25.32952 -26.45681,25.32952 h -22.28884 z m 55.36729,0.009 h 37.17953 v 11.46175 h -24.87479 v 8.40211 h 19.53213 v 10.74182 h -19.53213 v 9.05575 h 25.34814 v 11.47119 h -37.65288 z m -43.17602,11.45224 v 28.19973 h 10.09757 c 7.33839,0 13.66902,-5.10853 13.66902,-13.86781 0,-8.77263 -6.33063,-14.33192 -13.66902,-14.33192 z m 195.24749,63.05858 c 4.23102,0 8.44612,1.6019 11.63251,4.81202 l 17.88408,17.83676 c 6.37183,6.42719 6.37183,16.92938 0,23.34976 l -156.43877,156.4491 c -6.51008,6.41355 -16.98686,6.41355 -23.35919,0 l -68.93156,-68.91253 c -6.44072,-6.41355 -5.07062,-18.27658 0,-23.34028 l 17.80844,-17.82727 c 6.44073,-6.42727 16.9956,-6.42727 23.36841,0 l 27.75471,27.72605 c 6.37233,6.41356 16.84911,6.41356 23.35919,0 l 115.18576,-115.2802 c 3.25493,-3.21018 7.5054,-4.81202 11.73642,-4.81202 z" />
  </g>
</svg>
