<?xml version="1.0" encoding="UTF-8" standalone="no"?>
<svg
   xmlns:dc="http://purl.org/dc/elements/1.1/"
   xmlns:cc="http://creativecommons.org/ns#"
   xmlns:rdf="http://www.w3.org/1999/02/22-rdf-syntax-ns#"
   xmlns:svg="http://www.w3.org/2000/svg"
   xmlns="http://www.w3.org/2000/svg"
   xmlns:sodipodi="http://sodipodi.sourceforge.net/DTD/sodipodi-0.dtd"
   xmlns:inkscape="http://www.inkscape.org/namespaces/inkscape"
   sodipodi:docname="template-square.svg"
   inkscape:version="1.0 (1.0+r73+1)"
   id="svg8"
   version="1.1"
   viewBox="0 0 448 512"
   height="512"
   width="448">
  <title
     id="title1485">protocols.io</title>
  <defs
     id="defs2" />
  <sodipodi:namedview
     inkscape:window-maximized="1"
     inkscape:window-y="27"
     inkscape:window-x="51"
     inkscape:window-height="713"
     inkscape:window-width="1315"
     inkscape:guide-bbox="true"
     showguides="true"
     units="px"
     showgrid="true"
     inkscape:document-rotation="0"
     inkscape:current-layer="layer6"
     inkscape:document-units="px"
     inkscape:cy="256"
     inkscape:cx="203.33333"
     inkscape:zoom="0.75"
     inkscape:pageshadow="2"
     inkscape:pageopacity="0.0"
     borderopacity="1.0"
     bordercolor="#666666"
     pagecolor="#ffffff"
     id="base">
    <inkscape:grid
       empspacing="4"
       id="grid10"
       type="xygrid" />
    <sodipodi:guide
       inkscape:color="rgb(0,0,255)"
       inkscape:locked="true"
       inkscape:label=""
       id="guide832"
       orientation="0,1"
       position="448,416" />
    <sodipodi:guide
       inkscape:color="rgb(0,0,255)"
       inkscape:locked="true"
       inkscape:label=""
       id="guide834"
       orientation="0,1"
       position="448,96" />
    <sodipodi:guide
       inkscape:color="rgb(0,0,255)"
       inkscape:locked="true"
       inkscape:label="baseline"
       id="guide836"
       orientation="0,1"
       position="448,64" />
    <sodipodi:guide
       position="64,512"
       orientation="1,0"
       id="guide835" />
    <sodipodi:guide
       position="384,512"
       orientation="1,0"
       id="guide837" />
  </sodipodi:namedview>
  <metadata
     id="metadata5">
    <rdf:RDF>
      <cc:Work
         rdf:about="">
        <dc:format>image/svg+xml</dc:format>
        <dc:type
           rdf:resource="http://purl.org/dc/dcmitype/StillImage" />
        <dc:title>protocols.io</dc:title>
        <cc:license
           rdf:resource="http://scripts.sil.org/OFL" />
        <dc:subject>
          <rdf:Bag>
            <rdf:li>protocols.io</rdf:li>
          </rdf:Bag>
        </dc:subject>
      </cc:Work>
      <cc:License
         rdf:about="http://scripts.sil.org/OFL">
        <cc:permits
           rdf:resource="http://scripts.sil.org/pub/OFL/Reproduction" />
        <cc:permits
           rdf:resource="http://scripts.sil.org/pub/OFL/Distribution" />
        <cc:permits
           rdf:resource="http://scripts.sil.org/pub/OFL/Embedding" />
        <cc:permits
           rdf:resource="http://scripts.sil.org/pub/OFL/DerivativeWorks" />
        <cc:requires
           rdf:resource="http://scripts.sil.org/pub/OFL/Notice" />
        <cc:requires
           rdf:resource="http://scripts.sil.org/pub/OFL/Attribution" />
        <cc:requires
           rdf:resource="http://scripts.sil.org/pub/OFL/ShareAlike" />
        <cc:requires
           rdf:resource="http://scripts.sil.org/pub/OFL/DerivativeRenaming" />
        <cc:requires
           rdf:resource="http://scripts.sil.org/pub/OFL/BundlingWhenSelling" />
      </cc:License>
    </rdf:RDF>
  </metadata>
  <g
     inkscape:label="icon"
     id="layer6"
     inkscape:groupmode="layer">
    <path
       d="M 48 32 C 21.5 32 0 53.5 0 80 L 0 432 C 0 458.5 21.5 480 48 480 L 400 480 C 426.5 480 448 458.5 448 432 L 448 80 C 448 53.5 426.5 32 400 32 L 48 32 z M 119.17773 96.013672 C 121.9034 96.091142 124.79365 96.517192 127.83984 97.294922 C 140.62949 100.40591 152.03624 106.97349 162.40625 114.92383 C 174.85022 123.91115 185.9133 134.62831 194.90039 147.41797 C 196.28304 149.14623 197.66622 149.49023 199.74023 149.49023 L 247.7832 149.49023 C 250.20285 149.49023 251.5861 148.79666 252.96875 146.72266 C 268.17808 126.67402 286.84233 110.77627 310.00195 100.75195 C 314.14991 99.023626 318.99068 97.642552 323.48438 96.951172 C 336.61971 94.531522 346.64522 99.36847 352.86719 111.4668 C 357.70655 120.45411 359.78142 130.13584 361.16406 140.16016 C 363.23807 152.25848 363.92797 165.04425 364.96484 177.14258 C 361.85385 189.93222 366.35008 200.64767 371.18945 211.70898 C 382.94208 237.28829 391.58245 264.25298 395.73047 292.25195 C 396.42159 295.70862 396.42524 299.16641 396.77148 302.62305 C 398.49976 319.56073 391.58459 332.6944 378.10352 342.71875 C 361.85728 354.81706 343.88076 363.10812 324.86914 369.67578 C 311.73379 374.16944 299.28986 379.70605 288.57422 389.03906 C 276.13024 399.40903 261.26399 405.97522 246.05469 411.85156 C 231.5367 417.38221 217.01992 417.38221 202.50195 411.85156 C 182.10764 404.24687 163.09595 393.87733 147.19531 379.01367 C 146.15831 377.97667 144.43346 377.28121 143.05078 376.58984 C 123.69348 370.36785 104.33402 363.11221 86.359375 353.08789 C 79.791715 349.28557 73.915349 345.14012 67.693359 340.64648 C 53.866699 330.27645 49.375219 316.10366 51.449219 299.16602 C 54.905879 269.78439 63.546231 241.78231 75.644531 215.16602 C 81.520871 202.03069 84.978479 189.24455 84.287109 174.72656 C 83.250109 157.44325 85.666486 139.81461 90.160156 122.87695 C 90.851476 119.76595 91.890777 116.99971 93.273438 114.23438 C 98.609648 101.87682 107.36651 95.677902 119.17773 96.013672 z M 330.48047 112.9043 C 329.21118 112.89346 327.8094 113.10701 326.25391 113.53906 C 321.41458 114.57605 316.57569 116.30494 312.08203 118.72461 C 291.34208 129.44028 274.40491 144.65253 261.96094 164.70117 C 260.57828 166.77513 259.54074 167.46094 257.12109 167.46094 C 248.13375 166.76956 239.14359 166.08398 230.15625 166.08398 C 217.02094 166.08398 204.23492 167.11525 191.09961 167.46094 C 188.67996 167.46094 187.64245 167.11892 186.25977 165.04492 C 174.16144 144.99628 157.22239 130.13558 136.48242 119.41992 C 131.98875 117.00027 127.15178 115.61704 121.9668 114.23438 C 115.74479 112.50604 112.28292 114.57676 109.51758 120.10742 C 107.78925 123.56408 106.40802 127.36369 105.37109 131.16602 C 100.18611 152.59733 99.498255 174.37736 101.22656 196.5 C 101.22656 198.22833 100.87888 200.30097 100.1875 202.0293 C 84.286843 232.7936 73.222099 265.28886 68.037109 299.85547 C 65.963109 312.99082 69.077428 323.70584 80.830078 330.96484 C 85.669408 334.07584 90.506373 337.18585 95.345703 339.95117 C 113.32034 349.97552 132.67982 356.54171 152.03711 362.76367 C 153.41979 363.10934 154.80098 363.80482 155.83789 364.8418 C 171.73854 380.39673 190.75425 391.11395 211.83984 397.68164 C 217.02483 399.40992 223.58649 400.0955 228.77148 399.05859 C 252.2768 394.21919 272.67372 382.46697 290.30273 366.2207 C 292.03105 364.4924 294.10177 363.45699 296.17578 362.41992 C 306.54575 358.61765 317.26868 355.50931 327.63867 351.36133 C 342.50229 345.48502 357.36257 338.56726 369.80664 328.19727 C 374.99154 324.04928 379.14207 319.21017 379.48828 312.29688 C 379.83372 306.07486 379.48459 299.85681 378.44727 293.98047 C 372.91653 261.83351 362.2035 231.06527 346.99414 202.0293 C 346.3028 200.64664 345.95312 198.92172 345.95312 197.53906 C 346.99014 189.93442 347.68164 183.36424 348.02734 174.03125 C 346.9903 164.69826 346.64827 152.946 344.91992 141.19336 C 343.88291 133.93438 341.46063 126.67892 338.69531 119.41992 C 336.88056 115.01267 334.28818 112.937 330.48047 112.9043 z M 194.01562 209.87305 C 201.79919 210.01011 205.30912 212.965 208.03125 221.73633 C 212.17922 234.87167 210.45679 248.00724 208.38281 261.14258 C 206.65447 271.85822 201.81528 279.45938 191.09961 282.91602 L 189.01953 283.95508 C 169.31655 292.25109 158.60497 307.80296 153.76562 328.19727 C 153.07429 333.38226 152.03303 338.22124 150.99609 343.75195 C 142.00878 340.29526 133.02256 337.53474 124.72656 333.73242 C 114.01092 328.89309 103.64342 323.01307 93.273438 317.48242 C 91.199398 316.4454 90.160179 314.71654 90.505859 312.29688 C 91.542859 292.24824 96.729612 273.58603 107.09961 256.30273 C 111.59328 248.69807 117.81325 242.81976 124.72656 237.63477 C 143.39255 224.15377 164.13521 214.81983 186.60352 210.32617 C 187.98618 209.97978 189.02162 209.98242 190.4043 209.98242 C 191.70054 209.89611 192.90371 209.85355 194.01562 209.87305 z M 252.27539 209.99609 C 252.68067 209.98715 253.10008 209.99039 253.53516 210.00781 C 254.52963 210.04763 255.60872 210.15332 256.77539 210.32617 C 265.41707 211.70883 274.05362 213.78353 282.34961 216.89453 C 291.68261 220.35118 300.32714 224.50049 309.31445 228.99414 C 333.51109 241.09248 347.68422 260.79781 353.90625 287.06836 C 355.6346 295.36435 356.67009 304.00088 357.70703 312.29688 C 358.05268 315.06222 357.0134 316.44351 354.93945 317.82617 C 342.14973 326.46784 327.97694 332.69393 313.45898 337.87891 C 308.61966 339.95294 303.09122 341.67796 297.56055 343.75195 C 296.52356 338.22131 295.48619 333.38225 294.10352 328.19727 C 289.26419 308.14862 278.89825 291.90349 258.84961 284.29883 C 246.40563 279.4595 240.52524 270.82088 239.14258 258.03125 C 237.7599 246.62426 236.72686 235.55933 239.49219 224.15234 C 239.83775 222.76969 240.1797 221.73423 240.52539 220.35156 C 243.36093 213.2627 246.19617 210.13029 252.27539 209.99609 z M 228.08203 318.17773 C 232.57569 319.21472 240.52819 320.93772 248.47852 323.01172 C 250.89816 323.70307 253.3186 325.09004 255.39258 326.81836 C 259.88624 330.27503 261.26737 334.07673 259.19336 339.26172 C 253.66271 353.08838 244.67438 364.14528 231.53906 371.4043 C 226.69973 374.16965 221.51313 373.82589 216.67383 371.06055 C 203.88415 363.80156 194.55607 353.08647 189.37109 339.60547 C 186.95141 333.38347 189.02214 329.23788 195.24414 325.43555 C 204.23145 320.25054 214.25537 318.86909 228.08203 318.17773 z "
       id="path2" />
  </g>
</svg>
