<?xml version="1.0" encoding="UTF-8" standalone="no"?>
<svg
   xmlns:dc="http://purl.org/dc/elements/1.1/"
   xmlns:cc="http://creativecommons.org/ns#"
   xmlns:rdf="http://www.w3.org/1999/02/22-rdf-syntax-ns#"
   xmlns:svg="http://www.w3.org/2000/svg"
   xmlns="http://www.w3.org/2000/svg"
   xmlns:sodipodi="http://sodipodi.sourceforge.net/DTD/sodipodi-0.dtd"
   xmlns:inkscape="http://www.inkscape.org/namespaces/inkscape"
   width="448"
   height="512"
   viewBox="0 0 448 512"
   version="1.1"
   id="svg8"
   inkscape:version="1.0 (1.0+r73+1)"
   sodipodi:docname="protocols.svg">
  <title
     id="title833">protocols.io</title>
  <defs
     id="defs2" />
  <sodipodi:namedview
     scale-x="1"
     inkscape:snap-global="false"
     id="base"
     pagecolor="#ffffff"
     bordercolor="#666666"
     borderopacity="1.0"
     inkscape:pageopacity="0.0"
     inkscape:pageshadow="2"
     inkscape:zoom="0.75"
     inkscape:cx="224"
     inkscape:cy="256"
     inkscape:document-units="px"
     inkscape:current-layer="layer6"
     inkscape:document-rotation="0"
     showgrid="true"
     units="px"
     showguides="true"
     inkscape:guide-bbox="true"
     inkscape:window-width="1315"
     inkscape:window-height="713"
     inkscape:window-x="51"
     inkscape:window-y="27"
     inkscape:window-maximized="1">
    <inkscape:grid
       type="xygrid"
       id="grid10"
       empspacing="4" />
    <sodipodi:guide
       inkscape:color="rgb(0,0,255)"
       inkscape:locked="true"
       inkscape:label="baseline"
       id="guide861"
       orientation="0,1"
       position="447.99999,64" />
  </sodipodi:namedview>
  <metadata
     id="metadata5">
    <rdf:RDF>
      <cc:Work
         rdf:about="">
        <dc:format>image/svg+xml</dc:format>
        <dc:type
           rdf:resource="http://purl.org/dc/dcmitype/StillImage" />
        <dc:title>protocols.io</dc:title>
        <cc:license
           rdf:resource="http://scripts.sil.org/OFL" />
        <dc:subject>
          <rdf:Bag>
            <rdf:li>protocols.io</rdf:li>
          </rdf:Bag>
        </dc:subject>
      </cc:Work>
      <cc:License
         rdf:about="http://scripts.sil.org/OFL">
        <cc:permits
           rdf:resource="http://scripts.sil.org/pub/OFL/Reproduction" />
        <cc:permits
           rdf:resource="http://scripts.sil.org/pub/OFL/Distribution" />
        <cc:permits
           rdf:resource="http://scripts.sil.org/pub/OFL/Embedding" />
        <cc:permits
           rdf:resource="http://scripts.sil.org/pub/OFL/DerivativeWorks" />
        <cc:requires
           rdf:resource="http://scripts.sil.org/pub/OFL/Notice" />
        <cc:requires
           rdf:resource="http://scripts.sil.org/pub/OFL/Attribution" />
        <cc:requires
           rdf:resource="http://scripts.sil.org/pub/OFL/ShareAlike" />
        <cc:requires
           rdf:resource="http://scripts.sil.org/pub/OFL/DerivativeRenaming" />
        <cc:requires
           rdf:resource="http://scripts.sil.org/pub/OFL/BundlingWhenSelling" />
      </cc:License>
    </rdf:RDF>
  </metadata>
  <g
     inkscape:groupmode="layer"
     id="layer6"
     inkscape:label="icon">
    <path
       style="stroke-width:0.264583"
       d="m 98.213367,64.015532 c -14.17347,-0.402917 -24.682197,7.037011 -31.085654,21.866089 -1.659193,3.318403 -2.905224,6.636786 -3.734808,10.369984 -5.392407,20.325185 -8.292752,41.479965 -7.048358,62.219935 0.829656,17.42158 -3.318394,32.76593 -10.369995,48.52832 -14.517973,31.93955 -24.887972,65.54156 -29.035962,100.79951 -2.488796,20.32517 2.900345,37.33194 19.492339,49.77596 7.466387,5.39237 14.519605,10.36836 22.400789,14.93115 21.569586,12.02919 44.799972,20.73514 68.028722,28.20152 1.65922,0.82965 3.72998,1.66405 4.97438,2.90846 19.08077,17.83639 41.89476,30.28033 66.36793,39.40596 17.42156,6.63678 34.84153,6.63678 52.26312,0 18.25116,-7.05161 36.0908,-14.93121 51.02358,-27.37519 12.85876,-11.19961 27.79153,-17.84285 43.55395,-23.23525 22.81394,-7.88119 44.38519,-17.83149 63.88068,-32.34947 16.17728,-12.02921 24.4749,-27.78996 22.40096,-48.11517 -0.41549,-4.14797 -0.41863,-8.29596 -1.24797,-12.44396 -4.97763,-33.59877 -15.34605,-65.95636 -29.44921,-96.65154 -5.80724,-13.27357 -11.20286,-26.13237 -7.46967,-41.47994 -1.24425,-14.518 -2.07235,-29.86233 -4.56117,-44.38032 -1.65917,-12.02918 -4.14958,-23.646813 -9.95682,-34.431585 -7.46636,-14.517993 -19.49554,-20.321945 -35.25794,-17.418357 -5.39242,0.829655 -11.20123,2.487186 -16.17878,4.561183 -27.79155,12.029182 -50.19076,31.105109 -68.44195,55.163479 -1.65918,2.48879 -3.3184,3.32163 -6.22198,3.32163 h -57.65064 c -2.48881,0 -4.14963,-0.41326 -5.80882,-2.48717 C 178.29559,110.35317 165.0204,97.492772 150.08763,86.707981 137.64362,77.167584 123.95523,69.288018 108.60766,65.55482 104.95223,64.621541 101.48417,64.108576 98.213367,64.015603 Z M 351.77576,84.285625 c 4.56925,0.03919 7.68192,2.52929 9.85961,7.817991 3.31839,8.710794 6.22522,17.416724 7.46963,26.127504 2.07402,14.10318 2.48232,28.20636 3.72677,39.40595 -0.41484,11.19959 -1.24279,19.08404 -2.4872,28.20962 0,1.65919 0.41794,3.72834 1.24755,5.38753 18.25124,34.84316 31.10832,71.76678 37.74521,110.34314 1.24479,7.05161 1.66246,14.51314 1.24793,21.97955 -0.41545,8.29596 -5.3957,14.10156 -11.61759,19.07915 -14.93288,12.44398 -32.76603,20.74485 -50.60237,27.79642 -12.44399,4.97758 -25.30925,8.70761 -37.75321,13.27033 -2.48882,1.24449 -4.97437,2.48724 -7.04836,4.56121 -21.15481,19.49552 -45.6312,33.59872 -73.83758,39.406 -6.22199,1.2443 -14.09672,0.42119 -20.3187,-1.65275 -25.30271,-7.88122 -48.12156,-20.74004 -67.20234,-39.40596 -1.2443,-1.24437 -2.90196,-2.08052 -4.56118,-2.49532 -23.22874,-7.46635 -46.45915,-15.34592 -68.028721,-27.37513 -5.807198,-3.31839 -11.61115,-7.04997 -17.418349,-10.78317 -14.103182,-8.7108 -17.84124,-21.56956 -15.35244,-37.33197 6.221993,-41.47994 19.498812,-80.47434 38.579602,-117.3915 0.829655,-2.07399 1.24761,-4.56117 1.24761,-6.63517 -2.073985,-26.54717 -1.24761,-52.68116 4.974369,-78.39873 1.244315,-4.5628 2.900345,-9.122351 4.974349,-13.270345 3.318399,-6.63679 7.472852,-9.122354 14.93926,-7.048354 6.22198,1.659194 12.02595,3.318403 17.41834,6.221995 24.88797,12.858784 45.21476,30.691924 59.73275,54.750284 1.65922,2.48881 2.90523,2.90038 5.80881,2.90038 15.76237,-0.41483 31.10511,-1.65272 46.86748,-1.65272 10.78481,0 21.57281,0.82306 32.35762,1.65272 2.90358,0 4.1496,-0.8248 5.80879,-3.31355 14.93277,-24.05837 35.258,-42.31278 60.14594,-55.171577 5.39239,-2.903596 11.19796,-4.977597 17.00516,-6.221991 1.86659,-0.518457 3.54848,-0.77447 5.07163,-0.761461 z M 188.01909,200.64823 c -1.3343,-0.0234 -2.77884,0.0265 -4.33432,0.13009 -1.65922,0 -2.90199,-0.002 -4.56118,0.41326 -26.96198,5.3924 -51.85157,16.5936 -74.25075,32.7708 -8.295974,6.22199 -15.760745,13.2752 -21.153152,22.40079 -12.443985,20.73996 -18.669207,43.1359 -19.913605,67.19425 -0.414822,2.90361 0.832785,4.97759 3.32163,6.22202 12.443989,6.63678 24.886356,13.69323 37.745127,19.50041 9.9552,4.5628 20.73837,7.87475 31.52314,12.02278 1.24433,-6.63685 2.49204,-12.44404 3.32163,-18.66602 5.80722,-24.47318 18.66277,-43.13429 42.30634,-53.0895 l 2.49525,-1.24761 c 12.8588,-4.14797 18.66599,-13.26872 20.74,-26.12749 2.48878,-15.76241 4.5563,-31.52638 -0.42127,-47.28878 -3.26656,-10.5256 -7.47857,-14.07002 -16.81884,-14.23449 z m 71.4233,0.16191 c -8.35354,-0.33453 -11.98221,3.33786 -15.61171,12.4116 -0.41482,1.6592 -0.82478,2.90198 -1.23945,4.56117 -3.3184,13.68838 -2.08049,26.96522 -0.42127,40.65361 1.65919,15.34757 8.71565,25.71593 23.64843,31.52312 24.05837,9.1256 36.49913,28.61792 42.30633,52.6763 1.6592,6.22198 2.90359,12.0292 4.14798,18.66597 6.6368,-2.48879 13.27197,-4.55952 19.07916,-7.04835 17.42155,-6.22198 34.42833,-13.69161 49.77599,-24.06162 2.48874,-1.65919 3.7364,-3.31675 3.32163,-6.63516 -1.24433,-9.95519 -2.48719,-20.32033 -4.56121,-30.27552 -7.46643,-31.52467 -24.4748,-55.17145 -53.51076,-69.68944 -10.78478,-5.39239 -21.15799,-10.36998 -32.35759,-14.51797 -9.95519,-3.73319 -20.31871,-6.22362 -30.68872,-7.88281 -1.4,-0.20742 -2.69536,-0.33302 -3.88872,-0.38081 z m -30.54286,129.80309 c -16.592,0.82963 -28.62118,2.48716 -39.40595,8.70917 -7.4664,4.5628 -9.95197,9.53877 -7.04836,17.00519 6.22198,16.17718 17.41509,29.03432 32.7627,37.74511 5.80716,3.31839 12.03242,3.73157 17.83961,0.41314 15.76238,-8.71082 26.54716,-21.97953 33.18394,-38.57152 2.48881,-6.22199 0.83121,-10.78319 -4.56118,-14.9312 -2.48877,-2.07398 -5.39239,-3.73963 -8.29596,-4.56923 -9.54039,-2.48881 -19.08241,-4.55633 -24.4748,-5.80072 z"
       id="path142" />
  </g>
</svg>
