<?xml version="1.0" encoding="UTF-8" standalone="no"?>
<svg
   xmlns:dc="http://purl.org/dc/elements/1.1/"
   xmlns:cc="http://creativecommons.org/ns#"
   xmlns:rdf="http://www.w3.org/1999/02/22-rdf-syntax-ns#"
   xmlns:svg="http://www.w3.org/2000/svg"
   xmlns="http://www.w3.org/2000/svg"
   xmlns:sodipodi="http://sodipodi.sourceforge.net/DTD/sodipodi-0.dtd"
   xmlns:inkscape="http://www.inkscape.org/namespaces/inkscape"
   width="448"
   height="512"
   viewBox="0 0 448 512"
   version="1.1"
   id="svg8"
   inkscape:version="1.0 (1.0+r73+1)"
   sodipodi:docname="psyarxiv-square.svg">
  <title
     id="title844">PsyArXiv</title>
  <defs
     id="defs2" />
  <sodipodi:namedview
     id="base"
     pagecolor="#ffffff"
     bordercolor="#666666"
     borderopacity="1.0"
     inkscape:pageopacity="0.0"
     inkscape:pageshadow="2"
     inkscape:zoom="0.75"
     inkscape:cx="224"
     inkscape:cy="256"
     inkscape:document-units="px"
     inkscape:current-layer="layer6"
     inkscape:document-rotation="0"
     showgrid="true"
     units="px"
     showguides="true"
     inkscape:guide-bbox="true"
     inkscape:window-width="1315"
     inkscape:window-height="713"
     inkscape:window-x="51"
     inkscape:window-y="27"
     inkscape:window-maximized="1">
    <inkscape:grid
       type="xygrid"
       id="grid10"
       empspacing="4" />
    <sodipodi:guide
       position="448,416"
       orientation="0,1"
       id="guide832"
       inkscape:label=""
       inkscape:locked="true"
       inkscape:color="rgb(0,0,255)" />
    <sodipodi:guide
       position="448,96"
       orientation="0,1"
       id="guide834"
       inkscape:label=""
       inkscape:locked="true"
       inkscape:color="rgb(0,0,255)" />
    <sodipodi:guide
       position="448,64"
       orientation="0,1"
       id="guide836"
       inkscape:label="baseline"
       inkscape:locked="true"
       inkscape:color="rgb(0,0,255)" />
    <sodipodi:guide
       id="guide835"
       orientation="1,0"
       position="64,512" />
    <sodipodi:guide
       id="guide837"
       orientation="1,0"
       position="384,512" />
  </sodipodi:namedview>
  <metadata
     id="metadata5">
    <rdf:RDF>
      <cc:Work
         rdf:about="">
        <dc:format>image/svg+xml</dc:format>
        <dc:type
           rdf:resource="http://purl.org/dc/dcmitype/StillImage" />
        <dc:title>PsyArXiv</dc:title>
        <cc:license
           rdf:resource="http://scripts.sil.org/OFL" />
        <dc:subject>
          <rdf:Bag>
            <rdf:li>PsyArXiv</rdf:li>
          </rdf:Bag>
        </dc:subject>
      </cc:Work>
      <cc:License
         rdf:about="http://scripts.sil.org/OFL">
        <cc:permits
           rdf:resource="http://scripts.sil.org/pub/OFL/Reproduction" />
        <cc:permits
           rdf:resource="http://scripts.sil.org/pub/OFL/Distribution" />
        <cc:permits
           rdf:resource="http://scripts.sil.org/pub/OFL/Embedding" />
        <cc:permits
           rdf:resource="http://scripts.sil.org/pub/OFL/DerivativeWorks" />
        <cc:requires
           rdf:resource="http://scripts.sil.org/pub/OFL/Notice" />
        <cc:requires
           rdf:resource="http://scripts.sil.org/pub/OFL/Attribution" />
        <cc:requires
           rdf:resource="http://scripts.sil.org/pub/OFL/ShareAlike" />
        <cc:requires
           rdf:resource="http://scripts.sil.org/pub/OFL/DerivativeRenaming" />
        <cc:requires
           rdf:resource="http://scripts.sil.org/pub/OFL/BundlingWhenSelling" />
      </cc:License>
    </rdf:RDF>
  </metadata>
  <g
     inkscape:groupmode="layer"
     id="layer6"
     inkscape:label="icon">
    <path
       d="M 48 32 C 21.5 32 0 53.5 0 80 L 0 432 C 0 458.5 21.5 480 48 480 L 400 480 C 426.5 480 448 458.5 448 432 L 448 80 C 448 53.5 426.5 32 400 32 L 48 32 z M 56.927734 96 L 218.95898 96 L 218.95898 250.81055 L 56.927734 250.81055 L 56.927734 96 z M 97.097656 138.27539 C 97.097656 148.95714 96.949051 158.8889 97.400391 168.66797 C 97.550841 179.04883 101.76211 187.47279 111.08984 192.28711 C 117.10773 195.29605 122.07266 196.79883 131.40039 196.79883 L 131.40039 216.81055 L 142.83398 216.81055 L 142.83398 196.79883 C 147.6483 196.79883 152.01209 196.79934 156.22461 195.44531 C 167.6586 191.83458 175.33158 184.46168 176.53516 172.125 C 177.43783 162.94773 177.13666 153.62069 177.28711 144.29297 L 177.28711 138.57812 L 167.95898 138.87695 C 166.7554 138.87695 165.85352 139.7808 165.85352 140.98438 L 165.70312 145.94727 L 165.55078 168.36523 C 165.24989 181.00279 155.923 189.27774 142.5332 188.22461 L 142.5332 138.57812 L 130.94727 138.57812 L 130.94727 188.22461 C 128.84101 188.22461 127.18617 188.22277 125.53125 187.92188 C 115.1504 186.26696 109.73672 180.85358 108.68359 170.32227 C 107.93135 163.4017 108.08209 156.47916 107.93164 149.55859 L 107.93164 139.48047 C 107.93164 139.17957 107.77942 139.02734 107.47852 139.02734 L 97.097656 138.27539 z M 56.927734 260.58984 L 218.95898 260.58984 L 218.95898 416 L 56.927734 415.84961 L 56.927734 260.58984 z M 229.04102 260.58984 L 391.07227 260.58984 L 391.07227 416 L 229.04102 415.84961 L 229.04102 260.58984 z M 290.30078 297.73047 C 288.35365 297.79466 286.43482 298.33472 284.70703 299.4043 L 284.70703 305.57422 C 288.91955 305.87511 292.68097 306.62726 294.48633 310.99023 L 304.56445 335.66406 L 286.50977 376.73438 L 296.5918 376.73438 L 309.83008 346.04297 L 311.63672 350.40625 C 314.64566 357.47726 317.35417 364.69862 320.81445 371.46875 A 11.734881 11.734881 0 0 0 337.36328 376.58398 C 337.36328 374.7786 337.36144 372.67089 337.06055 370.11328 C 332.99848 369.96284 329.84047 368.75929 328.18555 364.84766 L 317.35156 338.2207 L 334.6543 298.80469 C 326.07881 297.30022 325.02456 297.7512 322.01562 304.97266 L 312.38867 327.83789 L 310.73242 324.07812 C 308.32527 318.06023 306.07133 312.19361 303.36328 306.32617 C 300.98434 301.05111 296.04255 297.9098 291.13477 297.73242 C 290.85591 297.72235 290.57894 297.7213 290.30078 297.73047 z M 137.87109 301.8125 L 98.753906 378.99023 L 108.83203 378.99023 C 108.83203 378.99023 111.39011 375.98155 112.74414 373.12305 L 119.81641 358.83008 L 153.06445 358.83008 L 158.48047 379.44336 L 169.3125 379.44336 L 148.85156 301.8125 L 137.87109 301.8125 z M 142.08203 313.39648 L 150.95898 350.10547 L 124.02734 350.10547 L 142.08203 313.39648 z "
       id="path2" />
  </g>
</svg>
