<?xml version="1.0" encoding="UTF-8" standalone="no"?>
<svg
   xmlns:dc="http://purl.org/dc/elements/1.1/"
   xmlns:cc="http://creativecommons.org/ns#"
   xmlns:rdf="http://www.w3.org/1999/02/22-rdf-syntax-ns#"
   xmlns:svg="http://www.w3.org/2000/svg"
   xmlns="http://www.w3.org/2000/svg"
   xmlns:sodipodi="http://sodipodi.sourceforge.net/DTD/sodipodi-0.dtd"
   xmlns:inkscape="http://www.inkscape.org/namespaces/inkscape"
   sodipodi:docname="template-square.svg"
   inkscape:version="1.0 (1.0+r73+1)"
   id="svg8"
   version="1.1"
   viewBox="0 0 448 512"
   height="512"
   width="448">
  <title
     id="title1512">Publons</title>
  <defs
     id="defs2" />
  <sodipodi:namedview
     inkscape:window-maximized="1"
     inkscape:window-y="27"
     inkscape:window-x="51"
     inkscape:window-height="713"
     inkscape:window-width="1315"
     inkscape:guide-bbox="true"
     showguides="true"
     units="px"
     showgrid="true"
     inkscape:document-rotation="0"
     inkscape:current-layer="layer6"
     inkscape:document-units="px"
     inkscape:cy="256"
     inkscape:cx="203.33333"
     inkscape:zoom="0.75"
     inkscape:pageshadow="2"
     inkscape:pageopacity="0.0"
     borderopacity="1.0"
     bordercolor="#666666"
     pagecolor="#ffffff"
     id="base">
    <inkscape:grid
       empspacing="4"
       id="grid10"
       type="xygrid" />
    <sodipodi:guide
       inkscape:color="rgb(0,0,255)"
       inkscape:locked="true"
       inkscape:label=""
       id="guide832"
       orientation="0,1"
       position="448,416" />
    <sodipodi:guide
       inkscape:color="rgb(0,0,255)"
       inkscape:locked="true"
       inkscape:label=""
       id="guide834"
       orientation="0,1"
       position="448,96" />
    <sodipodi:guide
       inkscape:color="rgb(0,0,255)"
       inkscape:locked="true"
       inkscape:label="baseline"
       id="guide836"
       orientation="0,1"
       position="448,64" />
    <sodipodi:guide
       position="64,512"
       orientation="1,0"
       id="guide835" />
    <sodipodi:guide
       position="384,512"
       orientation="1,0"
       id="guide837" />
  </sodipodi:namedview>
  <metadata
     id="metadata5">
    <rdf:RDF>
      <cc:Work
         rdf:about="">
        <dc:format>image/svg+xml</dc:format>
        <dc:type
           rdf:resource="http://purl.org/dc/dcmitype/StillImage" />
        <dc:title>Publons</dc:title>
        <cc:license
           rdf:resource="http://scripts.sil.org/OFL" />
        <dc:subject>
          <rdf:Bag>
            <rdf:li>Publons</rdf:li>
          </rdf:Bag>
        </dc:subject>
      </cc:Work>
      <cc:License
         rdf:about="http://scripts.sil.org/OFL">
        <cc:permits
           rdf:resource="http://scripts.sil.org/pub/OFL/Reproduction" />
        <cc:permits
           rdf:resource="http://scripts.sil.org/pub/OFL/Distribution" />
        <cc:permits
           rdf:resource="http://scripts.sil.org/pub/OFL/Embedding" />
        <cc:permits
           rdf:resource="http://scripts.sil.org/pub/OFL/DerivativeWorks" />
        <cc:requires
           rdf:resource="http://scripts.sil.org/pub/OFL/Notice" />
        <cc:requires
           rdf:resource="http://scripts.sil.org/pub/OFL/Attribution" />
        <cc:requires
           rdf:resource="http://scripts.sil.org/pub/OFL/ShareAlike" />
        <cc:requires
           rdf:resource="http://scripts.sil.org/pub/OFL/DerivativeRenaming" />
        <cc:requires
           rdf:resource="http://scripts.sil.org/pub/OFL/BundlingWhenSelling" />
      </cc:License>
    </rdf:RDF>
  </metadata>
  <g
     inkscape:label="icon"
     id="layer6"
     inkscape:groupmode="layer">
    <path
       d="M 48 32 C 21.5 32 0 53.5 0 80 L 0 432 C 0 458.5 21.5 480 48 480 L 400 480 C 426.5 480 448 458.5 448 432 L 448 80 C 448 53.5 426.5 32 400 32 L 48 32 z M 185.37109 96.011719 C 186.72859 96.153262 187.58238 97.507213 188.46094 98.451172 C 190.42096 107.0379 190.93933 115.8895 192.61133 124.54297 C 196.10188 120.53362 199.87293 116.76299 204.12109 113.54297 C 223.89042 98.328413 250.75732 91.971278 274.99609 98.673828 C 291.1254 103.09517 304.65186 114.06911 314.89453 127.00391 C 319.19193 132.59484 323.03857 138.60353 325.72266 145.15039 L 325.7207 145.15039 C 330.56205 156.66113 332.04527 169.26619 332.10547 181.66211 C 332.41754 199.65297 329.33823 217.79978 322.34766 234.42383 C 313.52249 255.63326 297.89463 274.28994 277.5332 285.22461 C 261.37036 294.09135 242.49001 297.71445 224.16992 295.95312 C 213.62316 295.0227 203.10846 292.7508 193.42578 288.38672 C 193.50854 311.78549 193.86317 335.17763 194.11914 358.56836 C 194.50596 369.09106 193.73958 379.75383 195.81445 390.14453 C 196.51446 392.9194 197.42212 396.08199 200.02344 397.66211 C 202.63279 399.11937 205.74518 398.69874 208.60938 398.77344 C 213.53347 398.82414 218.45676 398.60067 223.38086 398.85547 C 224.94494 398.85547 226.78125 399.71166 226.81445 401.51562 C 227.0864 405.57566 227.13599 409.69955 226.78125 413.76758 C 226.3864 416.03123 223.57004 416.00705 221.7832 415.99805 C 199.03374 414.62356 176.22706 414.22196 153.4375 414.66602 C 141.51626 414.80602 129.6013 415.6703 117.67969 415.98242 C 117.09453 415.26637 115.9588 414.77181 115.9668 413.72656 C 115.79466 409.91481 115.91649 406.10292 115.90039 402.29883 C 115.79393 400.86711 116.39444 399.01247 118.09961 398.94727 C 124.47987 398.37902 130.92705 399.11239 137.31641 398.61914 C 141.58208 397.84584 143.81974 393.48064 144.51172 389.57812 C 145.8545 381.28741 145.3122 372.85742 145.74023 364.5 C 145.76533 298.35165 145.73976 232.19561 145.75586 166.04688 C 145.74786 164.22833 145.68768 162.41725 145.51562 160.61328 C 145.12769 155.16272 142.86532 149.74481 138.58398 146.2207 C 133.81701 142.11146 127.96077 139.60177 122.52734 136.54688 C 120.45941 135.28687 117.91574 134.21628 116.89453 131.87891 C 116.57446 129.49889 116.54914 127.03802 116.91992 124.66602 C 118.05597 122.89523 120.27978 122.45938 122.05859 121.61133 C 138.90431 114.29263 155.70133 106.84966 172.55469 99.521484 C 176.4667 97.924234 180.45898 96.11405 184.75781 96.03125 C 184.97383 95.997251 185.17717 95.991498 185.37109 96.011719 z M 233.30859 122.64062 C 230.99669 122.57527 228.67879 122.70838 226.38477 123.04492 C 213.4992 124.81571 201.14753 131.70468 193.54883 142.35938 C 193.26083 176.02636 193.52588 209.71951 193.41797 243.39453 C 193.31006 251.1252 195.41993 259.35103 201.0918 264.90039 C 207.72107 270.6233 215.58266 275.07587 224.24414 276.78906 C 235.40012 279.00248 247.74281 279.70194 258.01758 273.98047 C 270.19621 267.45914 277.54916 254.68235 281.17969 241.74609 C 286.95183 220.9563 285.79737 198.88295 281.66406 177.9043 C 278.20522 161.93869 272.31179 145.62771 260.37305 133.99414 C 253.21443 126.91016 243.32683 122.92383 233.30859 122.64062 z "
       id="path2" />
  </g>
</svg>
