<?xml version="1.0" encoding="UTF-8" standalone="no"?>
<svg
   xmlns:dc="http://purl.org/dc/elements/1.1/"
   xmlns:cc="http://creativecommons.org/ns#"
   xmlns:rdf="http://www.w3.org/1999/02/22-rdf-syntax-ns#"
   xmlns:svg="http://www.w3.org/2000/svg"
   xmlns="http://www.w3.org/2000/svg"
   xmlns:sodipodi="http://sodipodi.sourceforge.net/DTD/sodipodi-0.dtd"
   xmlns:inkscape="http://www.inkscape.org/namespaces/inkscape"
   sodipodi:docname="pubpeer.svg"
   inkscape:version="1.0 (1.0+r73+1)"
   id="svg8"
   version="1.1"
   viewBox="0 0 320 512"
   height="512"
   width="320">
  <title
     id="title881">PubPeer</title>
  <defs
     id="defs2" />
  <sodipodi:namedview
     inkscape:window-maximized="1"
     inkscape:window-y="27"
     inkscape:window-x="51"
     inkscape:window-height="713"
     inkscape:window-width="1315"
     inkscape:guide-bbox="true"
     showguides="true"
     units="px"
     showgrid="true"
     inkscape:document-rotation="0"
     inkscape:current-layer="layer6"
     inkscape:document-units="px"
     inkscape:cy="256"
     inkscape:cx="320"
     inkscape:zoom="0.75"
     inkscape:pageshadow="2"
     inkscape:pageopacity="0.0"
     borderopacity="1.0"
     bordercolor="#666666"
     pagecolor="#ffffff"
     id="base"
     scale-x="1">
    <inkscape:grid
       empspacing="4"
       id="grid10"
       type="xygrid" />
    <sodipodi:guide
       inkscape:color="rgb(0,0,255)"
       inkscape:locked="false"
       inkscape:label="baseline"
       id="guide883"
       orientation="0,1"
       position="320,64" />
  </sodipodi:namedview>
  <metadata
     id="metadata5">
    <rdf:RDF>
      <cc:Work
         rdf:about="">
        <dc:format>image/svg+xml</dc:format>
        <dc:type
           rdf:resource="http://purl.org/dc/dcmitype/StillImage" />
        <dc:title>PubPeer</dc:title>
        <cc:license
           rdf:resource="http://scripts.sil.org/OFL" />
        <dc:subject>
          <rdf:Bag>
            <rdf:li>PubPeer</rdf:li>
          </rdf:Bag>
        </dc:subject>
      </cc:Work>
      <cc:License
         rdf:about="http://scripts.sil.org/OFL">
        <cc:permits
           rdf:resource="http://scripts.sil.org/pub/OFL/Reproduction" />
        <cc:permits
           rdf:resource="http://scripts.sil.org/pub/OFL/Distribution" />
        <cc:permits
           rdf:resource="http://scripts.sil.org/pub/OFL/Embedding" />
        <cc:permits
           rdf:resource="http://scripts.sil.org/pub/OFL/DerivativeWorks" />
        <cc:requires
           rdf:resource="http://scripts.sil.org/pub/OFL/Notice" />
        <cc:requires
           rdf:resource="http://scripts.sil.org/pub/OFL/Attribution" />
        <cc:requires
           rdf:resource="http://scripts.sil.org/pub/OFL/ShareAlike" />
        <cc:requires
           rdf:resource="http://scripts.sil.org/pub/OFL/DerivativeRenaming" />
        <cc:requires
           rdf:resource="http://scripts.sil.org/pub/OFL/BundlingWhenSelling" />
      </cc:License>
    </rdf:RDF>
  </metadata>
  <g
     inkscape:label="icon"
     id="layer6"
     inkscape:groupmode="layer">
    <path
       id="path950"
       style="color:#000000;font-style:normal;font-variant:normal;font-weight:normal;font-stretch:normal;font-size:medium;line-height:normal;font-family:sans-serif;font-variant-ligatures:normal;font-variant-position:normal;font-variant-caps:normal;font-variant-numeric:normal;font-variant-alternates:normal;font-variant-east-asian:normal;font-feature-settings:normal;font-variation-settings:normal;text-indent:0;text-align:start;text-decoration:none;text-decoration-line:none;text-decoration-style:solid;text-decoration-color:#000000;letter-spacing:normal;word-spacing:normal;text-transform:none;writing-mode:lr-tb;direction:ltr;text-orientation:mixed;dominant-baseline:auto;baseline-shift:baseline;text-anchor:start;white-space:normal;shape-padding:0;shape-margin:0;inline-size:0;clip-rule:nonzero;display:inline;overflow:visible;visibility:visible;opacity:1;isolation:auto;mix-blend-mode:normal;color-interpolation:sRGB;color-interpolation-filters:linearRGB;solid-color:#000000;solid-opacity:1;vector-effect:none;fill-opacity:1;fill-rule:nonzero;stroke:none;stroke-width:3;stroke-linecap:butt;stroke-linejoin:miter;stroke-miterlimit:4;stroke-dasharray:none;stroke-dashoffset:0;stroke-opacity:1;color-rendering:auto;image-rendering:auto;shape-rendering:auto;text-rendering:auto;enable-background:accumulate;stop-color:#000000;stop-opacity:1"
       d="m 273.64817,32 c -19.93551,0 -36.19919,16.257666 -36.19919,36.193133 0,1.967966 0.20414,3.884331 0.50899,5.768614 L 81.472415,122.32227 c -5.58967,-12.79434 -18.35436,-21.78373 -33.16945,-21.78373 -19.93549,0 -36.19922,16.25765 -36.19922,36.19313 0,17.67715 12.7982,32.43889 29.59439,35.56295 v 235.65235 c -17.74418,2.30086 -31.53946,17.50642 -31.53946,35.85989 -3e-5,19.93379 16.25936,36.19314 36.19313,36.19314 19.93378,0 36.19316,-16.25935 36.19316,-36.19314 0,-11.77309 -5.69531,-22.23214 -14.44575,-28.84907 L 148.20526,282.58285 h 89.57698 c 2.30142,17.74615 17.51089,31.54554 35.86593,31.54554 19.93547,0 36.19316,-16.26371 36.19316,-36.19919 0,-18.35503 -13.79419,-33.55926 -31.53951,-35.85987 V 104.05907 c 17.74532,-2.30142 31.53951,-17.5109 31.53951,-35.865937 C 309.84133,48.257666 293.58364,32 273.64817,32 Z m 0,9.30732 c 14.90543,0 26.8858,11.980395 26.8858,26.885813 0,14.905437 -11.98037,26.891858 -26.8858,26.891858 -14.90545,0 -26.89188,-11.986421 -26.89188,-26.891858 0,-14.905418 11.98645,-26.885813 26.89188,-26.885813 z m -33.04224,41.573943 c 2.24336,5.015947 5.58437,9.436958 9.73149,12.942991 L 60.021945,410.32229 c -2.84324,-1.16732 -5.86923,-1.96722 -9.01647,-2.37532 V 172.79152 c 18.67655,-1.39557 33.4906,-17.03688 33.4906,-36.05985 0,-1.86261 -0.18676,-3.67748 -0.46048,-5.46562 z m 17.56032,17.972357 c 3.36276,1.60381 6.99771,2.70869 10.82823,3.20544 v 138.01025 c -16.21805,2.10253 -29.10898,14.98887 -31.21224,31.2062 h -83.94776 z m -209.863285,8.99225 c 14.90544,0 26.8858,11.98035 26.8858,26.8858 0,14.90546 -11.98036,26.89189 -26.8858,26.89189 -14.90545,0 -26.89188,-11.98645 -26.89188,-26.89189 0,-14.90545 11.98643,-26.8858 26.89188,-26.8858 z M 273.64817,251.04335 c 14.90543,0 26.8858,11.98038 26.8858,26.88583 0,14.90543 -11.98037,26.89187 -26.8858,26.89187 -14.90545,0 -26.89188,-11.98644 -26.89188,-26.89187 0,-14.90545 11.98643,-26.88583 26.89188,-26.88583 z M 46.351805,416.92103 c 14.90374,0 26.88582,11.98211 26.88582,26.88583 0,14.90373 -11.98208,26.8858 -26.88582,26.8858 -14.90373,0 -26.88583,-11.98207 -26.8858,-26.8858 0,-14.90372 11.98209,-26.88583 26.8858,-26.88583 z" />
  </g>
</svg>
