<?xml version="1.0" encoding="UTF-8" standalone="no"?>
<svg
   xmlns:dc="http://purl.org/dc/elements/1.1/"
   xmlns:cc="http://creativecommons.org/ns#"
   xmlns:rdf="http://www.w3.org/1999/02/22-rdf-syntax-ns#"
   xmlns:svg="http://www.w3.org/2000/svg"
   xmlns="http://www.w3.org/2000/svg"
   xmlns:sodipodi="http://sodipodi.sourceforge.net/DTD/sodipodi-0.dtd"
   xmlns:inkscape="http://www.inkscape.org/namespaces/inkscape"
   width="448"
   height="512"
   viewBox="0 0 448 512"
   version="1.1"
   id="svg8"
   inkscape:version="1.0 (1.0+r73+1)"
   sodipodi:docname="pubpeer-square.svg">
  <title
     id="title864">PubPeer</title>
  <defs
     id="defs2" />
  <sodipodi:namedview
     id="base"
     pagecolor="#ffffff"
     bordercolor="#666666"
     borderopacity="1.0"
     inkscape:pageopacity="0.0"
     inkscape:pageshadow="2"
     inkscape:zoom="0.75"
     inkscape:cx="203.33333"
     inkscape:cy="256"
     inkscape:document-units="px"
     inkscape:current-layer="layer6"
     inkscape:document-rotation="0"
     showgrid="true"
     units="px"
     showguides="true"
     inkscape:guide-bbox="true"
     inkscape:window-width="1315"
     inkscape:window-height="713"
     inkscape:window-x="51"
     inkscape:window-y="27"
     inkscape:window-maximized="1">
    <inkscape:grid
       type="xygrid"
       id="grid10"
       empspacing="4" />
    <sodipodi:guide
       position="448,416"
       orientation="0,1"
       id="guide832"
       inkscape:label=""
       inkscape:locked="true"
       inkscape:color="rgb(0,0,255)" />
    <sodipodi:guide
       position="448,96"
       orientation="0,1"
       id="guide834"
       inkscape:label=""
       inkscape:locked="true"
       inkscape:color="rgb(0,0,255)" />
    <sodipodi:guide
       position="448,64"
       orientation="0,1"
       id="guide836"
       inkscape:label="baseline"
       inkscape:locked="true"
       inkscape:color="rgb(0,0,255)" />
    <sodipodi:guide
       id="guide835"
       orientation="1,0"
       position="64,512" />
    <sodipodi:guide
       id="guide837"
       orientation="1,0"
       position="384,512" />
  </sodipodi:namedview>
  <metadata
     id="metadata5">
    <rdf:RDF>
      <cc:Work
         rdf:about="">
        <dc:format>image/svg+xml</dc:format>
        <dc:type
           rdf:resource="http://purl.org/dc/dcmitype/StillImage" />
        <dc:title>PubPeer</dc:title>
        <cc:license
           rdf:resource="http://scripts.sil.org/OFL" />
        <dc:subject>
          <rdf:Bag>
            <rdf:li>PubPeer</rdf:li>
          </rdf:Bag>
        </dc:subject>
      </cc:Work>
      <cc:License
         rdf:about="http://scripts.sil.org/OFL">
        <cc:permits
           rdf:resource="http://scripts.sil.org/pub/OFL/Reproduction" />
        <cc:permits
           rdf:resource="http://scripts.sil.org/pub/OFL/Distribution" />
        <cc:permits
           rdf:resource="http://scripts.sil.org/pub/OFL/Embedding" />
        <cc:permits
           rdf:resource="http://scripts.sil.org/pub/OFL/DerivativeWorks" />
        <cc:requires
           rdf:resource="http://scripts.sil.org/pub/OFL/Notice" />
        <cc:requires
           rdf:resource="http://scripts.sil.org/pub/OFL/Attribution" />
        <cc:requires
           rdf:resource="http://scripts.sil.org/pub/OFL/ShareAlike" />
        <cc:requires
           rdf:resource="http://scripts.sil.org/pub/OFL/DerivativeRenaming" />
        <cc:requires
           rdf:resource="http://scripts.sil.org/pub/OFL/BundlingWhenSelling" />
      </cc:License>
    </rdf:RDF>
  </metadata>
  <g
     inkscape:groupmode="layer"
     id="layer6"
     inkscape:label="icon">
    <path
       d="M 48 32 C 21.5 32 0 53.5 0 80 L 0 432 C 0 458.5 21.5 480 48 480 L 400 480 C 426.5 480 448 458.5 448 432 L 448 80 C 448 53.5 426.5 32 400 32 L 48 32 z M 305.17773 96 C 319.41736 96 331.0293 107.61194 331.0293 121.85156 C 331.0293 134.9623 321.17718 145.82683 308.50195 147.4707 L 308.50195 246.04883 C 321.17718 247.69212 331.0293 258.55333 331.0293 271.66406 C 331.0293 285.90369 319.41736 297.51953 305.17773 297.51953 C 292.06699 297.51953 281.20246 287.6641 279.55859 274.98828 L 215.57422 274.98828 L 158.35742 369.54102 C 164.60773 374.2674 168.67578 381.73909 168.67578 390.14844 C 168.67578 404.38686 157.06069 416 142.82227 416 C 128.58387 416 116.97068 404.38686 116.9707 390.14844 C 116.9707 377.03881 126.82363 366.17667 139.49805 364.5332 L 139.49805 196.21094 C 127.50077 193.97947 118.35938 183.43512 118.35938 170.80859 C 118.35938 156.56896 129.97717 144.95703 144.2168 144.95703 C 154.79901 144.95703 163.91558 151.3768 167.9082 160.51562 L 279.68359 125.97266 C 279.46584 124.62674 279.32031 123.25725 279.32031 121.85156 C 279.32031 107.61194 290.93808 96 305.17773 96 z M 305.17773 102.64844 C 294.531 102.64844 285.96875 111.20483 285.96875 121.85156 C 285.96875 132.4983 294.53098 141.06055 305.17773 141.06055 C 315.82447 141.06055 324.38086 132.4983 324.38086 121.85156 C 324.38086 111.20483 315.82447 102.64844 305.17773 102.64844 z M 281.57617 132.34375 L 169.74023 166.9043 C 169.93574 168.18154 170.06836 169.47815 170.06836 170.80859 C 170.06836 184.39642 159.48688 195.56761 146.14648 196.56445 L 146.14648 364.5332 C 148.39451 364.8247 150.557 365.39667 152.58789 366.23047 L 288.52734 141.58789 C 285.56511 139.08358 283.17857 135.92657 281.57617 132.34375 z M 294.11914 145.18164 L 219.5957 268.33984 L 279.55859 268.33984 C 281.06092 256.75603 290.2692 247.55063 301.85352 246.04883 L 301.85352 147.4707 C 299.11743 147.11587 296.52111 146.32721 294.11914 145.18164 z M 144.2168 151.60352 C 133.57005 151.60352 125.00781 160.16183 125.00781 170.80859 C 125.00781 181.45533 133.57005 190.01758 144.2168 190.01758 C 154.86354 190.01758 163.41992 181.45534 163.41992 170.80859 C 163.41992 160.16183 154.86354 151.60352 144.2168 151.60352 z M 305.17773 252.45898 C 294.53098 252.45898 285.96875 261.01731 285.96875 271.66406 C 285.96875 282.31079 294.53098 290.87305 305.17773 290.87305 C 315.82447 290.87305 324.38086 282.31079 324.38086 271.66406 C 324.38086 261.01731 315.82447 252.45898 305.17773 252.45898 z M 142.82227 370.94336 C 132.17677 370.94336 123.61914 379.50292 123.61914 390.14844 C 123.61912 400.79396 132.17675 409.35156 142.82227 409.35156 C 153.4678 409.35156 162.02734 400.79396 162.02734 390.14844 C 162.02734 379.50292 153.4678 370.94336 142.82227 370.94336 z "
       id="path2" />
  </g>
</svg>
