<?xml version="1.0" encoding="utf-8"?>
<!-- Generator: Adobe Illustrator 16.0.0, SVG Export Plug-In . SVG Version: 6.00 Build 0)  -->
<!DOCTYPE svg PUBLIC "-//W3C//DTD SVG 1.1//EN" "http://www.w3.org/Graphics/SVG/1.1/DTD/svg11.dtd" [
	<!ENTITY st0 "fill-rule:evenodd;clip-rule:evenodd;fill:#444444;">
	<!ENTITY st1 "fill:#444444;">
]>
<svg version="1.1" id="Layer_1" xmlns="http://www.w3.org/2000/svg" xmlns:xlink="http://www.w3.org/1999/xlink" x="0px" y="0px"
	 width="28px" height="28px" viewBox="0 0 28 28" style="enable-background:new 0 0 28 28;" xml:space="preserve">
<g>
	<path style="&st1;" d="M7.883,6c1.807,0,2.859,0.188,3.644,0.675c1.24,0.782,1.942,2.212,1.942,4.102
		c0,2.401-0.999,3.859-2.995,4.317c2.455,0.485,2.86,1.323,2.913,6.043c0.057,1.646,0.136,1.971,0.648,2.863H10.23
		c-0.351-0.649-0.434-1.244-0.513-4.077c-0.055-1.969-0.189-2.535-0.648-2.994c-0.376-0.405-0.863-0.54-2.024-0.54H5.613V24H2V6
		H7.883z M5.613,13.852H7.02c0.917,0,1.483-0.136,1.862-0.431c0.646-0.459,0.943-1.216,0.943-2.268c0-1.781-0.81-2.511-2.806-2.511
		H5.613V13.852z"/>
	<path style="&st1;" d="M26,14.456v9.183h-2.49l-0.024-0.806c-0.025-0.338-0.025-0.415-0.053-1.063
		c-0.57,1.453-1.866,2.23-3.735,2.23s-3.241-0.727-4.02-2.074c-0.806-1.349-1.115-3.321-1.115-6.691
		c0-3.917,0.337-5.759,1.244-7.133C16.766,6.699,18.298,6,20.424,6c3.63,0,5.396,1.789,5.396,5.499h-3.371
		c-0.053-2.102-0.676-3.034-2.024-3.034c-0.934,0-1.608,0.545-1.894,1.505c-0.284,1.037-0.389,2.359-0.389,5.187
		c0,4.929,0.543,6.407,2.334,6.407c0.908,0,1.659-0.596,1.945-1.53c0.207-0.752,0.312-1.634,0.312-3.139h-2.386v-2.438H26L26,14.456
		z"/>
</g>
</svg>
