<?xml version="1.0" encoding="utf-8"?>
<!-- Generator: Adobe Illustrator 16.0.0, SVG Export Plug-In . SVG Version: 6.00 Build 0)  -->
<!DOCTYPE svg PUBLIC "-//W3C//DTD SVG 1.1//EN" "http://www.w3.org/Graphics/SVG/1.1/DTD/svg11.dtd" [
	<!ENTITY st0 "fill-rule:evenodd;clip-rule:evenodd;fill:#444444;">
	<!ENTITY st1 "fill:#444444;">
]>
<svg version="1.1" id="Layer_1" xmlns="http://www.w3.org/2000/svg" xmlns:xlink="http://www.w3.org/1999/xlink" x="0px" y="0px"
	 width="28px" height="28px" viewBox="0 0 28 28" style="enable-background:new 0 0 28 28;" xml:space="preserve">
<g>
	<g>
		<path style="&st1;" d="M6.184,8.701H5.012v4.342h1.172c0.764,0,1.235-0.113,1.552-0.357c0.539-0.383,0.786-1.014,0.786-1.891
			C8.521,9.309,7.847,8.701,6.184,8.701z M22.68,3.32C21.8,2.439,20.74,2,19.5,2h-15C3.26,2,2.201,2.439,1.32,3.32
			C0.439,4.199,0,5.26,0,6.5v15c0,1.24,0.439,2.301,1.32,3.182C2.201,25.559,3.262,26,4.5,26h15c1.24,0,2.3-0.441,3.18-1.32
			c0.881-0.881,1.321-1.939,1.321-3.18v-15C24.001,5.26,23.561,4.199,22.68,3.32z M8.86,21.5c-0.293-0.541-0.362-1.035-0.429-3.396
			c-0.046-1.641-0.157-2.113-0.54-2.496c-0.314-0.338-0.72-0.449-1.688-0.449H5.012V21.5H2v-15h4.903
			c1.505,0,2.382,0.156,3.035,0.562c1.034,0.65,1.619,1.844,1.619,3.418c0,2-0.832,3.217-2.496,3.598
			c2.046,0.404,2.383,1.104,2.427,5.037c0.048,1.371,0.114,1.643,0.542,2.385H8.86z M22,21.199h-2.074l-0.021-0.67
			c-0.022-0.283-0.022-0.348-0.044-0.887c-0.477,1.209-1.555,1.857-3.114,1.857c-1.557,0-2.7-0.604-3.348-1.729
			c-0.672-1.123-0.93-2.768-0.93-5.576c0-3.264,0.279-4.799,1.036-5.943c0.799-1.17,2.077-1.752,3.849-1.752
			c3.024,0,4.496,1.49,4.496,4.582h-2.81c-0.044-1.75-0.564-2.527-1.687-2.527c-0.778,0-1.341,0.455-1.579,1.252
			c-0.235,0.865-0.323,1.969-0.323,4.324c0,4.107,0.453,5.338,1.945,5.338c0.756,0,1.382-0.496,1.62-1.275
			c0.173-0.625,0.26-1.361,0.26-2.615h-1.988v-2.031H22V21.199z"/>
	</g>
</g>
</svg>
