<?xml version="1.0" encoding="UTF-8" standalone="no"?>
<svg
   xmlns:dc="http://purl.org/dc/elements/1.1/"
   xmlns:cc="http://creativecommons.org/ns#"
   xmlns:rdf="http://www.w3.org/1999/02/22-rdf-syntax-ns#"
   xmlns:svg="http://www.w3.org/2000/svg"
   xmlns="http://www.w3.org/2000/svg"
   xmlns:sodipodi="http://sodipodi.sourceforge.net/DTD/sodipodi-0.dtd"
   xmlns:inkscape="http://www.inkscape.org/namespaces/inkscape"
   sodipodi:docname="ror-square.svg"
   inkscape:version="1.0.1 (1.0.1+r73)"
   id="svg8"
   version="1.1"
   viewBox="0 0 448 512"
   height="512"
   width="448">
  <title
     id="title844">Research Organization Registry</title>
  <defs
     id="defs2" />
  <sodipodi:namedview
     inkscape:window-maximized="1"
     inkscape:window-y="29"
     inkscape:window-x="56"
     inkscape:window-height="702"
     inkscape:window-width="1310"
     inkscape:guide-bbox="true"
     showguides="true"
     units="px"
     showgrid="true"
     inkscape:document-rotation="0"
     inkscape:current-layer="layer6"
     inkscape:document-units="px"
     inkscape:cy="256"
     inkscape:cx="224"
     inkscape:zoom="0.75"
     inkscape:pageshadow="2"
     inkscape:pageopacity="0.0"
     borderopacity="1.0"
     bordercolor="#666666"
     pagecolor="#ffffff"
     id="base">
    <inkscape:grid
       empspacing="4"
       id="grid10"
       type="xygrid" />
    <sodipodi:guide
       inkscape:color="rgb(0,0,255)"
       inkscape:locked="true"
       inkscape:label=""
       id="guide832"
       orientation="0,1"
       position="448,416" />
    <sodipodi:guide
       inkscape:color="rgb(0,0,255)"
       inkscape:locked="true"
       inkscape:label=""
       id="guide834"
       orientation="0,1"
       position="448,96" />
    <sodipodi:guide
       inkscape:color="rgb(0,0,255)"
       inkscape:locked="true"
       inkscape:label="baseline"
       id="guide836"
       orientation="0,1"
       position="448,64" />
    <sodipodi:guide
       position="64,512"
       orientation="1,0"
       id="guide835" />
    <sodipodi:guide
       position="384,512"
       orientation="1,0"
       id="guide837" />
  </sodipodi:namedview>
  <metadata
     id="metadata5">
    <rdf:RDF>
      <cc:Work
         rdf:about="">
        <dc:format>image/svg+xml</dc:format>
        <dc:type
           rdf:resource="http://purl.org/dc/dcmitype/StillImage" />
        <dc:title>Research Organization Registry</dc:title>
        <cc:license
           rdf:resource="http://scripts.sil.org/OFL" />
        <dc:subject>
          <rdf:Bag>
            <rdf:li>Research Organization Registry</rdf:li>
          </rdf:Bag>
        </dc:subject>
      </cc:Work>
      <cc:License
         rdf:about="http://scripts.sil.org/OFL">
        <cc:permits
           rdf:resource="http://scripts.sil.org/pub/OFL/Reproduction" />
        <cc:permits
           rdf:resource="http://scripts.sil.org/pub/OFL/Distribution" />
        <cc:permits
           rdf:resource="http://scripts.sil.org/pub/OFL/Embedding" />
        <cc:permits
           rdf:resource="http://scripts.sil.org/pub/OFL/DerivativeWorks" />
        <cc:requires
           rdf:resource="http://scripts.sil.org/pub/OFL/Notice" />
        <cc:requires
           rdf:resource="http://scripts.sil.org/pub/OFL/Attribution" />
        <cc:requires
           rdf:resource="http://scripts.sil.org/pub/OFL/ShareAlike" />
        <cc:requires
           rdf:resource="http://scripts.sil.org/pub/OFL/DerivativeRenaming" />
        <cc:requires
           rdf:resource="http://scripts.sil.org/pub/OFL/BundlingWhenSelling" />
      </cc:License>
    </rdf:RDF>
  </metadata>
  <g
     inkscape:label="icon"
     id="layer6"
     inkscape:groupmode="layer">
    <path
       id="path2"
       d="M 48 32 C 21.5 32 0 53.5 0 80 L 0 432 C 0 458.5 21.5 480 48 480 L 400 480 C 426.5 480 448 458.5 448 432 L 448 80 C 448 53.5 426.5 32 400 32 L 48 32 z M 94.828125 96 L 176.49219 96 L 135.67773 158.51367 L 94.828125 96 z M 271.50781 96 L 353.17188 96 L 312.35547 158.51367 L 271.50781 96 z M 153.30664 170.13281 L 219.80859 170.13281 C 228.55233 170.13281 236.84068 170.97955 244.70703 172.67383 C 252.54311 174.36813 259.44203 177.21428 265.3418 181.17773 C 271.2718 185.14117 275.96207 190.49622 279.44141 197.21289 C 282.92077 203.92954 284.67383 212.30879 284.67383 222.35352 C 284.67383 234.48583 281.5284 244.80298 275.20508 253.30469 C 268.91199 261.80641 259.68597 267.19181 247.46289 269.46094 L 291.17969 342.07227 L 245.76562 342.07227 L 209.82227 273.33203 L 191.125 273.33203 L 191.125 342.04492 L 153.24609 342.04492 L 153.30664 170.13281 z M 191.21875 202.17578 L 191.21875 241.29297 L 213.54492 241.29297 C 216.9335 241.29297 220.53551 241.17175 224.34766 240.92969 C 228.15982 240.68765 231.57804 239.96217 234.66406 238.75195 C 237.75011 237.54175 240.29127 235.63516 242.31836 233.0332 C 244.34546 230.43127 245.34275 226.80183 245.37305 222.08203 C 245.37305 217.72529 244.49599 214.2465 242.71094 211.64453 C 240.92587 209.0426 238.65949 207.07533 235.90625 205.68359 C 233.15302 204.32211 230.00174 203.38251 226.43164 202.89844 C 222.86152 202.41435 219.38271 202.17578 215.99414 202.17578 L 191.21875 202.17578 z M 135.67773 353.49609 L 176.49219 416 L 94.828125 416 L 135.67773 353.49609 z M 312.35547 353.49609 L 353.17188 416 L 271.50781 416 L 312.35547 353.49609 z " />
  </g>
</svg>
