<?xml version="1.0" encoding="UTF-8" standalone="no"?>
<svg
   xmlns:dc="http://purl.org/dc/elements/1.1/"
   xmlns:cc="http://creativecommons.org/ns#"
   xmlns:rdf="http://www.w3.org/1999/02/22-rdf-syntax-ns#"
   xmlns:svg="http://www.w3.org/2000/svg"
   xmlns="http://www.w3.org/2000/svg"
   xmlns:sodipodi="http://sodipodi.sourceforge.net/DTD/sodipodi-0.dtd"
   xmlns:inkscape="http://www.inkscape.org/namespaces/inkscape"
   sodipodi:docname="ror-square.svg"
   inkscape:version="0.92.5 (2060ec1f9f, 2020-04-08)"
   id="svg8"
   version="1.1"
   viewBox="0 0 448 512"
   height="512"
   width="448">
  <title
     id="title844">Research Organization Registry</title>
  <defs
     id="defs2" />
  <sodipodi:namedview
     inkscape:window-maximized="1"
     inkscape:window-y="27"
     inkscape:window-x="1976"
     inkscape:window-height="704"
     inkscape:window-width="1310"
     inkscape:guide-bbox="true"
     showguides="true"
     units="px"
     showgrid="true"
     inkscape:document-rotation="0"
     inkscape:current-layer="layer6"
     inkscape:document-units="px"
     inkscape:cy="250.66667"
     inkscape:cx="-18"
     inkscape:zoom="0.75"
     inkscape:pageshadow="2"
     inkscape:pageopacity="0.0"
     borderopacity="1.0"
     bordercolor="#666666"
     pagecolor="#ffffff"
     id="base">
    <inkscape:grid
       empspacing="4"
       id="grid10"
       type="xygrid" />
    <sodipodi:guide
       inkscape:color="rgb(0,0,255)"
       inkscape:locked="false"
       inkscape:label=""
       id="guide832"
       orientation="0,1"
       position="448,416" />
    <sodipodi:guide
       inkscape:color="rgb(0,0,255)"
       inkscape:locked="false"
       inkscape:label=""
       id="guide834"
       orientation="0,1"
       position="448,96" />
    <sodipodi:guide
       inkscape:color="rgb(0,0,255)"
       inkscape:locked="false"
       inkscape:label="baseline"
       id="guide836"
       orientation="0,1"
       position="448,64" />
    <sodipodi:guide
       position="64,512"
       orientation="1,0"
       id="guide835"
       inkscape:locked="false" />
    <sodipodi:guide
       position="384,512"
       orientation="1,0"
       id="guide837"
       inkscape:locked="false" />
  </sodipodi:namedview>
  <metadata
     id="metadata5">
    <rdf:RDF>
      <cc:Work
         rdf:about="">
        <dc:format>image/svg+xml</dc:format>
        <dc:type
           rdf:resource="http://purl.org/dc/dcmitype/StillImage" />
        <dc:title>Research Organization Registry</dc:title>
        <cc:license
           rdf:resource="http://scripts.sil.org/OFL" />
        <dc:subject>
          <rdf:Bag>
            <rdf:li>Research Organization Registry</rdf:li>
          </rdf:Bag>
        </dc:subject>
      </cc:Work>
      <cc:License
         rdf:about="http://scripts.sil.org/OFL">
        <cc:permits
           rdf:resource="http://scripts.sil.org/pub/OFL/Reproduction" />
        <cc:permits
           rdf:resource="http://scripts.sil.org/pub/OFL/Distribution" />
        <cc:permits
           rdf:resource="http://scripts.sil.org/pub/OFL/Embedding" />
        <cc:permits
           rdf:resource="http://scripts.sil.org/pub/OFL/DerivativeWorks" />
        <cc:requires
           rdf:resource="http://scripts.sil.org/pub/OFL/Notice" />
        <cc:requires
           rdf:resource="http://scripts.sil.org/pub/OFL/Attribution" />
        <cc:requires
           rdf:resource="http://scripts.sil.org/pub/OFL/ShareAlike" />
        <cc:requires
           rdf:resource="http://scripts.sil.org/pub/OFL/DerivativeRenaming" />
        <cc:requires
           rdf:resource="http://scripts.sil.org/pub/OFL/BundlingWhenSelling" />
      </cc:License>
    </rdf:RDF>
  </metadata>
  <g
     inkscape:label="icon"
     id="layer6"
     inkscape:groupmode="layer">
    <path
       d="M 48 32 C 21.5 32 0 53.5 0 80 L 0 432 C 0 458.5 21.5 480 48 480 L 400 480 C 426.5 480 448 458.5 448 432 L 448 80 C 448 53.5 426.5 32 400 32 L 48 32 z M 144.96875 141.94531 L 194.70508 141.94531 L 169.8457 180.02344 L 144.96875 141.94531 z M 248.99219 141.94531 L 298.72852 141.94531 L 273.87305 180.02344 L 248.99219 141.94531 z M 220.30078 188.73242 C 230.05561 188.73242 239.05366 190.26486 247.27148 193.31836 C 255.5098 196.37186 262.60092 200.75793 268.60547 206.45508 C 274.61001 212.15222 279.28263 219.06334 282.62305 227.1582 C 283.07389 228.26484 283.48171 229.36895 283.87109 230.49609 L 283.87109 191.90625 L 332.1543 191.90625 C 338.48673 191.90625 344.51378 192.52235 350.21094 193.75195 C 355.90808 194.98154 360.9044 197.05086 365.1875 199.91992 C 369.47061 202.80949 372.89338 206.68119 375.41406 211.55859 C 377.93475 216.43601 379.20508 222.50321 379.20508 229.79883 C 379.20508 238.59046 376.93035 246.09324 372.33984 252.26172 C 367.76982 258.43022 361.0719 262.341 352.25977 263.98047 L 384 316.67188 L 351.04688 316.67188 L 324.96094 266.79102 L 311.39258 266.79102 L 311.39258 316.67188 L 283.91016 316.67188 L 283.91016 278.08203 C 283.52078 279.20916 283.11297 280.33377 282.66211 281.41992 C 279.3012 289.51478 274.62857 296.42394 268.64453 302.12109 C 262.63999 307.81823 255.52837 312.20041 247.31055 315.25391 C 239.07224 318.3074 230.09662 319.8457 220.3418 319.8457 C 210.58698 319.8457 201.58892 318.3074 193.37109 315.25391 C 185.13277 312.20041 178.0231 307.81823 172.03906 302.12109 C 166.03451 296.42394 161.3619 289.51478 158.02148 281.41992 C 154.68108 273.32505 153.00195 264.26736 153.00195 254.28711 C 153.00195 253.30343 153.0215 252.34014 153.0625 251.37695 C 152.85756 251.66385 152.6737 251.97482 152.46875 252.26172 C 147.89875 258.43022 141.1969 262.34099 132.38477 263.98047 L 164.08984 316.67188 L 131.13477 316.67188 L 105.04688 266.79102 L 91.482422 266.79102 L 91.482422 316.67188 L 64 316.67188 L 64 191.90625 L 112.25977 191.90625 C 118.5922 191.90625 124.6173 192.52235 130.31445 193.75195 C 136.01159 194.98154 141.01379 197.05086 145.29688 199.91992 C 149.57999 202.80949 153.00277 206.68119 155.52344 211.55859 C 157.42932 215.24739 158.61459 219.63347 159.08594 224.69531 C 162.32388 217.64561 166.6288 211.55791 171.99805 206.45508 C 178.00259 200.75793 185.11421 196.37186 193.33203 193.31836 C 201.57035 190.26486 210.54596 188.73242 220.30078 188.73242 z M 220.32227 214.10156 C 214.44069 214.10156 209.13336 215.10591 204.37891 217.09375 C 199.60396 219.10211 195.52493 221.89023 192.12305 225.47656 C 188.70067 229.0629 186.0993 233.30525 184.27539 238.24414 C 182.45148 243.18303 181.54883 248.52849 181.54883 254.28711 C 181.54883 260.16869 182.45149 265.54056 184.27539 270.41797 C 186.0993 275.29539 188.72115 279.51522 192.12305 283.10156 C 195.54544 286.68789 199.62445 289.49457 204.37891 291.48242 C 209.13335 293.47027 214.44068 294.47656 220.32227 294.47656 C 226.18336 294.47656 231.50922 293.49076 236.26367 291.48242 C 241.03861 289.47407 245.11765 286.68789 248.51953 283.10156 C 251.94194 279.51522 254.54522 275.29539 256.36914 270.41797 C 258.19303 265.54056 259.0957 260.16869 259.0957 254.28711 C 259.0957 248.52849 258.19303 243.18303 256.36914 238.24414 C 254.54522 233.32574 251.92143 229.06289 248.51953 225.47656 C 245.09716 221.89023 241.01812 219.08162 236.26367 217.09375 C 231.50923 215.1059 226.20385 214.10156 220.32227 214.10156 z M 91.501953 215.16602 L 91.501953 243.52734 L 107.71289 243.52734 C 110.19258 243.52734 112.7959 243.44811 115.5625 243.26367 C 118.3086 243.09972 120.80529 242.56872 123.03906 241.6875 C 125.27283 240.80629 127.11823 239.4303 128.59375 237.54492 C 130.06927 235.65952 130.80859 233.01616 130.80859 229.63477 C 130.80859 226.4583 130.15046 223.94007 128.85938 222.05469 C 127.5683 220.16931 125.90777 218.73073 123.91992 217.72656 C 121.93207 216.72239 119.63684 216.04956 117.05469 215.70117 C 114.47253 215.35277 111.93382 215.16602 109.47461 215.16602 L 91.501953 215.16602 z M 311.37305 215.16602 L 311.37305 243.52734 L 327.58398 243.52734 C 330.06367 243.52734 332.66699 243.44811 335.43359 243.26367 C 338.17969 243.09972 340.68029 242.56872 342.91406 241.6875 C 345.14783 240.80629 346.98932 239.4303 348.46484 237.54492 C 349.94034 235.65952 350.67969 233.01616 350.67969 229.63477 C 350.67969 226.4583 350.02546 223.94007 348.73438 222.05469 C 347.44331 220.16931 345.78277 218.73073 343.79492 217.72656 C 341.80706 216.72239 339.51185 216.04956 336.92969 215.70117 C 334.34753 215.35277 331.8049 215.16602 329.3457 215.16602 L 311.37305 215.16602 z M 169.8457 331.95703 L 194.70508 370.05469 L 144.96875 370.05469 L 169.8457 331.95703 z M 273.87305 331.95703 L 298.72852 370.05469 L 248.99219 370.05469 L 273.87305 331.95703 z "
       id="path2" />
  </g>
</svg>
