<?xml version="1.0" encoding="UTF-8" standalone="no"?>
<svg
   xmlns:dc="http://purl.org/dc/elements/1.1/"
   xmlns:cc="http://creativecommons.org/ns#"
   xmlns:rdf="http://www.w3.org/1999/02/22-rdf-syntax-ns#"
   xmlns:svg="http://www.w3.org/2000/svg"
   xmlns="http://www.w3.org/2000/svg"
   xmlns:sodipodi="http://sodipodi.sourceforge.net/DTD/sodipodi-0.dtd"
   xmlns:inkscape="http://www.inkscape.org/namespaces/inkscape"
   width="576"
   height="512"
   viewBox="0 0 576 512"
   version="1.1"
   id="svg8"
   inkscape:version="0.92.5 (2060ec1f9f, 2020-04-08)"
   sodipodi:docname="ror.svg">
  <title
     id="title861">Research Organization Registry</title>
  <defs
     id="defs2" />
  <sodipodi:namedview
     scale-x="1"
     id="base"
     pagecolor="#ffffff"
     bordercolor="#666666"
     borderopacity="1.0"
     inkscape:pageopacity="0.0"
     inkscape:pageshadow="2"
     inkscape:zoom="0.75"
     inkscape:cx="99.734694"
     inkscape:cy="245.33334"
     inkscape:document-units="px"
     inkscape:current-layer="layer6"
     inkscape:document-rotation="0"
     showgrid="true"
     units="px"
     showguides="true"
     inkscape:guide-bbox="true"
     inkscape:window-width="1310"
     inkscape:window-height="704"
     inkscape:window-x="1976"
     inkscape:window-y="27"
     inkscape:window-maximized="1">
    <inkscape:grid
       type="xygrid"
       id="grid10"
       empspacing="4" />
    <sodipodi:guide
       position="576,64"
       orientation="0,1"
       id="guide881"
       inkscape:label="baseline"
       inkscape:locked="false"
       inkscape:color="rgb(0,0,255)" />
  </sodipodi:namedview>
  <metadata
     id="metadata5">
    <rdf:RDF>
      <cc:Work
         rdf:about="">
        <dc:format>image/svg+xml</dc:format>
        <dc:type
           rdf:resource="http://purl.org/dc/dcmitype/StillImage" />
        <dc:title>Research Organization Registry</dc:title>
        <cc:license
           rdf:resource="http://scripts.sil.org/OFL" />
        <dc:subject>
          <rdf:Bag>
            <rdf:li>Research Organization Registry</rdf:li>
          </rdf:Bag>
        </dc:subject>
      </cc:Work>
      <cc:License
         rdf:about="http://scripts.sil.org/OFL">
        <cc:permits
           rdf:resource="http://scripts.sil.org/pub/OFL/Reproduction" />
        <cc:permits
           rdf:resource="http://scripts.sil.org/pub/OFL/Distribution" />
        <cc:permits
           rdf:resource="http://scripts.sil.org/pub/OFL/Embedding" />
        <cc:permits
           rdf:resource="http://scripts.sil.org/pub/OFL/DerivativeWorks" />
        <cc:requires
           rdf:resource="http://scripts.sil.org/pub/OFL/Notice" />
        <cc:requires
           rdf:resource="http://scripts.sil.org/pub/OFL/Attribution" />
        <cc:requires
           rdf:resource="http://scripts.sil.org/pub/OFL/ShareAlike" />
        <cc:requires
           rdf:resource="http://scripts.sil.org/pub/OFL/DerivativeRenaming" />
        <cc:requires
           rdf:resource="http://scripts.sil.org/pub/OFL/BundlingWhenSelling" />
      </cc:License>
    </rdf:RDF>
  </metadata>
  <g
     inkscape:groupmode="layer"
     id="layer6"
     inkscape:label="icon">
    <path
       inkscape:connector-curvature="0"
       style="clip-rule:evenodd;fill-rule:nonzero;stroke:none;stroke-width:0.99999994;stroke-linejoin:round;stroke-miterlimit:2"
       d="m 154.95777,64.000011 41.8768,64.098829 41.84987,-64.098831 z m 175.11447,0 41.88357,64.098829 41.8431,-64.098831 z m -48.29816,78.760759 c -16.42137,0 -31.53231,2.58148 -45.40078,7.72178 -13.83397,5.1403 -25.80556,12.52357 -35.91367,22.11421 -9.03866,8.59016 -16.28608,18.83762 -21.73687,30.70516 -0.79347,-8.52116 -2.78846,-15.90444 -5.99684,-22.11421 -4.24333,-8.21067 -10.00544,-14.72985 -17.21567,-19.59417 -7.21021,-4.82982 -15.62976,-8.31336 -25.2204,-10.38327 -9.59063,-2.06992 -19.73514,-3.10623 -30.39523,-3.10623 H 18.65426 V 358.13495 H 64.91754 V 274.1657 H 87.7527 l 43.91845,83.96925 h 55.47415 l -53.37191,-88.69933 c 14.83444,-2.7599 26.1182,-9.34483 33.8114,-19.72894 0.34499,-0.48298 0.65228,-1.00612 0.99727,-1.4891 -0.069,1.62144 -0.10112,3.24261 -0.10112,4.89854 0,16.80086 2.8262,32.05008 8.44948,45.67706 5.62328,13.62698 13.48843,25.25842 23.59655,34.84906 10.07361,9.59063 22.0452,16.96715 35.91368,22.10746 13.83396,5.14029 28.97941,7.72851 45.40078,7.72851 16.42137,0 31.53235,-2.58822 45.40081,-7.72851 13.83398,-5.1403 25.80556,-12.51683 35.91367,-22.10746 10.07361,-9.59064 17.93876,-21.22208 23.59655,-34.84906 0.75897,-1.82843 1.4468,-3.72208 2.10228,-5.61951 v 64.96128 h 46.26324 V 274.1657 h 22.84189 l 43.91171,83.96925 h 55.47416 l -53.43252,-88.69933 c 14.83443,-2.7599 26.11146,-9.34483 33.80467,-19.72894 7.7277,-10.38409 11.55571,-23.01386 11.55571,-37.81379 0,-12.28153 -2.13756,-22.49448 -6.38091,-30.70518 -4.24334,-8.21067 -10.00545,-14.72985 -17.21567,-19.59417 -7.21023,-4.82982 -15.62304,-8.31336 -25.21367,-10.38327 -9.59063,-2.06992 -19.73515,-3.10623 -30.39524,-3.10623 h -81.28078 v 64.96126 c -0.65549,-1.89744 -1.34329,-3.75656 -2.10225,-5.61949 -5.62328,-13.62698 -13.48847,-25.25842 -23.59658,-34.84905 -10.10813,-9.59064 -22.04518,-16.97391 -35.91365,-22.11421 -13.83397,-5.1403 -28.97943,-7.72178 -45.40082,-7.72178 z m 0.0345,42.70558 c 9.90113,0 18.83387,1.69367 26.83756,5.04004 8.0037,3.34639 14.87056,8.07219 20.63183,14.10945 5.72678,6.03727 10.1429,13.21458 13.21328,21.49426 3.07038,8.31419 4.58856,17.3119 4.58856,27.00602 0,9.90112 -1.51818,18.94354 -4.58856,27.15423 -3.07038,8.21069 -7.45199,15.31552 -13.21328,21.3528 -5.72678,6.03727 -12.59363,10.72855 -20.63183,14.10942 -8.00369,3.38087 -16.97093,5.04004 -26.83756,5.04004 -9.90112,0 -18.83383,-1.69366 -26.83752,-5.04004 -8.00369,-3.34637 -14.87055,-8.07215 -20.63183,-14.10942 -5.72679,-6.03728 -10.14289,-13.14211 -13.21328,-21.3528 -3.07038,-8.21069 -4.58859,-17.25311 -4.58859,-27.15423 0,-9.69412 1.51821,-18.69183 4.58859,-27.00602 3.07039,-8.31418 7.45201,-15.45699 13.21328,-21.49426 5.72678,-6.03726 12.59364,-10.72857 20.63183,-14.10945 8.00369,-3.34637 16.9364,-5.04004 26.83752,-5.04004 z M 64.952083,187.25869 H 95.20576 c 4.13985,0 8.41499,0.31635 12.76183,0.90286 4.34683,0.58648 8.20934,1.71905 11.55571,3.40948 3.34637,1.69043 6.14128,4.1099 8.3147,7.28378 2.17342,3.17387 3.28144,7.41451 3.28144,12.76182 0,5.69227 -1.24222,10.14046 -3.72613,13.31435 -2.4839,3.17388 -5.59203,5.49039 -9.35238,6.97383 -3.76036,1.48345 -7.96382,2.37879 -12.58664,2.65479 -4.65732,0.31048 -9.038931,0.44471 -13.213271,0.44471 h -27.28898 z m 370.133107,0 h 30.25373 c 4.13984,0 8.42171,0.31635 12.76854,0.90286 4.34684,0.58648 8.20934,1.71905 11.55572,3.40948 3.34637,1.69043 6.14128,4.1099 8.31469,7.28378 2.17342,3.17387 3.27468,7.41451 3.27468,12.76182 0,5.69227 -1.24222,10.14046 -3.72609,13.31435 -2.4839,3.17388 -5.5853,5.49039 -9.34566,6.97383 -3.76035,1.48345 -7.97054,2.37879 -12.59336,2.65479 -4.65732,0.31048 -9.03893,0.44471 -13.21327,0.44471 h -27.28902 z m -238.24993,196.60877 -41.87681,64.13253 h 83.72668 z m 175.12123,0 -41.88357,64.13253 h 83.72668 z"
       id="path6" />
  </g>
</svg>
