<?xml version="1.0" encoding="UTF-8" standalone="no"?>
<svg
   width="194.65262"
   height="181.91566"
   viewBox="0 0 194.65262 181.91567"
   fill="none"
   version="1.1"
   id="svg14"
   sodipodi:docname="sciprofiles-logo_bw.svg"
   inkscape:version="1.3 (0e150ed6c4, 2023-07-21)"
   xmlns:inkscape="http://www.inkscape.org/namespaces/inkscape"
   xmlns:sodipodi="http://sodipodi.sourceforge.net/DTD/sodipodi-0.dtd"
   xmlns="http://www.w3.org/2000/svg"
   xmlns:svg="http://www.w3.org/2000/svg">
  <defs
     id="defs14" />
  <sodipodi:namedview
     id="namedview14"
     pagecolor="#ffffff"
     bordercolor="#666666"
     borderopacity="1.0"
     inkscape:showpageshadow="2"
     inkscape:pageopacity="0.0"
     inkscape:pagecheckerboard="0"
     inkscape:deskcolor="#d1d1d1"
     inkscape:zoom="3.6926148"
     inkscape:cx="101.55405"
     inkscape:cy="80.295405"
     inkscape:window-width="1920"
     inkscape:window-height="1046"
     inkscape:window-x="-11"
     inkscape:window-y="-11"
     inkscape:window-maximized="1"
     inkscape:current-layer="svg14" />
  <path
     id="path7"
     d="M 85.875862,19.816939 40.866096,42.371627 c -4.666195,19.30068 -7.338563,42.265003 -7.601562,57.804683 -0.1284,8.11395 1.834558,22.68458 6.988281,32.24414 -5.154609,-9.55956 -7.122488,-24.13019 -7.007813,-32.24414 0.2507,-15.53968 2.935368,-38.528403 7.601563,-57.804683 L 1.2547678,62.215377 41.916877,169.58061 l 87.154303,11.27734 7.9082,-8.49414 49.57812,-53.27344 -7.33789,-78.27929 z"
     style="fill:none;stroke:#000000;stroke-width:2;stroke-dasharray:none;stroke-opacity:1" />
  <path
     id="path2"
     d="M 82.217659,1.0395951 C 70.734923,1.3620976 61.050378,3.6957319 55.108284,9.1997514 49.310689,14.569266 44.492592,27.350851 40.866096,42.346236 L 85.875862,19.793502 179.21961,40.81108 85.875862,19.816939 40.866096,42.371627 c -4.666195,19.30068 -7.338563,42.265003 -7.601562,57.804683 -0.1712,10.81859 3.375503,33.11404 13.246093,39.70703 22.560478,15.06299 66.048773,31.58747 90.468753,32.48047 2.675,0.133 5.35591,-0.002 8.00391,-0.4043 15.33198,-2.53799 36.566,-18.95745 42.125,-36.14843 C 192.48428,119.19509 196.263,79.400461 191.37,50.785689 188.34901,33.130007 164.46184,15.7498 145.62586,10.826705 125.49026,5.5520347 101.35555,0.50209096 82.217659,1.0395951 Z"
     style="display:inline;fill:none;fill-opacity:1;stroke:#000000;stroke-width:2;stroke-dasharray:none;stroke-opacity:1" />
  <path
     d="m 52.204035,119.23823 7.1369,-8.409 c 4.8925,4.611 11.375,7.712 17.6496,7.712 7.5773,0 11.7114,-3.413 11.7114,-8.641 0,-5.504 -4.3543,-7.272 -10.5127,-9.8832 l -9.2652,-4.017901 c -6.7271,-2.7887 -13.7417,-8.1215 -13.7417,-18.0532 0,-10.8551 9.5892,-19.2335 22.909,-19.2335 7.8729,0.0149 15.4219,3.1356 21.0071,8.6841 l -6.2868,7.7729 c -4.336,-3.6693 -8.9288,-5.8098 -14.7203,-5.8098 -6.3786,0 -10.5249,2.9661 -10.5249,7.8708 0,5.2716 5.131,7.2164 10.7818,9.5281 l 9.1367,3.8283 c 8.1032,3.3636 13.729795,8.5007 13.729795,18.346401 0,11.039 -9.173695,20.261 -24.462695,20.261 -9.1675,0.008 -17.9757,-3.565 -24.548,-9.956 z"
     fill="#000000"
     id="path4"
     style="display:inline" />
  <path
     d="m 108.66274,102.43223 c 0,-17.020001 12.054,-26.841601 25.686,-26.841601 5.525,-0.0453 10.863,2.0019 14.94,5.7303 l -5.907,7.9013 c -2.691,-2.3545 -5.235,-3.6693 -8.397,-3.6693 -8.177,0 -13.815,6.7271 -13.815,16.909301 0,10.183 5.571,16.83 13.454,16.83 3.957,0 7.59,-1.938 10.489,-4.372 l 4.941,7.993 c -4.616,4.054 -10.552,6.286 -16.696,6.274 -13.98,0 -24.695,-9.821 -24.695,-26.755 z"
     fill="#000000"
     id="path5" />
  <path
     d="m 156.78074,61.133629 c 0,-4.0729 3.199,-6.8494 7.492,-6.8494 4.293,0 7.492,2.7765 7.492,6.8494 0,4.073 -3.199,6.8495 -7.492,6.8495 -4.293,0 -7.492,-2.856 -7.492,-6.8495 z m 1.364,15.7049 h 12.176 v 51.101701 h -12.151 z"
     fill="#000000"
     id="path6" />
</svg>
