<?xml version="1.0" encoding="UTF-8" standalone="no"?>
<svg
   xmlns:dc="http://purl.org/dc/elements/1.1/"
   xmlns:cc="http://creativecommons.org/ns#"
   xmlns:rdf="http://www.w3.org/1999/02/22-rdf-syntax-ns#"
   xmlns:svg="http://www.w3.org/2000/svg"
   xmlns="http://www.w3.org/2000/svg"
   xmlns:sodipodi="http://sodipodi.sourceforge.net/DTD/sodipodi-0.dtd"
   xmlns:inkscape="http://www.inkscape.org/namespaces/inkscape"
   sodipodi:docname="template-square.svg"
   inkscape:version="1.0 (1.0+r73+1)"
   id="svg8"
   version="1.1"
   viewBox="0 0 448 512"
   height="512"
   width="448">
  <title
     id="title1672">Scirate</title>
  <defs
     id="defs2" />
  <sodipodi:namedview
     inkscape:window-maximized="1"
     inkscape:window-y="27"
     inkscape:window-x="51"
     inkscape:window-height="713"
     inkscape:window-width="1315"
     inkscape:guide-bbox="true"
     showguides="true"
     units="px"
     showgrid="true"
     inkscape:document-rotation="0"
     inkscape:current-layer="layer6"
     inkscape:document-units="px"
     inkscape:cy="362.66667"
     inkscape:cx="222.032"
     inkscape:zoom="0.75"
     inkscape:pageshadow="2"
     inkscape:pageopacity="0.0"
     borderopacity="1.0"
     bordercolor="#666666"
     pagecolor="#ffffff"
     id="base">
    <inkscape:grid
       empspacing="4"
       id="grid10"
       type="xygrid" />
    <sodipodi:guide
       inkscape:color="rgb(0,0,255)"
       inkscape:locked="true"
       inkscape:label=""
       id="guide832"
       orientation="0,1"
       position="448,416" />
    <sodipodi:guide
       inkscape:color="rgb(0,0,255)"
       inkscape:locked="true"
       inkscape:label=""
       id="guide834"
       orientation="0,1"
       position="448,96" />
    <sodipodi:guide
       inkscape:color="rgb(0,0,255)"
       inkscape:locked="true"
       inkscape:label="baseline"
       id="guide836"
       orientation="0,1"
       position="448,64" />
    <sodipodi:guide
       position="64,512"
       orientation="1,0"
       id="guide835" />
    <sodipodi:guide
       position="384,512"
       orientation="1,0"
       id="guide837" />
  </sodipodi:namedview>
  <metadata
     id="metadata5">
    <rdf:RDF>
      <cc:Work
         rdf:about="">
        <dc:format>image/svg+xml</dc:format>
        <dc:type
           rdf:resource="http://purl.org/dc/dcmitype/StillImage" />
        <dc:title>Scirate</dc:title>
        <cc:license
           rdf:resource="http://scripts.sil.org/OFL" />
        <dc:subject>
          <rdf:Bag>
            <rdf:li>Scirate</rdf:li>
          </rdf:Bag>
        </dc:subject>
      </cc:Work>
      <cc:License
         rdf:about="http://scripts.sil.org/OFL">
        <cc:permits
           rdf:resource="http://scripts.sil.org/pub/OFL/Reproduction" />
        <cc:permits
           rdf:resource="http://scripts.sil.org/pub/OFL/Distribution" />
        <cc:permits
           rdf:resource="http://scripts.sil.org/pub/OFL/Embedding" />
        <cc:permits
           rdf:resource="http://scripts.sil.org/pub/OFL/DerivativeWorks" />
        <cc:requires
           rdf:resource="http://scripts.sil.org/pub/OFL/Notice" />
        <cc:requires
           rdf:resource="http://scripts.sil.org/pub/OFL/Attribution" />
        <cc:requires
           rdf:resource="http://scripts.sil.org/pub/OFL/ShareAlike" />
        <cc:requires
           rdf:resource="http://scripts.sil.org/pub/OFL/DerivativeRenaming" />
        <cc:requires
           rdf:resource="http://scripts.sil.org/pub/OFL/BundlingWhenSelling" />
      </cc:License>
    </rdf:RDF>
  </metadata>
  <g
     inkscape:label="icon"
     id="layer6"
     inkscape:groupmode="layer">
    <path
       d="M 48 32 C 21.5 32 0 53.5 0 80 L 0 432 C 0 458.5 21.5 480 48 480 L 400 480 C 426.5 480 448 458.5 448 432 L 448 80 C 448 53.5 426.5 32 400 32 L 48 32 z M 160.49805 133.08398 L 287.50195 133.08398 L 287.50195 140.55664 C 271.04324 141.16877 260.09384 143.63021 254.70312 147.91406 C 249.32591 152.22342 246.65625 160.73957 246.65625 173.46094 L 246.65625 338.38281 C 246.65625 351.07761 249.41739 359.71064 254.80664 364.16406 C 260.25059 368.68156 271.17605 371.11693 287.50391 371.46875 L 287.07422 378.91602 L 160.49805 378.91602 L 160.49805 371.46875 C 177.25535 371.11654 188.27053 368.85193 193.58398 364.64648 C 198.90941 360.47968 201.52734 351.70287 201.52734 338.38281 L 201.52734 173.46094 C 201.52734 160.73956 198.90941 152.22342 193.58398 147.91406 C 188.27053 143.63021 177.25535 141.16877 160.49805 140.55664 L 160.49805 133.08398 z M 83.595703 141.94922 C 101.00488 141.94922 113.47845 146.8345 120.95312 156.625 C 128.45331 166.39035 132.17773 183.20047 132.17773 207.09375 L 132.17773 242.17188 C 132.17773 267.84904 136.47308 285.41339 145.01562 294.85352 C 150.18505 300.56944 158.28479 304.56799 168.7793 307.30273 L 168.7793 320.21875 C 146.76071 316.91088 129.46966 310.02321 116.9043 299.47656 C 100.12039 285.41388 91.787109 264.88077 91.787109 237.91406 L 91.787109 194.37305 C 91.787109 176.66491 90.276733 165.31086 87.216797 160.34961 C 84.169989 155.41499 78.673886 152.9668 70.783203 152.9668 L 64 152.9668 L 64 143.5 C 66.82552 142.99177 69.83303 142.60156 73.0625 142.32812 C 76.291596 142.09331 79.781079 141.94922 83.595703 141.94922 z M 364.4043 141.94922 C 368.21892 141.94922 371.70842 142.09331 374.9375 142.32812 C 378.16698 142.60156 381.17447 142.99177 384 143.5 L 384 152.9668 L 377.2168 152.9668 C 369.32614 152.9668 363.83003 155.41499 360.7832 160.34961 C 357.72325 165.31086 356.21289 176.6649 356.21289 194.37305 L 356.21289 237.91406 C 356.21289 264.88076 347.8796 285.41388 331.0957 299.47656 C 318.53037 310.02321 301.23929 316.91087 279.2207 320.21875 L 279.2207 307.30273 C 289.71521 304.56799 297.81497 300.56944 302.98438 294.85352 C 311.52693 285.41338 315.82227 267.84904 315.82227 242.17188 L 315.82227 207.09375 C 315.82227 183.20047 319.54665 166.39035 327.04688 156.625 C 334.52152 146.83451 346.99512 141.94922 364.4043 141.94922 z "
       id="path2" />
  </g>
</svg>
