<?xml version="1.0" encoding="UTF-8" standalone="no"?>
<svg
   xmlns:dc="http://purl.org/dc/elements/1.1/"
   xmlns:cc="http://creativecommons.org/ns#"
   xmlns:rdf="http://www.w3.org/1999/02/22-rdf-syntax-ns#"
   xmlns:svg="http://www.w3.org/2000/svg"
   xmlns="http://www.w3.org/2000/svg"
   xmlns:sodipodi="http://sodipodi.sourceforge.net/DTD/sodipodi-0.dtd"
   xmlns:inkscape="http://www.inkscape.org/namespaces/inkscape"
   sodipodi:docname="scirate.svg"
   inkscape:version="1.0 (1.0+r73+1)"
   id="svg8"
   version="1.1"
   viewBox="0 0 512 512"
   height="512"
   width="512">
  <title
     id="title833">Scirate</title>
  <defs
     id="defs2" />
  <sodipodi:namedview
     inkscape:window-maximized="1"
     inkscape:window-y="27"
     inkscape:window-x="51"
     inkscape:window-height="713"
     inkscape:window-width="1315"
     inkscape:guide-bbox="true"
     showguides="true"
     units="px"
     showgrid="true"
     inkscape:document-rotation="0"
     inkscape:current-layer="layer6"
     inkscape:document-units="px"
     inkscape:cy="256"
     inkscape:cx="256"
     inkscape:zoom="0.75"
     inkscape:pageshadow="2"
     inkscape:pageopacity="0.0"
     borderopacity="1.0"
     bordercolor="#666666"
     pagecolor="#ffffff"
     id="base">
    <inkscape:grid
       empspacing="4"
       id="grid10"
       type="xygrid" />
    <sodipodi:guide
       inkscape:color="rgb(0,0,255)"
       inkscape:locked="true"
       inkscape:label="baseline"
       id="guide23"
       orientation="0,1"
       position="511.99998,64" />
  </sodipodi:namedview>
  <metadata
     id="metadata5">
    <rdf:RDF>
      <cc:Work
         rdf:about="">
        <dc:format>image/svg+xml</dc:format>
        <dc:type
           rdf:resource="http://purl.org/dc/dcmitype/StillImage" />
        <dc:title>Scirate</dc:title>
        <cc:license
           rdf:resource="http://scripts.sil.org/OFL" />
        <dc:subject>
          <rdf:Bag>
            <rdf:li>Scirate</rdf:li>
          </rdf:Bag>
        </dc:subject>
      </cc:Work>
      <cc:License
         rdf:about="http://scripts.sil.org/OFL">
        <cc:permits
           rdf:resource="http://scripts.sil.org/pub/OFL/Reproduction" />
        <cc:permits
           rdf:resource="http://scripts.sil.org/pub/OFL/Distribution" />
        <cc:permits
           rdf:resource="http://scripts.sil.org/pub/OFL/Embedding" />
        <cc:permits
           rdf:resource="http://scripts.sil.org/pub/OFL/DerivativeWorks" />
        <cc:requires
           rdf:resource="http://scripts.sil.org/pub/OFL/Notice" />
        <cc:requires
           rdf:resource="http://scripts.sil.org/pub/OFL/Attribution" />
        <cc:requires
           rdf:resource="http://scripts.sil.org/pub/OFL/ShareAlike" />
        <cc:requires
           rdf:resource="http://scripts.sil.org/pub/OFL/DerivativeRenaming" />
        <cc:requires
           rdf:resource="http://scripts.sil.org/pub/OFL/BundlingWhenSelling" />
      </cc:License>
    </rdf:RDF>
  </metadata>
  <g
     inkscape:label="icon"
     id="layer6"
     inkscape:groupmode="layer">
    <path
       id="path2"
       d="M 132.62426,316.69067 C 119.2805,301.94483 112.56962,274.5073 112.56962,234.39862 v -54.79191 c 0,-37.32217 -5.81677,-63.58084 -17.532347,-78.83466 -11.6757,-15.293118 -31.159702,-22.922596 -58.353466,-22.922596 -5.958581,0 -11.409226,0.22492 -16.45319,0.5917 -5.04455,0.427121 -9.742846,1.037046 -14.1564111,1.83092 V 95.057199 H 16.671281 c 12.325533,0 20.908335,3.82414 25.667559,11.532201 4.77973,7.74964 7.139712,25.48587 7.139712,53.14663 v 68.01321 c 0,42.12298 13.016861,74.19672 39.233939,96.16314 19.627549,16.47424 46.636229,27.23363 81.030059,32.40064 v -20.17708 c -16.3928,-4.27176 -29.04346,-10.51565 -37.11829,-19.44413 z m 246.75144,0 c 13.34377,-14.74584 20.05466,-42.18337 20.05466,-82.29205 v -54.79191 c 0,-37.32217 5.81673,-63.58084 17.53235,-78.83466 11.67568,-15.293118 31.15971,-22.922596 58.35348,-22.922596 5.95858,0 11.40922,0.22492 16.45315,0.5917 5.04457,0.427121 9.74287,1.037046 14.15645,1.83092 v 14.785125 h -10.59712 c -12.32549,0 -20.90826,3.82414 -25.66752,11.532201 -4.77974,7.74964 -7.13972,25.48587 -7.13972,53.14663 v 68.01321 c 0,42.12298 -13.01688,74.19672 -39.23394,96.16314 -19.6275,16.47424 -46.63622,27.23363 -81.03006,32.40064 v -20.17708 c 16.39279,-4.27176 29.04347,-10.51565 37.11827,-19.44413 z M 303.95857,87.165762 c 8.42049,-6.691524 25.52576,-10.536158 51.23486,-11.492333 V 63.999997 H 156.80716 v 11.673432 c 26.1755,0.956175 43.38268,4.800809 51.68248,11.492333 8.31852,6.73139 12.40691,20.033568 12.40691,39.904818 V 384.6851 c 0,20.80641 -4.08839,34.5146 -12.40691,41.02332 -8.2998,6.56905 -25.50698,10.10729 -51.68248,10.65744 V 448 h 197.71597 l 0.67087,-11.63414 c -25.50471,-0.54955 -42.56835,-4.35266 -51.07201,-11.40918 -8.4182,-6.95638 -12.73153,-20.44184 -12.73153,-40.27158 V 127.07058 c 0,-19.87125 4.16983,-33.173428 12.56922,-39.904818 z"
       style="stroke-width:0.0753388" />
  </g>
</svg>
