<?xml version="1.0" encoding="UTF-8" standalone="no"?>
<svg
   xmlns:dc="http://purl.org/dc/elements/1.1/"
   xmlns:cc="http://creativecommons.org/ns#"
   xmlns:rdf="http://www.w3.org/1999/02/22-rdf-syntax-ns#"
   xmlns:svg="http://www.w3.org/2000/svg"
   xmlns="http://www.w3.org/2000/svg"
   xmlns:sodipodi="http://sodipodi.sourceforge.net/DTD/sodipodi-0.dtd"
   xmlns:inkscape="http://www.inkscape.org/namespaces/inkscape"
   width="448"
   height="512"
   viewBox="0 0 448 512"
   version="1.1"
   id="svg8"
   inkscape:version="1.0 (1.0+r73+1)"
   sodipodi:docname="scopus-square.svg">
  <title
     id="title862">Scopus</title>
  <defs
     id="defs2" />
  <sodipodi:namedview
     id="base"
     pagecolor="#ffffff"
     bordercolor="#666666"
     borderopacity="1.0"
     inkscape:pageopacity="0.0"
     inkscape:pageshadow="2"
     inkscape:zoom="0.75"
     inkscape:cx="224"
     inkscape:cy="256"
     inkscape:document-units="px"
     inkscape:current-layer="layer6"
     inkscape:document-rotation="0"
     showgrid="true"
     units="px"
     showguides="true"
     inkscape:guide-bbox="true"
     inkscape:window-width="1315"
     inkscape:window-height="713"
     inkscape:window-x="51"
     inkscape:window-y="27"
     inkscape:window-maximized="1">
    <inkscape:grid
       type="xygrid"
       id="grid10"
       empspacing="4" />
    <sodipodi:guide
       position="448,416"
       orientation="0,1"
       id="guide832"
       inkscape:label=""
       inkscape:locked="true"
       inkscape:color="rgb(0,0,255)" />
    <sodipodi:guide
       position="448,96"
       orientation="0,1"
       id="guide834"
       inkscape:label=""
       inkscape:locked="true"
       inkscape:color="rgb(0,0,255)" />
    <sodipodi:guide
       position="448,64"
       orientation="0,1"
       id="guide836"
       inkscape:label="baseline"
       inkscape:locked="true"
       inkscape:color="rgb(0,0,255)" />
    <sodipodi:guide
       id="guide835"
       orientation="1,0"
       position="64,512" />
    <sodipodi:guide
       id="guide837"
       orientation="1,0"
       position="384,512" />
  </sodipodi:namedview>
  <metadata
     id="metadata5">
    <rdf:RDF>
      <cc:Work
         rdf:about="">
        <dc:format>image/svg+xml</dc:format>
        <dc:type
           rdf:resource="http://purl.org/dc/dcmitype/StillImage" />
        <dc:title>Scopus</dc:title>
        <cc:license
           rdf:resource="http://scripts.sil.org/OFL" />
        <dc:subject>
          <rdf:Bag>
            <rdf:li>Scopus</rdf:li>
          </rdf:Bag>
        </dc:subject>
      </cc:Work>
      <cc:License
         rdf:about="http://scripts.sil.org/OFL">
        <cc:permits
           rdf:resource="http://scripts.sil.org/pub/OFL/Reproduction" />
        <cc:permits
           rdf:resource="http://scripts.sil.org/pub/OFL/Distribution" />
        <cc:permits
           rdf:resource="http://scripts.sil.org/pub/OFL/Embedding" />
        <cc:permits
           rdf:resource="http://scripts.sil.org/pub/OFL/DerivativeWorks" />
        <cc:requires
           rdf:resource="http://scripts.sil.org/pub/OFL/Notice" />
        <cc:requires
           rdf:resource="http://scripts.sil.org/pub/OFL/Attribution" />
        <cc:requires
           rdf:resource="http://scripts.sil.org/pub/OFL/ShareAlike" />
        <cc:requires
           rdf:resource="http://scripts.sil.org/pub/OFL/DerivativeRenaming" />
        <cc:requires
           rdf:resource="http://scripts.sil.org/pub/OFL/BundlingWhenSelling" />
      </cc:License>
    </rdf:RDF>
  </metadata>
  <g
     inkscape:groupmode="layer"
     id="layer6"
     inkscape:label="icon">
    <path
       d="M 48 32 C 21.5 32 0 53.5 0 80 L 0 432 C 0 458.5 21.5 480 48 480 L 400 480 C 426.5 480 448 458.5 448 432 L 448 80 C 448 53.5 426.5 32 400 32 L 48 32 z M 64 96 L 384 96 L 384 416 L 64 416 L 64 96 z M 161.3457 179.27148 C 134.86029 179.27148 118.71289 196.49751 118.71289 218.46094 C 118.71289 240.42442 138.09122 249.89962 155.74805 260.66602 C 168.88304 268.63317 182.66211 274.01693 182.66211 288.22852 C 182.66211 302.00953 170.39032 311.91602 155.74805 311.91602 C 141.32122 311.91602 131.84701 308.68293 120.86523 302.00781 L 118.2793 319.01953 C 129.47652 324.18737 140.88836 326.55664 156.60742 326.55664 C 178.57101 326.55664 201.61133 312.99217 201.61133 286.07617 C 201.61133 265.61999 183.52341 256.3592 166.08203 246.02344 C 152.51617 237.84099 138.08984 232.24286 138.08984 217.16992 C 138.08984 205.97285 146.27233 193.70117 162.42188 193.70117 C 176.41823 193.70117 186.10917 195.85063 198.38281 203.17188 L 199.45898 186.16406 C 188.04631 181.42684 179.86388 179.27148 161.3457 179.27148 z M 296.09961 179.27148 C 254.32594 179.27148 222.67383 211.78591 222.67383 253.12891 C 222.67383 300.28572 260.35646 326.12695 295.45508 326.12695 C 313.11191 326.12695 327.75313 323.75717 339.38086 317.94336 L 338.08984 301.57812 C 324.95485 308.68392 310.95729 311.48438 296.96094 311.48438 C 266.38414 311.48438 242.05273 285.85971 242.05273 251.83789 C 242.05273 215.87814 265.95258 193.70117 293.94531 193.70117 C 311.60214 193.70117 325.1699 196.49951 338.08984 203.60547 L 339.38086 187.45508 C 327.53771 181.85658 317.84775 179.27148 296.09961 179.27148 z "
       id="path2" />
  </g>
</svg>
