<?xml version="1.0" encoding="UTF-8" standalone="no"?>
<svg
   xmlns:dc="http://purl.org/dc/elements/1.1/"
   xmlns:cc="http://creativecommons.org/ns#"
   xmlns:rdf="http://www.w3.org/1999/02/22-rdf-syntax-ns#"
   xmlns:svg="http://www.w3.org/2000/svg"
   xmlns="http://www.w3.org/2000/svg"
   xmlns:sodipodi="http://sodipodi.sourceforge.net/DTD/sodipodi-0.dtd"
   xmlns:inkscape="http://www.inkscape.org/namespaces/inkscape"
   sodipodi:docname="scopus.svg"
   inkscape:version="1.0 (1.0+r73+1)"
   id="svg8"
   version="1.1"
   viewBox="0 0 512 512"
   height="512"
   width="512">
  <title
     id="title861">Scopus</title>
  <defs
     id="defs2" />
  <sodipodi:namedview
     inkscape:window-maximized="1"
     inkscape:window-y="27"
     inkscape:window-x="51"
     inkscape:window-height="713"
     inkscape:window-width="1315"
     inkscape:guide-bbox="true"
     showguides="true"
     units="px"
     showgrid="true"
     inkscape:document-rotation="0"
     inkscape:current-layer="layer6"
     inkscape:document-units="px"
     inkscape:cy="256"
     inkscape:cx="320"
     inkscape:zoom="0.75"
     inkscape:pageshadow="2"
     inkscape:pageopacity="0.0"
     borderopacity="1.0"
     bordercolor="#666666"
     pagecolor="#ffffff"
     id="base"
     scale-x="1">
    <inkscape:grid
       empspacing="4"
       id="grid10"
       type="xygrid" />
    <sodipodi:guide
       inkscape:color="rgb(0,0,255)"
       inkscape:locked="true"
       inkscape:label="baseline"
       id="guide863"
       orientation="0,1"
       position="512,64" />
  </sodipodi:namedview>
  <metadata
     id="metadata5">
    <rdf:RDF>
      <cc:Work
         rdf:about="">
        <dc:format>image/svg+xml</dc:format>
        <dc:type
           rdf:resource="http://purl.org/dc/dcmitype/StillImage" />
        <dc:title>Scopus</dc:title>
        <cc:license
           rdf:resource="http://scripts.sil.org/OFL" />
        <dc:subject>
          <rdf:Bag>
            <rdf:li>Scopus</rdf:li>
          </rdf:Bag>
        </dc:subject>
      </cc:Work>
      <cc:License
         rdf:about="http://scripts.sil.org/OFL">
        <cc:permits
           rdf:resource="http://scripts.sil.org/pub/OFL/Reproduction" />
        <cc:permits
           rdf:resource="http://scripts.sil.org/pub/OFL/Distribution" />
        <cc:permits
           rdf:resource="http://scripts.sil.org/pub/OFL/Embedding" />
        <cc:permits
           rdf:resource="http://scripts.sil.org/pub/OFL/DerivativeWorks" />
        <cc:requires
           rdf:resource="http://scripts.sil.org/pub/OFL/Notice" />
        <cc:requires
           rdf:resource="http://scripts.sil.org/pub/OFL/Attribution" />
        <cc:requires
           rdf:resource="http://scripts.sil.org/pub/OFL/ShareAlike" />
        <cc:requires
           rdf:resource="http://scripts.sil.org/pub/OFL/DerivativeRenaming" />
        <cc:requires
           rdf:resource="http://scripts.sil.org/pub/OFL/BundlingWhenSelling" />
      </cc:License>
    </rdf:RDF>
  </metadata>
  <g
     inkscape:label="icon"
     id="layer6"
     inkscape:groupmode="layer">
    <path
       id="rect1609"
       style="opacity:0.999;fill-opacity:1;stroke:none;stroke-width:1.5118;stroke-linecap:square"
       d="M 64,64 V 448 H 448 V 64 Z m 116.81542,99.92578 c 22.22181,0 32.04017,2.58584 45.73537,8.27051 l -1.292,20.41113 c -14.72837,-8.7855 -26.35575,-11.36718 -43.15137,-11.36718 -19.37945,0 -29.2002,14.72659 -29.2002,28.16308 0,18.08753 17.31277,24.80703 33.59181,34.62597 20.92965,12.40292 42.63573,23.51411 42.63573,48.06153 0,32.2992 -27.64955,48.57714 -54.00585,48.57714 -18.86288,0 -32.5565,-2.84253 -45.99316,-9.04393 l 3.10254,-20.41407 c 13.17814,8.01015 24.54717,11.88867 41.85937,11.88867 17.57072,0 32.29688,-11.88662 32.29688,-28.42383 0,-17.05391 -16.53489,-23.51559 -32.29688,-33.07617 -21.18819,-12.91968 -44.44336,-24.28934 -44.44336,-50.64551 0,-26.35612 19.37863,-47.02734 51.16112,-47.02734 z m 161.70412,0 c 26.09777,0 37.72572,3.10211 51.9375,9.82031 l -1.54982,19.37988 c -15.50393,-8.52716 -31.78349,-11.88573 -52.97168,-11.88573 -33.59128,0 -62.27343,26.61294 -62.27343,69.76464 0,40.82619 29.19944,71.5752 65.8916,71.5752 16.79562,0 33.59152,-3.35879 49.35351,-11.88575 l 1.54981,19.6377 c -13.95327,6.97658 -31.52275,9.82031 -52.71094,9.82031 -42.11835,0 -87.33692,-31.00949 -87.33692,-87.59766 0,-49.6116 37.98197,-88.6289 88.11037,-88.6289 z" />
  </g>
</svg>
