<?xml version="1.0" encoding="UTF-8" standalone="no"?>
<svg
   xmlns:dc="http://purl.org/dc/elements/1.1/"
   xmlns:cc="http://creativecommons.org/ns#"
   xmlns:rdf="http://www.w3.org/1999/02/22-rdf-syntax-ns#"
   xmlns:svg="http://www.w3.org/2000/svg"
   xmlns="http://www.w3.org/2000/svg"
   xmlns:sodipodi="http://sodipodi.sourceforge.net/DTD/sodipodi-0.dtd"
   xmlns:inkscape="http://www.inkscape.org/namespaces/inkscape"
   sodipodi:docname="template-square.svg"
   inkscape:version="1.0 (1.0+r73+1)"
   id="svg8"
   version="1.1"
   viewBox="0 0 448 512"
   height="512"
   width="448">
  <title
     id="title1699">Semantic Scholar</title>
  <defs
     id="defs2" />
  <sodipodi:namedview
     inkscape:window-maximized="1"
     inkscape:window-y="27"
     inkscape:window-x="51"
     inkscape:window-height="713"
     inkscape:window-width="1315"
     inkscape:guide-bbox="true"
     showguides="true"
     units="px"
     showgrid="true"
     inkscape:document-rotation="0"
     inkscape:current-layer="layer6"
     inkscape:document-units="px"
     inkscape:cy="362.66667"
     inkscape:cx="222.032"
     inkscape:zoom="0.75"
     inkscape:pageshadow="2"
     inkscape:pageopacity="0.0"
     borderopacity="1.0"
     bordercolor="#666666"
     pagecolor="#ffffff"
     id="base">
    <inkscape:grid
       empspacing="4"
       id="grid10"
       type="xygrid" />
    <sodipodi:guide
       inkscape:color="rgb(0,0,255)"
       inkscape:locked="true"
       inkscape:label=""
       id="guide832"
       orientation="0,1"
       position="448,416" />
    <sodipodi:guide
       inkscape:color="rgb(0,0,255)"
       inkscape:locked="true"
       inkscape:label=""
       id="guide834"
       orientation="0,1"
       position="448,96" />
    <sodipodi:guide
       inkscape:color="rgb(0,0,255)"
       inkscape:locked="true"
       inkscape:label="baseline"
       id="guide836"
       orientation="0,1"
       position="448,64" />
    <sodipodi:guide
       position="64,512"
       orientation="1,0"
       id="guide835" />
    <sodipodi:guide
       position="384,512"
       orientation="1,0"
       id="guide837" />
  </sodipodi:namedview>
  <metadata
     id="metadata5">
    <rdf:RDF>
      <cc:Work
         rdf:about="">
        <dc:format>image/svg+xml</dc:format>
        <dc:type
           rdf:resource="http://purl.org/dc/dcmitype/StillImage" />
        <dc:title>Semantic Scholar</dc:title>
        <cc:license
           rdf:resource="http://scripts.sil.org/OFL" />
        <dc:subject>
          <rdf:Bag>
            <rdf:li>Semantic Scholar</rdf:li>
          </rdf:Bag>
        </dc:subject>
      </cc:Work>
      <cc:License
         rdf:about="http://scripts.sil.org/OFL">
        <cc:permits
           rdf:resource="http://scripts.sil.org/pub/OFL/Reproduction" />
        <cc:permits
           rdf:resource="http://scripts.sil.org/pub/OFL/Distribution" />
        <cc:permits
           rdf:resource="http://scripts.sil.org/pub/OFL/Embedding" />
        <cc:permits
           rdf:resource="http://scripts.sil.org/pub/OFL/DerivativeWorks" />
        <cc:requires
           rdf:resource="http://scripts.sil.org/pub/OFL/Notice" />
        <cc:requires
           rdf:resource="http://scripts.sil.org/pub/OFL/Attribution" />
        <cc:requires
           rdf:resource="http://scripts.sil.org/pub/OFL/ShareAlike" />
        <cc:requires
           rdf:resource="http://scripts.sil.org/pub/OFL/DerivativeRenaming" />
        <cc:requires
           rdf:resource="http://scripts.sil.org/pub/OFL/BundlingWhenSelling" />
      </cc:License>
    </rdf:RDF>
  </metadata>
  <g
     inkscape:label="icon"
     id="layer6"
     inkscape:groupmode="layer">
    <path
       d="M 48 32 C 21.5 32 0 53.5 0 80 L 0 432 C 0 458.5 21.5 480 48 480 L 400 480 C 426.5 480 448 458.5 448 432 L 448 80 C 448 53.5 426.5 32 400 32 L 48 32 z M 119.56445 139.35547 L 303.41016 139.35547 C 315.13153 165.60335 319.88398 193.4779 324.32812 221.42578 C 323.51162 221.6574 322.69739 221.89177 321.88086 222.125 C 321.29319 220.4904 320.59928 218.8865 320.13281 217.2168 C 316.76632 205.18207 313.37257 193.15428 310.15039 181.08008 C 308.99141 176.7364 306.25795 174.5727 302.34766 172.44531 C 296.60458 169.32201 291.17708 165.29669 286.41797 160.80469 C 283.38074 157.93974 280.7832 156.19089 276.47461 156.23633 C 247.79035 156.53974 219.10297 156.57005 190.41992 156.83398 C 188.50822 156.85298 186.14219 157.55827 184.78906 158.81055 C 179.57066 163.63942 174.67888 168.82058 168.24609 175.29883 C 185.21336 216.61544 193.7428 261.64768 190.08008 309.52148 C 181.93412 304.30587 175.62828 300.17838 175.25391 289.25 C 173.38049 234.63004 156.53044 185.23556 121.33008 142.73047 C 120.53829 141.77402 120.14494 140.48694 119.56445 139.35547 z M 102.5332 160.38281 C 106.61814 160.38047 110.70205 160.40714 114.7832 160.52734 C 116.40306 160.57394 118.66917 161.60462 119.47852 162.90234 C 143.88926 202.12226 162.91927 243.3124 165.38477 290.43945 C 165.39627 290.62604 165.20264 290.82232 164.50586 292.19141 C 149.91793 242.32458 123.60002 200.10378 89.75 162.26172 C 89.926565 161.64774 90.100725 161.03315 90.277344 160.41797 C 94.362077 160.41797 98.448269 160.38516 102.5332 160.38281 z M 95.414062 193.69531 C 96.408388 193.67631 97.581595 194.99028 98.414062 195.91602 C 117.67057 217.33622 135.14784 239.96798 145.91992 267.03516 C 147.96997 272.18339 149.37261 277.58997 151.07422 282.87695 C 128.76174 247.76428 97.711675 221.50865 64 194.72852 C 75.670333 194.30432 85.541797 193.8791 95.414062 193.69531 z M 382.5332 212.66406 C 382.96916 212.62743 383.44822 212.65948 384 212.79883 C 310.69484 255.37091 240.75974 301.98583 189.4668 372.64453 C 169.15613 340.34415 149.59321 309.23098 130.0293 278.11914 C 130.26851 277.81136 130.50925 277.50662 130.74805 277.19922 C 132.38826 278.52007 167.27771 306.49602 182.94727 319.32812 C 187.31248 322.90316 190.61015 322.83978 195.15039 319.15234 C 248.43037 275.87141 307.88344 243.11224 371.00977 216.69531 C 374.37948 215.28556 377.87563 214.16737 381.32227 212.94141 C 381.70501 212.80585 382.09724 212.70069 382.5332 212.66406 z "
       id="path2" />
  </g>
</svg>
