<?xml version="1.0" encoding="UTF-8" standalone="no"?>
<svg
   xmlns:dc="http://purl.org/dc/elements/1.1/"
   xmlns:cc="http://creativecommons.org/ns#"
   xmlns:rdf="http://www.w3.org/1999/02/22-rdf-syntax-ns#"
   xmlns:svg="http://www.w3.org/2000/svg"
   xmlns="http://www.w3.org/2000/svg"
   xmlns:sodipodi="http://sodipodi.sourceforge.net/DTD/sodipodi-0.dtd"
   xmlns:inkscape="http://www.inkscape.org/namespaces/inkscape"
   sodipodi:docname="springer.svg"
   inkscape:version="1.0 (1.0+r73+1)"
   id="svg8"
   version="1.1"
   viewBox="0 0 320 512"
   height="512"
   width="320">
  <title
     id="title833">Springer</title>
  <defs
     id="defs2" />
  <sodipodi:namedview
     inkscape:window-maximized="1"
     inkscape:window-y="27"
     inkscape:window-x="51"
     inkscape:window-height="713"
     inkscape:window-width="1315"
     inkscape:guide-bbox="true"
     showguides="true"
     units="px"
     showgrid="true"
     inkscape:document-rotation="0"
     inkscape:current-layer="layer6"
     inkscape:document-units="px"
     inkscape:cy="256"
     inkscape:cx="160"
     inkscape:zoom="0.75"
     inkscape:pageshadow="2"
     inkscape:pageopacity="0.0"
     borderopacity="1.0"
     bordercolor="#666666"
     pagecolor="#ffffff"
     id="base">
    <inkscape:grid
       empspacing="4"
       id="grid10"
       type="xygrid" />
    <sodipodi:guide
       inkscape:color="rgb(0,0,255)"
       inkscape:locked="true"
       inkscape:label="baseline"
       id="guide23"
       orientation="0,1"
       position="320,64" />
  </sodipodi:namedview>
  <metadata
     id="metadata5">
    <rdf:RDF>
      <cc:Work
         rdf:about="">
        <dc:format>image/svg+xml</dc:format>
        <dc:type
           rdf:resource="http://purl.org/dc/dcmitype/StillImage" />
        <dc:title>Springer</dc:title>
        <cc:license
           rdf:resource="http://scripts.sil.org/OFL" />
        <dc:subject>
          <rdf:Bag>
            <rdf:li>Springer</rdf:li>
          </rdf:Bag>
        </dc:subject>
      </cc:Work>
      <cc:License
         rdf:about="http://scripts.sil.org/OFL">
        <cc:permits
           rdf:resource="http://scripts.sil.org/pub/OFL/Reproduction" />
        <cc:permits
           rdf:resource="http://scripts.sil.org/pub/OFL/Distribution" />
        <cc:permits
           rdf:resource="http://scripts.sil.org/pub/OFL/Embedding" />
        <cc:permits
           rdf:resource="http://scripts.sil.org/pub/OFL/DerivativeWorks" />
        <cc:requires
           rdf:resource="http://scripts.sil.org/pub/OFL/Notice" />
        <cc:requires
           rdf:resource="http://scripts.sil.org/pub/OFL/Attribution" />
        <cc:requires
           rdf:resource="http://scripts.sil.org/pub/OFL/ShareAlike" />
        <cc:requires
           rdf:resource="http://scripts.sil.org/pub/OFL/DerivativeRenaming" />
        <cc:requires
           rdf:resource="http://scripts.sil.org/pub/OFL/BundlingWhenSelling" />
      </cc:License>
    </rdf:RDF>
  </metadata>
  <g
     inkscape:label="icon"
     id="layer6"
     inkscape:groupmode="layer">
    <path
       id="path2"
       d="m 293.31935,352.07828 c 2.70553,-12.46223 4.8751,-24.38415 7.04466,-36.30432 h 0.53594 c 4.88167,0 8.67348,-3.79839 8.67348,-8.12483 0,-4.35184 -3.24801,-8.13622 -7.58714,-8.67828 1.08326,-11.92148 1.62705,-24.38414 1.62705,-35.76312 4.33304,-0.55519 8.12969,-3.79838 8.12969,-8.66558 0,-4.35358 -3.79839,-8.13753 -8.67348,-8.13753 -1.08326,-11.92148 -2.70554,-23.31227 -4.87378,-34.67855 3.24627,-0.54076 5.96009,-3.79663 5.96009,-8.13622 0,-4.32644 -3.25455,-8.12309 -8.13143,-8.12309 -0.54251,0 -1.62705,0 -2.16956,0.5298 -3.24801,-11.35183 -7.58102,-22.18743 -13.00473,-31.96472 2.71209,-1.0863 4.33914,-3.77125 4.33914,-7.03851 0,-4.33915 -3.79839,-8.13754 -8.67347,-8.13754 -1.08501,0 -2.71206,0.5425 -3.79052,1.08501 -7.04637,-9.75061 -14.63355,-18.94555 -23.84952,-26.55371 1.08633,-1.085 1.62709,-2.71209 1.62709,-4.85583 0,-4.35359 -3.2546,-8.1502 -8.13142,-8.1502 -2.71031,0 -4.87378,1.08497 -6.50083,3.25456 -9.75847,-5.9662 -20.59537,-11.3794 -31.97304,-15.174295 v -2.169588 c 0,-4.313749 -3.25457,-8.12309 -8.12965,-8.12309 -3.79051,0 -7.04466,2.72476 -8.13141,5.953535 -5.95832,-1.071889 -12.46223,-2.144194 -19.50731,-2.686273 -4.33432,-15.731214 -13.54725,-29.820961 -39.5602,-27.096201 0,0 1.08501,11.921484 0.55696,22.742639 -7.05603,-7.049458 -21.14883,-11.920158 -35.781071,-6.507406 l 5.419325,36.873939 -15.17122,21.11513 -14.632245,5.43858 -9.758472,29.26579 -54.7344865,74.22431 c 0,0 -0.542502,1.08325 -0.542502,2.69763 0,1.64019 1.6270564,3.82419 1.6270564,3.82419 l 34.6833661,40.08957 13.006488,-10.8496 -0.542505,16.26106 h 39.560191 c 0,-19.48981 22.761875,-53.10742 37.939255,-58.51844 h 31.42877 c -27.0962,41.19995 -75.870608,60.14594 -79.661126,111.08336 H 60.286861 v 15.7168 H 316.07471 v -15.7168 h -22.7571 z m -16.2606,0.54249 H 98.221293 c 1.627049,-20.58706 14.091037,-35.77624 28.180777,-49.85285 38.48173,-37.94406 69.36803,-62.30239 69.36803,-124.10121 h -15.71855 c 0,18.41748 -3.79052,34.14874 -9.75189,47.16659 0,0.52981 -40.64348,0.52981 -40.64348,0.52981 l -11.38419,-14.07835 -11.92149,10.27997 8.12963,9.75059 C 99.846595,243.15223 84.129796,265.3795 79.252973,284.33948 H 67.877067 v -26.55545 l -4.875103,-3.24013 -21.136124,17.87368 -18.971359,-22.75707 50.401915,-69.36804 8.129636,-23.29914 28.723278,-9.75193 -4.33914,-12.47532 9.21422,-13.54725 -3.79532,-26.555473 c 8.12967,3.798388 14.08975,9.233483 14.08975,22.784203 l 14.63354,2.69764 c 4.33915,-19.51519 4.33915,-39.029057 4.33915,-39.029057 13.00646,8.136212 11.93457,44.984337 11.37765,50.422447 l 15.71855,2.68498 c 0,0 0.53592,-5.41103 0.53592,-11.92148 0,-4.31203 0,-8.66559 -0.53592,-14.08975 100.25304,11.93286 137.09983,114.8822 105.6706,244.40886 z M 89.013192,185.73061 l -1.627049,-20.07214 25.468687,-2.71206 0.5425,9.77772 z M 60.289907,416.5905 H 315.53571 V 448 H 60.289907 Z M 46.740917,256.15608 35.36326,251.82964 c 3.788773,-5.42415 5.960082,-13.00649 5.960082,-19.51695 l 9.750595,0.54382 c 0.543833,7.05121 -0.542502,17.88812 -4.33302,23.29914 z"
       style="stroke-width:0.0675239" />
  </g>
</svg>
