<?xml version="1.0" encoding="UTF-8" standalone="no"?>
<svg
   xmlns:dc="http://purl.org/dc/elements/1.1/"
   xmlns:cc="http://creativecommons.org/ns#"
   xmlns:rdf="http://www.w3.org/1999/02/22-rdf-syntax-ns#"
   xmlns:svg="http://www.w3.org/2000/svg"
   xmlns="http://www.w3.org/2000/svg"
   xmlns:sodipodi="http://sodipodi.sourceforge.net/DTD/sodipodi-0.dtd"
   xmlns:inkscape="http://www.inkscape.org/namespaces/inkscape"
   sodipodi:docname="template-square.svg"
   inkscape:version="1.0 (1.0+r73+1)"
   id="svg8"
   version="1.1"
   viewBox="0 0 448 512"
   height="512"
   width="448">
  <title
     id="title1726">Springer</title>
  <defs
     id="defs2" />
  <sodipodi:namedview
     inkscape:window-maximized="1"
     inkscape:window-y="27"
     inkscape:window-x="51"
     inkscape:window-height="713"
     inkscape:window-width="1315"
     inkscape:guide-bbox="true"
     showguides="true"
     units="px"
     showgrid="true"
     inkscape:document-rotation="0"
     inkscape:current-layer="layer6"
     inkscape:document-units="px"
     inkscape:cy="362.66667"
     inkscape:cx="222.032"
     inkscape:zoom="0.75"
     inkscape:pageshadow="2"
     inkscape:pageopacity="0.0"
     borderopacity="1.0"
     bordercolor="#666666"
     pagecolor="#ffffff"
     id="base">
    <inkscape:grid
       empspacing="4"
       id="grid10"
       type="xygrid" />
    <sodipodi:guide
       inkscape:color="rgb(0,0,255)"
       inkscape:locked="true"
       inkscape:label=""
       id="guide832"
       orientation="0,1"
       position="448,416" />
    <sodipodi:guide
       inkscape:color="rgb(0,0,255)"
       inkscape:locked="true"
       inkscape:label=""
       id="guide834"
       orientation="0,1"
       position="448,96" />
    <sodipodi:guide
       inkscape:color="rgb(0,0,255)"
       inkscape:locked="true"
       inkscape:label="baseline"
       id="guide836"
       orientation="0,1"
       position="448,64" />
    <sodipodi:guide
       position="64,512"
       orientation="1,0"
       id="guide835" />
    <sodipodi:guide
       position="384,512"
       orientation="1,0"
       id="guide837" />
  </sodipodi:namedview>
  <metadata
     id="metadata5">
    <rdf:RDF>
      <cc:Work
         rdf:about="">
        <dc:format>image/svg+xml</dc:format>
        <dc:type
           rdf:resource="http://purl.org/dc/dcmitype/StillImage" />
        <dc:title>Springer</dc:title>
        <cc:license
           rdf:resource="http://scripts.sil.org/OFL" />
        <dc:subject>
          <rdf:Bag>
            <rdf:li>Springer</rdf:li>
          </rdf:Bag>
        </dc:subject>
      </cc:Work>
      <cc:License
         rdf:about="http://scripts.sil.org/OFL">
        <cc:permits
           rdf:resource="http://scripts.sil.org/pub/OFL/Reproduction" />
        <cc:permits
           rdf:resource="http://scripts.sil.org/pub/OFL/Distribution" />
        <cc:permits
           rdf:resource="http://scripts.sil.org/pub/OFL/Embedding" />
        <cc:permits
           rdf:resource="http://scripts.sil.org/pub/OFL/DerivativeWorks" />
        <cc:requires
           rdf:resource="http://scripts.sil.org/pub/OFL/Notice" />
        <cc:requires
           rdf:resource="http://scripts.sil.org/pub/OFL/Attribution" />
        <cc:requires
           rdf:resource="http://scripts.sil.org/pub/OFL/ShareAlike" />
        <cc:requires
           rdf:resource="http://scripts.sil.org/pub/OFL/DerivativeRenaming" />
        <cc:requires
           rdf:resource="http://scripts.sil.org/pub/OFL/BundlingWhenSelling" />
      </cc:License>
    </rdf:RDF>
  </metadata>
  <g
     inkscape:label="icon"
     id="layer6"
     inkscape:groupmode="layer">
    <path
       d="M 48 32 C 21.5 32 0 53.5 0 80 L 0 432 C 0 458.5 21.5 480 48 480 L 400 480 C 426.5 480 448 458.5 448 432 L 448 80 C 448 53.5 426.5 32 400 32 L 48 32 z M 203.54297 96.003906 C 220.88839 96.226393 227.50013 106.98293 230.77344 118.86328 C 236.64434 119.31501 242.06599 120.20832 247.03125 121.10156 C 247.93688 118.41091 250.64788 116.14062 253.80664 116.14062 C 257.8692 116.14062 260.58203 119.31537 260.58203 122.91016 L 260.58203 124.7168 C 270.06342 127.87921 279.09255 132.39145 287.22461 137.36328 C 288.58048 135.55529 290.38399 134.65039 292.64258 134.65039 C 296.7066 134.65039 299.41992 137.81536 299.41992 141.44336 C 299.41992 143.22981 298.96777 144.58411 298.0625 145.48828 C 305.74247 151.82841 312.06552 159.49168 317.9375 167.61719 C 318.83622 167.1651 320.19152 166.71289 321.0957 166.71289 C 325.15826 166.71289 328.32422 169.87818 328.32422 173.49414 C 328.32422 176.21686 326.96905 178.45413 324.70898 179.35938 C 329.22874 187.50712 332.83825 196.53819 335.54492 205.99805 C 335.99701 205.55655 336.90143 205.55469 337.35352 205.55469 C 341.41759 205.55469 344.12891 208.71886 344.12891 212.32422 C 344.12891 215.94055 341.86928 218.65483 339.16406 219.10547 C 340.97093 228.57737 342.3219 238.06934 343.22461 248.00391 C 347.28719 248.00391 350.45312 251.15718 350.45312 254.78516 C 350.45313 258.84116 347.2886 261.5432 343.67773 262.00586 C 343.67773 271.48834 343.22498 281.87402 342.32227 291.80859 C 345.93821 292.26031 348.64453 295.41449 348.64453 299.04102 C 348.64453 302.64639 345.48408 305.8125 341.41602 305.8125 L 340.9707 305.8125 C 339.16273 315.74598 337.35421 325.67926 335.09961 336.06445 L 335.09766 336.06641 L 354.0625 336.06641 L 354.0625 349.16406 L 140.90625 349.16406 L 140.90625 336.06641 L 158.97266 336.06641 C 162.13142 293.61856 202.77725 277.83134 225.35742 243.49805 L 199.16602 243.49805 C 186.5182 248.00724 167.55078 276.02216 167.55078 292.26367 L 134.58398 292.26367 L 135.03516 278.71289 L 124.19727 287.75391 L 95.292969 254.3457 C 95.292969 254.3457 93.9375 252.52502 93.9375 251.1582 C 93.9375 249.81288 94.390625 248.91016 94.390625 248.91016 L 140.00195 187.05664 L 148.13477 162.66797 L 160.32812 158.13672 L 172.9707 140.54102 L 168.45312 109.8125 C 180.64666 105.30187 192.39146 109.35983 198.27148 115.23438 C 198.71152 106.21674 197.80664 96.283203 197.80664 96.283203 C 199.8389 96.070331 201.74862 95.98089 203.54297 96.003906 z M 210.91016 110.26367 C 210.91016 110.26367 210.90893 126.52445 207.29297 142.78711 L 195.09961 140.53906 C 195.09961 129.24679 190.13215 124.71805 183.35742 121.55273 L 186.51953 143.68164 L 178.8418 154.97266 L 182.45703 165.36719 L 158.52148 173.49414 L 151.74609 192.91016 L 109.74609 250.7168 L 125.55469 269.68164 L 143.16797 254.78711 L 147.23047 257.48633 L 147.23047 279.61719 L 156.71094 279.61719 C 160.77496 263.81721 173.8718 245.29442 186.06641 236.26367 L 179.29297 228.13672 L 189.22656 219.57031 L 198.71289 231.30273 C 198.71289 231.30273 232.58398 231.30284 232.58398 230.86133 C 237.55179 220.01312 240.70898 206.90259 240.70898 191.55469 L 253.80859 191.55469 C 253.80859 243.05371 228.07006 263.35261 196.00195 294.97266 C 184.2605 306.70316 173.87346 319.36169 172.51758 336.51758 L 321.54883 336.51758 C 347.73985 228.57869 317.03443 142.78781 233.49023 132.84375 C 233.93683 137.36389 233.93555 140.99259 233.93555 144.58594 C 233.93555 150.01132 233.49023 154.51953 233.49023 154.51953 L 220.39062 152.28125 C 220.85473 147.74949 221.74888 117.04385 210.91016 110.26367 z M 184.71289 178.45508 L 185.16406 186.60352 L 164.84375 197.44141 L 163.48828 180.71484 L 184.71289 178.45508 z M 125.10352 236.25977 L 133.22852 236.71289 C 133.68171 242.5889 132.77596 251.61972 129.61719 256.12891 L 129.61719 256.13086 L 120.13672 252.52539 C 123.29403 248.00526 125.10352 241.68516 125.10352 236.25977 z M 140.9082 389.82617 L 353.61328 389.82617 L 353.61328 416 L 140.9082 416 L 140.9082 389.82617 z "
       id="path2" />
  </g>
</svg>
