<?xml version="1.0" encoding="UTF-8" standalone="no"?>
<svg
   xmlns:dc="http://purl.org/dc/elements/1.1/"
   xmlns:cc="http://creativecommons.org/ns#"
   xmlns:rdf="http://www.w3.org/1999/02/22-rdf-syntax-ns#"
   xmlns:svg="http://www.w3.org/2000/svg"
   xmlns="http://www.w3.org/2000/svg"
   xmlns:sodipodi="http://sodipodi.sourceforge.net/DTD/sodipodi-0.dtd"
   xmlns:inkscape="http://www.inkscape.org/namespaces/inkscape"
   sodipodi:docname="ssrn.svg"
   inkscape:version="1.0 (1.0+r73+1)"
   id="svg8"
   version="1.1"
   viewBox="0 0 512 512"
   height="512"
   width="512">
  <title
     id="title879">SSRN</title>
  <defs
     id="defs2" />
  <sodipodi:namedview
     inkscape:window-maximized="1"
     inkscape:window-y="27"
     inkscape:window-x="51"
     inkscape:window-height="713"
     inkscape:window-width="1315"
     inkscape:guide-bbox="true"
     showguides="true"
     units="px"
     showgrid="true"
     inkscape:document-rotation="0"
     inkscape:current-layer="layer6"
     inkscape:document-units="px"
     inkscape:cy="256"
     inkscape:cx="320"
     inkscape:zoom="0.75"
     inkscape:pageshadow="2"
     inkscape:pageopacity="0.0"
     borderopacity="1.0"
     bordercolor="#666666"
     pagecolor="#ffffff"
     id="base"
     scale-x="1">
    <inkscape:grid
       empspacing="4"
       id="grid10"
       type="xygrid" />
  </sodipodi:namedview>
  <metadata
     id="metadata5">
    <rdf:RDF>
      <cc:Work
         rdf:about="">
        <dc:format>image/svg+xml</dc:format>
        <dc:type
           rdf:resource="http://purl.org/dc/dcmitype/StillImage" />
        <dc:title>SSRN</dc:title>
        <cc:license
           rdf:resource="http://scripts.sil.org/OFL" />
        <dc:subject>
          <rdf:Bag>
            <rdf:li>SSRN</rdf:li>
          </rdf:Bag>
        </dc:subject>
      </cc:Work>
      <cc:License
         rdf:about="http://scripts.sil.org/OFL">
        <cc:permits
           rdf:resource="http://scripts.sil.org/pub/OFL/Reproduction" />
        <cc:permits
           rdf:resource="http://scripts.sil.org/pub/OFL/Distribution" />
        <cc:permits
           rdf:resource="http://scripts.sil.org/pub/OFL/Embedding" />
        <cc:permits
           rdf:resource="http://scripts.sil.org/pub/OFL/DerivativeWorks" />
        <cc:requires
           rdf:resource="http://scripts.sil.org/pub/OFL/Notice" />
        <cc:requires
           rdf:resource="http://scripts.sil.org/pub/OFL/Attribution" />
        <cc:requires
           rdf:resource="http://scripts.sil.org/pub/OFL/ShareAlike" />
        <cc:requires
           rdf:resource="http://scripts.sil.org/pub/OFL/DerivativeRenaming" />
        <cc:requires
           rdf:resource="http://scripts.sil.org/pub/OFL/BundlingWhenSelling" />
      </cc:License>
    </rdf:RDF>
  </metadata>
  <g
     inkscape:label="icon"
     id="layer6"
     inkscape:groupmode="layer">
    <path
       id="path41"
       d="m 71.789221,157.66557 c -35.214822,0 -59.467818,20.59217 -59.467818,49.4949 0,12.95639 4.321381,23.59117 12.626755,32.22877 9.302045,9.63424 19.264613,14.95098 42.519673,22.92415 24.25173,7.64095 28.90663,9.96517 33.889859,13.61953 8.63759,6.97652 13.61953,16.60947 13.61953,26.90815 0,20.92957 -19.934219,37.87385 -44.518149,37.87385 -14.94969,0 -30.562509,-5.98377 -40.196757,-15.61802 -7.308734,-7.30874 -12.291965,-15.61411 -16.610759,-28.2383 -0.664427,-1.66108 -1.33145,-2.65384 -2.660323,-2.65384 -1.661068,0 -2.991233,1.65848 -2.991233,3.984 0,2.65771 1.334051,10.30126 3.659561,17.61 1.993293,6.97652 3.322147,11.62495 3.322147,12.28938 1.99329,9.96645 2.325513,10.30126 4.98323,12.62678 6.976522,5.31544 27.568684,10.29737 42.850584,10.29737 38.204769,0 65.450309,-24.25171 65.450309,-58.13768 0,-24.91615 -16.27855,-42.85319 -49.832299,-53.81629 -33.55374,-10.9631 -35.216115,-11.96495 -42.857061,-20.27031 -5.315454,-5.97988 -7.97446,-12.95251 -7.97446,-20.92568 0,-17.93963 14.61747,-30.89862 34.882601,-30.89862 24.25172,0 46.842359,14.28914 53.154449,33.88984 1.66108,5.31545 2.3281,6.30692 4.32139,6.30692 1.32886,0 2.65383,-1.65849 2.65383,-3.984 0,-0.99664 -0.32955,-3.32473 -0.66184,-5.98248 -3.65437,-22.59064 -3.98917,-23.58339 -4.32139,-27.56998 0,-4.651 -0.99663,-6.6443 -3.32215,-6.6443 -0.33222,0 -0.99146,0.32955 -1.32368,0.66184 -3.32215,2.65773 -3.65955,2.99122 -5.32062,2.99122 -0.66443,0 -1.6572,-0.32954 -2.65384,-0.66184 -17.607409,-7.30873 -20.597349,-8.30537 -33.221539,-8.30536 z m 108.631829,0.66184 c -25.24837,0 -44.84648,10.29739 -53.8163,26.90815 l 1.992,13.61953 c 0.33222,1.99329 0.33089,3.32604 0.33089,3.99047 0,5.31544 -3.31828,9.30072 -7.63707,10.29738 0.99665,10.29866 5.31156,19.26848 12.6203,26.57722 9.30203,9.63425 19.27109,14.95099 42.52615,22.92415 23.91951,7.97317 28.90014,9.96517 33.88336,13.61953 8.63761,6.64431 13.61954,16.60947 13.61954,26.90814 0,20.92958 -19.92774,37.87383 -44.51167,37.87383 -14.94969,0 -30.56898,-5.97726 -40.20323,-15.61151 -2.98994,-2.98994 -5.64248,-6.3121 -7.96798,-9.96647 -1.9933,4.65102 -4.32399,9.30203 -6.98171,13.28861 1.99329,9.30204 2.32551,9.96518 4.98323,11.95847 6.97652,5.31544 27.57517,10.29737 42.85707,10.29737 37.87255,0 65.4503,-24.25171 65.4503,-58.13768 -0.66442,-24.25172 -17.27778,-41.85913 -50.83153,-53.15445 -33.88597,-11.29532 -35.54834,-11.95845 -42.85708,-20.26384 -5.31543,-5.97988 -7.97446,-12.95899 -7.97446,-20.93215 0,-18.27184 14.61747,-30.89214 34.88262,-30.89214 24.25171,0 46.51013,14.28266 53.15444,33.88336 1.66108,5.31545 2.66032,6.31339 4.32139,6.31339 1.32887,0 2.66032,-1.66496 2.66032,-3.99047 0,-0.99663 -0.3361,-2.98605 -0.66832,-5.97598 -3.65437,-22.59065 -3.98269,-23.58988 -4.31491,-27.57647 0,-4.651 -0.99665,-6.6443 -3.32215,-6.6443 -0.66443,0 -0.99795,0.3361 -1.33017,0.66832 -3.32214,2.65772 -3.65307,2.98474 -5.31414,2.98474 -0.66443,0 -1.33145,-0.32954 -2.66032,-0.66184 -17.2752,-7.64094 -20.59864,-8.30537 -32.89061,-8.30537 z m 96.34244,3.65308 c -6.3121,0 -13.28732,0.33609 -20.26384,0.6683 -14.94968,0.99665 -14.94839,0.99276 -21.92492,0.99276 h -2.66031 c 0.66443,1.66107 0.99925,3.65567 0.99925,6.31339 0.3322,2.65773 0.32955,3.98659 2.3229,14.94968 l 2.32939,14.61878 c 0.33223,1.9933 0.3309,3.31957 0.3309,3.984 0,2.98993 -0.99795,5.65025 -2.99124,7.64354 v 2.32291 49.8323 c 5.97988,8.6376 8.96722,18.60404 8.96722,29.89938 0,12.95639 -3.65437,24.58651 -9.96646,34.22076 -1.66107,11.95975 -5.97858,14.94969 -16.94169,18.27184 -2.65772,0.66444 -3.32214,0.99276 -3.32214,2.65383 0,1.9933 0.99534,2.66033 3.65306,2.66033 0.99665,0 4.32399,-0.32955 6.98171,-0.66184 4.65102,-0.66442 11.62754,-0.99923 18.27185,-0.99923 12.9564,0 27.23906,0.33481 30.56121,0.99923 3.65437,0.33222 6.64431,0.66184 8.30539,0.66184 2.3255,0 4.32139,-0.99924 4.32139,-2.66033 0,-1.66107 -1.66109,-2.65253 -4.98324,-2.98475 -19.26849,-1.9933 -25.58058,-8.97111 -24.91615,-27.90738 v -7.31261 -41.85785 c 0.33222,-4.651 0.99148,-5.31545 7.96799,-4.98322 h 14.94969 c 5.97987,0 7.64483,1.00054 10.63477,5.65154 0.99665,1.66109 1.66108,2.65255 1.66108,2.98476 l 33.55246,51.49338 c 13.62082,20.92957 25.57799,28.90661 42.18875,28.90661 9.96645,0 19.27108,-2.65642 19.27108,-5.31414 0,-0.99665 -0.99405,-1.99847 -2.32292,-1.99847 -14.28525,0.3322 -23.92209,-7.63966 -40.86507,-33.55246 l -37.8738,-55.14646 c 21.9262,-11.29532 33.88984,-27.24423 33.88984,-47.50938 0,-14.61746 -5.97987,-27.57128 -16.61077,-35.54445 -10.63088,-7.97316 -24.2556,-11.2966 -45.51738,-11.29659 z m 223.25258,2.32938 c -1.66108,0 -3.65437,0.32956 -6.64431,0.66185 -3.32215,0.66442 -6.64819,0.99922 -12.29585,0.99922 -7.97318,0 -21.26307,-0.66701 -26.24631,-0.99922 l -5.97598,-0.3309 c -2.65774,0 -3.99048,0.99276 -3.99048,2.65383 0,1.9933 1.00054,2.99513 3.99048,3.65955 25.91278,3.65437 28.23441,9.63424 27.56998,73.08738 v 65.11291 c 0,4.3188 -0.33222,5.31545 -1.66108,4.98323 -0.66443,0 -1.65979,-0.99665 -3.65307,-3.32216 L 346.19778,168.62479 c -2.65771,-2.98993 -4.3162,-3.98401 -7.30614,-3.98401 -0.99664,0 -2.65902,-9.7e-4 -4.65231,0.3309 h -2.3294 c -0.66442,0 -6.64171,9.7e-4 -10.6283,-0.3309 1.66108,0.99665 3.32216,2.32552 4.98324,3.32216 11.95974,8.96981 19.27107,24.24783 19.27107,40.85859 0,2.65773 -0.33609,5.31804 -0.66832,7.64355 v 5.98247 80.39352 l 3.32217,4.98322 c 2.98993,4.31881 5.31803,7.97447 7.64353,11.29661 v -4.98322 -92.35845 c 0,-4.65102 0.66054,-5.97599 2.65383,-5.97599 1.32888,0 1.66108,0.33089 3.32217,1.99199 L 476.4236,349.35122 c 4.3188,4.98322 4.32009,4.98322 6.31338,4.98322 3.32216,0 4.32139,-1.99458 4.32139,-7.97446 v -2.65384 c 0.33222,-7.97317 0.3309,-20.26772 0.3309,-37.54293 v -88.36798 l 0.33087,-8.6363 c -0.3322,-32.88931 0.99535,-36.21276 13.61954,-39.53492 1.99329,-0.33221 2.66032,-1.00053 2.66032,-2.3294 0,-1.66106 -1.65848,-2.98474 -3.984,-2.98474 z m -230.55873,6.97522 c 12.62418,0 26.24241,4.32009 33.88337,11.29661 9.63425,7.97317 15.28062,21.25919 15.28062,33.88338 0,22.59064 -14.28526,36.54369 -38.20477,36.54369 h -15.28061 c -8.96981,-0.33223 -9.63555,-0.99795 -9.63555,-9.63555 v -55.14645 c 0,-9.30203 0,-10.30125 1.66109,-12.62677 1.99328,-2.65772 5.98376,-4.31491 12.29585,-4.31491 z"
       style="stroke:none;stroke-width:1" />
  </g>
</svg>
