<?xml version="1.0" encoding="UTF-8" standalone="no"?>
<svg
   sodipodi:docname="viaf.svg"
   inkscape:version="1.2.2 (1:1.2.2+202212051550+b0a8486541)"
   id="svg8"
   version="1.1"
   viewBox="0 0 512 512"
   height="512"
   width="512"
   xmlns:inkscape="http://www.inkscape.org/namespaces/inkscape"
   xmlns:sodipodi="http://sodipodi.sourceforge.net/DTD/sodipodi-0.dtd"
   xmlns="http://www.w3.org/2000/svg"
   xmlns:svg="http://www.w3.org/2000/svg"
   xmlns:rdf="http://www.w3.org/1999/02/22-rdf-syntax-ns#"
   xmlns:cc="http://creativecommons.org/ns#"
   xmlns:dc="http://purl.org/dc/elements/1.1/">
  <title
     id="title1886">VIAF</title>
  <defs
     id="defs2" />
  <sodipodi:namedview
     inkscape:window-maximized="1"
     inkscape:window-y="0"
     inkscape:window-x="1992"
     inkscape:window-height="1403"
     inkscape:window-width="2488"
     inkscape:guide-bbox="true"
     showguides="true"
     units="px"
     showgrid="true"
     inkscape:document-rotation="0"
     inkscape:current-layer="layer6"
     inkscape:document-units="px"
     inkscape:cy="275.33333"
     inkscape:cx="372.99999"
     inkscape:zoom="1.5"
     inkscape:pageshadow="2"
     inkscape:pageopacity="0.0"
     borderopacity="1.0"
     bordercolor="#666666"
     pagecolor="#ffffff"
     id="base"
     inkscape:showpageshadow="2"
     inkscape:pagecheckerboard="0"
     inkscape:deskcolor="#d1d1d1">
    <inkscape:grid
       empspacing="4"
       id="grid10"
       type="xygrid" />
    <sodipodi:guide
       position="511.99998,64"
       orientation="0,1"
       id="guide23"
       inkscape:label="baseline"
       inkscape:locked="false"
       inkscape:color="rgb(0,0,255)" />
  </sodipodi:namedview>
  <metadata
     id="metadata5">
    <rdf:RDF>
      <cc:Work
         rdf:about="">
        <dc:format>image/svg+xml</dc:format>
        <dc:type
           rdf:resource="http://purl.org/dc/dcmitype/StillImage" />
        <cc:license
           rdf:resource="http://scripts.sil.org/OFL" />
        <dc:title>VIAF</dc:title>
        <dc:subject>
          <rdf:Bag>
            <rdf:li>VIAF</rdf:li>
          </rdf:Bag>
        </dc:subject>
      </cc:Work>
      <cc:License
         rdf:about="http://scripts.sil.org/OFL">
        <cc:permits
           rdf:resource="http://scripts.sil.org/pub/OFL/Reproduction" />
        <cc:permits
           rdf:resource="http://scripts.sil.org/pub/OFL/Distribution" />
        <cc:permits
           rdf:resource="http://scripts.sil.org/pub/OFL/Embedding" />
        <cc:permits
           rdf:resource="http://scripts.sil.org/pub/OFL/DerivativeWorks" />
        <cc:requires
           rdf:resource="http://scripts.sil.org/pub/OFL/Notice" />
        <cc:requires
           rdf:resource="http://scripts.sil.org/pub/OFL/Attribution" />
        <cc:requires
           rdf:resource="http://scripts.sil.org/pub/OFL/ShareAlike" />
        <cc:requires
           rdf:resource="http://scripts.sil.org/pub/OFL/DerivativeRenaming" />
        <cc:requires
           rdf:resource="http://scripts.sil.org/pub/OFL/BundlingWhenSelling" />
      </cc:License>
    </rdf:RDF>
  </metadata>
  <g
     inkscape:label="icon"
     id="layer6"
     inkscape:groupmode="layer">
    <path
       id="path2-6"
       d="M 226.00977 64 C 197.30578 64 189.51172 64.460164 189.51172 66.226562 C 189.51172 67.474561 191.94978 69.318635 194.92578 70.240234 C 204.39138 73.177831 204.46832 74.099427 201.95312 144.16016 L 198.74609 227.48828 C 197.76689 247.43706 197.76738 247.43604 201.49219 246.89844 C 204.10338 246.51444 224.55038 222.70626 265.61914 172.28711 L 351.88477 71.392578 C 354.93756 69.85658 357.45313 67.552686 357.45312 66.304688 C 357.45312 64.461489 352.19297 64 333.49219 64 C 307.30341 64 302.81086 65.766356 314.71484 71.46875 C 320.97404 74.406347 321.28035 74.94409 320.43555 80.646484 C 319.40723 85.154361 317.62991 89.458326 315.17578 93.376953 C 310.97099 100.00095 238.91323 189.08768 238.29883 188.39648 C 237.30043 187.39809 241.65829 95.064654 243.02148 87.039062 C 244.94148 76.325473 250.27924 69.242187 256.61523 69.242188 C 258.82323 69.242188 261.12613 68.090058 261.64453 66.630859 C 262.41253 64.307662 257.84333 64 226.00977 64 z M 406.4707 64 C 371.73794 64 364.0957 64.384393 364.0957 66.400391 C 364.0957 67.859589 366.76521 69.242394 370.81641 69.933594 C 380.4356 71.546392 384.71834 76.633307 383.33594 84.8125 C 381.51194 95.372489 347.39182 219.46279 344.85742 224.55078 C 341.39016 231.48031 334.85849 236.36789 327.23242 237.74023 C 310.81644 240.50503 322.41365 241.88867 362.34961 241.88867 C 402.28557 241.88867 415.24494 240.42823 399.44336 237.74023 C 390.74577 236.26184 385.77344 232.1145 385.77344 226.41211 C 385.77344 220.22972 421.04374 89.362993 424.71094 81.875 C 427.99413 75.174207 436.32674 69.242188 442.58594 69.242188 C 444.94754 69.242188 447.38623 68.090058 447.92383 66.630859 C 448.76863 64.307662 443.48824 64 406.4707 64 z M 219.98047 264.79297 C 217.59967 264.79297 197.97772 288.29364 154.00977 343.80078 L 69.203125 441.91406 C 66.918327 442.52846 64.615724 444.14137 64.078125 445.54297 C 63.329326 447.61657 67.436765 448 88.902344 448 C 110.65592 448 114.63086 447.61587 114.63086 445.38867 C 114.63086 443.91027 113.24915 442.75781 111.50195 442.75781 C 109.75475 442.75781 106.68198 441.2999 104.55078 439.4375 C 98.905991 434.5991 101.4217 428.10873 117.14648 407.46875 L 130.43164 389.95898 L 155.92969 389.88086 L 181.42773 389.88086 L 180.35352 406.2207 C 178.45272 434.19508 175.45603 440.53187 163.39844 442.60547 C 160.03844 443.14307 156.98689 444.60161 156.67969 445.84961 C 156.08449 447.53921 164.24476 448 193.48633 448 C 224.47511 448 231.11719 447.61594 231.11719 445.61914 C 231.11719 444.21754 229.21611 442.60401 226.91211 442.06641 C 224.70411 441.45201 221.49727 438.89963 219.98047 436.36523 C 217.06207 431.66124 217.29283 417.77936 222.26562 290.77148 C 223.24482 265.63871 223.16767 264.79297 219.98047 264.79297 z M 362.50391 270.11133 L 292.6543 271.64844 C 292.6543 272.49324 295.09236 273.72187 298.06836 274.35547 C 301.41598 275.06046 304.60088 276.38841 307.45703 278.27148 C 310.89383 280.90188 311.20027 282.13033 310.35547 290.13672 C 309.35707 299.77511 277.83131 416.31968 273.26172 427.26367 C 269.44092 436.36446 264.33279 440.839 256 442.375 C 252.0256 443.0662 248.53244 444.67841 248.14844 445.84961 C 247.61084 447.53921 257.15298 448 290.81055 448 C 328.28891 448 334.18359 447.69267 334.18359 445.38867 C 334.18359 443.52627 332.41662 442.75781 327.92383 442.75781 C 324.48703 442.75781 319.97432 441.53014 317.91992 439.99414 C 311.50713 435.29015 312.48782 429.20305 329.44141 368.07031 L 332.80078 355.97461 L 344.47461 357.20312 C 350.8874 357.89432 358.06772 359.37207 360.29492 360.44727 C 366.01652 363.13526 369.14648 370.54743 369.14648 381.10742 C 369.14648 388.80661 369.58732 390.03502 372.04492 389.57422 C 374.25292 389.11342 377.07639 381.10634 384.33398 354.66797 C 392.26358 325.3688 393.26073 320.20557 391.05273 319.66797 C 389.51674 319.28397 387.23264 320.89618 385.77344 323.14258 C 376.23105 338.56016 366.32294 344.72321 347.91016 346.56641 C 336.92777 347.71841 335.85421 347.56488 336.00781 344.64648 C 336.00781 342.86089 340.05805 327.61536 344.78125 310.64258 L 353.57422 279.82812 L 372.58203 279.9043 C 402.0348 280.1347 412.4998 286.91113 415.0918 307.57031 C 415.8598 314.04071 416.78101 315.88477 419.14258 315.88477 C 421.27378 315.88477 422.73277 313.88891 423.88477 309.26172 L 432.35352 272.03125 C 432.35352 270.64885 411.50226 270.11133 362.50391 270.11133 z M 183.63672 325.0625 C 184.25112 325.7537 181.12089 378.2463 180.42969 378.9375 L 139.82227 378.47656 L 183.63672 325.0625 z " />
  </g>
</svg>
