<?xml version="1.0" encoding="UTF-8" standalone="no"?>
<svg
   sodipodi:docname="viaf-square.svg"
   inkscape:version="1.2.2 (1:1.2.2+202212051550+b0a8486541)"
   id="svg8"
   version="1.1"
   viewBox="0 0 448 512"
   height="512"
   width="448"
   xmlns:inkscape="http://www.inkscape.org/namespaces/inkscape"
   xmlns:sodipodi="http://sodipodi.sourceforge.net/DTD/sodipodi-0.dtd"
   xmlns="http://www.w3.org/2000/svg"
   xmlns:svg="http://www.w3.org/2000/svg"
   xmlns:rdf="http://www.w3.org/1999/02/22-rdf-syntax-ns#"
   xmlns:cc="http://creativecommons.org/ns#"
   xmlns:dc="http://purl.org/dc/elements/1.1/">
  <title
     id="title593">VIAF</title>
  <defs
     id="defs2" />
  <sodipodi:namedview
     inkscape:window-maximized="1"
     inkscape:window-y="0"
     inkscape:window-x="1992"
     inkscape:window-height="1403"
     inkscape:window-width="2488"
     inkscape:guide-bbox="true"
     showguides="true"
     units="px"
     showgrid="true"
     inkscape:document-rotation="0"
     inkscape:current-layer="layer6"
     inkscape:document-units="px"
     inkscape:cy="256"
     inkscape:cx="224.66667"
     inkscape:zoom="0.75"
     inkscape:pageshadow="2"
     inkscape:pageopacity="0.0"
     borderopacity="1.0"
     bordercolor="#666666"
     pagecolor="#ffffff"
     id="base"
     inkscape:showpageshadow="2"
     inkscape:pagecheckerboard="0"
     inkscape:deskcolor="#d1d1d1">
    <inkscape:grid
       empspacing="4"
       id="grid10"
       type="xygrid" />
    <sodipodi:guide
       inkscape:color="rgb(0,0,255)"
       inkscape:locked="false"
       inkscape:label="baseline"
       id="guide836"
       orientation="0,1"
       position="448,64" />
  </sodipodi:namedview>
  <metadata
     id="metadata5">
    <rdf:RDF>
      <cc:Work
         rdf:about="">
        <dc:format>image/svg+xml</dc:format>
        <dc:type
           rdf:resource="http://purl.org/dc/dcmitype/StillImage" />
        <cc:license
           rdf:resource="http://scripts.sil.org/OFL" />
        <dc:subject>
          <rdf:Bag>
            <rdf:li>VIAF</rdf:li>
          </rdf:Bag>
        </dc:subject>
        <dc:title>VIAF</dc:title>
      </cc:Work>
      <cc:License
         rdf:about="http://scripts.sil.org/OFL">
        <cc:permits
           rdf:resource="http://scripts.sil.org/pub/OFL/Reproduction" />
        <cc:permits
           rdf:resource="http://scripts.sil.org/pub/OFL/Distribution" />
        <cc:permits
           rdf:resource="http://scripts.sil.org/pub/OFL/Embedding" />
        <cc:permits
           rdf:resource="http://scripts.sil.org/pub/OFL/DerivativeWorks" />
        <cc:requires
           rdf:resource="http://scripts.sil.org/pub/OFL/Notice" />
        <cc:requires
           rdf:resource="http://scripts.sil.org/pub/OFL/Attribution" />
        <cc:requires
           rdf:resource="http://scripts.sil.org/pub/OFL/ShareAlike" />
        <cc:requires
           rdf:resource="http://scripts.sil.org/pub/OFL/DerivativeRenaming" />
        <cc:requires
           rdf:resource="http://scripts.sil.org/pub/OFL/BundlingWhenSelling" />
      </cc:License>
    </rdf:RDF>
  </metadata>
  <g
     inkscape:label="icon"
     id="layer6"
     inkscape:groupmode="layer">
    <path
       id="path2"
       d="M 48 32 C 21.500027 32 0 53.500027 0 80 L 0 432 C 0 458.49997 21.500027 480 48 480 L 400 480 C 426.49997 480 448 458.49997 448 432 L 448 80 C 448 53.500027 426.49997 32 400 32 L 48 32 z M 199.00781 96 C 225.53576 96 229.34312 96.257364 228.70312 98.193359 C 228.27113 99.409357 226.35172 100.36914 224.51172 100.36914 C 219.23173 100.36914 214.78359 106.27124 213.18359 115.19922 C 212.04759 121.88721 208.41605 198.83207 209.24805 199.66406 C 209.76005 200.24006 269.8085 126.00046 273.3125 120.48047 C 275.3576 117.21495 276.83837 113.6296 277.69531 109.87305 C 278.39931 105.12105 278.14373 104.67261 272.92773 102.22461 C 263.00776 97.472623 266.75221 96 288.57617 96 C 304.16014 96 308.54297 96.383923 308.54297 97.919922 C 308.54298 98.959919 306.44828 100.88016 303.9043 102.16016 L 232.01562 186.24023 C 197.79169 228.25614 180.75216 248.09602 178.57617 248.41602 C 175.47216 248.86402 175.47111 248.8642 176.28711 232.24023 L 178.96094 162.80078 C 181.05694 104.41691 180.99151 103.64917 173.10352 101.20117 C 170.62352 100.43317 168.5918 98.895468 168.5918 97.855469 C 168.5918 96.383472 175.08785 96 199.00781 96 z M 349.39258 96 C 380.2405 96 384.63955 96.257363 383.93555 98.193359 C 383.48755 99.409357 381.45628 100.36914 379.48828 100.36914 C 374.27229 100.36914 367.32778 105.3125 364.5918 110.89648 C 361.5358 117.13647 332.14453 226.19177 332.14453 231.34375 C 332.14453 236.09574 336.28717 239.55121 343.53516 240.7832 C 356.70312 243.0232 345.90494 244.24023 312.625 244.24023 C 279.34506 244.24023 269.6794 243.0872 283.35938 240.7832 C 289.71442 239.63958 295.15749 235.56757 298.04688 229.79297 C 300.15887 225.55298 328.59328 122.14373 330.11328 113.34375 C 331.26528 106.52776 327.69567 102.28931 319.67969 100.94531 C 316.30369 100.36931 314.08008 99.215997 314.08008 98 C 314.08008 96.320004 320.44865 96 349.39258 96 z M 193.98242 263.32812 C 196.63842 263.32812 196.70272 264.03261 195.88672 284.97656 C 191.74272 390.81636 191.55042 402.3847 193.98242 406.30469 C 195.24642 408.41669 197.91977 410.54269 199.75977 411.05469 C 201.67976 411.50269 203.26367 412.84763 203.26367 414.01562 C 203.26367 415.67962 197.72825 416 171.9043 416 C 147.53634 416 140.73642 415.61503 141.23242 414.20703 C 141.48842 413.16703 144.03203 411.95191 146.83203 411.50391 C 156.88002 409.77591 159.37694 404.49555 160.96094 381.18359 L 161.85547 367.56641 L 140.60742 367.56641 L 119.35938 367.63281 L 108.28906 382.22461 C 95.185089 399.42457 93.088983 404.83324 97.792969 408.86523 C 99.568967 410.41723 102.12799 411.63086 103.58398 411.63086 C 105.03998 411.63086 106.19141 412.59222 106.19141 413.82422 C 106.19141 415.68022 102.87992 416 84.751953 416 C 66.864001 416 63.440454 415.68112 64.064453 413.95312 C 64.512443 412.78513 66.431939 411.43973 68.335938 410.92773 L 139.00781 329.16797 C 175.64774 282.91207 191.99842 263.32812 193.98242 263.32812 z M 312.75195 267.75977 C 353.58387 267.75977 370.96094 268.20738 370.96094 269.35938 L 363.9043 300.38477 C 362.9443 304.24075 361.72717 305.9043 359.95117 305.9043 C 357.9832 305.9043 357.21617 304.3666 356.57617 298.97461 C 354.41617 281.75864 345.69434 276.11192 321.15039 275.91992 L 305.31055 275.85742 L 297.98438 301.53516 C 294.04838 315.67912 290.67188 328.38311 290.67188 329.87109 C 290.54388 332.30309 291.43981 332.43266 300.5918 331.47266 C 315.93576 329.93666 324.19255 324.79914 332.14453 311.95117 C 333.36053 310.07917 335.26297 308.73664 336.54297 309.05664 C 338.38297 309.50464 337.55331 313.80671 330.94531 338.22266 C 324.89733 360.2546 322.54312 366.9285 320.70312 367.3125 C 318.65513 367.6965 318.28906 366.67184 318.28906 360.25586 C 318.28906 351.45588 315.6801 345.27905 310.91211 343.03906 C 309.05611 342.14306 303.0725 340.91194 297.72852 340.33594 L 288 339.3125 L 285.20117 349.39258 C 271.0732 400.33647 270.25562 405.40814 275.59961 409.32812 C 277.31161 410.60812 281.07155 411.63086 283.93555 411.63086 C 287.67953 411.63086 289.15234 412.27222 289.15234 413.82422 C 289.15234 415.74422 284.23974 416 253.00781 416 C 224.95987 416 217.00903 415.61503 217.45703 414.20703 C 217.77703 413.23103 220.688 411.8885 224 411.3125 C 230.94398 410.0325 235.20077 406.30273 238.38477 398.71875 C 242.19276 389.59877 268.46292 292.47925 269.29492 284.44727 C 269.99892 277.77528 269.74486 276.75059 266.88086 274.55859 C 264.50074 272.98938 261.84633 271.88436 259.05664 271.29688 C 256.57664 270.76888 254.54492 269.74501 254.54492 269.04102 L 312.75195 267.75977 z M 163.69727 313.55273 L 127.18555 358.06445 L 161.02344 358.44727 C 161.59944 357.87127 164.20927 314.12873 163.69727 313.55273 z " />
  </g>
</svg>
