<?xml version="1.0" encoding="UTF-8" standalone="no"?>
<svg
   sodipodi:docname="wiley-square.svg"
   inkscape:version="1.2.2 (1:1.2.2+202212051550+b0a8486541)"
   id="svg8"
   version="1.1"
   viewBox="0 0 448 512"
   height="512"
   width="448"
   xmlns:inkscape="http://www.inkscape.org/namespaces/inkscape"
   xmlns:sodipodi="http://sodipodi.sourceforge.net/DTD/sodipodi-0.dtd"
   xmlns="http://www.w3.org/2000/svg"
   xmlns:svg="http://www.w3.org/2000/svg"
   xmlns:rdf="http://www.w3.org/1999/02/22-rdf-syntax-ns#"
   xmlns:cc="http://creativecommons.org/ns#"
   xmlns:dc="http://purl.org/dc/elements/1.1/">
  <title
     id="title1437">Wiley</title>
  <defs
     id="defs2" />
  <sodipodi:namedview
     inkscape:window-maximized="1"
     inkscape:window-y="0"
     inkscape:window-x="1992"
     inkscape:window-height="1403"
     inkscape:window-width="2488"
     inkscape:guide-bbox="true"
     showguides="true"
     units="px"
     showgrid="true"
     inkscape:document-rotation="0"
     inkscape:current-layer="layer6"
     inkscape:document-units="px"
     inkscape:cy="256"
     inkscape:cx="224.66667"
     inkscape:zoom="0.75"
     inkscape:pageshadow="2"
     inkscape:pageopacity="0.0"
     borderopacity="1.0"
     bordercolor="#666666"
     pagecolor="#ffffff"
     id="base"
     inkscape:showpageshadow="2"
     inkscape:pagecheckerboard="0"
     inkscape:deskcolor="#d1d1d1">
    <inkscape:grid
       empspacing="4"
       id="grid10"
       type="xygrid" />
    <sodipodi:guide
       inkscape:color="rgb(0,0,255)"
       inkscape:locked="false"
       inkscape:label="baseline"
       id="guide836"
       orientation="0,1"
       position="448,64" />
  </sodipodi:namedview>
  <metadata
     id="metadata5">
    <rdf:RDF>
      <cc:Work
         rdf:about="">
        <dc:format>image/svg+xml</dc:format>
        <dc:type
           rdf:resource="http://purl.org/dc/dcmitype/StillImage" />
        <cc:license
           rdf:resource="http://scripts.sil.org/OFL" />
        <dc:subject>
          <rdf:Bag>
            <rdf:li>Wiley</rdf:li>
          </rdf:Bag>
        </dc:subject>
        <dc:title>Wiley</dc:title>
      </cc:Work>
      <cc:License
         rdf:about="http://scripts.sil.org/OFL">
        <cc:permits
           rdf:resource="http://scripts.sil.org/pub/OFL/Reproduction" />
        <cc:permits
           rdf:resource="http://scripts.sil.org/pub/OFL/Distribution" />
        <cc:permits
           rdf:resource="http://scripts.sil.org/pub/OFL/Embedding" />
        <cc:permits
           rdf:resource="http://scripts.sil.org/pub/OFL/DerivativeWorks" />
        <cc:requires
           rdf:resource="http://scripts.sil.org/pub/OFL/Notice" />
        <cc:requires
           rdf:resource="http://scripts.sil.org/pub/OFL/Attribution" />
        <cc:requires
           rdf:resource="http://scripts.sil.org/pub/OFL/ShareAlike" />
        <cc:requires
           rdf:resource="http://scripts.sil.org/pub/OFL/DerivativeRenaming" />
        <cc:requires
           rdf:resource="http://scripts.sil.org/pub/OFL/BundlingWhenSelling" />
      </cc:License>
    </rdf:RDF>
  </metadata>
  <g
     inkscape:label="icon"
     id="layer6"
     inkscape:groupmode="layer">
    <path
       id="path2"
       d="M 48 32 C 21.500027 32 0 53.500027 0 80 L 0 432 C 0 458.49997 21.500027 480 48 480 L 400 480 C 426.49997 480 448 458.49997 448 432 L 448 80 C 448 53.500027 426.49997 32 400 32 L 48 32 z M 224.25781 96 C 260.03494 96 294.41998 104.39231 324.35742 128.5957 C 352.97464 151.72282 372.58594 192.15913 372.58594 255.13867 C 372.58594 324.36936 351.85701 363.25011 317.44727 388.71094 C 292.58266 407.11854 260.57195 416 223.36523 416 C 187.11835 416 151.62737 407.24265 124.68555 384.46289 C 96.366915 360.50098 75.414064 323.91228 75.414062 255.54688 C 75.414063 198.47205 89.715705 161.93086 115.38867 136.01953 C 146.19514 104.9105 188.54974 96 224.25781 96 z M 224.25781 112.97852 C 170.09443 112.97852 143.76568 124.84902 125.01953 145.37695 C 114.24097 157.18331 106.58951 171.46851 101.63086 189.50781 A 3.3492921 3.3492921 0 0 1 102.31055 188.82812 L 140.69727 188.82812 A 3.3492921 3.3492921 0 0 1 144.05273 192.18359 L 144.05273 194.0293 A 3.3492921 3.3492921 0 0 1 141.42188 197.29492 C 139.9346 197.62428 138.37215 198.56678 137.53711 199.77344 C 136.18157 201.72335 135.17986 204.65098 138.12695 210.68945 C 139.28144 213.07129 147.38777 229.71937 155.64844 246.77734 C 163.9091 263.83532 172.25837 281.1595 174.21484 285.54102 C 176.59858 290.88437 176.73452 292.28136 177.41992 294.6875 C 178.07445 293.68713 178.22239 293.33264 179.40039 291.54297 C 179.96172 290.68585 181.01997 289.28494 182.86328 286.85742 C 184.70659 284.4299 187.20659 281.17636 190.16406 277.36328 C 196.079 269.73711 203.82959 259.85486 211.875 249.83203 A 3.3492921 3.3492921 0 0 1 211.89062 249.83203 C 212.89341 248.59241 213.32838 248.13769 213.90039 247.51758 C 213.18202 246.76984 212.53667 246.13251 211.85938 245.31055 C 194.83792 224.5908 180.00575 206.77617 177.82812 204.14258 C 172.82048 198.05501 169.27148 195.66211 169.27148 195.66211 A 3.3492921 3.3492921 0 0 1 167.80469 192.89453 L 167.80469 192.19922 A 3.3492921 3.3492921 0 0 1 171.16016 188.84375 L 216.00195 188.84375 C 215.99472 187.23909 215.98633 185.47486 215.98633 184.15625 C 215.98631 168.14556 220.97854 159.73079 226.52539 153.26953 C 223.97097 153.6273 221.5523 154.04102 218.11914 154.04102 C 213.10892 154.04102 196.99249 153.58594 190.67773 153.58594 C 184.38027 153.58593 180.25089 154.03637 175.43945 155.64258 C 171.97239 156.79621 168.27935 159.86711 166.95703 161.28125 A 3.3492921 3.3492921 0 0 1 162.66406 161.79688 L 161.37891 160.94922 A 3.3492921 3.3492921 0 0 1 160.00391 157.24609 C 160.30798 156.1738 160.67724 155.45654 161.30273 154.20703 C 161.92822 152.95753 162.76135 151.44745 163.72266 149.83789 C 165.64527 146.61879 168.01047 143.07156 170.82812 140.58398 C 176.28878 135.75748 183.80807 133.16211 194.58008 133.16211 C 204.94399 133.16211 227.85591 133.58398 234.75 133.58398 C 238.21528 133.58398 241.51502 133.49958 244.21289 133.23633 C 246.91076 132.97308 249.05293 132.43212 249.76172 132.05859 A 3.3492921 3.3492921 0 0 1 254.4043 133.7207 C 254.4043 133.7207 254.49131 133.93625 254.93359 134.71875 A 3.3492921 3.3492921 0 0 1 253.82812 139.17773 C 253.82812 139.17773 251.23901 140.82205 248.18945 144.28906 C 241.97855 151.33928 241.08793 155.26594 240.53906 167.7832 C 240.41577 170.55116 240.39605 179.44796 240.34375 188.82812 L 276.25 188.82812 A 3.3492921 3.3492921 0 0 1 279.60547 192.18359 L 279.60547 192.84961 A 3.3492921 3.3492921 0 0 1 278.01953 195.69141 C 277.57331 195.96891 274.47072 198.98449 271.39648 202.85742 C 271.00355 203.35124 267.42979 208.04746 262.17383 214.86328 C 256.91786 221.67909 249.84648 230.78519 242.00586 240.71484 C 241.46673 241.40064 240.80758 242.06481 240.26758 242.69531 C 240.83858 243.30848 241.46914 243.91501 241.94531 244.48047 A 3.3492921 3.3492921 0 0 1 241.96094 244.49414 C 249.81173 253.85856 257.57934 263.15465 263.70117 270.54492 C 269.823 277.9352 274.1424 283.18631 275.64453 285.30078 C 276.93067 287.11396 278.82288 289.83992 280.46875 292.33008 C 280.5622 292.47146 280.61731 292.58308 280.70898 292.72266 C 281.49417 290.16972 281.8593 288.07587 283.18945 285.40625 C 287.09128 277.55942 311.12469 222.8094 314.28906 214.03125 C 317.18624 205.98444 316.38723 202.66262 314.34961 200.06055 A 3.3492921 3.3492921 0 0 1 314.33398 200.04688 C 312.50572 197.70062 309.50977 197.31055 309.50977 197.31055 A 3.3492921 3.3492921 0 0 1 306.48633 193.98438 L 306.48633 192.19922 A 3.3492921 3.3492921 0 0 1 309.84375 188.84375 L 345.08398 188.84375 C 338.67198 166.45108 328.8963 149.28908 315.39258 137.95312 C 294.79624 120.6727 272.42342 112.97851 224.25781 112.97852 z M 100.4668 195.87305 C 96.600087 212.49324 94.464844 231.64701 94.464844 255.32031 C 94.464845 299.18765 100.7187 342.35348 126.22852 367.86328 C 148.78532 390.41257 175.42097 398.70508 223.66797 398.70508 C 268.47033 398.70508 294.94062 393.46427 318.29492 370.55273 C 343.36884 345.94453 353.44531 312.71351 353.44531 255.32031 C 353.44531 232.66534 350.8654 214.00086 346.99023 197.32422 C 346.21013 197.52528 344.85465 198.41259 343.64844 199.48633 A 3.3492921 3.3492921 0 0 0 343.64844 199.48828 A 3.3492921 3.3492921 0 0 0 343.64844 199.49023 A 3.3492921 3.3492921 0 0 0 343.64844 199.49219 A 3.3492921 3.3492921 0 0 0 343.64844 199.49414 A 3.3492921 3.3492921 0 0 0 343.64844 199.49609 A 3.3492921 3.3492921 0 0 0 343.64844 199.49805 A 3.3492921 3.3492921 0 0 0 343.64844 199.5 A 3.3492921 3.3492921 0 0 0 343.64844 199.50195 C 343.36187 199.75668 342.20612 201.22592 341.16992 202.96484 C 340.13371 204.70376 339.05784 206.76338 338.20508 208.57227 C 337.91308 209.19242 334.84472 216.04435 330.57031 225.5957 C 326.29591 235.14705 320.71413 247.61943 315.08984 260.1875 C 303.84507 285.31516 292.59234 310.47254 290.74805 314.28125 L 290.73438 314.29688 C 287.76295 320.4672 285.25977 328.00977 285.25977 328.00977 A 3.3492921 3.3492921 0 0 1 282.08594 330.32227 L 281.08789 330.32227 A 3.3492921 3.3492921 0 0 1 278.29102 328.81055 C 278.29102 328.81055 275.64817 324.79178 268.50977 315.6582 C 266.61573 313.24145 254.50269 298.14273 240.53906 280.82422 C 240.85751 299.81424 241.16016 320.62183 241.16016 327.69141 C 241.16016 339.04937 241.27123 345.63319 240.58594 353.0918 C 240.11324 358.2399 238.27572 365.97188 233.10156 372.74609 C 227.92741 379.52031 219.1752 385.07731 206.2207 385.21875 C 195.29054 385.33896 187.65304 381.75664 182.96875 376.84375 C 178.28446 371.93086 176.55859 365.99857 176.55859 361.3457 C 176.55859 355.81849 178.2386 350.89478 181.34961 347.30078 C 184.46062 343.70678 189.02913 341.56171 194.0957 341.49609 C 203.60565 341.36403 209.587 348.97342 209.48633 356.37305 C 209.41136 362.61204 206.07338 367.09679 201.66992 368.98047 C 202.68022 369.43575 203.91211 370.03906 205.50977 370.03906 C 210.08874 370.03906 212.32939 369.12211 214.24805 365.95703 C 216.16671 362.79196 217.45697 356.58213 217.34766 346.5293 C 217.16993 330.41764 216.7597 300.46523 216.57617 272.55469 C 202.3781 290.90465 189.96725 307.84279 187.38281 311.0918 C 179.51077 320.98349 174.36523 328.81055 174.36523 328.81055 A 3.3492921 3.3492921 0 0 1 171.56836 330.32227 L 170.79688 330.32227 A 3.3492921 3.3492921 0 0 1 167.53125 327.72266 C 167.53125 327.72266 167.2472 326.3232 163.75195 318.63672 C 163.32907 317.70906 159.72666 310.23501 154.69727 299.88867 C 149.66787 289.54233 143.12559 276.11086 136.50781 262.5918 C 129.89003 249.07274 123.19298 235.46441 117.88281 224.75 C 112.57263 214.03559 108.50314 205.96529 107.61719 204.41602 A 3.3492921 3.3492921 0 0 1 107.60156 204.40039 C 106.97055 203.29041 106.14225 201.86412 105.33398 200.60547 C 104.52572 199.34682 103.60673 198.20102 103.45898 198.06641 C 103.37322 197.98823 101.64453 197.31055 101.64453 197.31055 A 3.3492921 3.3492921 0 0 1 100.4668 195.87305 z M 244.96875 203.49219 C 242.57138 203.49446 241.7843 203.50523 240.25195 203.50781 C 240.22026 207.1605 240.19978 210.79063 240.17773 214.36328 C 244.58012 208.90756 248.13257 204.55158 249.02148 203.49219 C 247.41157 203.4899 246.85111 203.49041 244.96875 203.49219 z M 207.61133 203.50781 C 208.714 204.88057 211.21762 207.87927 216.44141 214.10547 C 216.40365 210.37098 216.35496 206.86232 216.32031 203.50781 L 207.61133 203.50781 z " />
  </g>
</svg>
