<?xml version="1.0" encoding="UTF-8" standalone="no"?>
<svg
   width="512"
   height="512"
   viewBox="0 0 512 512"
   version="1.1"
   id="svg8"
   inkscape:version="1.2.2 (1:1.2.2+202212051550+b0a8486541)"
   sodipodi:docname="wiley.svg"
   xmlns:inkscape="http://www.inkscape.org/namespaces/inkscape"
   xmlns:sodipodi="http://sodipodi.sourceforge.net/DTD/sodipodi-0.dtd"
   xmlns="http://www.w3.org/2000/svg"
   xmlns:svg="http://www.w3.org/2000/svg"
   xmlns:rdf="http://www.w3.org/1999/02/22-rdf-syntax-ns#"
   xmlns:cc="http://creativecommons.org/ns#"
   xmlns:dc="http://purl.org/dc/elements/1.1/">
  <title
     id="title1099">Wiley</title>
  <defs
     id="defs2" />
  <sodipodi:namedview
     id="base"
     pagecolor="#ffffff"
     bordercolor="#666666"
     borderopacity="1.0"
     inkscape:pageopacity="0.0"
     inkscape:pageshadow="2"
     inkscape:zoom="1.0606602"
     inkscape:cx="361.56727"
     inkscape:cy="240.41631"
     inkscape:document-units="px"
     inkscape:current-layer="layer6"
     inkscape:document-rotation="0"
     showgrid="true"
     units="px"
     showguides="true"
     inkscape:guide-bbox="true"
     inkscape:window-width="2488"
     inkscape:window-height="1403"
     inkscape:window-x="1992"
     inkscape:window-y="0"
     inkscape:window-maximized="1"
     inkscape:showpageshadow="2"
     inkscape:pagecheckerboard="0"
     inkscape:deskcolor="#d1d1d1">
    <inkscape:grid
       type="xygrid"
       id="grid10"
       empspacing="4" />
    <sodipodi:guide
       inkscape:color="rgb(0,0,255)"
       inkscape:locked="false"
       inkscape:label="baseline"
       id="guide9"
       orientation="0,1"
       position="511.99998,64" />
  </sodipodi:namedview>
  <metadata
     id="metadata5">
    <rdf:RDF>
      <cc:Work
         rdf:about="">
        <dc:format>image/svg+xml</dc:format>
        <dc:type
           rdf:resource="http://purl.org/dc/dcmitype/StillImage" />
        <cc:license
           rdf:resource="http://scripts.sil.org/OFL" />
        <dc:subject>
          <rdf:Bag>
            <rdf:li>Wiley</rdf:li>
          </rdf:Bag>
        </dc:subject>
        <dc:title>Wiley</dc:title>
      </cc:Work>
      <cc:License
         rdf:about="http://scripts.sil.org/OFL">
        <cc:permits
           rdf:resource="http://scripts.sil.org/pub/OFL/Reproduction" />
        <cc:permits
           rdf:resource="http://scripts.sil.org/pub/OFL/Distribution" />
        <cc:permits
           rdf:resource="http://scripts.sil.org/pub/OFL/Embedding" />
        <cc:permits
           rdf:resource="http://scripts.sil.org/pub/OFL/DerivativeWorks" />
        <cc:requires
           rdf:resource="http://scripts.sil.org/pub/OFL/Notice" />
        <cc:requires
           rdf:resource="http://scripts.sil.org/pub/OFL/Attribution" />
        <cc:requires
           rdf:resource="http://scripts.sil.org/pub/OFL/ShareAlike" />
        <cc:requires
           rdf:resource="http://scripts.sil.org/pub/OFL/DerivativeRenaming" />
        <cc:requires
           rdf:resource="http://scripts.sil.org/pub/OFL/BundlingWhenSelling" />
      </cc:License>
    </rdf:RDF>
  </metadata>
  <g
     inkscape:groupmode="layer"
     id="layer6"
     inkscape:label="icon">
    <path
       id="path2-3"
       sodipodi:type="inkscape:offset"
       inkscape:radius="0.43264177"
       inkscape:original="M 25.033203 4.7636719 C 20.492208 4.7636719 15.144387 5.8976914 11.275391 9.8046875 C 8.0443935 13.065684 6.2382813 17.639414 6.2382812 24.941406 C 6.2382814 33.686398 8.874222 38.240628 12.449219 41.265625 C 15.828215 44.122622 20.304973 45.236328 24.917969 45.236328 C 29.655964 45.236328 33.691456 44.108873 36.814453 41.796875 C 41.159449 38.581878 43.761719 33.747663 43.761719 24.888672 C 43.761719 16.84168 41.274356 11.77095 37.693359 8.8769531 C 33.913363 5.8209562 29.588199 4.7636719 25.033203 4.7636719 z M 25.033203 6.0898438 C 31.303197 6.0898436 34.350987 7.124971 37.083984 9.4179688 C 40.397981 12.199966 42.15625 17.256117 42.15625 24.912109 C 42.15625 32.378102 40.822372 36.831425 37.484375 40.107422 C 34.372378 43.160419 30.780025 43.869141 24.957031 43.869141 C 18.673038 43.869141 15.061497 42.75581 12.0625 39.757812 C 8.6215034 36.316817 7.8320313 30.619104 7.8320312 24.912109 C 7.8320312 17.965116 9.0295811 13.553966 11.892578 10.417969 C 14.396576 7.6759712 17.97121 6.0898438 25.033203 6.0898438 z M 28.529297 9.3710938 C 28.140297 9.5760935 27.297671 9.6191406 26.388672 9.6191406 C 25.480673 9.6191406 22.526217 9.5644531 21.199219 9.5644531 C 19.87322 9.5644531 19.037968 9.8660635 18.417969 10.414062 C 17.828969 10.934062 17.205437 12.158375 17.148438 12.359375 L 17.314453 12.46875 C 17.530453 12.23775 18.027844 11.812 18.589844 11.625 C 19.260843 11.401 19.859313 11.335937 20.695312 11.335938 C 21.531312 11.335938 23.620235 11.394531 24.240234 11.394531 C 24.859234 11.394531 25.364314 11.351621 25.695312 11.265625 C 26.040312 11.175625 26.186078 11.119203 26.330078 11.033203 C 26.580078 10.884203 26.63364 11.063653 26.431641 11.222656 C 26.295641 11.329656 25.991313 11.60536 25.695312 11.943359 C 24.989314 12.750359 24.398436 13.686752 24.398438 15.71875 C 24.398438 16.00975 24.400344 16.359814 24.402344 16.757812 L 18.173828 16.757812 L 18.173828 16.847656 C 18.173828 16.847656 18.692141 17.202391 19.369141 18.025391 C 19.64614 18.36039 21.565627 20.665753 23.765625 23.34375 C 23.868625 23.46875 24.093266 23.6855 24.197266 23.8125 C 24.312266 23.8705 24.270088 23.955564 24.205078 23.976562 C 24.054078 24.167562 23.970484 24.22861 23.771484 24.474609 C 21.696486 27.059607 19.766609 29.573125 19.599609 29.828125 C 19.23961 30.375124 19.130203 30.522516 19.033203 30.728516 C 18.942203 30.920515 18.858781 31.034395 18.800781 30.775391 C 18.742781 30.515391 18.649828 30.059186 18.173828 28.992188 C 17.697829 27.926188 13.818578 19.956936 13.517578 19.335938 C 13.088579 18.456937 13.214611 17.864234 13.474609 17.490234 C 13.656609 17.227235 13.949282 17.058141 14.238281 16.994141 L 14.238281 16.755859 L 9.2792969 16.755859 L 9.2792969 16.994141 C 9.2792969 16.994141 9.5607502 17.051312 9.71875 17.195312 C 9.8987498 17.359313 10.173844 17.829094 10.339844 18.121094 C 10.916843 19.130093 17.327328 32.28911 17.611328 32.912109 C 18.068328 33.917108 18.126953 34.167969 18.126953 34.167969 L 18.226562 34.167969 C 18.226562 34.167969 18.902642 33.140655 19.931641 31.847656 C 20.24664 31.451657 21.955908 29.095654 24.003906 26.472656 C 24.152906 26.280656 24.313109 26.106578 24.412109 25.892578 C 24.468109 25.775578 24.539815 25.791644 24.507812 25.931641 C 24.485813 26.024641 24.470703 26.616984 24.470703 26.708984 C 24.492703 30.449981 24.548263 34.515408 24.572266 36.691406 C 24.601266 39.358404 23.966327 40.166016 22.611328 40.166016 C 22.236328 40.166016 21.862781 40.036765 21.675781 39.884766 C 21.472781 39.720766 21.376937 39.412781 21.835938 39.300781 C 22.286936 39.189781 22.684359 38.709937 22.693359 37.960938 C 22.703359 37.225938 22.150577 36.462564 21.142578 36.476562 C 20.061579 36.490563 19.304686 37.355376 19.304688 38.609375 C 19.304688 39.588374 20.062221 41.290719 22.699219 41.261719 C 25.813216 41.227719 26.600938 38.701905 26.710938 37.503906 C 26.796937 36.567907 26.783203 35.731717 26.783203 34.261719 C 26.783203 33.28272 26.745219 30.326076 26.699219 27.705078 C 26.697219 27.527078 26.697821 27.152844 26.675781 26.964844 C 26.632781 26.756844 26.705201 26.730062 26.783203 26.914062 C 26.884203 27.151062 27.067953 27.431906 27.126953 27.503906 C 29.185951 30.054904 30.810844 32.083453 31.089844 32.439453 C 32.020843 33.630452 32.375 34.167969 32.375 34.167969 L 32.503906 34.167969 C 32.503906 34.167969 32.829422 33.177796 33.232422 32.341797 C 33.651421 31.476798 39.145281 19.152453 39.363281 18.689453 C 39.594281 18.199454 39.935922 17.584953 40.169922 17.376953 C 40.342922 17.222953 40.563687 17.046187 40.804688 16.992188 L 40.804688 16.757812 L 36.089844 16.757812 L 36.089844 16.988281 C 36.089844 16.988281 36.651719 17.043861 37.011719 17.505859 C 37.372718 17.966859 37.470316 18.61361 37.070312 19.724609 C 36.623314 20.964608 33.575203 27.902189 33.033203 28.992188 C 32.747203 29.566187 32.544422 30.304141 32.482422 30.619141 C 32.456422 30.74714 32.379797 30.75914 32.341797 30.619141 C 32.290797 30.437141 31.645359 29.496156 31.318359 29.035156 C 31.00436 28.593157 29.016279 26.210013 26.988281 23.791016 C 26.876281 23.658016 26.725797 23.494187 26.591797 23.367188 C 26.498797 23.288187 26.497328 23.275498 26.611328 23.1875 C 26.791328 23.0185 26.850328 22.930812 26.986328 22.757812 C 29.009326 20.195816 30.637156 18.051234 30.785156 17.865234 C 31.193156 17.351235 31.549 16.966797 31.75 16.841797 L 31.75 16.755859 L 26.673828 16.755859 C 26.682828 15.279861 26.685078 14.032984 26.705078 13.583984 C 26.777078 11.941986 26.949782 11.249202 27.800781 10.283203 C 28.231781 9.7932037 28.619141 9.5449219 28.619141 9.5449219 C 28.554141 9.429922 28.529297 9.3710937 28.529297 9.3710938 z M 22.025391 17.769531 C 22.043611 17.765731 22.069312 17.766984 22.101562 17.771484 C 22.180563 17.782484 22.327063 17.782156 22.414062 17.785156 L 24.4375 17.785156 C 24.4425 18.518156 24.454937 19.159204 24.460938 20.033203 C 24.460938 20.350203 24.463338 20.55911 24.486328 20.787109 C 24.530328 21.016109 24.464391 20.982609 24.400391 20.849609 C 24.290391 20.62361 23.875359 20.089484 23.818359 20.021484 C 22.85336 18.873486 22.450844 18.384234 22.339844 18.240234 C 22.245844 18.116234 22.1325 17.970297 22.0625 17.904297 C 21.98075 17.829297 21.970731 17.780969 22.025391 17.769531 z M 29.101562 17.783203 C 29.220562 17.768203 29.242954 17.779603 29.126953 17.890625 C 29.050953 17.962625 28.84875 18.156688 28.71875 18.304688 C 28.69075 18.337688 28.036233 19.117438 27.115234 20.273438 C 26.960235 20.468436 26.843844 20.609844 26.714844 20.839844 C 26.635844 21.005844 26.576138 20.992724 26.619141 20.761719 C 26.641141 20.581719 26.648344 20.278203 26.652344 20.033203 C 26.653344 19.306204 26.665922 18.530156 26.669922 17.785156 C 26.669922 17.785156 28.709422 17.781156 28.857422 17.785156 C 28.932422 17.787156 29.057564 17.788203 29.101562 17.783203 z "
       d="m 25.033203,4.3300781 c -4.613024,0 -10.084654,1.151035 -14.064453,5.1699219 -3.3166172,3.347411 -5.1640624,8.068073 -5.1640625,15.441406 2e-7,8.831931 2.7068314,13.558726 6.3652345,16.654297 3.480537,2.942852 8.065416,4.074219 12.748047,4.074219 4.806629,0 8.94211,-1.147365 12.154297,-3.525391 4.445296,-3.289212 7.123046,-8.312144 7.123046,-17.255859 0,-8.136147 -2.533492,-13.35993 -6.230468,-16.3476564 C 34.097312,5.4142487 29.655148,4.3300781 25.033203,4.3300781 Z m 0,2.1933594 c 6.222377,-2e-7 9.112656,0.9941539 11.773438,3.2265625 1.744507,1.464459 3.007589,3.681374 3.835937,6.574219 h -4.552734 a 0.43268504,0.43268504 0 0 0 -0.433594,0.433593 v 0.230469 a 0.43268504,0.43268504 0 0 0 0.390625,0.429688 c 0,0 0.386859,0.05041 0.623047,0.353515 a 0.43268504,0.43268504 0 0 0 0.002,0.002 c 0.263235,0.336154 0.366465,0.765143 -0.0078,1.804687 -0.408796,1.134024 -3.513512,8.206993 -4.017578,9.220703 -0.171839,0.34488 -0.218876,0.615506 -0.320312,0.945313 -0.01184,-0.01803 -0.01918,-0.03252 -0.03125,-0.05078 -0.212625,-0.321696 -0.456895,-0.673963 -0.623047,-0.908203 -0.194056,-0.273162 -0.752107,-0.951521 -1.542969,-1.90625 -0.790862,-0.954728 -1.794373,-2.155471 -2.808594,-3.365234 a 0.43268504,0.43268504 0 0 0 -0.002,-0.002 c -0.06151,-0.07305 -0.143031,-0.151255 -0.216797,-0.230469 0.06976,-0.08145 0.154962,-0.167263 0.22461,-0.255859 1.012908,-1.282783 1.926465,-2.459329 2.605469,-3.339844 0.679003,-0.880516 1.140644,-1.486986 1.191406,-1.550781 0.397152,-0.500333 0.797823,-0.889932 0.855469,-0.925782 a 0.43268504,0.43268504 0 0 0 0.205078,-0.367187 v -0.08594 A 0.43268504,0.43268504 0 0 0 31.75,16.322266 h -4.638672 c 0.0068,-1.211797 0.0095,-2.361166 0.02539,-2.71875 0.07091,-1.61707 0.185912,-2.124359 0.988281,-3.035157 0.393964,-0.447893 0.728516,-0.6601559 0.728516,-0.6601559 A 0.43268504,0.43268504 0 0 0 28.996094,9.3320312 C 28.938957,9.2309428 28.927734,9.203125 28.927734,9.203125 A 0.43268504,0.43268504 0 0 0 28.328125,8.9882812 c -0.09157,0.048255 -0.368267,0.1183356 -0.716797,0.1523438 -0.34853,0.034008 -0.774986,0.044922 -1.222656,0.044922 -0.890628,0 -3.850569,-0.054687 -5.189453,-0.054687 -1.391605,0 -2.362914,0.3354621 -3.06836,0.9589846 -0.364005,0.321363 -0.669591,0.779445 -0.917968,1.195312 -0.124189,0.207934 -0.231695,0.403033 -0.3125,0.564453 -0.08081,0.16142 -0.128686,0.254052 -0.167969,0.392579 a 0.43268504,0.43268504 0 0 0 0.177734,0.478515 l 0.166016,0.109375 a 0.43268504,0.43268504 0 0 0 0.554687,-0.06641 c 0.170827,-0.182689 0.647803,-0.579481 1.095703,-0.728516 0.621576,-0.207501 1.155199,-0.265626 1.96875,-0.265625 0.815785,0 2.897666,0.05859 3.544922,0.05859 0.44352,0 0.75594,-0.05339 1.085938,-0.09961 -0.716582,0.834711 -1.36133,1.921859 -1.361328,3.990234 0,0.170348 0.001,0.398168 0.002,0.605469 h -5.792969 a 0.43268504,0.43268504 0 0 0 -0.433594,0.433593 v 0.08984 a 0.43268504,0.43268504 0 0 0 0.189454,0.357422 c 0,0 0.458545,0.309267 1.105468,1.095703 0.281321,0.340226 2.197532,2.641635 4.396485,5.31836 0.0875,0.106187 0.170867,0.188558 0.263671,0.285156 -0.0739,0.08011 -0.130218,0.138685 -0.259765,0.298828 a 0.43268504,0.43268504 0 0 0 -0.002,0 c -1.039363,1.294821 -2.040554,2.571438 -2.804688,3.556641 -0.382067,0.492601 -0.705227,0.912958 -0.943359,1.226562 -0.238132,0.313604 -0.374749,0.49474 -0.447266,0.605469 -0.152182,0.231203 -0.171302,0.277015 -0.255859,0.40625 -0.08854,-0.310842 -0.106115,-0.491348 -0.414063,-1.181641 -0.252751,-0.566036 -1.331266,-2.804141 -2.398437,-5.007812 -1.067172,-2.203671 -2.114527,-4.354407 -2.263672,-4.66211 -0.380727,-0.780093 -0.25129,-1.158253 -0.07617,-1.410156 0.107876,-0.155885 0.309816,-0.277763 0.501953,-0.320312 a 0.43268504,0.43268504 0 0 0 0.339844,-0.421875 V 16.755859 A 0.43268504,0.43268504 0 0 0 14.238281,16.322266 H 9.2792969 a 0.43268504,0.43268504 0 0 0 -0.087891,0.08789 C 9.8319997,14.07971 10.820439,12.234213 12.212891,10.708984 14.634653,8.0570385 18.035991,6.5234375 25.033203,6.5234375 Z M 9.0410156,17.232422 a 0.43268504,0.43268504 0 0 0 0.1523438,0.185547 c 0,0 0.2232947,0.08756 0.234375,0.09766 0.019087,0.01739 0.1377702,0.165524 0.2421875,0.328125 0.1044173,0.162601 0.2114494,0.346839 0.2929687,0.490234 a 0.43268504,0.43268504 0 0 0 0.00195,0.002 c 0.1144542,0.200146 0.6401652,1.242789 1.3261722,2.626953 0.686006,1.384164 1.551317,3.142183 2.40625,4.888671 0.854932,1.746489 1.699876,3.481746 2.349609,4.81836 0.649733,1.336614 1.115291,2.302034 1.169922,2.421875 0.451541,0.992995 0.488281,1.173828 0.488281,1.173828 a 0.43268504,0.43268504 0 0 0 0.421875,0.335937 h 0.09961 a 0.43268504,0.43268504 0 0 0 0.361329,-0.195312 c 0,0 0.664673,-1.011183 1.68164,-2.289062 0.333876,-0.41973 1.937277,-2.607937 3.771485,-4.978516 0.02371,3.605683 0.07665,7.475221 0.09961,9.55664 0.01412,1.298697 -0.152524,2.100879 -0.400391,2.509766 -0.247866,0.408887 -0.537361,0.527344 -1.128906,0.527344 -0.206397,0 -0.365577,-0.0779 -0.496094,-0.136719 0.56887,-0.243347 1.000081,-0.822908 1.009766,-1.628906 0.01301,-0.955937 -0.759718,-1.938936 -1.988281,-1.921875 -0.654536,0.0085 -1.244582,0.285701 -1.646485,0.75 -0.401903,0.464299 -0.619141,1.100408 -0.61914,1.814453 0,0.60109 0.222975,1.367271 0.828125,2.001953 0.60515,0.634682 1.591869,1.09756 3.003906,1.082031 1.673554,-0.01827 2.804222,-0.736186 3.472656,-1.611328 0.668434,-0.875141 0.905731,-1.873993 0.966797,-2.539062 0.08853,-0.963556 0.07422,-1.813947 0.07422,-3.28125 0,-0.913298 -0.03894,-3.601421 -0.08008,-6.054688 1.803921,2.237329 3.368596,4.187786 3.613281,4.5 0.92219,1.179941 1.263672,1.699219 1.263672,1.699219 A 0.43268504,0.43268504 0 0 0 32.375,34.601562 h 0.128906 a 0.43268504,0.43268504 0 0 0 0.410156,-0.298828 c 0,0 0.323162,-0.974357 0.707032,-1.771484 l 0.002,-0.002 c 0.238259,-0.492037 1.691851,-3.742111 3.144531,-6.988281 0.726585,-1.623633 1.447802,-3.234839 2,-4.46875 0.552199,-1.233912 0.948606,-2.119103 0.986328,-2.199219 0.110166,-0.233685 0.248948,-0.499964 0.382813,-0.724609 0.133864,-0.224646 0.283291,-0.414359 0.320312,-0.447266 a 0.43268504,0.43268504 0 0 0 0,-0.002 c 0.155827,-0.138713 0.330862,-0.253323 0.431641,-0.279297 0.500622,2.154408 0.833984,4.565456 0.833984,7.492187 0,7.414463 -1.301787,11.707656 -4.541015,14.886719 -3.017076,2.959876 -6.436721,3.636719 -12.22461,3.636719 -6.232892,0 -9.673841,-1.071297 -12.58789,-3.984375 -3.2955401,-3.295538 -4.1035159,-8.871967 -4.103516,-14.539063 0,-3.058286 0.2758614,-5.532572 0.7753906,-7.679687 z m 18.6679684,0.984375 c 0.243177,-2.3e-4 0.315458,-2.96e-4 0.523438,0 -0.114836,0.13686 -0.573847,0.699488 -1.142578,1.404297 0.0028,-0.461541 0.0057,-0.930464 0.0098,-1.402344 0.19796,-3.34e-4 0.299666,-0.0017 0.609375,-0.002 z m -4.826172,0.002 h 1.125 c 0.0045,0.433359 0.01075,0.886693 0.01563,1.369141 -0.674846,-0.804345 -0.998175,-1.191799 -1.140626,-1.369141 z m 1.921876,7.855469 c -6.52e-4,0.002 -0.01237,0.01758 -0.01758,0.02344 0.0051,-0.01042 0.01264,-0.01277 0.01758,-0.02344 z"
       style="clip-rule:evenodd;fill-rule:evenodd;stroke-width:0.882842;stroke-linejoin:round;stroke-miterlimit:1.41421"
       transform="matrix(11.99811,0,0,11.99811,-43.952747,-43.952751)" />
  </g>
</svg>
