<?xml version="1.0" encoding="UTF-8" standalone="no"?>
<svg
   xmlns:dc="http://purl.org/dc/elements/1.1/"
   xmlns:cc="http://creativecommons.org/ns#"
   xmlns:rdf="http://www.w3.org/1999/02/22-rdf-syntax-ns#"
   xmlns:svg="http://www.w3.org/2000/svg"
   xmlns="http://www.w3.org/2000/svg"
   xmlns:sodipodi="http://sodipodi.sourceforge.net/DTD/sodipodi-0.dtd"
   xmlns:inkscape="http://www.inkscape.org/namespaces/inkscape"
   width="640"
   height="512"
   viewBox="0 0 640 512"
   version="1.1"
   id="svg8"
   inkscape:version="1.0 (1.0+r73+1)"
   sodipodi:docname="zenodo.svg">
  <title
     id="title887">Zenodo</title>
  <defs
     id="defs2" />
  <sodipodi:namedview
     scale-x="1"
     id="base"
     pagecolor="#ffffff"
     bordercolor="#666666"
     borderopacity="1.0"
     inkscape:pageopacity="0.0"
     inkscape:pageshadow="2"
     inkscape:zoom="0.75"
     inkscape:cx="299.33333"
     inkscape:cy="256"
     inkscape:document-units="px"
     inkscape:current-layer="layer6"
     inkscape:document-rotation="0"
     showgrid="true"
     units="px"
     showguides="true"
     inkscape:guide-bbox="true"
     inkscape:window-width="1315"
     inkscape:window-height="713"
     inkscape:window-x="51"
     inkscape:window-y="27"
     inkscape:window-maximized="1">
    <inkscape:grid
       type="xygrid"
       id="grid10"
       empspacing="4" />
    <sodipodi:guide
       inkscape:color="rgb(0,0,255)"
       inkscape:locked="true"
       inkscape:label="baseline"
       id="guide833"
       orientation="0,1"
       position="640,64" />
  </sodipodi:namedview>
  <metadata
     id="metadata5">
    <rdf:RDF>
      <cc:Work
         rdf:about="">
        <dc:format>image/svg+xml</dc:format>
        <dc:type
           rdf:resource="http://purl.org/dc/dcmitype/StillImage" />
        <dc:title>Zenodo</dc:title>
        <cc:license
           rdf:resource="http://scripts.sil.org/OFL" />
        <dc:subject>
          <rdf:Bag>
            <rdf:li>Zenodo</rdf:li>
          </rdf:Bag>
        </dc:subject>
      </cc:Work>
      <cc:License
         rdf:about="http://scripts.sil.org/OFL">
        <cc:permits
           rdf:resource="http://scripts.sil.org/pub/OFL/Reproduction" />
        <cc:permits
           rdf:resource="http://scripts.sil.org/pub/OFL/Distribution" />
        <cc:permits
           rdf:resource="http://scripts.sil.org/pub/OFL/Embedding" />
        <cc:permits
           rdf:resource="http://scripts.sil.org/pub/OFL/DerivativeWorks" />
        <cc:requires
           rdf:resource="http://scripts.sil.org/pub/OFL/Notice" />
        <cc:requires
           rdf:resource="http://scripts.sil.org/pub/OFL/Attribution" />
        <cc:requires
           rdf:resource="http://scripts.sil.org/pub/OFL/ShareAlike" />
        <cc:requires
           rdf:resource="http://scripts.sil.org/pub/OFL/DerivativeRenaming" />
        <cc:requires
           rdf:resource="http://scripts.sil.org/pub/OFL/BundlingWhenSelling" />
      </cc:License>
    </rdf:RDF>
  </metadata>
  <g
     inkscape:groupmode="layer"
     id="layer6"
     inkscape:label="icon">
    <path
       d="M 0,139.63636 V 372.36364 H 640 V 139.63636 Z m 452.42612,29.09093 c 2.12073,0 3.9991,0.77883 5.61365,2.33521 1.632,1.55344 2.4432,3.45848 2.4432,5.71593 v 34.56817 c -2.83055,4.00291 -3.52847,11.13221 -3.64774,15.91476 0.864,-2.81308 2.83028,-6.89503 3.64774,-8.22158 0.66327,-1.07928 1.83034,-2.85804 2.88634,-4.1875 0.94254,-1.18982 1.96009,-2.32705 3.05681,-3.40339 1.77455,-1.73674 3.68233,-3.28906 5.7216,-4.65342 2.02473,-1.35273 4.18214,-2.51952 6.4716,-3.50569 4.58181,-1.97235 9.57285,-2.97161 14.94885,-2.97161 5.22182,0 10.18043,0.99926 14.84661,2.97161 4.66618,1.97818 8.72291,4.706 12.18182,8.15911 3.46181,3.47053 6.22749,7.52713 8.2784,12.18748 2.03927,4.66618 3.06792,9.61908 3.07956,14.84091 v 31.5966 c -3e-5,5.23053 -0.99357,10.17459 -2.96593,14.84659 -1.984,4.65455 -4.74982,8.72568 -8.27273,12.1875 -3.54037,3.46182 -7.62927,6.17521 -12.29545,8.15339 -4.66618,1.98983 -9.61908,2.97161 -14.8409,2.97161 -5.23346,0 -10.17472,-0.98178 -14.8409,-2.97161 -4.66909,-1.97818 -8.73429,-4.69449 -12.1932,-8.15339 -3.46181,-3.46182 -6.22196,-7.53003 -8.26705,-12.1875 -0.15127,-0.34908 -0.28364,-0.69914 -0.42612,-1.05114 -0.13964,0.352 -0.27782,0.70206 -0.42616,1.05114 -2.05672,4.65455 -4.81934,8.72568 -8.28407,12.1875 -3.46182,3.46182 -7.51593,6.17521 -12.17047,8.15339 -4.66909,1.98983 -9.63043,2.97161 -14.85225,2.97161 -5.37018,0 -10.36998,-0.98178 -14.94889,-2.97161 -4.60218,-1.97818 -8.65876,-4.69449 -12.18749,-8.15339 -3.54036,-3.46182 -6.29469,-7.53003 -8.26705,-12.1875 -0.11346,-0.27636 -0.21615,-0.55594 -0.32954,-0.83523 -0.10182,0.27929 -0.2048,0.55888 -0.3125,0.83523 -1.97818,4.65455 -4.74982,8.72568 -8.27273,12.1875 -3.54036,3.46182 -7.63508,6.17521 -12.29544,8.15339 -4.66618,1.98983 -9.61909,2.97161 -14.8409,2.97161 -5.23346,0 -10.18057,-0.98178 -14.84093,-2.97161 -4.6691,-1.97818 -8.73426,-4.69449 -12.19317,-8.15339 -2.37673,-2.37673 -4.39741,-5.06182 -6.10795,-8 v 11.06248 c 0,2.26619 -0.81743,4.17964 -2.42616,5.72728 -1.63782,1.56218 -3.50426,2.33524 -5.62499,2.33524 -2.26909,0 -4.18228,-0.77306 -5.73864,-2.33524 -1.55055,-1.54764 -2.32384,-3.46401 -2.32384,-5.72728 v -61.69318 c 0,-2.95564 -0.60829,-5.7894 -1.80684,-8.4716 -1.21018,-2.68509 -2.78871,-5.06563 -4.77271,-7.11363 -1.96946,-2.04509 -4.34752,-3.62944 -7.09661,-4.77271 -2.74909,-1.12872 -5.62057,-1.68751 -8.5966,-1.68751 -3.08945,0 -5.99988,0.55879 -8.67043,1.68751 -2.69673,1.14037 -5.06883,2.72762 -7.10228,4.77271 -2.06255,2.048 -3.65245,4.43145 -4.78409,7.11363 -1.13745,2.6822 -1.69318,5.51888 -1.69318,8.4716 v 24.39205 h -16.11366 -3.81248 -51.53411 v 7.20454 c 0,2.976 0.60274,5.79497 1.79547,8.48298 1.20436,2.68509 2.78874,5.05717 4.77274,7.10225 1.98109,2.05092 4.35913,3.63821 7.09658,4.77274 2.76655,1.12873 5.6206,1.68182 8.5966,1.68182 4.52363,0 8.58036,-1.15265 12.18181,-3.48865 3.616,-2.33018 6.34051,-5.46659 8.17612,-9.4375 l 1.3182,-2.71022 c 0.54982,-1.54474 1.50536,-2.78525 2.85227,-3.70455 1.32946,-0.92507 2.86956,-1.37499 4.5568,-1.37499 h 20.10796 c 0,0 -0.0291,0.034 -0.0291,0.0399 h 0.0291 v 28.73862 c 0,2.26619 -0.8055,4.17397 -2.4375,5.72161 -1.632,1.56218 -3.48998,2.33524 -5.61361,2.33524 -2.26328,0 -4.17688,-0.77306 -5.7216,-2.33524 -1.57382,-1.54764 -2.34092,-3.45834 -2.34092,-5.72161 v -11.06815 c -2.88582,5.09091 -6.85667,9.34594 -11.88067,12.76703 -6.21673,4.25018 -13.27741,6.35797 -21.19886,6.35797 -5.24509,0 -10.17752,-0.97609 -14.84661,-2.96594 -3.32218,-1.40799 -6.32849,-3.21352 -9.03976,-5.37497 -0.31128,4.25018 -3.8531,7.60226 -8.18182,7.60226 h -61.22726 c -4.53236,0 -8.21024,-3.67787 -8.21024,-8.21024 v -5.35794 c 0,-1.75999 0.56622,-3.47531 1.61932,-4.89204 l 53.03409,-71.40341 h -45.21024 c -4.52655,0 -8.20454,-3.66929 -8.20454,-8.20456 0,-4.52946 3.67509,-8.2102 8.20454,-8.2102 h 57.52841 c 4.53236,0 8.20456,3.68074 8.20456,8.2102 v 1.2841 c 3.33382,-3.09527 7.10735,-5.59922 11.37499,-7.42612 4.576,-1.97236 9.56136,-2.96594 14.94318,-2.96594 5.22182,0 10.17751,0.99357 14.84661,2.96594 4.66036,1.97818 8.71444,4.70597 12.17044,8.15906 3.46764,3.47055 6.22737,7.52716 8.2841,12.18752 0.13673,0.30837 0.25571,0.62345 0.38068,0.93182 0.1251,-0.30837 0.23855,-0.62345 0.36364,-0.93182 1.984,-4.66036 4.73778,-8.71406 8.28978,-12.18752 3.51709,-3.45309 7.58557,-6.18379 12.17611,-8.15906 4.59637,-1.97237 9.58464,-2.96594 14.94319,-2.96594 5.24509,0 10.18042,0.99357 14.8466,2.96594 4.66909,1.97818 8.73414,4.70597 12.19887,8.15906 3.46181,3.47055 6.22208,7.52716 8.26135,12.18752 0.14254,0.33455 0.27229,0.67404 0.4091,1.00568 0.13091,-0.33164 0.25513,-0.67113 0.39771,-1.00568 1.97236,-4.66036 4.73832,-8.71406 8.26705,-12.18752 3.52582,-3.45309 7.58519,-6.18379 12.19319,-8.15906 4.58182,-1.97237 9.57286,-2.96594 14.94886,-2.96594 5.22182,0 10.18042,0.99357 14.84658,2.96594 4.66036,1.97818 8.72293,4.70597 12.18181,8.15906 3.46182,3.47055 6.22752,7.52716 8.27843,12.18752 0.15128,0.3491 0.28946,0.70758 0.42613,1.06249 0.14545,-0.35491 0.28334,-0.71339 0.43749,-1.06249 2.02764,-4.66036 4.79983,-8.71406 8.25001,-12.18752 3.47637,-3.45309 7.53545,-6.18379 12.20454,-8.15906 4.66618,-1.97237 9.60177,-2.96594 14.83523,-2.96594 4.096,0 8.02886,0.63506 11.76704,1.90342 3.73236,1.27418 7.23918,3.04355 10.48864,5.30682 v -30.74998 c 0,-2.25747 0.78481,-4.16247 2.32954,-5.71594 1.568,-1.55635 3.46691,-2.33522 5.72727,-2.33522 z m -244.73861,47.70453 c -3.11273,0 -6.0167,0.5588 -8.69888,1.68752 -2.68219,1.14036 -5.06328,2.72762 -7.09091,4.77271 -2.06255,2.048 -3.64664,4.43145 -4.78409,7.11363 -1.13745,2.68219 -1.68751,5.51887 -1.68751,8.47159 v 8.26138 h 44.51139 v -8.26138 c 0,-2.95564 -0.59109,-5.7894 -1.79546,-8.4716 -1.21018,-2.68509 -2.78874,-5.06563 -4.77274,-7.11363 -1.96945,-2.04509 -4.34153,-3.62944 -7.10225,-4.77271 -2.75491,-1.12872 -5.61228,-1.68751 -8.57955,-1.68751 z m 142.97157,0 c -3.11272,0 -6.01099,0.56446 -8.69317,1.69319 -2.67928,1.14036 -5.06301,2.72762 -7.10226,4.7727 -2.05091,2.048 -3.64125,4.42579 -4.76707,7.10797 -1.13745,2.68219 -1.69318,5.51887 -1.69318,8.47159 v 31.5966 c 0,2.976 0.59692,5.79787 1.79547,8.48298 1.19854,2.68508 2.78871,5.05716 4.77271,7.10225 1.98109,2.05091 4.34752,3.6382 7.09661,4.77274 2.76655,1.12872 5.61489,1.68181 8.59089,1.68181 3.09528,0 6.00547,-0.55308 8.68184,-1.68181 2.68218,-1.13454 5.06272,-2.72183 7.11363,-4.77274 2.03927,-2.04509 3.62973,-4.41425 4.76136,-7.10225 1.14328,-2.688 1.69318,-5.50698 1.69318,-8.48298 v -31.5966 c 0,-2.95564 -0.59692,-5.7894 -1.79546,-8.4716 -1.216,-2.68509 -2.79453,-5.05996 -4.77271,-7.10796 -1.97528,-2.04509 -4.34141,-3.62943 -7.10796,-4.77271 -2.74327,-1.12873 -5.61242,-1.69318 -8.57388,-1.69318 z m 71.45455,0 c -2.97018,0 -5.83005,0.56446 -8.5966,1.69319 -2.74327,1.14036 -5.11258,2.72762 -7.09658,4.7727 -1.97818,2.048 -3.56253,4.42579 -4.77271,7.10797 -1.18691,2.68219 -1.80114,5.51887 -1.80114,8.47159 v 31.5966 c 0,2.976 0.5614,5.79787 1.69885,8.48298 1.13746,2.68508 2.72736,5.05716 4.78409,7.10225 2.03346,2.05091 4.40291,3.6382 7.09091,4.77274 2.68218,1.12872 5.58045,1.68181 8.69318,1.68181 2.96436,0 5.83628,-0.55308 8.57955,-1.68181 2.76654,-1.13454 5.12977,-2.72183 7.10795,-4.77274 1.97819,-2.04509 3.5742,-4.41425 4.77275,-7.10225 1.20436,-2.688 1.79543,-5.50698 1.79543,-8.48298 v -31.5966 c 0,-2.95564 -0.55584,-5.7894 -1.68748,-8.4716 -1.13163,-2.68509 -2.72765,-5.05996 -4.77274,-7.10796 -2.05091,-2.04509 -4.41414,-3.62943 -7.10796,-4.77271 -2.688,-1.12873 -5.58059,-1.69318 -8.6875,-1.69318 z m 71.45454,0 c -3.11272,0 -6.00517,0.56446 -8.69317,1.69319 -2.68509,1.14036 -5.05717,2.72762 -7.10226,4.7727 -2.05091,2.048 -3.64125,4.42579 -4.76707,7.10797 -1.13745,2.68219 -1.69885,5.51887 -1.69885,8.47159 v 31.5966 c 0,2.976 0.59968,5.79787 1.80114,8.48298 1.20145,2.68508 2.79441,5.05716 4.77841,7.10225 1.97818,2.05091 4.34764,3.6382 7.09091,4.77274 2.76655,1.12872 5.62641,1.68181 8.5966,1.68181 3.10109,0 6.00529,-0.55308 8.68747,-1.68181 2.67637,-1.13454 5.05705,-2.72183 7.10796,-4.77274 2.04218,-2.04509 3.62947,-4.41425 4.77274,-7.10225 1.12582,-2.688 1.68751,-5.50698 1.68751,-8.48298 h -0.006 v -31.5966 c 0,-2.95564 -0.59689,-5.7894 -1.79543,-8.4716 -1.216,-2.68509 -2.79442,-5.05996 -4.77842,-7.10796 -1.96945,-2.04509 -4.34156,-3.62943 -7.10228,-4.77271 -2.74909,-1.12873 -5.61228,-1.69318 -8.57955,-1.69318 z m -323.90338,16.83524 -42.92614,57.81249 h 48.88067 c 0.0465,0 0.0899,0.006 0.13643,0.006 -1.27127,-1.92291 -2.40945,-3.97714 -3.36363,-6.16476 -2.06255,-4.67201 -3.07954,-9.61312 -3.07954,-14.84659 v -31.59692 c 0,-1.76583 0.12538,-3.50258 0.35226,-5.21022 z"
       style="stroke:none;stroke-width:0.0750001;stop-color:#000000"
       id="rect846" />
  </g>
</svg>
