<?xml version="1.0" encoding="UTF-8" standalone="no"?>
<svg
   width="512"
   height="512"
   viewBox="0 0 512 512"
   version="1.1"
   id="svg8"
   inkscape:version="1.1.2 (0a00cf5339, 2022-02-04)"
   sodipodi:docname="zenodo.svg"
   xmlns:inkscape="http://www.inkscape.org/namespaces/inkscape"
   xmlns:sodipodi="http://sodipodi.sourceforge.net/DTD/sodipodi-0.dtd"
   xmlns="http://www.w3.org/2000/svg"
   xmlns:svg="http://www.w3.org/2000/svg"
   xmlns:rdf="http://www.w3.org/1999/02/22-rdf-syntax-ns#"
   xmlns:cc="http://creativecommons.org/ns#"
   xmlns:dc="http://purl.org/dc/elements/1.1/">
  <title
     id="title887">Zenodo</title>
  <defs
     id="defs2" />
  <sodipodi:namedview
     scale-x="1"
     id="base"
     pagecolor="#ffffff"
     bordercolor="#666666"
     borderopacity="1.0"
     inkscape:pageopacity="0.0"
     inkscape:pageshadow="2"
     inkscape:zoom="0.75"
     inkscape:cx="299.33333"
     inkscape:cy="255.33333"
     inkscape:document-units="px"
     inkscape:current-layer="layer6"
     inkscape:document-rotation="0"
     showgrid="true"
     units="px"
     showguides="true"
     inkscape:guide-bbox="true"
     inkscape:window-width="1850"
     inkscape:window-height="1016"
     inkscape:window-x="70"
     inkscape:window-y="27"
     inkscape:window-maximized="1"
     inkscape:pagecheckerboard="0">
    <inkscape:grid
       type="xygrid"
       id="grid10"
       empspacing="4" />
    <sodipodi:guide
       inkscape:color="rgb(0,0,255)"
       inkscape:locked="true"
       inkscape:label="baseline"
       id="guide833"
       orientation="0,1"
       position="512,64" />
  </sodipodi:namedview>
  <metadata
     id="metadata5">
    <rdf:RDF>
      <cc:Work
         rdf:about="">
        <dc:format>image/svg+xml</dc:format>
        <dc:type
           rdf:resource="http://purl.org/dc/dcmitype/StillImage" />
        <dc:title>Zenodo</dc:title>
        <cc:license
           rdf:resource="http://scripts.sil.org/OFL" />
        <dc:subject>
          <rdf:Bag>
            <rdf:li>Zenodo</rdf:li>
          </rdf:Bag>
        </dc:subject>
      </cc:Work>
      <cc:License
         rdf:about="http://scripts.sil.org/OFL">
        <cc:permits
           rdf:resource="http://scripts.sil.org/pub/OFL/Reproduction" />
        <cc:permits
           rdf:resource="http://scripts.sil.org/pub/OFL/Distribution" />
        <cc:permits
           rdf:resource="http://scripts.sil.org/pub/OFL/Embedding" />
        <cc:permits
           rdf:resource="http://scripts.sil.org/pub/OFL/DerivativeWorks" />
        <cc:requires
           rdf:resource="http://scripts.sil.org/pub/OFL/Notice" />
        <cc:requires
           rdf:resource="http://scripts.sil.org/pub/OFL/Attribution" />
        <cc:requires
           rdf:resource="http://scripts.sil.org/pub/OFL/ShareAlike" />
        <cc:requires
           rdf:resource="http://scripts.sil.org/pub/OFL/DerivativeRenaming" />
        <cc:requires
           rdf:resource="http://scripts.sil.org/pub/OFL/BundlingWhenSelling" />
      </cc:License>
    </rdf:RDF>
  </metadata>
  <g
     inkscape:groupmode="layer"
     id="layer6"
     inkscape:label="icon">
    <path
       fill="#000000"
       d="m 495.20221,150.47482 c -0.44429,-1.09518 -0.86789,-2.21101 -1.35349,-3.3062 -7.30467,-16.55175 -17.10967,-30.96481 -29.42534,-43.2908 -12.27433,-12.263985 -26.67705,-21.955355 -43.22879,-28.981055 -16.58275,-7.00506 -34.18836,-10.53858 -52.73418,-10.53858 -19.11407,0 -36.823,3.53352 -53.07514,10.53858 -15.15694,6.48844 -28.55743,15.37391 -40.39784,26.367095 v -4.556395 c 0,-16.08681 -13.0389,-29.1567 -29.13605,-29.1567 H 41.537465 c -16.08683,0 -29.136062,13.06989 -29.136062,29.1567 0,16.107485 13.059569,29.136045 29.136062,29.136045 H 202.10598 L 13.754899,379.45109 c -3.740154,5.03165 -5.7549,11.12749 -5.7549,17.3783 v 19.02109 c 0,16.09715 13.059569,29.1567 29.156722,29.1567 H 254.61286 c 15.37392,0 27.94787,-11.9127 29.05338,-27.00766 9.62938,7.67662 20.32292,14.09274 32.12199,19.0934 16.58274,7.06704 34.08505,10.54889 52.71351,10.54889 28.13383,0 53.20945,-7.50098 75.28879,-22.59593 17.84324,-12.15035 31.94633,-27.26596 42.19559,-45.34683 8.60443,-15.20959 14.65363,-27.20763 12.62447,-38.52966 -1.78745,-9.97359 -7.1798,-20.11027 -24.04101,-24.57303 -5.9925,0 -14.21698,1.80334 -18.93868,5.08888 -4.78368,3.26491 -8.19321,7.68697 -10.14594,13.17323 l -4.68037,9.6087 c -6.51946,14.10309 -16.1798,25.2409 -29.0224,33.51677 -12.79093,8.29654 -27.20395,12.40864 -43.27012,12.40864 -10.56955,0 -20.7052,-1.97339 -30.53086,-5.98217 -9.72233,-4.02945 -18.16352,-9.66037 -25.19957,-16.94437 -7.04639,-7.26333 -12.67728,-15.70453 -16.95471,-25.2409 -4.23608,-9.54672 -6.37479,-19.55834 -6.37479,-30.12791 V 286.51537 H 472.4823 c 0,0 15.68153,-1.59794 22.55847,-7.96253 9.90311,-9.1653 8.93321,-22.21758 8.93321,-22.21758 0,0 -0.44985,-52.35019 -3.49607,-78.29697 -1.09077,-9.29078 -5.2757,-27.56347 -5.2757,-27.56347 z M 80.98477,386.72474 233.4634,181.38796 c -0.80588,6.06485 -1.25017,12.23301 -1.25017,18.50448 v 112.20479 c 0,18.58714 3.61618,36.1411 10.94152,52.73416 3.38889,7.76961 7.42867,15.06396 11.94372,21.89335 -0.16536,0 -0.32028,-0.0116 -0.48561,-0.0116 H 80.98477 Z m 366.5459,-157.4896 H 289.44181 v -29.35302 c 0,-10.48691 1.95273,-20.56054 5.99252,-30.08659 4.03978,-9.52603 9.67068,-17.97755 16.99602,-25.25123 7.20135,-7.26335 15.66321,-12.90458 25.18925,-16.95469 9.52604,-4.0088 19.83729,-6.00287 30.89247,-6.00287 10.53857,0 20.68453,1.99407 30.46887,6.00287 9.805,4.06043 18.22553,9.69134 25.22024,16.95469 7.04637,7.27368 12.65661,15.71486 16.95469,25.25123 4.27743,9.52605 6.3748,19.58936 6.3748,30.08659 z"
       class="colorfff svgShape"
       id="path912"
       style="fill:currentColor;stroke-width:5.64197" />
  </g>
</svg>
