<?xml version="1.0" encoding="utf-8"?>
<!-- Generator: Adobe Illustrator 16.0.0, SVG Export Plug-In . SVG Version: 6.00 Build 0)  -->
<!DOCTYPE svg PUBLIC "-//W3C//DTD SVG 1.1//EN" "http://www.w3.org/Graphics/SVG/1.1/DTD/svg11.dtd" [
	<!ENTITY st0 "fill-rule:evenodd;clip-rule:evenodd;fill:#444444;">
	<!ENTITY st1 "fill:#FFFFFF;">
	<!ENTITY st2 "fill:#444444;">
]>
<svg version="1.1" id="Layer_1" xmlns="http://www.w3.org/2000/svg" xmlns:xlink="http://www.w3.org/1999/xlink" x="0px" y="0px"
	 width="28px" height="28px" viewBox="0 0 28 28" style="enable-background:new 0 0 28 28;" xml:space="preserve">
<g>
	<g>
		<path style="&st2;" d="M22.68,3.32C21.8,2.439,20.74,2,19.5,2h-15C3.26,2,2.201,2.439,1.32,3.32C0.439,4.199,0,5.26,0,6.5v15
			c0,1.24,0.439,2.301,1.32,3.182C2.201,25.559,3.262,26,4.5,26h15c1.24,0,2.3-0.441,3.18-1.32c0.881-0.881,1.321-1.939,1.321-3.18
			v-15C24.001,5.26,23.561,4.199,22.68,3.32z M18.168,8.276l-9.54,11.782h9.54V22H5.833v-2.226l9.573-11.833h-8.77V6h11.532V8.276z"
			/>
	</g>
</g>
</svg>
