<?xml version="1.0" encoding="utf-8"?>
<!-- Generator: Adobe Illustrator 26.0.1, SVG Export Plug-In . SVG Version: 6.00 Build 0)  -->
<svg version="1.1" id="Calque_1" xmlns="http://www.w3.org/2000/svg" xmlns:xlink="http://www.w3.org/1999/xlink" x="0px" y="0px"
	 viewBox="0 0 524.7 524.7" style="enable-background:new 0 0 524.7 524.7;" xml:space="preserve">
<style type="text/css">
	.st0{display:none;}
	.st1{display:inline;fill:#FFFFFF;}
</style>
<g id="Background" class="st0">
	<rect x="-2.6" y="-2.6" class="st1" width="530" height="530"/>
</g>
<g id="Contenu">
	<g>
		<g>
			<g>
				<g>
					<path d="M411.8,115.2c10.3,10.3,23.8,16,38.4,16h0.2c12.5,0,24.2-4.1,33.9-11.9c-19.7-30.6-45.6-57.1-75.8-77.2
						c-8,9.7-12.5,21.8-12.5,34.5C395.7,91.2,401.5,104.9,411.8,115.2z"/>
				</g>
				<g>
					<path d="M395.7,132.7c-30-29.8-46.4-69.4-46.2-111.3c0-2.9,0.2-5.8,0.2-8.4C332.1,6.8,313.6,2.3,294.5,0c-0.8,7-1,14.2-1,21.2
						c-0.2,57.1,22.2,110.7,62.8,151.1c42.1,41.9,97.5,62.8,153,62.8c5.1,0,10.3-0.2,15.4-0.6c-2.1-19.1-6-37.8-11.9-55.4
						C470.3,180.1,427.8,164.5,395.7,132.7z"/>
				</g>
				<g>
					<path d="M340.1,189.5c-54.2-54-93.6-118.5-116-189.1c-18.9,2.7-37,7.4-54.4,13.8c24.8,80.1,69.4,153.8,130.8,215
						c60.2,60,131.6,102.3,207.6,127.3c6.6-17.3,11.7-35.3,14.6-54.2C455.9,279.9,393.1,242.3,340.1,189.5z"/>
				</g>
				<g>
					<path d="M467.4,427.4L97.8,55c-14.6,11.7-28.1,24.8-40,39.2L427.8,467C442.6,455.3,455.7,441.9,467.4,427.4z"/>
				</g>
				<g>
					<path d="M14.6,169.4C8,186.9,3.3,205,0.6,223.8c68.6,22.4,133.1,60.4,187.3,114.4c53,52.8,91.8,115.8,114.6,184.4
						c18.9-2.9,37-7.8,54.2-14.6c-25.3-78.2-69-149.9-129.2-209.7C165.7,237.2,92.6,194.3,14.6,169.4z"/>
				</g>
				<g>
					<path d="M171.9,355.5c-46.8-46.6-110.3-67.4-171.9-62c2.3,19.1,6.6,37.6,12.7,55.2c43.1-1.6,86.9,13.8,119.7,46.4
						c30,29.8,46.4,69.4,46.2,111.3c0,1.8,0,3.9-0.2,5.8c17.7,6,36.1,10.1,55.4,12.1c0.4-5.8,0.8-11.7,0.8-17.7
						C234.7,449.7,212.5,395.9,171.9,355.5z"/>
				</g>
				<g>
					<path d="M116.2,412.6c-10.3-10.3-23.8-16-38.4-16h-0.2c-12.9,0-25.1,4.5-34.9,12.7c20.3,30.2,46.8,55.9,77.6,75.4
						c7.6-9.4,11.7-21.2,11.7-33.5C132,436.6,126.5,422.8,116.2,412.6z"/>
				</g>
			</g>
		</g>
	</g>
</g>
</svg>
